STARTFONT 2.1
FONT "streamline_content_files"
SIZE 16 75 75
FONTBOUNDINGBOX 16 16 0 0
STARTPROPERTIES 3
COPYRIGHT "streamlinehq.com"
FONT_ASCENT 0
FONT_DESCENT 0
ENDPROPERTIES
STARTCHAR streamline-content-files-archive-books-1--content-files.png
ENCODING 48
DWIDTH 21 0
BBX 21 21 0 0
BITMAP
007fe0
07c020
3c4820
25c020
2541f8
254208
254208
254408
254408
654808
654808
e55008
e55248
ffe008
842248
842188
b5a008
b5a008
842008
842008
000000
ENDCHAR
STARTCHAR streamline-content-files-archive-books-2--content-files.png
ENCODING 49
DWIDTH 21 0
BBX 21 21 0 0
BITMAP
1ffff0
200108
200108
21e108
200108
000108
fe0f08
83e108
823d08
412508
411308
ffff08
803f08
803f08
8e3f08
803f08
803f08
803f08
7ffff8
200108
200108
ENDCHAR
STARTCHAR streamline-content-files-archive-books-3--content-files.png
ENCODING 50
DWIDTH 21 0
BBX 21 21 0 0
BITMAP
1ffc00
700400
53fe00
520200
527f80
524140
524120
5241e0
524020
fffff8
ff0008
c30008
e70008
ff0008
ff0008
ff0428
ff0188
ff0008
ff07e8
ff0008
000000
ENDCHAR
STARTCHAR streamline-content-files-book--content-files.png
ENCODING 51
DWIDTH 21 0
BBX 21 21 0 0
BITMAP
3ffff0
400020
9fffe0
c00020
bffff0
900010
900010
90fe10
91ff10
93ff90
938390
930190
924490
920090
924490
923890
910110
90fe10
900010
500010
3fffe0
ENDCHAR
STARTCHAR streamline-content-files-books-1--content-files.png
ENCODING 52
DWIDTH 21 0
BBX 21 21 0 0
BITMAP
006000
019800
060600
18e180
63fc40
8ff0c0
e3c740
b81cc0
ce7380
73ce80
dc38e0
86e3f0
c38ff0
703f90
fcfe60
bff980
cfe600
339800
0d6000
038000
000000
ENDCHAR
STARTCHAR streamline-content-files-books-2--content-files.png
ENCODING 53
DWIDTH 21 0
BBX 21 21 0 0
BITMAP
000000
7fff80
804080
b09f00
804080
7fff80
ffc080
cf9f00
ffc080
7ffff8
260808
4c13d0
4c1010
4c13d0
260808
7ffff8
ff7008
fee7f0
ff7008
7ffff8
000000
ENDCHAR
STARTCHAR streamline-content-files-close-book-bookmark--content-files.png
ENCODING 54
DWIDTH 21 0
BBX 21 21 0 0
BITMAP
3ffff0
400020
9fbe60
c01d20
bfceb0
900e90
900e90
900f90
900f90
900f90
900f90
900f90
900d90
900890
900010
900010
900010
900010
900010
500010
3fffe0
ENDCHAR
STARTCHAR streamline-content-files-draw-content--content-files.png
ENCODING 55
DWIDTH 21 0
BBX 21 21 0 0
BITMAP
ffff00
800100
810100
892500
a54900
97f100
880800
9004c0
977120
9223a0
9007c0
908f80
521f00
53be00
505c40
4c4820
237010
2000e0
200300
1ffc00
000000
ENDCHAR
STARTCHAR streamline-content-files-favorite-book--content-files.png
ENCODING 56
DWIDTH 21 0
BBX 21 21 0 0
BITMAP
1fffc0
200020
480020
486c20
48fe20
48fe20
487c20
483820
481020
480020
48fe20
480020
483820
480020
400020
4fffe0
500020
67ffa0
230020
1b7fc0
010000
ENDCHAR
STARTCHAR streamline-content-files-folder-open--content-files.png
ENCODING 57
DWIDTH 21 0
BBX 21 21 0 0
BITMAP
0fffc0
0800e0
0800f0
0800f8
0800f8
084408
080008
083808
7c0008
820008
81ff88
800048
400048
400028
200028
200018
100018
100008
080008
080008
07fff0
ENDCHAR
STARTCHAR streamline-content-files-newspaper--content-files.png
ENCODING 58
DWIDTH 21 0
BBX 21 21 0 0
BITMAP
7fff00
800080
800080
bffe80
a1fef0
a3fe88
a7fe88
bffea8
8000a8
beeea8
800ea8
beeea8
8000a8
bffea8
8000a8
bffea8
8000a8
8ffe88
400050
3fffe0
000000
ENDCHAR
STARTCHAR streamline-content-files-note-book--content-files.png
ENCODING 59
DWIDTH 21 0
BBX 21 21 0 0
BITMAP
3fff80
400040
400070
e00050
43fc50
47fe70
460650
e7fe50
460670
47fe50
e3fc50
400070
400040
e00040
400040
400040
400a40
e00040
400e40
400040
3fff80
ENDCHAR
STARTCHAR streamline-content-files-note--content-files.png
ENCODING 60
DWIDTH 21 0
BBX 21 21 0 0
BITMAP
1fff00
000080
3ffc40
200e20
200f20
278fa0
200fa0
2000a0
2000a0
27fca0
2000a0
2000a0
2000a0
27fca0
2000a0
2000a0
2000a0
27fca0
2000a0
2000a0
3fff80
ENDCHAR
STARTCHAR streamline-content-files-notepad--content-files.png
ENCODING 61
DWIDTH 21 0
BBX 21 21 0 0
BITMAP
009200
03ffc0
0492e0
0400b0
080130
080130
112230
1003b0
222430
21c430
400fb0
400830
801030
801fb0
7fe030
020030
02ffb0
020030
020030
020030
01ffe0
ENDCHAR
STARTCHAR streamline-content-files-open-book-bookmark--content-files.png
ENCODING 62
DWIDTH 21 0
BBX 21 21 0 0
BITMAP
000000
1fdfc0
6e2030
aeaea8
ae2028
aeafa8
ae2028
aeaf28
ae2028
aaada8
a02028
a7afa8
a02028
abafa8
a02028
a02028
bfffe8
807008
7f07f0
00f800
000000
ENDCHAR
STARTCHAR streamline-content-files-open-book--content-files.png
ENCODING 63
DWIDTH 21 0
BBX 21 21 0 0
BITMAP
000000
000000
0f8f80
105040
372760
50a850
502050
572750
50a850
502050
572750
502050
53ae50
5fffd0
5c71d0
438e10
4c7190
300060
000000
000000
000000
ENDCHAR
STARTCHAR streamline-content-files-pdf--content-files.png
ENCODING 64
DWIDTH 21 0
BBX 21 21 0 0
BITMAP
1fff80
100140
100120
100110
1001f0
100010
100010
100010
300010
500010
500010
7fff10
713190
755790
715190
775790
773790
3fff10
100010
100010
1ffff0
ENDCHAR
STARTCHAR streamline-content-files-pencil-brush--content-files.png
ENCODING 65
DWIDTH 21 0
BBX 21 21 0 0
BITMAP
300180
480240
840420
820a10
411110
20a2a0
104440
088880
051100
022200
044400
088a00
1111c0
222220
445410
a88870
910870
ca09f0
e405f0
f803f8
000000
ENDCHAR
STARTCHAR streamline-content-files-pencil-ruler--content-files.png
ENCODING 66
DWIDTH 21 0
BBX 21 21 0 0
BITMAP
180000
241000
443800
424400
327c00
21d400
6dd600
59dd00
47f1c0
400120
400190
400150
422150
400150
422150
41c190
400120
4001c0
300600
0c1800
03e000
ENDCHAR
STARTCHAR streamline-content-files-pen--content-files.png
ENCODING 67
DWIDTH 21 0
BBX 21 21 0 0
BITMAP
000060
0007f0
000ff8
001bf8
0037f0
006be0
00d1c0
002080
004100
008200
010400
020800
041000
3c2000
424000
418000
990000
990000
a10000
c60000
f80000
ENDCHAR
STARTCHAR streamline-content-files-phone-book--content-files.png
ENCODING 68
DWIDTH 21 0
BBX 21 21 0 0
BITMAP
3ffff0
400020
9fffe0
c00020
bffff0
900010
900010
900010
93ff10
97ff90
970390
904810
90fc10
91ce10
93b710
93b710
93cf10
91fe10
900010
500010
3fffe0
ENDCHAR
STARTCHAR streamline-content-files-quill-ink--content-files.png
ENCODING 69
DWIDTH 21 0
BBX 21 21 0 0
BITMAP
0003f0
000c20
001240
002480
004900
009200
00a200
014400
019800
01e000
020000
020000
1fc000
088000
088000
306000
7c1000
6ff000
6ff000
73f000
3fe000
ENDCHAR
STARTCHAR streamline-content-files-sticky-notepad-1--content-files.png
ENCODING 70
DWIDTH 21 0
BBX 21 21 0 0
BITMAP
000000
07f000
7fffc0
47f060
47f060
400060
400060
59f850
580090
41e090
400090
99f890
980090
81e088
800088
803f88
ffc008
080038
081fc0
0fe000
000000
ENDCHAR
STARTCHAR streamline-content-files-sticky-notepad-2--content-files.png
ENCODING 71
DWIDTH 21 0
BBX 21 21 0 0
BITMAP
01fc00
0fff80
11fc40
700040
b18c40
b25240
b22240
b10440
b08840
b05040
b02040
98d040
980c30
980008
8ffff0
87fe40
800240
7ffc40
100040
0fff80
000000
ENDCHAR
STARTCHAR streamline-content-files-typing-machine--content-files.png
ENCODING 72
DWIDTH 21 0
BBX 21 21 0 0
BITMAP
01ff80
020140
0202c0
020200
8e0380
920240
7ffff0
28f890
31fc60
100040
107040
100040
27ff20
2d55a0
4fff90
5a8ad0
9fffc8
c00018
bfffe8
800008
7ffff0
ENDCHAR
STARTCHAR streamline-content-files-write-note--content-files.png
ENCODING 73
DWIDTH 21 0
BBX 21 21 0 0
BITMAP
7ffff0
800008
bf8008
a0bfe8
aa8008
bb8008
bbbfe8
b18008
bf8008
800008
bf39e8
802408
802208
bf1128
800888
71e440
090220
050110
030088
000050
000020
ENDCHAR
