STARTFONT 2.1
FONT "streamline_interface_essential_cursor"
SIZE 16 75 75
FONTBOUNDINGBOX 16 16 0 0
STARTPROPERTIES 3
COPYRIGHT "streamlinehq.com"
FONT_ASCENT 0
FONT_DESCENT 0
ENDPROPERTIES
STARTCHAR streamline-interface-essential-cursor-click-point--interface-essential.png
ENCODING 48
DWIDTH 21 0
BBX 21 21 0 0
BITMAP
03f000
040800
09e400
121200
14ca00
15ea00
15ea00
148a00
122200
09b000
042800
03a400
002200
002100
002080
002040
0021c0
002900
003480
002480
000300
ENDCHAR
STARTCHAR streamline-interface-essential-cursor--interface-essential.png
ENCODING 49
DWIDTH 21 0
BBX 21 21 0 0
BITMAP
000000
080000
0c0000
0a0000
090000
088000
084000
082000
081000
080800
080400
080200
080100
081f00
089000
094800
0a4800
0c2400
002400
001800
000000
ENDCHAR
STARTCHAR streamline-interface-essential-cursor-select--interface-essential.png
ENCODING 50
DWIDTH 21 0
BBX 21 21 0 0
BITMAP
800000
c00000
e00000
f00000
f80800
fc1400
fe2200
e07f00
c00800
810840
030860
050050
09e3c8
050050
030860
010840
000800
007f00
002200
001400
000800
ENDCHAR
STARTCHAR streamline-interface-essential-direction-button--interface-essential.png
ENCODING 51
DWIDTH 21 0
BBX 21 21 0 0
BITMAP
002000
005000
008800
010400
020200
01fc00
080080
140140
247120
44f910
84f908
44f910
247120
140140
080080
01fc00
020200
010400
008800
005000
002000
ENDCHAR
STARTCHAR streamline-interface-essential-keyboard-button-direction-1--interface-essential.png
ENCODING 52
DWIDTH 21 0
BBX 21 21 0 0
BITMAP
03fe00
020200
022200
027200
02fa00
020200
fe03f8
800008
880088
9888c8
b800e8
9888c8
887088
800008
fe03f8
020200
02fa00
027200
022200
020200
03fe00
ENDCHAR
STARTCHAR streamline-interface-essential-keyboard-button-direction-2--interface-essential.png
ENCODING 53
DWIDTH 21 0
BBX 21 21 0 0
BITMAP
01fc00
03de00
038e00
030600
03fe00
01fc00
7800f0
fc01f8
ec01b8
cc0198
8c0188
cc0198
ec01b8
fc01f8
7800f0
01fc00
03fe00
030600
038e00
03de00
01fc00
ENDCHAR
STARTCHAR streamline-interface-essential-move--interface-essential.png
ENCODING 54
DWIDTH 21 0
BBX 21 21 0 0
BITMAP
002000
007000
00f800
01fc00
002000
002000
002000
102040
300060
700070
ff07f8
700070
300060
102040
002000
002000
002000
01fc00
00f800
007000
002000
ENDCHAR
STARTCHAR streamline-interface-essential-scroll-horizontal--interface-essential.png
ENCODING 55
DWIDTH 21 0
BBX 21 21 0 0
BITMAP
000000
000000
000000
000000
000000
040100
0a0280
120240
227220
42fa10
82fa08
42fa10
227220
120240
0a0280
040100
000000
000000
000000
000000
000000
ENDCHAR
STARTCHAR streamline-interface-essential-scroll-vertical--interface-essential.png
ENCODING 56
DWIDTH 21 0
BBX 21 21 0 0
BITMAP
002000
005000
008800
010400
020200
040100
03fe00
000000
007000
00f800
00f800
00f800
007000
000000
03fe00
040100
020200
010400
008800
005000
002000
ENDCHAR
STARTCHAR streamline-interface-essential-search-remove--interface-essential.png
ENCODING 57
DWIDTH 21 0
BBX 21 21 0 0
BITMAP
03e000
0c1800
100400
200200
441100
4e3900
877080
83e080
81c080
83e080
877080
4e3900
441100
200380
1007c0
0c1f60
03e7b0
0003d0
0001f0
0000e0
000000
ENDCHAR
