STARTFONT 2.1
FONT "streamline_logo"
SIZE 16 75 75
FONTBOUNDINGBOX 16 16 0 0
STARTPROPERTIES 3
COPYRIGHT "streamlinehq.com"
FONT_ASCENT 0
FONT_DESCENT 0
ENDPROPERTIES
STARTCHAR streamline-logo-discord--logo.png
ENCODING 48
DWIDTH 21 0
BBX 21 21 0 0
BITMAP
00f800
03fe00
0fff80
1fffc0
3fffe0
3870e0
700070
600030
e00038
c18c18
c18c18
c00018
c00018
400010
63fe30
33fe60
3870e0
1fffc0
0fff80
03fe00
00f800
ENDCHAR
STARTCHAR streamline-logo-linkedin--logo.png
ENCODING 49
DWIDTH 21 0
BBX 21 21 0 0
BITMAP
3fffe0
400010
9fffc8
a00028
a00028
a00028
a60028
a60028
a00028
a66c28
a67e28
a67728
a66328
a66328
a66328
a00028
a00028
a00028
9fffc8
400010
3fffe0
ENDCHAR
STARTCHAR streamline-logo-pinterest--logo.png
ENCODING 50
DWIDTH 21 0
BBX 21 21 0 0
BITMAP
3fffe0
400010
807808
81fe08
83ff08
87ff08
8f0788
8e0388
8ec388
85e788
81e708
83cf08
83fe08
87fc08
873808
8f0008
8e0008
8e0008
840008
400010
3fffe0
ENDCHAR
STARTCHAR streamline-logo-snapchat--logo.png
ENCODING 51
DWIDTH 21 0
BBX 21 21 0 0
BITMAP
3fffe0
7ffff0
fffff8
ff8ff8
ff07f8
fe03f8
fe03f8
fe03f8
f20278
f00078
f800f8
fc01f8
fc01f8
f800f8
e00038
f00078
fe03f8
ff8ff8
fffff8
7ffff0
3fffe0
ENDCHAR
STARTCHAR streamline-logo-social-media-dropbox--logo.png
ENCODING 52
DWIDTH 21 0
BBX 21 21 0 0
BITMAP
000000
000000
030600
0c8980
305060
407010
218c20
160240
080180
160680
219840
406020
60b060
193980
063e00
063e00
01b800
006000
000000
000000
000000
ENDCHAR
STARTCHAR streamline-logo-social-media-facebook-circle--logo.png
ENCODING 53
DWIDTH 21 0
BBX 21 21 0 0
BITMAP
00f800
03fe00
0fff80
1fffc0
3fffe0
3fc1e0
7f81f0
7f81f0
ff8ff8
ff8ff8
fc00f8
fc01f8
fc03f8
7f8ff0
7f8ff0
3f8fe0
3f8fe0
1f8fc0
0f8f80
038e00
000000
ENDCHAR
STARTCHAR streamline-logo-social-media-instagram-circle--logo.png
ENCODING 54
DWIDTH 21 0
BBX 21 21 0 0
BITMAP
00f800
03fe00
0f0780
1cf9c0
3bfee0
37f960
6ff9b0
6f8fb0
df07d8
c07018
dcc9d8
dcc9d8
dcf9d8
6e73b0
6f07b0
378f60
3bfee0
1cf9c0
0f0780
03fe00
00f800
ENDCHAR
STARTCHAR streamline-logo-social-media-instagram--logo.png
ENCODING 55
DWIDTH 21 0
BBX 21 21 0 0
BITMAP
3fffe0
400010
8fff88
9fffc8
b800e8
b00368
b00368
b0f868
b1fc68
b38e68
b30668
b30668
b30668
b38e68
b1fc68
b0f868
b800e8
9fffc8
8fff88
400010
3fffe0
ENDCHAR
STARTCHAR streamline-logo-social-media-old-instagram--logo.png
ENCODING 56
DWIDTH 21 0
BBX 21 21 0 0
BITMAP
3fffe0
6a0010
aa0188
aa0248
aa0248
aa0188
aaf808
ff07f8
ba7208
84f908
85cd08
85ed08
85fd08
84f908
827208
810408
80f808
800008
800008
400010
3fffe0
ENDCHAR
STARTCHAR streamline-logo-social-media-tiktok-circle--logo.png
ENCODING 57
DWIDTH 21 0
BBX 21 21 0 0
BITMAP
00f800
03fe00
0fe780
1fdbc0
3fdde0
3fdee0
7fdf30
7fdfd0
f859d8
f35818
e75838
e6d9f8
e6d9f8
66d9f0
7339f0
33f9e0
39f3e0
1c07c0
0e0f80
03fe00
00f800
ENDCHAR
STARTCHAR streamline-logo-social-media-tiktok--logo.png
ENCODING 58
DWIDTH 21 0
BBX 21 21 0 0
BITMAP
3fffe0
400010
801808
803c08
803a08
803d08
803ec8
873fe8
8f37e8
9b35c8
b63408
ac3408
ac3408
ac3408
ac3408
9e7c08
97f808
8bf008
87e008
400010
3fffe0
ENDCHAR
STARTCHAR streamline-logo-social-media-twitter-circle--logo.png
ENCODING 59
DWIDTH 21 0
BBX 21 21 0 0
BITMAP
00f800
03fe00
0fff80
1fffc0
3fffe0
3fe1e0
7bc0f0
79c6f0
f8c638
f80078
f800f8
fc00f8
fe00f8
7f81f0
7f01f0
3e03e0
3c07e0
1fffc0
0fff80
03fe00
00f800
ENDCHAR
STARTCHAR streamline-logo-social-media-youtube-circle--logo.png
ENCODING 60
DWIDTH 21 0
BBX 21 21 0 0
BITMAP
00f800
03fe00
0fff80
1fffc0
3fffe0
3f7fe0
7f1ff0
7f0ff0
ff07f8
ff03f8
ff01f8
ff03f8
ff07f8
7f0ff0
7f1ff0
3f7fe0
3fffe0
1fffc0
0fff80
03fe00
00f800
ENDCHAR
STARTCHAR streamline-logo-social-media-youtube--logo.png
ENCODING 61
DWIDTH 21 0
BBX 21 21 0 0
BITMAP
000000
000000
000000
1fffc0
200020
5fffd0
bfffe8
bf7fe8
bf1fe8
bf0fe8
bf07e8
bf0fe8
bf1fe8
bf7fe8
bfffe8
5fffd0
200020
1fffc0
000000
000000
000000
ENDCHAR
STARTCHAR streamline-logo-soundcloud-1--logo.png
ENCODING 62
DWIDTH 21 0
BBX 21 21 0 0
BITMAP
000000
000000
000000
003000
00ac00
02a200
02a100
02a0c0
2aa120
2aa210
aaa008
aaa008
aaa008
aaa008
aaa010
2aa020
0abfc0
000000
000000
000000
000000
ENDCHAR
STARTCHAR streamline-logo-soundcloud-2--logo.png
ENCODING 63
DWIDTH 21 0
BBX 21 21 0 0
BITMAP
000000
000000
000000
000000
003000
00bc00
02be00
02bf00
02bf00
2abec0
2abde0
aabff0
aabff8
aabff8
aabff0
2abfe0
0abfc0
000000
000000
000000
000000
ENDCHAR
STARTCHAR streamline-logo-spotify--logo.png
ENCODING 64
DWIDTH 21 0
BBX 21 21 0 0
BITMAP
00f800
03fe00
0fff80
1e07c0
3803e0
2000e0
71f070
7ffe10
ffff98
fc0ff8
f001f8
c1e0f8
e7f838
7ffe70
7f3ff0
3c03e0
39f1e0
1ffcc0
0fff80
03fe00
00f800
ENDCHAR
STARTCHAR streamline-logo-twitch-1--logo.png
ENCODING 65
DWIDTH 21 0
BBX 21 21 0 0
BITMAP
00f800
03fe00
0fff80
1fffc0
3fffe0
300060
700070
73ff70
f3db78
f3db78
f3db78
f3db78
f3fef8
73fdf0
7bc3f0
39bfe0
3d7fe0
1cffc0
0fff80
03fe00
00f800
ENDCHAR
STARTCHAR streamline-logo-twitch-2--logo.png
ENCODING 66
DWIDTH 21 0
BBX 21 21 0 0
BITMAP
00f800
030600
0c0180
100040
200020
2fffa0
4fff90
4c0090
8c2488
8c2488
8c2488
8c2488
8c0108
460210
467c10
228020
230020
100040
0c0180
030600
00f800
ENDCHAR
STARTCHAR streamline-logo-twitter--logo.png
ENCODING 67
DWIDTH 21 0
BBX 21 21 0 0
BITMAP
000000
003c00
604200
508100
490080
450c80
430cf0
400010
400020
400040
200080
100080
080080
060080
040100
080100
100200
200400
3ff800
000000
000000
ENDCHAR
STARTCHAR streamline-logo-whatapp--logo.png
ENCODING 68
DWIDTH 21 0
BBX 21 21 0 0
BITMAP
00fc00
030300
0c00c0
100020
138020
27c010
27c010
47c008
438008
43c008
41e008
40f708
407f88
203f90
201f90
100720
100020
2000c0
470300
f8fc00
000000
ENDCHAR
