STARTFONT 2.1
FONT "streamline_interface_essential_file"
SIZE 16 75 75
FONTBOUNDINGBOX 16 16 0 0
STARTPROPERTIES 3
COPYRIGHT "streamlinehq.com"
FONT_ASCENT 0
FONT_DESCENT 0
ENDPROPERTIES
STARTCHAR streamline-interface-essential-bookmark_1--interface-essential.png
ENCODING 48
DWIDTH 21 0
BBX 21 21 0 0
BITMAP
07ff80
080240
100420
200820
200820
200820
26c820
2fefe0
2fe800
27c800
238800
210800
200800
200800
200800
200800
210800
228800
244800
282800
101000
ENDCHAR
STARTCHAR streamline-interface-essential-bookmark--interface-essential.png
ENCODING 49
DWIDTH 21 0
BBX 21 21 0 0
BITMAP
1f8000
7effe0
874010
874008
87c008
87cf88
87c008
86c008
844f88
800008
800008
800008
8fff88
800008
800008
800008
8fff88
800008
800008
400010
3fffe0
ENDCHAR
STARTCHAR streamline-interface-essential-clip-1--interface-essential.png
ENCODING 50
DWIDTH 21 0
BBX 21 21 0 0
BITMAP
000000
000000
000f00
003080
004040
008e20
011120
022120
044120
088240
110440
220880
401100
402200
404400
408800
211000
1e0000
000000
000000
000000
ENDCHAR
STARTCHAR streamline-interface-essential-clip-2--interface-essential.png
ENCODING 51
DWIDTH 21 0
BBX 21 21 0 0
BITMAP
000000
01e000
021000
040800
040800
040800
048800
048800
048800
048a00
048a00
048a00
048a00
048a00
045200
042200
020400
010800
00f000
000000
000000
ENDCHAR
STARTCHAR streamline-interface-essential-file-error--interface-essential.png
ENCODING 52
DWIDTH 21 0
BBX 21 21 0 0
BITMAP
3ffc00
200600
200700
200780
2007c0
2007e0
200020
200020
220220
270720
220220
200020
200020
27ff20
200920
200920
200620
200020
200020
200020
3fffe0
ENDCHAR
STARTCHAR streamline-interface-essential-flag--interface-essential.png
ENCODING 53
DWIDTH 21 0
BBX 21 21 0 0
BITMAP
000000
7fe000
801000
801fe0
801010
801020
801020
801040
801040
801080
801040
801040
801020
fff020
807010
803fe0
800000
800000
800000
800000
000000
ENDCHAR
