STARTFONT 2.1
FONT "streamline_romance"
SIZE 16 75 75
FONTBOUNDINGBOX 16 16 0 0
STARTPROPERTIES 3
COPYRIGHT "streamlinehq.com"
FONT_ASCENT 0
FONT_DESCENT 0
ENDPROPERTIES
STARTCHAR streamline-romance-heart-lock--romance.png
ENCODING 48
DWIDTH 21 0
BBX 21 21 0 0
BITMAP
00f800
010400
020200
020200
020200
078f00
1850c0
202020
400010
400010
407010
40e810
40f810
207020
202020
102040
082080
040100
030600
00d800
002000
ENDCHAR
STARTCHAR streamline-romance-love-letter-open--romance.png
ENCODING 49
DWIDTH 21 0
BBX 21 21 0 0
BITMAP
00f800
010400
020200
1fffc0
100040
100040
300060
50d850
91fc48
91fc48
d0f858
b07068
8c2188
830608
80f808
810408
820208
840108
880088
500050
3fffe0
ENDCHAR
