STARTFONT 2.1
FONT "streamline_video_movies"
SIZE 16 75 75
FONTBOUNDINGBOX 16 16 0 0
STARTPROPERTIES 3
COPYRIGHT "streamlinehq.com"
FONT_ASCENT 0
FONT_DESCENT 0
ENDPROPERTIES
STARTCHAR streamline-video-movies-play--video-movies.png
ENCODING 48
DWIDTH 21 0
BBX 21 21 0 0
BITMAP
3fffc0
400020
818010
800010
819810
800010
999990
800010
999990
800010
820010
9fff90
820010
800010
844210
886110
907090
886110
844210
400020
3fffc0
ENDCHAR
STARTCHAR streamline-video-movies-set-equipment--video-movies.png
ENCODING 49
DWIDTH 21 0
BBX 21 21 0 0
BITMAP
0000f0
000f30
00f390
0f39f0
f39f00
b9f000
9f0000
f00000
800000
fffff0
ce7390
9ce730
fffff0
800010
800010
8fe290
8007d0
8fe390
800110
800010
7fffe0
ENDCHAR
STARTCHAR streamline-video-movies-vintage-tv-2--video-movies.png
ENCODING 50
DWIDTH 21 0
BBX 21 21 0 0
BITMAP
7ffff0
c00008
8ff8e8
9bfca8
b5eee8
add608
babae8
b56ea8
add6e8
beba08
bf7ee8
9ffc08
8ff8e8
800008
7ffff0
0a0280
0a0280
140140
140140
140140
1800c0
ENDCHAR
STARTCHAR streamline-video-movies-vintage-tv-3--video-movies.png
ENCODING 51
DWIDTH 21 0
BBX 21 21 0 0
BITMAP
000000
020400
010800
009000
006000
7ffff0
800078
9ff378
ad6b78
ad6878
ad6b78
ad6b78
ad6878
ad6878
ad6b78
ad6878
9ff378
800078
7ffff0
000000
000000
ENDCHAR
