STARTFONT 2.1
FONT "streamline_interface_essential_other"
SIZE 16 75 75
FONTBOUNDINGBOX 16 16 0 0
STARTPROPERTIES 3
COPYRIGHT "streamlinehq.com"
FONT_ASCENT 0
FONT_DESCENT 0
ENDPROPERTIES
STARTCHAR streamline-interface-essential-battery--interface-essential.png
ENCODING 48
DWIDTH 21 0
BBX 21 21 0 0
BITMAP
01f800
010800
0f0f00
080100
080100
080100
0bfd00
080100
080100
0bfd00
080100
080100
0bfd00
080100
080100
0bfd00
0bfd00
0bfd00
080100
080100
07fe00
ENDCHAR
STARTCHAR streamline-interface-essential-crown--interface-essential.png
ENCODING 49
DWIDTH 21 0
BBX 21 21 0 0
BITMAP
000000
000000
000000
006000
009000
609060
906090
909090
7090e0
290940
250a40
220440
106080
1b6d80
100080
1fff80
1fff80
0fff00
000000
000000
000000
ENDCHAR
STARTCHAR streamline-interface-essential-flash--interface-essential.png
ENCODING 50
DWIDTH 21 0
BBX 21 21 0 0
BITMAP
207f80
708080
210100
020200
040420
080850
101020
203f00
400080
400080
3f0100
010200
010400
420800
a21000
422080
0441c0
048080
050000
021000
000000
ENDCHAR
STARTCHAR streamline-interface-essential-floppy-disk--interface-essential.png
ENCODING 51
DWIDTH 21 0
BBX 21 21 0 0
BITMAP
3fffe0
520050
920f48
920b48
920b48
920f48
8e0048
83ffc8
800008
800008
8fff88
900048
900048
900048
93fe48
900048
900048
93fe48
900048
900048
7ffff0
ENDCHAR
STARTCHAR streamline-interface-essential-global-public--interface-essential.png
ENCODING 52
DWIDTH 21 0
BBX 21 21 0 0
BITMAP
00f800
030600
0e0180
1f8040
3fc020
3fc1e0
7e81f0
7c03f0
e003f8
c183f8
e181f8
f080f8
f807f8
780ff0
7801f0
3001e0
2003e0
1003c0
0dc180
03e600
00f800
ENDCHAR
STARTCHAR streamline-interface-essential-magnet--interface-essential.png
ENCODING 53
DWIDTH 21 0
BBX 21 21 0 0
BITMAP
080100
100200
3c0780
080100
100200
000000
000000
3e07c0
3e07c0
3e07c0
3e07c0
220440
220440
220440
220440
220440
11f880
100080
080100
060600
01f800
ENDCHAR
STARTCHAR streamline-interface-essential-map--interface-essential.png
ENCODING 54
DWIDTH 21 0
BBX 21 21 0 0
BITMAP
000000
007000
00f800
01cc00
01ec00
01fc00
00f800
007000
002000
002000
002000
07ff00
082880
087180
10a240
112440
2e0420
218420
404410
fffff8
000000
ENDCHAR
STARTCHAR streamline-interface-essential-message--interface-essential.png
ENCODING 55
DWIDTH 21 0
BBX 21 21 0 0
BITMAP
01fc00
060300
180080
200040
400020
800010
800010
800010
8c6310
8c6310
800010
800010
800010
400020
200040
100080
0c0100
080600
101800
3fe000
000000
ENDCHAR
STARTCHAR streamline-interface-essential-pacman-loading--interface-essential.png
ENCODING 56
DWIDTH 21 0
BBX 21 21 0 0
BITMAP
1f0000
208080
404000
404000
852490
802000
802000
802080
aaa000
554000
000380
000fe0
081ff0
000f70
0003f8
4921f8
0003f8
000ff0
081ff0
000fe0
000380
ENDCHAR
STARTCHAR streamline-interface-essential-pin--interface-essential.png
ENCODING 57
DWIDTH 21 0
BBX 21 21 0 0
BITMAP
000600
000900
000880
000440
000a20
039110
0c6090
100160
204200
202400
101400
080200
040200
060200
0f0400
1c8400
384800
703000
e00000
c00000
000000
ENDCHAR
STARTCHAR streamline-interface-essential-print--interface-essential.png
ENCODING 58
DWIDTH 21 0
BBX 21 21 0 0
BITMAP
03fc00
020a00
020e00
020200
0e0380
1e03c0
1e03c0
1e03c0
7ffff0
900048
8fff88
800008
8000a8
800008
8fff88
820208
82fa08
420210
3efbe0
020200
03fe00
ENDCHAR
STARTCHAR streamline-interface-essential-safari-compass--interface-essential.png
ENCODING 59
DWIDTH 21 0
BBX 21 21 0 0
BITMAP
00f800
030600
0cf980
130640
242120
2800a0
520050
500250
a00c28
a03c28
a878a8
a07828
a07028
500050
520250
2800a0
242120
130640
0cf980
030600
00f800
ENDCHAR
STARTCHAR streamline-interface-essential-satellite--interface-essential.png
ENCODING 60
DWIDTH 21 0
BBX 21 21 0 0
BITMAP
070000
180000
2000e0
4601f0
480358
91c7b8
932d58
865ef0
04ad60
0547c0
028380
010100
038080
07c240
0d6160
1ef0e0
3569c0
3bc780
358300
1f0000
0e0000
ENDCHAR
STARTCHAR streamline-interface-essential-send-mail--interface-essential.png
ENCODING 61
DWIDTH 21 0
BBX 21 21 0 0
BITMAP
000000
000000
000000
000000
000000
001d80
006400
018878
061c00
18e318
6000c0
800020
ffffe0
03ff00
001f00
000000
000000
000000
000000
000000
000000
ENDCHAR
STARTCHAR streamline-interface-essential-skull-1--interface-essential.png
ENCODING 62
DWIDTH 21 0
BBX 21 21 0 0
BITMAP
03fe00
0c0180
100040
200020
400010
400010
400010
400010
460310
4f0790
4f0790
460310
400010
207020
100040
080080
088880
088880
088880
077700
000000
ENDCHAR
STARTCHAR streamline-interface-essential-skull-2--interface-essential.png
ENCODING 63
DWIDTH 21 0
BBX 21 21 0 0
BITMAP
600060
e00070
f000f0
39f9c0
1e0780
080100
080100
130c80
179e80
279e40
230c40
200040
206040
100080
080100
1c0380
3c93c0
f492f0
e3fc70
600060
000000
ENDCHAR
STARTCHAR streamline-interface-essential-stat--interface-essential.png
ENCODING 64
DWIDTH 21 0
BBX 21 21 0 0
BITMAP
3fffe0
7ffff0
e00038
c00018
c00018
c10018
c28018
c28018
c44018
c44118
b822e8
c02218
c01418
c01418
c00818
c00018
c00018
c00018
e00038
7ffff0
3fffe0
ENDCHAR
STARTCHAR streamline-interface-essential-switch-off--interface-essential.png
ENCODING 65
DWIDTH 21 0
BBX 21 21 0 0
BITMAP
3fffe0
400010
800008
a00028
80fe08
81ff08
81ff08
81ff08
810308
820708
840f08
881d08
8ff908
883908
87f108
810108
80fe08
a00028
800008
400010
3fffe0
ENDCHAR
STARTCHAR streamline-interface-essential-switch-on--interface-essential.png
ENCODING 66
DWIDTH 21 0
BBX 21 21 0 0
BITMAP
3fffe0
400010
87f008
a83828
8ffe08
880f08
840708
820308
810108
81ff08
810108
814508
810108
814508
813908
810108
80fe08
a00028
800008
400010
3fffe0
ENDCHAR
STARTCHAR streamline-interface-essential-translate--interface-essential.png
ENCODING 67
DWIDTH 21 0
BBX 21 21 0 0
BITMAP
3f8000
404200
842600
bfafc0
812620
8a2210
842010
8a2010
912000
404000
3f8fe0
001010
002388
402448
402448
422448
2327c8
1fa448
032448
021010
000fe0
ENDCHAR
STARTCHAR streamline-interface-essential-trophy--interface-essential.png
ENCODING 68
DWIDTH 21 0
BBX 21 21 0 0
BITMAP
0fff00
100080
7000e0
906090
906090
93fc90
91f890
90f090
71f8e0
119880
100080
080100
040200
030c00
009000
009000
009000
030c00
040200
0fff00
000000
ENDCHAR
