STARTFONT 2.1
FONT "streamline_interface_essential_key_lock"
SIZE 16 75 75
FONTBOUNDINGBOX 16 16 0 0
STARTPROPERTIES 3
COPYRIGHT "streamlinehq.com"
FONT_ASCENT 0
FONT_DESCENT 0
ENDPROPERTIES
STARTCHAR streamline-interface-essential-key-1--interface-essential.png
ENCODING 48
DWIDTH 21 0
BBX 21 21 0 0
BITMAP
007c00
008200
010100
010780
016940
0097a0
0135a0
0137a0
011020
010840
020c80
047480
0884e0
110420
2084e0
444480
2a84e0
110420
0004e0
000480
000300
ENDCHAR
STARTCHAR streamline-interface-essential-key--interface-essential.png
ENCODING 49
DWIDTH 21 0
BBX 21 21 0 0
BITMAP
01f800
020400
046200
08d100
08f100
086100
080100
080100
040200
020400
019800
009000
009c00
008200
009c00
009000
009c00
008200
009c00
009000
006000
ENDCHAR
STARTCHAR streamline-interface-essential-key-lock--interface-essential.png
ENCODING 50
DWIDTH 21 0
BBX 21 21 0 0
BITMAP
000f80
001fc0
0038e0
183060
243060
e43060
843060
e43060
243060
e43060
847ff0
e48008
248008
248888
420008
990888
bd0708
bd0008
990008
424010
3c3fe0
ENDCHAR
STARTCHAR streamline-interface-essential-key-login--interface-essential.png
ENCODING 51
DWIDTH 21 0
BBX 21 21 0 0
BITMAP
00f800
030600
0c0180
100040
200000
200000
4001e0
400210
87fcc8
8801e8
8bbde8
8aa4c8
8aa210
4441e0
400000
200000
200020
100040
0c0180
030600
00f800
ENDCHAR
STARTCHAR streamline-interface-essential-lock-1--interface-essential.png
ENCODING 52
DWIDTH 21 0
BBX 21 21 0 0
BITMAP
700070
80f808
810408
820208
020200
020200
020200
020200
07ff00
080080
080080
087080
08e880
08f880
087080
082080
082080
880088
840108
83fe08
700070
ENDCHAR
STARTCHAR streamline-interface-essential-lock-door-out--interface-essential.png
ENCODING 53
DWIDTH 21 0
BBX 21 21 0 0
BITMAP
00fe00
010100
027c80
049240
051140
011140
1c1140
22ff40
221140
221140
7f1140
809140
9cbf40
9c9140
889140
889140
809140
7f3f40
000040
1ffff0
1ffff0
ENDCHAR
STARTCHAR streamline-interface-essential-lock--interface-essential.png
ENCODING 54
DWIDTH 21 0
BBX 21 21 0 0
BITMAP
01fc00
020200
040100
040100
040100
040100
040100
040100
0fff80
100040
100040
107040
10e840
10f840
107040
102040
102040
102040
100040
080080
07ff00
ENDCHAR
STARTCHAR streamline-interface-essential-lock-shield--interface-essential.png
ENCODING 55
DWIDTH 21 0
BBX 21 21 0 0
BITMAP
01fc00
060300
1870c0
208820
210420
210420
210420
210420
23fe20
240120
245120
24e920
24f920
247120
142140
120240
09fc80
040100
020200
018c00
007000
ENDCHAR
STARTCHAR streamline-interface-essential-touch-id-lock--interface-essential.png
ENCODING 56
DWIDTH 21 0
BBX 21 21 0 0
BITMAP
07f000
080800
100400
100400
100400
100400
100400
100400
3ffe00
400000
403060
434010
474710
460880
431240
411540
411540
411140
404910
204610
1f3060
ENDCHAR
