STARTFONT 2.1
FONT "streamline_photography"
SIZE 16 75 75
FONTBOUNDINGBOX 16 16 0 0
STARTPROPERTIES 3
COPYRIGHT "streamlinehq.com"
FONT_ASCENT 0
FONT_DESCENT 0
ENDPROPERTIES
STARTCHAR streamline-photography-camera-1--photography.png
ENCODING 48
DWIDTH 21 0
BBX 21 21 0 0
BITMAP
000000
000000
000000
071fc0
08a020
3fc390
400450
980390
80f010
ff0ff0
826410
82d410
82f410
826410
810810
80f010
400020
3fffc0
000000
000000
000000
ENDCHAR
STARTCHAR streamline-photography-equipment-film-print--photography.png
ENCODING 49
DWIDTH 21 0
BBX 21 21 0 0
BITMAP
6800b0
2800a0
6800b0
2800a0
6800b0
27ff20
600030
200020
67ff30
2800a0
6800b0
2814a0
6800b0
2822a0
681cb0
2800a0
67ff30
200020
600030
27ff20
6800b0
ENDCHAR
STARTCHAR streamline-photography-file-picture--photography.png
ENCODING 50
DWIDTH 21 0
BBX 21 21 0 0
BITMAP
3ffc00
200600
200700
200780
27e7c0
2807e0
2b0020
2b00a0
2800a0
28c0a0
292ca0
2a12a0
2c09a0
2fffa0
2800a0
2800a0
27ff20
200020
200020
200020
3fffe0
ENDCHAR
STARTCHAR streamline-photography-focus-flower--photography.png
ENCODING 51
DWIDTH 21 0
BBX 21 21 0 0
BITMAP
0c7180
0a8a80
090480
080080
080080
080080
080080
080080
040100
030600
00f800
002000
002000
0e2380
172740
1baec0
1dadc0
0eab80
072700
002000
000000
ENDCHAR
STARTCHAR streamline-photography-frame-picture--photography.png
ENCODING 52
DWIDTH 21 0
BBX 21 21 0 0
BITMAP
000000
000000
600030
9fffc8
800008
5fffd0
500050
5240d0
551950
522550
502350
5113d0
528e50
513dd0
5045d0
5fffd0
800008
9fffc8
600030
000000
000000
ENDCHAR
STARTCHAR streamline-photography-light-mode-flash-on--photography.png
ENCODING 53
DWIDTH 21 0
BBX 21 21 0 0
BITMAP
00f800
030600
0c0180
100040
203c20
207c20
40f810
41f010
83e008
87f808
87fc08
83fc08
807808
40f010
40e010
21c020
218020
100040
0c0180
030600
00f800
ENDCHAR
STARTCHAR streamline-photography-photo-image--photography.png
ENCODING 54
DWIDTH 21 0
BBX 21 21 0 0
BITMAP
000000
000000
3fffe0
400010
800008
800008
800008
800208
802228
801048
870708
98cf98
a03fe8
c00f88
800608
801808
806008
418010
3fffe0
000000
000000
ENDCHAR
STARTCHAR streamline-photography-picture-polaroid--photography.png
ENCODING 55
DWIDTH 21 0
BBX 21 21 0 0
BITMAP
7fff80
800040
9ffe50
a00150
a01950
a03d50
a03d50
a31950
a48150
a84750
b02950
a01150
a00950
9ffe50
800050
800050
800050
7fff90
000010
3fffe0
000000
ENDCHAR
STARTCHAR streamline-photography-retouch-wand--photography.png
ENCODING 56
DWIDTH 21 0
BBX 21 21 0 0
BITMAP
00f800
030600
0c4180
10e040
204220
200020
490810
5c1c90
883e08
807c08
80f848
8170e8
822048
444810
489d10
310820
220020
140040
0c0180
030600
00f800
ENDCHAR
STARTCHAR streamline-photography-retouch-wand-star--photography.png
ENCODING 57
DWIDTH 21 0
BBX 21 21 0 0
BITMAP
00f800
030600
0c0180
101040
221120
210220
404010
407810
8c7988
81f808
80bc08
816008
82a208
450110
4a0810
340820
280020
180040
0c0180
030600
00f800
ENDCHAR
STARTCHAR streamline-photography-taking-pictures-circle-alternate--photography.png
ENCODING 58
DWIDTH 21 0
BBX 21 21 0 0
BITMAP
00f800
030600
0c0180
100040
200020
207020
408810
470710
880088
887288
88c888
88e888
88f888
487090
480090
27ff20
200020
100040
0c0180
030600
00f800
ENDCHAR
