STARTFONT 2.1
FONT "streamline_pet_animals"
SIZE 16 75 75
FONTBOUNDINGBOX 16 16 0 0
STARTPROPERTIES 3
COPYRIGHT "streamlinehq.com"
FONT_ASCENT 0
FONT_DESCENT 0
ENDPROPERTIES
STARTCHAR streamline-pet-animals-bear--pet-animals.png
ENCODING 48
DWIDTH 21 0
BBX 21 21 0 0
BITMAP
000000
000000
79fcf0
860308
b00068
b00068
800008
610430
100040
10f840
207020
202020
200820
203020
100040
100040
080080
060300
01fc00
000000
000000
ENDCHAR
STARTCHAR streamline-pet-animals-buffalo--pet-animals.png
ENCODING 49
DWIDTH 21 0
BBX 21 21 0 0
BITMAP
700070
a18c28
a65328
9820c8
802008
805008
618c30
3e03e0
480090
880088
bb8ee8
c90498
080080
100040
21fc20
217420
217420
20f820
1800c0
060300
01fc00
ENDCHAR
STARTCHAR streamline-pet-animals-cat--pet-animals.png
ENCODING 50
DWIDTH 21 0
BBX 21 21 0 0
BITMAP
000000
040100
0a0280
090480
10f840
112440
212420
200020
400010
410810
400010
f0f078
446110
f00078
441110
206020
100040
0c0180
03fe00
000000
000000
ENDCHAR
STARTCHAR streamline-pet-animals-dog--pet-animals.png
ENCODING 51
DWIDTH 21 0
BBX 21 21 0 0
BITMAP
1800c0
140140
220220
2904a0
2cf9a0
2e03a0
200020
200020
200020
420210
40f810
8f7788
b02068
c00018
800808
403010
400010
200020
100040
0e0380
01fc00
ENDCHAR
STARTCHAR streamline-pet-animals-frog-face--pet-animals.png
ENCODING 52
DWIDTH 21 0
BBX 21 21 0 0
BITMAP
000000
1f07c0
208820
4e5390
5b56d0
5f27d0
5f07d0
4e0390
205020
400010
800808
803008
800008
800008
800008
400010
400010
200020
1800c0
07ff00
000000
ENDCHAR
STARTCHAR streamline-pet-animals-frog--pet-animals.png
ENCODING 53
DWIDTH 21 0
BBX 21 21 0 0
BITMAP
1c0e00
221100
592c80
592c80
40c080
200040
210020
4e0020
400010
800010
800608
800808
be1008
c11008
809008
809008
408808
304410
683820
87e040
f83f80
ENDCHAR
STARTCHAR streamline-pet-animals-gorilla--pet-animals.png
ENCODING 54
DWIDTH 21 0
BBX 21 21 0 0
BITMAP
000000
00f800
070700
080080
100040
138e40
247120
200020
23fe20
46fb10
46fb10
47ff10
47af10
43fe10
43fe10
41fc10
200020
100040
0c0180
03fe00
000000
ENDCHAR
STARTCHAR streamline-pet-animals-ox--pet-animals.png
ENCODING 55
DWIDTH 21 0
BBX 21 21 0 0
BITMAP
700070
2800a0
480090
90f848
9b06c8
840108
400010
300060
400010
800108
7800f0
090480
088880
040100
040100
05dd00
03fe00
072700
078f00
03fe00
01fc00
ENDCHAR
STARTCHAR streamline-pet-animals-pig--pet-animals.png
ENCODING 56
DWIDTH 21 0
BBX 21 21 0 0
BITMAP
000000
7dfdf0
820208
800008
900048
a00028
400010
400010
408810
800008
81fc08
83fe08
832608
432610
41fc10
200020
100040
0e0380
01fc00
000000
000000
ENDCHAR
STARTCHAR streamline-pet-animals-rabbit-1--pet-animals.png
ENCODING 57
DWIDTH 21 0
BBX 21 21 0 0
BITMAP
7800f0
840108
f20278
f904f8
7d05f0
1d05c0
08f880
080080
080080
100040
120240
200020
207020
4e2390
400010
460310
400010
200020
100040
0c0180
03fe00
ENDCHAR
STARTCHAR streamline-pet-animals-rabbit-2--pet-animals.png
ENCODING 58
DWIDTH 21 0
BBX 21 21 0 0
BITMAP
030600
048900
085080
0b5680
0b5680
0b5680
0b5680
0b5680
0b5680
085080
082080
100040
110440
207020
202020
200820
203020
200020
100040
0c0180
03fe00
ENDCHAR
STARTCHAR streamline-pet-animals-turtle--pet-animals.png
ENCODING 59
DWIDTH 21 0
BBX 21 21 0 0
BITMAP
000000
000000
000000
003e00
38c100
45e080
83e1c0
a2ff40
847e20
647e20
12e370
09c1c8
04ff90
020020
044840
08b420
070220
0001c0
000000
000000
000000
ENDCHAR
