STARTFONT 2.1
FONT "streamline_money_payments"
SIZE 16 75 75
FONTBOUNDINGBOX 16 16 0 0
STARTPROPERTIES 3
COPYRIGHT "streamlinehq.com"
FONT_ASCENT 0
FONT_DESCENT 0
ENDPROPERTIES
STARTCHAR streamline-money-payments-accounting-bill-money-1--money-payments.png
ENCODING 48
DWIDTH 21 0
BBX 21 21 0 0
BITMAP
000000
000000
7ffff0
800008
af27a8
887088
b0a868
a4a128
aa72a8
a42928
b0a868
887088
af27a8
800008
7ffff0
000000
fffff8
000000
fffff8
000000
000000
ENDCHAR
STARTCHAR streamline-money-payments-accounting-bill-money-2--money-payments.png
ENCODING 49
DWIDTH 21 0
BBX 21 21 0 0
BITMAP
218020
720070
818080
704070
098c08
703370
20c020
03f000
0ffcd0
31ff30
c07fd0
b03f30
cccfd0
b3bf30
cccfd0
b3bf30
cccfc0
33bf00
0ccc00
03b000
00c000
ENDCHAR
STARTCHAR streamline-money-payments-accounting-calculator--money-payments.png
ENCODING 50
DWIDTH 21 0
BBX 21 21 0 0
BITMAP
07ff00
080080
17ff40
140140
141540
140140
17ff40
100040
177740
155540
177740
100040
177740
155540
177740
100040
177f40
157f40
177f40
080080
07ff00
ENDCHAR
STARTCHAR streamline-money-payments-bank--money-payments.png
ENCODING 51
DWIDTH 21 0
BBX 21 21 0 0
BITMAP
007000
018c00
067300
198cc0
667330
98d8c8
a18c28
fb7ef8
538e50
53f650
518c50
50d850
507050
520250
528a50
528a50
7ffff0
400010
fffff8
800008
000000
ENDCHAR
STARTCHAR streamline-money-payments-calculator-app--money-payments.png
ENCODING 52
DWIDTH 21 0
BBX 21 21 0 0
BITMAP
000000
1fffc0
2040e0
404070
444070
4e4e70
444070
404070
404070
7ffff0
404070
404070
4a4e70
444070
4a4e70
404070
2040f0
3fffe0
1fffc0
000000
000000
ENDCHAR
STARTCHAR streamline-money-payments-cash-payment-coin--money-payments.png
ENCODING 53
DWIDTH 21 0
BBX 21 21 0 0
BITMAP
1e0000
20e000
491000
9d0800
a10400
9c8300
8240b8
9c4078
482038
212038
1e1038
800038
800038
7f0038
200038
200028
1fc028
0800f8
080738
07f800
000000
ENDCHAR
STARTCHAR streamline-money-payments-credit-card-mastercard--money-payments.png
ENCODING 54
DWIDTH 21 0
BBX 21 21 0 0
BITMAP
000000
000000
7fffc0
800020
83b820
857c28
8abe28
951f28
9b1f28
951f28
8abe28
857c28
83b828
800028
7fffc8
000018
3ffff8
1ffff0
000000
000000
000000
ENDCHAR
STARTCHAR streamline-money-payments-credit-card-visa--money-payments.png
ENCODING 55
DWIDTH 21 0
BBX 21 21 0 0
BITMAP
000000
000000
7fffc0
800020
800020
800028
aa7328
aa84a8
aa67a8
aa14a8
92e4a8
800028
800028
800028
7fffc8
000018
3ffff8
1ffff0
000000
000000
000000
ENDCHAR
STARTCHAR streamline-money-payments-currency-euro-dollar-exchange--money-payments.png
ENCODING 56
DWIDTH 21 0
BBX 21 21 0 0
BITMAP
0007c0
078820
081110
102388
102408
102388
7c2048
382388
101110
000820
1f07c0
208000
464040
8820e0
be21f0
902040
bc2040
882040
464080
208f00
1f0000
ENDCHAR
STARTCHAR streamline-money-payments-diamond--money-payments.png
ENCODING 57
DWIDTH 21 0
BBX 21 21 0 0
BITMAP
401000
e20210
400038
0fff10
110880
220440
440220
880110
fffff0
880110
440220
220440
120480
090900
050a20
429450
a19820
409000
046100
000388
400100
ENDCHAR
STARTCHAR streamline-money-payments-saving-treasure--money-payments.png
ENCODING 58
DWIDTH 21 0
BBX 21 21 0 0
BITMAP
1f0100
3b9110
71c920
6fc000
71f7c0
7ecee0
71dc70
bb9bf0
9f5c70
401fb0
fffff8
80a808
ffaff8
848908
847108
840108
840108
840108
440110
3fffe0
000000
ENDCHAR
STARTCHAR streamline-money-payments-self-payment--money-payments.png
ENCODING 59
DWIDTH 21 0
BBX 21 21 0 0
BITMAP
1fffc0
200020
2fe220
2d6720
2feaa0
2c6a20
2fe720
2002a0
2daaa0
200720
2da220
200020
200020
1fffc0
002000
7ffff0
400010
400010
4fff90
400010
7ffff0
ENDCHAR
STARTCHAR streamline-money-payments-smartphone-pay-dollar--money-payments.png
ENCODING 60
DWIDTH 21 0
BBX 21 21 0 0
BITMAP
1ffe00
3e9f00
23f100
200100
200000
201f00
202080
204440
208e20
209020
208e20
208120
208e20
204440
202080
201f00
200000
200100
200100
3fff00
1ffe00
ENDCHAR
