STARTFONT 2.1
COMMENT Exported by Fony v1.4.7
FONT battery19
SIZE 19 96 96
FONTBOUNDINGBOX 9 18 0 0
STARTPROPERTIES 6
COPYRIGHT "Created with Fony 1.4.7"
RESOLUTION_X 96
RESOLUTION_Y 96
FONT_ASCENT 19
FONT_DESCENT 0
DEFAULT_CHAR 0
ENDPROPERTIES
CHARS 8
STARTCHAR 048
ENCODING 48
SWIDTH 648 0
DWIDTH 9 0
BBX 8 19 0 0
BITMAP
3C
FF
81
81
81
81
81
81
81
81
81
81
81
81
81
81
81
81
FF
ENDCHAR
STARTCHAR 049
ENCODING 49
SWIDTH 648 0
DWIDTH 9 0
BBX 8 19 0 0
BITMAP
3C
FF
81
81
81
81
81
81
81
81
81
81
81
81
81
BD
BD
81
FF
ENDCHAR
STARTCHAR 050
ENCODING 50
SWIDTH 648 0
DWIDTH 9 0
BBX 8 19 0 0
BITMAP
3C
FF
81
81
81
81
81
81
81
81
81
81
BD
BD
81
BD
BD
81
FF
ENDCHAR
STARTCHAR 051
ENCODING 51
SWIDTH 648 0
DWIDTH 9 0
BBX 8 19 0 0
BITMAP
3C
FF
81
81
81
81
81
81
81
BD
BD
81
BD
BD
81
BD
BD
81
FF
ENDCHAR
STARTCHAR 052
ENCODING 52
SWIDTH 648 0
DWIDTH 9 0
BBX 8 19 0 0
BITMAP
3C
FF
81
81
81
81
BD
BD
81
BD
BD
81
BD
BD
81
BD
BD
81
FF
ENDCHAR
STARTCHAR 053
ENCODING 53
SWIDTH 648 0
DWIDTH 9 0
BBX 8 19 0 0
BITMAP
3C
FF
81
BD
BD
81
BD
BD
81
BD
BD
81
BD
BD
81
BD
BD
81
FF
ENDCHAR
STARTCHAR 054
ENCODING 54
SWIDTH 648 0
DWIDTH 9 0
BBX 8 19 0 0
BITMAP
3C
FF
81
81
81
89
89
99
99
BD
BD
99
99
91
91
81
81
81
FF
ENDCHAR
STARTCHAR 055
ENCODING 55
SWIDTH 648 0
DWIDTH 9 0
BBX 0 0 0 0
BITMAP
ENDCHAR
ENDFONT
