STARTFONT 2.1
COMMENT Exported by Fony v1.4.7
FONT Emoticons21
SIZE 22 96 96
FONTBOUNDINGBOX 22 21 0 -1
STARTPROPERTIES 6
COPYRIGHT "public domain,
created by olikraus@gmail.com"
RESOLUTION_X 96
RESOLUTION_Y 96
FONT_ASCENT 21
FONT_DESCENT 1
DEFAULT_CHAR 0
ENDPROPERTIES
CHARS 32
STARTCHAR 032
ENCODING 32
SWIDTH 1584 0
DWIDTH 22 0
BBX 21 21 0 0
BITMAP
01FC00
060300
080080
100040
200020
418C10
418C10
818C08
818C08
800008
800008
8FFF88
880088
840108
430610
40F810
200020
100040
080080
060300
01FC00
ENDCHAR
STARTCHAR 033
ENCODING 33
SWIDTH 1584 0
DWIDTH 22 0
BBX 21 21 0 0
BITMAP
01FC00
060300
080080
100040
200020
418C10
418C10
818C08
818C08
800008
800008
880088
880088
840108
430610
40F810
200020
100040
080080
060300
01FC00
ENDCHAR
STARTCHAR 034
ENCODING 34
SWIDTH 1584 0
DWIDTH 22 0
BBX 21 21 0 0
BITMAP
01FC00
060300
080080
100040
200020
418C10
418C10
818C08
818C08
800008
800008
880088
840108
830608
40F810
400010
200020
100040
080080
060300
01FC00
ENDCHAR
STARTCHAR 035
ENCODING 35
SWIDTH 1584 0
DWIDTH 22 0
BBX 21 21 0 0
BITMAP
01FC00
060300
080080
100040
200020
418C10
418C10
818C08
818C08
800008
800008
800008
880088
87FF08
400010
400010
200020
100040
080080
060300
01FC00
ENDCHAR
STARTCHAR 036
ENCODING 36
SWIDTH 1584 0
DWIDTH 22 0
BBX 21 21 0 0
BITMAP
01FC00
060300
080080
100040
200020
418C10
418C10
818C08
818C08
800008
800008
800008
800008
87FF08
400010
400010
200020
100040
080080
060300
01FC00
ENDCHAR
STARTCHAR 037
ENCODING 37
SWIDTH 1584 0
DWIDTH 22 0
BBX 21 21 0 0
BITMAP
01FC00
060300
080080
100040
200020
418C10
418C10
818C08
818C08
800008
800008
800008
800008
87FF08
480090
400010
200020
100040
080080
060300
01FC00
ENDCHAR
STARTCHAR 038
ENCODING 38
SWIDTH 1584 0
DWIDTH 22 0
BBX 21 21 0 0
BITMAP
01FC00
060300
080080
100040
200020
418C10
418C10
818C08
818C08
800008
800008
80F808
830608
840108
480090
400010
200020
100040
080080
060300
01FC00
ENDCHAR
STARTCHAR 039
ENCODING 39
SWIDTH 1584 0
DWIDTH 22 0
BBX 21 21 0 0
BITMAP
01FC00
060300
080080
100040
200020
400010
478F10
878F08
800008
800008
800008
80F808
830608
840108
480090
480090
200020
100040
080080
060300
01FC00
ENDCHAR
STARTCHAR 040
ENCODING 40
SWIDTH 1584 0
DWIDTH 22 0
BBX 21 21 0 0
BITMAP
01FC00
060300
080080
100040
220220
430610
418C10
878F08
800008
800008
800008
81FC08
870708
8F0788
410410
410410
208820
107040
080080
060300
01FC00
ENDCHAR
STARTCHAR 041
ENCODING 41
SWIDTH 1584 0
DWIDTH 22 0
BBX 21 21 0 0
BITMAP
01FC00
060300
080080
100040
245120
428A10
410410
828A08
845108
800008
800008
81FC08
861308
9810C8
401090
401090
200F20
100040
080080
060300
01FC00
ENDCHAR
STARTCHAR 042
ENCODING 42
SWIDTH 1584 0
DWIDTH 22 0
BBX 0 0 0 0
BITMAP
ENDCHAR
STARTCHAR 043
ENCODING 43
SWIDTH 1584 0
DWIDTH 22 0
BBX 0 0 0 0
BITMAP
ENDCHAR
STARTCHAR 044
ENCODING 44
SWIDTH 1584 0
DWIDTH 22 0
BBX 0 0 0 0
BITMAP
ENDCHAR
STARTCHAR 045
ENCODING 45
SWIDTH 1584 0
DWIDTH 22 0
BBX 0 0 0 0
BITMAP
ENDCHAR
STARTCHAR 046
ENCODING 46
SWIDTH 1584 0
DWIDTH 22 0
BBX 0 0 0 0
BITMAP
ENDCHAR
STARTCHAR 047
ENCODING 47
SWIDTH 1584 0
DWIDTH 22 0
BBX 0 0 0 0
BITMAP
ENDCHAR
STARTCHAR 048
ENCODING 48
SWIDTH 1584 0
DWIDTH 22 0
BBX 21 21 0 0
BITMAP
01FC00
060300
080080
100040
200020
400C10
418C10
83CC08
800C08
800008
800008
880088
840108
830608
40FA10
402210
202220
101C40
080080
060300
01FC00
ENDCHAR
STARTCHAR 049
ENCODING 49
SWIDTH 1584 0
DWIDTH 22 0
BBX 21 21 0 0
BITMAP
01FC00
060300
080080
100040
200020
400C10
418C10
818C08
818C08
818008
800008
880088
840108
830708
40FA10
402110
201120
100E40
080080
060300
01FC00
ENDCHAR
STARTCHAR 050
ENCODING 50
SWIDTH 1584 0
DWIDTH 22 0
BBX 21 21 0 0
BITMAP
01FC00
060300
080080
100040
200020
400C10
418C10
83CC08
800C08
800008
880008
880008
840108
830608
40F810
400010
200020
100040
080080
060300
01FC00
ENDCHAR
STARTCHAR 051
ENCODING 51
SWIDTH 1584 0
DWIDTH 22 0
BBX 21 21 0 0
BITMAP
01FC00
060300
080080
100040
238E20
45D710
45D710
845108
838E08
800008
800008
880088
840108
830608
40F810
400010
200020
100040
080080
060300
01FC00
ENDCHAR
STARTCHAR 052
ENCODING 52
SWIDTH 1584 0
DWIDTH 22 0
BBX 21 21 0 0
BITMAP
01FC00
060300
080080
100040
238E20
45D710
45D710
845108
838E08
800008
800008
800008
800008
87FF08
400010
400010
200020
100040
080080
060300
01FC00
ENDCHAR
STARTCHAR 053
ENCODING 53
SWIDTH 1584 0
DWIDTH 22 0
BBX 21 21 0 0
BITMAP
01FC00
060300
080080
100040
200020
418C10
418C10
818C08
818C08
800008
800008
807008
808808
808808
408810
408810
207020
100040
080080
060300
01FC00
ENDCHAR
STARTCHAR 054
ENCODING 54
SWIDTH 1584 0
DWIDTH 22 0
BBX 21 21 0 0
BITMAP
01FC00
060300
080080
100040
7FDFF0
7FFFF0
7FFFF0
9FDFC8
9FDFC8
8F8F88
800008
800008
880088
840108
430610
40F810
200020
100040
080080
060300
01FC00
ENDCHAR
STARTCHAR 055
ENCODING 55
SWIDTH 1584 0
DWIDTH 22 0
BBX 21 21 0 0
BITMAP
01FC00
060300
080080
100040
218C20
43DE10
400010
800008
9FFFC8
922248
922248
922248
8A2288
862308
432610
40F810
200020
100140
080080
060300
01FC00
ENDCHAR
STARTCHAR 056
ENCODING 56
SWIDTH 1584 0
DWIDTH 22 0
BBX 0 0 0 0
BITMAP
ENDCHAR
STARTCHAR 057
ENCODING 57
SWIDTH 1584 0
DWIDTH 22 0
BBX 0 0 0 0
BITMAP
ENDCHAR
STARTCHAR 058
ENCODING 58
SWIDTH 1584 0
DWIDTH 22 0
BBX 0 0 0 0
BITMAP
ENDCHAR
STARTCHAR 059
ENCODING 59
SWIDTH 1584 0
DWIDTH 22 0
BBX 0 0 0 0
BITMAP
ENDCHAR
STARTCHAR 060
ENCODING 60
SWIDTH 1584 0
DWIDTH 22 0
BBX 0 0 0 0
BITMAP
ENDCHAR
STARTCHAR 061
ENCODING 61
SWIDTH 1584 0
DWIDTH 22 0
BBX 0 0 0 0
BITMAP
ENDCHAR
STARTCHAR 062
ENCODING 62
SWIDTH 1584 0
DWIDTH 22 0
BBX 0 0 0 0
BITMAP
ENDCHAR
STARTCHAR 063
ENCODING 63
SWIDTH 1584 0
DWIDTH 22 0
BBX 0 0 0 0
BITMAP
ENDCHAR
ENDFONT
