STARTFONT 2.1
COMMENT 
COMMENT ------ strikeout ascent (bl + 24)
COMMENT ------ level  2 (bl + 19)
COMMENT ------ level  1 (bl + 14)
COMMENT ------ level  0 (bl)
COMMENT ------ level -1 / strikeout descent (bl - 5)
COMMENT 
COMMENT 94.09.14 modified by Takahashi N. <ntakahas@etl.go.jp>
COMMENT 2000/04/18 modified by Theppitak Karoonboonyanan
FONT -etl-fixed-medium-r-normal--24-240-72-72-c-120-tis620-0
SIZE 24 72 72
FONTBOUNDINGBOX 15 29 0 -5
STARTPROPERTIES 24
FOUNDRY "ETL"
FAMILY_NAME "Fixed"
WEIGHT_NAME "Medium"
SLANT "R"
SETWIDTH_NAME "Normal"
ADD_STYLE_NAME ""
PIXEL_SIZE 24
POINT_SIZE 240
RESOLUTION_X 72
RESOLUTION_Y 72
SPACING "C"
AVERAGE_WIDTH 120
CHARSET_REGISTRY "tis620"
CHARSET_ENCODING "0"
STRIKEOUT_ASCENT 24
STRIKEOUT_DESCENT 5
X_HEIGHT 10
FACE_NAME "Thai typewriter (24dots)"
COPYRIGHT "Public domain"
FONT_ASCENT 24
FONT_DESCENT 5
DEFAULT_CHAR 32
_MULE_RELATIVE_COMPOSE 14
_XMBDFED_INFO "Edited with xmbdfed 3.8."
ENDPROPERTIES
CHARS 182
STARTCHAR C040
ENCODING 32
SWIDTH 625 0
DWIDTH 15 0
BBX 15 29 0 -5
BITMAP
0000
0000
0000
0000
0000
0000
0000
0000
0000
0000
0000
0000
0000
0000
0000
0000
0000
0000
0000
0000
0000
0000
0000
0000
0000
0000
0000
0000
0000
ENDCHAR
STARTCHAR !
ENCODING 33
SWIDTH 625 0
DWIDTH 15 0
BBX 15 29 0 -5
BITMAP
0000
0000
0000
0000
0000
0000
0000
0000
0000
0000
0600
0600
0600
0600
0600
0600
0600
0600
0600
0600
0000
0000
0600
0F00
0600
0000
0000
0000
0000
ENDCHAR
STARTCHAR "
ENCODING 34
SWIDTH 625 0
DWIDTH 15 0
BBX 15 29 0 -5
BITMAP
0000
0000
0000
0000
0000
0000
0000
0000
0000
1980
1980
1980
1980
1980
0000
0000
0000
0000
0000
0000
0000
0000
0000
0000
0000
0000
0000
0000
0000
ENDCHAR
STARTCHAR #
ENCODING 35
SWIDTH 625 0
DWIDTH 15 0
BBX 15 29 0 -5
BITMAP
0000
0000
0000
0000
0000
0000
0000
0000
0000
0000
0CC0
0CC0
0CC0
3FE0
3FE0
1980
1980
1980
1980
7FC0
7FC0
3300
3300
3300
0000
0000
0000
0000
0000
ENDCHAR
STARTCHAR $
ENCODING 36
SWIDTH 625 0
DWIDTH 15 0
BBX 15 29 0 -5
BITMAP
0000
0000
0000
0000
0000
0000
0000
0000
0000
0000
0600
1F80
3FE0
6660
6600
3E00
1F80
07C0
0660
0660
6660
7FC0
3F80
0600
0000
0000
0000
0000
0000
ENDCHAR
STARTCHAR %
ENCODING 37
SWIDTH 625 0
DWIDTH 15 0
BBX 15 29 0 -5
BITMAP
0000
0000
0000
0000
0000
0000
0000
0000
0000
0000
38C0
7CC0
6D80
7D80
3B00
0300
0600
0600
0C00
0DC0
1BE0
1B60
33E0
31C0
0000
0000
0000
0000
0000
ENDCHAR
STARTCHAR &
ENCODING 38
SWIDTH 625 0
DWIDTH 15 0
BBX 15 29 0 -5
BITMAP
0000
0000
0000
0000
0000
0000
0000
0000
0000
0000
0700
0F80
1DC0
18C0
1980
0F80
1F00
3E00
7360
61E0
61C0
6180
3FE0
1E60
0000
0000
0000
0000
0000
ENDCHAR
STARTCHAR '
ENCODING 39
SWIDTH 625 0
DWIDTH 15 0
BBX 15 29 0 -5
BITMAP
0000
0000
0000
0000
0000
0000
0000
0000
0600
0F00
0F00
0300
0300
0600
0C00
0000
0000
0000
0000
0000
0000
0000
0000
0000
0000
0000
0000
0000
0000
ENDCHAR
STARTCHAR (
ENCODING 40
SWIDTH 625 0
DWIDTH 15 0
BBX 15 29 0 -5
BITMAP
0000
0000
0000
0000
0000
0000
0000
0000
0000
0000
0180
0300
0700
0600
0E00
0C00
0C00
0C00
0C00
0E00
0600
0700
0300
0180
0000
0000
0000
0000
0000
ENDCHAR
STARTCHAR )
ENCODING 41
SWIDTH 625 0
DWIDTH 15 0
BBX 15 29 0 -5
BITMAP
0000
0000
0000
0000
0000
0000
0000
0000
0000
0000
1800
0C00
0E00
0600
0700
0300
0300
0300
0300
0700
0600
0E00
0C00
1800
0000
0000
0000
0000
0000
ENDCHAR
STARTCHAR *
ENCODING 42
SWIDTH 625 0
DWIDTH 15 0
BBX 15 29 0 -5
BITMAP
0000
0000
0000
0000
0000
0000
0000
0000
0000
0000
0000
0000
0600
0600
6660
76E0
1F80
0600
1F80
76E0
6660
0600
0600
0000
0000
0000
0000
0000
0000
ENDCHAR
STARTCHAR +
ENCODING 43
SWIDTH 625 0
DWIDTH 15 0
BBX 15 29 0 -5
BITMAP
0000
0000
0000
0000
0000
0000
0000
0000
0000
0000
0000
0000
0000
0600
0600
0600
0600
7FE0
7FE0
0600
0600
0600
0600
0000
0000
0000
0000
0000
0000
ENDCHAR
STARTCHAR ,
ENCODING 44
SWIDTH 625 0
DWIDTH 15 0
BBX 15 29 0 -5
BITMAP
0000
0000
0000
0000
0000
0000
0000
0000
0000
0000
0000
0000
0000
0000
0000
0000
0000
0000
0000
0000
0600
0F00
0F00
0300
0300
0600
0C00
0000
0000
ENDCHAR
STARTCHAR -
ENCODING 45
SWIDTH 625 0
DWIDTH 15 0
BBX 15 29 0 -5
BITMAP
0000
0000
0000
0000
0000
0000
0000
0000
0000
0000
0000
0000
0000
0000
0000
0000
0000
7FE0
7FE0
0000
0000
0000
0000
0000
0000
0000
0000
0000
0000
ENDCHAR
STARTCHAR .
ENCODING 46
SWIDTH 625 0
DWIDTH 15 0
BBX 15 29 0 -5
BITMAP
0000
0000
0000
0000
0000
0000
0000
0000
0000
0000
0000
0000
0000
0000
0000
0000
0000
0000
0000
0000
0600
0F00
0F00
0600
0000
0000
0000
0000
0000
ENDCHAR
STARTCHAR /
ENCODING 47
SWIDTH 625 0
DWIDTH 15 0
BBX 15 29 0 -5
BITMAP
0000
0000
0000
0000
0000
0000
0000
0000
0000
0000
00C0
00C0
0180
0180
0300
0300
0600
0600
0C00
0C00
1800
1800
3000
3000
0000
0000
0000
0000
0000
ENDCHAR
STARTCHAR 0
ENCODING 48
SWIDTH 625 0
DWIDTH 15 0
BBX 15 29 0 -5
BITMAP
0000
0000
0000
0000
0000
0000
0000
0000
0000
0000
0F00
1F80
39C0
30C0
31C0
33C0
36C0
3CC0
38C0
30C0
30C0
39C0
1F80
0F00
0000
0000
0000
0000
0000
ENDCHAR
STARTCHAR 1
ENCODING 49
SWIDTH 625 0
DWIDTH 15 0
BBX 15 29 0 -5
BITMAP
0000
0000
0000
0000
0000
0000
0000
0000
0000
0000
0600
0E00
1E00
3600
0600
0600
0600
0600
0600
0600
0600
0600
3FC0
3FC0
0000
0000
0000
0000
0000
ENDCHAR
STARTCHAR 2
ENCODING 50
SWIDTH 625 0
DWIDTH 15 0
BBX 15 29 0 -5
BITMAP
0000
0000
0000
0000
0000
0000
0000
0000
0000
0000
0F80
1FC0
30E0
3060
0060
00C0
0180
0300
0600
0C00
1800
3000
3FE0
3FE0
0000
0000
0000
0000
0000
ENDCHAR
STARTCHAR 3
ENCODING 51
SWIDTH 625 0
DWIDTH 15 0
BBX 15 29 0 -5
BITMAP
0000
0000
0000
0000
0000
0000
0000
0000
0000
0000
0F80
1FC0
30E0
3060
0060
00C0
0780
07C0
0060
0060
3060
30E0
1FC0
0F80
0000
0000
0000
0000
0000
ENDCHAR
STARTCHAR 4
ENCODING 52
SWIDTH 625 0
DWIDTH 15 0
BBX 15 29 0 -5
BITMAP
0000
0000
0000
0000
0000
0000
0000
0000
0000
0000
0300
0300
0600
0600
0D80
0D80
1980
1980
3180
3FE0
3FE0
0180
0180
0180
0000
0000
0000
0000
0000
ENDCHAR
STARTCHAR 5
ENCODING 53
SWIDTH 625 0
DWIDTH 15 0
BBX 15 29 0 -5
BITMAP
0000
0000
0000
0000
0000
0000
0000
0000
0000
0000
3FC0
3FC0
3000
3000
3000
3F80
3FC0
00E0
0060
0060
3060
30E0
1FC0
0F80
0000
0000
0000
0000
0000
ENDCHAR
STARTCHAR 6
ENCODING 54
SWIDTH 625 0
DWIDTH 15 0
BBX 15 29 0 -5
BITMAP
0000
0000
0000
0000
0000
0000
0000
0000
0000
0000
0F80
1FC0
3860
3060
3000
3780
3FC0
38E0
3060
3060
3060
38E0
1FC0
0F80
0000
0000
0000
0000
0000
ENDCHAR
STARTCHAR 7
ENCODING 55
SWIDTH 625 0
DWIDTH 15 0
BBX 15 29 0 -5
BITMAP
0000
0000
0000
0000
0000
0000
0000
0000
0000
0000
3FE0
3FE0
00C0
00C0
0180
0180
0300
0300
0600
0600
0C00
0C00
1800
1800
0000
0000
0000
0000
0000
ENDCHAR
STARTCHAR 8
ENCODING 56
SWIDTH 625 0
DWIDTH 15 0
BBX 15 29 0 -5
BITMAP
0000
0000
0000
0000
0000
0000
0000
0000
0000
0000
0F00
1F80
30C0
30C0
30C0
1F80
1F80
39C0
70E0
6060
6060
70E0
3FC0
1F80
0000
0000
0000
0000
0000
ENDCHAR
STARTCHAR 9
ENCODING 57
SWIDTH 625 0
DWIDTH 15 0
BBX 15 29 0 -5
BITMAP
0000
0000
0000
0000
0000
0000
0000
0000
0000
0000
0F80
1FC0
38E0
3060
3060
38E0
1FE0
0F60
0060
0060
3060
30E0
1FC0
0F80
0000
0000
0000
0000
0000
ENDCHAR
STARTCHAR :
ENCODING 58
SWIDTH 625 0
DWIDTH 15 0
BBX 15 29 0 -5
BITMAP
0000
0000
0000
0000
0000
0000
0000
0000
0000
0000
0000
0000
0000
0600
0F00
0F00
0600
0000
0000
0000
0600
0F00
0F00
0600
0000
0000
0000
0000
0000
ENDCHAR
STARTCHAR ;
ENCODING 59
SWIDTH 625 0
DWIDTH 15 0
BBX 15 29 0 -5
BITMAP
0000
0000
0000
0000
0000
0000
0000
0000
0000
0000
0000
0000
0000
0600
0F00
0F00
0600
0000
0000
0000
0600
0F00
0F00
0300
0300
0600
0C00
0000
0000
ENDCHAR
STARTCHAR <
ENCODING 60
SWIDTH 625 0
DWIDTH 15 0
BBX 15 29 0 -5
BITMAP
0000
0000
0000
0000
0000
0000
0000
0000
0000
0000
0000
0000
0000
0060
01C0
0700
1E00
7800
7800
1E00
0780
01C0
0060
0000
0000
0000
0000
0000
0000
ENDCHAR
STARTCHAR =
ENCODING 61
SWIDTH 625 0
DWIDTH 15 0
BBX 15 29 0 -5
BITMAP
0000
0000
0000
0000
0000
0000
0000
0000
0000
0000
0000
0000
0000
0000
0000
7FE0
7FE0
0000
0000
7FE0
7FE0
0000
0000
0000
0000
0000
0000
0000
0000
ENDCHAR
STARTCHAR >
ENCODING 62
SWIDTH 625 0
DWIDTH 15 0
BBX 15 29 0 -5
BITMAP
0000
0000
0000
0000
0000
0000
0000
0000
0000
0000
0000
0000
0000
6000
3800
0E00
0780
01E0
01E0
0780
0E00
3800
6000
0000
0000
0000
0000
0000
0000
ENDCHAR
STARTCHAR ?
ENCODING 63
SWIDTH 625 0
DWIDTH 15 0
BBX 15 29 0 -5
BITMAP
0000
0000
0000
0000
0000
0000
0000
0000
0000
0000
0F00
1F80
39C0
20C0
00C0
0180
0300
0600
0600
0600
0000
0000
0600
0F00
0600
0000
0000
0000
0000
ENDCHAR
STARTCHAR @
ENCODING 64
SWIDTH 625 0
DWIDTH 15 0
BBX 15 29 0 -5
BITMAP
0000
0000
0000
0000
0000
0000
0000
0000
0000
0000
0F80
1FC0
3860
3060
33E0
37E0
3660
3660
3660
37E0
33C0
3800
1FE0
0FE0
0000
0000
0000
0000
0000
ENDCHAR
STARTCHAR A
ENCODING 65
SWIDTH 625 0
DWIDTH 15 0
BBX 15 29 0 -5
BITMAP
0000
0000
0000
0000
0000
0000
0000
0000
0000
0000
0F80
1FC0
38E0
3060
3060
3060
3FE0
3FE0
3060
3060
3060
3060
3060
3060
0000
0000
0000
0000
0000
ENDCHAR
STARTCHAR B
ENCODING 66
SWIDTH 625 0
DWIDTH 15 0
BBX 15 29 0 -5
BITMAP
0000
0000
0000
0000
0000
0000
0000
0000
0000
0000
3F00
3F80
31C0
30C0
30C0
3180
3F80
3FC0
30C0
3060
3060
30E0
3FC0
3F80
0000
0000
0000
0000
0000
ENDCHAR
STARTCHAR C
ENCODING 67
SWIDTH 625 0
DWIDTH 15 0
BBX 15 29 0 -5
BITMAP
0000
0000
0000
0000
0000
0000
0000
0000
0000
0000
0F80
1FC0
38E0
3060
3000
3000
3000
3000
3000
3000
3060
38E0
1FC0
0F80
0000
0000
0000
0000
0000
ENDCHAR
STARTCHAR D
ENCODING 68
SWIDTH 625 0
DWIDTH 15 0
BBX 15 29 0 -5
BITMAP
0000
0000
0000
0000
0000
0000
0000
0000
0000
0000
3F80
3FC0
30E0
3060
3060
3060
3060
3060
3060
3060
3060
30E0
3FC0
3F80
0000
0000
0000
0000
0000
ENDCHAR
STARTCHAR E
ENCODING 69
SWIDTH 625 0
DWIDTH 15 0
BBX 15 29 0 -5
BITMAP
0000
0000
0000
0000
0000
0000
0000
0000
0000
0000
3FE0
3FE0
3000
3000
3000
3000
3F80
3F80
3000
3000
3000
3000
3FE0
3FE0
0000
0000
0000
0000
0000
ENDCHAR
STARTCHAR F
ENCODING 70
SWIDTH 625 0
DWIDTH 15 0
BBX 15 29 0 -5
BITMAP
0000
0000
0000
0000
0000
0000
0000
0000
0000
0000
3FE0
3FE0
3000
3000
3000
3000
3F80
3F80
3000
3000
3000
3000
3000
3000
0000
0000
0000
0000
0000
ENDCHAR
STARTCHAR G
ENCODING 71
SWIDTH 625 0
DWIDTH 15 0
BBX 15 29 0 -5
BITMAP
0000
0000
0000
0000
0000
0000
0000
0000
0000
0000
0F80
1FC0
38E0
3060
3000
3000
3000
31E0
31E0
3060
3060
38E0
1FC0
0F80
0000
0000
0000
0000
0000
ENDCHAR
STARTCHAR H
ENCODING 72
SWIDTH 625 0
DWIDTH 15 0
BBX 15 29 0 -5
BITMAP
0000
0000
0000
0000
0000
0000
0000
0000
0000
0000
3060
3060
3060
3060
3060
3060
3FE0
3FE0
3060
3060
3060
3060
3060
3060
0000
0000
0000
0000
0000
ENDCHAR
STARTCHAR I
ENCODING 73
SWIDTH 625 0
DWIDTH 15 0
BBX 15 29 0 -5
BITMAP
0000
0000
0000
0000
0000
0000
0000
0000
0000
0000
1F80
1F80
0600
0600
0600
0600
0600
0600
0600
0600
0600
0600
1F80
1F80
0000
0000
0000
0000
0000
ENDCHAR
STARTCHAR J
ENCODING 74
SWIDTH 625 0
DWIDTH 15 0
BBX 15 29 0 -5
BITMAP
0000
0000
0000
0000
0000
0000
0000
0000
0000
0000
0060
0060
0060
0060
0060
0060
0060
0060
0060
0060
3060
30E0
1FC0
0F80
0000
0000
0000
0000
0000
ENDCHAR
STARTCHAR K
ENCODING 75
SWIDTH 625 0
DWIDTH 15 0
BBX 15 29 0 -5
BITMAP
0000
0000
0000
0000
0000
0000
0000
0000
0000
0000
3060
30C0
3180
3300
3600
3C00
3800
3C00
3600
3300
3180
30C0
3060
3020
0000
0000
0000
0000
0000
ENDCHAR
STARTCHAR L
ENCODING 76
SWIDTH 625 0
DWIDTH 15 0
BBX 15 29 0 -5
BITMAP
0000
0000
0000
0000
0000
0000
0000
0000
0000
0000
3000
3000
3000
3000
3000
3000
3000
3000
3000
3000
3000
3000
3FE0
3FE0
0000
0000
0000
0000
0000
ENDCHAR
STARTCHAR M
ENCODING 77
SWIDTH 625 0
DWIDTH 15 0
BBX 15 29 0 -5
BITMAP
0000
0000
0000
0000
0000
0000
0000
0000
0000
0000
3060
38E0
38E0
3DE0
3FE0
3760
3760
3260
3060
3060
3060
3060
3060
3060
0000
0000
0000
0000
0000
ENDCHAR
STARTCHAR N
ENCODING 78
SWIDTH 625 0
DWIDTH 15 0
BBX 15 29 0 -5
BITMAP
0000
0000
0000
0000
0000
0000
0000
0000
0000
0000
3060
3860
3860
3C60
3C60
3660
3660
3360
3360
31E0
31E0
30E0
30E0
3060
0000
0000
0000
0000
0000
ENDCHAR
STARTCHAR O
ENCODING 79
SWIDTH 625 0
DWIDTH 15 0
BBX 15 29 0 -5
BITMAP
0000
0000
0000
0000
0000
0000
0000
0000
0000
0000
0F80
1FC0
38E0
3060
3060
3060
3060
3060
3060
3060
3060
38E0
1FC0
0F80
0000
0000
0000
0000
0000
ENDCHAR
STARTCHAR P
ENCODING 80
SWIDTH 625 0
DWIDTH 15 0
BBX 15 29 0 -5
BITMAP
0000
0000
0000
0000
0000
0000
0000
0000
0000
0000
3F80
3FC0
30E0
3060
3060
30E0
3FC0
3F80
3000
3000
3000
3000
3000
3000
0000
0000
0000
0000
0000
ENDCHAR
STARTCHAR Q
ENCODING 81
SWIDTH 625 0
DWIDTH 15 0
BBX 15 29 0 -5
BITMAP
0000
0000
0000
0000
0000
0000
0000
0000
0000
0000
0F80
1FC0
38E0
3060
3060
3060
3060
3060
3060
3060
31E0
39E0
1FC0
0FF0
0030
0000
0000
0000
0000
ENDCHAR
STARTCHAR R
ENCODING 82
SWIDTH 625 0
DWIDTH 15 0
BBX 15 29 0 -5
BITMAP
0000
0000
0000
0000
0000
0000
0000
0000
0000
0000
3F80
3FC0
30E0
3060
3060
30E0
3FC0
3F80
3180
3180
30C0
30C0
3060
3060
0000
0000
0000
0000
0000
ENDCHAR
STARTCHAR S
ENCODING 83
SWIDTH 625 0
DWIDTH 15 0
BBX 15 29 0 -5
BITMAP
0000
0000
0000
0000
0000
0000
0000
0000
0000
0000
0F80
1FC0
30E0
3060
3000
3800
1F80
0FC0
00E0
0060
3060
30E0
3FC0
1F80
0000
0000
0000
0000
0000
ENDCHAR
STARTCHAR T
ENCODING 84
SWIDTH 625 0
DWIDTH 15 0
BBX 15 29 0 -5
BITMAP
0000
0000
0000
0000
0000
0000
0000
0000
0000
0000
7FE0
7FE0
0600
0600
0600
0600
0600
0600
0600
0600
0600
0600
0600
0600
0000
0000
0000
0000
0000
ENDCHAR
STARTCHAR U
ENCODING 85
SWIDTH 625 0
DWIDTH 15 0
BBX 15 29 0 -5
BITMAP
0000
0000
0000
0000
0000
0000
0000
0000
0000
0000
3060
3060
3060
3060
3060
3060
3060
3060
3060
3060
3060
38E0
1FC0
0F80
0000
0000
0000
0000
0000
ENDCHAR
STARTCHAR V
ENCODING 86
SWIDTH 625 0
DWIDTH 15 0
BBX 15 29 0 -5
BITMAP
0000
0000
0000
0000
0000
0000
0000
0000
0000
0000
6060
6060
6060
30C0
30C0
30C0
1980
1980
1980
0900
0F00
0F00
0600
0600
0000
0000
0000
0000
0000
ENDCHAR
STARTCHAR W
ENCODING 87
SWIDTH 625 0
DWIDTH 15 0
BBX 15 29 0 -5
BITMAP
0000
0000
0000
0000
0000
0000
0000
0000
0000
0000
3060
3060
3060
3060
3060
3060
3260
3760
3760
3DE0
3DE0
38E0
38E0
3060
0000
0000
0000
0000
0000
ENDCHAR
STARTCHAR X
ENCODING 88
SWIDTH 625 0
DWIDTH 15 0
BBX 15 29 0 -5
BITMAP
0000
0000
0000
0000
0000
0000
0000
0000
0000
0000
3060
3060
18C0
18C0
0D80
0D80
0700
0700
0D80
0D80
18C0
18C0
3060
3060
0000
0000
0000
0000
0000
ENDCHAR
STARTCHAR Y
ENCODING 89
SWIDTH 625 0
DWIDTH 15 0
BBX 15 29 0 -5
BITMAP
0000
0000
0000
0000
0000
0000
0000
0000
0000
0000
6060
6060
30C0
30C0
1980
1F80
0F00
0600
0600
0600
0600
0600
0600
0600
0000
0000
0000
0000
0000
ENDCHAR
STARTCHAR Z
ENCODING 90
SWIDTH 625 0
DWIDTH 15 0
BBX 15 29 0 -5
BITMAP
0000
0000
0000
0000
0000
0000
0000
0000
0000
0000
7FE0
7FE0
0060
00E0
01C0
0380
0700
0E00
1C00
3800
7000
6000
7FE0
7FE0
0000
0000
0000
0000
0000
ENDCHAR
STARTCHAR [
ENCODING 91
SWIDTH 625 0
DWIDTH 15 0
BBX 15 29 0 -5
BITMAP
0000
0000
0000
0000
0000
0000
0000
0000
0000
0F80
0F80
0C00
0C00
0C00
0C00
0C00
0C00
0C00
0C00
0C00
0C00
0C00
0F80
0F80
0000
0000
0000
0000
0000
ENDCHAR
STARTCHAR \
ENCODING 92
SWIDTH 625 0
DWIDTH 15 0
BBX 15 29 0 -5
BITMAP
0000
0000
0000
0000
0000
0000
0000
0000
0000
0000
3000
3000
1800
1800
0C00
0C00
0600
0600
0300
0300
0180
0180
00C0
00C0
0000
0000
0000
0000
0000
ENDCHAR
STARTCHAR ]
ENCODING 93
SWIDTH 625 0
DWIDTH 15 0
BBX 15 29 0 -5
BITMAP
0000
0000
0000
0000
0000
0000
0000
0000
0000
1F00
1F00
0300
0300
0300
0300
0300
0300
0300
0300
0300
0300
0300
1F00
1F00
0000
0000
0000
0000
0000
ENDCHAR
STARTCHAR ^
ENCODING 94
SWIDTH 625 0
DWIDTH 15 0
BBX 15 29 0 -5
BITMAP
0000
0000
0000
0000
0000
0000
0000
0000
0000
0200
0700
0D80
18C0
3060
0000
0000
0000
0000
0000
0000
0000
0000
0000
0000
0000
0000
0000
0000
0000
ENDCHAR
STARTCHAR _
ENCODING 95
SWIDTH 625 0
DWIDTH 15 0
BBX 15 29 0 -5
BITMAP
0000
0000
0000
0000
0000
0000
0000
0000
0000
0000
0000
0000
0000
0000
0000
0000
0000
0000
0000
0000
0000
0000
0000
0000
0000
FFF0
FFF0
0000
0000
ENDCHAR
STARTCHAR `
ENCODING 96
SWIDTH 625 0
DWIDTH 15 0
BBX 15 29 0 -5
BITMAP
0000
0000
0000
0000
0000
0000
0000
0000
0300
0600
0C00
0C00
0F00
0F00
0600
0000
0000
0000
0000
0000
0000
0000
0000
0000
0000
0000
0000
0000
0000
ENDCHAR
STARTCHAR A
ENCODING 97
SWIDTH 625 0
DWIDTH 15 0
BBX 15 29 0 -5
BITMAP
0000
0000
0000
0000
0000
0000
0000
0000
0000
0000
0000
0000
0000
0780
0FC0
1860
0060
07E0
1FE0
3060
30E0
31E0
3F60
1E60
0000
0000
0000
0000
0000
ENDCHAR
STARTCHAR B
ENCODING 98
SWIDTH 625 0
DWIDTH 15 0
BBX 15 29 0 -5
BITMAP
0000
0000
0000
0000
0000
0000
0000
0000
0000
0000
3000
3000
3000
3000
3380
37C0
3CE0
3860
3060
3060
3860
3CE0
37C0
3380
0000
0000
0000
0000
0000
ENDCHAR
STARTCHAR C
ENCODING 99
SWIDTH 625 0
DWIDTH 15 0
BBX 15 29 0 -5
BITMAP
0000
0000
0000
0000
0000
0000
0000
0000
0000
0000
0000
0000
0000
0000
0FC0
1FC0
3860
3060
3000
3000
3000
3860
1FE0
0FC0
0000
0000
0000
0000
0000
ENDCHAR
STARTCHAR D
ENCODING 100
SWIDTH 625 0
DWIDTH 15 0
BBX 15 29 0 -5
BITMAP
0000
0000
0000
0000
0000
0000
0000
0000
0000
0000
0060
0060
0060
0060
0F60
1FE0
38E0
3060
3060
3060
30E0
31E0
1F60
0E60
0000
0000
0000
0000
0000
ENDCHAR
STARTCHAR E
ENCODING 101
SWIDTH 625 0
DWIDTH 15 0
BBX 15 29 0 -5
BITMAP
0000
0000
0000
0000
0000
0000
0000
0000
0000
0000
0000
0000
0000
0000
0F80
1FC0
3860
3060
3FE0
3FE0
3000
3060
1FE0
0FC0
0000
0000
0000
0000
0000
ENDCHAR
STARTCHAR F
ENCODING 102
SWIDTH 625 0
DWIDTH 15 0
BBX 15 29 0 -5
BITMAP
0000
0000
0000
0000
0000
0000
0000
0000
0000
0000
0380
0780
0600
0600
0600
1F80
1F80
0600
0600
0600
0600
0600
0600
0600
0000
0000
0000
0000
0000
ENDCHAR
STARTCHAR G
ENCODING 103
SWIDTH 625 0
DWIDTH 15 0
BBX 15 29 0 -5
BITMAP
0000
0000
0000
0000
0000
0000
0000
0000
0000
0000
0000
0000
0000
0000
0E60
1F60
39E0
30E0
3060
3060
3060
38E0
1FE0
0F60
0060
0060
0060
0FC0
0780
ENDCHAR
STARTCHAR H
ENCODING 104
SWIDTH 625 0
DWIDTH 15 0
BBX 15 29 0 -5
BITMAP
0000
0000
0000
0000
0000
0000
0000
0000
0000
0000
3000
3000
3000
3000
3380
37C0
3CE0
3860
3060
3060
3060
3060
3060
3060
0000
0000
0000
0000
0000
ENDCHAR
STARTCHAR I
ENCODING 105
SWIDTH 625 0
DWIDTH 15 0
BBX 15 29 0 -5
BITMAP
0000
0000
0000
0000
0000
0000
0000
0000
0000
0000
0600
0600
0000
0000
0600
0600
0600
0600
0600
0600
0600
0600
0600
0600
0000
0000
0000
0000
0000
ENDCHAR
STARTCHAR J
ENCODING 106
SWIDTH 625 0
DWIDTH 15 0
BBX 15 29 0 -5
BITMAP
0000
0000
0000
0000
0000
0000
0000
0000
0000
0000
0600
0600
0000
0000
0600
0600
0600
0600
0600
0600
0600
0600
0600
0600
0600
0600
3E00
3800
0000
ENDCHAR
STARTCHAR K
ENCODING 107
SWIDTH 625 0
DWIDTH 15 0
BBX 15 29 0 -5
BITMAP
0000
0000
0000
0000
0000
0000
0000
0000
0000
0000
0000
3000
3000
30C0
31C0
3380
3700
3E00
3C00
3E00
3700
3380
31C0
30C0
0000
0000
0000
0000
0000
ENDCHAR
STARTCHAR L
ENCODING 108
SWIDTH 625 0
DWIDTH 15 0
BBX 15 29 0 -5
BITMAP
0000
0000
0000
0000
0000
0000
0000
0000
0000
0000
0600
0600
0600
0600
0600
0600
0600
0600
0600
0600
0600
0600
0780
0380
0000
0000
0000
0000
0000
ENDCHAR
STARTCHAR M
ENCODING 109
SWIDTH 625 0
DWIDTH 15 0
BBX 15 29 0 -5
BITMAP
0000
0000
0000
0000
0000
0000
0000
0000
0000
0000
0000
0000
0000
6000
6DC0
7FE0
6660
6660
6660
6660
6660
6660
6660
6660
0000
0000
0000
0000
0000
ENDCHAR
STARTCHAR N
ENCODING 110
SWIDTH 625 0
DWIDTH 15 0
BBX 15 29 0 -5
BITMAP
0000
0000
0000
0000
0000
0000
0000
0000
0000
0000
0000
0000
0000
0000
3380
37C0
3C60
3860
3060
3060
3060
3060
3060
3060
0000
0000
0000
0000
0000
ENDCHAR
STARTCHAR O
ENCODING 111
SWIDTH 625 0
DWIDTH 15 0
BBX 15 29 0 -5
BITMAP
0000
0000
0000
0000
0000
0000
0000
0000
0000
0000
0000
0000
0000
0000
0F80
1FC0
38E0
3060
3060
3060
3060
38E0
1FC0
0F80
0000
0000
0000
0000
0000
ENDCHAR
STARTCHAR P
ENCODING 112
SWIDTH 625 0
DWIDTH 15 0
BBX 15 29 0 -5
BITMAP
0000
0000
0000
0000
0000
0000
0000
0000
0000
0000
0000
0000
0000
0000
3380
37C0
3CE0
3860
3060
3060
3860
3CE0
37C0
3380
3000
3000
3000
3000
0000
ENDCHAR
STARTCHAR Q
ENCODING 113
SWIDTH 625 0
DWIDTH 15 0
BBX 15 29 0 -5
BITMAP
0000
0000
0000
0000
0000
0000
0000
0000
0000
0000
0000
0000
0000
0000
0E60
1F60
39E0
30E0
3060
3060
30E0
39E0
1F60
0E60
0060
0060
0060
0060
0000
ENDCHAR
STARTCHAR R
ENCODING 114
SWIDTH 625 0
DWIDTH 15 0
BBX 15 29 0 -5
BITMAP
0000
0000
0000
0000
0000
0000
0000
0000
0000
0000
0000
0000
0000
0000
3380
37C0
3C60
3860
3000
3000
3000
3000
3000
3000
0000
0000
0000
0000
0000
ENDCHAR
STARTCHAR S
ENCODING 115
SWIDTH 625 0
DWIDTH 15 0
BBX 15 29 0 -5
BITMAP
0000
0000
0000
0000
0000
0000
0000
0000
0000
0000
0000
0000
0000
0000
1FC0
3FE0
3020
3000
1F80
0FC0
0060
3060
3FE0
1FC0
0000
0000
0000
0000
0000
ENDCHAR
STARTCHAR T
ENCODING 116
SWIDTH 625 0
DWIDTH 15 0
BBX 15 29 0 -5
BITMAP
0000
0000
0000
0000
0000
0000
0000
0000
0000
0000
0000
0600
0600
0600
1F80
1F80
0600
0600
0600
0600
0600
0600
0780
0380
0000
0000
0000
0000
0000
ENDCHAR
STARTCHAR U
ENCODING 117
SWIDTH 625 0
DWIDTH 15 0
BBX 15 29 0 -5
BITMAP
0000
0000
0000
0000
0000
0000
0000
0000
0000
0000
0000
0000
0000
0000
3060
3060
3060
3060
3060
3060
30E0
39E0
1F60
0E60
0000
0000
0000
0000
0000
ENDCHAR
STARTCHAR V
ENCODING 118
SWIDTH 625 0
DWIDTH 15 0
BBX 15 29 0 -5
BITMAP
0000
0000
0000
0000
0000
0000
0000
0000
0000
0000
0000
0000
0000
0000
6060
6060
30C0
30C0
1980
1980
0F00
0F00
0600
0600
0000
0000
0000
0000
0000
ENDCHAR
STARTCHAR W
ENCODING 119
SWIDTH 625 0
DWIDTH 15 0
BBX 15 29 0 -5
BITMAP
0000
0000
0000
0000
0000
0000
0000
0000
0000
0000
0000
0000
0000
0000
3060
3060
3060
3060
3260
3760
3760
3DE0
38E0
3060
0000
0000
0000
0000
0000
ENDCHAR
STARTCHAR X
ENCODING 120
SWIDTH 625 0
DWIDTH 15 0
BBX 15 29 0 -5
BITMAP
0000
0000
0000
0000
0000
0000
0000
0000
0000
0000
0000
0000
0000
0000
3060
3060
18C0
0D80
0700
0700
0D80
18C0
3060
3060
0000
0000
0000
0000
0000
ENDCHAR
STARTCHAR Y
ENCODING 121
SWIDTH 625 0
DWIDTH 15 0
BBX 15 29 0 -5
BITMAP
0000
0000
0000
0000
0000
0000
0000
0000
0000
0000
0000
0000
0000
0000
3060
3060
3060
3060
3060
3060
3060
30E0
1FE0
0F60
0060
0060
0060
1FC0
0F80
ENDCHAR
STARTCHAR Z
ENCODING 122
SWIDTH 625 0
DWIDTH 15 0
BBX 15 29 0 -5
BITMAP
0000
0000
0000
0000
0000
0000
0000
0000
0000
0000
0000
0000
0000
0000
3FE0
3FE0
00C0
0180
0300
0600
0C00
1800
3FE0
3FE0
0000
0000
0000
0000
0000
ENDCHAR
STARTCHAR {
ENCODING 123
SWIDTH 625 0
DWIDTH 15 0
BBX 15 29 0 -5
BITMAP
0000
0000
0000
0000
0000
0000
0000
0000
0000
0380
0600
0600
0600
0600
0600
0C00
1C00
0C00
0600
0600
0600
0600
0600
0380
0000
0000
0000
0000
0000
ENDCHAR
STARTCHAR |
ENCODING 124
SWIDTH 625 0
DWIDTH 15 0
BBX 15 29 0 -5
BITMAP
0000
0000
0000
0000
0000
0000
0600
0600
0600
0600
0600
0600
0600
0600
0600
0600
0600
0600
0600
0600
0600
0600
0600
0600
0600
0600
0600
0600
0000
ENDCHAR
STARTCHAR }
ENCODING 125
SWIDTH 625 0
DWIDTH 15 0
BBX 15 29 0 -5
BITMAP
0000
0000
0000
0000
0000
0000
0000
0000
0000
1C00
0600
0600
0600
0600
0600
0300
0380
0300
0600
0600
0600
0600
0600
1C00
0000
0000
0000
0000
0000
ENDCHAR
STARTCHAR ~
ENCODING 126
SWIDTH 625 0
DWIDTH 15 0
BBX 15 29 0 -5
BITMAP
0000
0000
0000
0000
0000
0000
0000
0000
0000
1C30
3E60
27E0
61C0
0000
0000
0000
0000
0000
0000
0000
0000
0000
0000
0000
0000
0000
0000
0000
0000
ENDCHAR
STARTCHAR KO_KAI
ENCODING 161
SWIDTH 625 0
DWIDTH 15 0
BBX 15 29 0 -5
BITMAP
0000
0000
0000
0000
0000
0000
0000
0000
0000
0000
0000
3F80
3FC0
71C0
18C0
30C0
30C0
30C0
30C0
30C0
30C0
30C0
30C0
30C0
0000
0000
0000
0000
0000
ENDCHAR
STARTCHAR CHO_CHANG
ENCODING 162
SWIDTH 625 0
DWIDTH 15 0
BBX 15 29 0 -5
BITMAP
0000
0000
0000
0000
0000
0000
0000
0000
0000
0000
0000
3180
5980
5980
3980
1980
3180
3180
3180
3180
3180
3B80
3F80
1E00
0000
0000
0000
0000
0000
ENDCHAR
STARTCHAR SO_SO
ENCODING 163
SWIDTH 625 0
DWIDTH 15 0
BBX 15 29 0 -5
BITMAP
0000
0000
0000
0000
0000
0000
0000
0000
0000
0000
0000
7660
5E60
6660
0660
0C60
0C60
0C60
0C60
0C60
0C60
0EE0
0FC0
0780
0000
0000
0000
0000
0000
ENDCHAR
STARTCHAR KHO_KHWAI
ENCODING 164
SWIDTH 625 0
DWIDTH 15 0
BBX 15 29 0 -5
BITMAP
0000
0000
0000
0000
0000
0000
0000
0000
0000
0000
0000
1F80
3FC0
70E0
6060
6660
6D60
6D60
7E60
7860
7860
7060
7060
7060
0000
0000
0000
0000
0000
ENDCHAR
STARTCHAR KHO_KHWAI
ENCODING 165
SWIDTH 625 0
DWIDTH 15 0
BBX 15 29 0 -5
BITMAP
0000
0000
0000
0000
0000
0000
0000
0000
0000
0000
0000
1CC0
3FE0
7360
6060
6660
6D60
6D60
7E60
7860
7860
7060
7060
7060
0000
0000
0000
0000
0000
ENDCHAR
STARTCHAR KHO_RAKHANG
ENCODING 166
SWIDTH 625 0
DWIDTH 15 0
BBX 15 29 0 -5
BITMAP
0000
0000
0000
0000
0000
0000
0000
0000
0000
0000
0000
0000
7660
5E60
6660
0660
0C60
0C60
0C60
0C60
1F60
2FE0
2CE0
1C60
0000
0000
0000
0000
0000
ENDCHAR
STARTCHAR NGO_NGU
ENCODING 167
SWIDTH 625 0
DWIDTH 15 0
BBX 15 29 0 -5
BITMAP
0000
0000
0000
0000
0000
0000
0000
0000
0000
0000
0000
01C0
0260
01E0
00E0
0060
0060
0060
0060
3060
3860
1CE0
0FC0
0780
0000
0000
0000
0000
0000
ENDCHAR
STARTCHAR CHO_CHAN
ENCODING 168
SWIDTH 625 0
DWIDTH 15 0
BBX 15 29 0 -5
BITMAP
0000
0000
0000
0000
0000
0000
0000
0000
0000
0000
0000
0F80
1FC0
38E0
0060
0E60
1B60
1B60
0F60
0360
0360
0360
0360
01E0
0000
0000
0000
0000
0000
ENDCHAR
STARTCHAR CHO_CHING
ENCODING 169
SWIDTH 625 0
DWIDTH 15 0
BBX 15 29 0 -5
BITMAP
0000
0000
0000
0000
0000
0000
0000
0000
0000
0000
0000
3E00
7F00
6380
0180
3180
4980
3980
1980
19C0
19A0
19A0
1FE0
0EC0
0000
0000
0000
0000
0000
ENDCHAR
STARTCHAR CHO_CHANG
ENCODING 170
SWIDTH 625 0
DWIDTH 15 0
BBX 15 29 0 -5
BITMAP
0000
0000
0000
0000
0000
0000
0000
0000
0000
0000
0180
3180
5980
5B00
3B00
1980
3180
3180
3180
3180
3180
3B80
3F80
1E00
0000
0000
0000
0000
0000
ENDCHAR
STARTCHAR SO_SO
ENCODING 171
SWIDTH 625 0
DWIDTH 15 0
BBX 15 29 0 -5
BITMAP
0000
0000
0000
0000
0000
0000
0000
0000
0000
0000
0060
7660
5E60
66C0
0680
0CC0
0C60
0C60
0C60
0C60
0C60
0EE0
0FC0
0780
0000
0000
0000
0000
0000
ENDCHAR
STARTCHAR CHO_CHOE
ENCODING 172
SWIDTH 625 0
DWIDTH 15 0
BBX 15 29 0 -5
BITMAP
0000
0000
0000
0000
0000
0000
0000
0000
0000
0000
0000
3E60
6760
3360
6360
6360
6360
6360
6360
6360
63E0
55E0
5560
2220
0000
0000
0000
0000
0000
ENDCHAR
STARTCHAR YO_YING
ENCODING 173
SWIDTH 625 0
DWIDTH 15 0
BBX 15 29 0 -5
BITMAP
0000
0000
0000
0000
0000
0000
0000
0000
0000
0000
0000
3E60
6760
3360
6360
6360
6360
6360
6360
6360
6360
7360
4BE0
33E0
0260
05E0
03C0
0000
0000
ENDCHAR
STARTCHAR DO_CHADA
ENCODING 174
SWIDTH 625 0
DWIDTH 15 0
BBX 15 29 0 -5
BITMAP
0000
0000
0000
0000
0000
0000
0000
0000
0000
0000
0000
0F80
1FC0
3060
0C60
1860
1860
1860
1860
1860
1860
3860
4860
3360
0E60
13E0
0E60
0000
0000
ENDCHAR
STARTCHAR TO_PATAK
ENCODING 175
SWIDTH 625 0
DWIDTH 15 0
BBX 15 29 0 -5
BITMAP
0000
0000
0000
0000
0000
0000
0000
0000
0000
0000
0000
0F80
1FC0
3060
0C60
1860
1860
1860
1860
1860
1860
3860
4A60
3460
0D60
17E0
1B60
0000
0000
ENDCHAR
STARTCHAR THO_THAN
ENCODING 176
SWIDTH 625 0
DWIDTH 15 0
BBX 15 29 0 -5
BITMAP
0000
0000
0000
0000
0000
0000
0000
0000
0000
0000
0000
0F80
19C0
3000
3F80
39C0
00C0
0CC0
12C0
0EC0
06C0
06C0
07C0
13C0
16C0
2EC0
3BC0
0000
0000
ENDCHAR
STARTCHAR THO_NANGMONTHO
ENCODING 177
SWIDTH 625 0
DWIDTH 15 0
BBX 15 29 0 -5
BITMAP
0000
0000
0000
0000
0000
0000
0000
0000
0000
0000
0000
6DC0
5FE0
6E60
0C60
1860
1860
3060
3060
3060
3060
3060
3060
3060
0000
0000
0000
0000
0000
ENDCHAR
STARTCHAR THO_PHUTHAO
ENCODING 178
SWIDTH 625 0
DWIDTH 15 0
BBX 15 29 0 -5
BITMAP
0000
0000
0000
0000
0000
0000
0000
0000
0000
0000
0000
3730
7DB0
6DB0
61B0
69B0
75B0
75B0
6DB0
6DB0
79B0
7BF0
7670
7390
0000
0000
0000
0000
0000
ENDCHAR
STARTCHAR NO_NEN
ENCODING 179
SWIDTH 625 0
DWIDTH 15 0
BBX 15 29 0 -5
BITMAP
0000
0000
0000
0000
0000
0000
0000
0000
0000
0000
0000
3E60
6760
3360
6360
6360
6360
6360
6360
6360
6360
73D0
4BD0
3260
0000
0000
0000
0000
0000
ENDCHAR
STARTCHAR DO_DEK
ENCODING 180
SWIDTH 625 0
DWIDTH 15 0
BBX 15 29 0 -5
BITMAP
0000
0000
0000
0000
0000
0000
0000
0000
0000
0000
0000
1F80
3FC0
70E0
6060
6660
6960
6760
6360
6360
6660
6C60
7860
7060
0000
0000
0000
0000
0000
ENDCHAR
STARTCHAR TO_TAO
ENCODING 181
SWIDTH 625 0
DWIDTH 15 0
BBX 15 29 0 -5
BITMAP
0000
0000
0000
0000
0000
0000
0000
0000
0000
0000
0000
1CC0
3FE0
7360
6060
6660
6960
6760
6360
6660
6660
6C60
7860
7060
0000
0000
0000
0000
0000
ENDCHAR
STARTCHAR THO_THUNG
ENCODING 182
SWIDTH 625 0
DWIDTH 15 0
BBX 15 29 0 -5
BITMAP
0000
0000
0000
0000
0000
0000
0000
0000
0000
0000
0000
1F80
3FC0
70E0
1860
3060
3060
3060
3060
3060
3060
3860
2460
1860
0000
0000
0000
0000
0000
ENDCHAR
STARTCHAR THO_THAHAN
ENCODING 183
SWIDTH 625 0
DWIDTH 15 0
BBX 15 29 0 -5
BITMAP
0000
0000
0000
0000
0000
0000
0000
0000
0000
0000
0000
3BC0
4EE0
3C60
0C60
1860
1860
1860
1860
1860
1860
1860
1860
1860
0000
0000
0000
0000
0000
ENDCHAR
STARTCHAR THO_THONG
ENCODING 184
SWIDTH 625 0
DWIDTH 15 0
BBX 15 29 0 -5
BITMAP
0000
0000
0000
0000
0000
0000
0000
0000
0000
0000
0000
3F80
71C0
6000
7F00
6180
00C0
30C0
30C0
30C0
30C0
30C0
3FC0
3FC0
0000
0000
0000
0000
0000
ENDCHAR
STARTCHAR NO_NU
ENCODING 185
SWIDTH 625 0
DWIDTH 15 0
BBX 15 29 0 -5
BITMAP
0000
0000
0000
0000
0000
0000
0000
0000
0000
0000
0000
30C0
58C0
58C0
38C0
18C0
30C0
30C0
30C0
30C0
31E0
3320
3FE0
1CC0
0000
0000
0000
0000
0000
ENDCHAR
STARTCHAR BO_BAIMAI
ENCODING 186
SWIDTH 625 0
DWIDTH 15 0
BBX 15 29 0 -5
BITMAP
0000
0000
0000
0000
0000
0000
0000
0000
0000
0000
0000
30C0
58C0
58C0
38C0
18C0
30C0
30C0
30C0
30C0
30C0
30C0
3FC0
1F80
0000
0000
0000
0000
0000
ENDCHAR
STARTCHAR PO_PLA
ENCODING 187
SWIDTH 625 0
DWIDTH 15 0
BBX 15 29 0 -5
BITMAP
0000
0000
0000
0000
0000
0000
0000
0000
0000
00C0
00C0
30C0
58C0
58C0
38C0
18C0
30C0
30C0
30C0
30C0
30C0
30C0
3FC0
1F80
0000
0000
0000
0000
0000
ENDCHAR
STARTCHAR PHO_PHUNG
ENCODING 188
SWIDTH 625 0
DWIDTH 15 0
BBX 15 29 0 -5
BITMAP
0000
0000
0000
0000
0000
0000
0000
0000
0000
0000
0000
2660
5660
5660
6660
6660
6660
6660
6660
6660
6660
6EE0
7FE0
39C0
0000
0000
0000
0000
0000
ENDCHAR
STARTCHAR FO_FA
ENCODING 189
SWIDTH 625 0
DWIDTH 15 0
BBX 15 29 0 -5
BITMAP
0000
0000
0000
0000
0000
0000
0000
0000
0000
0060
0060
3660
5660
5660
6660
6660
6660
6660
6660
6660
6660
6EE0
7FE0
39C0
0000
0000
0000
0000
0000
ENDCHAR
STARTCHAR PHO_PHAN
ENCODING 190
SWIDTH 625 0
DWIDTH 15 0
BBX 15 29 0 -5
BITMAP
0000
0000
0000
0000
0000
0000
0000
0000
0000
0000
0000
3660
5660
5660
3660
3660
6660
6660
6660
6660
6660
76E0
7FE0
39C0
0000
0000
0000
0000
0000
ENDCHAR
STARTCHAR FO_FAN
ENCODING 191
SWIDTH 625 0
DWIDTH 15 0
BBX 15 29 0 -5
BITMAP
0000
0000
0000
0000
0000
0000
0000
0000
0000
0060
0060
3660
5660
5660
3660
3660
3660
6660
6660
6660
6660
76E0
7FE0
39C0
0000
0000
0000
0000
0000
ENDCHAR
STARTCHAR PHO_SAMPHAO
ENCODING 192
SWIDTH 625 0
DWIDTH 15 0
BBX 15 29 0 -5
BITMAP
0000
0000
0000
0000
0000
0000
0000
0000
0000
0000
0000
1F80
3FC0
71C0
18C0
30C0
30C0
30C0
30C0
30C0
30C0
50C0
50C0
20C0
0000
0000
0000
0000
0000
ENDCHAR
STARTCHAR MO_MA
ENCODING 193
SWIDTH 625 0
DWIDTH 15 0
BBX 15 29 0 -5
BITMAP
0000
0000
0000
0000
0000
0000
0000
0000
0000
0000
0000
3060
5860
5860
3860
1860
1860
1860
1860
1860
3860
4CE0
7FE0
33C0
0000
0000
0000
0000
0000
ENDCHAR
STARTCHAR YO_YAK
ENCODING 194
SWIDTH 625 0
DWIDTH 15 0
BBX 15 29 0 -5
BITMAP
0000
0000
0000
0000
0000
0000
0000
0000
0000
0000
0000
38C0
64C0
78C0
60C0
7EC0
1EC0
38C0
70C0
60C0
60C0
60C0
7FC0
7FC0
0000
0000
0000
0000
0000
ENDCHAR
STARTCHAR RO_RUA
ENCODING 195
SWIDTH 625 0
DWIDTH 15 0
BBX 15 29 0 -5
BITMAP
0000
0000
0000
0000
0000
0000
0000
0000
0000
0000
0000
3F00
71C0
6000
7F80
71C0
00C0
00C0
00C0
00C0
08C0
15C0
17C0
0F80
0000
0000
0000
0000
0000
ENDCHAR
STARTCHAR RU
ENCODING 196
SWIDTH 625 0
DWIDTH 15 0
BBX 15 29 0 -5
BITMAP
0000
0000
0000
0000
0000
0000
0000
0000
0000
1F00
3F80
71C0
18C0
30C0
30C0
30C0
30C0
30C0
30C0
38C0
24C0
18C0
00C0
00C0
0000
0000
0000
0000
0000
ENDCHAR
STARTCHAR LO_LING
ENCODING 197
SWIDTH 625 0
DWIDTH 15 0
BBX 15 29 0 -5
BITMAP
0000
0000
0000
0000
0000
0000
0000
0000
0000
0000
0000
1F00
3F80
71C0
60C0
61C0
07C0
1CC0
30C0
70C0
60C0
70C0
48C0
30C0
0000
0000
0000
0000
0000
ENDCHAR
STARTCHAR LU
ENCODING 198
SWIDTH 625 0
DWIDTH 15 0
BBX 15 29 0 -5
BITMAP
0000
0000
0000
0000
0000
0000
0000
0000
0000
1F80
3FC0
70E0
0C60
1860
1860
1860
1860
1860
1860
3860
4860
3060
0060
0060
0000
0000
0000
0000
0000
ENDCHAR
STARTCHAR WO_WAEN
ENCODING 199
SWIDTH 625 0
DWIDTH 15 0
BBX 15 29 0 -5
BITMAP
0000
0000
0000
0000
0000
0000
0000
0000
0000
0000
0000
1F00
3F80
71C0
60C0
00C0
00C0
00C0
00C0
00C0
08C0
15C0
1780
0F00
0000
0000
0000
0000
0000
ENDCHAR
STARTCHAR SO_SALA
ENCODING 200
SWIDTH 625 0
DWIDTH 15 0
BBX 15 29 0 -5
BITMAP
0000
0000
0000
0000
0000
0000
0000
0000
0000
0060
0060
1FC0
3F80
71C0
60C0
64C0
6AC0
6AC0
6CC0
6CC0
78C0
78C0
70C0
70C0
0000
0000
0000
0000
0000
ENDCHAR
STARTCHAR SO_RUSI
ENCODING 201
SWIDTH 625 0
DWIDTH 15 0
BBX 15 29 0 -5
BITMAP
0000
0000
0000
0000
0000
0000
0000
0000
0000
0000
0000
30C0
48C0
78C0
38C0
18C0
32E0
35E0
33C0
30C0
30C0
30C0
3FC0
1F80
0000
0000
0000
0000
0000
ENDCHAR
STARTCHAR SO_SUA
ENCODING 202
SWIDTH 625 0
DWIDTH 15 0
BBX 15 29 0 -5
BITMAP
0000
0000
0000
0000
0000
0000
0000
0000
0000
0060
01E0
1F00
3F80
71C0
60C0
03C0
0FC0
1CC0
30C0
60C0
60C0
70C0
48C0
30C0
0000
0000
0000
0000
0000
ENDCHAR
STARTCHAR HO_HIP
ENCODING 203
SWIDTH 625 0
DWIDTH 15 0
BBX 15 29 0 -5
BITMAP
0000
0000
0000
0000
0000
0000
0000
0000
0000
0000
0000
3080
4940
3B40
1D80
38C0
30C0
30C0
30C0
30C0
30C0
30C0
30C0
30C0
0000
0000
0000
0000
0000
ENDCHAR
STARTCHAR LO_CHULA
ENCODING 204
SWIDTH 625 0
DWIDTH 15 0
BBX 15 29 0 -5
BITMAP
0000
0000
0000
0000
0000
0000
0000
0000
0000
0060
0060
36C0
56E0
5660
3660
3660
3660
6660
6660
6660
6660
76E0
7FE0
39C0
0000
0000
0000
0000
0000
ENDCHAR
STARTCHAR O_ANG
ENCODING 205
SWIDTH 625 0
DWIDTH 15 0
BBX 15 29 0 -5
BITMAP
0000
0000
0000
0000
0000
0000
0000
0000
0000
0000
0000
1F00
3F80
71C0
60C0
00C0
38C0
64C0
78C0
60C0
60C0
60C0
7FC0
7FC0
0000
0000
0000
0000
0000
ENDCHAR
STARTCHAR HO_NOK_HUK
ENCODING 206
SWIDTH 625 0
DWIDTH 15 0
BBX 15 29 0 -5
BITMAP
0000
0000
0000
0000
0000
0000
0000
0000
0000
01C0
0180
1F00
3F80
65C0
78C0
00C0
38C0
64C0
78C0
60C0
60C0
60C0
7FC0
7FC0
0000
0000
0000
0000
0000
ENDCHAR
STARTCHAR PAI_YAN_NOI
ENCODING 207
SWIDTH 625 0
DWIDTH 15 0
BBX 15 29 0 -5
BITMAP
0000
0000
0000
0000
0000
0000
0000
0000
0000
0000
0000
0000
2180
5380
5F80
3D80
0180
0180
0180
0180
0180
0180
0180
0180
0000
0000
0000
0000
0000
ENDCHAR
STARTCHAR SARA_A
ENCODING 208
SWIDTH 625 0
DWIDTH 15 0
BBX 15 29 0 -5
BITMAP
0000
0000
0000
0000
0000
0000
0000
0000
0000
0000
0000
0000
0000
0000
1980
2780
1F00
0000
1980
2780
1F00
0000
0000
0000
0000
0000
0000
0000
0000
ENDCHAR
STARTCHAR MAI_HAN-AKAT
ENCODING 209
SWIDTH 625 0
DWIDTH 15 0
BBX 15 29 0 -5
BITMAP
0000
0000
0000
0000
0000
1030
2870
2FE0
1F80
0000
0000
0000
0000
0000
0000
0000
0000
0000
0000
0000
0000
0000
0000
0000
0000
0000
0000
0000
0000
ENDCHAR
STARTCHAR SARA_AA
ENCODING 210
SWIDTH 625 0
DWIDTH 15 0
BBX 15 29 0 -5
BITMAP
0000
0000
0000
0000
0000
0000
0000
0000
0000
0000
0000
1F80
3FC0
31C0
00C0
00C0
00C0
00C0
00C0
00C0
00C0
00C0
00C0
00C0
0000
0000
0000
0000
0000
ENDCHAR
STARTCHAR SARA_AM
ENCODING 211
SWIDTH 625 0
DWIDTH 15 0
BBX 15 29 0 -5
BITMAP
0000
0000
0000
0000
0000
0000
0000
0000
D000
9000
D000
0000
0F80
1FC0
18C0
00C0
00C0
00C0
00C0
00C0
00C0
00C0
00C0
00C0
0000
0000
0000
0000
0000
ENDCHAR
STARTCHAR SARA_I
ENCODING 212
SWIDTH 625 0
DWIDTH 15 0
BBX 15 29 0 -5
BITMAP
0000
0000
0000
0000
0000
0000
1F80
30C0
3FC0
3FC0
0000
0000
0000
0000
0000
0000
0000
0000
0000
0000
0000
0000
0000
0000
0000
0000
0000
0000
0000
ENDCHAR
STARTCHAR SARA_II
ENCODING 213
SWIDTH 625 0
DWIDTH 15 0
BBX 15 29 0 -5
BITMAP
0000
0000
0000
0000
0000
0060
0FE0
1860
3FE0
3FE0
0000
0000
0000
0000
0000
0000
0000
0000
0000
0000
0000
0000
0000
0000
0000
0000
0000
0000
0000
ENDCHAR
STARTCHAR SARA_UE
ENCODING 214
SWIDTH 625 0
DWIDTH 15 0
BBX 15 29 0 -5
BITMAP
0000
0000
0000
0000
0000
00C0
0F20
10E0
3FE0
3FE0
0000
0000
0000
0000
0000
0000
0000
0000
0000
0000
0000
0000
0000
0000
0000
0000
0000
0000
0000
ENDCHAR
STARTCHAR SARA_UEE
ENCODING 215
SWIDTH 625 0
DWIDTH 15 0
BBX 15 29 0 -5
BITMAP
0000
0000
0000
0000
0000
01A0
0FA0
1060
3FE0
3FE0
0000
0000
0000
0000
0000
0000
0000
0000
0000
0000
0000
0000
0000
0000
0000
0000
0000
0000
0000
ENDCHAR
STARTCHAR SARA_U
ENCODING 216
SWIDTH 625 0
DWIDTH 15 0
BBX 15 29 0 -5
BITMAP
0000
0000
0000
0000
0000
0000
0000
0000
0000
0000
0000
0000
0000
0000
0000
0000
0000
0000
0000
0000
0000
0000
0000
0000
0180
0240
01C0
00C0
00C0
ENDCHAR
STARTCHAR SARA_UU
ENCODING 217
SWIDTH 625 0
DWIDTH 15 0
BBX 15 29 0 -5
BITMAP
0000
0000
0000
0000
0000
0000
0000
0000
0000
0000
0000
0000
0000
0000
0000
0000
0000
0000
0000
0000
0000
0000
0000
0000
0660
0960
0760
01E0
01E0
ENDCHAR
STARTCHAR PHINTHU
ENCODING 218
SWIDTH 625 0
DWIDTH 15 0
BBX 15 29 0 -5
BITMAP
0000
0000
0000
0000
0000
0000
0000
0000
0000
0000
0000
0000
0000
0000
0000
0000
0000
0000
0000
0000
0000
0000
0000
0000
0000
0700
0700
0000
0000
ENDCHAR
STARTCHAR B
ENCODING 223
SWIDTH 625 0
DWIDTH 15 0
BBX 15 29 0 -5
BITMAP
0000
0000
0000
0000
0000
0000
0000
0000
0000
0600
3F00
3F80
37C0
36C0
36C0
3780
3F80
3FC0
36E0
3660
3660
36E0
3FC0
3F80
0600
0000
0000
0000
0000
ENDCHAR
STARTCHAR SARA_E
ENCODING 224
SWIDTH 625 0
DWIDTH 15 0
BBX 15 29 0 -5
BITMAP
0000
0000
0000
0000
0000
0000
0000
0000
0000
0000
0000
3000
3000
3000
3000
3000
3000
3000
3000
3000
3800
3400
3400
1800
0000
0000
0000
0000
0000
ENDCHAR
STARTCHAR SARA_AE
ENCODING 225
SWIDTH 625 0
DWIDTH 15 0
BBX 15 29 0 -5
BITMAP
0000
0000
0000
0000
0000
0000
0000
0000
0000
0000
0000
3180
3180
3180
3180
3180
3180
3180
3180
3180
39C0
35A0
35A0
18C0
0000
0000
0000
0000
0000
ENDCHAR
STARTCHAR SARA_O
ENCODING 226
SWIDTH 625 0
DWIDTH 15 0
BBX 15 29 0 -5
BITMAP
0000
0000
0000
0000
0000
0000
0000
0000
1FC0
3060
7F00
7F80
0180
0180
0180
0180
0180
0180
0180
0180
01C0
01A0
01A0
00C0
0000
0000
0000
0000
0000
ENDCHAR
STARTCHAR SARA_MAI_MUAN
ENCODING 227
SWIDTH 625 0
DWIDTH 15 0
BBX 15 29 0 -5
BITMAP
0000
0000
0000
0000
0000
0000
0000
0000
1F00
3380
6180
6D80
7D80
3980
0180
0180
0180
0180
0180
0180
01C0
01A0
01A0
00C0
0000
0000
0000
0000
0000
ENDCHAR
STARTCHAR SARA_MAI_MALAI
ENCODING 228
SWIDTH 625 0
DWIDTH 15 0
BBX 15 29 0 -5
BITMAP
0000
0000
0000
0000
0000
0000
0000
0000
7380
7F80
0D80
0180
0180
0180
0180
0180
0180
0180
0180
0180
01C0
01A0
01A0
00C0
0000
0000
0000
0000
0000
ENDCHAR
STARTCHAR LAK_KHANG_YAO
ENCODING 229
SWIDTH 625 0
DWIDTH 15 0
BBX 15 29 0 -5
BITMAP
0000
0000
0000
0000
0000
0000
0000
0000
1F80
3FC0
31C0
00C0
00C0
00C0
00C0
00C0
00C0
00C0
00C0
00C0
00C0
00C0
00C0
00C0
0000
0000
0000
0000
0000
ENDCHAR
STARTCHAR MAI_YAMOK
ENCODING 230
SWIDTH 625 0
DWIDTH 15 0
BBX 15 29 0 -5
BITMAP
0000
0000
0000
0000
0000
0000
0000
0000
0000
0000
0000
0000
3700
5D80
5980
3180
0180
0180
0180
0180
0180
0180
0180
0180
0000
0000
0000
0000
0000
ENDCHAR
STARTCHAR MAI_TAI_KHU
ENCODING 231
SWIDTH 625 0
DWIDTH 15 0
BBX 15 29 0 -5
BITMAP
0000
0000
0000
0000
0060
0FC0
1000
36C0
3F40
3980
0000
0000
0000
0000
0000
0000
0000
0000
0000
0000
0000
0000
0000
0000
0000
0000
0000
0000
0000
ENDCHAR
STARTCHAR MAI_EK
ENCODING 232
SWIDTH 625 0
DWIDTH 15 0
BBX 15 29 0 -5
BITMAP
0000
0180
0180
0180
0000
0000
0000
0000
0000
0000
0000
0000
0000
0000
0000
0000
0000
0000
0000
0000
0000
0000
0000
0000
0000
0000
0000
0000
0000
ENDCHAR
STARTCHAR MAI_THO
ENCODING 233
SWIDTH 625 0
DWIDTH 15 0
BBX 15 29 0 -5
BITMAP
0800
1460
14E0
0FC0
1F00
0000
0000
0000
0000
0000
0000
0000
0000
0000
0000
0000
0000
0000
0000
0000
0000
0000
0000
0000
0000
0000
0000
0000
0000
ENDCHAR
STARTCHAR MAI_TRI
ENCODING 234
SWIDTH 625 0
DWIDTH 15 0
BBX 15 29 0 -5
BITMAP
3300
7FA0
65A0
51E0
61C0
0000
0000
0000
0000
0000
0000
0000
0000
0000
0000
0000
0000
0000
0000
0000
0000
0000
0000
0000
0000
0000
0000
0000
0000
ENDCHAR
STARTCHAR MAI_CHATTAWA
ENCODING 235
SWIDTH 625 0
DWIDTH 15 0
BBX 15 29 0 -5
BITMAP
0300
0FC0
0FC0
0300
0000
0000
0000
0000
0000
0000
0000
0000
0000
0000
0000
0000
0000
0000
0000
0000
0000
0000
0000
0000
0000
0000
0000
0000
0000
ENDCHAR
STARTCHAR THANTHAKHAT
ENCODING 236
SWIDTH 625 0
DWIDTH 15 0
BBX 15 29 0 -5
BITMAP
0060
00E0
0FC0
1300
1C00
0000
0000
0000
0000
0000
0000
0000
0000
0000
0000
0000
0000
0000
0000
0000
0000
0000
0000
0000
0000
0000
0000
0000
0000
ENDCHAR
STARTCHAR NIKKHAHIT
ENCODING 237
SWIDTH 625 0
DWIDTH 15 0
BBX 15 29 0 -5
BITMAP
03C0
07E0
0660
07E0
03C0
0000
0000
0000
0000
0000
0000
0000
0000
0000
0000
0000
0000
0000
0000
0000
0000
0000
0000
0000
0000
0000
0000
0000
0000
ENDCHAR
STARTCHAR YAMAKKAN
ENCODING 238
SWIDTH 625 0
DWIDTH 15 0
BBX 15 29 0 -5
BITMAP
0000
0000
0000
0000
0000
00F0
0100
01E0
0200
03E0
0000
0000
0000
0000
0000
0000
0000
0000
0000
0000
0000
0000
0000
0000
0000
0000
0000
0000
0000
ENDCHAR
STARTCHAR FONGMAN
ENCODING 239
SWIDTH 625 0
DWIDTH 15 0
BBX 15 29 0 -5
BITMAP
0000
0000
0000
0000
0000
0000
0000
0000
0000
0000
0000
0000
0000
0000
0000
0F80
1DC0
3060
3760
3560
3760
3060
1DC0
0F80
0000
0000
0000
0000
0000
ENDCHAR
STARTCHAR ZERO
ENCODING 240
SWIDTH 625 0
DWIDTH 15 0
BBX 15 29 0 -5
BITMAP
0000
0000
0000
0000
0000
0000
0000
0000
0000
0000
0000
0F00
1F80
39C0
30C0
30C0
30C0
30C0
30C0
30C0
30C0
39C0
1F80
0F00
0000
0000
0000
0000
0000
ENDCHAR
STARTCHAR ONE
ENCODING 241
SWIDTH 625 0
DWIDTH 15 0
BBX 15 29 0 -5
BITMAP
0000
0000
0000
0000
0000
0000
0000
0000
0000
0000
0000
0F80
1FC0
38E0
3060
3660
3960
3F60
1E60
0060
00C0
01C0
1F80
1F00
0000
0000
0000
0000
0000
ENDCHAR
STARTCHAR TWO
ENCODING 242
SWIDTH 625 0
DWIDTH 15 0
BBX 15 29 0 -5
BITMAP
0000
0000
0000
0000
0000
0000
0000
0000
0000
0000
6000
6000
6000
6EE0
6FE0
6D60
6C60
6E60
6960
6F60
6660
6060
7FE0
7FE0
0000
0000
0000
0000
0000
ENDCHAR
STARTCHAR THREE
ENCODING 243
SWIDTH 625 0
DWIDTH 15 0
BBX 15 29 0 -5
BITMAP
0000
0000
0000
0000
0000
0000
0000
0000
0000
0000
0000
0000
38C0
7DE0
6F60
6660
6660
6660
6660
6660
7660
6860
6860
3060
0000
0000
0000
0000
0000
ENDCHAR
STARTCHAR FOUR
ENCODING 244
SWIDTH 625 0
DWIDTH 15 0
BBX 15 29 0 -5
BITMAP
0000
0000
0000
0000
0000
0000
0000
0000
0000
0000
0000
0060
00E0
01C0
1F80
3F00
7000
6000
6380
6640
6780
7600
3FE0
1FE0
0000
0000
0000
0000
0000
ENDCHAR
STARTCHAR FIVE
ENCODING 245
SWIDTH 625 0
DWIDTH 15 0
BBX 15 29 0 -5
BITMAP
0000
0000
0000
0000
0000
0000
0000
0000
0000
0000
0060
0360
04C0
03C0
1F80
3800
7000
6000
6380
6640
6780
7600
3FE0
1FE0
0000
0000
0000
0000
0000
ENDCHAR
STARTCHAR SIX
ENCODING 246
SWIDTH 625 0
DWIDTH 15 0
BBX 15 29 0 -5
BITMAP
0000
0000
0000
0000
0000
0000
0000
0000
0000
0000
0000
0000
6000
6000
7F80
3FC0
00E0
0060
0060
1C60
3260
3CE0
3FC0
1F80
0000
0000
0000
0000
0000
ENDCHAR
STARTCHAR SEVEN
ENCODING 247
SWIDTH 625 0
DWIDTH 15 0
BBX 15 29 0 -5
BITMAP
0000
0000
0000
0000
0000
0000
0000
0000
0000
0000
0000
0000
3600
7F00
6F00
6B00
6300
6300
6330
6330
7370
6B60
6BE0
33C0
0000
0000
0000
0000
0000
ENDCHAR
STARTCHAR EIGHT
ENCODING 248
SWIDTH 625 0
DWIDTH 15 0
BBX 15 29 0 -5
BITMAP
0000
0000
0000
0000
0000
0000
0000
0000
0000
0000
0000
0000
0030
0070
1FE0
3FC0
7000
6000
6000
6000
6CC0
7F20
73E0
61C0
0000
0000
0000
0000
0000
ENDCHAR
STARTCHAR NINE
ENCODING 249
SWIDTH 625 0
DWIDTH 15 0
BBX 15 29 0 -5
BITMAP
0000
0000
0000
0000
0000
0000
0000
0000
0000
0000
0000
0060
0060
00E0
0FE0
1FC0
0E00
0700
1F80
3E00
6780
79E0
6460
1800
0000
0000
0000
0000
0000
ENDCHAR
STARTCHAR ANGKHANKHU
ENCODING 250
SWIDTH 625 0
DWIDTH 15 0
BBX 15 29 0 -5
BITMAP
0000
0000
0000
0000
0000
0000
0000
0000
0000
21A0
53F0
57B0
3DB0
01B0
01B0
01B0
01B0
01B0
01B0
01B0
01B0
01B0
0330
0660
0000
0000
0000
0000
0000
ENDCHAR
STARTCHAR KHOMUT
ENCODING 251
SWIDTH 625 0
DWIDTH 15 0
BBX 15 29 0 -5
BITMAP
0000
0000
0000
0000
0000
0000
0000
0000
0000
0000
0000
0000
3800
6400
6400
7E00
66C0
66EC
67B8
7D80
3800
1000
0000
0000
0000
0000
0000
0000
0000
ENDCHAR
ENDFONT
