STARTFONT 2.1
FONT "open_iconic_other_8x"
SIZE 16 75 75
FONTBOUNDINGBOX 16 16 0 0
STARTPROPERTIES 3
COPYRIGHT "https://github.com/iconic/open-iconic, SIL OPEN FONT LICENSE"
FONT_ASCENT 0
FONT_DESCENT 0
ENDPROPERTIES
STARTCHAR /home/kraus/git/open-iconic/png/bolt-8x.png
ENCODING 64
DWIDTH 64 0
BBX 64 64 0 0
BITMAP
0000000000000000
0000000100000000
0000000100000000
0000000300000000
0000000700000000
0000000700000000
0000000f00000000
0000000f00000000
0000001f00000000
0000003f00000000
0000003f00000000
0000007f00000000
0000007f00000000
000000ff00000000
000001ff00000000
000001ff00000000
000003ff00000000
000003ff00000000
000007ff00000000
00000fff00000000
00000fff00000000
00001fff00000000
00001fff00000000
00003fff00000000
00007fffffff0000
00007ffffffe0000
0000fffffffc0000
0000fffffffc0000
0001fffffff80000
0003fffffff80000
0003fffffff00000
0007ffffffe00000
0007ffffffe00000
000fffffffc00000
001fffffffc00000
001fffffff800000
003fffffff000000
003fffffff000000
007ffffffe000000
00fffffffe000000
000000fffc000000
000000fff8000000
000000fff8000000
000000fff0000000
000000fff0000000
000000ffe0000000
000000ffc0000000
000000ffc0000000
000000ff80000000
000000ff80000000
000000ff00000000
000000fe00000000
000000fe00000000
000000fc00000000
000000fc00000000
000000f800000000
000000f000000000
000000f000000000
000000e000000000
000000e000000000
000000c000000000
0000008000000000
0000008000000000
0000000000000000
ENDCHAR
STARTCHAR /home/kraus/git/open-iconic/png/dial-8x.png
ENCODING 65
DWIDTH 64 0
BBX 64 64 0 0
BITMAP
0000000000000000
0000000000000000
0000000000000000
0000000000000000
0000000000000000
0000000000000000
0000000000000000
0000000000000000
0000003ffc000000
000003ffffc00000
00000ffffff00000
00007ffffffc0000
0000ffffffff0000
0003ffffffffc000
0007ffffffffe000
001ffffffffff800
003fffe007fffc00
007fff0000fffe00
00fff800001fff00
01fff000000fff80
01ffc0000003ff80
03ff80000001ffc0
07ff00000000ffe0
07fe000000007fe0
0ffc000000003ff0
1ff800700e001ff0
1ff001f00f800ff8
1ff003f81fc00ff8
3fe007fc3fe007fc
3fc00ffc3ff003fc
7fc01ffe7ff803fe
7fc03ffffffc03fe
7f803ffffffc01fe
7f807ffffffe01fe
ff807ffffffe01ff
ff007ffffffe00ff
ff00ffffffff00ff
ff00ffffffff00ff
ff00ffffffff00ff
ff00ffffffff00ff
0000ffffffff0000
0000ffffffff0000
0000ffffffff0000
0000ffffffff0000
00007ffffffe0000
00007ffffffe0000
00007ffffffe0000
00003ffffffc0000
00003ffffffc0000
00001ffffff80000
00000ffffff00000
000007ffffe00000
000003ffffc00000
000001ffff800000
0000007ffe000000
0000000ff0000000
0000000000000000
0000000000000000
0000000000000000
0000000000000000
0000000000000000
0000000000000000
0000000000000000
0000000000000000
ENDCHAR
STARTCHAR /home/kraus/git/open-iconic/png/fork-8x.png
ENCODING 66
DWIDTH 64 0
BBX 64 64 0 0
BITMAP
007e0000007e0000
03ffc00003ffc000
07ffe00007ffe000
0ffff0000ffff000
1ffff8001ffff800
3ffffc003ffffc00
7ffffe007ffffe00
7ffffe007ffffe00
7ffffe007ffffe00
ffffff00ffffff00
ffffff00ffffff00
ffffff00ffffff00
ffffff00ffffff00
ffffff00ffffff00
ffffff00ffffff00
7ffffe00fffffe00
7ffffe007ffffe00
7ffffe007ffffe00
3ffffc003ffffc00
1ffff8001ffff800
0ffff0001ffff800
07ffe00007ffe000
03ffc00003ffc000
00ff000000ff0000
00ff000000ff0000
00ff000000ff0000
00ff000000ff0000
00ff000000ff0000
00ff000000ff0000
00ff000000ff0000
00ff000001ff0000
00ff000003fe0000
00ff7ffffffe0000
00fffffffffe0000
00fffffffffc0000
00fffffffff80000
00fffffffff00000
00ffffffffe00000
00ffffffffc00000
00ffffffff000000
00ffc00000000000
03ffc00000000000
07ffe00000000000
0ffff00000000000
1ffff80000000000
3ffffc0000000000
7ffffe0000000000
7ffffe0000000000
7ffffe0000000000
ffffff0000000000
ffffff0000000000
ffffff0000000000
ffffff0000000000
ffffff0000000000
ffffff0000000000
7ffffe0000000000
7ffffe0000000000
7ffffe0000000000
3ffffc0000000000
1ffff80000000000
1ffff80000000000
07ffe00000000000
03ffc00000000000
00ff000000000000
ENDCHAR
STARTCHAR /home/kraus/git/open-iconic/png/grid-four-up-8x.png
ENCODING 67
DWIDTH 64 0
BBX 64 64 0 0
BITMAP
ff00ff00ff00ff00
ff00ff00ff00ff00
ff00ff00ff00ff00
ff00ff00ff00ff00
ff00ff00ff00ff00
ff00ff00ff00ff00
ff00ff00ff00ff00
ff00ff00ff00ff00
0000000000000000
0000000000000000
0000000000000000
0000000000000000
0000000000000000
0000000000000000
0000000000000000
0000000000000000
ff00ff00ff00ff00
ff00ff00ff00ff00
ff00ff00ff00ff00
ff00ff00ff00ff00
ff00ff00ff00ff00
ff00ff00ff00ff00
ff00ff00ff00ff00
ff00ff00ff00ff00
0000000000000000
0000000000000000
0000000000000000
0000000000000000
0000000000000000
0000000000000000
0000000000000000
0000000000000000
ff00ff00ff00ff00
ff00ff00ff00ff00
ff00ff00ff00ff00
ff00ff00ff00ff00
ff00ff00ff00ff00
ff00ff00ff00ff00
ff00ff00ff00ff00
ff00ff00ff00ff00
0000000000000000
0000000000000000
0000000000000000
0000000000000000
0000000000000000
0000000000000000
0000000000000000
0000000000000000
ff00ff00ff00ff00
ff00ff00ff00ff00
ff00ff00ff00ff00
ff00ff00ff00ff00
ff00ff00ff00ff00
ff00ff00ff00ff00
ff00ff00ff00ff00
ff00ff00ff00ff00
0000000000000000
0000000000000000
0000000000000000
0000000000000000
0000000000000000
0000000000000000
0000000000000000
0000000000000000
ENDCHAR
STARTCHAR /home/kraus/git/open-iconic/png/grid-three-up-8x.png
ENCODING 68
DWIDTH 64 0
BBX 64 64 0 0
BITMAP
ffff00ffff00ffff
ffff00ffff00ffff
ffff00ffff00ffff
ffff00ffff00ffff
ffff00ffff00ffff
ffff00ffff00ffff
ffff00ffff00ffff
ffff00ffff00ffff
ffff00ffff00ffff
ffff00ffff00ffff
ffff00ffff00ffff
ffff00ffff00ffff
ffff00ffff00ffff
ffff00ffff00ffff
ffff00ffff00ffff
ffff00ffff00ffff
0000000000000000
0000000000000000
0000000000000000
0000000000000000
0000000000000000
0000000000000000
0000000000000000
0000000000000000
ffff00ffff00ffff
ffff00ffff00ffff
ffff00ffff00ffff
ffff00ffff00ffff
ffff00ffff00ffff
ffff00ffff00ffff
ffff00ffff00ffff
ffff00ffff00ffff
ffff00ffff00ffff
ffff00ffff00ffff
ffff00ffff00ffff
ffff00ffff00ffff
ffff00ffff00ffff
ffff00ffff00ffff
ffff00ffff00ffff
ffff00ffff00ffff
0000000000000000
0000000000000000
0000000000000000
0000000000000000
0000000000000000
0000000000000000
0000000000000000
0000000000000000
ffff00ffff00ffff
ffff00ffff00ffff
ffff00ffff00ffff
ffff00ffff00ffff
ffff00ffff00ffff
ffff00ffff00ffff
ffff00ffff00ffff
ffff00ffff00ffff
ffff00ffff00ffff
ffff00ffff00ffff
ffff00ffff00ffff
ffff00ffff00ffff
ffff00ffff00ffff
ffff00ffff00ffff
ffff00ffff00ffff
ffff00ffff00ffff
ENDCHAR
STARTCHAR /home/kraus/git/open-iconic/png/grid-two-up-8x.png
ENCODING 69
DWIDTH 64 0
BBX 64 64 0 0
BITMAP
ffffff0000ffffff
ffffff0000ffffff
ffffff0000ffffff
ffffff0000ffffff
ffffff0000ffffff
ffffff0000ffffff
ffffff0000ffffff
ffffff0000ffffff
ffffff0000ffffff
ffffff0000ffffff
ffffff0000ffffff
ffffff0000ffffff
ffffff0000ffffff
ffffff0000ffffff
ffffff0000ffffff
ffffff0000ffffff
ffffff0000ffffff
ffffff0000ffffff
ffffff0000ffffff
ffffff0000ffffff
ffffff0000ffffff
ffffff0000ffffff
ffffff0000ffffff
ffffff0000ffffff
0000000000000000
0000000000000000
0000000000000000
0000000000000000
0000000000000000
0000000000000000
0000000000000000
0000000000000000
0000000000000000
0000000000000000
0000000000000000
0000000000000000
0000000000000000
0000000000000000
0000000000000000
0000000000000000
ffffff0000ffffff
ffffff0000ffffff
ffffff0000ffffff
ffffff0000ffffff
ffffff0000ffffff
ffffff0000ffffff
ffffff0000ffffff
ffffff0000ffffff
ffffff0000ffffff
ffffff0000ffffff
ffffff0000ffffff
ffffff0000ffffff
ffffff0000ffffff
ffffff0000ffffff
ffffff0000ffffff
ffffff0000ffffff
ffffff0000ffffff
ffffff0000ffffff
ffffff0000ffffff
ffffff0000ffffff
ffffff0000ffffff
ffffff0000ffffff
ffffff0000ffffff
ffffff0000ffffff
ENDCHAR
STARTCHAR /home/kraus/git/open-iconic/png/signal-8x.png
ENCODING 70
DWIDTH 64 0
BBX 64 64 0 0
BITMAP
000000000000ff00
000000000000ff00
000000000000ff00
000000000000ff00
000000000000ff00
000000000000ff00
000000000000ff00
000000000000ff00
00000000ff00ff00
00000000ff00ff00
00000000ff00ff00
00000000ff00ff00
00000000ff00ff00
00000000ff00ff00
00000000ff00ff00
00000000ff00ff00
00000000ff00ff00
00000000ff00ff00
00000000ff00ff00
00000000ff00ff00
00000000ff00ff00
00000000ff00ff00
00000000ff00ff00
00000000ff00ff00
0000ff00ff00ff00
0000ff00ff00ff00
0000ff00ff00ff00
0000ff00ff00ff00
0000ff00ff00ff00
0000ff00ff00ff00
0000ff00ff00ff00
0000ff00ff00ff00
0000ff00ff00ff00
0000ff00ff00ff00
0000ff00ff00ff00
0000ff00ff00ff00
0000ff00ff00ff00
0000ff00ff00ff00
0000ff00ff00ff00
0000ff00ff00ff00
ff00ff00ff00ff00
ff00ff00ff00ff00
ff00ff00ff00ff00
ff00ff00ff00ff00
ff00ff00ff00ff00
ff00ff00ff00ff00
ff00ff00ff00ff00
ff00ff00ff00ff00
ff00ff00ff00ff00
ff00ff00ff00ff00
ff00ff00ff00ff00
ff00ff00ff00ff00
ff00ff00ff00ff00
ff00ff00ff00ff00
ff00ff00ff00ff00
ff00ff00ff00ff00
ff00ff00ff00ff00
ff00ff00ff00ff00
ff00ff00ff00ff00
ff00ff00ff00ff00
ff00ff00ff00ff00
ff00ff00ff00ff00
ff00ff00ff00ff00
ff00ff00ff00ff00
ENDCHAR
STARTCHAR /home/kraus/git/open-iconic/png/target-8x.png
ENCODING 71
DWIDTH 64 0
BBX 64 64 0 0
BITMAP
0000003ffc000000
000003ffffc00000
00000ffffff00000
00007ffffffc0000
0000ffffffff0000
0003ffffffffc000
0007ffffffffe000
001ffffffffff800
003fffe007fffc00
007fff0000fffe00
00fff800001fff00
01fff000000fff80
01ffc0000003ff80
03ff80000001ffc0
07ff00000000ffe0
07fe000000007fe0
0ffc000ff0003ff0
1ff8007ffe001ff0
1ff001ffff800ff8
1ff003ffffc00ff8
3fe007ffffe007fc
3fc00ffffff003fc
7fc01ffffff803fe
7fc03ffffffc03fe
7f803ff81ffc01fe
7f807fe007fe01fe
ff807fc003fe01ff
ff007f8001fe00ff
ff00ff8001ff00ff
ff00ff0000ff00ff
ff00ff0000ff00ff
ff00ff0000ff00ff
ff00ff0000ff00ff
ff00ff0000ff00ff
ff00ff0000ff00ff
ff00ff8001ff00ff
ff007f8001fe00ff
ff807fc003fe01ff
7f807fe007fe01fe
7f803ff81ffc01fe
7fc03ffffffc03fe
7fc01ffffff803fe
3fc00ffffff003fc
3fe007ffffe007fc
1ff003ffffc00ff8
1ff001ffff800ff8
0ff8007ffe001ff0
0ffc000ff0003ff0
07fe000000007fe0
07ff00000000ffe0
03ff80000001ffc0
01ffc0000003ff80
01fff000000fff00
00fff800001fff00
007fff0000fffe00
003fffe007fffc00
001ffffffffff000
0007ffffffffe000
0003ffffffffc000
0000ffffffff0000
00003ffffffc0000
00000ffffff00000
000003ffffc00000
0000003ffc000000
ENDCHAR
