STARTFONT 2.1
FONT "open_iconic_thing_8x"
SIZE 16 75 75
FONTBOUNDINGBOX 16 16 0 0
STARTPROPERTIES 3
COPYRIGHT "https://github.com/iconic/open-iconic, SIL OPEN FONT LICENSE"
FONT_ASCENT 0
FONT_DESCENT 0
ENDPROPERTIES
STARTCHAR /home/kraus/git/open-iconic/png/basket-8x.png
ENCODING 64
DWIDTH 64 0
BBX 64 64 0 0
BITMAP
00000003c0000000
00000007e0000000
0000000ff0000000
0000001ff8000000
0000001ff8000000
0000003ffc000000
0000007ffe000000
000000ffff000000
000001ffff800000
000003ffffc00000
000003ffffc00000
000007fe7fe00000
00000ffc3ff00000
00001ff81ff80000
00003ff00ffc0000
00007ff00ffe0000
00007fe007ff0000
0000ffc003ff0000
0001ff8001ff8000
0003ff0000ffc000
0007fe00007fe000
000ffe00007ff000
000ffc00003ff800
001ff800001ff800
ffffffffffffffff
ffffffffffffffff
ffffffffffffffff
ffffffffffffffff
ffffffffffffffff
ffffffffffffffff
ffffffffffffffff
ffffffffffffffff
00ffffffffffff00
00ffffffffffff00
00ffffffffffff00
00ffffffffffff00
00ffffffffffff00
00ffffffffffff00
00ffffffffffff00
00ffffffffffff00
00ffc3ffffc3ff00
00ff81ffff81ff00
00ff00ffff00ff00
00ff00ffff00ff00
00ff00ffff00ff00
00ff00ffff00ff00
00ff00ffff00ff00
00ff00ffff00ff00
00ff00ffff00ff00
00ff00ffff00ff00
00ff00ffff00ff00
00ff00ffff00ff00
00ff00ffff00ff00
00ff00ffff00ff00
00ff81ffff81ff00
00ffc3ffffc3ff00
00ffffffffffff00
00ffffffffffff00
00ffffffffffff00
00ffffffffffff00
00ffffffffffff00
00ffffffffffff00
00ffffffffffff00
007ffffffffffe00
ENDCHAR
STARTCHAR /home/kraus/git/open-iconic/png/briefcase-8x.png
ENCODING 65
DWIDTH 64 0
BBX 64 64 0 0
BITMAP
000007ffffe00000
00001ffffff80000
00003ffffffc0000
00007ffffffe0000
00007ffffffe0000
0000ffffffff0000
0000ffffffff0000
0000ffffffff0000
0000ff0000ff0000
0000ff0000ff0000
0000ff0000ff0000
0000ff0000ff0000
0000ff0000ff0000
0000ff0000ff0000
0000ff0000ff0000
0000ff0000ff0000
ffffffffffffffff
ffffffffffffffff
ffffffffffffffff
ffffffffffffffff
ffffffffffffffff
ffffffffffffffff
ffffffffffffffff
ffffffffffffffff
ffffffffffffffff
ffffffffffffffff
ffffffffffffffff
ffffffffffffffff
ffffffffffffffff
ffffffffffffffff
ffffffffffffffff
ffffffffffffffff
ffffffffffffffff
ffffffffffffffff
ffffffffffffffff
ffffffffffffffff
ffffffffffffffff
ffffffffffffffff
7ffffffffffffffe
3ffffffffffffffc
0000000000000000
0000000000000000
0000000000000000
0000000000000000
0000000000000000
0000000000000000
0000000000000000
8000000000000001
ffffffffffffffff
ffffffffffffffff
ffffffffffffffff
ffffffffffffffff
ffffffffffffffff
ffffffffffffffff
ffffffffffffffff
ffffffffffffffff
ffffffffffffffff
ffffffffffffffff
ffffffffffffffff
ffffffffffffffff
ffffffffffffffff
ffffffffffffffff
ffffffffffffffff
ffffffffffffffff
ENDCHAR
STARTCHAR /home/kraus/git/open-iconic/png/credit-card-8x.png
ENCODING 66
DWIDTH 64 0
BBX 64 64 0 0
BITMAP
0000000000000000
0000000000000000
0000000000000000
0000000000000000
0000000000000000
0000000000000000
0000000000000000
0000000000000000
7ffffffffffffffe
ffffffffffffffff
ffffffffffffffff
ffffffffffffffff
ffffffffffffffff
ffffffffffffffff
ffffffffffffffff
ffffffffffffffff
0000000000000000
0000000000000000
0000000000000000
0000000000000000
0000000000000000
0000000000000000
0000000000000000
0000000000000000
ffffffffffffffff
ffffffffffffffff
ffffffffffffffff
ffffffffffffffff
ffffffffffffffff
ffffffffffffffff
ffffffffffffffff
ffffffffffffffff
ffffffffffffffff
ffffffffffffffff
ffffffffffffffff
ffffffffffffffff
ffffffffffffffff
ffffffffffffffff
ffffffffffffffff
ffffffffffffffff
ff00ff00ffffffff
ff00ff00ffffffff
ff00ff00ffffffff
ff00ff00ffffffff
ff00ff00ffffffff
ff00ff00ffffffff
ff00ff00ffffffff
ff00ff00ffffffff
ffffffffffffffff
ffffffffffffffff
ffffffffffffffff
ffffffffffffffff
ffffffffffffffff
ffffffffffffffff
ffffffffffffffff
7ffffffffffffffe
0000000000000000
0000000000000000
0000000000000000
0000000000000000
0000000000000000
0000000000000000
0000000000000000
0000000000000000
ENDCHAR
STARTCHAR /home/kraus/git/open-iconic/png/key-8x.png
ENCODING 67
DWIDTH 64 0
BBX 64 64 0 0
BITMAP
0000000000ff0000
000000000ffff000
000000003ffffc00
000000007ffffe00
00000001ffffff80
00000003ffffffc0
00000007ffffffe0
0000000ffffffff0
0000000ffff81ff0
0000001fffe007f8
0000003fffc003fc
0000003fff8001fc
0000007fff8001fe
0000007fff0000fe
0000007fff0000fe
0000007fff0000fe
000000ffff0000ff
000000ffff0000ff
000000ffff0000ff
000000ffff8001ff
000000ffff8001ff
000000ffffc003ff
000000ffffe007ff
000000fffff81fff
000001fffffffffe
000003fffffffffe
000007fffffffffe
00000ffffffffffe
00001ffffffffffc
00003ffffffffffc
00007ffffffffff8
0000fffffffffff0
0001fffffffffff0
0003ffffffffffe0
0007ffffffffffc0
000fffffffffff80
000ffffffffffe00
001ffffffffffc00
003ffffffffff000
007fffffffff0000
00ffffffff000000
01ffffffff000000
03ffffffff000000
07ffffffff000000
0fffffffff000000
1fffffffff000000
3fffffffff000000
7fffffffff000000
ffffff0000000000
ffffff0000000000
ffffff0000000000
ffffff0000000000
ffffff0000000000
ffffff0000000000
ffffff0000000000
ffffff0000000000
ffffff0000000000
ffffff0000000000
ffffff0000000000
ffffff0000000000
ffffff0000000000
ffffff0000000000
ffffff0000000000
ffffff0000000000
ENDCHAR
STARTCHAR /home/kraus/git/open-iconic/png/lock-unlocked-8x.png
ENCODING 68
DWIDTH 64 0
BBX 64 64 0 0
BITMAP
0000000ff0000000
0000007ffe000000
000001ffff800000
000003ffffc00000
000007ffffe00000
00000ffffff00000
00001ffffff80000
00003ffffffc0000
00003ff81ffc0000
00007fe007fe0000
00007fc003fe0000
00007f8001fe0000
0000ff8001ff0000
0000ff0000ff0000
0000ff0000ff0000
0000ff0000ff0000
0000000000ff0000
0000000000ff0000
0000000000ff0000
0000000000ff0000
0000000000ff0000
0000000000ff0000
0000000000ff0000
0000000000ff0000
0000000000ff0000
0000000000ff0000
0000000000ff0000
0000000000ff0000
0000000000ff0000
0000000000ff0000
0000000000ff0000
0000000000ff0000
00ffffffffffff00
00ffffffffffff00
00ffffffffffff00
00ffffffffffff00
00ffffffffffff00
00ffffffffffff00
00ffffffffffff00
00ffffffffffff00
00ffffffffffff00
00ffffffffffff00
00ffffffffffff00
00ffffffffffff00
00ffffffffffff00
00ffffffffffff00
00ffffffffffff00
00ffffffffffff00
00ffffffffffff00
00ffffffffffff00
00ffffffffffff00
00ffffffffffff00
00ffffffffffff00
00ffffffffffff00
00ffffffffffff00
00ffffffffffff00
00ffffffffffff00
00ffffffffffff00
00ffffffffffff00
00ffffffffffff00
00ffffffffffff00
00ffffffffffff00
00ffffffffffff00
00ffffffffffff00
ENDCHAR
STARTCHAR /home/kraus/git/open-iconic/png/paperclip-8x.png
ENCODING 69
DWIDTH 64 0
BBX 64 64 0 0
BITMAP
000000000ff00000
000000007ffc0000
00000000ffff0000
00000003ffffc000
00000007ffffe000
0000000ffffff000
0000001ffffff800
0000003ffffff800
0000007ff81ffc00
000000ffe007fc00
000001ffc003fe00
000003ff8001fe00
000007ff0001fe00
00000ffe0000ff00
00001ffc0000ff00
00003ff80000ff00
00007ff00000ff00
0000ffe00000ff00
0001ffc00000ff00
0003ff800001fe00
0007ff000001fe00
000ffe000003fe00
001ffc000007fc00
003ff800000ffc00
00fff000001ff800
01ffe080003ff800
03ffc1c0007ff000
03ff83e000ffe000
07ff07f001ffc000
0ffe0ff803ff8000
1ffc1ffc07ff0000
1ff83ffc0ffe0000
3ff07ff81ffc0000
3fe07ff03ff80000
7fc0ffe07ff00000
7fc1ffc0ffe00000
7f81ff81ffc00000
7f81ff03ff800000
ff03fe07ff000000
ff03fc0ffe000000
ff03fc1ffc000000
ff03fe3ff8000000
ff01fffff0400000
ff01ffffe0e00000
ff00ffffc1f00000
ff00ffff83f80000
7f807ffe07fc0000
7f803ffc0ffe0000
7f800ff81ffe0000
7fc003c03ffc0000
3fe000007ff80000
3fe00000fff00000
1ff00000ffe00000
1ffc0003ffc00000
0ffe0007ff800000
07ffc03fff000000
03fffffffe000000
03fffffffc000000
00fffffff0000000
007fffffe0000000
003fffffc0000000
000fffff00000000
0003fffc00000000
00003fc000000000
ENDCHAR
STARTCHAR /home/kraus/git/open-iconic/png/puzzle-piece-8x.png
ENCODING 70
DWIDTH 64 0
BBX 64 64 0 0
BITMAP
000007e000000000
00001ff800000000
00003ffc00000000
00007ffe00000000
00007ffe00000000
0000ffff00000000
0000ffff00000000
0000ffff00000000
0000ffff00000000
0000ffff00000000
00007ffe00000000
00007ffe00000000
00003ffc00000000
00003ffc00000000
00003ffc00000000
00003ffc00000000
ffffffffffff0000
ffffffffffff0000
ffffffffffff0000
ffffffffffff0000
ffffffffffff0000
ffffffffffff0000
ffffffffffff0000
ffffffffffff0000
ffffffffffff0000
ffffffffffff0000
ffffffffffff0000
ffffffffffff0000
ffffffffffff0000
ffffffffffff0000
ffffffffffff0000
ffffffffffff0000
ffffffffffff03e0
ffffffffffff0ff8
fffffffffffffffc
fffffffffffffffe
fffffffffffffffe
ffffffffffffffff
ffffffffffffffff
ffffffffffffffff
ffffffffffffffff
ffffffffffffffff
ffffffffffffffff
fffffffffffffffe
fffffffffffffffe
fffffffffffffffc
ffffffffffff0ff8
ffffffffffff03e0
fffff81fffff0000
ffffe007ffff0000
ffffc003ffff0000
ffff8001ffff0000
ffff8001ffff0000
ffff0000ffff0000
ffff0000ffff0000
ffff0000ffff0000
ffff0000ffff0000
ffff0000ffff0000
ffff8001ffff0000
ffff8001ffff0000
ffffc003ffff0000
ffffc003ffff0000
ffffc003ffff0000
ffffc003ffff0000
ENDCHAR
STARTCHAR /home/kraus/git/open-iconic/png/brush-8x.png
ENCODING 71
DWIDTH 64 0
BBX 64 64 0 0
BITMAP
0000000000000010
0000000000000038
00000000000000fc
00000000000001fe
00000000000007ff
0000000000000ffe
0000000000001ffc
0000000000007ffc
000000000000fff8
000000000003fff0
000000000007fff0
00000000001fffe0
00000000003fffc0
00000000007fff80
0000000001ffff80
0000000003ffff00
000000000ffffe00
000000001ffffe00
000000003ffffc00
00000000fffff800
00000001fffff000
00000007fffff000
0000000fffffe000
0000000fffffc000
0000001fffffc000
0000000fffff8000
00000003ffff0000
00000000ffff0000
000000007ffe0000
000000003ffc0000
000000001ff80000
000000000ff80000
00003f8007f00000
0000ffe007e00000
0001fff003e00000
0003fff803c00000
0007fffc01000000
000ffffe00000000
000ffffe00000000
001fffff00000000
001fffff00000000
001fffff00000000
001fffff00000000
001fffff00000000
001fffff00000000
001fffff00000000
003fffff00000000
003ffffe00000000
003ffffe00000000
003ffffe00000000
007ffffe00000000
007ffffc00000000
00fffffc00000000
00fffff800000000
01fffff000000000
03fffff000000000
03ffffe000000000
07ffffc000000000
0fffff8000000000
1fffff0000000000
7ffffc0000000000
7ffff80000000000
1fffc00000000000
01fe000000000000
ENDCHAR
STARTCHAR /home/kraus/git/open-iconic/png/droplet-8x.png
ENCODING 72
DWIDTH 64 0
BBX 64 64 0 0
BITMAP
0000000000000000
0000000380000000
00000007c0000000
00000007e0000000
0000000ff0000000
0000001ff8000000
0000003ffc000000
0000007ffe000000
000000ffff000000
000001ffff800000
000003ffffc00000
000003ffffc00000
000007ffffe00000
00000ffffff00000
00001ffffff80000
00001ffffff80000
00003ffffffc0000
00007ffffffe0000
00007ffffffe0000
0000ffffffff0000
0001ffffffff8000
0001ffffffff8000
0003ffffffffc000
0003ffffffffc000
0007ffffffffe000
0007ffffffffe000
000ffffffffff000
000ffffffffff000
001ffffffffff800
001ffffffffff800
003ffffffffffc00
003ffffffffffc00
003ffffffffffc00
007ffffffffffe00
007ffffffffffe00
007ffffffffffe00
007ffffffffffe00
00ffffffffffff00
00ffc3ffffffff00
00ff81ffffffff00
00ff00ffffffff00
00ff00ffffffff00
00ff00ffffffff00
00ff00ffffffff00
00ff007fffffff00
00ff007fffffff00
00ff803ffffffe00
007f803ffffffe00
007fc00ffffffe00
007fc003fffffe00
003fe0003ffffc00
003fe0001ffffc00
001ff0000ffff800
001ff8000ffff800
000ffc000ffff000
000fff000ffff000
0007ffc01fffe000
0003fff87fffc000
0001ffffffff8000
0000ffffffff0000
00007ffffffe0000
00003ffffffc0000
00000ffffff00000
000003ffffc00000
ENDCHAR
STARTCHAR /home/kraus/git/open-iconic/png/laptop-8x.png
ENCODING 73
DWIDTH 64 0
BBX 64 64 0 0
BITMAP
0000000000000000
0000000000000000
0000000000000000
0000000000000000
0000000000000000
0000000000000000
0000000000000000
0000000000000000
003ffffffffffc00
007ffffffffffe00
00ffffffffffff00
00ffffffffffff00
00ffffffffffff00
00ffffffffffff00
00ffffffffffff00
00ffffffffffff00
00ff00000000ff00
00ff00000000ff00
00ff00000000ff00
00ff00000000ff00
00ff00000000ff00
00ff00000000ff00
00ff00000000ff00
00ff00000000ff00
00ff00000000ff00
00ff00000000ff00
00ff00000000ff00
00ff00000000ff00
00ff00000000ff00
00ff00000000ff00
00ff00000000ff00
00ff00000000ff00
00ff00000000ff00
00ff00000000ff00
00ff00000000ff00
00ff00000000ff00
00ff00000000ff00
00ff00000000ff00
00ff00000000ff00
00ff00000000ff00
ffffff0000ffffff
ffffff0000ffffff
ffffff0000ffffff
ffffff0000ffffff
ffffff0000ffffff
ffffff0000ffffff
ffffff0000ffffff
ffffff0000ffffff
ffffffffffffffff
ffffffffffffffff
ffffffffffffffff
ffffffffffffffff
ffffffffffffffff
ffffffffffffffff
7ffffffffffffffe
3ffffffffffffffc
0000000000000000
0000000000000000
0000000000000000
0000000000000000
0000000000000000
0000000000000000
0000000000000000
0000000000000000
ENDCHAR
STARTCHAR /home/kraus/git/open-iconic/png/magnifying-glass-8x.png
ENCODING 74
DWIDTH 64 0
BBX 64 64 0 0
BITMAP
000001ffc0000000
00001ffff8000000
0000ffffff000000
0003ffffffc00000
0007ffffffe00000
001ffffffff80000
003ffffffffc0000
007ffffffffe0000
00ffff00ffff0000
01fff0000fff8000
03ffc00003ffc000
07ff800001ffe000
07fe0000007fe000
0ffc0000003ff000
1ff80000001ff800
1ff00000000ff800
3ff00000000ffc00
3fe000000007fc00
3fc000000003fc00
7fc000000003fe00
7f8000000001fe00
7f8000000001fe00
7f8000000001ff00
ff0000000001ff00
ff0000000000ff00
ff0000000000ff00
ff0000000000ff00
ff0000000000ff00
ff0000000000ff00
ff0000000000ff00
ff0000000000ff00
ff0000000000ff00
ff0000000000ff00
7f8000000001fe00
7f8000000001fe00
7f8000000001fe00
7fc000000003fe00
3fc000000003fc00
3fe000000007fc00
3fe000000007f800
1ff00000000ff800
1ff80000001ff800
0ffc0000003ffc00
07fe0000007ffe00
07ff000000ffff00
03ffc00003ffff80
01fff0000fffffc0
00fffe007fffffe0
007ffffffffffff0
003ffffffffffff8
001ffffffffffffc
0007fffffffffffe
0003ffffffffffff
00007fffff3fffff
00001ffff81fffff
000001ff800fffff
000000000007ffff
000000000003ffff
000000000001ffff
000000000000ffff
0000000000007ffe
0000000000003ffe
0000000000001ffc
00000000000007f0
ENDCHAR
STARTCHAR /home/kraus/git/open-iconic/png/phone-8x.png
ENCODING 75
DWIDTH 64 0
BBX 64 64 0 0
BITMAP
00ffffffffff0000
00ffffffffff0000
00ffffffffff0000
00ffffffffff0000
00ffffffffff0000
00ffffffffff0000
00ffffffffff0000
00ffffffffff0000
00ff000000ff0000
00ff000000ff0000
00ff000000ff0000
00ff000000ff0000
00ff000000ff0000
00ff000000ff0000
00ff000000ff0000
00ff000000ff0000
00ff000000ff0000
00ff000000ff0000
00ff000000ff0000
00ff000000ff0000
00ff000000ff0000
00ff000000ff0000
00ff000000ff0000
00ff000000ff0000
00ff000000ff0000
00ff000000ff0000
00ff000000ff0000
00ff000000ff0000
00ff000000ff0000
00ff000000ff0000
00ff000000ff0000
00ff000000ff0000
00ff000000ff0000
00ff000000ff0000
00ff000000ff0000
00ff000000ff0000
00ff000000ff0000
00ff000000ff0000
00ff000000ff0000
00ff000000ff0000
00ff000000ff0000
00ff000000ff0000
00ff000000ff0000
00ff000000ff0000
00ff000000ff0000
00ff000000ff0000
00ff000000ff0000
00ff000000ff0000
00ffffffffff0000
00ffffffffff0000
00ffffffffff0000
00ffffffffff0000
00ffffc3ffff0000
00ffff81ffff0000
00ffff00ffff0000
00ffff00ffff0000
00ffff00ffff0000
00ffff00ffff0000
00ffff81ffff0000
00ffffc3ffff0000
00ffffffffff0000
00ffffffffff0000
00ffffffffff0000
00ffffffffff0000
ENDCHAR
STARTCHAR /home/kraus/git/open-iconic/png/signpost-8x.png
ENCODING 76
DWIDTH 64 0
BBX 64 64 0 0
BITMAP
000000ff00000000
000000ff00000000
000000ff00000000
000000ff00000000
000000ff00000000
000000ff00000000
000000ff00000000
000000ff00000000
00ffffff00000000
01ffffff00000000
03ffffff00000000
07ffffff00000000
0fffffff00000000
1fffffff00000000
3fffffff00000000
7fffffff00000000
7fffffffffff0000
3fffffffffff8000
1fffffffffffc000
0fffffffffffe000
07fffffffffff000
03fffffffffff800
01fffffffffffc00
00fffffffffffe00
000000fffffffe00
000000fffffffc00
000000fffffff800
000000fffffff000
000000ffffffe000
000000ffffffc000
000000ffffff8000
000000ffffff0000
000000ff00000000
000000ff00000000
000000ff00000000
000000ff00000000
000000ff00000000
000000ff00000000
000000ff00000000
000000ff00000000
000000ff00000000
000000ff00000000
000000ff00000000
000000ff00000000
000000ff00000000
000000ff00000000
000000ff00000000
000000ff00000000
000000ff00000000
000000ff00000000
000000ff00000000
000000ff00000000
000000ff00000000
000000ff00000000
000000ff00000000
000000ff00000000
000000ff00000000
000000ff00000000
000000ff00000000
000000ff00000000
000000ff00000000
000000ff00000000
000000ff00000000
000000ff00000000
ENDCHAR
STARTCHAR /home/kraus/git/open-iconic/png/bug-8x.png
ENCODING 77
DWIDTH 64 0
BBX 64 64 0 0
BITMAP
0000007e00000000
000001ff80000000
000007ffe0000000
00000ffff0000000
00001ffff8000000
00001ffffc000000
00003ffffc000000
00007ffffe000000
00007ffffe000000
00007fffff000000
0000ffffff000000
0000ffffff000000
0000ffffff000000
0000ffffff000000
0000ffffff000000
0000ffffff000000
3c00ffffff003c00
7f007ffffe00fe00
ffc07ffffe03ff00
fff03ffffc0fff00
fffc3ffffc3fff00
ffffffffffffff00
7ffffffffffffe00
3ffffffffffffc00
0ffffffffffff000
03ffffffffffc000
007ffffffffe0000
001ffffffff80000
001ffffffff80000
001ffffffff80000
003ffffffffc0000
003ffffffffc0000
3fffffc3fffffc00
7fffff81fffffe00
ffffff00ffffff00
ffffff00ffffff00
ffffff00ffffff00
ffffff00ffffff00
7fffff00fffffe00
3fffff00fffffc00
00ffff00ffff0000
00ffff00ffff0000
00ffff00ffff0000
00ffff00ffff0000
00ffff00ffff0000
00ffff00ffff0000
03ffff00ffffc000
0fffff00fffff000
3fffff00fffffc00
7fffff00ffffff00
ffffff00ffffff00
ffffff00ffffff80
ffffff00ffffff80
ffdfff00fffbff80
ff0fff00fff0ff00
7c07ff00ffe03e00
0003ff00ffe00000
0003ff007fc00000
0001fe007f800000
0000fc003f000000
000038001c000000
0000000000000000
0000000000000000
0000000000000000
ENDCHAR
STARTCHAR /home/kraus/git/open-iconic/png/fire-8x.png
ENCODING 78
DWIDTH 64 0
BBX 64 64 0 0
BITMAP
0000000000000000
0000400000000000
0000700000000000
0000780000000000
00007c0000000000
00003e0000000000
00003f0000000000
00003f8000000000
00007fc000000000
00007fe000000000
00007ff000000000
00007ff000000000
0000fff800000000
0000fff800000000
0001fffc00000000
0003fffc00000000
0003fffe00000000
0007fffe00000000
000ffffe00000000
001fffff00000000
001fffff00000000
003fffff00000000
007fffff00000000
00ffffff00000000
01ffffff00000000
03ffffff00400000
03ffffff00700000
07ffffff00780000
0ffffffe007c0000
1ffffffe003e0000
1ffffffe003f0000
3ffffffc003f8000
3ffffffc007fc000
7ffffff8007fe000
7ffffff8007ff000
7ffffff0007ff000
ffffffe000fff800
ffffffc000fff800
ffffffc001fffc00
ffffff8003fffc00
ffffff0003fffe00
fffffe0007fffe00
fffffc000ffffe00
fffffc001fffff00
fffff8001fffff00
7ffff0003fffff00
7fffe0007fffff00
7fffc000ffffff00
3fffc001ffffff00
3fff8003ffffff00
1fff0003ffffff00
1fff0007ffffff00
0fff000fffffff00
0ffe001fffffff00
07fe001ffffffe00
03fe003ffffffe00
01fe003ffffffe00
00fc007ffffffe00
007c007ffffffc00
003e007ffffffc00
001e00fffffff800
000e00fffffff000
000200ffffffe000
000100ffffffc000
ENDCHAR
STARTCHAR /home/kraus/git/open-iconic/png/lock-locked-8x.png
ENCODING 79
DWIDTH 64 0
BBX 64 64 0 0
BITMAP
0000000ff0000000
0000007ffe000000
000001ffff800000
000003ffffc00000
000007ffffe00000
00000ffffff00000
00001ffffff80000
00003ffffffc0000
00003ff81ffc0000
00007fe007fe0000
00007fc003fe0000
00007f8001fe0000
0000ff8001ff0000
0000ff0000ff0000
0000ff0000ff0000
0000ff0000ff0000
0000ff0000ff0000
0000ff0000ff0000
0000ff0000ff0000
0000ff0000ff0000
0000ff0000ff0000
0000ff0000ff0000
0000ff0000ff0000
0000ff0000ff0000
00ffffffffffff00
00ffffffffffff00
00ffffffffffff00
00ffffffffffff00
00ffffffffffff00
00ffffffffffff00
00ffffffffffff00
00ffffffffffff00
00ffffffffffff00
00ffffffffffff00
00ffffffffffff00
00ffffffffffff00
00ffffffffffff00
00ffffffffffff00
00ffffffffffff00
00ffffffffffff00
00ffffffffffff00
00ffffffffffff00
00ffffffffffff00
00ffffffffffff00
00ffffffffffff00
00ffffffffffff00
00ffffffffffff00
00ffffffffffff00
00ffffffffffff00
00ffffffffffff00
00ffffffffffff00
00ffffffffffff00
00ffffffffffff00
00ffffffffffff00
00ffffffffffff00
00ffffffffffff00
0000000000000000
0000000000000000
0000000000000000
0000000000000000
0000000000000000
0000000000000000
0000000000000000
0000000000000000
ENDCHAR
STARTCHAR /home/kraus/git/open-iconic/png/monitor-8x.png
ENCODING 80
DWIDTH 64 0
BBX 64 64 0 0
BITMAP
3ffffffffffffffc
7ffffffffffffffe
ffffffffffffffff
ffffffffffffffff
ffffffffffffffff
ffffffffffffffff
ffffffffffffffff
ffffffffffffffff
ff000000000000ff
ff000000000000ff
ff000000000000ff
ff000000000000ff
ff000000000000ff
ff000000000000ff
ff000000000000ff
ff000000000000ff
ff000000000000ff
ff000000000000ff
ff000000000000ff
ff000000000000ff
ff000000000000ff
ff000000000000ff
ff000000000000ff
ff000000000000ff
ff000000000000ff
ff000000000000ff
ff000000000000ff
ff000000000000ff
ff000000000000ff
ff000000000000ff
ff000000000000ff
ff000000000000ff
ff000000000000ff
ff000000000000ff
ff000000000000ff
ff000000000000ff
ff000000000000ff
ff000000000000ff
ff000000000000ff
ff000000000000ff
ffffffffffffffff
ffffffffffffffff
ffffffffffffffff
ffffffffffffffff
ffffffffffffffff
ffffffffffffffff
7ffffffffffffffe
3ffffffffffffffc
000000ffff000000
000000ffff000000
000000ffff000000
000000ffff000000
000000ffff000000
000000ffff000000
000000ffff000000
000000ffff000000
0007ffffffffe000
001ffffffffff800
003ffffffffffc00
007ffffffffffe00
007ffffffffffe00
00ffffffffffff00
00ffffffffffff00
00ffffffffffff00
ENDCHAR
STARTCHAR /home/kraus/git/open-iconic/png/pin-8x.png
ENCODING 81
DWIDTH 64 0
BBX 64 64 0 0
BITMAP
007ffffffffc0000
00fffffffffe0000
00ffffffffff0000
01ffffffffff0000
01ffffffffff0000
00ffffffffff0000
00fffffffffe0000
007ffffffffc0000
0000ffffff000000
0000ffffff000000
0000ffffff000000
0000ffffff000000
0000ffffff000000
0000ffffff000000
0000ffffff000000
0000ffffff000000
0000ffffff000000
0000ffffff000000
0000ffffff000000
0000ffffff000000
0000ffffff000000
0000ffffff000000
0000ffffff000000
0000ffffff000000
07ffffffffffe000
1ffffffffffff800
3ffffffffffffc00
7ffffffffffffe00
7ffffffffffffe00
ffffffffffffff00
ffffffffffffff00
ffffffffffffff00
000000ff00000000
000000ff00000000
000000ff00000000
000000ff00000000
000000ff00000000
000000ff00000000
000000ff00000000
000000ff00000000
000000ff00000000
000000ff00000000
000000ff00000000
000000ff00000000
000000ff00000000
000000ff00000000
000000ff00000000
000000ff00000000
000000ff00000000
000000ff00000000
000000ff00000000
000000ff00000000
000000ff00000000
000000ff00000000
000000ff00000000
000000ff00000000
000000ff00000000
0000007e00000000
0000007e00000000
0000003c00000000
0000003800000000
0000003800000000
0000001000000000
0000000000000000
ENDCHAR
STARTCHAR /home/kraus/git/open-iconic/png/tablet-8x.png
ENCODING 82
DWIDTH 64 0
BBX 64 64 0 0
BITMAP
7ffffffffffffe00
ffffffffffffff00
ffffffffffffff00
ffffffffffffff00
ffffffffffffff00
ffffffffffffff00
ffffffffffffff00
ffffffffffffff00
ff0000000000ff00
ff0000000000ff00
ff0000000000ff00
ff0000000000ff00
ff0000000000ff00
ff0000000000ff00
ff0000000000ff00
ff0000000000ff00
ff0000000000ff00
ff0000000000ff00
ff0000000000ff00
ff0000000000ff00
ff0000000000ff00
ff0000000000ff00
ff0000000000ff00
ff0000000000ff00
ff0000000000ff00
ff0000000000ff00
ff0000000000ff00
ff0000000000ff00
ff0000000000ff00
ff0000000000ff00
ff0000000000ff00
ff0000000000ff00
ff0000000000ff00
ff0000000000ff00
ff0000000000ff00
ff0000000000ff00
ff0000000000ff00
ff0000000000ff00
ff0000000000ff00
ff0000000000ff00
ff0000000000ff00
ff0000000000ff00
ff0000000000ff00
ff0000000000ff00
ff0000000000ff00
ff0000000000ff00
ff0000000000ff00
ff0000000000ff00
ffffffffffffff00
ffffffffffffff00
ffffffffffffff00
ffffffffffffff00
ffffffc3ffffff00
ffffff81ffffff00
ffffff00ffffff00
ffffff00ffffff00
ffffff00ffffff00
ffffff00ffffff00
ffffff81ffffff00
ffffffc3ffffff00
ffffffffffffff00
ffffffffffffff00
fffffffffffffe00
7ffffffffffffc00
ENDCHAR
