STARTFONT 2.1
FONT "open_iconic_thing_6x"
SIZE 16 75 75
FONTBOUNDINGBOX 16 16 0 0
STARTPROPERTIES 3
COPYRIGHT "https://github.com/iconic/open-iconic, SIL OPEN FONT LICENSE"
FONT_ASCENT 0
FONT_DESCENT 0
ENDPROPERTIES
STARTCHAR /home/kraus/git/open-iconic/png/basket-6x.png
ENCODING 64
DWIDTH 48 0
BBX 48 48 0 0
BITMAP
000003c00000
000007e00000
000007e00000
00000ff00000
00001ff80000
00003ffc0000
00007ffe0000
0000ffff0000
0000fe7f0000
0001fc3f8000
0003fc3fc000
0007f81fe000
000ff00ff000
001fe007f800
001fc003f800
003f8001fc00
007f8001fe00
00ff0000ff00
ffffffffffff
ffffffffffff
ffffffffffff
ffffffffffff
ffffffffffff
ffffffffffff
03ffffffffc0
03ffffffffc0
03ffffffffc0
03ffffffffc0
03ffffffffc0
03ffffffffc0
03f87ffe1fc0
03f03ffc0fc0
03f03ffc0fc0
03f03ffc0fc0
03f03ffc0fc0
03f03ffc0fc0
03f03ffc0fc0
03f03ffc0fc0
03f03ffc0fc0
03f03ffc0fc0
03f03ffc0fc0
03f87ffe1fc0
03ffffffffc0
03ffffffffc0
03ffffffffc0
03ffffffffc0
03ffffffffc0
01ffffffff80
ENDCHAR
STARTCHAR /home/kraus/git/open-iconic/png/briefcase-6x.png
ENCODING 65
DWIDTH 48 0
BBX 48 48 0 0
BITMAP
0000ffff0000
0003ffffc000
0007ffffe000
0007ffffe000
000ffffff000
000ffffff000
000fc003f000
000fc003f000
000fc003f000
000fc003f000
000fc003f000
000fc003f000
ffffffffffff
ffffffffffff
ffffffffffff
ffffffffffff
ffffffffffff
ffffffffffff
ffffffffffff
ffffffffffff
ffffffffffff
ffffffffffff
ffffffffffff
ffffffffffff
ffffffffffff
ffffffffffff
ffffffffffff
ffffffffffff
ffffffffffff
7ffffffffffe
000000000000
000000000000
000000000000
000000000000
000000000000
000000000000
ffffffffffff
ffffffffffff
ffffffffffff
ffffffffffff
ffffffffffff
ffffffffffff
ffffffffffff
ffffffffffff
ffffffffffff
ffffffffffff
ffffffffffff
ffffffffffff
ENDCHAR
STARTCHAR /home/kraus/git/open-iconic/png/credit-card-6x.png
ENCODING 66
DWIDTH 48 0
BBX 48 48 0 0
BITMAP
000000000000
000000000000
000000000000
000000000000
000000000000
000000000000
ffffffffffff
ffffffffffff
ffffffffffff
ffffffffffff
ffffffffffff
ffffffffffff
000000000000
000000000000
000000000000
000000000000
000000000000
000000000000
ffffffffffff
ffffffffffff
ffffffffffff
ffffffffffff
ffffffffffff
ffffffffffff
ffffffffffff
ffffffffffff
ffffffffffff
ffffffffffff
ffffffffffff
ffffffffffff
fc0fc0ffffff
fc0fc0ffffff
fc0fc0ffffff
fc0fc0ffffff
fc0fc0ffffff
fc0fc0ffffff
ffffffffffff
ffffffffffff
ffffffffffff
ffffffffffff
ffffffffffff
ffffffffffff
000000000000
000000000000
000000000000
000000000000
000000000000
000000000000
ENDCHAR
STARTCHAR /home/kraus/git/open-iconic/png/key-6x.png
ENCODING 67
DWIDTH 48 0
BBX 48 48 0 0
BITMAP
00000007f800
0000003ffe00
0000007fff80
000001ffffe0
000003fffff0
000007fffff8
000007ffc3f8
00000fff00fc
00001ffe007c
00001ffe007e
00001ffc003e
00003ffc003f
00003ffc003f
00003ffc003f
00003ffe007f
00003ffe007f
00003fff00ff
00003fffc3ff
00007fffffff
0000fffffffe
0001fffffffe
0003fffffffc
0007fffffffc
000ffffffff8
001ffffffff8
003ffffffff0
007fffffffe0
007fffffff80
00fffffffe00
01fffffff800
03fffffc0000
07fffffc0000
0ffffffc0000
1ffffffc0000
3ffffffc0000
7ffffffc0000
ffffc0000000
ffffc0000000
ffffc0000000
ffffc0000000
ffffc0000000
ffffc0000000
ffffc0000000
ffffc0000000
ffffc0000000
ffffc0000000
ffffc0000000
ffffc0000000
ENDCHAR
STARTCHAR /home/kraus/git/open-iconic/png/lock-unlocked-6x.png
ENCODING 68
DWIDTH 48 0
BBX 48 48 0 0
BITMAP
000007e00000
00003ffc0000
00007ffe0000
0000ffff0000
0001ffff8000
0003ffffc000
0007fc3fe000
0007f00fe000
0007e007e000
000fe007f000
000fc003f000
000fc003f000
00000003f000
00000003f000
00000003f000
00000003f000
00000003f000
00000003f000
00000003f000
00000003f000
00000003f000
00000003f000
00000003f000
00000003f000
03ffffffffc0
03ffffffffc0
03ffffffffc0
03ffffffffc0
03ffffffffc0
03ffffffffc0
03ffffffffc0
03ffffffffc0
03ffffffffc0
03ffffffffc0
03ffffffffc0
03ffffffffc0
03ffffffffc0
03ffffffffc0
03ffffffffc0
03ffffffffc0
03ffffffffc0
03ffffffffc0
03ffffffffc0
03ffffffffc0
03ffffffffc0
03ffffffffc0
03ffffffffc0
03ffffffffc0
ENDCHAR
STARTCHAR /home/kraus/git/open-iconic/png/paperclip-6x.png
ENCODING 69
DWIDTH 48 0
BBX 48 48 0 0
BITMAP
0000001f8000
000000fff000
000001fff800
000003fffc00
000007fffe00
00000fffff00
00001fe0ff80
00007fc03f80
0000ff801f80
0001ff000fc0
0003fe000fc0
0007fc000fc0
000ff8000fc0
001ff0000fc0
003fe0001fc0
007fc0001f80
00ff80003f80
01ff00007f80
03fe0000ff00
07fc2001fe00
0ff87003fc00
1ff0f807f800
1fe1fc0ff000
3fc3fc1fe000
3f87f83fc000
7f0ff07f8000
7e0fe0ff0000
7e1fc1fe0000
fc1f83fc0000
fc1f87f80000
fc1f8ff00000
fc1fffe00000
fc1fffc30000
fc0fff878000
fc0fff0fc000
7e07fe1fe000
7e01f83fe000
7f00007fc000
3f8000ff8000
3f8001ff0000
1fe003fe0000
1ff80ffc0000
0ffffff80000
07fffff00000
03ffffe00000
00ffff800000
003ffe000000
0007f0000000
ENDCHAR
STARTCHAR /home/kraus/git/open-iconic/png/puzzle-piece-6x.png
ENCODING 70
DWIDTH 48 0
BBX 48 48 0 0
BITMAP
0001f8000000
0003fc000000
0007fe000000
000ffe000000
000fff000000
000fff000000
000fff000000
000fff000000
0007fe000000
0007fe000000
0003fc000000
0003fc000000
fffffffff000
fffffffff000
fffffffff000
fffffffff000
fffffffff000
fffffffff000
fffffffff000
fffffffff000
fffffffff000
fffffffff000
fffffffff000
fffffffff000
fffffffff0f8
fffffffff3fc
fffffffffffe
fffffffffffe
ffffffffffff
ffffffffffff
ffffffffffff
ffffffffffff
fffffffffffe
fffffffffffe
fffffffff3fc
fffffffff0f0
fffe07fff000
fffc03fff000
fff801fff000
fff000fff000
fff000fff000
fff000fff000
fff000fff000
fff000fff000
fff801fff000
fff801fff000
fffc03fff000
fffc03fff000
ENDCHAR
STARTCHAR /home/kraus/git/open-iconic/png/brush-6x.png
ENCODING 71
DWIDTH 48 0
BBX 48 48 0 0
BITMAP
000000000008
00000000001c
00000000007e
0000000000ff
0000000003fe
0000000007fc
000000000ffc
000000003ff8
000000007ff0
00000001fff0
00000003ffe0
00000007ffc0
0000001fff80
0000003fff80
000000ffff00
000001fffe00
000003fffe00
000007fffc00
00000ffff800
000003fff000
000000fff000
0000007fe000
0000003fc000
0000001fc000
0007e00f8000
001ff80f0000
003ffc060000
007ffe040000
007ffe000000
007fff000000
00ffff000000
00ffff000000
00ffff000000
00ffff000000
00ffff000000
00ffff000000
01fffe000000
01fffe000000
01fffe000000
03fffc000000
03fffc000000
07fff8000000
0ffff0000000
1fffe0000000
3fffc0000000
7fff80000000
7ffe00000000
0ff000000000
ENDCHAR
STARTCHAR /home/kraus/git/open-iconic/png/droplet-6x.png
ENCODING 72
DWIDTH 48 0
BBX 48 48 0 0
BITMAP
000000000000
000003800000
000003c00000
000007e00000
00000ff00000
00001ff80000
00003ffc0000
00007ffe0000
0000ffff0000
0000ffff0000
0001ffff8000
0003ffffc000
0007ffffe000
0007ffffe000
000ffffff000
001ffffff800
001ffffff800
003ffffffc00
003ffffffc00
007ffffffe00
007ffffffe00
00ffffffff00
00ffffffff00
00ffffffff00
01ffffffff80
01ffffffff80
01ffffffff80
03ffffffffc0
03fcffffffc0
03f87fffffc0
03f03fffffc0
03f03fffffc0
03f03fffffc0
03f03fffffc0
03f01fffffc0
01f80fffff80
01f807ffff80
01fc007fff80
00fc003fff00
00fe001fff00
007f001ffe00
007fc01ffe00
003ff03ffc00
001ffffff800
000ffffff000
0007ffffe000
0003ffffc000
0000ffff0000
ENDCHAR
STARTCHAR /home/kraus/git/open-iconic/png/laptop-6x.png
ENCODING 73
DWIDTH 48 0
BBX 48 48 0 0
BITMAP
000000000000
000000000000
000000000000
000000000000
000000000000
000000000000
01ffffffff80
03ffffffffc0
03ffffffffc0
03ffffffffc0
03ffffffffc0
03ffffffffc0
03f000000fc0
03f000000fc0
03f000000fc0
03f000000fc0
03f000000fc0
03f000000fc0
03f000000fc0
03f000000fc0
03f000000fc0
03f000000fc0
03f000000fc0
03f000000fc0
03f000000fc0
03f000000fc0
03f000000fc0
03f000000fc0
03f000000fc0
03f000000fc0
ffffc003ffff
ffffc003ffff
ffffc003ffff
ffffc003ffff
ffffc003ffff
ffffc003ffff
ffffffffffff
ffffffffffff
ffffffffffff
ffffffffffff
ffffffffffff
7ffffffffffe
000000000000
000000000000
000000000000
000000000000
000000000000
000000000000
ENDCHAR
STARTCHAR /home/kraus/git/open-iconic/png/magnifying-glass-6x.png
ENCODING 74
DWIDTH 48 0
BBX 48 48 0 0
BITMAP
0000ffc00000
0007fff80000
001ffffe0000
007fffff8000
00ffffffc000
01ffffffe000
03ff807ff000
07fc000ff800
0ff80007fc00
1fe00001fe00
1fc00000fe00
3f8000007f00
3f8000007f00
7f0000003f80
7e0000001f80
7e0000001f80
fe0000001fc0
fc0000000fc0
fc0000000fc0
fc0000000fc0
fc0000000fc0
fc0000000fc0
fc0000000fc0
fc0000000fc0
fc0000000fc0
7e0000001f80
7e0000001f80
7e0000001f80
7f0000003f80
3f8000007f00
3f8000007f00
1fc00000ff00
1fe00001ff80
0ff80007ffc0
07fc000fffe0
03ff807ffff0
01fffffffff8
00fffffffffc
007ffffffffe
001fffffffff
0007fff8ffff
00007fc07fff
000000003fff
000000001fff
000000000fff
0000000007fe
0000000003fe
0000000001f8
ENDCHAR
STARTCHAR /home/kraus/git/open-iconic/png/phone-6x.png
ENCODING 75
DWIDTH 48 0
BBX 48 48 0 0
BITMAP
03fffffff000
03fffffff000
03fffffff000
03fffffff000
03fffffff000
03fffffff000
03f00003f000
03f00003f000
03f00003f000
03f00003f000
03f00003f000
03f00003f000
03f00003f000
03f00003f000
03f00003f000
03f00003f000
03f00003f000
03f00003f000
03f00003f000
03f00003f000
03f00003f000
03f00003f000
03f00003f000
03f00003f000
03f00003f000
03f00003f000
03f00003f000
03f00003f000
03f00003f000
03f00003f000
03f00003f000
03f00003f000
03f00003f000
03f00003f000
03f00003f000
03f00003f000
03fffffff000
03fffffff000
03fffffff000
03ffe1fff000
03ffc0fff000
03ffc0fff000
03ffc0fff000
03ffc0fff000
03ffe1fff000
03fffffff000
03fffffff000
03fffffff000
ENDCHAR
STARTCHAR /home/kraus/git/open-iconic/png/signpost-6x.png
ENCODING 76
DWIDTH 48 0
BBX 48 48 0 0
BITMAP
00003f000000
00003f000000
00003f000000
00003f000000
00003f000000
00003f000000
03ffff000000
07ffff000000
0fffff000000
1fffff000000
3fffff000000
7fffff000000
7ffffffff000
3ffffffff800
1ffffffffc00
0ffffffffe00
07ffffffff00
03ffffffff80
00003fffff80
00003fffff00
00003ffffe00
00003ffffc00
00003ffff800
00003ffff000
00003f000000
00003f000000
00003f000000
00003f000000
00003f000000
00003f000000
00003f000000
00003f000000
00003f000000
00003f000000
00003f000000
00003f000000
00003f000000
00003f000000
00003f000000
00003f000000
00003f000000
00003f000000
00003f000000
00003f000000
00003f000000
00003f000000
00003f000000
00003f000000
ENDCHAR
STARTCHAR /home/kraus/git/open-iconic/png/bug-6x.png
ENCODING 77
DWIDTH 48 0
BBX 48 48 0 0
BITMAP
00003f000000
0000ffc00000
0001ffe00000
0003fff00000
0003fff00000
0007fff80000
0007fff80000
000ffffc0000
000ffffc0000
000ffffc0000
000ffffc0000
000ffffc0000
780ffffc0780
fe07fff81fc0
ff87fff87fc0
ffe7fff9ffc0
ffffffffffc0
3fffffffff00
0ffffffffc00
03fffffff000
00ffffffc000
00ffffffc000
00ffffffc000
01ffffffe000
7fffe1ffff80
ffffc0ffffc0
ffffc0ffffc0
ffffc0ffffc0
ffffc0ffffc0
7fffc0ffff80
03ffc0fff000
03ffc0fff000
03ffc0fff000
03ffc0fff000
07ffc0fff800
1fffc0fffe00
7fffc0ffff80
ffffc0ffffc0
ffffc0ffffc0
ffffc0ffffc0
fe7fc0ff8fc0
787fc0ff8780
003fc0ff0000
001fc07e0000
000f807c0000
000700180000
000000000000
000000000000
ENDCHAR
STARTCHAR /home/kraus/git/open-iconic/png/fire-6x.png
ENCODING 78
DWIDTH 48 0
BBX 48 48 0 0
BITMAP
000800000000
000400000000
000700000000
000780000000
0007c0000000
0007e0000000
0007f0000000
0007f8000000
000ff8000000
000ffc000000
001ffc000000
001ffe000000
003ffe000000
007ffe000000
007fff000000
00ffff000000
01ffff000000
03ffff000000
07ffff020000
07ffff010000
0fffff01c000
1ffffe01e000
3ffffe01f000
3ffffe01f800
7ffffc01fc00
7ffffc01fe00
7ffff803fe00
fffff003ff00
fffff007ff00
ffffe007ff80
ffffc00fff80
ffff801fff80
ffff001fffc0
fffe003fffc0
7ffe007fffc0
7ffc00ffffc0
7ff801ffffc0
3ff801ffffc0
3ff003ffffc0
1ff007ffffc0
1fe00fffffc0
0fe00fffff80
07e01fffff80
03e01fffff80
01e01fffff00
00e03fffff00
00203ffffe00
00103ffffc00
ENDCHAR
STARTCHAR /home/kraus/git/open-iconic/png/lock-locked-6x.png
ENCODING 79
DWIDTH 48 0
BBX 48 48 0 0
BITMAP
000007e00000
00003ffc0000
00007ffe0000
0000ffff0000
0001ffff8000
0003ffffc000
0007fc3fe000
0007f00fe000
0007e007e000
000fe007f000
000fc003f000
000fc003f000
000fc003f000
000fc003f000
000fc003f000
000fc003f000
000fc003f000
000fc003f000
03ffffffffc0
03ffffffffc0
03ffffffffc0
03ffffffffc0
03ffffffffc0
03ffffffffc0
03ffffffffc0
03ffffffffc0
03ffffffffc0
03ffffffffc0
03ffffffffc0
03ffffffffc0
03ffffffffc0
03ffffffffc0
03ffffffffc0
03ffffffffc0
03ffffffffc0
03ffffffffc0
03ffffffffc0
03ffffffffc0
03ffffffffc0
03ffffffffc0
03ffffffffc0
03ffffffffc0
000000000000
000000000000
000000000000
000000000000
000000000000
000000000000
ENDCHAR
STARTCHAR /home/kraus/git/open-iconic/png/monitor-6x.png
ENCODING 80
DWIDTH 48 0
BBX 48 48 0 0
BITMAP
7ffffffffffe
ffffffffffff
ffffffffffff
ffffffffffff
ffffffffffff
ffffffffffff
fc000000003f
fc000000003f
fc000000003f
fc000000003f
fc000000003f
fc000000003f
fc000000003f
fc000000003f
fc000000003f
fc000000003f
fc000000003f
fc000000003f
fc000000003f
fc000000003f
fc000000003f
fc000000003f
fc000000003f
fc000000003f
fc000000003f
fc000000003f
fc000000003f
fc000000003f
fc000000003f
fc000000003f
ffffffffffff
ffffffffffff
ffffffffffff
ffffffffffff
ffffffffffff
7ffffffffffe
00003ffc0000
00003ffc0000
00003ffc0000
00003ffc0000
00003ffc0000
00003ffc0000
003ffffffc00
00ffffffff00
01ffffffff80
01ffffffff80
03ffffffffc0
03ffffffffc0
ENDCHAR
STARTCHAR /home/kraus/git/open-iconic/png/pin-6x.png
ENCODING 81
DWIDTH 48 0
BBX 48 48 0 0
BITMAP
01ffffffe000
03fffffff000
03fffffff000
03fffffff000
03fffffff000
01ffffffe000
000ffffc0000
000ffffc0000
000ffffc0000
000ffffc0000
000ffffc0000
000ffffc0000
000ffffc0000
000ffffc0000
000ffffc0000
000ffffc0000
000ffffc0000
000ffffc0000
0ffffffffc00
3fffffffff00
7fffffffff80
7fffffffff80
ffffffffffc0
ffffffffffc0
00003f000000
00003f000000
00003f000000
00003f000000
00003f000000
00003f000000
00003f000000
00003f000000
00003f000000
00003f000000
00003f000000
00003f000000
00003f000000
00003f000000
00003f000000
00003f000000
00003f000000
00003f000000
00003f000000
00001e000000
00001e000000
00000c000000
000008000000
000000000000
ENDCHAR
STARTCHAR /home/kraus/git/open-iconic/png/tablet-6x.png
ENCODING 82
DWIDTH 48 0
BBX 48 48 0 0
BITMAP
7fffffffff80
ffffffffffc0
ffffffffffc0
ffffffffffc0
ffffffffffc0
ffffffffffc0
fc0000000fc0
fc0000000fc0
fc0000000fc0
fc0000000fc0
fc0000000fc0
fc0000000fc0
fc0000000fc0
fc0000000fc0
fc0000000fc0
fc0000000fc0
fc0000000fc0
fc0000000fc0
fc0000000fc0
fc0000000fc0
fc0000000fc0
fc0000000fc0
fc0000000fc0
fc0000000fc0
fc0000000fc0
fc0000000fc0
fc0000000fc0
fc0000000fc0
fc0000000fc0
fc0000000fc0
fc0000000fc0
fc0000000fc0
fc0000000fc0
fc0000000fc0
fc0000000fc0
fc0000000fc0
ffffffffffc0
ffffffffffc0
ffffffffffc0
ffffe1ffffc0
ffffc0ffffc0
ffffc0ffffc0
ffffc0ffffc0
ffffc0ffffc0
ffffe1ffffc0
ffffffffffc0
ffffffffffc0
7fffffffff80
ENDCHAR
