STARTFONT 2.1
FONT "open_iconic_other_6x"
SIZE 16 75 75
FONTBOUNDINGBOX 16 16 0 0
STARTPROPERTIES 3
COPYRIGHT "https://github.com/iconic/open-iconic, SIL OPEN FONT LICENSE"
FONT_ASCENT 0
FONT_DESCENT 0
ENDPROPERTIES
STARTCHAR /home/kraus/git/open-iconic/png/bolt-6x.png
ENCODING 64
DWIDTH 48 0
BBX 48 48 0 0
BITMAP
000000000000
000001000000
000001000000
000003000000
000007000000
000007000000
00000f000000
00000f000000
00001f000000
00003f000000
00003f000000
00007f000000
00007f000000
0000ff000000
0001ff000000
0001ff000000
0003ff000000
0003ff000000
0007fffff000
000fffffe000
000fffffc000
001fffffc000
001fffff8000
003fffff8000
007fffff0000
007ffffe0000
00fffffe0000
00fffffc0000
01fffffc0000
03fffff80000
00003ff00000
00003ff00000
00003fe00000
00003fe00000
00003fc00000
00003f800000
00003f800000
00003f000000
00003f000000
00003e000000
00003c000000
00003c000000
000038000000
000038000000
000030000000
000020000000
000020000000
000000000000
ENDCHAR
STARTCHAR /home/kraus/git/open-iconic/png/dial-6x.png
ENCODING 65
DWIDTH 48 0
BBX 48 48 0 0
BITMAP
000000000000
000000000000
000000000000
000000000000
000000000000
000000000000
00001ff80000
0000ffff0000
0007ffffe000
000ffffff000
003ffffffc00
007ffffffe00
00fff00fff00
01ff8001ff80
03fe00007fc0
07f800001fe0
0ff000000ff0
0fe0000007f0
1fc0000003f8
3f80381c01fc
3f807c3e01fc
3f00fc3f00fc
7f01fe7f80fe
7e03ffffc07e
7e07ffffe07e
fe07ffffe07f
fc07ffffe03f
fc0ffffff03f
fc0ffffff03f
fc0ffffff03f
000ffffff000
000ffffff000
000ffffff000
0007ffffe000
0007ffffe000
0007ffffe000
0003ffffc000
0001ffff8000
0000ffff0000
00007ffe0000
00003ffc0000
000007e00000
000000000000
000000000000
000000000000
000000000000
000000000000
000000000000
ENDCHAR
STARTCHAR /home/kraus/git/open-iconic/png/fork-6x.png
ENCODING 66
DWIDTH 48 0
BBX 48 48 0 0
BITMAP
03f00003f000
0ffc000ffc00
1ffe001ffe00
3fff003fff00
7fff807fff80
7fff807fff80
ffffc0ffffc0
ffffc0ffffc0
ffffc0ffffc0
ffffc0ffffc0
ffffc0ffffc0
ffffc0ffffc0
7fff807fff80
7fff807fff80
3fff003fff00
1ffe001ffe00
0ffc000ffc00
03f00003f000
03f00003f000
03f00003f000
03f00003f000
03f00003f000
03f00003f000
03f00007f000
03ffffffe000
03ffffffe000
03ffffffc000
03ffffff8000
03ffffff0000
03fffffc0000
03fc00000000
0ffc00000000
1ffe00000000
3fff00000000
7fff80000000
7fff80000000
ffffc0000000
ffffc0000000
ffffc0000000
ffffc0000000
ffffc0000000
ffffc0000000
7fff80000000
7fff80000000
3fff00000000
1ffe00000000
0ffc00000000
03f000000000
ENDCHAR
STARTCHAR /home/kraus/git/open-iconic/png/grid-four-up-6x.png
ENCODING 67
DWIDTH 48 0
BBX 48 48 0 0
BITMAP
fc0fc0fc0fc0
fc0fc0fc0fc0
fc0fc0fc0fc0
fc0fc0fc0fc0
fc0fc0fc0fc0
fc0fc0fc0fc0
000000000000
000000000000
000000000000
000000000000
000000000000
000000000000
fc0fc0fc0fc0
fc0fc0fc0fc0
fc0fc0fc0fc0
fc0fc0fc0fc0
fc0fc0fc0fc0
fc0fc0fc0fc0
000000000000
000000000000
000000000000
000000000000
000000000000
000000000000
fc0fc0fc0fc0
fc0fc0fc0fc0
fc0fc0fc0fc0
fc0fc0fc0fc0
fc0fc0fc0fc0
fc0fc0fc0fc0
000000000000
000000000000
000000000000
000000000000
000000000000
000000000000
fc0fc0fc0fc0
fc0fc0fc0fc0
fc0fc0fc0fc0
fc0fc0fc0fc0
fc0fc0fc0fc0
fc0fc0fc0fc0
000000000000
000000000000
000000000000
000000000000
000000000000
000000000000
ENDCHAR
STARTCHAR /home/kraus/git/open-iconic/png/grid-three-up-6x.png
ENCODING 68
DWIDTH 48 0
BBX 48 48 0 0
BITMAP
fff03ffc0fff
fff03ffc0fff
fff03ffc0fff
fff03ffc0fff
fff03ffc0fff
fff03ffc0fff
fff03ffc0fff
fff03ffc0fff
fff03ffc0fff
fff03ffc0fff
fff03ffc0fff
fff03ffc0fff
000000000000
000000000000
000000000000
000000000000
000000000000
000000000000
fff03ffc0fff
fff03ffc0fff
fff03ffc0fff
fff03ffc0fff
fff03ffc0fff
fff03ffc0fff
fff03ffc0fff
fff03ffc0fff
fff03ffc0fff
fff03ffc0fff
fff03ffc0fff
fff03ffc0fff
000000000000
000000000000
000000000000
000000000000
000000000000
000000000000
fff03ffc0fff
fff03ffc0fff
fff03ffc0fff
fff03ffc0fff
fff03ffc0fff
fff03ffc0fff
fff03ffc0fff
fff03ffc0fff
fff03ffc0fff
fff03ffc0fff
fff03ffc0fff
fff03ffc0fff
ENDCHAR
STARTCHAR /home/kraus/git/open-iconic/png/grid-two-up-6x.png
ENCODING 69
DWIDTH 48 0
BBX 48 48 0 0
BITMAP
ffffc003ffff
ffffc003ffff
ffffc003ffff
ffffc003ffff
ffffc003ffff
ffffc003ffff
ffffc003ffff
ffffc003ffff
ffffc003ffff
ffffc003ffff
ffffc003ffff
ffffc003ffff
ffffc003ffff
ffffc003ffff
ffffc003ffff
ffffc003ffff
ffffc003ffff
ffffc003ffff
000000000000
000000000000
000000000000
000000000000
000000000000
000000000000
000000000000
000000000000
000000000000
000000000000
000000000000
000000000000
ffffc003ffff
ffffc003ffff
ffffc003ffff
ffffc003ffff
ffffc003ffff
ffffc003ffff
ffffc003ffff
ffffc003ffff
ffffc003ffff
ffffc003ffff
ffffc003ffff
ffffc003ffff
ffffc003ffff
ffffc003ffff
ffffc003ffff
ffffc003ffff
ffffc003ffff
ffffc003ffff
ENDCHAR
STARTCHAR /home/kraus/git/open-iconic/png/signal-6x.png
ENCODING 70
DWIDTH 48 0
BBX 48 48 0 0
BITMAP
000000000fc0
000000000fc0
000000000fc0
000000000fc0
000000000fc0
000000000fc0
000000fc0fc0
000000fc0fc0
000000fc0fc0
000000fc0fc0
000000fc0fc0
000000fc0fc0
000000fc0fc0
000000fc0fc0
000000fc0fc0
000000fc0fc0
000000fc0fc0
000000fc0fc0
000fc0fc0fc0
000fc0fc0fc0
000fc0fc0fc0
000fc0fc0fc0
000fc0fc0fc0
000fc0fc0fc0
000fc0fc0fc0
000fc0fc0fc0
000fc0fc0fc0
000fc0fc0fc0
000fc0fc0fc0
000fc0fc0fc0
fc0fc0fc0fc0
fc0fc0fc0fc0
fc0fc0fc0fc0
fc0fc0fc0fc0
fc0fc0fc0fc0
fc0fc0fc0fc0
fc0fc0fc0fc0
fc0fc0fc0fc0
fc0fc0fc0fc0
fc0fc0fc0fc0
fc0fc0fc0fc0
fc0fc0fc0fc0
fc0fc0fc0fc0
fc0fc0fc0fc0
fc0fc0fc0fc0
fc0fc0fc0fc0
fc0fc0fc0fc0
fc0fc0fc0fc0
ENDCHAR
STARTCHAR /home/kraus/git/open-iconic/png/target-6x.png
ENCODING 71
DWIDTH 48 0
BBX 48 48 0 0
BITMAP
00001ff80000
0000ffff0000
0007ffffe000
000ffffff000
003ffffffc00
007ffffffe00
00fff00fff00
01ff8001ff80
03fe00007fc0
07f800001fe0
0ff000000ff0
0fe0000007f0
1fc007e003f8
3f803ffc01fc
3f807ffe01fc
3f00ffff00fc
7f01ffff80fe
7e03ffffc07e
7e07fc3fe07e
fe07f00fe07f
fc07e007e03f
fc0fe007f03f
fc0fc003f03f
fc0fc003f03f
fc0fc003f03f
fc0fc003f03f
fc0fe007f03f
fc07e007e03f
fe07f00fe07f
7e07fc3fe07e
7e03ffffc07e
7f01ffff80fe
3f00ffff00fc
3f807ffe01fc
3f803ffc01fc
1fc007e003f8
0fe0000007f0
0ff000000ff0
07f800001fe0
03fe00007fc0
01ff8001ff80
00fff00fff00
007ffffffe00
003ffffffc00
000ffffff000
0007ffffe000
0000ffff0000
00001ff80000
ENDCHAR
