STARTFONT 2.1
FONT "open_iconic_text_6x"
SIZE 16 75 75
FONTBOUNDINGBOX 16 16 0 0
STARTPROPERTIES 3
COPYRIGHT "https://github.com/iconic/open-iconic, SIL OPEN FONT LICENSE"
FONT_ASCENT 0
FONT_DESCENT 0
ENDPROPERTIES
STARTCHAR /home/kraus/git/open-iconic/png/align-center-6x.png
ENCODING 64
DWIDTH 48 0
BBX 48 48 0 0
BITMAP
ffffffffffff
ffffffffffff
ffffffffffff
ffffffffffff
ffffffffffff
ffffffffffff
000000000000
000000000000
000000000000
000000000000
000000000000
000000000000
03ffffffffc0
03ffffffffc0
03ffffffffc0
03ffffffffc0
03ffffffffc0
03ffffffffc0
000000000000
000000000000
000000000000
000000000000
000000000000
000000000000
ffffffffffff
ffffffffffff
ffffffffffff
ffffffffffff
ffffffffffff
ffffffffffff
000000000000
000000000000
000000000000
000000000000
000000000000
000000000000
03ffffffffc0
03ffffffffc0
03ffffffffc0
03ffffffffc0
03ffffffffc0
03ffffffffc0
000000000000
000000000000
000000000000
000000000000
000000000000
000000000000
ENDCHAR
STARTCHAR /home/kraus/git/open-iconic/png/align-left-6x.png
ENCODING 65
DWIDTH 48 0
BBX 48 48 0 0
BITMAP
ffffffffffff
ffffffffffff
ffffffffffff
ffffffffffff
ffffffffffff
ffffffffffff
000000000000
000000000000
000000000000
000000000000
000000000000
000000000000
fffffffff000
fffffffff000
fffffffff000
fffffffff000
fffffffff000
fffffffff000
000000000000
000000000000
000000000000
000000000000
000000000000
000000000000
ffffffffffff
ffffffffffff
ffffffffffff
ffffffffffff
ffffffffffff
ffffffffffff
000000000000
000000000000
000000000000
000000000000
000000000000
000000000000
fffffffff000
fffffffff000
fffffffff000
fffffffff000
fffffffff000
fffffffff000
000000000000
000000000000
000000000000
000000000000
000000000000
000000000000
ENDCHAR
STARTCHAR /home/kraus/git/open-iconic/png/align-right-6x.png
ENCODING 66
DWIDTH 48 0
BBX 48 48 0 0
BITMAP
ffffffffffff
ffffffffffff
ffffffffffff
ffffffffffff
ffffffffffff
ffffffffffff
000000000000
000000000000
000000000000
000000000000
000000000000
000000000000
000fffffffff
000fffffffff
000fffffffff
000fffffffff
000fffffffff
000fffffffff
000000000000
000000000000
000000000000
000000000000
000000000000
000000000000
ffffffffffff
ffffffffffff
ffffffffffff
ffffffffffff
ffffffffffff
ffffffffffff
000000000000
000000000000
000000000000
000000000000
000000000000
000000000000
000fffffffff
000fffffffff
000fffffffff
000fffffffff
000fffffffff
000fffffffff
000000000000
000000000000
000000000000
000000000000
000000000000
000000000000
ENDCHAR
STARTCHAR /home/kraus/git/open-iconic/png/bold-6x.png
ENCODING 67
DWIDTH 48 0
BBX 48 48 0 0
BITMAP
ffffffff8000
fffffffff000
fffffffff800
fffffffffc00
fffffffffe00
ffffffffff00
3fffc03fff80
0fffc00fff80
07ffc007ff80
07ffc007ffc0
03ffc003ffc0
03ffc003ffc0
03ffc003ffc0
03ffc003ffc0
03ffc007ffc0
03ffc007ff80
03ffc00fff80
03ffc03fff80
03ffffffff00
03ffffffff00
03ffffffff80
03ffffffffe0
03fffffffff0
03fffffffff8
03ffc003fff8
03ffc000fffc
03ffc0007ffc
03ffc0003ffe
03ffc0001ffe
03ffc0001fff
03ffc0000fff
03ffc0000fff
03ffc0000fff
03ffc0000fff
03ffc0000fff
03ffc0000fff
03ffc0001fff
03ffc0001ffe
07ffc0003ffe
07ffc0007ffc
0fffc000fffc
3fffc003fff8
fffffffffff8
fffffffffff0
ffffffffffe0
ffffffffff80
fffffffffe00
fffffffff800
ENDCHAR
STARTCHAR /home/kraus/git/open-iconic/png/code-6x.png
ENCODING 68
DWIDTH 48 0
BBX 48 48 0 0
BITMAP
000000000000
000000000000
000000000000
000000000000
000000000000
000000000000
00000003f000
00000007e000
00000007e000
0000000fc000
0000000fc000
0000001f8000
03f0001f8fc0
07e0003f07e0
07e0003f07e0
0fc0007e03f0
0fc0007e03f0
1f8000fc01f8
1f8000fc01f8
3f0001f800fc
3f0001f800fc
7e0003f0007e
7e0003f0007e
fc0007e0003f
fc0007e0003f
7e000fc0007e
7e000fc0007e
3f001f8000fc
3f001f8000fc
1f803f0001f8
1f803f0001f8
0fc07e0003f0
0fc07e0003f0
07e0fc0007e0
07e0fc0007e0
03f1f8000fc0
0001f8000000
0003f0000000
0003f0000000
0007e0000000
0007e0000000
000fc0000000
000000000000
000000000000
000000000000
000000000000
000000000000
000000000000
ENDCHAR
STARTCHAR /home/kraus/git/open-iconic/png/command-6x.png
ENCODING 69
DWIDTH 48 0
BBX 48 48 0 0
BITMAP
03f00003f000
0ffc000ffc00
1ffe001ffe00
3fff003fff00
7fff807fff80
7fff807fff80
fe1fc0fe1fc0
fc0fc0fc0fc0
fc0fc0fc0fc0
fc0fc0fc0fc0
fc0fc0fc0fc0
fe0fc0fc1fc0
7fffffffff80
7fffffffff80
3fffffffff00
1ffffffffe00
0ffffffffc00
03fffffff000
000fc0fc0000
000fc0fc0000
000fc0fc0000
000fc0fc0000
000fc0fc0000
000fc0fc0000
03fffffff000
0ffffffffc00
1ffffffffe00
3fffffffff00
7fffffffff80
7fffffffff80
fe0fc0fc1fc0
fc0fc0fc0fc0
fc0fc0fc0fc0
fc0fc0fc0fc0
fc0fc0fc0fc0
fe1fc0fe1fc0
7fff807fff80
7fff807fff80
3fff003fff00
1ffe001ffe00
0ffc000ffc00
03f00003f000
000000000000
000000000000
000000000000
000000000000
000000000000
000000000000
ENDCHAR
STARTCHAR /home/kraus/git/open-iconic/png/comment-square-6x.png
ENCODING 70
DWIDTH 48 0
BBX 48 48 0 0
BITMAP
ffffffffffff
ffffffffffff
ffffffffffff
ffffffffffff
ffffffffffff
ffffffffffff
ffffffffffff
ffffffffffff
ffffffffffff
ffffffffffff
ffffffffffff
ffffffffffff
ffffffffffff
ffffffffffff
ffffffffffff
ffffffffffff
ffffffffffff
ffffffffffff
ffffffffffff
ffffffffffff
ffffffffffff
ffffffffffff
ffffffffffff
ffffffffffff
ffffffffffff
ffffffffffff
ffffffffffff
ffffffffffff
ffffffffffff
ffffffffffff
ffffffffffff
ffffffffffff
ffffffffffff
ffffffffffff
ffffffffffff
ffffffffffff
0000000007ff
0000000003ff
0000000001ff
0000000000ff
00000000007f
00000000003f
00000000001f
00000000000f
000000000007
000000000003
000000000001
000000000000
ENDCHAR
STARTCHAR /home/kraus/git/open-iconic/png/copywriting-6x.png
ENCODING 71
DWIDTH 48 0
BBX 48 48 0 0
BITMAP
ffffffffffff
ffffffffffff
ffffffffffff
ffffffffffff
ffffffffffff
ffffffffffff
000000000000
000000000000
000000000000
000000000000
000000000000
000000000000
fffffffc0000
fffffffc0000
fffffffc0000
fffffffc0000
fffffffc0000
fffffffc0000
000000000000
000000000000
000000000000
000000000000
000000000000
000000000000
000000000000
000000000000
000000000000
000000000000
000000000000
000000000000
ffffffffffff
ffffffffffff
ffffffffffff
ffffffffffff
ffffffffffff
ffffffffffff
000000000000
000000000000
000000000000
000000000000
000000000000
000000000000
fffffffff01e
fffffffff03f
fffffffff03f
fffffffff03f
fffffffff03f
fffffffff01e
ENDCHAR
STARTCHAR /home/kraus/git/open-iconic/png/delete-6x.png
ENCODING 72
DWIDTH 48 0
BBX 48 48 0 0
BITMAP
000000000000
000000000000
000000000000
000000000000
000000000000
000000000000
000fffffffff
001fffffffff
003fffffffff
003fffffffff
007fffffffff
00fff3fffcff
00ffe1fff87f
01ffc0fff03f
03ff807fe01f
03ff803fc01f
07ffc01f803f
0fffe00f007f
0ffff00600ff
1ffff80001ff
3ffffc0003ff
3ffffe0007ff
7fffff000fff
ffffff801fff
ffffff801fff
7fffff000fff
3ffffe0007ff
3ffffc0003ff
1ffff80001ff
0ffff00600ff
0fffe00f007f
07ffc01f803f
03ff803fc01f
03ff807fe01f
01ffc0fff03f
00ffe1fff87f
00fff3fffcff
007fffffffff
003fffffffff
003fffffffff
001fffffffff
000fffffffff
000000000000
000000000000
000000000000
000000000000
000000000000
000000000000
ENDCHAR
STARTCHAR /home/kraus/git/open-iconic/png/double-quote-sans-left-6x.png
ENCODING 73
DWIDTH 48 0
BBX 48 48 0 0
BITMAP
000000000000
000000000000
000000000000
000000000000
000000000000
000000000000
ffffc003ffff
ffffc003ffff
ffffc003ffff
ffffc003ffff
ffffc003ffff
ffffc003ffff
ffffc003ffff
ffffc003ffff
ffffc003ffff
ffffc003ffff
ffffc003ffff
ffffc003ffff
ffffc003ffff
ffffc003ffff
ffffc003ffff
ffffc003ffff
ffffc003ffff
ffffc003ffff
ffff8003fffe
ffff0003fffc
fffe0003fff8
fffc0003fff0
fff80003ffe0
fff00003ffc0
ffe00003ff80
ffc00003ff00
ff800003fe00
ff000003fc00
fe000003f800
fc000003f000
f8000003e000
f0000003c000
e00000038000
c00000030000
800000020000
000000000000
000000000000
000000000000
000000000000
000000000000
000000000000
000000000000
ENDCHAR
STARTCHAR /home/kraus/git/open-iconic/png/double-quote-sans-right-6x.png
ENCODING 74
DWIDTH 48 0
BBX 48 48 0 0
BITMAP
000000000000
000000000000
000000000000
000000000000
000000000000
000000000000
000000000000
000040000001
0000c0000003
0001c0000007
0003c000000f
0007c000001f
000fc000003f
001fc000007f
003fc00000ff
007fc00001ff
00ffc00003ff
01ffc00007ff
03ffc0000fff
07ffc0001fff
0fffc0003fff
1fffc0007fff
3fffc000ffff
7fffc001ffff
ffffc003ffff
ffffc003ffff
ffffc003ffff
ffffc003ffff
ffffc003ffff
ffffc003ffff
ffffc003ffff
ffffc003ffff
ffffc003ffff
ffffc003ffff
ffffc003ffff
ffffc003ffff
ffffc003ffff
ffffc003ffff
ffffc003ffff
ffffc003ffff
ffffc003ffff
ffffc003ffff
000000000000
000000000000
000000000000
000000000000
000000000000
000000000000
ENDCHAR
STARTCHAR /home/kraus/git/open-iconic/png/double-quote-serif-left-6x.png
ENCODING 75
DWIDTH 48 0
BBX 48 48 0 0
BITMAP
000000000000
000000000000
000000000000
000000000000
000000000000
000000000000
0003c000000f
001fc000007f
007fc00001ff
01ffc00007ff
03ffc0000fff
07ffc0001fff
0ffe00003ff8
1ff000007fc0
1fe000007f80
3fc00000ff00
3f800000fe00
7f000001fc00
7e000001f800
7e000001f800
fe000003f800
fc000003f000
fc000003f000
fc000003f000
ffffc003ffff
ffffc003ffff
ffffc003ffff
ffffc003ffff
ffffc003ffff
ffffc003ffff
ffffc003ffff
ffffc003ffff
ffffc003ffff
ffffc003ffff
ffffc003ffff
ffffc003ffff
ffffc003ffff
ffffc003ffff
ffffc003ffff
ffffc003ffff
ffffc003ffff
ffffc003ffff
000000000000
000000000000
000000000000
000000000000
000000000000
000000000000
ENDCHAR
STARTCHAR /home/kraus/git/open-iconic/png/double-quote-serif-right-6x.png
ENCODING 76
DWIDTH 48 0
BBX 48 48 0 0
BITMAP
000000000000
000000000000
000000000000
000000000000
000000000000
000000000000
ffffc003ffff
ffffc003ffff
ffffc003ffff
ffffc003ffff
ffffc003ffff
ffffc003ffff
ffffc003ffff
ffffc003ffff
ffffc003ffff
ffffc003ffff
ffffc003ffff
ffffc003ffff
ffffc003ffff
ffffc003ffff
ffffc003ffff
ffffc003ffff
ffffc003ffff
ffffc003ffff
000fc000003f
000fc000003f
000fc000003f
001fc000007f
001f8000007e
001f8000007e
003f800000fe
007f000001fc
00ff000003fc
01fe000007f8
03fe00000ff8
1ffc00007ff0
fff80003ffe0
fff00003ffc0
ffe00003ff80
ff800003fe00
fe000003f800
f0000003c000
000000000000
000000000000
000000000000
000000000000
000000000000
000000000000
ENDCHAR
STARTCHAR /home/kraus/git/open-iconic/png/ellipses-6x.png
ENCODING 77
DWIDTH 48 0
BBX 48 48 0 0
BITMAP
000000000000
000000000000
000000000000
000000000000
000000000000
000000000000
000000000000
000000000000
000000000000
000000000000
000000000000
000000000000
000000000000
000000000000
000000000000
000000000000
000000000000
000000000000
fff03ffc0fff
fff03ffc0fff
fff03ffc0fff
fff03ffc0fff
fff03ffc0fff
fff03ffc0fff
fff03ffc0fff
fff03ffc0fff
fff03ffc0fff
fff03ffc0fff
fff03ffc0fff
fff03ffc0fff
000000000000
000000000000
000000000000
000000000000
000000000000
000000000000
000000000000
000000000000
000000000000
000000000000
000000000000
000000000000
000000000000
000000000000
000000000000
000000000000
000000000000
000000000000
ENDCHAR
STARTCHAR /home/kraus/git/open-iconic/png/excerpt-6x.png
ENCODING 78
DWIDTH 48 0
BBX 48 48 0 0
BITMAP
ffffffffffc0
ffffffffffc0
ffffffffffc0
ffffffffffc0
ffffffffffc0
ffffffffffc0
000000000000
000000000000
000000000000
000000000000
000000000000
000000000000
fffffffc0000
fffffffc0000
fffffffc0000
fffffffc0000
fffffffc0000
fffffffc0000
000000000000
000000000000
000000000000
000000000000
000000000000
000000000000
ffffffffffff
ffffffffffff
ffffffffffff
ffffffffffff
ffffffffffff
ffffffffffff
000000000000
000000000000
000000000000
000000000000
000000000000
000000000000
fc0fc0fc0000
fc0fc0fc0000
fc0fc0fc0000
fc0fc0fc0000
fc0fc0fc0000
fc0fc0fc0000
000000000000
000000000000
000000000000
000000000000
000000000000
000000000000
ENDCHAR
STARTCHAR /home/kraus/git/open-iconic/png/header-6x.png
ENCODING 79
DWIDTH 48 0
BBX 48 48 0 0
BITMAP
ffffc0ffffc0
ffffc0ffffc0
ffffc0ffffc0
ffffc0ffffc0
ffffc0ffffc0
ffffc0ffffc0
07f80007f800
03f00003f000
03f00003f000
03f00003f000
03f00003f000
03f00003f000
03f00003f000
03f00003f000
03f00003f000
03f00003f000
03f00003f000
03f00003f000
03fffffff000
03fffffff000
03fffffff000
03fffffff000
03fffffff000
03fffffff000
03f00003f000
03f00003f000
03f00003f000
03f00003f000
03f00003f000
03f00003f000
03f00003f000
03f00003f000
03f00003f000
03f00003f000
03f00003f000
07f80007f800
ffffc0ffffc0
ffffc0ffffc0
ffffc0ffffc0
ffffc0ffffc0
ffffc0ffffc0
ffffc0ffffc0
000000000000
000000000000
000000000000
000000000000
000000000000
000000000000
ENDCHAR
STARTCHAR /home/kraus/git/open-iconic/png/infinity-6x.png
ENCODING 80
DWIDTH 48 0
BBX 48 48 0 0
BITMAP
000000000000
000000000000
000000000000
000000000000
000000000000
000000000000
000000000000
000000000000
000000000000
000000000000
000000000000
000000000000
00fe00007f00
03ff8001ffc0
0fffe007fff0
1ffff00ffff8
3ffff81ffffc
3ffffc3ffffc
7f83fe7fc1fe
7f00ffff00fe
fe007ffe007e
fc003ffc003f
fc001ff8003f
fc000ff0003f
fc000ff0003f
fc001ff8003f
fc003ffc003f
7e007ffe007e
7f00ffff00fe
7f83fe7fc1fe
3ffffc3ffffc
3ffff81ffffc
1ffff00ffff8
0fffe007fff0
03ff8001ffc0
00fe00007f00
000000000000
000000000000
000000000000
000000000000
000000000000
000000000000
000000000000
000000000000
000000000000
000000000000
000000000000
000000000000
ENDCHAR
STARTCHAR /home/kraus/git/open-iconic/png/info-6x.png
ENCODING 81
DWIDTH 48 0
BBX 48 48 0 0
BITMAP
0000000f0000
0000003fc000
0000007fe000
0000007fe000
000000fff000
000000fff000
000000fff000
000000fff000
0000007fe000
0000007fe000
0000003fc000
0000000f0000
000000000000
000000000000
000000000000
00003f000000
0000ffc00000
0001ffe00000
0003fff00000
0007fff80000
0007fff80000
000fe1fc0000
000fc0fc0000
000fc0fc0000
000000fc0000
000001fc0000
000001f80000
000003f80000
000003f80000
000007f00000
000007f00000
00000fe00000
00000fe00000
00001fc00000
00001fc00000
00001f800000
00003f800000
00003f000000
00003f000000
00003f03f000
00003f03f000
00003f87f000
00001fffe000
00001fffe000
00000fffc000
000007ff8000
000003ff0000
000000fc0000
ENDCHAR
STARTCHAR /home/kraus/git/open-iconic/png/italic-6x.png
ENCODING 82
DWIDTH 48 0
BBX 48 48 0 0
BITMAP
000fffffffc0
000fffffffc0
000fffffffc0
000fffffffc0
000fffffffc0
000fffffffc0
000003ffc000
000007ffc000
000007ffc000
00000fff8000
00000fff8000
00000fff8000
00001fff0000
00001fff0000
00003ffe0000
00003ffe0000
00003ffe0000
00007ffc0000
00007ffc0000
0000fff80000
0000fff80000
0000fff80000
0001fff00000
0001fff00000
0003ffe00000
0003ffe00000
0003ffe00000
0007ffc00000
0007ffc00000
000fff800000
000fff800000
000fff800000
001fff000000
001fff000000
003ffe000000
003ffe000000
003ffe000000
007ffc000000
007ffc000000
00fff8000000
00fff8000000
00fff8000000
fffffffc0000
fffffffc0000
fffffffc0000
fffffffc0000
fffffffc0000
fffffffc0000
ENDCHAR
STARTCHAR /home/kraus/git/open-iconic/png/justify-center-6x.png
ENCODING 83
DWIDTH 48 0
BBX 48 48 0 0
BITMAP
ffffffffffff
ffffffffffff
ffffffffffff
ffffffffffff
ffffffffffff
ffffffffffff
000000000000
000000000000
000000000000
000000000000
000000000000
000000000000
ffffffffffff
ffffffffffff
ffffffffffff
ffffffffffff
ffffffffffff
ffffffffffff
000000000000
000000000000
000000000000
000000000000
000000000000
000000000000
ffffffffffff
ffffffffffff
ffffffffffff
ffffffffffff
ffffffffffff
ffffffffffff
000000000000
000000000000
000000000000
000000000000
000000000000
000000000000
03ffffffffc0
03ffffffffc0
03ffffffffc0
03ffffffffc0
03ffffffffc0
03ffffffffc0
000000000000
000000000000
000000000000
000000000000
000000000000
000000000000
ENDCHAR
STARTCHAR /home/kraus/git/open-iconic/png/justify-left-6x.png
ENCODING 84
DWIDTH 48 0
BBX 48 48 0 0
BITMAP
ffffffffffff
ffffffffffff
ffffffffffff
ffffffffffff
ffffffffffff
ffffffffffff
000000000000
000000000000
000000000000
000000000000
000000000000
000000000000
ffffffffffff
ffffffffffff
ffffffffffff
ffffffffffff
ffffffffffff
ffffffffffff
000000000000
000000000000
000000000000
000000000000
000000000000
000000000000
ffffffffffff
ffffffffffff
ffffffffffff
ffffffffffff
ffffffffffff
ffffffffffff
000000000000
000000000000
000000000000
000000000000
000000000000
000000000000
fffffffff000
fffffffff000
fffffffff000
fffffffff000
fffffffff000
fffffffff000
000000000000
000000000000
000000000000
000000000000
000000000000
000000000000
ENDCHAR
STARTCHAR /home/kraus/git/open-iconic/png/justify-right-6x.png
ENCODING 85
DWIDTH 48 0
BBX 48 48 0 0
BITMAP
ffffffffffff
ffffffffffff
ffffffffffff
ffffffffffff
ffffffffffff
ffffffffffff
000000000000
000000000000
000000000000
000000000000
000000000000
000000000000
ffffffffffff
ffffffffffff
ffffffffffff
ffffffffffff
ffffffffffff
ffffffffffff
000000000000
000000000000
000000000000
000000000000
000000000000
000000000000
ffffffffffff
ffffffffffff
ffffffffffff
ffffffffffff
ffffffffffff
ffffffffffff
000000000000
000000000000
000000000000
000000000000
000000000000
000000000000
000fffffffff
000fffffffff
000fffffffff
000fffffffff
000fffffffff
000fffffffff
000000000000
000000000000
000000000000
000000000000
000000000000
000000000000
ENDCHAR
STARTCHAR /home/kraus/git/open-iconic/png/medical-cross-6x.png
ENCODING 86
DWIDTH 48 0
BBX 48 48 0 0
BITMAP
000ffffff000
000ffffff000
000ffffff000
000ffffff000
000ffffff000
000ffffff000
000ffffff000
000ffffff000
000ffffff000
000ffffff000
000ffffff000
000ffffff000
ffffffffffff
ffffffffffff
ffffffffffff
ffffffffffff
ffffffffffff
ffffffffffff
ffffffffffff
ffffffffffff
ffffffffffff
ffffffffffff
ffffffffffff
ffffffffffff
ffffffffffff
ffffffffffff
ffffffffffff
ffffffffffff
ffffffffffff
ffffffffffff
ffffffffffff
ffffffffffff
ffffffffffff
ffffffffffff
ffffffffffff
ffffffffffff
000ffffff000
000ffffff000
000ffffff000
000ffffff000
000ffffff000
000ffffff000
000ffffff000
000ffffff000
000ffffff000
000ffffff000
000ffffff000
000ffffff000
ENDCHAR
STARTCHAR /home/kraus/git/open-iconic/png/minus-6x.png
ENCODING 87
DWIDTH 48 0
BBX 48 48 0 0
BITMAP
000000000000
000000000000
000000000000
000000000000
000000000000
000000000000
000000000000
000000000000
000000000000
000000000000
000000000000
000000000000
000000000000
000000000000
000000000000
000000000000
000000000000
000000000000
ffffffffffff
ffffffffffff
ffffffffffff
ffffffffffff
ffffffffffff
ffffffffffff
ffffffffffff
ffffffffffff
ffffffffffff
ffffffffffff
ffffffffffff
ffffffffffff
000000000000
000000000000
000000000000
000000000000
000000000000
000000000000
000000000000
000000000000
000000000000
000000000000
000000000000
000000000000
000000000000
000000000000
000000000000
000000000000
000000000000
000000000000
ENDCHAR
STARTCHAR /home/kraus/git/open-iconic/png/plus-6x.png
ENCODING 88
DWIDTH 48 0
BBX 48 48 0 0
BITMAP
00003ffc0000
00003ffc0000
00003ffc0000
00003ffc0000
00003ffc0000
00003ffc0000
00003ffc0000
00003ffc0000
00003ffc0000
00003ffc0000
00003ffc0000
00003ffc0000
00003ffc0000
00003ffc0000
00003ffc0000
00003ffc0000
00003ffc0000
00003ffc0000
ffffffffffff
ffffffffffff
ffffffffffff
ffffffffffff
ffffffffffff
ffffffffffff
ffffffffffff
ffffffffffff
ffffffffffff
ffffffffffff
ffffffffffff
ffffffffffff
00003ffc0000
00003ffc0000
00003ffc0000
00003ffc0000
00003ffc0000
00003ffc0000
00003ffc0000
00003ffc0000
00003ffc0000
00003ffc0000
00003ffc0000
00003ffc0000
00003ffc0000
00003ffc0000
00003ffc0000
00003ffc0000
00003ffc0000
00003ffc0000
ENDCHAR
STARTCHAR /home/kraus/git/open-iconic/png/question-mark-6x.png
ENCODING 89
DWIDTH 48 0
BBX 48 48 0 0
BITMAP
000003ff0000
00001fffe000
00007ffff800
0000fffffc00
0001fffffe00
0003ffffff00
0003fe01ff00
0007f8007f80
0007f0001f80
000fe0001fc0
000fc0000fc0
000fc0000fc0
000000000fc0
000000000fc0
000000000fc0
000000001f80
000000001f80
000000003f80
000000007f00
00000000ff00
00000001fe00
00000003fe00
00000007fc00
0000000ff800
0000001ff000
0000001fe000
0000003fc000
0000007f0000
0000007f0000
0000007e0000
000000fc0000
000000fc0000
000000fc0000
000000fc0000
000000fc0000
000000fc0000
000000000000
000000000000
000000000000
000000000000
000000000000
000000000000
000000fc0000
000000fc0000
000000fc0000
000000fc0000
000000fc0000
000000fc0000
ENDCHAR
STARTCHAR /home/kraus/git/open-iconic/png/terminal-6x.png
ENCODING 90
DWIDTH 48 0
BBX 48 48 0 0
BITMAP
ffffffffffff
ffffffffffff
ffffffffffff
ffffffffffff
ffffffffffff
ff3fffffffff
fe1fffffffff
fc0fffffffff
f807ffffffff
f803ffffffff
fc01ffffffff
fe00ffffffff
ff007fffffff
ff803fffffff
ffc01fffffff
ffc01fffffff
ff803fffffff
ff007fffffff
fe00ff00003f
fc01ff00003f
f803ff00003f
f807ff00003f
fc0fff00003f
fe1fff00003f
ff3fffffffff
ffffffffffff
ffffffffffff
ffffffffffff
ffffffffffff
ffffffffffff
ffffffffffff
ffffffffffff
ffffffffffff
ffffffffffff
ffffffffffff
ffffffffffff
ffffffffffff
ffffffffffff
ffffffffffff
ffffffffffff
ffffffffffff
ffffffffffff
ffffffffffff
ffffffffffff
ffffffffffff
ffffffffffff
ffffffffffff
ffffffffffff
ENDCHAR
STARTCHAR /home/kraus/git/open-iconic/png/text-6x.png
ENCODING 91
DWIDTH 48 0
BBX 48 48 0 0
BITMAP
ffffffffffff
ffffffffffff
ffffffffffff
ffffffffffff
ffffffffffff
ffffffffffff
fe003ffc007f
f8003ffc001f
f0003ffc000f
f0003ffc000f
e0003ffc0007
e0003ffc0007
00003ffc0000
00003ffc0000
00003ffc0000
00003ffc0000
00003ffc0000
00003ffc0000
00003ffc0000
00003ffc0000
00003ffc0000
00003ffc0000
00003ffc0000
00003ffc0000
00003ffc0000
00003ffc0000
00003ffc0000
00003ffc0000
00003ffc0000
00003ffc0000
00003ffc0000
00003ffc0000
00003ffc0000
00003ffc0000
00003ffc0000
00003ffc0000
00003ffc0000
00003ffc0000
00003ffc0000
00003ffc0000
00003ffc0000
00007ffe0000
000ffffff000
000ffffff000
000ffffff000
000ffffff000
000ffffff000
000ffffff000
ENDCHAR
STARTCHAR /home/kraus/git/open-iconic/png/underline-6x.png
ENCODING 92
DWIDTH 48 0
BBX 48 48 0 0
BITMAP
03ffc003f000
03ffc003f000
03ffc003f000
03ffc003f000
03ffc003f000
03ffc003f000
03ffc003f000
03ffc003f000
03ffc003f000
03ffc003f000
03ffc003f000
03ffc003f000
03ffc003f000
03ffc003f000
03ffc003f000
03ffc003f000
03ffc003f000
03ffc003f000
03ffc003f000
03ffc003f000
03ffc003f000
03ffc003f000
03ffc003f000
03ffc003f000
03ffc003f000
03ffc003f000
03ffe007f000
01ffe007e000
01fff00fe000
00fffc3fe000
00ffffffc000
007fffff8000
003fffff0000
000ffffe0000
0003fffc0000
00007fe00000
000000000000
000000000000
000000000000
000000000000
000000000000
000000000000
ffffffffffc0
ffffffffffc0
ffffffffffc0
ffffffffffc0
ffffffffffc0
ffffffffffc0
ENDCHAR
STARTCHAR /home/kraus/git/open-iconic/png/vertical-align-bottom-6x.png
ENCODING 93
DWIDTH 48 0
BBX 48 48 0 0
BITMAP
fff000000fff
fff000000fff
fff000000fff
fff000000fff
fff000000fff
fff000000fff
fff000000fff
fff000000fff
fff000000fff
fff000000fff
fff000000fff
fff000000fff
fff03ffc0fff
fff03ffc0fff
fff03ffc0fff
fff03ffc0fff
fff03ffc0fff
fff03ffc0fff
fff03ffc0fff
fff03ffc0fff
fff03ffc0fff
fff03ffc0fff
fff03ffc0fff
fff03ffc0fff
fff03ffc0fff
fff03ffc0fff
fff03ffc0fff
fff03ffc0fff
fff03ffc0fff
fff03ffc0fff
000000000000
000000000000
000000000000
000000000000
000000000000
000000000000
ffffffffffff
ffffffffffff
ffffffffffff
ffffffffffff
ffffffffffff
ffffffffffff
000000000000
000000000000
000000000000
000000000000
000000000000
000000000000
ENDCHAR
STARTCHAR /home/kraus/git/open-iconic/png/vertical-align-center-6x.png
ENCODING 94
DWIDTH 48 0
BBX 48 48 0 0
BITMAP
fff000000fff
fff000000fff
fff000000fff
fff000000fff
fff000000fff
fff000000fff
fff03ffc0fff
fff03ffc0fff
fff03ffc0fff
fff03ffc0fff
fff03ffc0fff
fff03ffc0fff
000000000000
000000000000
000000000000
000000000000
000000000000
000000000000
ffffffffffff
ffffffffffff
ffffffffffff
ffffffffffff
ffffffffffff
ffffffffffff
000000000000
000000000000
000000000000
000000000000
000000000000
000000000000
fff03ffc0fff
fff03ffc0fff
fff03ffc0fff
fff03ffc0fff
fff03ffc0fff
fff03ffc0fff
fff000000fff
fff000000fff
fff000000fff
fff000000fff
fff000000fff
fff000000fff
000000000000
000000000000
000000000000
000000000000
000000000000
000000000000
ENDCHAR
STARTCHAR /home/kraus/git/open-iconic/png/vertical-align-top-6x.png
ENCODING 95
DWIDTH 48 0
BBX 48 48 0 0
BITMAP
ffffffffffff
ffffffffffff
ffffffffffff
ffffffffffff
ffffffffffff
ffffffffffff
000000000000
000000000000
000000000000
000000000000
000000000000
000000000000
fff03ffc0fff
fff03ffc0fff
fff03ffc0fff
fff03ffc0fff
fff03ffc0fff
fff03ffc0fff
fff03ffc0fff
fff03ffc0fff
fff03ffc0fff
fff03ffc0fff
fff03ffc0fff
fff03ffc0fff
fff03ffc0fff
fff03ffc0fff
fff03ffc0fff
fff03ffc0fff
fff03ffc0fff
fff03ffc0fff
fff000000fff
fff000000fff
fff000000fff
fff000000fff
fff000000fff
fff000000fff
fff000000fff
fff000000fff
fff000000fff
fff000000fff
fff000000fff
fff000000fff
000000000000
000000000000
000000000000
000000000000
000000000000
000000000000
ENDCHAR
