STARTFONT 2.1
FONT "open_iconic_human_8x"
SIZE 16 75 75
FONTBOUNDINGBOX 16 16 0 0
STARTPROPERTIES 3
COPYRIGHT "https://github.com/iconic/open-iconic, SIL OPEN FONT LICENSE"
FONT_ASCENT 0
FONT_DESCENT 0
ENDPROPERTIES
STARTCHAR /home/kraus/git/open-iconic/png/eye-8x.png
ENCODING 64
DWIDTH 64 0
BBX 64 64 0 0
BITMAP
0000000000000000
0000000000000000
0000000000000000
0000000000000000
0000000000000000
0000000000000000
0000000000000000
0000000000000000
0000001ff8000000
000000ffff800000
000007ffffe00000
00001ffffff80000
00007ffffffe0000
0000ffffffff0000
0001ffffffffc000
0007ffffffffe000
000ffff00ffff000
001fff8001fff800
003ffe00007ffc00
007ffc00003ffe00
00fff800001fff00
01fff000000fff80
03ffe0000007ffc0
03ffc0000003ffc0
07ffc007c003ffe0
0fff801f8001fff0
1fff803f0001fff8
1fff807f0001fff8
3fff007f0000fffc
7fff00ff0000fffe
7fff00ff8100fffe
ffff00ffc300ffff
ffff00ffff00ffff
7fff00ffff00fffe
7fff00ffff00fffe
3fff007ffe00fffc
1fff807ffe01fff8
1fff803ffc01fff8
0fff801ff801fff0
07ffc007e003ffe0
03ffc0000003ffc0
03ffe0000007ffc0
01fff000000fff80
00fff800001fff00
007ffc00003ffe00
003ffe00007ffc00
001fff8001fff800
000ffff00ffff000
0007ffffffffe000
0001ffffffffc000
0000ffffffff0000
00007ffffffe0000
00001ffffff80000
000007ffffe00000
000000ffff800000
0000001ff8000000
0000000000000000
0000000000000000
0000000000000000
0000000000000000
0000000000000000
0000000000000000
0000000000000000
0000000000000000
ENDCHAR
STARTCHAR /home/kraus/git/open-iconic/png/eyedropper-8x.png
ENCODING 65
DWIDTH 64 0
BBX 64 64 0 0
BITMAP
0000007c00007f00
000000fe0003ffc0
000000ff0007fff0
000000ff800ffff8
000000ffc01ffffc
000000ffe03ffffc
0000007ff07ffffe
0000003ff8fffffe
0000001fffffffff
0000000fffffffff
00000007ffffffff
00000003ffffffff
00000007ffffffff
0000000fffffffff
0000001fffffffff
0000003fffffffff
0000007ffffffffe
000000fffffffffe
000001ffe7fffffc
000003ffc3fffff8
000007ff81fffff8
00000fff00fffff0
00001ffe007fffe0
00003ffc003fffc0
00007ff8001fff80
00007ff0000fff00
0000ffe00007ff00
0001ffc00003ff80
0003ff800003ffc0
0007ff000007ffe0
000ffe00000ffff0
001ffc00001ffff8
003ff800003ffffc
007ff000007ffffe
00ffe00000ffe7ff
01ffc00001ffc3ff
03ff800003ff81ff
07ff000007ff00ff
0ffe00000ffe007e
1ffc00001ffc003c
3ff800003ff80000
7ff000007ff00000
ffe00000ffe00000
ffe00001ffc00000
fff00003ff800000
fff80007ff000000
fffc000ffe000000
fffe001ffc000000
ffff003ff8000000
ffff807ff0000000
ffffc0ffe0000000
ffffe1ffc0000000
fffff3ff80000000
ffffffff00000000
fffffffe00000000
fffffffc00000000
fffffff800000000
fffffff000000000
ffffffe000000000
ffffffc000000000
ffffff8000000000
ffffff0000000000
fffffe0000000000
fffffc0000000000
ENDCHAR
STARTCHAR /home/kraus/git/open-iconic/png/heart-8x.png
ENCODING 66
DWIDTH 64 0
BBX 64 64 0 0
BITMAP
0000000000000000
0000000000000000
0000000000000000
0000000000000000
0000000000000000
0000000000000000
0000000000000000
0000000000000000
000ff000000ff000
007ffe00007ffe00
00ffff8000ffff80
03ffffc003ffffc0
07ffffe007ffffe0
0ffffff00ffffff0
1ffffff81ffffff8
3ffffff83ffffff8
3ffffffc3ffffffc
7ffffffe7ffffffe
7ffffffe7ffffffe
7ffffffe7ffffffe
ffffffffffffffff
ffffffffffffffff
ffffffffffffffff
ffffffffffffffff
ffffffffffffffff
ffffffffffffffff
ffffffffffffffff
ffffffffffffffff
7ffffffffffffffe
7ffffffffffffffe
7ffffffffffffffe
3ffffffffffffffc
1ffffffffffffff8
1ffffffffffffff8
0ffffffffffffff0
07ffffffffffffe0
03ffffffffffffc0
01ffffffffffff80
00ffffffffffff00
007ffffffffffe00
003ffffffffffc00
001ffffffffff800
000ffffffffff000
0007ffffffffe000
0003ffffffffc000
0001ffffffff8000
0000ffffffff0000
00007ffffffe0000
00003ffffffc0000
00001ffffff80000
00000ffffff00000
000007ffffe00000
000003ffffc00000
000001ffff800000
000000ffff000000
0000007ffe000000
0000003ffc000000
0000001ff8000000
0000000ff0000000
00000007e0000000
00000003c0000000
0000000180000000
0000000000000000
0000000000000000
ENDCHAR
STARTCHAR /home/kraus/git/open-iconic/png/people-8x.png
ENCODING 67
DWIDTH 64 0
BBX 64 64 0 0
BITMAP
00000000007e0000
0000000001ff8000
0000000003ffc000
0000000007ffe000
000000000ffff000
000000001ffff800
000000001ffffc00
000000001ffffc00
00007e001ffffe00
0001ff800ffffe00
0003ffc007fffe00
0007ffe007fffe00
000ffff003ffff00
001ffff803ffff00
003ffffc03ffff00
003ffffc01ffff00
007ffffe01ffff00
007ffffe01ffff00
007ffffe01ffff00
00fffffe00ffff00
00ffffff00fffe00
00ffffff00fffe00
00ffffff00fffe00
00ffffff00fffe00
00ffffff00fffc00
00ffffff00fffc00
00ffffff00fff800
00ffffff00fff000
00fffffe00fff000
007ffffe01ffc000
007ffffe01ff8000
007ffffe007e0000
003ffffc00000000
003ffffc00000020
001ffff800000070
000ffff0000000f8
0007ffe0000001fc
0003ffc0000007fe
0001ff8000001ffe
00007e000000fffe
000000000007ffff
000000000007ffff
0e0000007003ffff
1f000000f803ffff
3f800001fc01ffff
7fe00007fe01ffff
7ff8001ffe01ffff
7fff00fffe00ffff
ffffffffff00ffff
ffffffffff00ffff
ffffffffff00ffff
ffffffffff00ffff
ffffffffff00ffff
ffffffffff00ffff
ffffffffff00ffff
ffffffffff00ffff
ffffffffff000000
ffffffffff000000
ffffffffff000000
ffffffffff000000
ffffffffff000000
ffffffffff000000
ffffffffff000000
ffffffffff000000
ENDCHAR
STARTCHAR /home/kraus/git/open-iconic/png/person-8x.png
ENCODING 68
DWIDTH 64 0
BBX 64 64 0 0
BITMAP
00000007e0000000
0000003ffc000000
000000ffff000000
000001ffff800000
000003ffffc00000
000007ffffe00000
00000ffffff00000
00000ffffff00000
00001ffffff80000
00003ffffffc0000
00003ffffffc0000
00003ffffffc0000
00007ffffffe0000
00007ffffffe0000
00007ffffffe0000
0000ffffffff0000
0000ffffffff0000
0000ffffffff0000
0000ffffffff0000
0000ffffffff0000
0000ffffffff0000
0000ffffffff0000
0000ffffffff0000
0000ffffffff0000
0000ffffffff0000
00007ffffffe0000
00007ffffffe0000
00007ffffffe0000
00003ffffffc0000
00003ffffffc0000
00003ffffffc0000
00001ffffff80000
00000ffffff00000
00000ffffff00000
000007ffffe00000
000003ffffc00000
000001ffff800000
000000ffff000000
0000003ffc000000
00000007e0000000
000f00000000f000
007f80000001fe00
01ffc0000003ff80
03ffe0000007ffc0
07fff000001fffe0
0ffffc00003ffff0
1fffff0000fffff8
3ffffff00ffffffc
3ffffffffffffffc
7ffffffffffffffe
7ffffffffffffffe
7ffffffffffffffe
ffffffffffffffff
ffffffffffffffff
ffffffffffffffff
ffffffffffffffff
ffffffffffffffff
ffffffffffffffff
ffffffffffffffff
ffffffffffffffff
ffffffffffffffff
ffffffffffffffff
ffffffffffffffff
ffffffffffffffff
ENDCHAR
