STARTFONT 2.1
FONT "open_iconic_check_8x"
SIZE 16 75 75
FONTBOUNDINGBOX 16 16 0 0
STARTPROPERTIES 3
COPYRIGHT "https://github.com/iconic/open-iconic, SIL OPEN FONT LICENSE"
FONT_ASCENT 0
FONT_DESCENT 0
ENDPROPERTIES
STARTCHAR /home/kraus/git/open-iconic/png/check-8x.png
ENCODING 64
DWIDTH 64 0
BBX 64 64 0 0
BITMAP
0000000000000000
0000000000000000
0000000000000000
0000000000000000
0000000000000000
0000000000000000
0000000000000000
0000000000000000
0000000000001000
0000000000003800
0000000000007c00
000000000000fe00
000000000001ff00
000000000003ff80
000000000007ffc0
00000000000fffe0
00000000001ffff0
00000000003ffff8
00000000007ffffc
0000000000fffffc
0000000001fffffc
0000000003fffff8
0000000007fffff0
000000000fffffe0
001000001fffffc0
003800003fffff80
007c00007fffff00
00fe0000fffffe00
01ff0001fffffc00
03ff8003fffff800
07ffc007fffff000
0fffe00fffffe000
1ffff01fffffc000
3ffff83fffff8000
7ffffc7fffff0000
fffffefffffe0000
7ffffffffffc0000
3ffffffffff80000
1ffffffffff00000
0fffffffffe00000
07ffffffffc00000
03ffffffff800000
01ffffffff000000
00fffffffe000000
007ffffffc000000
003ffffff8000000
001ffffff0000000
000fffffe0000000
0007ffffc0000000
0003ffff80000000
0001ffff00000000
0000fffe00000000
00007ffc00000000
00003ff800000000
00001ff000000000
00000fe000000000
000007c000000000
0000038000000000
0000000000000000
0000000000000000
0000000000000000
0000000000000000
0000000000000000
0000000000000000
ENDCHAR
STARTCHAR /home/kraus/git/open-iconic/png/circle-check-8x.png
ENCODING 65
DWIDTH 64 0
BBX 64 64 0 0
BITMAP
0000003ffc000000
000003ffffc00000
00000ffffff00000
00007ffffffe0000
0000ffffffff0000
0003ffffffffc000
0007ffffffffe000
001ffffffffff800
003ffffffffffc00
007ffffffffffe00
00ffffffffffff00
01ffffffffffff80
01ffffffffffff80
03ffffffffffffc0
07ffffffffffffe0
07fffffffffe7fe0
0ffffffffffc3ff0
1ffffffffff81ff8
1ffffffffff00ff8
1fffffffffe007f8
3fffffffffc007fc
3fffffffff800ffc
7fffffffff001ffe
7ffffffffe003ffe
7ffffffffc007ffe
7ffffffff800fffe
fffffffff001ffff
ffffe7ffe003ffff
ffffc3ffc007ffff
ffff81ff800fffff
ffff00ff001fffff
fffe007e003fffff
fffe003c007fffff
ffff001800ffffff
ffff800001ffffff
ffffc00003ffffff
ffffe00007ffffff
fffff0000fffffff
7ffff8001ffffffe
7ffffc003ffffffe
7ffffe007ffffffe
7fffff00fffffffe
3fffff81fffffffc
3fffffc3fffffffc
1fffffe7fffffff8
1ffffffffffffff8
1ffffffffffffff8
0ffffffffffffff0
07ffffffffffffe0
07ffffffffffffe0
03ffffffffffffc0
01ffffffffffff80
01ffffffffffff80
00ffffffffffff00
007ffffffffffe00
003ffffffffffc00
001ffffffffff800
0007ffffffffe000
0003ffffffffc000
0000ffffffff0000
00007ffffffe0000
00000ffffff00000
000003ffffc00000
0000003ffc000000
ENDCHAR
STARTCHAR /home/kraus/git/open-iconic/png/circle-x-8x.png
ENCODING 66
DWIDTH 64 0
BBX 64 64 0 0
BITMAP
0000003ffc000000
000003ffffc00000
00000ffffff00000
00007ffffffe0000
0000ffffffff0000
0003ffffffffc000
0007ffffffffe000
001ffffffffff800
003ffffffffffc00
007ffffffffffe00
00ffffffffffff00
01ffffffffffff80
01ffffffffffff80
03ffffffffffffc0
07ffffffffffffe0
07ffe7ffffe7ffe0
0fffc3ffffc3fff0
1fff81ffff81fff8
1fff00ffff00fff8
1ffe007ffe007ff8
3ffe003ffc007ffc
3fff001ff800fffc
7fff800ff001fffe
7fffc007e003fffe
7fffe003c007fffe
7ffff001800ffffe
fffff800001fffff
fffffc00003fffff
fffffe00007fffff
ffffff0000ffffff
ffffff8001ffffff
ffffffc003ffffff
ffffffc003ffffff
ffffff8001ffffff
ffffff0000ffffff
fffffe00007fffff
fffffc00003fffff
fffff800001fffff
7ffff001800ffffe
7fffe003c007fffe
7fffc007e003fffe
7fff800ff001fffe
3fff001ff800fffc
3ffe003ffc007ffc
1ffe007ffe007ff8
1fff00ffff00fff8
1fff81ffff81fff8
0fffc3ffffc3fff0
07ffe7ffffe7ffe0
07ffffffffffffe0
03ffffffffffffc0
01ffffffffffff80
01ffffffffffff80
00ffffffffffff00
007ffffffffffe00
003ffffffffffc00
001ffffffffff800
0007ffffffffe000
0003ffffffffc000
0000ffffffff0000
00007ffffffe0000
00000ffffff00000
000003ffffc00000
0000003ffc000000
ENDCHAR
STARTCHAR /home/kraus/git/open-iconic/png/task-8x.png
ENCODING 67
DWIDTH 64 0
BBX 64 64 0 0
BITMAP
fffffffffff00000
ffffffffffe00180
ffffffffffc003c0
ffffffffff8007e0
ffffffffff000ff0
fffffffffe001ff8
fffffffffc003ffc
fffffffff8007ffe
ff0000000000fffe
ff0000000001fffc
ff0000000003fff8
ff0000000007fff0
ff000000000fffe0
ff000000001fffc0
ff000000003fff80
ff000000007fff00
ff00000000fffe00
ff00018001fffc00
ff0003c003fff800
ff0007e007fff000
ff000ff00fffe000
ff001ff81fffc000
ff003ffc3fff8000
ff007ffe7fff0000
ff007ffffffe0000
ff003ffffffc0000
ff001ffffff80000
ff000ffffff00000
ff0007ffffe00100
ff0003ffffc00300
ff0001ffff800700
ff0000ffff000f00
ff00007ffe001f00
ff00003ffc003f00
ff00001ff8007f00
ff00000ff000ff00
ff000007e000ff00
ff000003c000ff00
ff0000018000ff00
ff0000000000ff00
ff0000000000ff00
ff0000000000ff00
ff0000000000ff00
ff0000000000ff00
ff0000000000ff00
ff0000000000ff00
ff0000000000ff00
ff0000000000ff00
ffffffffffffff00
ffffffffffffff00
ffffffffffffff00
ffffffffffffff00
ffffffffffffff00
ffffffffffffff00
ffffffffffffff00
ffffffffffffff00
0000000000000000
0000000000000000
0000000000000000
0000000000000000
0000000000000000
0000000000000000
0000000000000000
0000000000000000
ENDCHAR
STARTCHAR /home/kraus/git/open-iconic/png/x-8x.png
ENCODING 68
DWIDTH 64 0
BBX 64 64 0 0
BITMAP
0010000000001000
0038000000003800
007c000000007c00
00fe00000000fe00
01ff00000001ff00
03ff80000003ff80
07ffc0000007ffc0
0fffe000000fffe0
1ffff000001ffff0
3ffff800003ffff8
7ffffc00007ffffc
fffffe0000fffffc
7fffff0001fffffc
3fffff8003fffff8
1fffffc007fffff0
0fffffe00fffffe0
07fffff01fffffc0
03fffff83fffff80
01fffffc7fffff00
00fffffefffffe00
007ffffffffffc00
003ffffffffff800
001ffffffffff000
000fffffffffe000
0007ffffffffc000
0003ffffffff8000
0001ffffffff0000
0000fffffffe0000
00007ffffffc0000
00003ffffff80000
00001ffffff00000
00000fffffe00000
00001ffffff00000
00003ffffff80000
00007ffffffc0000
0000fffffffe0000
0001ffffffff0000
0003ffffffff8000
0007ffffffffc000
000fffffffffe000
001ffffffffff000
003ffffffffff800
007ffffffffffc00
00fffffefffffe00
01fffffc7fffff00
03fffff83fffff80
07fffff01fffffc0
0fffffe00fffffe0
1fffffc007fffff0
3fffff8003fffff8
7fffff0001fffffc
fffffe0000fffffc
7ffffc00007ffffc
3ffff800003ffff8
1ffff000001ffff0
0fffe000000fffe0
07ffc0000007ffc0
03ff80000003ff80
01ff00000001ff00
00fe00000000fe00
007c000000007c00
0038000000003800
0000000000000000
0000000000000000
ENDCHAR
