STARTFONT 2.1
FONT "open_iconic_embedded_8x"
SIZE 16 75 75
FONTBOUNDINGBOX 16 16 0 0
STARTPROPERTIES 3
COPYRIGHT "https://github.com/iconic/open-iconic, SIL OPEN FONT LICENSE"
FONT_ASCENT 0
FONT_DESCENT 0
ENDPROPERTIES
STARTCHAR /home/kraus/git/open-iconic/png/battery-empty-8x.png
ENCODING 64
DWIDTH 64 0
BBX 64 64 0 0
BITMAP
0000000000000000
0000000000000000
0000000000000000
0000000000000000
0000000000000000
0000000000000000
0000000000000000
0000000000000000
ffffffffffffff00
ffffffffffffff00
ffffffffffffff00
ffffffffffffff00
ffffffffffffff00
ffffffffffffff00
ffffffffffffff00
ffffffffffffff00
ff0000000000ff00
ff0000000000ff00
ff0000000000ff00
ff0000000000ff00
ff0000000000ff00
ff0000000000ff00
ff0000000000ff00
ff0000000000ff00
ff0000000000ffff
ff0000000000ffff
ff0000000000ffff
ff0000000000ffff
ff0000000000ffff
ff0000000000ffff
ff0000000000ffff
ff0000000000ffff
ff0000000000ffff
ff0000000000ffff
ff0000000000ffff
ff0000000000ffff
ff0000000000ffff
ff0000000000ffff
ff0000000000ffff
ff0000000000ffff
ff0000000000ff00
ff0000000000ff00
ff0000000000ff00
ff0000000000ff00
ff0000000000ff00
ff0000000000ff00
ff0000000000ff00
ff0000000000ff00
ffffffffffffff00
ffffffffffffff00
ffffffffffffff00
ffffffffffffff00
ffffffffffffff00
ffffffffffffff00
ffffffffffffff00
ffffffffffffff00
0000000000000000
0000000000000000
0000000000000000
0000000000000000
0000000000000000
0000000000000000
0000000000000000
0000000000000000
ENDCHAR
STARTCHAR /home/kraus/git/open-iconic/png/bell-8x.png
ENCODING 65
DWIDTH 64 0
BBX 64 64 0 0
BITMAP
0000000ff0000000
0000007ffe000000
000001ffff800000
000003ffffc00000
000007ffffe00000
00000ffffff00000
00001ffffff80000
00003ffffffc0000
00003ffffffc0000
00007ffffffe0000
00007ffffffe0000
00007ffffffe0000
0000ffffffff0000
0000ffffffff0000
0000ffffffff0000
0000ffffffff0000
0000ffffffff0000
0000ffffffff0000
0000ffffffff0000
0000ffffffff0000
0000ffffffff0000
0001ffffffff8000
0001ffffffff8000
0001ffffffff8000
0003ffffffff8000
0003ffffffffc000
0003ffffffffc000
0007ffffffffe000
0007ffffffffe000
000ffffffffff000
001ffffffffff800
001ffffffffff800
003ffffffffffc00
007ffffffffffe00
00ffffffffffff00
01ffffffffffff80
03ffffffffffffc0
07ffffffffffffe0
0ffffffffffffff0
1ffffffffffffff8
3ffffffffffffffc
3ffffffffffffffc
7ffffffffffffffe
7ffffffffffffffe
ffffffffffffffff
ffffffffffffffff
ffffffffffffffff
ffffffffffffffff
0000000000000000
0000000000000000
0000000000000000
0000000000000000
0000000000000000
0000000000000000
0000000000000000
0000000000000000
000000ffff000000
000000ffff000000
000000ffff000000
0000007ffe000000
0000007ffe000000
0000003ffc000000
0000001ff8000000
00000007e0000000
ENDCHAR
STARTCHAR /home/kraus/git/open-iconic/png/cog-8x.png
ENCODING 66
DWIDTH 64 0
BBX 64 64 0 0
BITMAP
0000000ff0000000
0000001ff8000000
0000001ff8000000
0000001ff8000000
0000003ffc000000
0000003ffc000000
0000007ffe000000
001c007ffe007800
003f80ffff01fc00
007fe0ffff07fe00
00ffffffffffff00
01ffffffffffff80
01ffffffffffff80
01ffffffffffff80
01ffffffffffff80
00ffffffffffff00
00ffffffffffff00
007ffffffffffe00
007ffffffffffe00
007ffffffffffc00
003ffff81ffffc00
003fffc003fffc00
003fff8001fffc00
003fff0000fffc00
00fffe00007fff00
03fffc00003fffc0
0ffff800001ffff0
7ffff800001ffffe
fffff800001fffff
fffff000000fffff
fffff000000fffff
fffff000000fffff
fffff000000fffff
fffff000000fffff
fffff000000fffff
fffff800001fffff
7ffff800001ffffe
1ffff800001ffff8
03fffc00003fffc0
00fffe00007fff00
003fff0000fffc00
003fff8001fffc00
003fffc003fffc00
003ffff81ffffc00
003ffffffffffc00
007ffffffffffe00
007ffffffffffe00
00ffffffffffff00
00ffffffffffff00
01ffffffffffff80
01ffffffffffff80
01ffffffffffff80
01ffffffffffff80
00ffffffffffff00
007ff0ffff0ffe00
003f80ffff01fc00
001e007ffe007800
0000007ffe000000
0000003ffc000000
0000003ffc000000
0000003ffc000000
0000001ff8000000
0000001ff8000000
0000000ff0000000
ENDCHAR
STARTCHAR /home/kraus/git/open-iconic/png/flash-8x.png
ENCODING 67
DWIDTH 64 0
BBX 64 64 0 0
BITMAP
0000000fff000000
0000001ffe000000
0000001ffe000000
0000003ffc000000
0000003ffc000000
0000007ff8000000
0000007ff8000000
000000fff0000000
000000fff0000000
000001ffe0000000
000001ffe0000000
000003ffc0000000
000003ffc0000000
000007ff80000000
000007ff80000000
00000fff00000000
00000fffffff0000
00001ffffffe0000
00001ffffffe0000
00003ffffffc0000
00003ffffffc0000
00007ffffff80000
00007ffffff80000
0000fffffff00000
00000000fff00000
00000000ffe00000
00000001ffe00000
00000001ffc00000
00000001ffc00000
00000003ff800000
00000003ff800000
00000003ff000000
00000007ff000000
00000007fe000000
00000007fe000000
0000000ffc000000
0000000ffc000000
0000000ff8000000
0000001ff8000000
0000001ff0000000
0000fffffffe0000
0000fffffffc0000
00007ffffff80000
00007ffffff00000
00007fffffe00000
00003fffffc00000
00003fffff800000
00003fffff000000
00001ffffe000000
00001ffffc000000
00001ffff8000000
00000ffff0000000
00000fffe0000000
00000fffc0000000
000007ff80000000
000007ff00000000
000007fe00000000
000003fc00000000
000003f800000000
000003f000000000
000001e000000000
000001c000000000
0000018000000000
0000000000000000
ENDCHAR
STARTCHAR /home/kraus/git/open-iconic/png/home-8x.png
ENCODING 68
DWIDTH 64 0
BBX 64 64 0 0
BITMAP
0000000180000000
00000003c0000000
00000007e0000000
0000001ff8000000
0000003ffc000000
0000007ffe000000
000001ffff800000
000003ffffc00000
000007ffffe00000
00001ffffff80000
00003ffffffc0000
00007ffffffe0000
0001ffffffff8000
0003ffffffffc000
0007ffffffffe000
001ffffffffff800
003ffffffffffc00
007ffffffffffe00
01ffffffffffff80
03ffffffffffffc0
07ffffffffffffe0
1ffffffffffffff8
3ffffffffffffffc
7ffffffffffffffe
00ffffffffffff00
00ffffffffffff00
00ffffffffffff00
00ffffffffffff00
00ffffffffffff00
00ffffffffffff00
00ffffffffffff00
00ffffffffffff00
00ffffffffffff00
00ffffffffffff00
00ffffffffffff00
00ffffffffffff00
00ffffffffffff00
00ffffffffffff00
00ffffffffffff00
00ffffffffffff00
00ffff0000ffff00
00ffff0000ffff00
00ffff0000ffff00
00ffff0000ffff00
00ffff0000ffff00
00ffff0000ffff00
00ffff0000ffff00
00ffff0000ffff00
00ffff0000ffff00
00ffff0000ffff00
00ffff0000ffff00
00ffff0000ffff00
00ffff0000ffff00
00ffff0000ffff00
00ffff0000ffff00
00ffff0000ffff00
0000000000000000
0000000000000000
0000000000000000
0000000000000000
0000000000000000
0000000000000000
0000000000000000
0000000000000000
ENDCHAR
STARTCHAR /home/kraus/git/open-iconic/png/pencil-8x.png
ENCODING 69
DWIDTH 64 0
BBX 64 64 0 0
BITMAP
0000000000000000
0000000000018000
000000000003c000
000000000007e000
00000000000ff000
00000000001ff800
00000000003ffc00
00000000007ffe00
00000000007fff00
00000000003fff80
00000000001fffc0
00000000000fffe0
000000000007fff0
000000000003fff8
000000000001fffc
000000000000fffe
0000000000007ffe
0000000180003ffc
00000003c0001ff8
00000007e0000ff0
0000000ff00007e0
0000001ff80003c0
0000003ffc000180
0000007ffe000000
000000ffff000000
000001ffff800000
000003ffffc00000
000007ffffe00000
00000ffffff00000
00001ffffff80000
00003ffffffc0000
00007ffffffe0000
0000fffffffe0000
0001fffffffc0000
0003fffffff80000
0007fffffff00000
000fffffffe00000
001fffffffc00000
003fffffff800000
007fffffff000000
00fffffffe000000
01fffffffc000000
03fffffff8000000
07fffffff0000000
0fffffffe0000000
1fffffffc0000000
3fffffff80000000
7fffffff00000000
fffffffe00000000
fffffffc00000000
fffffff800000000
fffffff000000000
ffffffe000000000
ffffffc000000000
ffffff8000000000
ffffff0000000000
fffffe0000000000
fffffc0000000000
fffff80000000000
fffff00000000000
ffffe00000000000
ffffc00000000000
ffff800000000000
ffff000000000000
ENDCHAR
STARTCHAR /home/kraus/git/open-iconic/png/pulse-8x.png
ENCODING 70
DWIDTH 64 0
BBX 64 64 0 0
BITMAP
0000000000000000
0000000000000000
0000006000000000
0000006000000000
0000006000000000
000000f000000000
000000f000000000
000000f000000000
000001f800000000
000001f800000000
000001f800000000
000003fc00000000
000003fc00000000
000003fc00000000
000003fc00000000
000007fe00000000
000007fe00100000
000007fe00100000
00000fff00380000
00000fff00380000
00000fff003c0000
00001fff807c0000
00001fff807e0000
00001fff80fe0000
00001fffc0ff0000
00003fffc0ff8000
00003fffc1ff8000
00003fffe1ffc000
00007f9fe3ffc000
00007f9fe3ffe000
fffe7f9ff3ffffff
ffffff8ff7ffffff
ffffff0ff7ffffff
ffffff0fffffffff
ffffff07ffffffff
fffffe07ffffffff
fffffe07fff7ffff
fffffe07fff3ffff
003ffc03ffe00000
003ffc03ffe00000
003ffc03ffc00000
001ff801ffc00000
001ff801ffc00000
001ff801ff800000
000ff000ff800000
000ff000ff000000
000ff000ff000000
0007f0007f000000
0007e0007e000000
0007e0007e000000
0003e0003c000000
0003c0003c000000
0003c0003c000000
0003c00038000000
0001800018000000
0001800010000000
0001800010000000
0000000000000000
0000000000000000
0000000000000000
0000000000000000
0000000000000000
0000000000000000
0000000000000000
ENDCHAR
STARTCHAR /home/kraus/git/open-iconic/png/warning-8x.png
ENCODING 71
DWIDTH 64 0
BBX 64 64 0 0
BITMAP
000000ff00000000
000001ff00000000
000001ff80000000
000003ff80000000
000003ffc0000000
000003ffc0000000
000007ffe0000000
000007ffe0000000
00000fffe0000000
00000ffff0000000
00001ffff0000000
00001ffff8000000
00001ffff8000000
00003ffffc000000
00003ffffc000000
00007ffffc000000
00007ffffe000000
0000fffffe000000
0000ffffff000000
0000ffffff000000
0001ffffff800000
0001ffffff800000
0003ffffff800000
0003ffffffc00000
0007ff00ffc00000
0007ff00ffe00000
0007ff00ffe00000
000fff00fff00000
000fff00fff00000
001fff00fff00000
001fff00fff80000
003fff00fff80000
003fff00fffc0000
003fff00fffc0000
007fff00fffe0000
007fff00fffe0000
00ffff00ffff0000
00ffff00ffff0000
01ffff00ffff0000
01ffff00ffff8000
01ffffffffff8000
03ffffffffffc000
03ffffffffffc000
07ffffffffffe000
07ffffffffffe000
0fffffffffffe000
0ffffffffffff000
1ffffffffffff000
1fffff00fffff800
1fffff00fffff800
3fffff00fffffc00
3fffff00fffffc00
7fffff00fffffc00
7fffff00fffffe00
ffffff00fffffe00
ffffff00ffffff00
ffffffffffffff00
ffffffffffffff00
ffffffffffffff00
ffffffffffffff00
ffffffffffffff00
ffffffffffffff00
ffffffffffffff00
ffffffffffffff00
ENDCHAR
STARTCHAR /home/kraus/git/open-iconic/png/wrench-8x.png
ENCODING 72
DWIDTH 64 0
BBX 64 64 0 0
BITMAP
0000000000fe0000
000000000ffe0000
000000003ffc0000
000000007ff80000
00000001fff00000
00000003ffe00000
00000007ffc00000
0000000fff800000
0000000fff000000
0000001fff000000
0000003fff000000
0000003fff000000
0000007fff000000
0000007fff000000
0000007fff000000
0000007fff000000
000000ffff000000
000000ffff000001
000000ffff000003
000000ffff000007
000000ffff00000f
000000ffff00001f
000000ffff00003f
000000ffff00007f
0000007fffffffff
0000007ffffffffe
0000007ffffffffe
0000007ffffffffe
000000fffffffffc
000001fffffffffc
000003fffffffff8
000007fffffffff0
00000ffffffffff0
00001fffffffffe0
00003fffffffffc0
00007fffffffff80
0000fffffffffe00
0001fffffffffc00
0003fffffffff000
0007fffff0ff8000
000fffffe0000000
001fffffc0000000
003fffff80000000
007fffff00000000
00fffffe00000000
01fffffc00000000
03fffff800000000
07fffff000000000
0fffffe000000000
1fffffc000000000
3fffff8000000000
7fffff0000000000
7c3ffe0000000000
f81ffc0000000000
f00ff80000000000
f00ff00000000000
f00fe00000000000
f00fc00000000000
f81f800000000000
7c3f000000000000
7ffe000000000000
3ffc000000000000
1ff8000000000000
07e0000000000000
ENDCHAR
STARTCHAR /home/kraus/git/open-iconic/png/battery-full-8x.png
ENCODING 73
DWIDTH 64 0
BBX 64 64 0 0
BITMAP
0000000000000000
0000000000000000
0000000000000000
0000000000000000
0000000000000000
0000000000000000
0000000000000000
0000000000000000
ffffffffffffff00
ffffffffffffff00
ffffffffffffff00
ffffffffffffff00
ffffffffffffff00
ffffffffffffff00
ffffffffffffff00
ffffffffffffff00
ffffffffffffff00
ffffffffffffff00
ffffffffffffff00
ffffffffffffff00
ffffffffffffff00
ffffffffffffff00
ffffffffffffff00
ffffffffffffff00
ffffffffffffffff
ffffffffffffffff
ffffffffffffffff
ffffffffffffffff
ffffffffffffffff
ffffffffffffffff
ffffffffffffffff
ffffffffffffffff
ffffffffffffffff
ffffffffffffffff
ffffffffffffffff
ffffffffffffffff
ffffffffffffffff
ffffffffffffffff
ffffffffffffffff
ffffffffffffffff
ffffffffffffff00
ffffffffffffff00
ffffffffffffff00
ffffffffffffff00
ffffffffffffff00
ffffffffffffff00
ffffffffffffff00
ffffffffffffff00
ffffffffffffff00
ffffffffffffff00
ffffffffffffff00
ffffffffffffff00
ffffffffffffff00
ffffffffffffff00
ffffffffffffff00
ffffffffffffff00
0000000000000000
0000000000000000
0000000000000000
0000000000000000
0000000000000000
0000000000000000
0000000000000000
0000000000000000
ENDCHAR
STARTCHAR /home/kraus/git/open-iconic/png/bluetooth-8x.png
ENCODING 74
DWIDTH 64 0
BBX 64 64 0 0
BITMAP
00000f8000000000
00000fc000000000
00000fe000000000
00000ff800000000
00000ffc00000000
00000fff00000000
00000fff80000000
00000fffc0000000
00000ffff0000000
00000ffff8000000
00000ffffe000000
00000fffff000000
00000ff7ff800000
00000ff3ffe00000
00000ff0fff00000
00060ff07ffc0000
000f0ff01ffe0000
001f8ff00fff0000
003fcff003ffc000
007feff001ffe000
007ffff001ffe000
003ffff003ffc000
001ffff00fff0000
000ffff01ffe0000
0007fff07ff80000
0003fff0fff00000
0001fff3ffc00000
0000fff7ff000000
00007ffffe000000
00003ffff8000000
00001ffff0000000
00000fffc0000000
00000fffe0000000
00001ffff8000000
00003ffffc000000
00007fffff000000
0000fff7ff800000
0001fff3ffc00000
0003fff0fff00000
0007fff07ff80000
000ffff01ffe0000
001ffff00fff0000
003ffff003ffc000
007ffff001ffe000
007feff001ffe000
003fcff003ffc000
001f8ff00fff0000
000f0ff01ffe0000
00060ff07ffc0000
00000ff0fff00000
00000ff3ffe00000
00000ff7ff800000
00000fffff000000
00000ffffe000000
00000ffff8000000
00000ffff0000000
00000fffc0000000
00000fff80000000
00000fff00000000
00000ffc00000000
00000ff800000000
00000fe000000000
00000fc000000000
00000f8000000000
ENDCHAR
STARTCHAR /home/kraus/git/open-iconic/png/contrast-8x.png
ENCODING 75
DWIDTH 64 0
BBX 64 64 0 0
BITMAP
0000003ffc000000
000003ffffc00000
00000ffffff00000
00007ffffffc0000
0000ffffffff0000
0003ffffffffc000
0007ffffffffe000
001ffffffffff800
003fffff07fffc00
007fffff00fffe00
00ffffff001fff00
01ffffff000fff80
01ffffff0003ff80
03ffffff0001ffc0
07ffffff0000ffe0
07ffffff00007fe0
0fffffff00003ff0
1fffffff00001ff0
1fffffff00000ff8
1fffffff00000ff8
3fffffff000007fc
3fffffff000003fc
7fffffff000003fe
7fffffff000003fe
7fffffff000001fe
7fffffff000001fe
ffffffff000001ff
ffffffff000000ff
ffffffff000000ff
ffffffff000000ff
ffffffff000000ff
ffffffff000000ff
ffffffff000000ff
ffffffff000000ff
ffffffff000000ff
ffffffff000000ff
ffffffff000000ff
ffffffff000001ff
7fffffff000001fe
7fffffff000001fe
7fffffff000003fe
7fffffff000003fe
3fffffff000003fc
3fffffff000007fc
1fffffff00000ff8
1fffffff00000ff8
0fffffff00001ff0
0fffffff00003ff0
07ffffff00007fe0
07ffffff0000ffe0
03ffffff0001ffc0
01ffffff0003ff80
01ffffff000fff00
00ffffff001fff00
007fffff00fffe00
003fffff07fffc00
001ffffffffff000
0007ffffffffe000
0003ffffffffc000
0000ffffffff0000
00003ffffffc0000
00000ffffff00000
000003ffffc00000
0000003ffc000000
ENDCHAR
STARTCHAR /home/kraus/git/open-iconic/png/hard-drive-8x.png
ENCODING 76
DWIDTH 64 0
BBX 64 64 0 0
BITMAP
ffffffffffffff00
ffffffffffffff00
ffffffffffffff00
ffffffffffffff00
ffffffffffffff00
ffffffffffffff00
ffffffffffffff00
ffffffffffffff00
ffffffffffffff00
ffffffffffffff00
ffffffffffffff00
ffffffffffffff00
ffffffffffffff00
ffffffffffffff00
ffffffffffffff00
ffffffffffffff00
ffffffffffffff00
ffffffffffffff00
ffffffffffffff00
ffffffffffffff00
ffffffffffffff00
ffffffffffffff00
ffffffffffffff00
ffffffffffffff00
ffffffffffffff00
ffffffffffffff00
ffffffffffffff00
ffffffffffffff00
ffffffffffffff00
ffffffffffffff00
7ffffffffffffe00
3ffffffffffffc00
0000000000000000
0000000000000000
0000000000000000
0000000000000000
0000000000000000
0000000000000000
0000000000000000
8000000000000100
ffffffffffffff00
ffffffffffffff00
ffffffffffffff00
ffffffffffffff00
ffffffffffffff00
ffffffffffffff00
ffffffffffffff00
ffffffffffffff00
ffffffffffc3ff00
ffffffffff81ff00
ffffffffff00ff00
ffffffffff00ff00
ffffffffff00ff00
ffffffffff00ff00
ffffffffff81ff00
ffffffffffc3ff00
ffffffffffffff00
ffffffffffffff00
ffffffffffffff00
ffffffffffffff00
ffffffffffffff00
ffffffffffffff00
ffffffffffffff00
ffffffffffffff00
ENDCHAR
STARTCHAR /home/kraus/git/open-iconic/png/lightbulb-8x.png
ENCODING 77
DWIDTH 64 0
BBX 64 64 0 0
BITMAP
000000003c000000
00000000fe000000
00000003ff000000
0000000fff000000
0000003fff000000
000000ffff000000
000003fffe000000
00000ffffc000000
00003ffff0000000
0000ffffc0000000
0003ffff00000000
000ffffc00000000
003ffff0003c0000
007fffc000fe0000
00ffff0003ff0000
01fffc000fff0000
01fff0003fff0000
00ffc000ffff0000
00ff0003fffe0000
007c000ffffc0000
0000003ffff00000
000000ffffc00000
000003ffff000000
00000ffffc000000
00003ffff0000000
0000ffffc0000000
0003ffff00000000
000ffffc00000000
003ffff0003c0000
007fffc000fe0000
00ffff0003ff0000
01fffc000fff0000
01fff0003fff0000
00ffc000ffff0000
00ff0003fffe0000
007c000ffffc0000
0000003ffff00000
000000ffffc00000
000003ffff000000
00000ffffc000000
00003ffffe000000
00007fffff000000
0000ffffff000000
0000ffffff800000
0000ffffff800000
0000ffffff000000
00007fffff000000
00003ffffe000000
0000000000000000
0000000000000000
0000000000000000
0000000000000000
0000000000000000
0000000000000000
0000000000000000
0000000000000000
000007ffc0000000
00000fffe0000000
00000ffff0000000
00001ffff0000000
00001ffff0000000
00000ffff0000000
00000fffe0000000
000007ffc0000000
ENDCHAR
STARTCHAR /home/kraus/git/open-iconic/png/power-standby-8x.png
ENCODING 78
DWIDTH 64 0
BBX 64 64 0 0
BITMAP
000000ff00000000
000000ff00000000
000000ff00000000
000000ff00000000
000000ff00000000
000000ff00000000
000000ff00000000
000000ff00000000
000000ff00000000
000000ff00000000
000000ff00000000
000000ff00000000
000600ff00600000
001e00ff00780000
003f00ff00fc0000
007f80ff01fe0000
00ffc0ff03ff0000
01ffe0ff07ff8000
03ffc0ff03ffc000
07ff00ff01ffe000
07fe00ff007fe000
0ffc00ff003ff000
0ff800ff001ff000
1ff000ff000ff800
3ff000ff000ff800
3fe000ff0007fc00
3fc000ff0003fc00
7fc000ff0003fe00
7f8000ff0001fe00
7f8000ff0001fe00
7f8000ff0001fe00
ff0000ff0001ff00
ff0000000000ff00
ff0000000000ff00
ff0000000000ff00
ff0000000000ff00
ff0000000000ff00
ff0000000000ff00
ff0000000000ff00
ff0000000000ff00
ff8000000001ff00
7f8000000001fe00
7f8000000001fe00
7f8000000001fe00
7fc000000003fe00
3fc000000003fc00
3fe000000007fc00
3ff00000000ff800
1ff00000000ff800
1ff80000001ff000
0ffc0000003ff000
07fe0000007fe000
07ff800001ffe000
03ffc00003ffc000
01fff0000fff8000
00ffff00ffff0000
007ffffffffe0000
003ffffffffc0000
001ffffffff80000
0007ffffffe00000
0003ffffff800000
00007ffffe000000
00001ffff8000000
000001ff80000000
ENDCHAR
STARTCHAR /home/kraus/git/open-iconic/png/reload-8x.png
ENCODING 79
DWIDTH 64 0
BBX 64 64 0 0
BITMAP
0000003ff8000000
000003ffff800003
00000ffffff00007
00007ffffffc000f
0000ffffffff001f
0003ffffffffc03f
0007ffffffffe07f
001ffffffffff0ff
003fffe007fff9ff
007fff0000ffffff
00fff800003fffff
01ffe000000fffff
01ffc0000007ffff
03ff80000001ffff
07fe00000000ffff
07fc00000000ffff
0ffc00000001ffff
1ff800000003ffff
1ff000000007ffff
1fe00000000fffff
3fe00000001fffff
3fc00000003fffff
7fc00000007fffff
7f80000000ffffff
7f80000000000000
7f80000000000000
ff80000000000000
ff00000000000000
ff00000000000000
ff00000000000000
ff00000000000000
ff00000000000000
ff00000000000000
ff00000000000000
ff00000000000000
ff00000000000000
ff00000000000000
ff80000000000000
7f80000000000000
7f80000000000000
7f80000000000000
7fc0000000000000
3fc0000000000000
3fe0000000000000
1fe0000000000000
1ff0000000000000
0ff8000000000000
0ffc000000000000
07fc000000000000
07fe000000008000
03ff80000001c000
01ffc0000003e000
01ffe000000ff000
00fff800001ff800
007fff0000fffc00
003fffe007fffc00
001ffffffffff800
0007fffffffff000
0003ffffffffc000
0000ffffffff8000
00003ffffffe0000
00000ffffff80000
000003ffffc00000
0000003ffc000000
ENDCHAR
STARTCHAR /home/kraus/git/open-iconic/png/wifi-8x.png
ENCODING 80
DWIDTH 64 0
BBX 64 64 0 0
BITMAP
000001fffc000000
00007fffffe00000
0007fffffffe0000
001fffffffffc000
00fffffffffff000
03fffffffffffc00
0fffffffffffff00
3fffffffffffffc0
fffffc0003fffff0
7fff8000001ffff0
7ffc00000003ffe0
3fe0000000007fc0
3f80000000001fc0
1e00000000000780
0800000000000100
0000000000000000
0000000000000000
0000000000000000
0000000000000000
0000000000000000
0000000000000000
0000000000000000
0000000000000000
0000000000000000
000000ffe0000000
00000fffff000000
00003fffffc00000
0000fffffff00000
0003fffffffc0000
0007fffffffe0000
0003fffffffc0000
0001fffffffc0000
0001ff801ff80000
0000fc0003f00000
0000e00000700000
0000400000000000
0000000000000000
0000000000000000
0000000000000000
0000000000000000
0000000000000000
0000000000000000
0000000000000000
0000000000000000
0000000000000000
0000000000000000
0000000000000000
0000000000000000
0000001f80000000
0000007fe0000000
000000fff0000000
000001fff8000000
000001fff8000000
000003fffc000000
000003fffc000000
000003fffc000000
000003fffc000000
000003fffc000000
000003fffc000000
000001fff8000000
000001fff8000000
000000fff0000000
0000007fe0000000
0000001f80000000
ENDCHAR
