STARTFONT 2.1
FONT "open_iconic_app_8x"
SIZE 16 75 75
FONTBOUNDINGBOX 16 16 0 0
STARTPROPERTIES 3
COPYRIGHT "https://github.com/iconic/open-iconic, SIL OPEN FONT LICENSE"
FONT_ASCENT 0
FONT_DESCENT 0
ENDPROPERTIES
STARTCHAR /home/kraus/git/open-iconic/png/aperture-8x.png
ENCODING 64
DWIDTH 64 0
BBX 64 64 0 0
BITMAP
0000001ff8000000
000001ffff800000
00000ffffff00000
00003ffffffc0000
00007fffffff0000
00001fffffff0000
00000fffffff0000
000003ffffff0000
000001fffffe0000
002000fffffe0000
0070003ffffe0000
00f8001ffffc0100
01fe000ffffc0380
03ff0003fffc03c0
07ff8001fff803e0
07ffe0007ff807e0
0ffff0003ff807f0
0ffffc001ff007f0
1ffffe0007f00ff8
1fffff0003f00ff8
3fffff8001e00ffc
3ffffe0000601ffc
3ffffc0000001ffe
7ffff00000001ffe
7fffe00000003ffe
7fffc00000003ffe
7fff000000003fff
fffe000000007fff
fff8000000007fff
fff0000000007fff
ffe000000000ffff
ff8000000000ffff
ff0000000000ffff
fc0000000001ffff
f80000000001ffff
f00000000001ffff
c00080000003ffff
0001c0000003fffe
0003c0000003fffe
000fc0000007fffe
001fe00000000000
007fe00000000000
00ffe00000000000
01fff00000000000
07fff00000000000
0ffff00000000000
0ffff80000000000
0ffff80000000000
07fff803ffffffe0
07fffc03ffffffe0
03fffc01ffffffc0
01fffc01ffffff80
00fffe01ffffff00
00fffe01ffffff00
007ffe00fffffe00
003fff00fffffc00
000fff00fffff000
0007ff007fffe000
0003ff807fffc000
0000ff807fff0000
00007f803ffc0000
00001fc03ff00000
000003c03f800000
0000000018000000
ENDCHAR
STARTCHAR /home/kraus/git/open-iconic/png/calculator-8x.png
ENCODING 65
DWIDTH 64 0
BBX 64 64 0 0
BITMAP
ffffffffffffff00
ffffffffffffff00
ffffffffffffff00
ffffffffffffff00
ffffffffffffff00
ffffffffffffff00
ffffffffffffff00
ffffffffffffff00
ff0000000000ff00
ff0000000000ff00
ff0000000000ff00
ff0000000000ff00
ff0000000000ff00
ff0000000000ff00
ff0000000000ff00
ff0000000000ff00
ff0000000000ff00
ff0000000000ff00
ff0000000000ff00
ff0000000000ff00
ff0000000000ff00
ff0000000000ff00
ff0000000000ff00
ff0000000000ff00
ffffffffffffff00
ffffffffffffff00
ffffffffffffff00
ffffffffffffff00
ffffffffffffff00
ffffffffffffff00
ffffffffffffff00
ffffffffffffff00
ff00ff00ff00ff00
ff00ff00ff00ff00
ff00ff00ff00ff00
ff00ff00ff00ff00
ff00ff00ff00ff00
ff00ff00ff00ff00
ff00ff00ff00ff00
ff00ff00ff00ff00
ffffffffff00ff00
ffffffffff00ff00
ffffffffff00ff00
ffffffffff00ff00
ffffffffff00ff00
ffffffffff00ff00
ffffffffff00ff00
ffffffffff00ff00
ff00ff00ff00ff00
ff00ff00ff00ff00
ff00ff00ff00ff00
ff00ff00ff00ff00
ff00ff00ff00ff00
ff00ff00ff00ff00
ff00ff00ff00ff00
ff00ff00ff00ff00
ffffffffffffff00
ffffffffffffff00
ffffffffffffff00
ffffffffffffff00
ffffffffffffff00
ffffffffffffff00
ffffffffffffff00
ffffffffffffff00
ENDCHAR
STARTCHAR /home/kraus/git/open-iconic/png/calendar-8x.png
ENCODING 66
DWIDTH 64 0
BBX 64 64 0 0
BITMAP
ffffffffffffff00
ffffffffffffff00
ffffffffffffff00
ffffffffffffff00
ffffffffffffff00
ffffffffffffff00
ffffffffffffff00
ffffffffffffff00
ffffffffffffff00
ffffffffffffff00
ffffffffffffff00
ffffffffffffff00
ffffffffffffff00
ffffffffffffff00
ffffffffffffff00
ffffffffffffff00
0000000000000000
0000000000000000
0000000000000000
0000000000000000
0000000000000000
0000000000000000
0000000000000000
0000000000000000
ffffffffffffff00
ffffffffffffff00
ffffffffffffff00
ffffffffffffff00
ffffffffffffff00
ffffffffffffff00
ffffffffffffff00
ffffffffffffff00
ff00ff00ff00ff00
ff00ff00ff00ff00
ff00ff00ff00ff00
ff00ff00ff00ff00
ff00ff00ff00ff00
ff00ff00ff00ff00
ff00ff00ff00ff00
ff00ff00ff00ff00
ffffffffffffff00
ffffffffffffff00
ffffffffffffff00
ffffffffffffff00
ffffffffffffff00
ffffffffffffff00
ffffffffffffff00
ffffffffffffff00
ff00ff00ffffff00
ff00ff00ffffff00
ff00ff00ffffff00
ff00ff00ffffff00
ff00ff00ffffff00
ff00ff00ffffff00
ff00ff00ffffff00
ff00ff00ffffff00
ffffffffffffff00
ffffffffffffff00
ffffffffffffff00
ffffffffffffff00
ffffffffffffff00
ffffffffffffff00
ffffffffffffff00
ffffffffffffff00
ENDCHAR
STARTCHAR /home/kraus/git/open-iconic/png/camera-slr-8x.png
ENCODING 67
DWIDTH 64 0
BBX 64 64 0 0
BITMAP
00000000ffff0000
00000001ffff0000
00000001ffff8000
00000003ffff8000
00000003ffffc000
00000007ffffc000
00000007ffffe000
0000000fffffe000
0000000ffffff000
0000001ffffff800
0000001ffffff800
0000003ffffffc00
0000003ffffffc00
0000007ffffffe00
0000007ffffffe00
000000ffffffff00
00ffffffffffffff
03ffffffffffffff
0fffffffffffffff
1fffffffffffffff
3fffffffffffffff
3fffffffffffffff
7fffffffffffffff
7fffffffffffffff
ffc3fffff00fffff
ff81ffff8001ffff
ff00fffe00007fff
ff00fffc00003fff
ff00fff800001fff
ff00fff000000fff
ff81ffe0000007ff
ffc3ffc0000003ff
ffffffc007e003ff
ffffff801ff801ff
ffffff803ffc01ff
ffffff807ffe01ff
ffffff007ffe00ff
ffffff00ffff00ff
ffffff00ffff00ff
ffffff00ffff00ff
ffffff00ffff00ff
ffffff00ffff00ff
ffffff00ffff00ff
ffffff007ffe00ff
ffffff807ffe01ff
ffffff803ffc01ff
ffffff801ff801ff
ffffffc007e003ff
ffffffc0000003ff
ffffffe0000007ff
fffffff000000fff
fffffff800001fff
fffffffc00003fff
fffffffe00007fff
ffffffff8001ffff
fffffffff00fffff
ffffffffffffffff
ffffffffffffffff
ffffffffffffffff
ffffffffffffffff
ffffffffffffffff
ffffffffffffffff
ffffffffffffffff
ffffffffffffffff
ENDCHAR
STARTCHAR /home/kraus/git/open-iconic/png/chat-8x.png
ENCODING 68
DWIDTH 64 0
BBX 64 64 0 0
BITMAP
ffffffffff000000
ffffffffff000000
ffffffffff000000
ffffffffff000000
ffffffffff000000
ffffffffff000000
ffffffffff000000
ffffffffff000000
ffff000000000000
ffff000000000000
ffff000000000000
ffff000000000000
ffff000000000000
ffff000000000000
ffff000000000000
ffff000000000000
ffff00ffffffffff
ffff00ffffffffff
ffff00ffffffffff
ffff00ffffffffff
ffff00ffffffffff
ffff00ffffffffff
ffff00ffffffffff
ffff00ffffffffff
ffff00ffffffffff
ffff00ffffffffff
ffff00ffffffffff
ffff00ffffffffff
ffff00ffffffffff
ffff00ffffffffff
ffff00ffffffffff
ffff00ffffffffff
fe0000ffffffffff
fc0000ffffffffff
f80000ffffffffff
f00000ffffffffff
e00000ffffffffff
c00000ffffffffff
800000ffffffffff
000000ffffffffff
000000ffffffffff
000000ffffffffff
000000ffffffffff
000000ffffffffff
000000ffffffffff
000000ffffffffff
000000ffffffffff
000000ffffffffff
000000000000007f
000000000000003f
000000000000001f
000000000000000f
0000000000000007
0000000000000003
0000000000000001
0000000000000000
0000000000000000
0000000000000000
0000000000000000
0000000000000000
0000000000000000
0000000000000000
0000000000000000
0000000000000000
ENDCHAR
STARTCHAR /home/kraus/git/open-iconic/png/clock-8x.png
ENCODING 69
DWIDTH 64 0
BBX 64 64 0 0
BITMAP
0000003ffc000000
000003ffffc00000
00000ffffff00000
00007ffffffc0000
0000ffffffff0000
0003ffffffffc000
0007ffffffffe000
001ffffffffff800
003fffe007fffc00
007fff0000fffe00
00fff800001fff00
01fff000000fff80
01ffc0000003ff80
03ff80000001ffc0
07ff00000000ffe0
07fe000000007fe0
0ffc000ff0003ff0
1ff8000ff0001ff0
1ff0000ff0000ff8
1ff0000ff0000ff8
3fe0000ff00007fc
3fc0000ff00003fc
7fc0000ff00003fe
7fc0000ff00003fe
7f80000ff00001fe
7f80000ff00001fe
ff80000ff00001ff
ff00000ff00000ff
ff00000ff00000ff
ff00000ff00000ff
ff00000ff00000ff
ff00000ff80000ff
ff00000ffc0000ff
ff00000ffe0000ff
ff000007ff0000ff
ff000003ff8000ff
ff000001ff8000ff
ff800000ff0001ff
7f8000007e0001fe
7f8000003c0001fe
7fc00000180003fe
7fc00000000003fe
3fc00000000003fc
3fe00000000007fc
1ff0000000000ff8
1ff0000000000ff8
0ff8000000001ff0
0ffc000000003ff0
07fe000000007fe0
07ff00000000ffe0
03ff80000001ffc0
01ffc0000003ff80
01fff000000fff00
00fff800001fff00
007fff0000fffe00
003fffe007fffc00
001ffffffffff000
0007ffffffffe000
0003ffffffffc000
0000ffffffff0000
00003ffffffc0000
00000ffffff00000
000003ffffc00000
0000003ffc000000
ENDCHAR
STARTCHAR /home/kraus/git/open-iconic/png/compass-8x.png
ENCODING 70
DWIDTH 64 0
BBX 64 64 0 0
BITMAP
0000003ffc000000
000003ffffc00000
00000ffffff00000
00007ffffffc0000
0000ffffffff0000
0003ffffffffc000
0007ffffffffe000
001ffffffffff800
003fffe007fffc00
007fff0000fffe00
00fff800001fff00
01fff000000fff80
01ffc0000003ff80
03ff80000001ffc0
07ff00000000ffe0
07fe000000007fe0
0ffc000000013ff0
1ff80000000e1ff0
1ff00000007e0ff8
1ff0000003fe0ff8
3fe000001ffc07fc
3fc00000fffc03fc
7fc00007fffc03fe
7fc0003ffff803fe
7f8000fffff801fe
7f8000fffff801fe
ff8001fffff001ff
ff0001fffff000ff
ff0001fc3ff000ff
ff0003f81fe000ff
ff0003f00fe000ff
ff0003f00fe000ff
ff0007f00fc000ff
ff0007f00fc000ff
ff0007f81fc000ff
ff000ffc3f8000ff
ff000fffff8000ff
ff800fffff8001ff
7f801fffff0001fe
7f801fffff0001fe
7fc01ffffc0003fe
7fc03fffe00003fe
3fc03fff000003fc
3fe03ff8000007fc
1ff07fc000000ff8
1ff07e0000000ff8
0ff8700000001ff0
0ffc800000003ff0
07fe000000007fe0
07ff00000000ffe0
03ff80000001ffc0
01ffc0000003ff80
01fff000000fff00
00fff800001fff00
007fff0000fffe00
003fffe007fffc00
001ffffffffff000
0007ffffffffe000
0003ffffffffc000
0000ffffffff0000
00003ffffffc0000
00000ffffff00000
000003ffffc00000
0000003ffc000000
ENDCHAR
STARTCHAR /home/kraus/git/open-iconic/png/shield-8x.png
ENCODING 71
DWIDTH 64 0
BBX 64 64 0 0
BITMAP
0000000180000000
00000007e0000000
0000003ffc000000
000000ffff000000
000007ffffe00000
00001ffffff80000
00007ffffffe0000
0003ffffffffc000
000ffffffffff000
003ffffcfffffc00
01fffff0ffffff80
07ffff80ffffffe0
3ffffe00fffffffc
fffff800ffffffff
ffffc000ffffffff
ffff0000ffffffff
fff80000ffffffff
ffe00000ffffffff
ff800000ffffffff
ff800000ffffffff
ff800000ffffffff
ff800000ffffffff
ff800000ffffffff
7f800000fffffffe
7f800000fffffffe
7f800000fffffffe
7fc00000fffffffe
7fc00000fffffffe
3fc00000fffffffc
3fc00000fffffffc
3fe00000fffffffc
3fe00000fffffffc
1ff00000fffffff8
1ff00000fffffff8
1ff00000fffffff8
0ff80000fffffff0
0ff80000fffffff0
07fc0000ffffffe0
07fc0000ffffffe0
03fe0000ffffffc0
03fe0000ffffffc0
01ff0000ffffff80
01ff8000ffffff80
00ff8000ffffff00
00ffc000ffffff00
007fe000fffffe00
003ff000fffffc00
003ff000fffffc00
001ff800fffff800
000ffc00fffff000
0007fe00ffffe000
0007ff00ffffe000
0003ff80ffffc000
0001ffe0ffff8000
0000fff0ffff0000
00007ffcfffe0000
00003ffffffc0000
00001ffffff80000
00000ffffff00000
000007ffffe00000
000001ffff800000
000000ffff000000
0000003ffc000000
00000007e0000000
ENDCHAR
STARTCHAR /home/kraus/git/open-iconic/png/timer-8x.png
ENCODING 72
DWIDTH 64 0
BBX 64 64 0 0
BITMAP
0000ffffff000000
0000ffffff000000
0000ffffff000000
0000ffffff000000
0000ffffff000000
0000ffffff000000
0000ffffff000000
0000ffffff000000
000001ff00000000
00001ffff8000000
0000fffff8000000
0003fffff8000400
0007fffff8000800
001ffffff0001000
003ffffff0007000
007ffffff000e000
00ffff00e001c000
01fff80000078000
03ffc000000f0000
07ff8000001e0000
07fe0000007e0000
0ffc000000fc0000
1ff8000001f80000
1ff0000003f00000
3ff000000fe00000
3fe000001fc00000
3fc000003f800400
7fc00000ff803e00
7f800001ff00fe00
7f800003fe01fe00
7f800007fc01fe00
ff80001ff801ff00
ff00003ff000ff00
ff00007fe000ff00
ff0000ffe000ff00
ff0000ffc000ff00
ff0000ff8000ff00
ff0000ff0000ff00
ff00007e0000ff00
ff00003c0000ff00
ff0000000000ff00
7f8000000001fe00
7f8000000001fe00
7f8000000001fe00
7fc000000003fe00
3fc000000003fc00
3fe000000007fc00
3ff00000000ff800
1ff00000000ff800
1ff80000001ff000
0ffc0000003ff000
07fe0000007fe000
07ff800001ffe000
03ffc00003ffc000
01fff0000fff8000
00fffe007fff0000
007ffffffffe0000
003ffffffffc0000
001ffffffff80000
0007ffffffe00000
0003ffffff800000
00007ffffe000000
00001ffff8000000
000001ff80000000
ENDCHAR
