STARTFONT 2.1
FONT "open_iconic_text_8x"
SIZE 16 75 75
FONTBOUNDINGBOX 16 16 0 0
STARTPROPERTIES 3
COPYRIGHT "https://github.com/iconic/open-iconic, SIL OPEN FONT LICENSE"
FONT_ASCENT 0
FONT_DESCENT 0
ENDPROPERTIES
STARTCHAR /home/kraus/git/open-iconic/png/align-center-8x.png
ENCODING 64
DWIDTH 64 0
BBX 64 64 0 0
BITMAP
ffffffffffffffff
ffffffffffffffff
ffffffffffffffff
ffffffffffffffff
ffffffffffffffff
ffffffffffffffff
ffffffffffffffff
ffffffffffffffff
0000000000000000
0000000000000000
0000000000000000
0000000000000000
0000000000000000
0000000000000000
0000000000000000
0000000000000000
00ffffffffffff00
00ffffffffffff00
00ffffffffffff00
00ffffffffffff00
00ffffffffffff00
00ffffffffffff00
00ffffffffffff00
00ffffffffffff00
0000000000000000
0000000000000000
0000000000000000
0000000000000000
0000000000000000
0000000000000000
0000000000000000
0000000000000000
ffffffffffffffff
ffffffffffffffff
ffffffffffffffff
ffffffffffffffff
ffffffffffffffff
ffffffffffffffff
ffffffffffffffff
ffffffffffffffff
0000000000000000
0000000000000000
0000000000000000
0000000000000000
0000000000000000
0000000000000000
0000000000000000
0000000000000000
00ffffffffffff00
00ffffffffffff00
00ffffffffffff00
00ffffffffffff00
00ffffffffffff00
00ffffffffffff00
00ffffffffffff00
00ffffffffffff00
0000000000000000
0000000000000000
0000000000000000
0000000000000000
0000000000000000
0000000000000000
0000000000000000
0000000000000000
ENDCHAR
STARTCHAR /home/kraus/git/open-iconic/png/align-left-8x.png
ENCODING 65
DWIDTH 64 0
BBX 64 64 0 0
BITMAP
ffffffffffffffff
ffffffffffffffff
ffffffffffffffff
ffffffffffffffff
ffffffffffffffff
ffffffffffffffff
ffffffffffffffff
ffffffffffffffff
0000000000000000
0000000000000000
0000000000000000
0000000000000000
0000000000000000
0000000000000000
0000000000000000
0000000000000000
ffffffffffff0000
ffffffffffff0000
ffffffffffff0000
ffffffffffff0000
ffffffffffff0000
ffffffffffff0000
ffffffffffff0000
ffffffffffff0000
0000000000000000
0000000000000000
0000000000000000
0000000000000000
0000000000000000
0000000000000000
0000000000000000
0000000000000000
ffffffffffffffff
ffffffffffffffff
ffffffffffffffff
ffffffffffffffff
ffffffffffffffff
ffffffffffffffff
ffffffffffffffff
ffffffffffffffff
0000000000000000
0000000000000000
0000000000000000
0000000000000000
0000000000000000
0000000000000000
0000000000000000
0000000000000000
ffffffffffff0000
ffffffffffff0000
ffffffffffff0000
ffffffffffff0000
ffffffffffff0000
ffffffffffff0000
ffffffffffff0000
ffffffffffff0000
0000000000000000
0000000000000000
0000000000000000
0000000000000000
0000000000000000
0000000000000000
0000000000000000
0000000000000000
ENDCHAR
STARTCHAR /home/kraus/git/open-iconic/png/align-right-8x.png
ENCODING 66
DWIDTH 64 0
BBX 64 64 0 0
BITMAP
ffffffffffffffff
ffffffffffffffff
ffffffffffffffff
ffffffffffffffff
ffffffffffffffff
ffffffffffffffff
ffffffffffffffff
ffffffffffffffff
0000000000000000
0000000000000000
0000000000000000
0000000000000000
0000000000000000
0000000000000000
0000000000000000
0000000000000000
0000ffffffffffff
0000ffffffffffff
0000ffffffffffff
0000ffffffffffff
0000ffffffffffff
0000ffffffffffff
0000ffffffffffff
0000ffffffffffff
0000000000000000
0000000000000000
0000000000000000
0000000000000000
0000000000000000
0000000000000000
0000000000000000
0000000000000000
ffffffffffffffff
ffffffffffffffff
ffffffffffffffff
ffffffffffffffff
ffffffffffffffff
ffffffffffffffff
ffffffffffffffff
ffffffffffffffff
0000000000000000
0000000000000000
0000000000000000
0000000000000000
0000000000000000
0000000000000000
0000000000000000
0000000000000000
0000ffffffffffff
0000ffffffffffff
0000ffffffffffff
0000ffffffffffff
0000ffffffffffff
0000ffffffffffff
0000ffffffffffff
0000ffffffffffff
0000000000000000
0000000000000000
0000000000000000
0000000000000000
0000000000000000
0000000000000000
0000000000000000
0000000000000000
ENDCHAR
STARTCHAR /home/kraus/git/open-iconic/png/bold-8x.png
ENCODING 67
DWIDTH 64 0
BBX 64 64 0 0
BITMAP
fffffffffff00000
fffffffffffe0000
ffffffffffff8000
ffffffffffffc000
ffffffffffffe000
fffffffffffff000
fffffffffffff800
fffffffffffffc00
1fffff001ffffc00
07ffff0007fffe00
03ffff0003fffe00
01ffff0001fffe00
01ffff0001ffff00
00ffff0000ffff00
00ffff0000ffff00
00ffff0000ffff00
00ffff0000ffff00
00ffff0000ffff00
00ffff0000ffff00
00ffff0001ffff00
00ffff0001fffe00
00ffff0003fffe00
00ffff0007fffe00
00ffff001ffffc00
00fffffffffffc00
00fffffffffff800
00fffffffffff800
00fffffffffffe00
00ffffffffffff00
00ffffffffffffc0
00ffffffffffffe0
00fffffffffffff0
00ffff0001fffff0
00ffff00003ffff8
00ffff00001ffffc
00ffff00000ffffc
00ffff000007fffc
00ffff000003fffe
00ffff000001fffe
00ffff000001fffe
00ffff000001ffff
00ffff000000ffff
00ffff000000ffff
00ffff000000ffff
00ffff000000ffff
00ffff000000ffff
00ffff000000ffff
00ffff000001ffff
00ffff000001fffe
00ffff000001fffe
00ffff000003fffe
01ffff000007fffe
01ffff00000ffffc
03ffff00001ffffc
07ffff00003ffff8
1fffff0001fffff0
fffffffffffffff0
ffffffffffffffe0
ffffffffffffffc0
ffffffffffffff80
fffffffffffffe00
fffffffffffffc00
fffffffffffff000
ffffffffffff0000
ENDCHAR
STARTCHAR /home/kraus/git/open-iconic/png/code-8x.png
ENCODING 68
DWIDTH 64 0
BBX 64 64 0 0
BITMAP
0000000000000000
0000000000000000
0000000000000000
0000000000000000
0000000000000000
0000000000000000
0000000000000000
0000000000000000
0000000000ff0000
0000000001fe0000
0000000001fe0000
0000000003fc0000
0000000003fc0000
0000000007f80000
0000000007f80000
000000000ff00000
00ff00000ff0ff00
01fe00001fe07f80
01fe00001fe07f80
03fc00003fc03fc0
03fc00003fc03fc0
07f800007f801fe0
07f800007f801fe0
0ff00000ff000ff0
0ff00000ff000ff0
1fe00001fe0007f8
1fe00001fe0007f8
3fc00003fc0003fc
3fc00003fc0003fc
7f800007f80001fe
7f800007f80001fe
ff00000ff00000ff
ff00000ff00000ff
7f80001fe00001fe
7f80001fe00001fe
3fc0003fc00003fc
3fc0003fc00003fc
1fe0007f800007f8
1fe0007f800007f8
0ff000ff00000ff0
0ff000ff00000ff0
07f801fe00001fe0
07f801fe00001fe0
03fc03fc00003fc0
03fc03fc00003fc0
01fe07f800007f80
01fe07f800007f80
00ff0ff00000ff00
00000ff000000000
00001fe000000000
00001fe000000000
00003fc000000000
00003fc000000000
00007f8000000000
00007f8000000000
0000ff0000000000
0000000000000000
0000000000000000
0000000000000000
0000000000000000
0000000000000000
0000000000000000
0000000000000000
0000000000000000
ENDCHAR
STARTCHAR /home/kraus/git/open-iconic/png/command-8x.png
ENCODING 69
DWIDTH 64 0
BBX 64 64 0 0
BITMAP
007e0000007e0000
03ffc00003ffc000
07ffe00007ffe000
0ffff0000ffff000
1ffff8001ffff800
3ffffc003ffffc00
7ffffe007ffffe00
7ffffe007ffffe00
7fc3fe007fc3fe00
ff81ff00ff81ff00
ff00ff00ff00ff00
ff00ff00ff00ff00
ff00ff00ff00ff00
ff00ff00ff00ff00
ff80ff00ff01ff00
7fc0ff00ff03fe00
7ffffffffffffe00
7ffffffffffffe00
3ffffffffffffc00
1ffffffffffff800
0ffffffffffff000
07ffffffffffe000
03ffffffffffc000
007ffffffffe0000
0000ff00ff000000
0000ff00ff000000
0000ff00ff000000
0000ff00ff000000
0000ff00ff000000
0000ff00ff000000
0000ff00ff000000
0000ff00ff000000
007ffffffffe0000
03ffffffffffc000
07ffffffffffe000
0ffffffffffff000
1ffffffffffff800
3ffffffffffffc00
7ffffffffffffe00
7ffffffffffffe00
7fc0ff00ff03fe00
ff80ff00ff01ff00
ff00ff00ff00ff00
ff00ff00ff00ff00
ff00ff00ff00ff00
ff00ff00ff00ff00
ff81ff00ff81ff00
7fc3fe007fc3fe00
7ffffe007ffffe00
7ffffe007ffffe00
3ffffc003ffffc00
1ffff8001ffff800
0ffff0000ffff000
07ffe00007ffe000
03ffc00003ffc000
007e0000007e0000
0000000000000000
0000000000000000
0000000000000000
0000000000000000
0000000000000000
0000000000000000
0000000000000000
0000000000000000
ENDCHAR
STARTCHAR /home/kraus/git/open-iconic/png/comment-square-8x.png
ENCODING 70
DWIDTH 64 0
BBX 64 64 0 0
BITMAP
ffffffffffffffff
ffffffffffffffff
ffffffffffffffff
ffffffffffffffff
ffffffffffffffff
ffffffffffffffff
ffffffffffffffff
ffffffffffffffff
ffffffffffffffff
ffffffffffffffff
ffffffffffffffff
ffffffffffffffff
ffffffffffffffff
ffffffffffffffff
ffffffffffffffff
ffffffffffffffff
ffffffffffffffff
ffffffffffffffff
ffffffffffffffff
ffffffffffffffff
ffffffffffffffff
ffffffffffffffff
ffffffffffffffff
ffffffffffffffff
ffffffffffffffff
ffffffffffffffff
ffffffffffffffff
ffffffffffffffff
ffffffffffffffff
ffffffffffffffff
ffffffffffffffff
ffffffffffffffff
ffffffffffffffff
ffffffffffffffff
ffffffffffffffff
ffffffffffffffff
ffffffffffffffff
ffffffffffffffff
ffffffffffffffff
ffffffffffffffff
ffffffffffffffff
ffffffffffffffff
ffffffffffffffff
ffffffffffffffff
ffffffffffffffff
ffffffffffffffff
ffffffffffffffff
ffffffffffffffff
0000000000007fff
0000000000003fff
0000000000001fff
0000000000000fff
00000000000007ff
00000000000003ff
00000000000001ff
00000000000000ff
000000000000007f
000000000000003f
000000000000001f
000000000000000f
0000000000000007
0000000000000003
0000000000000001
0000000000000000
ENDCHAR
STARTCHAR /home/kraus/git/open-iconic/png/copywriting-8x.png
ENCODING 71
DWIDTH 64 0
BBX 64 64 0 0
BITMAP
ffffffffffffffff
ffffffffffffffff
ffffffffffffffff
ffffffffffffffff
ffffffffffffffff
ffffffffffffffff
ffffffffffffffff
ffffffffffffffff
0000000000000000
0000000000000000
0000000000000000
0000000000000000
0000000000000000
0000000000000000
0000000000000000
0000000000000000
ffffffffff000000
ffffffffff000000
ffffffffff000000
ffffffffff000000
ffffffffff000000
ffffffffff000000
ffffffffff000000
ffffffffff000000
0000000000000000
0000000000000000
0000000000000000
0000000000000000
0000000000000000
0000000000000000
0000000000000000
0000000000000000
0000000000000000
0000000000000000
0000000000000000
0000000000000000
0000000000000000
0000000000000000
0000000000000000
0000000000000000
ffffffffffffffff
ffffffffffffffff
ffffffffffffffff
ffffffffffffffff
ffffffffffffffff
ffffffffffffffff
ffffffffffffffff
ffffffffffffffff
0000000000000000
0000000000000000
0000000000000000
0000000000000000
0000000000000000
0000000000000000
0000000000000000
0000000000000000
ffffffffffff003c
ffffffffffff007e
ffffffffffff00ff
ffffffffffff00ff
ffffffffffff00ff
ffffffffffff00ff
ffffffffffff007e
ffffffffffff003c
ENDCHAR
STARTCHAR /home/kraus/git/open-iconic/png/delete-8x.png
ENCODING 72
DWIDTH 64 0
BBX 64 64 0 0
BITMAP
0000000000000000
0000000000000000
0000000000000000
0000000000000000
0000000000000000
0000000000000000
0000000000000000
0000000000000000
0000ffffffffffff
0001ffffffffffff
0003ffffffffffff
0003ffffffffffff
0007ffffffffffff
000fffffffffffff
000fffffffffffff
001fffe7ffffe7ff
003fffc3ffffc3ff
003fff81ffff81ff
007fff00ffff00ff
00fffe007ffe007f
00fffe003ffc007f
01ffff001ff800ff
03ffff800ff001ff
03ffffc007e003ff
07ffffe003c007ff
0ffffff001800fff
0ffffff800001fff
1ffffffc00003fff
3ffffffe00007fff
3fffffff0000ffff
7fffffff8001ffff
ffffffffc003ffff
ffffffffc003ffff
7fffffff8001ffff
3fffffff0000ffff
3ffffffe00007fff
1ffffffc00003fff
0ffffff800001fff
0ffffff001800fff
07ffffe003c007ff
03ffffc007e003ff
03ffff800ff001ff
01ffff001ff800ff
00fffe003ffc007f
00fffe007ffe007f
007fff00ffff00ff
003fff81ffff81ff
003fffc3ffffc3ff
001fffe7ffffe7ff
000fffffffffffff
000fffffffffffff
0007ffffffffffff
0003ffffffffffff
0003ffffffffffff
0001ffffffffffff
0000ffffffffffff
0000000000000000
0000000000000000
0000000000000000
0000000000000000
0000000000000000
0000000000000000
0000000000000000
0000000000000000
ENDCHAR
STARTCHAR /home/kraus/git/open-iconic/png/double-quote-sans-left-8x.png
ENCODING 73
DWIDTH 64 0
BBX 64 64 0 0
BITMAP
0000000000000000
0000000000000000
0000000000000000
0000000000000000
0000000000000000
0000000000000000
0000000000000000
0000000000000000
ffffff0000ffffff
ffffff0000ffffff
ffffff0000ffffff
ffffff0000ffffff
ffffff0000ffffff
ffffff0000ffffff
ffffff0000ffffff
ffffff0000ffffff
ffffff0000ffffff
ffffff0000ffffff
ffffff0000ffffff
ffffff0000ffffff
ffffff0000ffffff
ffffff0000ffffff
ffffff0000ffffff
ffffff0000ffffff
ffffff0000ffffff
ffffff0000ffffff
ffffff0000ffffff
ffffff0000ffffff
ffffff0000ffffff
ffffff0000ffffff
ffffff0000ffffff
ffffff0000ffffff
fffffe0000fffffe
fffffc0000fffffc
fffff80000fffff8
fffff00000fffff0
ffffe00000ffffe0
ffffc00000ffffc0
ffff800000ffff80
ffff000000ffff00
fffe000000fffe00
fffc000000fffc00
fff8000000fff800
fff0000000fff000
ffe0000000ffe000
ffc0000000ffc000
ff80000000ff8000
ff00000000ff0000
fe00000000fe0000
fc00000000fc0000
f800000000f80000
f000000000f00000
e000000000e00000
c000000000c00000
8000000000800000
0000000000000000
0000000000000000
0000000000000000
0000000000000000
0000000000000000
0000000000000000
0000000000000000
0000000000000000
0000000000000000
ENDCHAR
STARTCHAR /home/kraus/git/open-iconic/png/double-quote-sans-right-8x.png
ENCODING 74
DWIDTH 64 0
BBX 64 64 0 0
BITMAP
0000000000000000
0000000000000000
0000000000000000
0000000000000000
0000000000000000
0000000000000000
0000000000000000
0000000000000000
0000000000000000
0000010000000001
0000030000000003
0000070000000007
00000f000000000f
00001f000000001f
00003f000000003f
00007f000000007f
0000ff00000000ff
0001ff00000001ff
0003ff00000003ff
0007ff00000007ff
000fff0000000fff
001fff0000001fff
003fff0000003fff
007fff0000007fff
00ffff000000ffff
01ffff000001ffff
03ffff000003ffff
07ffff000007ffff
0fffff00000fffff
1fffff00001fffff
3fffff00003fffff
7fffff00007fffff
ffffff0000ffffff
ffffff0000ffffff
ffffff0000ffffff
ffffff0000ffffff
ffffff0000ffffff
ffffff0000ffffff
ffffff0000ffffff
ffffff0000ffffff
ffffff0000ffffff
ffffff0000ffffff
ffffff0000ffffff
ffffff0000ffffff
ffffff0000ffffff
ffffff0000ffffff
ffffff0000ffffff
ffffff0000ffffff
ffffff0000ffffff
ffffff0000ffffff
ffffff0000ffffff
ffffff0000ffffff
ffffff0000ffffff
ffffff0000ffffff
ffffff0000ffffff
ffffff0000ffffff
0000000000000000
0000000000000000
0000000000000000
0000000000000000
0000000000000000
0000000000000000
0000000000000000
0000000000000000
ENDCHAR
STARTCHAR /home/kraus/git/open-iconic/png/double-quote-serif-left-8x.png
ENCODING 75
DWIDTH 64 0
BBX 64 64 0 0
BITMAP
0000000000000000
0000000000000000
0000000000000000
0000000000000000
0000000000000000
0000000000000000
0000000000000000
0000000000000000
00001f000000001f
0000ff00000000ff
0007ff00000007ff
000fff0000000fff
003fff0000003fff
007fff0000007fff
00ffff000000ffff
01ffff000001ffff
03fff0000003fff0
07ff80000007ff80
0ffe0000000ffe00
0ffc0000000ffc00
1ff80000001ff800
3ff00000003ff000
3fe00000003fe000
3fc00000003fc000
7fc00000007fc000
7f800000007f8000
7f800000007f8000
ff80000000ff8000
ff00000000ff0000
ff00000000ff0000
ff00000000ff0000
ff00000000ff0000
ffffff0000ffffff
ffffff0000ffffff
ffffff0000ffffff
ffffff0000ffffff
ffffff0000ffffff
ffffff0000ffffff
ffffff0000ffffff
ffffff0000ffffff
ffffff0000ffffff
ffffff0000ffffff
ffffff0000ffffff
ffffff0000ffffff
ffffff0000ffffff
ffffff0000ffffff
ffffff0000ffffff
ffffff0000ffffff
ffffff0000ffffff
ffffff0000ffffff
ffffff0000ffffff
ffffff0000ffffff
ffffff0000ffffff
ffffff0000ffffff
ffffff0000ffffff
ffffff0000ffffff
0000000000000000
0000000000000000
0000000000000000
0000000000000000
0000000000000000
0000000000000000
0000000000000000
0000000000000000
ENDCHAR
STARTCHAR /home/kraus/git/open-iconic/png/double-quote-serif-right-8x.png
ENCODING 76
DWIDTH 64 0
BBX 64 64 0 0
BITMAP
0000000000000000
0000000000000000
0000000000000000
0000000000000000
0000000000000000
0000000000000000
0000000000000000
0000000000000000
ffffff0000ffffff
ffffff0000ffffff
ffffff0000ffffff
ffffff0000ffffff
ffffff0000ffffff
ffffff0000ffffff
ffffff0000ffffff
ffffff0000ffffff
ffffff0000ffffff
ffffff0000ffffff
ffffff0000ffffff
ffffff0000ffffff
ffffff0000ffffff
ffffff0000ffffff
ffffff0000ffffff
ffffff0000ffffff
ffffff0000ffffff
ffffff0000ffffff
ffffff0000ffffff
ffffff0000ffffff
ffffff0000ffffff
ffffff0000ffffff
ffffff0000ffffff
ffffff0000ffffff
0000ff00000000ff
0000ff00000000ff
0000ff00000000ff
0000ff00000000ff
0001ff00000001ff
0001fe00000001fe
0001fe00000001fe
0003fe00000003fe
0003fc00000003fc
0007fc00000007fc
000ffc0000000ffc
001ff80000001ff8
003ff00000003ff0
007ff00000007ff0
01ffe0000001ffe0
0fffc000000fffc0
ffff800000ffff80
ffff000000ffff00
fffe000000fffe00
fffc000000fffc00
fff0000000fff000
ffe0000000ffe000
ff00000000ff0000
f800000000f80000
0000000000000000
0000000000000000
0000000000000000
0000000000000000
0000000000000000
0000000000000000
0000000000000000
0000000000000000
ENDCHAR
STARTCHAR /home/kraus/git/open-iconic/png/ellipses-8x.png
ENCODING 77
DWIDTH 64 0
BBX 64 64 0 0
BITMAP
0000000000000000
0000000000000000
0000000000000000
0000000000000000
0000000000000000
0000000000000000
0000000000000000
0000000000000000
0000000000000000
0000000000000000
0000000000000000
0000000000000000
0000000000000000
0000000000000000
0000000000000000
0000000000000000
0000000000000000
0000000000000000
0000000000000000
0000000000000000
0000000000000000
0000000000000000
0000000000000000
0000000000000000
ffff00ffff00ffff
ffff00ffff00ffff
ffff00ffff00ffff
ffff00ffff00ffff
ffff00ffff00ffff
ffff00ffff00ffff
ffff00ffff00ffff
ffff00ffff00ffff
ffff00ffff00ffff
ffff00ffff00ffff
ffff00ffff00ffff
ffff00ffff00ffff
ffff00ffff00ffff
ffff00ffff00ffff
ffff00ffff00ffff
ffff00ffff00ffff
0000000000000000
0000000000000000
0000000000000000
0000000000000000
0000000000000000
0000000000000000
0000000000000000
0000000000000000
0000000000000000
0000000000000000
0000000000000000
0000000000000000
0000000000000000
0000000000000000
0000000000000000
0000000000000000
0000000000000000
0000000000000000
0000000000000000
0000000000000000
0000000000000000
0000000000000000
0000000000000000
0000000000000000
ENDCHAR
STARTCHAR /home/kraus/git/open-iconic/png/excerpt-8x.png
ENCODING 78
DWIDTH 64 0
BBX 64 64 0 0
BITMAP
ffffffffffffff00
ffffffffffffff00
ffffffffffffff00
ffffffffffffff00
ffffffffffffff00
ffffffffffffff00
ffffffffffffff00
ffffffffffffff00
0000000000000000
0000000000000000
0000000000000000
0000000000000000
0000000000000000
0000000000000000
0000000000000000
0000000000000000
ffffffffff000000
ffffffffff000000
ffffffffff000000
ffffffffff000000
ffffffffff000000
ffffffffff000000
ffffffffff000000
ffffffffff000000
0000000000000000
0000000000000000
0000000000000000
0000000000000000
0000000000000000
0000000000000000
0000000000000000
0000000000000000
ffffffffffffffff
ffffffffffffffff
ffffffffffffffff
ffffffffffffffff
ffffffffffffffff
ffffffffffffffff
ffffffffffffffff
ffffffffffffffff
0000000000000000
0000000000000000
0000000000000000
0000000000000000
0000000000000000
0000000000000000
0000000000000000
0000000000000000
ff00ff00ff000000
ff00ff00ff000000
ff00ff00ff000000
ff00ff00ff000000
ff00ff00ff000000
ff00ff00ff000000
ff00ff00ff000000
ff00ff00ff000000
0000000000000000
0000000000000000
0000000000000000
0000000000000000
0000000000000000
0000000000000000
0000000000000000
0000000000000000
ENDCHAR
STARTCHAR /home/kraus/git/open-iconic/png/header-8x.png
ENCODING 79
DWIDTH 64 0
BBX 64 64 0 0
BITMAP
ffffff00ffffff00
ffffff00ffffff00
ffffff00ffffff00
ffffff00ffffff00
ffffff00ffffff00
ffffff00ffffff00
ffffff00ffffff00
ffffff00ffffff00
03ffc00003ffc000
01ff800001ff8000
00ff000000ff0000
00ff000000ff0000
00ff000000ff0000
00ff000000ff0000
00ff000000ff0000
00ff000000ff0000
00ff000000ff0000
00ff000000ff0000
00ff000000ff0000
00ff000000ff0000
00ff000000ff0000
00ff000000ff0000
00ff000000ff0000
00ff000000ff0000
00ffffffffff0000
00ffffffffff0000
00ffffffffff0000
00ffffffffff0000
00ffffffffff0000
00ffffffffff0000
00ffffffffff0000
00ffffffffff0000
00ff000000ff0000
00ff000000ff0000
00ff000000ff0000
00ff000000ff0000
00ff000000ff0000
00ff000000ff0000
00ff000000ff0000
00ff000000ff0000
00ff000000ff0000
00ff000000ff0000
00ff000000ff0000
00ff000000ff0000
00ff000000ff0000
00ff000000ff0000
01ff800001ff8000
03ffc00003ffc000
ffffff00ffffff00
ffffff00ffffff00
ffffff00ffffff00
ffffff00ffffff00
ffffff00ffffff00
ffffff00ffffff00
ffffff00ffffff00
ffffff00ffffff00
0000000000000000
0000000000000000
0000000000000000
0000000000000000
0000000000000000
0000000000000000
0000000000000000
0000000000000000
ENDCHAR
STARTCHAR /home/kraus/git/open-iconic/png/infinity-8x.png
ENCODING 80
DWIDTH 64 0
BBX 64 64 0 0
BITMAP
0000000000000000
0000000000000000
0000000000000000
0000000000000000
0000000000000000
0000000000000000
0000000000000000
0000000000000000
0000000000000000
0000000000000000
0000000000000000
0000000000000000
0000000000000000
0000000000000000
0000000000000000
0000000000000000
000ff000000ff000
007ffc00003ffe00
01ffff0000ffff80
03ffff8003ffffc0
07ffffe007ffffe0
0ffffff00ffffff0
1ffffff81ffffff8
3ffffffc3ffffffc
3ff83ffe7ffc1ffc
7fe00ffffff007fe
7fc007ffffe003fe
7f8003ffff8001fe
ff8000ffff0001ff
ff0000fffe0000ff
ff00007ffe0000ff
ff00003ffc0000ff
ff00003ffc0000ff
ff00007ffe0000ff
ff0000fffe0000ff
ff8000ffff0001ff
7f8003ffff8001fe
7fc007ffffe003fe
7fe00ffffff007fe
3ff83ffe7ffc1ffc
3ffffffc3ffffffc
1ffffff81ffffff8
0ffffff00ffffff0
07ffffe007ffffe0
03ffff8003ffffc0
01ffff0000ffff80
007ffc00003ffe00
000ff000000ff000
0000000000000000
0000000000000000
0000000000000000
0000000000000000
0000000000000000
0000000000000000
0000000000000000
0000000000000000
0000000000000000
0000000000000000
0000000000000000
0000000000000000
0000000000000000
0000000000000000
0000000000000000
0000000000000000
ENDCHAR
STARTCHAR /home/kraus/git/open-iconic/png/info-8x.png
ENCODING 81
DWIDTH 64 0
BBX 64 64 0 0
BITMAP
0000000007e00000
000000001ff80000
000000003ffc0000
000000007ffe0000
000000007ffe0000
00000000ffff0000
00000000ffff0000
00000000ffff0000
00000000ffff0000
00000000ffff0000
00000000ffff0000
000000007ffe0000
000000007ffe0000
000000003ffc0000
000000001ff80000
0000000007e00000
0000000000000000
0000000000000000
0000000000000000
0000000000000000
0000007e00000000
000003ffc0000000
000007ffe0000000
00000ffff0000000
00001ffff8000000
00003ffffc000000
00007ffffe000000
00007ffffe000000
00007fc3fe000000
0000ff81ff000000
0000ff00ff000000
0000ff00ff000000
00000000ff000000
00000000ff000000
00000001ff000000
00000001fe000000
00000003fe000000
00000007fe000000
00000007fc000000
0000000ffc000000
0000000ff8000000
0000001ff8000000
0000001ff0000000
0000003ff0000000
0000003fe0000000
0000003fe0000000
0000007fc0000000
0000007fc0000000
0000007f80000000
000000ff80000000
000000ff00000000
000000ff00000000
000000ff00ff0000
000000ff00ff0000
000000ff81ff0000
0000007fc3fe0000
0000007ffffe0000
0000007ffffe0000
0000003ffffc0000
0000001ffff80000
0000001ffff00000
00000007ffe00000
00000003ffc00000
000000007e000000
ENDCHAR
STARTCHAR /home/kraus/git/open-iconic/png/italic-8x.png
ENCODING 82
DWIDTH 64 0
BBX 64 64 0 0
BITMAP
0000ffffffffff00
0000ffffffffff00
0000ffffffffff00
0000ffffffffff00
0000ffffffffff00
0000ffffffffff00
0000ffffffffff00
0000ffffffffff00
00000007fffc0000
0000000ffffc0000
0000000ffff80000
0000000ffff80000
0000001ffff00000
0000001ffff00000
0000003ffff00000
0000003fffe00000
0000003fffe00000
0000007fffe00000
0000007fffc00000
000000ffffc00000
000000ffff800000
000000ffff800000
000001ffff800000
000001ffff000000
000003ffff000000
000003fffe000000
000003fffe000000
000007fffe000000
000007fffc000000
00000ffffc000000
00000ffff8000000
00000ffff8000000
00001ffff8000000
00001ffff0000000
00003ffff0000000
00003fffe0000000
00003fffe0000000
00007fffe0000000
00007fffc0000000
0000ffffc0000000
0000ffff80000000
0000ffff80000000
0001ffff80000000
0001ffff00000000
0003ffff00000000
0003fffe00000000
0003fffe00000000
0007fffe00000000
0007fffc00000000
000ffffc00000000
000ffff800000000
000ffff800000000
001ffff800000000
001ffff000000000
003ffff000000000
003fffe000000000
ffffffffff000000
ffffffffff000000
ffffffffff000000
ffffffffff000000
ffffffffff000000
ffffffffff000000
ffffffffff000000
ffffffffff000000
ENDCHAR
STARTCHAR /home/kraus/git/open-iconic/png/justify-center-8x.png
ENCODING 83
DWIDTH 64 0
BBX 64 64 0 0
BITMAP
ffffffffffffffff
ffffffffffffffff
ffffffffffffffff
ffffffffffffffff
ffffffffffffffff
ffffffffffffffff
ffffffffffffffff
ffffffffffffffff
0000000000000000
0000000000000000
0000000000000000
0000000000000000
0000000000000000
0000000000000000
0000000000000000
0000000000000000
ffffffffffffffff
ffffffffffffffff
ffffffffffffffff
ffffffffffffffff
ffffffffffffffff
ffffffffffffffff
ffffffffffffffff
ffffffffffffffff
0000000000000000
0000000000000000
0000000000000000
0000000000000000
0000000000000000
0000000000000000
0000000000000000
0000000000000000
ffffffffffffffff
ffffffffffffffff
ffffffffffffffff
ffffffffffffffff
ffffffffffffffff
ffffffffffffffff
ffffffffffffffff
ffffffffffffffff
0000000000000000
0000000000000000
0000000000000000
0000000000000000
0000000000000000
0000000000000000
0000000000000000
0000000000000000
00ffffffffffff00
00ffffffffffff00
00ffffffffffff00
00ffffffffffff00
00ffffffffffff00
00ffffffffffff00
00ffffffffffff00
00ffffffffffff00
0000000000000000
0000000000000000
0000000000000000
0000000000000000
0000000000000000
0000000000000000
0000000000000000
0000000000000000
ENDCHAR
STARTCHAR /home/kraus/git/open-iconic/png/justify-left-8x.png
ENCODING 84
DWIDTH 64 0
BBX 64 64 0 0
BITMAP
ffffffffffffffff
ffffffffffffffff
ffffffffffffffff
ffffffffffffffff
ffffffffffffffff
ffffffffffffffff
ffffffffffffffff
ffffffffffffffff
0000000000000000
0000000000000000
0000000000000000
0000000000000000
0000000000000000
0000000000000000
0000000000000000
0000000000000000
ffffffffffffffff
ffffffffffffffff
ffffffffffffffff
ffffffffffffffff
ffffffffffffffff
ffffffffffffffff
ffffffffffffffff
ffffffffffffffff
0000000000000000
0000000000000000
0000000000000000
0000000000000000
0000000000000000
0000000000000000
0000000000000000
0000000000000000
ffffffffffffffff
ffffffffffffffff
ffffffffffffffff
ffffffffffffffff
ffffffffffffffff
ffffffffffffffff
ffffffffffffffff
ffffffffffffffff
0000000000000000
0000000000000000
0000000000000000
0000000000000000
0000000000000000
0000000000000000
0000000000000000
0000000000000000
ffffffffffff0000
ffffffffffff0000
ffffffffffff0000
ffffffffffff0000
ffffffffffff0000
ffffffffffff0000
ffffffffffff0000
ffffffffffff0000
0000000000000000
0000000000000000
0000000000000000
0000000000000000
0000000000000000
0000000000000000
0000000000000000
0000000000000000
ENDCHAR
STARTCHAR /home/kraus/git/open-iconic/png/justify-right-8x.png
ENCODING 85
DWIDTH 64 0
BBX 64 64 0 0
BITMAP
ffffffffffffffff
ffffffffffffffff
ffffffffffffffff
ffffffffffffffff
ffffffffffffffff
ffffffffffffffff
ffffffffffffffff
ffffffffffffffff
0000000000000000
0000000000000000
0000000000000000
0000000000000000
0000000000000000
0000000000000000
0000000000000000
0000000000000000
ffffffffffffffff
ffffffffffffffff
ffffffffffffffff
ffffffffffffffff
ffffffffffffffff
ffffffffffffffff
ffffffffffffffff
ffffffffffffffff
0000000000000000
0000000000000000
0000000000000000
0000000000000000
0000000000000000
0000000000000000
0000000000000000
0000000000000000
ffffffffffffffff
ffffffffffffffff
ffffffffffffffff
ffffffffffffffff
ffffffffffffffff
ffffffffffffffff
ffffffffffffffff
ffffffffffffffff
0000000000000000
0000000000000000
0000000000000000
0000000000000000
0000000000000000
0000000000000000
0000000000000000
0000000000000000
0000ffffffffffff
0000ffffffffffff
0000ffffffffffff
0000ffffffffffff
0000ffffffffffff
0000ffffffffffff
0000ffffffffffff
0000ffffffffffff
0000000000000000
0000000000000000
0000000000000000
0000000000000000
0000000000000000
0000000000000000
0000000000000000
0000000000000000
ENDCHAR
STARTCHAR /home/kraus/git/open-iconic/png/medical-cross-8x.png
ENCODING 86
DWIDTH 64 0
BBX 64 64 0 0
BITMAP
0000ffffffff0000
0000ffffffff0000
0000ffffffff0000
0000ffffffff0000
0000ffffffff0000
0000ffffffff0000
0000ffffffff0000
0000ffffffff0000
0000ffffffff0000
0000ffffffff0000
0000ffffffff0000
0000ffffffff0000
0000ffffffff0000
0000ffffffff0000
0000ffffffff0000
0000ffffffff0000
ffffffffffffffff
ffffffffffffffff
ffffffffffffffff
ffffffffffffffff
ffffffffffffffff
ffffffffffffffff
ffffffffffffffff
ffffffffffffffff
ffffffffffffffff
ffffffffffffffff
ffffffffffffffff
ffffffffffffffff
ffffffffffffffff
ffffffffffffffff
ffffffffffffffff
ffffffffffffffff
ffffffffffffffff
ffffffffffffffff
ffffffffffffffff
ffffffffffffffff
ffffffffffffffff
ffffffffffffffff
ffffffffffffffff
ffffffffffffffff
ffffffffffffffff
ffffffffffffffff
ffffffffffffffff
ffffffffffffffff
ffffffffffffffff
ffffffffffffffff
ffffffffffffffff
ffffffffffffffff
0000ffffffff0000
0000ffffffff0000
0000ffffffff0000
0000ffffffff0000
0000ffffffff0000
0000ffffffff0000
0000ffffffff0000
0000ffffffff0000
0000ffffffff0000
0000ffffffff0000
0000ffffffff0000
0000ffffffff0000
0000ffffffff0000
0000ffffffff0000
0000ffffffff0000
0000ffffffff0000
ENDCHAR
STARTCHAR /home/kraus/git/open-iconic/png/minus-8x.png
ENCODING 87
DWIDTH 64 0
BBX 64 64 0 0
BITMAP
0000000000000000
0000000000000000
0000000000000000
0000000000000000
0000000000000000
0000000000000000
0000000000000000
0000000000000000
0000000000000000
0000000000000000
0000000000000000
0000000000000000
0000000000000000
0000000000000000
0000000000000000
0000000000000000
0000000000000000
0000000000000000
0000000000000000
0000000000000000
0000000000000000
0000000000000000
0000000000000000
0000000000000000
ffffffffffffffff
ffffffffffffffff
ffffffffffffffff
ffffffffffffffff
ffffffffffffffff
ffffffffffffffff
ffffffffffffffff
ffffffffffffffff
ffffffffffffffff
ffffffffffffffff
ffffffffffffffff
ffffffffffffffff
ffffffffffffffff
ffffffffffffffff
ffffffffffffffff
ffffffffffffffff
0000000000000000
0000000000000000
0000000000000000
0000000000000000
0000000000000000
0000000000000000
0000000000000000
0000000000000000
0000000000000000
0000000000000000
0000000000000000
0000000000000000
0000000000000000
0000000000000000
0000000000000000
0000000000000000
0000000000000000
0000000000000000
0000000000000000
0000000000000000
0000000000000000
0000000000000000
0000000000000000
0000000000000000
ENDCHAR
STARTCHAR /home/kraus/git/open-iconic/png/plus-8x.png
ENCODING 88
DWIDTH 64 0
BBX 64 64 0 0
BITMAP
000000ffff000000
000000ffff000000
000000ffff000000
000000ffff000000
000000ffff000000
000000ffff000000
000000ffff000000
000000ffff000000
000000ffff000000
000000ffff000000
000000ffff000000
000000ffff000000
000000ffff000000
000000ffff000000
000000ffff000000
000000ffff000000
000000ffff000000
000000ffff000000
000000ffff000000
000000ffff000000
000000ffff000000
000000ffff000000
000000ffff000000
000000ffff000000
ffffffffffffffff
ffffffffffffffff
ffffffffffffffff
ffffffffffffffff
ffffffffffffffff
ffffffffffffffff
ffffffffffffffff
ffffffffffffffff
ffffffffffffffff
ffffffffffffffff
ffffffffffffffff
ffffffffffffffff
ffffffffffffffff
ffffffffffffffff
ffffffffffffffff
ffffffffffffffff
000000ffff000000
000000ffff000000
000000ffff000000
000000ffff000000
000000ffff000000
000000ffff000000
000000ffff000000
000000ffff000000
000000ffff000000
000000ffff000000
000000ffff000000
000000ffff000000
000000ffff000000
000000ffff000000
000000ffff000000
000000ffff000000
000000ffff000000
000000ffff000000
000000ffff000000
000000ffff000000
000000ffff000000
000000ffff000000
000000ffff000000
000000ffff000000
ENDCHAR
STARTCHAR /home/kraus/git/open-iconic/png/question-mark-8x.png
ENCODING 89
DWIDTH 64 0
BBX 64 64 0 0
BITMAP
00000003ffc00000
0000001ffffc0000
0000007fffff0000
000001ffffff8000
000003ffffffe000
000007fffffff000
00000ffffffff800
00001ffffffff800
00003ffe007ffc00
00003ff0000ffc00
00007fe00007fe00
00007fc00003fe00
00007f800001fe00
0000ff800001ff00
0000ff000000ff00
0000ff000000ff00
000000000000ff00
000000000000ff00
000000000000ff00
000000000001fe00
000000000001fe00
000000000001fe00
000000000003fe00
000000000003fc00
000000000007fc00
00000000000ff800
00000000001ff800
00000000003ff000
0000000000fff000
0000000001ffe000
0000000003ffc000
0000000007ff8000
0000000007ff0000
000000000ffe0000
000000001ffc0000
000000003ff80000
000000003fe00000
000000007fc00000
000000007fc00000
000000007f800000
00000000ff800000
00000000ff000000
00000000ff000000
00000000ff000000
00000000ff000000
00000000ff000000
00000000ff000000
00000000ff000000
0000000000000000
0000000000000000
0000000000000000
0000000000000000
0000000000000000
0000000000000000
0000000000000000
0000000000000000
00000000ff000000
00000000ff000000
00000000ff000000
00000000ff000000
00000000ff000000
00000000ff000000
00000000ff000000
00000000ff000000
ENDCHAR
STARTCHAR /home/kraus/git/open-iconic/png/terminal-8x.png
ENCODING 90
DWIDTH 64 0
BBX 64 64 0 0
BITMAP
ffffffffffffffff
ffffffffffffffff
ffffffffffffffff
ffffffffffffffff
ffffffffffffffff
ffffffffffffffff
ffffffffffffffff
ffe7ffffffffffff
ffc3ffffffffffff
ff81ffffffffffff
ff00ffffffffffff
fe007fffffffffff
fe003fffffffffff
ff001fffffffffff
ff800fffffffffff
ffc007ffffffffff
ffe003ffffffffff
fff001ffffffffff
fff800ffffffffff
fffc007fffffffff
fffc007fffffffff
fff800ffffffffff
fff001ffffffffff
ffe003ffffffffff
ffc007ff000000ff
ff800fff000000ff
ff001fff000000ff
fe003fff000000ff
fe007fff000000ff
ff00ffff000000ff
ff81ffff000000ff
ffc3ffff000000ff
ffe7ffffffffffff
ffffffffffffffff
ffffffffffffffff
ffffffffffffffff
ffffffffffffffff
ffffffffffffffff
ffffffffffffffff
ffffffffffffffff
ffffffffffffffff
ffffffffffffffff
ffffffffffffffff
ffffffffffffffff
ffffffffffffffff
ffffffffffffffff
ffffffffffffffff
ffffffffffffffff
ffffffffffffffff
ffffffffffffffff
ffffffffffffffff
ffffffffffffffff
ffffffffffffffff
ffffffffffffffff
ffffffffffffffff
ffffffffffffffff
ffffffffffffffff
ffffffffffffffff
ffffffffffffffff
ffffffffffffffff
ffffffffffffffff
ffffffffffffffff
ffffffffffffffff
ffffffffffffffff
ENDCHAR
STARTCHAR /home/kraus/git/open-iconic/png/text-8x.png
ENCODING 91
DWIDTH 64 0
BBX 64 64 0 0
BITMAP
ffffffffffffffff
ffffffffffffffff
ffffffffffffffff
ffffffffffffffff
ffffffffffffffff
ffffffffffffffff
ffffffffffffffff
ffffffffffffffff
ff8000ffff0001ff
fe0000ffff00007f
fc0000ffff00003f
f80000ffff00001f
f80000ffff00001f
f00000ffff00000f
f00000ffff00000f
f00000ffff00000f
000000ffff000000
000000ffff000000
000000ffff000000
000000ffff000000
000000ffff000000
000000ffff000000
000000ffff000000
000000ffff000000
000000ffff000000
000000ffff000000
000000ffff000000
000000ffff000000
000000ffff000000
000000ffff000000
000000ffff000000
000000ffff000000
000000ffff000000
000000ffff000000
000000ffff000000
000000ffff000000
000000ffff000000
000000ffff000000
000000ffff000000
000000ffff000000
000000ffff000000
000000ffff000000
000000ffff000000
000000ffff000000
000000ffff000000
000000ffff000000
000000ffff000000
000000ffff000000
000000ffff000000
000000ffff000000
000000ffff000000
000000ffff000000
000000ffff000000
000000ffff000000
000001ffff800000
000003ffffc00000
0000ffffffff0000
0000ffffffff0000
0000ffffffff0000
0000ffffffff0000
0000ffffffff0000
0000ffffffff0000
0000ffffffff0000
0000ffffffff0000
ENDCHAR
STARTCHAR /home/kraus/git/open-iconic/png/underline-8x.png
ENCODING 92
DWIDTH 64 0
BBX 64 64 0 0
BITMAP
00ffff0000ff0000
00ffff0000ff0000
00ffff0000ff0000
00ffff0000ff0000
00ffff0000ff0000
00ffff0000ff0000
00ffff0000ff0000
00ffff0000ff0000
00ffff0000ff0000
00ffff0000ff0000
00ffff0000ff0000
00ffff0000ff0000
00ffff0000ff0000
00ffff0000ff0000
00ffff0000ff0000
00ffff0000ff0000
00ffff0000ff0000
00ffff0000ff0000
00ffff0000ff0000
00ffff0000ff0000
00ffff0000ff0000
00ffff0000ff0000
00ffff0000ff0000
00ffff0000ff0000
00ffff0000ff0000
00ffff0000ff0000
00ffff0000ff0000
00ffff0000ff0000
00ffff0000ff0000
00ffff0000ff0000
00ffff0000ff0000
00ffff0000ff0000
00ffff0000ff0000
00ffff0000ff0000
00ffff0000ff0000
007fff8001ff0000
007fff8001fe0000
007fffc003fe0000
003fffe007fe0000
003ffff81ffc0000
001ffffffffc0000
000ffffffff80000
0007fffffff00000
0003ffffffe00000
0000ffffffc00000
00007fffff800000
00000ffffe000000
000001fff0000000
0000000000000000
0000000000000000
0000000000000000
0000000000000000
0000000000000000
0000000000000000
0000000000000000
0000000000000000
ffffffffffffff00
ffffffffffffff00
ffffffffffffff00
ffffffffffffff00
ffffffffffffff00
ffffffffffffff00
ffffffffffffff00
ffffffffffffff00
ENDCHAR
STARTCHAR /home/kraus/git/open-iconic/png/vertical-align-bottom-8x.png
ENCODING 93
DWIDTH 64 0
BBX 64 64 0 0
BITMAP
ffff00000000ffff
ffff00000000ffff
ffff00000000ffff
ffff00000000ffff
ffff00000000ffff
ffff00000000ffff
ffff00000000ffff
ffff00000000ffff
ffff00000000ffff
ffff00000000ffff
ffff00000000ffff
ffff00000000ffff
ffff00000000ffff
ffff00000000ffff
ffff00000000ffff
ffff00000000ffff
ffff00ffff00ffff
ffff00ffff00ffff
ffff00ffff00ffff
ffff00ffff00ffff
ffff00ffff00ffff
ffff00ffff00ffff
ffff00ffff00ffff
ffff00ffff00ffff
ffff00ffff00ffff
ffff00ffff00ffff
ffff00ffff00ffff
ffff00ffff00ffff
ffff00ffff00ffff
ffff00ffff00ffff
ffff00ffff00ffff
ffff00ffff00ffff
ffff00ffff00ffff
ffff00ffff00ffff
ffff00ffff00ffff
ffff00ffff00ffff
ffff00ffff00ffff
ffff00ffff00ffff
ffff00ffff00ffff
ffff00ffff00ffff
0000000000000000
0000000000000000
0000000000000000
0000000000000000
0000000000000000
0000000000000000
0000000000000000
0000000000000000
ffffffffffffffff
ffffffffffffffff
ffffffffffffffff
ffffffffffffffff
ffffffffffffffff
ffffffffffffffff
ffffffffffffffff
ffffffffffffffff
0000000000000000
0000000000000000
0000000000000000
0000000000000000
0000000000000000
0000000000000000
0000000000000000
0000000000000000
ENDCHAR
STARTCHAR /home/kraus/git/open-iconic/png/vertical-align-center-8x.png
ENCODING 94
DWIDTH 64 0
BBX 64 64 0 0
BITMAP
ffff00000000ffff
ffff00000000ffff
ffff00000000ffff
ffff00000000ffff
ffff00000000ffff
ffff00000000ffff
ffff00000000ffff
ffff00000000ffff
ffff00ffff00ffff
ffff00ffff00ffff
ffff00ffff00ffff
ffff00ffff00ffff
ffff00ffff00ffff
ffff00ffff00ffff
ffff00ffff00ffff
ffff00ffff00ffff
0000000000000000
0000000000000000
0000000000000000
0000000000000000
0000000000000000
0000000000000000
0000000000000000
0000000000000000
ffffffffffffffff
ffffffffffffffff
ffffffffffffffff
ffffffffffffffff
ffffffffffffffff
ffffffffffffffff
ffffffffffffffff
ffffffffffffffff
0000000000000000
0000000000000000
0000000000000000
0000000000000000
0000000000000000
0000000000000000
0000000000000000
0000000000000000
ffff00ffff00ffff
ffff00ffff00ffff
ffff00ffff00ffff
ffff00ffff00ffff
ffff00ffff00ffff
ffff00ffff00ffff
ffff00ffff00ffff
ffff00ffff00ffff
ffff00000000ffff
ffff00000000ffff
ffff00000000ffff
ffff00000000ffff
ffff00000000ffff
ffff00000000ffff
ffff00000000ffff
ffff00000000ffff
0000000000000000
0000000000000000
0000000000000000
0000000000000000
0000000000000000
0000000000000000
0000000000000000
0000000000000000
ENDCHAR
STARTCHAR /home/kraus/git/open-iconic/png/vertical-align-top-8x.png
ENCODING 95
DWIDTH 64 0
BBX 64 64 0 0
BITMAP
ffffffffffffffff
ffffffffffffffff
ffffffffffffffff
ffffffffffffffff
ffffffffffffffff
ffffffffffffffff
ffffffffffffffff
ffffffffffffffff
0000000000000000
0000000000000000
0000000000000000
0000000000000000
0000000000000000
0000000000000000
0000000000000000
0000000000000000
ffff00ffff00ffff
ffff00ffff00ffff
ffff00ffff00ffff
ffff00ffff00ffff
ffff00ffff00ffff
ffff00ffff00ffff
ffff00ffff00ffff
ffff00ffff00ffff
ffff00ffff00ffff
ffff00ffff00ffff
ffff00ffff00ffff
ffff00ffff00ffff
ffff00ffff00ffff
ffff00ffff00ffff
ffff00ffff00ffff
ffff00ffff00ffff
ffff00ffff00ffff
ffff00ffff00ffff
ffff00ffff00ffff
ffff00ffff00ffff
ffff00ffff00ffff
ffff00ffff00ffff
ffff00ffff00ffff
ffff00ffff00ffff
ffff00000000ffff
ffff00000000ffff
ffff00000000ffff
ffff00000000ffff
ffff00000000ffff
ffff00000000ffff
ffff00000000ffff
ffff00000000ffff
ffff00000000ffff
ffff00000000ffff
ffff00000000ffff
ffff00000000ffff
ffff00000000ffff
ffff00000000ffff
ffff00000000ffff
ffff00000000ffff
0000000000000000
0000000000000000
0000000000000000
0000000000000000
0000000000000000
0000000000000000
0000000000000000
0000000000000000
ENDCHAR
