STARTFONT 2.1
FONT "open_iconic_play_6x"
SIZE 16 75 75
FONTBOUNDINGBOX 16 16 0 0
STARTPROPERTIES 3
COPYRIGHT "https://github.com/iconic/open-iconic, SIL OPEN FONT LICENSE"
FONT_ASCENT 0
FONT_DESCENT 0
ENDPROPERTIES
STARTCHAR /home/kraus/git/open-iconic/png/audio-spectrum-6x.png
ENCODING 64
DWIDTH 48 0
BBX 48 48 0 0
BITMAP
000000fc0000
000000fc0000
000000fc0000
000000fc0000
000000fc0000
000000fc0000
000fc0fc0000
000fc0fc0000
000fc0fc0000
000fc0fc0000
000fc0fc0000
000fc0fc0000
000fc0fc0fc0
000fc0fc0fc0
000fc0fc0fc0
000fc0fc0fc0
000fc0fc0fc0
000fc0fc0fc0
fc0fc0fc0fc0
fc0fc0fc0fc0
fc0fc0fc0fc0
fc0fc0fc0fc0
fc0fc0fc0fc0
fc0fc0fc0fc0
fc0fc0fc0fc0
fc0fc0fc0fc0
fc0fc0fc0fc0
fc0fc0fc0fc0
fc0fc0fc0fc0
fc0fc0fc0fc0
000fc0fc0fc0
000fc0fc0fc0
000fc0fc0fc0
000fc0fc0fc0
000fc0fc0fc0
000fc0fc0fc0
000fc0fc0000
000fc0fc0000
000fc0fc0000
000fc0fc0000
000fc0fc0000
000fc0fc0000
000000fc0000
000000fc0000
000000fc0000
000000fc0000
000000fc0000
000000fc0000
ENDCHAR
STARTCHAR /home/kraus/git/open-iconic/png/bullhorn-6x.png
ENCODING 65
DWIDTH 48 0
BBX 48 48 0 0
BITMAP
000000000fc0
000000000fc0
000000000fc0
000000040fc0
0000001c0fc0
0000007c0fc0
000001fc0fc0
000007fc0fc0
00001ffc0fc0
00007ffc0fc0
0001fffc0fc0
0007fffc0fc0
fffffffc0fc0
fffffffc0fc0
fffffffc0fc0
fffffffc0fc0
fffffffc0fc0
fffffffc0fc0
fffffffc0fc0
fffffffc0fc0
fffffffc0fc0
fffffffc0fc0
fffffffc0fc0
fffffffc0fc0
03fffffc0fc0
01fffffc0fc0
01f87ffc0fc0
01fc1ffc0fc0
00fc07fc0fc0
00fc01fc0fc0
00fe007c0fc0
007e001c0fc0
007f00040fc0
003f00000fc0
003f00000fc0
003f80000fc0
001f80000000
001fc0000000
000fc0000000
000fc0000000
000fc0000000
000780000000
000000000000
000000000000
000000000000
000000000000
000000000000
000000000000
ENDCHAR
STARTCHAR /home/kraus/git/open-iconic/png/eject-6x.png
ENCODING 66
DWIDTH 48 0
BBX 48 48 0 0
BITMAP
000000000000
000001800000
000003c00000
000007e00000
00000ff00000
00000ff00000
00001ff80000
00003ffc0000
00007ffe0000
0000ffff0000
0000ffff0000
0001ffff8000
0003ffffc000
0007ffffe000
000ffffff000
000ffffff000
001ffffff800
003ffffffc00
007ffffffe00
00ffffffff00
00ffffffff00
01ffffffff80
03ffffffffc0
07ffffffffe0
0ffffffffff0
0ffffffffff0
1ffffffffff8
3ffffffffffc
7ffffffffffe
ffffffffffff
000000000000
000000000000
000000000000
000000000000
000000000000
000000000000
ffffffffffff
ffffffffffff
ffffffffffff
ffffffffffff
ffffffffffff
ffffffffffff
ffffffffffff
ffffffffffff
ffffffffffff
ffffffffffff
ffffffffffff
ffffffffffff
ENDCHAR
STARTCHAR /home/kraus/git/open-iconic/png/headphones-6x.png
ENCODING 67
DWIDTH 48 0
BBX 48 48 0 0
BITMAP
00000ff00000
00007ffe0000
0001ffff8000
0007ffffe000
000ffffff000
001ffffff800
003ff81ffc00
007fc003fe00
007f8001fe00
00ff0000ff00
00fe00007f00
01fc00003f80
01f800001f80
01f800001f80
03f800001fc0
03f000000fc0
03f000000fc0
03f000000fc0
03f000000fc0
03f000000fc0
03f000000fc0
03f000000fc0
03f000000fc0
03f000000fc0
7ff000000ffe
fff000000fff
fff000000fff
fff000000fff
fff000000fff
fff000000fff
fff000000fff
fff000000fff
fff000000fff
fff000000fff
fff000000fff
fff000000fff
fff000000fff
fff000000fff
fff000000fff
fff000000fff
fff000000fff
7fe0000007fe
000000000000
000000000000
000000000000
000000000000
000000000000
000000000000
ENDCHAR
STARTCHAR /home/kraus/git/open-iconic/png/media-pause-6x.png
ENCODING 68
DWIDTH 48 0
BBX 48 48 0 0
BITMAP
000000000000
000000000000
000000000000
000000000000
000000000000
000000000000
03ffc003ffc0
03ffc003ffc0
03ffc003ffc0
03ffc003ffc0
03ffc003ffc0
03ffc003ffc0
03ffc003ffc0
03ffc003ffc0
03ffc003ffc0
03ffc003ffc0
03ffc003ffc0
03ffc003ffc0
03ffc003ffc0
03ffc003ffc0
03ffc003ffc0
03ffc003ffc0
03ffc003ffc0
03ffc003ffc0
03ffc003ffc0
03ffc003ffc0
03ffc003ffc0
03ffc003ffc0
03ffc003ffc0
03ffc003ffc0
03ffc003ffc0
03ffc003ffc0
03ffc003ffc0
03ffc003ffc0
03ffc003ffc0
03ffc003ffc0
03ffc003ffc0
03ffc003ffc0
03ffc003ffc0
03ffc003ffc0
03ffc003ffc0
03ffc003ffc0
000000000000
000000000000
000000000000
000000000000
000000000000
000000000000
ENDCHAR
STARTCHAR /home/kraus/git/open-iconic/png/media-play-6x.png
ENCODING 69
DWIDTH 48 0
BBX 48 48 0 0
BITMAP
000000000000
000000000000
000000000000
000000000000
000000000000
000000000000
020000000000
038000000000
03e000000000
03f800000000
03fe00000000
03ff80000000
03ffe0000000
03fff8000000
03fffe000000
03ffff800000
03ffffe00000
03fffff80000
03fffffe0000
03ffffff8000
03ffffffe000
03fffffff800
03fffffffe00
03ffffffff80
03ffffffff80
03fffffffe00
03fffffff800
03ffffffe000
03ffffff8000
03fffffe0000
03fffff80000
03ffffe00000
03ffff800000
03fffe000000
03fff8000000
03ffe0000000
03ff80000000
03fe00000000
03f800000000
03e000000000
038000000000
020000000000
000000000000
000000000000
000000000000
000000000000
000000000000
000000000000
ENDCHAR
STARTCHAR /home/kraus/git/open-iconic/png/media-record-6x.png
ENCODING 70
DWIDTH 48 0
BBX 48 48 0 0
BITMAP
000000000000
000000000000
000000000000
000000000000
000000000000
000000000000
00000ff00000
00007ffe0000
0001ffff8000
0007ffffe000
000ffffff000
001ffffff800
003ffffffc00
007ffffffe00
007ffffffe00
00ffffffff00
00ffffffff00
01ffffffff80
01ffffffff80
01ffffffff80
03ffffffffc0
03ffffffffc0
03ffffffffc0
03ffffffffc0
03ffffffffc0
03ffffffffc0
03ffffffffc0
03ffffffffc0
01ffffffff80
01ffffffff80
01ffffffff80
00ffffffff00
00ffffffff00
007ffffffe00
007ffffffe00
003ffffffc00
001ffffff800
000ffffff000
0007ffffe000
0001ffff8000
00007ffe0000
00000ff00000
000000000000
000000000000
000000000000
000000000000
000000000000
000000000000
ENDCHAR
STARTCHAR /home/kraus/git/open-iconic/png/media-skip-backward-6x.png
ENCODING 71
DWIDTH 48 0
BBX 48 48 0 0
BITMAP
000000000000
000000000000
000000000000
000000000000
000000000000
000000000000
000001000001
000003000003
000007000007
00001f00001f
00003f00003f
00007f00007f
0001ff0001ff
0003ff0003ff
0007ff0007ff
001fff001fff
003fff003fff
007fff007fff
01ffff01ffff
03ffff03ffff
07ffff07ffff
1fffff1fffff
3fffff3fffff
7fffff7fffff
7fffff7fffff
3fffff3fffff
1fffff1fffff
07ffff07ffff
03ffff03ffff
01ffff01ffff
007fff007fff
003fff003fff
001fff001fff
0007ff0007ff
0003ff0003ff
0001ff0001ff
00007f00007f
00003f00003f
00001f00001f
000007000007
000003000003
000001000001
000000000000
000000000000
000000000000
000000000000
000000000000
000000000000
ENDCHAR
STARTCHAR /home/kraus/git/open-iconic/png/media-skip-forward-6x.png
ENCODING 72
DWIDTH 48 0
BBX 48 48 0 0
BITMAP
000000000000
000000000000
000000000000
000000000000
000000000000
000000000000
800000800000
c00000c00000
e00000e00000
f80000f80000
fc0000fc0000
fe0000fe0000
ff8000ff8000
ffc000ffc000
ffe000ffe000
fff800fff800
fffc00fffc00
fffe00fffe00
ffff80ffff80
ffffc0ffffc0
ffffe0ffffe0
fffff8fffff8
fffffcfffffc
fffffefffffe
fffffefffffe
fffffcfffffc
fffff8fffff8
ffffe0ffffe0
ffffc0ffffc0
ffff80ffff80
fffe00fffe00
fffc00fffc00
fff800fff800
ffe000ffe000
ffc000ffc000
ff8000ff8000
fe0000fe0000
fc0000fc0000
f80000f80000
e00000e00000
c00000c00000
800000800000
000000000000
000000000000
000000000000
000000000000
000000000000
000000000000
ENDCHAR
STARTCHAR /home/kraus/git/open-iconic/png/media-step-backward-6x.png
ENCODING 73
DWIDTH 48 0
BBX 48 48 0 0
BITMAP
000000000000
000000000000
000000000000
000000000000
000000000000
000000000000
fff000000040
fff0000000c0
fff0000003c0
fff000000fc0
fff000001fc0
fff000007fc0
fff00001ffc0
fff00003ffc0
fff0000fffc0
fff0003fffc0
fff0007fffc0
fff001ffffc0
fff007ffffc0
fff00fffffc0
fff03fffffc0
fff0ffffffc0
fff1ffffffc0
fff7ffffffc0
fff7ffffffc0
fff1ffffffc0
fff0ffffffc0
fff03fffffc0
fff00fffffc0
fff007ffffc0
fff001ffffc0
fff0007fffc0
fff0003fffc0
fff0000fffc0
fff00003ffc0
fff00001ffc0
fff000007fc0
fff000001fc0
fff000000fc0
fff0000003c0
fff0000000c0
fff000000040
000000000000
000000000000
000000000000
000000000000
000000000000
000000000000
ENDCHAR
STARTCHAR /home/kraus/git/open-iconic/png/media-step-forward-6x.png
ENCODING 74
DWIDTH 48 0
BBX 48 48 0 0
BITMAP
000000000000
000000000000
000000000000
000000000000
000000000000
000000000000
80000003ffc0
c0000003ffc0
f0000003ffc0
fc000003ffc0
fe000003ffc0
ff800003ffc0
ffe00003ffc0
fff00003ffc0
fffc0003ffc0
ffff0003ffc0
ffff8003ffc0
ffffe003ffc0
fffff803ffc0
fffffc03ffc0
ffffff03ffc0
ffffffc3ffc0
ffffffe3ffc0
fffffffbffc0
fffffffbffc0
ffffffe3ffc0
ffffffc3ffc0
ffffff03ffc0
fffffc03ffc0
fffff803ffc0
ffffe003ffc0
ffff8003ffc0
ffff0003ffc0
fffc0003ffc0
fff00003ffc0
ffe00003ffc0
ff800003ffc0
fe000003ffc0
fc000003ffc0
f0000003ffc0
c0000003ffc0
80000003ffc0
000000000000
000000000000
000000000000
000000000000
000000000000
000000000000
ENDCHAR
STARTCHAR /home/kraus/git/open-iconic/png/media-stop-6x.png
ENCODING 75
DWIDTH 48 0
BBX 48 48 0 0
BITMAP
000000000000
000000000000
000000000000
000000000000
000000000000
000000000000
03ffffffffc0
03ffffffffc0
03ffffffffc0
03ffffffffc0
03ffffffffc0
03ffffffffc0
03ffffffffc0
03ffffffffc0
03ffffffffc0
03ffffffffc0
03ffffffffc0
03ffffffffc0
03ffffffffc0
03ffffffffc0
03ffffffffc0
03ffffffffc0
03ffffffffc0
03ffffffffc0
03ffffffffc0
03ffffffffc0
03ffffffffc0
03ffffffffc0
03ffffffffc0
03ffffffffc0
03ffffffffc0
03ffffffffc0
03ffffffffc0
03ffffffffc0
03ffffffffc0
03ffffffffc0
03ffffffffc0
03ffffffffc0
03ffffffffc0
03ffffffffc0
03ffffffffc0
03ffffffffc0
000000000000
000000000000
000000000000
000000000000
000000000000
000000000000
ENDCHAR
STARTCHAR /home/kraus/git/open-iconic/png/microphone-6x.png
ENCODING 76
DWIDTH 48 0
BBX 48 48 0 0
BITMAP
000007e00000
00000ff00000
00001ff80000
00003ffc0000
00003ffc0000
00003ffc0000
00003ffc0000
00003ffc0000
00003ffc0000
00003ffc0000
00003ffc0000
00003ffc0000
01e03ffc0780
03f03ffc07c0
03f03ffc0fc0
03f03ffc0fc0
03f03ffc0fc0
03f03ffc0fc0
03f03ffc0fc0
03f03ffc0fc0
03f01ff80fc0
03f81ff80fc0
01f80ff01fc0
01f803c01f80
01fc00003f80
00fe00007f00
00ff00007f00
007f8001fe00
003fc003fe00
003ff80ffc00
001ffffff800
000ffffff000
0003ffffe000
0001ffff8000
00007ffe0000
000007f00000
000007e00000
000007e00000
000007e00000
000007e00000
000007e00000
000007e00000
0000ffff0000
0003ffffc000
0007ffffe000
0007fffff000
000ffffff000
000ffffff000
ENDCHAR
STARTCHAR /home/kraus/git/open-iconic/png/musical-note-6x.png
ENCODING 77
DWIDTH 48 0
BBX 48 48 0 0
BITMAP
000000003fff
0000003fffff
000007ffffff
00007fffffff
0001ffffffff
0007ffffffff
000fffffffff
000fffffffff
000fffffffff
000fffffffff
000fffffffff
000fffffffff
000fffffe03f
000fffc0003f
000ff000003f
000fc000003f
000fc000003f
000fc000003f
000fc000003f
000fc000003f
000fc000003f
000fc000003f
000fc000003f
000fc000003f
000fc0000fff
000fc0003fff
000fc0007fff
000fc000ffff
000fc001ffff
000fc001ffff
03ffc003ffff
0fffc003ffff
1fffc003ffff
3fffc003ffff
7fffc003ffff
7fffc003ffff
ffffc001fffe
ffffc001fffe
ffffc000fffc
ffffc0007ff8
ffffc0003ff0
ffffc0000fc0
7fff80000000
7fff80000000
3fff00000000
1ffe00000000
0ffc00000000
03f000000000
ENDCHAR
STARTCHAR /home/kraus/git/open-iconic/png/play-circle-6x.png
ENCODING 78
DWIDTH 48 0
BBX 48 48 0 0
BITMAP
00001ff80000
0000ffff0000
0007ffffe000
000ffffff000
003ffffffc00
007ffffffe00
00ffffffff00
01ffffffff80
03ffffffffc0
07ffffffffe0
0ffffffffff0
0ffffffffff0
1fffdffffff8
3fffcffffffc
3fffc3fffffc
3fffc1fffffc
7fffc07ffffe
7fffc03ffffe
7fffc00ffffe
ffffc007ffff
ffffc001ffff
ffffc000ffff
ffffc0003fff
ffffc0001fff
ffffc0001fff
ffffc0003fff
ffffc000ffff
ffffc001ffff
ffffc007ffff
7fffc00ffffe
7fffc03ffffe
7fffc07ffffe
3fffc1fffffc
3fffc3fffffc
3fffcffffffc
1fffdffffff8
0ffffffffff0
0ffffffffff0
07ffffffffe0
03ffffffffc0
01ffffffff80
00ffffffff00
007ffffffe00
003ffffffc00
000ffffff000
0007ffffe000
0000ffff0000
00001ff80000
ENDCHAR
STARTCHAR /home/kraus/git/open-iconic/png/volume-high-6x.png
ENCODING 79
DWIDTH 48 0
BBX 48 48 0 0
BITMAP
00000f000000
00001f000000
00003f000000
00003f000000
00007f000000
0000ff000000
0000ff03c000
0001ff03f800
0003ff03fe00
0003ff03ff80
0007ff03ffc0
000fff03ffe0
ffffff003ff0
ffffff000ff8
ffffff0007f8
ffffff0003fc
ffffff0001fc
ffffff0000fe
ffffff03007e
ffffff03c07e
ffffff03e07f
ffffff03e03f
ffffff03f03f
ffffff03f03f
ffffff03f03f
ffffff03f03f
ffffff03e03f
ffffff03e07f
ffffff03c07e
ffffff03007e
ffffff0000fe
ffffff0001fc
ffffff0003fc
ffffff0007f8
ffffff000ff8
ffffff007ff0
000fff03ffe0
0007ff03ffc0
0003ff03ff80
0003ff03fe00
0001ff03f800
0000ff03c000
0000ff000000
00007f000000
00003f000000
00003f000000
00001f000000
00000f000000
ENDCHAR
STARTCHAR /home/kraus/git/open-iconic/png/volume-low-6x.png
ENCODING 80
DWIDTH 48 0
BBX 48 48 0 0
BITMAP
0000003c0000
0000007c0000
000000fc0000
000000fc0000
000001fc0000
000003fc0000
000003fc0000
000007fc0000
00000ffc0000
00000ffc0000
00001ffc0000
00003ffc0000
03fffffc0000
03fffffc0000
03fffffc0000
03fffffc0000
03fffffc0000
03fffffc0000
03fffffc0c00
03fffffc0f00
03fffffc0f80
03fffffc0f80
03fffffc0fc0
03fffffc0fc0
03fffffc0fc0
03fffffc0fc0
03fffffc0f80
03fffffc0f80
03fffffc0f00
03fffffc0c00
03fffffc0000
03fffffc0000
03fffffc0000
03fffffc0000
03fffffc0000
03fffffc0000
00003ffc0000
00001ffc0000
00000ffc0000
00000ffc0000
000007fc0000
000003fc0000
000003fc0000
000001fc0000
000000fc0000
000000fc0000
0000007c0000
0000003c0000
ENDCHAR
STARTCHAR /home/kraus/git/open-iconic/png/volume-off-6x.png
ENCODING 81
DWIDTH 48 0
BBX 48 48 0 0
BITMAP
00000000f000
00000001f000
00000003f000
00000003f000
00000007f000
0000000ff000
0000000ff000
0000001ff000
0000003ff000
0000003ff000
0000007ff000
000000fff000
000ffffff000
000ffffff000
000ffffff000
000ffffff000
000ffffff000
000ffffff000
000ffffff000
000ffffff000
000ffffff000
000ffffff000
000ffffff000
000ffffff000
000ffffff000
000ffffff000
000ffffff000
000ffffff000
000ffffff000
000ffffff000
000ffffff000
000ffffff000
000ffffff000
000ffffff000
000ffffff000
000ffffff000
000000fff000
0000007ff000
0000003ff000
0000003ff000
0000001ff000
0000000ff000
0000000ff000
00000007f000
00000003f000
00000003f000
00000001f000
00000000f000
ENDCHAR
