STARTFONT 2.1
FONT "open_iconic_mime_8x"
SIZE 16 75 75
FONTBOUNDINGBOX 16 16 0 0
STARTPROPERTIES 3
COPYRIGHT "https://github.com/iconic/open-iconic, SIL OPEN FONT LICENSE"
FONT_ASCENT 0
FONT_DESCENT 0
ENDPROPERTIES
STARTCHAR /home/kraus/git/open-iconic/png/audio-8x.png
ENCODING 64
DWIDTH 64 0
BBX 64 64 0 0
BITMAP
0000000000000000
0000000000000000
0000000000000000
0000000000000000
0000000000000000
0000000000000000
0000000000000000
0000000000000000
0040000000000200
00e0000000000700
01f0000000000f80
03f8000000001fc0
03fc000000003fc0
07fe000000007fe0
0ffc000000003ff0
0ff8000000001ff0
1ff8000000001ff8
1ff0000000000ff8
3fe00000000007fc
3fe00000000007fc
3fc00c00003003fc
7fc01e00007803fe
7f803f0000fc01fe
7f803f8001fc01fe
7f807fc003fe01fe
ff007fc003fe00ff
ff007f8001fe00ff
ff00ff8001ff00ff
ff00ff0000ff00ff
ff00ff0000ff00ff
ff00ff0000ff00ff
ff00ff0000ff00ff
ff00ff0000ff00ff
ff00ff8001ff00ff
ff007f8001fe00ff
ff807fc003fe00ff
7f807fc003fe01ff
7f803f8001fc01fe
7f803f0000fc01fe
7fc01e00007803fe
3fc01c00003803fe
3fe00800001007fc
3fe00000000007fc
1ff0000000000ff8
1ff8000000000ff8
0ff8000000001ff0
0ffc000000003ff0
07fe000000007fe0
07fc000000003fe0
03f8000000001fc0
01f0000000000f80
00e0000000000700
0040000000000300
0000000000000000
0000000000000000
0000000000000000
0000000000000000
0000000000000000
0000000000000000
0000000000000000
0000000000000000
0000000000000000
0000000000000000
0000000000000000
ENDCHAR
STARTCHAR /home/kraus/git/open-iconic/png/book-8x.png
ENCODING 65
DWIDTH 64 0
BBX 64 64 0 0
BITMAP
03ffffff0000fc00
0fffffff0000fe00
3fffffff0000ff00
3fffffff0000ff00
7fffffff0000ff00
7fffffff0000ff00
ffffffff0000ff00
ffffffff0000ff00
ffffffff0000ff00
ffffffff0000ff00
ffffffff0000ff00
ffffffff0000ff00
ffffffff0000ff00
ffffffff0000ff00
ffffffff0000ff00
ffffffff0000ff00
ffffffff0000ff00
ffffffff0180ff00
ffffffff03c0ff00
ffffffff07e0ff00
ffffffff0ff0ff00
ffffffff1ff8ff00
ffffffff3ffcff00
ffffffff7ffeff00
ffffffffffffff00
ffffffffffffff00
ffffffffffffff00
ffffffffffffff00
ffffffffffffff00
ffffffffffffff00
ffffffffffffff00
ffffffffffffff00
ffffffffffffff00
ffffffffffffff00
ffffffffffffff00
ffffffffffffff00
ffffffffffffff00
ffffffffffffff00
ffffffffffffff00
ffffffffffffff00
ffffffffffffff00
ffffffffffffff00
ffffffffffffff00
ffffffffffffff00
ffffffffffffff00
ffffffffffffff00
ffffffffffffff00
ffffffffffffff00
ffc0000000000000
ff80000000000000
ff00000000000000
ff00000000000000
ff00000000000000
ff00000000000000
ff80000000000000
7fc0000000000000
7fffffffffffff00
7fffffffffffff00
3fffffffffffff00
1fffffffffffff00
0fffffffffffff00
07ffffffffffff00
03ffffffffffff00
007fffffffffff00
ENDCHAR
STARTCHAR /home/kraus/git/open-iconic/png/document-8x.png
ENCODING 66
DWIDTH 64 0
BBX 64 64 0 0
BITMAP
ffffff0000000000
ffffff0080000000
ffffff00c0000000
ffffff00e0000000
ffffff00f0000000
ffffff00f8000000
ffffff00fc000000
ffffff00fe000000
ffffff00ff000000
ffffff00ff800000
ffffff00ffc00000
ffffff00ffe00000
ffffff00fff00000
ffffff00fff80000
ffffff00fffc0000
ffffff00fffe0000
ff00ff00ffff0000
ff00ff00ffff8000
ff00ff00ffffc000
ff00ff00ffffe000
ff00ff00fffff000
ff00ff00fffff800
ff00ff00fffffc00
ff00ff00fffffe00
ffffff0000000000
ffffff0000000000
ffffff0000000000
ffffff0000000000
ffffff0000000000
ffffff0000000000
ffffff0000000000
ffffff0000000000
ff00ffffffffff00
ff00ffffffffff00
ff00ffffffffff00
ff00ffffffffff00
ff00ffffffffff00
ff00ffffffffff00
ff00ffffffffff00
ff00ffffffffff00
ffffffffffffff00
ffffffffffffff00
ffffffffffffff00
ffffffffffffff00
ffffffffffffff00
ffffffffffffff00
ffffffffffffff00
ffffffffffffff00
ff00000000ffff00
ff00000000ffff00
ff00000000ffff00
ff00000000ffff00
ff00000000ffff00
ff00000000ffff00
ff00000000ffff00
ff00000000ffff00
ffffffffffffff00
ffffffffffffff00
ffffffffffffff00
ffffffffffffff00
ffffffffffffff00
ffffffffffffff00
ffffffffffffff00
ffffffffffffff00
ENDCHAR
STARTCHAR /home/kraus/git/open-iconic/png/folder-8x.png
ENCODING 67
DWIDTH 64 0
BBX 64 64 0 0
BITMAP
ffffff0000000000
ffffff0000000000
ffffff0000000000
ffffff0000000000
ffffff0000000000
ffffff0000000000
ffffff0000000000
ffffff0000000000
ffffffffffffffff
ffffffffffffffff
ffffffffffffffff
ffffffffffffffff
ffffffffffffffff
ffffffffffffffff
ffffffffffffffff
ffffffffffffffff
0000000000000000
0000000000000000
0000000000000000
0000000000000000
0000000000000000
0000000000000000
0000000000000000
0000000000000000
ffffffffffffffff
ffffffffffffffff
ffffffffffffffff
ffffffffffffffff
ffffffffffffffff
ffffffffffffffff
ffffffffffffffff
ffffffffffffffff
ffffffffffffffff
ffffffffffffffff
ffffffffffffffff
ffffffffffffffff
ffffffffffffffff
ffffffffffffffff
ffffffffffffffff
ffffffffffffffff
ffffffffffffffff
ffffffffffffffff
ffffffffffffffff
ffffffffffffffff
ffffffffffffffff
ffffffffffffffff
ffffffffffffffff
ffffffffffffffff
ffffffffffffffff
ffffffffffffffff
ffffffffffffffff
ffffffffffffffff
ffffffffffffffff
ffffffffffffffff
ffffffffffffffff
ffffffffffffffff
ffffffffffffffff
ffffffffffffffff
ffffffffffffffff
ffffffffffffffff
ffffffffffffffff
ffffffffffffffff
7ffffffffffffffe
3ffffffffffffffc
ENDCHAR
STARTCHAR /home/kraus/git/open-iconic/png/image-8x.png
ENCODING 68
DWIDTH 64 0
BBX 64 64 0 0
BITMAP
ffffffffffffffff
ffffffffffffffff
ffffffffffffffff
ffffffffffffffff
ffffffffffffffff
ffffffffffffffff
ffffffffffffffff
ffffffffffffffff
ff000000000000ff
ff000000000000ff
ff000000000000ff
ff000000000000ff
ff000000000000ff
ff000000000000ff
ff000000000000ff
ff000000000000ff
ff000000000000ff
ff000000000000ff
ff000000000000ff
ff000000000000ff
ff000000000000ff
ff000000000000ff
ff000000000000ff
ff000000000000ff
ff000000000000ff
ff018000000180ff
ff03c0000003c0ff
ff07e0000007e0ff
ff0ff000000ff0ff
ff1ff800001ff8ff
ff3ffc00003ffcff
ff7ffe00007ffeff
ffffff00007fffff
ffffff80003fffff
ffffffc0001fffff
ffffffe0000fffff
fffffff00007ffff
fffffff80003ffff
fffffffc0001ffff
fffffffe0000ffff
ffffffff00007fff
ffffffff80003fff
ffffffffc0001fff
ffffffffe0000fff
fffffffff00007ff
fffffffff80003ff
fffffffffc0001ff
fffffffffe0000ff
ffffffffff0000ff
ffffffffff8000ff
ffffffffffc000ff
ffffffffffe000ff
fffffffffff000ff
fffffffffff800ff
fffffffffffc00ff
fffffffffffe00ff
ffffffffffffffff
ffffffffffffffff
ffffffffffffffff
ffffffffffffffff
ffffffffffffffff
ffffffffffffffff
ffffffffffffffff
ffffffffffffffff
ENDCHAR
STARTCHAR /home/kraus/git/open-iconic/png/project-8x.png
ENCODING 69
DWIDTH 64 0
BBX 64 64 0 0
BITMAP
ff000000000000ff
ff000000000000ff
ff000000000000ff
ff000000000000ff
ff000000000000ff
ff000000000000ff
ff000000000000ff
ff000000000000ff
ff00ffff000000ff
ff00ffff000000ff
ff00ffff000000ff
ff00ffff000000ff
ff00ffff000000ff
ff00ffff000000ff
ff00ffff000000ff
ff00ffff000000ff
ff000000000000ff
ff000000000000ff
ff000000000000ff
ff000000000000ff
ff000000000000ff
ff000000000000ff
ff000000000000ff
ff000000000000ff
ff0000ffff0000ff
ff0000ffff0000ff
ff0000ffff0000ff
ff0000ffff0000ff
ff0000ffff0000ff
ff0000ffff0000ff
ff0000ffff0000ff
ff0000ffff0000ff
ff000000000000ff
ff000000000000ff
ff000000000000ff
ff000000000000ff
ff000000000000ff
ff000000000000ff
ff000000000000ff
ff000000000000ff
ff000000ffff00ff
ff000000ffff00ff
ff000000ffff00ff
ff000000ffff00ff
ff000000ffff00ff
ff000000ffff00ff
ff000000ffff00ff
ff000000ffff00ff
ff000000000000ff
ff000000000000ff
ff000000000000ff
ff000000000000ff
ff000000000000ff
ff000000000000ff
ff000000000000ff
ff000000000000ff
0000000000000000
0000000000000000
0000000000000000
0000000000000000
0000000000000000
0000000000000000
0000000000000000
0000000000000000
ENDCHAR
STARTCHAR /home/kraus/git/open-iconic/png/spreadsheet-8x.png
ENCODING 70
DWIDTH 64 0
BBX 64 64 0 0
BITMAP
0ffffffffffffff0
3ffffffffffffffc
7ffffffffffffffe
7ffffffffffffffe
ffffffffffffffff
ffffffffffffffff
ffffffffffffffff
ffffffffffffffff
ff00ff00000000ff
ff00ff00000000ff
ff00ff00000000ff
ff00ff00000000ff
ff00ff00000000ff
ff00ff00000000ff
ff00ff00000000ff
ff00ff00000000ff
ffffffffffffffff
ffffffffffffffff
ffffffffffffffff
ffffffffffffffff
ffffffffffffffff
ffffffffffffffff
ffffffffffffffff
ffffffffffffffff
ff00ff00000000ff
ff00ff00000000ff
ff00ff00000000ff
ff00ff00000000ff
ff00ff00000000ff
ff00ff00000000ff
ff00ff00000000ff
ff00ff00000000ff
ffffffffffffffff
ffffffffffffffff
ffffffffffffffff
ffffffffffffffff
ffffffffffffffff
ffffffffffffffff
ffffffffffffffff
ffffffffffffffff
ff00ff00000000ff
ff00ff00000000ff
ff00ff00000000ff
ff00ff00000000ff
ff00ff00000000ff
ff00ff00000000ff
ff00ff00000000ff
ff00ff00000000ff
ffffffffffffffff
ffffffffffffffff
ffffffffffffffff
ffffffffffffffff
7ffffffffffffffe
7ffffffffffffffe
3ffffffffffffffc
0ffffffffffffff0
0000000000000000
0000000000000000
0000000000000000
0000000000000000
0000000000000000
0000000000000000
0000000000000000
0000000000000000
ENDCHAR
STARTCHAR /home/kraus/git/open-iconic/png/video-8x.png
ENCODING 71
DWIDTH 64 0
BBX 64 64 0 0
BITMAP
0000000000000000
0000000000000000
0000000000000000
0000000000000000
0000000000000000
0000000000000000
0000000000000000
0000000000000000
3ffffffffffc0000
7ffffffffffe0000
ffffffffffff0000
ffffffffffff0000
ffffffffffff0000
ffffffffffff0000
ffffffffffff0000
ffffffffffff0000
ffffffffffff00ff
ffffffffffff01ff
ffffffffffff03ff
ffffffffffff07ff
ffffffffffff0fff
ffffffffffff1fff
ffffffffffff3fff
ffffffffffff7fff
ffffffffffffffff
ffffffffffffffff
ffffffffffffffff
ffffffffffffffff
ffffffffffffffff
ffffffffffffffff
ffffffffffffffff
ffffffffffffffff
ffffffffffff7fff
ffffffffffff3fff
ffffffffffff1fff
ffffffffffff0fff
ffffffffffff07ff
ffffffffffff03ff
ffffffffffff01ff
ffffffffffff00ff
ffffffffffff0000
ffffffffffff0000
ffffffffffff0000
ffffffffffff0000
ffffffffffff0000
ffffffffffff0000
7ffffffffffe0000
3ffffffffffc0000
0000000000000000
0000000000000000
0000000000000000
0000000000000000
0000000000000000
0000000000000000
0000000000000000
0000000000000000
0000000000000000
0000000000000000
0000000000000000
0000000000000000
0000000000000000
0000000000000000
0000000000000000
0000000000000000
ENDCHAR
STARTCHAR /home/kraus/git/open-iconic/png/clipboard-8x.png
ENCODING 72
DWIDTH 64 0
BBX 64 64 0 0
BITMAP
0000003c00000000
0000007e00000000
000000ff00000000
000000ff00000000
000000ff00000000
000000ff00000000
000000ff00000000
000000ff00000000
7f007ffffe00fe00
ff00ffffff00ff00
ff00ffffff00ff00
ff00ffffff00ff00
ff00ffffff00ff00
ff00ffffff00ff00
ff00ffffff00ff00
ff00ffffff00ff00
ff0000000000ff00
ff0000000000ff00
ff0000000000ff00
ff0000000000ff00
ff0000000000ff00
ff0000000000ff00
ff0000000000ff00
ff0000000000ff00
ffffffffffffff00
ffffffffffffff00
ffffffffffffff00
ffffffffffffff00
ffffffffffffff00
ffffffffffffff00
ffffffffffffff00
ffffffffffffff00
ffffffffffffff00
ffffffffffffff00
ffffffffffffff00
ffffffffffffff00
ffffffffffffff00
ffffffffffffff00
ffffffffffffff00
ffffffffffffff00
ffffffffffffff00
ffffffffffffff00
ffffffffffffff00
ffffffffffffff00
ffffffffffffff00
ffffffffffffff00
ffffffffffffff00
ffffffffffffff00
ffffffffffffff00
ffffffffffffff00
ffffffffffffff00
ffffffffffffff00
ffffffffffffff00
ffffffffffffff00
ffffffffffffff00
ffffffffffffff00
ffffffffffffff00
ffffffffffffff00
ffffffffffffff00
ffffffffffffff00
ffffffffffffff00
ffffffffffffff00
ffffffffffffff00
7ffffffffffffe00
ENDCHAR
STARTCHAR /home/kraus/git/open-iconic/png/file-8x.png
ENCODING 73
DWIDTH 64 0
BBX 64 64 0 0
BITMAP
ffffff0000000000
ffffff0080000000
ffffff00c0000000
ffffff00e0000000
ffffff00f0000000
ffffff00f8000000
ffffff00fc000000
ffffff00fe000000
ffffff00ff000000
ffffff00ff800000
ffffff00ffc00000
ffffff00ffe00000
ffffff00fff00000
ffffff00fff80000
ffffff00fffc0000
ffffff00fffe0000
ffffff00ffff0000
ffffff00ffff8000
ffffff00ffffc000
ffffff00ffffe000
ffffff00fffff000
ffffff00fffff800
ffffff00fffffc00
ffffff00fffffe00
ffffff0000000000
ffffff0000000000
ffffff0000000000
ffffff0000000000
ffffff0000000000
ffffff0000000000
ffffff0000000000
ffffff0000000000
ffffffffffffff00
ffffffffffffff00
ffffffffffffff00
ffffffffffffff00
ffffffffffffff00
ffffffffffffff00
ffffffffffffff00
ffffffffffffff00
ffffffffffffff00
ffffffffffffff00
ffffffffffffff00
ffffffffffffff00
ffffffffffffff00
ffffffffffffff00
ffffffffffffff00
ffffffffffffff00
ffffffffffffff00
ffffffffffffff00
ffffffffffffff00
ffffffffffffff00
ffffffffffffff00
ffffffffffffff00
ffffffffffffff00
ffffffffffffff00
ffffffffffffff00
ffffffffffffff00
ffffffffffffff00
ffffffffffffff00
ffffffffffffff00
ffffffffffffff00
ffffffffffffff00
ffffffffffffff00
ENDCHAR
STARTCHAR /home/kraus/git/open-iconic/png/graph-8x.png
ENCODING 74
DWIDTH 64 0
BBX 64 64 0 0
BITMAP
0000000000000080
00000000000001c0
00000000000003e0
00000000000007f0
0000000000000ff8
0000000000001ffc
0000000000003ffe
0000000000007fff
000000000000fffe
000000000001fffc
000000000003fff8
000000000007fff0
00000000000fffe0
00000000001fffc0
00000000003fff80
00000000007fff00
0000000000fffe00
0000018001fffc00
000003c003fff800
000007e007fff000
00000ff00fffe000
00001ff81fffc000
00003ffc3fff8000
00007ffe7fff0000
0000fffffffe0000
0001fffffffc0000
0003fffffff80000
0007fffffff00000
000fffffffe00000
001fffffffc00000
003fffffff800000
007fffffff000000
00fffe7ffe000000
01fffc3ffc000000
03fffc1ff8000000
07fff80ff0000000
0ffff007e0000000
1fffe003c0000000
3fffc00180000000
7fff800000000000
ffff000000000000
7ffe000000000000
3ffc000000000000
1ff8000000000000
0ff0000000000000
07e0000000000000
03c0000000000000
0180000000000000
0000000000000000
0000000000000000
0000000000000000
0000000000000000
0000000000000000
0000000000000000
0000000000000000
0000000000000000
ffffffffffffffff
ffffffffffffffff
ffffffffffffffff
ffffffffffffffff
ffffffffffffffff
ffffffffffffffff
ffffffffffffffff
ffffffffffffffff
ENDCHAR
STARTCHAR /home/kraus/git/open-iconic/png/pie-chart-8x.png
ENCODING 75
DWIDTH 64 0
BBX 64 64 0 0
BITMAP
000001ff00000000
00001fff00000000
0000ffff00000000
0001ffff00000000
0007ffff00000000
001fffff00000000
003fffff00000000
007fffff00000000
007fffff00000000
003fffff00f00000
001fffff00fe0000
000fffff00ff8000
0007ffff00ffe000
0003ffff00fff000
0001ffff00fffc00
0000ffff00fffe00
00007fff00ffff00
00003fff00ffff80
00001fff00ffffc0
01000fff00ffffe0
038007ff00ffffe0
07c003ff00fffff0
0fe001ff00fffff0
0ff000ff00fffff8
1ff8007f00fffff8
3ffc003f00fffffc
3ffe001f00fffffc
3fff000f00fffffe
7fff800700fffffe
7fffc00300fffffe
7fffe00100fffffe
fffff00000ffffff
fffff80000ffffff
fffffc0000ffffff
fffffe0000ffffff
ffffff0000ffffff
ffffff8001ffffff
ffffffc003ffffff
ffffff8007ffffff
ffffff000fffffff
fffffe001fffffff
7ffffc003ffffffe
7ffff8007ffffffe
7ffff000fffffffe
3fffe001fffffffe
3fffc003fffffffc
1fff8007fffffffc
1fff000ffffffff8
0ffe001ffffffff8
0ffc003ffffffff0
07f8007ffffffff0
03f000ffffffffe0
01e001ffffffffe0
00c003ffffffffc0
000007ffffffff80
00000fffffffff00
00001ffffffffe00
00001ffffffffc00
00000ffffffff800
000007ffffffe000
000001ffffff8000
0000007ffffe0000
0000001ffff80000
00000001ff800000
ENDCHAR
STARTCHAR /home/kraus/git/open-iconic/png/script-8x.png
ENCODING 76
DWIDTH 64 0
BBX 64 64 0 0
BITMAP
000007ffffffffe0
00001ffffffffff8
00003ffffffffffc
00007ffffffffffe
00007ffffffffffe
0000ffffffffffff
0000ffffffffffff
0000ffffffffffff
0000ffc3ffffffff
0000ff81ffffffff
0000ff00ffffffff
0000ff00ffffffff
0000ff00ffffffff
0000ff00ffffffff
0000ff00ffffffff
0000ff00ffffffff
0000ff00ffffffff
0000ff00ffffffff
0000ff00ffffffff
0000ff00ffffffff
0000ff00ffffffff
0000ff00ffffffff
0000ff00ffffffff
0000ff00ffffffff
0000ff0000000000
0000ff0000000000
0000ff0000000000
0000ff0000000000
0000ff0000000000
0000ff0000000000
0000ff0000000000
0000ff0000000000
0000ffffffffff00
0000ffffffffff00
0000ffffffffff00
0000ffffffffff00
0000ffffffffff00
0000ffffffffff00
0000ffffffffff00
0000ffffffffff00
ff00ffffffffff00
ff00ffffffffff00
ff00ffffffffff00
ff00ffffffffff00
ff00ffffffffff00
ff00ffffffffff00
ff00ffffffffff00
ff00ffffffffff00
ff00ffffffffff00
ff00ffffffffff00
ff00ffffffffff00
ff00ffffffffff00
ff00ffffffffff00
ff00ffffffffff00
ff81ffffffffff00
ffc3ffffffffff00
ffffffffffffff00
ffffffffffffff00
ffffffffffffff00
7ffffffffffffe00
7ffffffffffffe00
3ffffffffffffc00
1ffffffffffff800
07ffffffffffe000
ENDCHAR
STARTCHAR /home/kraus/git/open-iconic/png/trash-8x.png
ENCODING 77
DWIDTH 64 0
BBX 64 64 0 0
BITMAP
000007ffe0000000
00001ffff8000000
00003ffffc000000
00007ffffe000000
00007ffffe000000
0000ffffff000000
0000ffffff000000
0000ffffff000000
07ffffffffffe000
1ffffffffffff800
3ffffffffffffc00
7ffffffffffffe00
7ffffffffffffe00
ffffffffffffff00
ffffffffffffff00
ffffffffffffff00
0000000000000000
0000000000000000
0000000000000000
0000000000000000
0000000000000000
0000000000000000
0000000000000000
0000000000000000
00ff00ff00ff0000
00ff00ff00ff0000
00ff00ff00ff0000
00ff00ff00ff0000
00ff00ff00ff0000
00ff00ff00ff0000
00ff00ff00ff0000
00ff00ff00ff0000
00ff00ff00ff0000
00ff00ff00ff0000
00ff00ff00ff0000
00ff00ff00ff0000
00ff00ff00ff0000
00ff00ff00ff0000
00ff00ff00ff0000
00ff00ff00ff0000
00ff00ff00ff0000
00ff00ff00ff0000
00ff00ff00ff0000
00ff00ff00ff0000
00ff00ff00ff0000
00ff00ff00ff0000
00ff00ff00ff0000
00ff00ff00ff0000
00ff00ff00ff0000
00ff00ff00ff0000
00ff00ff00ff0000
00ff00ff00ff0000
00ff00ff00ff0000
00ff00ff00ff0000
00ff81ff81ff0000
00ffc3ffc3ff0000
00ffffffffff0000
00ffffffffff0000
00ffffffffff0000
00ffffffffff0000
00ffffffffff0000
00ffffffffff0000
00ffffffffff0000
00ffffffffff0000
ENDCHAR
