STARTFONT 2.1
FONT "open_iconic_www_6x"
SIZE 16 75 75
FONTBOUNDINGBOX 16 16 0 0
STARTPROPERTIES 3
COPYRIGHT "https://github.com/iconic/open-iconic, SIL OPEN FONT LICENSE"
FONT_ASCENT 0
FONT_DESCENT 0
ENDPROPERTIES
STARTCHAR /home/kraus/git/open-iconic/png/badge-6x.png
ENCODING 64
DWIDTH 48 0
BBX 48 48 0 0
BITMAP
000007e00000
00003ffc0000
00007ffe0000
0000ffff0000
0001ffff8000
0003ffffc000
0007ffffe000
0007ffffe000
0007ffffe000
000ffffff000
000ffffff000
000ffffff000
000ffffff000
000ffffff000
000ffffff000
0007ffffe000
0007ffffe000
0007ffffe000
0003ffffc000
0001ffff8000
0000ffff0000
00007ffe0000
00003ffc0000
000007e00000
000000000000
000000000000
000000000000
000000000000
000000000000
0000300c0000
00003ffc0000
00003ffc0000
00003ffc0000
00003ffc0000
00003ffc0000
00003ffc0000
00003ffc0000
00003ffc0000
00003ffc0000
00003ffc0000
00003ffc0000
00003ffc0000
00003e7c0000
00003c3c0000
0000381c0000
0000300c0000
000020040000
000000000000
ENDCHAR
STARTCHAR /home/kraus/git/open-iconic/png/bookmark-6x.png
ENCODING 65
DWIDTH 48 0
BBX 48 48 0 0
BITMAP
000ffffff000
000ffffff000
000ffffff000
000ffffff000
000ffffff000
000ffffff000
000ffffff000
000ffffff000
000ffffff000
000ffffff000
000ffffff000
000ffffff000
000ffffff000
000ffffff000
000ffffff000
000ffffff000
000ffffff000
000ffffff000
000ffffff000
000ffffff000
000ffffff000
000ffffff000
000ffffff000
000ffffff000
000ffffff000
000ffffff000
000ffffff000
000ffffff000
000ffffff000
000ffffff000
000ffffff000
000ffffff000
000ffffff000
000ffffff000
000ffffff000
000ffffff000
000ffe7ff000
000ffc3ff000
000ff81ff000
000ff00ff000
000fe007f000
000fc003f000
000f8001f000
000f0000f000
000e00007000
000c00003000
000800001000
000000000000
ENDCHAR
STARTCHAR /home/kraus/git/open-iconic/png/cart-6x.png
ENCODING 66
DWIDTH 48 0
BBX 48 48 0 0
BITMAP
000000000000
000000000000
000000000000
000000000000
000000000000
000000000000
7fff00000000
ffff80000000
ffffc0000000
ffffc0000000
ffffe0000000
7ffff0000000
000ffffffffe
0007fffffffe
0007fffffffe
0007fffffffe
0003fffffffc
0003fffffffc
0003fffffffc
0001fffffff8
0001fffffff8
0001fffffff8
0001fffffff0
0000fffffff0
0000fffffff0
0000ffffffe0
00007fffffe0
00007fffffe0
00007fffffe0
00003fffffc0
000000000000
000000000000
000000000000
000000000000
000000000000
000000000000
00001e000780
00003f000fc0
00003f000fc0
00003f000fc0
00003f000fc0
00001e000780
000000000000
000000000000
000000000000
000000000000
000000000000
000000000000
ENDCHAR
STARTCHAR /home/kraus/git/open-iconic/png/cloud-upload-6x.png
ENCODING 67
DWIDTH 48 0
BBX 48 48 0 0
BITMAP
000001fe0000
00000fff8000
00001fffe000
00007ffff800
0000fffffc00
0001fffffe00
0003fffffe00
0003ffffff00
0007ffffff00
0007ffffff80
000fffffff80
000fffffffc0
007fffffffc0
03ffffffffc0
07ffffffffc0
0fffffffffc0
1fffffffffc0
3fffffffffc0
7fffffcfffe0
7fffff87fff8
7fffff03fffc
fffffe01fffc
fffffc00fffe
fffff8007ffe
fffff0003fff
ffffe0001fff
ffffc0000fff
7fff800007ff
7fff003003ff
7ffe007801ff
000000fc0000
000001fe0000
000003ff0000
000007ff8000
00000fffc000
00001fffe000
00003ffff000
00007ffff800
0000fffffc00
0001fffffe00
0003ffffff00
0007ffffff80
000000fc0000
000000fc0000
000000fc0000
000000fc0000
000000fc0000
000000780000
ENDCHAR
STARTCHAR /home/kraus/git/open-iconic/png/flag-6x.png
ENCODING 68
DWIDTH 48 0
BBX 48 48 0 0
BITMAP
fc0ffffc0000
fc0ffffc0000
fc0ffffc0000
fc0ffffc0000
fc0ffffc0000
fc0ffffc0000
fc0ffffffffe
fc0ffffffffe
fc0ffffffffc
fc0ffffffff8
fc0ffffffff0
fc0fffffffe0
fc0fffffffc0
fc0fffffff80
fc0fffffff00
fc0ffffffe00
fc0ffffffc00
fc0ffffff800
fc0ffffff000
fc0ffffff800
fc0ffffffc00
fc0ffffffe00
fc0fffffff00
fc0fffffff80
fc0000ffffc0
fc0000ffffe0
fc0000fffff0
fc0000fffff8
fc0000fffffc
fc0000fffffe
fc0000000000
fc0000000000
fc0000000000
fc0000000000
fc0000000000
fc0000000000
fc0000000000
fc0000000000
fc0000000000
fc0000000000
fc0000000000
fc0000000000
fc0000000000
fc0000000000
fc0000000000
fc0000000000
fc0000000000
fc0000000000
ENDCHAR
STARTCHAR /home/kraus/git/open-iconic/png/link-broken-6x.png
ENCODING 69
DWIDTH 48 0
BBX 48 48 0 0
BITMAP
000fc0007e00
000fc003ffc0
000fc007ffe0
000fc00ffff0
000fc01ffff8
000fc03ffffc
03ffc07fc1fe
03ffc0ff00fe
03ffc0fe007e
03ffc0fc003f
03ffc0f8003f
03ffc030003f
00000000003f
00000000003f
00000000003f
00000000007e
0000000000fe
0000000001fe
0007800003fc
000f800007f8
001f80000ff0
003f80001fe0
007f80003fc0
00ff00007f80
01fe0000ff00
03fc0001fe00
07f80003fc00
0ff00003f800
1fe00003f000
3fc00001e000
7f800000c000
7f0000000000
7e0000000000
fc0000000000
fc0000000000
fc0000000000
fc000e03ffc0
fc001f03ffc0
fc003f03ffc0
7e007f03ffc0
7f00ff03ffc0
7f83fe03ffc0
3ffffc03f000
1ffff803f000
0ffff003f000
07ffe003f000
03ffc003f000
007e0003f000
ENDCHAR
STARTCHAR /home/kraus/git/open-iconic/png/location-6x.png
ENCODING 70
DWIDTH 48 0
BBX 48 48 0 0
BITMAP
000000000000
000000000006
00000000001e
00000000007c
0000000001fc
0000000007f8
000000001ff8
000000007ff0
00000001fff0
00000007ffe0
0000001fffe0
0000007fffc0
000001ffffc0
000007ffff80
00001fffff80
00007fffff00
0001ffffff00
0007fffffe00
001ffffffe00
007ffffffc00
01fffffffc00
07fffffff800
1ffffffff800
7ffffffff000
3ffffffff000
07ffffffe000
00ffffffe000
001fffffc000
0003ffffc000
00007fff8000
00003fff8000
00001fff0000
00001fff0000
00001ffe0000
00000ffe0000
00000ffc0000
00000ffc0000
000007f80000
000007f80000
000007f00000
000003f00000
000003e00000
000003e00000
000001c00000
000001c00000
000001800000
000000800000
000000000000
ENDCHAR
STARTCHAR /home/kraus/git/open-iconic/png/map-marker-6x.png
ENCODING 71
DWIDTH 48 0
BBX 48 48 0 0
BITMAP
00000ff00000
00007ffe0000
0001ffff8000
0007ffffe000
000ffffff000
001ffffff800
003ff81ffc00
007fc003fe00
007f8001fe00
00ff0000ff00
00fe00007f00
01fc00003f80
01f800001f80
01f800001f80
03f800001fc0
03f000000fc0
03f000000fc0
03f000000fc0
03f000000fc0
03f000000fc0
03f000000fc0
03f800001fc0
01f800001f80
01f800001f80
01fc00003f80
00fe00007f00
00ff0000ff00
007f8001fe00
007fc003fe00
003ff81ffc00
003ffffffc00
001ffffff800
000ffffff000
000ffffff000
0007ffffe000
0003ffffc000
0003ffffc000
0001ffff8000
0000ffff0000
00007ffe0000
00007ffe0000
00003ffc0000
00001ff80000
00000ff00000
000007e00000
000003c00000
000001800000
000000000000
ENDCHAR
STARTCHAR /home/kraus/git/open-iconic/png/rss-alt-6x.png
ENCODING 72
DWIDTH 48 0
BBX 48 48 0 0
BITMAP
fe0000000000
fff000000000
fffe00000000
ffffc0000000
fffff0000000
fffffc000000
ffffff000000
ffffffc00000
ffffffe00000
fffffff80000
fffffffc0000
fffffffe0000
03ffffff0000
003fffff8000
0007ffffc000
0000ffffe000
00003ffff000
00001ffff800
f80007fffc00
ff8003fffe00
fff001fffe00
fffc00ffff00
ffff007fff80
ffff803fff80
ffffe01fffc0
fffff00fffc0
fffff807ffe0
fffffc03ffe0
fffffe03fff0
ffffff01fff0
0fffff00fff8
01ffff80fff8
007fffc07ff8
001fffc07ffc
000fffe07ffc
0007ffe03ffc
e003fff03ffe
fc01fff03ffe
fe01fff01ffe
ff00fff81ffe
ff80fff81ffe
ffc07ff81fff
ffe07ff80fff
ffe07ffc0fff
ffe03ffc0fff
fff03ffc0fff
fff03ffc0fff
fff03ffc0fff
ENDCHAR
STARTCHAR /home/kraus/git/open-iconic/png/thumb-up-6x.png
ENCODING 73
DWIDTH 48 0
BBX 48 48 0 0
BITMAP
000000780000
000000fc0000
000000fc0000
000001fc0000
000001fc0000
000003f80000
000003f80000
000007f80000
000007f00000
00000ff00000
00000ff00000
00001ff00000
00001fe00000
00003fe00000
00007fe00000
00007fe00000
0000ffe00000
0001fff00000
fc0fffffff80
fc0fffffffc0
fc0fffffffc0
fc0fffffffc0
fc0fffffffc0
fc0fffffff80
fc0fffffff80
fc0fffffff80
fc0fffffff00
fc0fffffff00
fc0fffffff00
fc0ffffffe00
fc0ffffffe00
fc0ffffffe00
fc0ffffffc00
fc0ffffffc00
fc0ffffffc00
fc0ffffff800
fc0ffffff800
fc0ffffff800
fc0ffffff000
fc0ffffff000
fc0ffffff000
fc0fffffe000
000000000000
000000000000
000000000000
000000000000
000000000000
000000000000
ENDCHAR
STARTCHAR /home/kraus/git/open-iconic/png/ban-6x.png
ENCODING 74
DWIDTH 48 0
BBX 48 48 0 0
BITMAP
00001ff80000
0000ffff0000
0007ffffe000
000ffffff000
003ffffffc00
007ffffffe00
00fff00fff00
01ff8001ff80
03fe00007fc0
07f800003fe0
0ff000007ff0
0fe00000fff0
1fc00001fff8
3f800003fffc
3f800007fdfc
3f00000ff8fc
7f00001ff0fe
7e00003fe07e
7e00007fc07e
fe0000ff807f
fc0001ff003f
fc0003fe003f
fc0007fc003f
fc000ff8003f
fc001ff0003f
fc003fe0003f
fc007fc0003f
fc00ff80003f
fe01ff00007f
7e03fe00007e
7e07fc00007e
7f0ff80000fe
3f1ff00000fc
3fbfe00001fc
3fffc00001fc
1fff800003f8
0fff000007f0
0ffe00000ff0
07fc00001fe0
03fe00007fc0
01ff8001ff80
00fff00fff00
007ffffffe00
003ffffffc00
000ffffff000
0007ffffe000
0000ffff0000
00001ff80000
ENDCHAR
STARTCHAR /home/kraus/git/open-iconic/png/browser-6x.png
ENCODING 75
DWIDTH 48 0
BBX 48 48 0 0
BITMAP
7ffffffffffe
ffffffffffff
ffffffffffff
ffffffffffff
ffffffffffff
ffffffffffff
fe1fe000007f
fc0fc000003f
fc0fc000003f
fc0fc000003f
fc0fc000003f
fe1fe000007f
ffffffffffff
ffffffffffff
ffffffffffff
ffffffffffff
ffffffffffff
ffffffffffff
fc000000003f
fc000000003f
fc000000003f
fc000000003f
fc000000003f
fc000000003f
fc000000003f
fc000000003f
fc000000003f
fc000000003f
fc000000003f
fc000000003f
fc000000003f
fc000000003f
fc000000003f
fc000000003f
fc000000003f
fc000000003f
fc000000003f
fc000000003f
fc000000003f
fc000000003f
fc000000003f
fc000000003f
ffffffffffff
ffffffffffff
ffffffffffff
ffffffffffff
ffffffffffff
7ffffffffffe
ENDCHAR
STARTCHAR /home/kraus/git/open-iconic/png/cloud-download-6x.png
ENCODING 76
DWIDTH 48 0
BBX 48 48 0 0
BITMAP
000001fe0000
00000fff8000
00001fffe000
00007ffff800
0000fffffc00
0001fffffe00
0003fffffe00
0003ffffff00
0007ffffff00
0007ffffff80
000fffffff80
000fffffffc0
007fffffffc0
03ffffffffc0
07ffffffffc0
0fffffffffc0
1fffffffffc0
3fffffffffc0
7fffff03ffe0
7ffffc00fff8
7ffff8007ffc
fffff0003ffc
ffffe0001ffe
ffffe0001ffe
ffffc0780fff
ffffc0fc0fff
ffffc0fc0fff
7fffc0fc0fff
7fffc0fc0fff
7fffc0fc0fff
000000fc0000
000000fc0000
000000fc0000
000000fc0000
000000fc0000
000000fc0000
0000fffffc00
00007ffff800
00003ffff000
00001fffe000
00000fffc000
000007ff8000
000003ff0000
000001fe0000
000000fc0000
000000780000
000000300000
000000000000
ENDCHAR
STARTCHAR /home/kraus/git/open-iconic/png/external-link-6x.png
ENCODING 77
DWIDTH 48 0
BBX 48 48 0 0
BITMAP
fff0007fffff
fff0003fffff
fff0001fffff
fff0000fffff
fff00007ffff
fff00003ffff
fc000001ffff
fc000000ffff
fc0000007fff
fc0000007fff
fc000000ffff
fc000001ffff
fc000003ffff
fc000007ffff
fc00000fffff
fc00001ffcff
fc00003ff87f
fc00007ff03f
fc0000ffe01f
fc0001ffc00f
fc0003ff8007
fc0007ff0003
fc000ffe0001
fc001ffc0000
fc001ff80000
fc000ff00000
fc0007e00000
fc0003c00000
fc0001800000
fc0000000000
fc0000000000
fc0000000000
fc0000000000
fc0000000000
fc0000000000
fc0000000000
fc000000003f
fc000000003f
fc000000003f
fc000000003f
fc000000003f
fc000000003f
ffffffffffff
ffffffffffff
ffffffffffff
ffffffffffff
ffffffffffff
ffffffffffff
ENDCHAR
STARTCHAR /home/kraus/git/open-iconic/png/globe-6x.png
ENCODING 78
DWIDTH 48 0
BBX 48 48 0 0
BITMAP
00001ff80000
0000ffff0000
0007ffffe000
000ffffff000
003ffffffc00
007ffffffe00
00fff00fff00
01ff8007ff80
03fe000fffc0
07ff001fffe0
0fff801ffff0
0fff8007fff0
1fff8001fff8
3ffe0001e1fc
3fe0000181fc
3fe0000380fc
7fe00003f0fe
7f000001f8fe
7f000001fdfe
ff000001ffff
ff000003ffff
ff800007ffff
ff800007ffff
ffc0000fffff
fcc0001fffff
fc40001fffff
fc00001fffff
fc00001fffff
fe00001fffff
7e00000ffffe
7ff00007fffe
7ffc0000fffe
3ffe000003fc
3fff000001fc
3fff000001fc
1fff800003f8
0fff800007f0
0fffc0000ff0
07ffc0001fe0
03ffc0007fc0
01ffc001ff80
00fff00fff00
007ffffffe00
003ffffffc00
000ffffff000
0007ffffe000
0000ffff0000
00001ff80000
ENDCHAR
STARTCHAR /home/kraus/git/open-iconic/png/link-intact-6x.png
ENCODING 79
DWIDTH 48 0
BBX 48 48 0 0
BITMAP
000000007e00
00000003ffc0
00000007ffe0
0000000ffff0
0000001ffff8
0000003ffffc
0000003fc1fe
0000001f00fe
0000001e007e
00000000003f
00000000003f
00000000003f
00000000003f
00000000003f
00001fe0003f
00007ff8007e
0001fffc00fe
0003fffc01fe
0007fffc03fc
000ffffc07f8
001ff0380ff0
003fc0001fe0
007f80003fc0
00ff00007f80
01fe0000ff00
03fc0001fe00
07f80003fc00
0ff01e0ff800
1fe03ffff000
3fc03fffe000
7f803fffc000
7f003fff8000
7e001ffe0000
fc0003f80000
fc0000000000
fc0000000000
fc0000000000
fc0000000000
fc0000000000
7e0078000000
7f00f8000000
7fc3fc000000
3ffffc000000
1ffff8000000
0ffff0000000
07ffe0000000
03ffc0000000
007e00000000
ENDCHAR
STARTCHAR /home/kraus/git/open-iconic/png/map-6x.png
ENCODING 80
DWIDTH 48 0
BBX 48 48 0 0
BITMAP
ffffffffffff
ffffffffffff
ffffffffffff
ffffffffffff
ffffffffffff
ffffffffffff
fc000000003f
fc000000003f
fc000000003f
fc000000003f
fc000000003f
fc000000003f
fc003f00003f
fc00ffc0003f
fc01ffe0003f
fc03fff0003f
fc07fff8003f
fc07fff8003f
fc0fe1fc003f
fc0fc0fc003f
fc0fc0fc003f
fc0fc0fc003f
fc0fc0fc003f
fc0fe1fc003f
fc07fff8003f
fc07fff8003f
fc03fff0003f
fc03fff0003f
fc01ffe0003f
fc00ffc0003f
fc00ffc1ffff
fc007f83ffff
fc003f03ffff
fc001e03ffff
fc000c03ffff
fc000001ffff
fc000000003f
fc000000003f
fc000000003f
fc000000003f
fc000000003f
fc000000003f
ffffffffffff
ffffffffffff
ffffffffffff
ffffffffffff
ffffffffffff
ffffffffffff
ENDCHAR
STARTCHAR /home/kraus/git/open-iconic/png/rss-6x.png
ENCODING 81
DWIDTH 48 0
BBX 48 48 0 0
BITMAP
03f000000000
03ff80000000
03fff0000000
03fffe000000
03ffff800000
03ffffe00000
000ffff00000
0000fffc0000
00001ffe0000
000003ff8000
000001ffc000
0000007fe000
03e0001ff000
03fe000ff800
03ffc007fc00
03fff003fe00
03fffc01fe00
03fffe00ff00
001fff807f80
0003ffc03f80
00007fe01fc0
00003ff00fe0
00000ff80fe0
000007fc07f0
03c003fc07f0
03f801fe03f8
03fe00ff01f8
03ff807f01f8
03ffc03f81fc
03ffe03f80fc
007ff01fc0fc
000ff80fc0fe
0007f80fc07e
0003fc0fe07e
0001fc07e07e
0000fe07e07e
0f007e07e03f
3fc07e03f03f
7fe07f03f03f
7fe03f03f03f
fff03f03f03f
fff03f03f03f
fff000000000
fff000000000
7fe000000000
7fe000000000
3fc000000000
0f0000000000
ENDCHAR
STARTCHAR /home/kraus/git/open-iconic/png/thumb-down-6x.png
ENCODING 82
DWIDTH 48 0
BBX 48 48 0 0
BITMAP
fc0fffffe000
fc0ffffff000
fc0ffffff000
fc0ffffff000
fc0ffffff800
fc0ffffff800
fc0ffffff800
fc0ffffffc00
fc0ffffffc00
fc0ffffffc00
fc0ffffffe00
fc0ffffffe00
fc0ffffffe00
fc0fffffff00
fc0fffffff00
fc0fffffff00
fc0fffffff80
fc0fffffff80
fc0fffffff80
fc0fffffffc0
fc0fffffffc0
fc0fffffffc0
fc0fffffffc0
fc0fffffff80
0001fff00000
0000ffe00000
00007fe00000
00003fe00000
00003fe00000
00001fe00000
00001ff00000
00000ff00000
00000ff00000
000007f00000
000007f80000
000003f80000
000003f80000
000001fc0000
000001fc0000
000000fc0000
000000fc0000
000000780000
000000000000
000000000000
000000000000
000000000000
000000000000
000000000000
ENDCHAR
STARTCHAR /home/kraus/git/open-iconic/png/transfer-6x.png
ENCODING 83
DWIDTH 48 0
BBX 48 48 0 0
BITMAP
000000000800
000000000c00
000000000e00
000000000f80
000000000fc0
000000000fe0
fffffffffff8
fffffffffffc
fffffffffffe
fffffffffffe
fffffffffffc
fffffffffff8
000000000fe0
000000000fc0
000000000f80
000000000e00
000000000c00
000000000800
000000000000
000000000000
000000000000
000000000000
000000000000
000000000000
001000000000
003000000000
007000000000
01f000000000
03f000000000
07f000000000
1fffffffffff
3fffffffffff
7fffffffffff
7fffffffffff
3fffffffffff
1fffffffffff
07f000000000
03f000000000
01f000000000
007000000000
003000000000
001000000000
000000000000
000000000000
000000000000
000000000000
000000000000
000000000000
ENDCHAR
