STARTFONT 2.1
FONT "open_iconic_www_8x"
SIZE 16 75 75
FONTBOUNDINGBOX 16 16 0 0
STARTPROPERTIES 3
COPYRIGHT "https://github.com/iconic/open-iconic, SIL OPEN FONT LICENSE"
FONT_ASCENT 0
FONT_DESCENT 0
ENDPROPERTIES
STARTCHAR /home/kraus/git/open-iconic/png/badge-8x.png
ENCODING 64
DWIDTH 64 0
BBX 64 64 0 0
BITMAP
0000000ff0000000
0000007ffe000000
000001ffff800000
000003ffffc00000
000007ffffe00000
00000ffffff00000
00001ffffff80000
00003ffffffc0000
00003ffffffc0000
00007ffffffe0000
00007ffffffe0000
00007ffffffe0000
0000ffffffff0000
0000ffffffff0000
0000ffffffff0000
0000ffffffff0000
0000ffffffff0000
0000ffffffff0000
0000ffffffff0000
0000ffffffff0000
00007ffffffe0000
00007ffffffe0000
00007ffffffe0000
00003ffffffc0000
00003ffffffc0000
00001ffffff80000
00000ffffff00000
000007ffffe00000
000003ffffc00000
000001ffff800000
0000007ffe000000
0000000ff0000000
0000000000000000
0000000000000000
0000000000000000
0000000000000000
0000000000000000
0000000000000000
0000000000000000
000000f00f000000
000000ffff000000
000000ffff000000
000000ffff000000
000000ffff000000
000000ffff000000
000000ffff000000
000000ffff000000
000000ffff000000
000000ffff000000
000000ffff000000
000000ffff000000
000000ffff000000
000000ffff000000
000000ffff000000
000000ffff000000
000000ffff000000
000000fe7f000000
000000fc3f000000
000000f81f000000
000000f00f000000
000000e007000000
000000c003000000
0000008001000000
0000000000000000
ENDCHAR
STARTCHAR /home/kraus/git/open-iconic/png/bookmark-8x.png
ENCODING 65
DWIDTH 64 0
BBX 64 64 0 0
BITMAP
0000ffffffff0000
0000ffffffff0000
0000ffffffff0000
0000ffffffff0000
0000ffffffff0000
0000ffffffff0000
0000ffffffff0000
0000ffffffff0000
0000ffffffff0000
0000ffffffff0000
0000ffffffff0000
0000ffffffff0000
0000ffffffff0000
0000ffffffff0000
0000ffffffff0000
0000ffffffff0000
0000ffffffff0000
0000ffffffff0000
0000ffffffff0000
0000ffffffff0000
0000ffffffff0000
0000ffffffff0000
0000ffffffff0000
0000ffffffff0000
0000ffffffff0000
0000ffffffff0000
0000ffffffff0000
0000ffffffff0000
0000ffffffff0000
0000ffffffff0000
0000ffffffff0000
0000ffffffff0000
0000ffffffff0000
0000ffffffff0000
0000ffffffff0000
0000ffffffff0000
0000ffffffff0000
0000ffffffff0000
0000ffffffff0000
0000ffffffff0000
0000ffffffff0000
0000ffffffff0000
0000ffffffff0000
0000ffffffff0000
0000ffffffff0000
0000ffffffff0000
0000ffffffff0000
0000ffffffff0000
0000fffe7fff0000
0000fffc3fff0000
0000fff81fff0000
0000fff00fff0000
0000ffe007ff0000
0000ffc003ff0000
0000ff8001ff0000
0000ff0000ff0000
0000fe00007f0000
0000fc00003f0000
0000f800001f0000
0000f000000f0000
0000e00000070000
0000c00000030000
0000800000010000
0000000000000000
ENDCHAR
STARTCHAR /home/kraus/git/open-iconic/png/cart-8x.png
ENCODING 66
DWIDTH 64 0
BBX 64 64 0 0
BITMAP
0000000000000000
0000000000000000
0000000000000000
0000000000000000
0000000000000000
0000000000000000
0000000000000000
0000000000000000
7ffffc0000000000
fffffe0000000000
fffffe0000000000
ffffff0000000000
ffffff8000000000
ffffff8000000000
ffffffc000000000
7fffffc000000000
0000fffffffffffe
00007ffffffffffe
00007ffffffffffe
00007ffffffffffe
00003ffffffffffc
00003ffffffffffc
00003ffffffffffc
00001ffffffffff8
00001ffffffffff8
00001ffffffffff8
00000ffffffffff0
00000ffffffffff0
00000ffffffffff0
00000fffffffffe0
000007ffffffffe0
000007ffffffffe0
000007ffffffffc0
000003ffffffffc0
000003ffffffffc0
000003ffffffffc0
000001ffffffff80
000001ffffffff80
000000ffffffff00
0000007ffffffe00
0000000000000000
0000000000000000
0000000000000000
0000000000000000
0000000000000000
0000000000000000
0000000000000000
0000000000000000
0000003c00003c00
0000007e00007e00
000000ff0000ff00
000000ff0000ff00
000000ff0000ff00
000000ff0000ff00
0000007e00007e00
0000003c00003c00
0000000000000000
0000000000000000
0000000000000000
0000000000000000
0000000000000000
0000000000000000
0000000000000000
0000000000000000
ENDCHAR
STARTCHAR /home/kraus/git/open-iconic/png/cloud-upload-8x.png
ENCODING 67
DWIDTH 64 0
BBX 64 64 0 0
BITMAP
00000000ff000000
0000000ffff00000
0000003ffffc0000
0000007ffffe0000
000001ffffff8000
000003ffffffc000
000007ffffffe000
00000ffffffff000
00001ffffffff000
00001ffffffff800
00003ffffffffc00
00003ffffffffc00
00007ffffffffe00
00007ffffffffe00
0000fffffffffe00
0000fffffffffe00
000fffffffffff00
007fffffffffff00
01ffffffffffff00
03ffffffffffff00
07ffffffffffff00
0fffffffffffff00
1fffffffffffff00
3fffffffffffff00
3fffffffe7ffff80
7fffffffc3ffffe0
7fffffff81fffff0
7fffffff00fffff8
fffffffe007ffffc
fffffffc003ffffc
fffffff8001ffffe
fffffff0000ffffe
ffffffe00007fffe
ffffffc00003ffff
ffffff800001ffff
ffffff000000ffff
7ffffe0000007fff
7ffffc0018003fff
7ffff8003c001fff
3ffff0007e000ffe
00000000ff000000
00000001ff800000
00000003ffc00000
00000007ffe00000
0000000ffff00000
0000001ffff80000
0000003ffffc0000
0000007ffffe0000
000000ffffff0000
000001ffffff8000
000003ffffffc000
000007ffffffe000
00000ffffffff000
00001ffffffff800
00003ffffffffc00
00007ffffffffe00
00000000ff000000
00000000ff000000
00000000ff000000
00000000ff000000
00000000ff000000
00000000ff000000
000000007e000000
000000003c000000
ENDCHAR
STARTCHAR /home/kraus/git/open-iconic/png/flag-8x.png
ENCODING 68
DWIDTH 64 0
BBX 64 64 0 0
BITMAP
ff00ffffff000000
ff00ffffff000000
ff00ffffff000000
ff00ffffff000000
ff00ffffff000000
ff00ffffff000000
ff00ffffff000000
ff00ffffff000000
ff00fffffffffffe
ff00fffffffffffe
ff00fffffffffffc
ff00fffffffffff8
ff00fffffffffff0
ff00ffffffffffe0
ff00ffffffffffc0
ff00ffffffffff80
ff00ffffffffff00
ff00fffffffffe00
ff00fffffffffc00
ff00fffffffff800
ff00fffffffff000
ff00ffffffffe000
ff00ffffffffc000
ff00ffffffff8000
ff00ffffffff0000
ff00ffffffff8000
ff00ffffffffc000
ff00ffffffffe000
ff00fffffffff000
ff00fffffffff800
ff00fffffffffc00
ff00fffffffffe00
ff000000ffffff00
ff000000ffffff80
ff000000ffffffc0
ff000000ffffffe0
ff000000fffffff0
ff000000fffffff8
ff000000fffffffc
ff000000fffffffe
ff00000000000000
ff00000000000000
ff00000000000000
ff00000000000000
ff00000000000000
ff00000000000000
ff00000000000000
ff00000000000000
ff00000000000000
ff00000000000000
ff00000000000000
ff00000000000000
ff00000000000000
ff00000000000000
ff00000000000000
ff00000000000000
ff00000000000000
ff00000000000000
ff00000000000000
ff00000000000000
ff00000000000000
ff00000000000000
ff00000000000000
ff00000000000000
ENDCHAR
STARTCHAR /home/kraus/git/open-iconic/png/link-broken-8x.png
ENCODING 69
DWIDTH 64 0
BBX 64 64 0 0
BITMAP
0000ff000007e000
0000ff00007ffe00
0000ff0000ffff00
0000ff0003ffffc0
0000ff0007ffffe0
0000ff000ffffff0
0000ff001ffffff8
0000ff003ffffffc
00ffff007ff81ffc
00ffff00ffe007fe
00ffff00ffc003fe
00ffff01ff8001fe
00ffff00ff0001ff
00ffff00fe0000ff
00ffff007c0000ff
00ffff00100000ff
00000000000000ff
00000000000000ff
00000000000000ff
00000000000001ff
00000000000001fe
00000000000003fe
00000000000007fe
0000100000000ffc
00007c0000001ffc
0000fe0000003ff8
0001fe0000007ff0
0003fe000000ffe0
0007fe000001ffc0
000ffe000003ff80
001ffc000007ff00
003ff800000ffe00
007ff000001ffc00
00ffe000003ff800
01ffc000007ff000
03ff800000ffe000
07ff000000ffc000
0ffe000000ff8000
1ffc000000ff0000
1ff80000007e0000
3ff00000003c0000
3fe0000000000000
7fc0000000000000
7f80000000000000
7f80000000000000
ff00000000000000
ff00000000000000
ff00000000000000
ff00000c00ffff00
ff00003e00ffff00
ff00007f00ffff00
7f8000ff80ffff00
7f8001ff80ffff00
7fc003ff00ffff00
3fe007ff00ffff00
3ff81ffe00ffff00
1ffffffc00ff0000
1ffffff800ff0000
0ffffff000ff0000
07ffffe000ff0000
03ffffc000ff0000
00ffff0000ff0000
007ffe0000ff0000
000ff00000ff0000
ENDCHAR
STARTCHAR /home/kraus/git/open-iconic/png/location-8x.png
ENCODING 70
DWIDTH 64 0
BBX 64 64 0 0
BITMAP
0000000000000000
0000000000000006
000000000000001e
000000000000007c
00000000000001fc
00000000000007f8
0000000000001ff8
0000000000007ff0
000000000001fff0
000000000007ffe0
00000000001fffe0
00000000007fffc0
0000000001ffffc0
0000000007ffff80
000000001fffff80
000000007fffff00
00000001ffffff00
00000007fffffe00
0000001ffffffe00
0000007ffffffc00
000001fffffffc00
000007fffffff800
00001ffffffff800
00007ffffffff000
0001fffffffff000
0007ffffffffe000
001fffffffffe000
007fffffffffc000
01ffffffffffc000
07ffffffffff8000
1fffffffffff8000
7fffffffffff0000
3fffffffffff0000
07fffffffffe0000
00fffffffffe0000
001ffffffffc0000
0003fffffffc0000
00007ffffff80000
00000ffffff80000
000001fffff00000
000000fffff00000
0000007fffe00000
0000007fffe00000
0000007fffc00000
0000003fffc00000
0000003fff800000
0000003fff800000
0000001fff000000
0000001fff000000
0000001ffe000000
0000000ffe000000
0000000ffc000000
0000000ffc000000
00000007f8000000
00000007f8000000
00000007f0000000
00000003f0000000
00000003e0000000
00000003e0000000
00000001c0000000
00000001c0000000
0000000180000000
0000000080000000
0000000000000000
ENDCHAR
STARTCHAR /home/kraus/git/open-iconic/png/map-marker-8x.png
ENCODING 71
DWIDTH 64 0
BBX 64 64 0 0
BITMAP
0000001ff8000000
000000ffff000000
000007ffffe00000
00000ffffff00000
00003ffffffc0000
00007ffffffe0000
0000ffffffff0000
0001ffffffff8000
0003fff00fffc000
0007ff8001ffe000
000ffe00007ff000
000ffc00003ff000
001ff800001ff800
003ff000000ffc00
003fe0000007fc00
003fc0000003fc00
007fc0000003fe00
007f80000001fe00
007f80000001fe00
00ff80000001ff00
00ff00000000ff00
00ff00000000ff00
00ff00000000ff00
00ff00000000ff00
00ff00000000ff00
00ff00000000ff00
00ff00000000ff00
00ff00000000ff00
007f80000001fe00
007f80000001fe00
007f80000001fe00
007fc0000003fe00
003fc0000003fc00
003fe0000007fc00
001ff000000ff800
001ff800001ff800
000ffc00003ff000
000ffe00007ff000
0007ff8001ffe000
0007fff00fffe000
0003ffffffffc000
0003ffffffffc000
0001ffffffff8000
0001ffffffff8000
0000ffffffff0000
00007ffffffe0000
00007ffffffe0000
00003ffffffc0000
00001ffffff80000
00000ffffff00000
00000ffffff00000
000007ffffe00000
000003ffffc00000
000001ffff800000
000000ffff000000
000000ffff000000
0000007ffe000000
0000003ffc000000
0000001ff8000000
0000000ff0000000
00000007e0000000
00000003c0000000
0000000180000000
0000000000000000
ENDCHAR
STARTCHAR /home/kraus/git/open-iconic/png/rss-alt-8x.png
ENCODING 72
DWIDTH 64 0
BBX 64 64 0 0
BITMAP
ff00000000000000
fffc000000000000
ffffc00000000000
fffff80000000000
ffffff0000000000
ffffffc000000000
fffffff000000000
fffffffc00000000
ffffffff00000000
ffffffff80000000
ffffffffe0000000
fffffffff8000000
fffffffffc000000
fffffffffe000000
ffffffffff000000
ffffffffffc00000
01ffffffffe00000
000ffffffff00000
0001fffffff80000
00003ffffffc0000
00000ffffffe0000
000003ffffff0000
000000ffffff8000
0000003fffff8000
fc00001fffffc000
ffe00007ffffe000
fffc0003fffff000
ffff0001fffff800
ffffc000fffff800
fffff0007ffffc00
fffffc003ffffc00
fffffe001ffffe00
ffffff800fffff00
ffffffc007ffff00
ffffffe003ffff80
fffffff001ffff80
fffffff801ffffc0
fffffffc00ffffc0
fffffffe007fffe0
ffffffff007fffe0
07ffffff003fffe0
00ffffff803ffff0
001fffffc01ffff0
0007ffffc01ffff8
0003ffffe00ffff8
0001ffffe00ffff8
0000fffff007fffc
00007ffff007fffc
f0003ffff807fffc
fe001ffff803fffc
ff800ffffc03fffe
ffc007fffc03fffe
ffe007fffc01fffe
fff003fffe01fffe
fff803fffe01fffe
fffc03fffe01fffe
fffc01fffe01ffff
fffe01fffe00ffff
fffe01ffff00ffff
fffe00ffff00ffff
ffff00ffff00ffff
ffff00ffff00ffff
ffff00ffff00ffff
ffff00ffff00ffff
ENDCHAR
STARTCHAR /home/kraus/git/open-iconic/png/thumb-up-8x.png
ENCODING 73
DWIDTH 64 0
BBX 64 64 0 0
BITMAP
000000003c000000
000000007e000000
00000000ff000000
00000000ff000000
00000001ff000000
00000001ff000000
00000003fe000000
00000003fe000000
00000007fe000000
00000007fc000000
0000000ffc000000
0000000ffc000000
0000001ffc000000
0000001ff8000000
0000003ff8000000
0000007ff8000000
0000007ff8000000
000000fff0000000
000000fff0000000
000001fff0000000
000001fff0000000
000003fff0000000
000007fff8000000
00001ffffc000000
ff00fffffffffc00
ff00fffffffffe00
ff00ffffffffff00
ff00ffffffffff00
ff00ffffffffff00
ff00ffffffffff00
ff00fffffffffe00
ff00fffffffffe00
ff00fffffffffe00
ff00fffffffffe00
ff00fffffffffc00
ff00fffffffffc00
ff00fffffffffc00
ff00fffffffff800
ff00fffffffff800
ff00fffffffff800
ff00fffffffff000
ff00fffffffff000
ff00fffffffff000
ff00ffffffffe000
ff00ffffffffe000
ff00ffffffffe000
ff00ffffffffc000
ff00ffffffffc000
ff00ffffffff8000
ff00ffffffff8000
ff00ffffffff8000
ff00ffffffff0000
ff00ffffffff0000
ff00ffffffff0000
ff00fffffffe0000
ff00fffffffc0000
0000000000000000
0000000000000000
0000000000000000
0000000000000000
0000000000000000
0000000000000000
0000000000000000
0000000000000000
ENDCHAR
STARTCHAR /home/kraus/git/open-iconic/png/ban-8x.png
ENCODING 74
DWIDTH 64 0
BBX 64 64 0 0
BITMAP
0000003ffc000000
000003ffffc00000
00000ffffff00000
00007ffffffc0000
0000ffffffff0000
0003ffffffffc000
0007ffffffffe000
001ffffffffff800
003fffe007fffc00
007fff0000fffe00
00fff800001fff00
01fff0000007ff80
01ffc0000003ff80
03ff80000007ffc0
07ff0000000fffe0
07fe0000001fffe0
0ffc0000003ffff0
1ff80000007ffff0
1ff0000000ffeff8
1ff0000001ffc7f8
3fe0000003ff87fc
3fc0000007ff03fc
7fc000000ffe03fe
7fc000001ffc03fe
7f8000003ff801fe
7f8000007ff001fe
ff800000ffe001ff
ff000001ffc000ff
ff000003ff8000ff
ff000007ff0000ff
ff00000ffe0000ff
ff00001ffc0000ff
ff00003ff80000ff
ff00007ff00000ff
ff0000ffe00000ff
ff0001ffc00000ff
ff0003ff800000ff
ff8007ff000001ff
7f800ffe000001fe
7f801ffc000001fe
7fc03ff8000003fe
7fc07ff0000003fe
3fc0ffe0000003fc
3fe1ffc0000007fc
1fe3ff8000000ff8
1ff7ff0000000ff8
0ffffe0000001ff0
0ffffc0000003ff0
07fff80000007fe0
07fff0000000ffe0
03ffe0000001ffc0
01ffc0000003ff80
01ffe000000fff00
00fff800001fff00
007fff0000fffe00
003fffe007fffc00
001ffffffffff000
0007ffffffffe000
0003ffffffffc000
0000ffffffff0000
00003ffffffc0000
00000ffffff00000
000003ffffc00000
0000003ffc000000
ENDCHAR
STARTCHAR /home/kraus/git/open-iconic/png/browser-8x.png
ENCODING 75
DWIDTH 64 0
BBX 64 64 0 0
BITMAP
3ffffffffffffffc
7ffffffffffffffe
ffffffffffffffff
ffffffffffffffff
ffffffffffffffff
ffffffffffffffff
ffffffffffffffff
ffffffffffffffff
ffc3ffc0000003ff
ff81ff80000001ff
ff00ff00000000ff
ff00ff00000000ff
ff00ff00000000ff
ff00ff00000000ff
ff81ff80000001ff
ffc3ffc0000003ff
ffffffffffffffff
ffffffffffffffff
ffffffffffffffff
ffffffffffffffff
ffffffffffffffff
ffffffffffffffff
ffffffffffffffff
ffffffffffffffff
ff000000000000ff
ff000000000000ff
ff000000000000ff
ff000000000000ff
ff000000000000ff
ff000000000000ff
ff000000000000ff
ff000000000000ff
ff000000000000ff
ff000000000000ff
ff000000000000ff
ff000000000000ff
ff000000000000ff
ff000000000000ff
ff000000000000ff
ff000000000000ff
ff000000000000ff
ff000000000000ff
ff000000000000ff
ff000000000000ff
ff000000000000ff
ff000000000000ff
ff000000000000ff
ff000000000000ff
ff000000000000ff
ff000000000000ff
ff000000000000ff
ff000000000000ff
ff000000000000ff
ff000000000000ff
ff000000000000ff
ff000000000000ff
ffffffffffffffff
ffffffffffffffff
ffffffffffffffff
ffffffffffffffff
ffffffffffffffff
ffffffffffffffff
7ffffffffffffffe
3ffffffffffffffc
ENDCHAR
STARTCHAR /home/kraus/git/open-iconic/png/cloud-download-8x.png
ENCODING 76
DWIDTH 64 0
BBX 64 64 0 0
BITMAP
00000000ff000000
0000000ffff00000
0000003ffffc0000
0000007ffffe0000
000001ffffff8000
000003ffffffc000
000007ffffffe000
00000ffffffff000
00001ffffffff000
00001ffffffff800
00003ffffffffc00
00003ffffffffc00
00007ffffffffe00
00007ffffffffe00
0000fffffffffe00
0000fffffffffe00
000fffffffffff00
007fffffffffff00
01ffffffffffff00
03ffffffffffff00
07ffffffffffff00
0fffffffffffff00
1fffffffffffff00
3fffffffffffff00
3fffffff81ffff80
7ffffffc003fffe0
7ffffff8001ffff0
7ffffff0000ffff8
ffffffe00007fffc
ffffffc00003fffc
ffffff800001fffe
ffffff800001fffe
ffffff803c01fffe
ffffff007e00ffff
ffffff00ff00ffff
ffffff00ff00ffff
7fffff00ff00ffff
7fffff00ff00ffff
7fffff00ff00ffff
3fffff00ff00fffe
00000000ff000000
00000000ff000000
00000000ff000000
00000000ff000000
00000000ff000000
00000000ff000000
00000000ff000000
00000000ff000000
000007ffffffe000
000003ffffffc000
000001ffffff8000
000000ffffff0000
0000007ffffe0000
0000003ffffc0000
0000001ffff80000
0000000ffff00000
00000007ffe00000
00000003ffc00000
00000001ff800000
00000000ff000000
000000007e000000
000000003c000000
0000000018000000
0000000000000000
ENDCHAR
STARTCHAR /home/kraus/git/open-iconic/png/external-link-8x.png
ENCODING 77
DWIDTH 64 0
BBX 64 64 0 0
BITMAP
ffff00007fffffff
ffff00003fffffff
ffff00001fffffff
ffff00000fffffff
ffff000007ffffff
ffff000003ffffff
ffff000001ffffff
ffff000000ffffff
ff000000007fffff
ff000000003fffff
ff000000001fffff
ff000000000fffff
ff000000000fffff
ff000000001fffff
ff000000003fffff
ff000000007fffff
ff00000000ffffff
ff00000001ffffff
ff00000003ffffff
ff00000007ffffff
ff0000000fffe7ff
ff0000001fffc3ff
ff0000003fff81ff
ff0000007fff00ff
ff000000fffe007f
ff000001fffc003f
ff000003fff8001f
ff000007fff0000f
ff00000fffe00007
ff00001fffc00003
ff00003fff800001
ff00007fff000000
ff00007ffe000000
ff00003ffc000000
ff00001ff8000000
ff00000ff0000000
ff000007e0000000
ff000003c0000000
ff00000180000000
ff00000000000000
ff00000000000000
ff00000000000000
ff00000000000000
ff00000000000000
ff00000000000000
ff00000000000000
ff00000000000000
ff00000000000000
ff000000000000ff
ff000000000000ff
ff000000000000ff
ff000000000000ff
ff000000000000ff
ff000000000000ff
ff000000000000ff
ff000000000000ff
ffffffffffffffff
ffffffffffffffff
ffffffffffffffff
ffffffffffffffff
ffffffffffffffff
ffffffffffffffff
ffffffffffffffff
ffffffffffffffff
ENDCHAR
STARTCHAR /home/kraus/git/open-iconic/png/globe-8x.png
ENCODING 78
DWIDTH 64 0
BBX 64 64 0 0
BITMAP
0000003ffc000000
000003ffffc00000
00000ffffff00000
00007ffffffe0000
0000ffffffff0000
0003ffffffffc000
0007ffffffffe000
001ffffffffff800
003ffff00ffffc00
007fff0001fffe00
00fffc0003ffff00
01fff00007ffff80
01fff80007ffff80
03fffc000fffffc0
07fffe0007ffffe0
07fffe0001ffffe0
0ffffc00007ffff0
1ffff800003f1ff8
1fff0000003c0ff8
1ffe000000700ff8
3ffe000000e007fc
3ffe000000f003fc
7fe6000000ff83fe
7fe00000007fc7fe
7fe00000007fcffe
7fe00000007ffffe
ffe00000007fffff
ffe0000000ffffff
fff0000001ffffff
fff0000001ffffff
fff0000003ffffff
fff8000007ffffff
ff3800000fffffff
ff0c00000fffffff
ff0400001fffffff
ff0000001fffffff
ff0000000fffffff
ff8000000fffffff
7f8000000ffffffe
7fc0000007fffffe
7ffe000003fffffe
7fff800000fffffe
3fffe0000003fffc
3ffff00000001ffc
1ffff80000000ff8
1ffff80000000ff8
1ffffc0000001ff8
0ffffc0000001ff0
07fffe0000003fe0
07fffe0000007fe0
03ffff000000ffc0
01ffff000003ff80
01ffff000007ff80
00ffff00001fff00
007fff00007ffe00
003fffe007fffc00
001ffffffffff800
0007ffffffffe000
0003ffffffffc000
0000ffffffff0000
00007ffffffe0000
00000ffffff00000
000003ffffc00000
0000003ffc000000
ENDCHAR
STARTCHAR /home/kraus/git/open-iconic/png/link-intact-8x.png
ENCODING 79
DWIDTH 64 0
BBX 64 64 0 0
BITMAP
000000000007e000
00000000007ffc00
0000000000ffff00
0000000003ffffc0
0000000007ffffe0
000000000ffffff0
000000001ffffff8
000000001ffffff8
000000001ff81ffc
000000001fe007fe
000000000fc003fe
00000000078001fe
00000000000001ff
00000000000000ff
00000000000000ff
00000000000000ff
00000000000000ff
00000000000000ff
00000000000000ff
0000007ff00001ff
000001fffc0001fe
000007ffff0003fe
00001fffff0007fe
00003fffff800ffc
00007fffff801ff8
0000ffffff003ff8
0001ffffff007ff0
0003ffc03e00ffe0
0007ff000001ffc0
000ffe000003ff80
001ffc000007ff00
003ff800000ffe00
007ff000001ffc00
00ffe000003ff800
01ffc000007ff000
03ff800000ffe000
07ff003c03ffc000
0ffe007f9fff8000
1ffc00ffffff0000
1ff800fffffe0000
3ff000fffffc0000
3fe000fffff80000
7fc0007fffe00000
7f80003fffc00000
7f80000ffe000000
ff00000040000000
ff00000000000000
ff00000000000000
ff00000000000000
ff00000000000000
ff00000000000000
7f80000000000000
7f8001e000000000
7fc003f000000000
3fe007f800000000
3ff81ff800000000
1ffffff800000000
1ffffff800000000
0ffffff000000000
07ffffe000000000
03ffffc000000000
00ffff0000000000
003ffc0000000000
0007e00000000000
ENDCHAR
STARTCHAR /home/kraus/git/open-iconic/png/map-8x.png
ENCODING 80
DWIDTH 64 0
BBX 64 64 0 0
BITMAP
ffffffffffffffff
ffffffffffffffff
ffffffffffffffff
ffffffffffffffff
ffffffffffffffff
ffffffffffffffff
ffffffffffffffff
ffffffffffffffff
ff000000000000ff
ff000000000000ff
ff000000000000ff
ff000000000000ff
ff000000000000ff
ff000000000000ff
ff000000000000ff
ff000000000000ff
ff00007e000000ff
ff0003ffc00000ff
ff0007ffe00000ff
ff000ffff00000ff
ff001ffff80000ff
ff003ffffc0000ff
ff007ffffe0000ff
ff007ffffe0000ff
ff007fc3fe0000ff
ff00ff81ff0000ff
ff00ff00ff0000ff
ff00ff00ff0000ff
ff00ff00ff0000ff
ff00ff00ff0000ff
ff00ff81ff0000ff
ff007fc3fe0000ff
ff007ffffe0000ff
ff007ffffe0000ff
ff003ffffc0000ff
ff003ffffc0000ff
ff001ffff80000ff
ff000ffff00000ff
ff000ffff00000ff
ff0007ffe00000ff
ff0003ffc03fffff
ff0003ffc07fffff
ff0001ff80ffffff
ff0000ff00ffffff
ff00007e00ffffff
ff00003c00ffffff
ff000018007fffff
ff000000003fffff
ff000000000000ff
ff000000000000ff
ff000000000000ff
ff000000000000ff
ff000000000000ff
ff000000000000ff
ff000000000000ff
ff000000000000ff
ffffffffffffffff
ffffffffffffffff
ffffffffffffffff
ffffffffffffffff
ffffffffffffffff
ffffffffffffffff
ffffffffffffffff
ffffffffffffffff
ENDCHAR
STARTCHAR /home/kraus/git/open-iconic/png/rss-8x.png
ENCODING 81
DWIDTH 64 0
BBX 64 64 0 0
BITMAP
00fe000000000000
00fff80000000000
00ffff8000000000
00ffffe000000000
00fffffc00000000
00ffffff00000000
00ffffffc0000000
00fffffff0000000
0001fffffc000000
00000ffffe000000
000001ffff800000
0000003fffc00000
0000000fffe00000
00000003fff00000
00000000fffc0000
000000003ffe0000
00fc00001fff0000
00ffe00007ff8000
00fffc0003ffc000
00ffff0001ffc000
00ffffc000ffe000
00fffff0007ff000
00fffffc003ff800
00fffffe001ffc00
0003ffff800ffc00
00003fffc007fe00
00000fffe003ff00
000001fff001ff00
000000fff801ff80
0000003ffc00ff80
0000001ffe007fc0
00000007ff007fc0
00f80003ff003fe0
00ff0001ff803fe0
00ffe000ffc01ff0
00fff0007fc01ff0
00fffc007fe00ff0
00fffe003fe00ff8
00ffff001ff007f8
00ffff801ff007fc
000fffc00ff807fc
0001ffe007f803fc
00007ff007fc03fc
00003ff007fc03fe
00001ff803fc01fe
00000ffc03fe01fe
000007fc01fe01fe
000003fc01fe01fe
07e003fe01fe01fe
1ff801fe01fe00ff
3ffc01fe00ff00ff
7ffe01ff00ff00ff
7ffe00ff00ff00ff
ffff00ff00ff00ff
ffff00ff00ff00ff
ffff00ff00ff00ff
ffff000000000000
ffff000000000000
ffff000000000000
7ffe000000000000
7ffe000000000000
3ffc000000000000
1ff8000000000000
07e0000000000000
ENDCHAR
STARTCHAR /home/kraus/git/open-iconic/png/thumb-down-8x.png
ENCODING 82
DWIDTH 64 0
BBX 64 64 0 0
BITMAP
ff00fffffffc0000
ff00fffffffe0000
ff00ffffffff0000
ff00ffffffff0000
ff00ffffffff0000
ff00ffffffff8000
ff00ffffffff8000
ff00ffffffffc000
ff00ffffffffc000
ff00ffffffffc000
ff00ffffffffe000
ff00ffffffffe000
ff00ffffffffe000
ff00fffffffff000
ff00fffffffff000
ff00fffffffff000
ff00fffffffff800
ff00fffffffff800
ff00fffffffff800
ff00fffffffffc00
ff00fffffffffc00
ff00fffffffffc00
ff00fffffffffe00
ff00fffffffffe00
ff00fffffffffe00
ff00fffffffffe00
ff00ffffffffff00
ff00ffffffffff00
ff00ffffffffff00
ff00ffffffffff00
ff00fffffffffe00
ff00fffffffffc00
00001ffffc000000
000007fff8000000
000003fff0000000
000001fff0000000
000001fff0000000
000000fff0000000
000000fff0000000
0000007ff8000000
0000007ff8000000
0000003ff8000000
0000001ff8000000
0000001ffc000000
0000000ffc000000
0000000ffc000000
00000007fe000000
00000007fe000000
00000003fe000000
00000003fe000000
00000001ff000000
00000001ff000000
00000000ff000000
00000000ff000000
000000007e000000
000000003c000000
0000000000000000
0000000000000000
0000000000000000
0000000000000000
0000000000000000
0000000000000000
0000000000000000
0000000000000000
ENDCHAR
STARTCHAR /home/kraus/git/open-iconic/png/transfer-8x.png
ENCODING 83
DWIDTH 64 0
BBX 64 64 0 0
BITMAP
0000000000008000
000000000000c000
000000000000e000
000000000000f800
000000000000fc00
000000000000fe00
000000000000ff80
000000000000ffc0
ffffffffffffffe0
fffffffffffffff8
fffffffffffffffc
fffffffffffffffe
fffffffffffffffe
fffffffffffffffc
fffffffffffffff8
ffffffffffffffe0
000000000000ffc0
000000000000ff80
000000000000fe00
000000000000fc00
000000000000f800
000000000000e000
000000000000c000
0000000000008000
0000000000000000
0000000000000000
0000000000000000
0000000000000000
0000000000000000
0000000000000000
0000000000000000
0000000000000000
0001000000000000
0003000000000000
0007000000000000
001f000000000000
003f000000000000
007f000000000000
01ff000000000000
03ff000000000000
07ffffffffffffff
1fffffffffffffff
3fffffffffffffff
7fffffffffffffff
7fffffffffffffff
3fffffffffffffff
1fffffffffffffff
07ffffffffffffff
03ff000000000000
01ff000000000000
007f000000000000
003f000000000000
001f000000000000
0007000000000000
0003000000000000
0001000000000000
0000000000000000
0000000000000000
0000000000000000
0000000000000000
0000000000000000
0000000000000000
0000000000000000
0000000000000000
ENDCHAR
