STARTFONT 2.1
FONT "open_iconic_gui_6x"
SIZE 16 75 75
FONTBOUNDINGBOX 16 16 0 0
STARTPROPERTIES 3
COPYRIGHT "https://github.com/iconic/open-iconic, SIL OPEN FONT LICENSE"
FONT_ASCENT 0
FONT_DESCENT 0
ENDPROPERTIES
STARTCHAR /home/kraus/git/open-iconic/png/account-login-6x.png
ENCODING 64
DWIDTH 48 0
BBX 48 48 0 0
BITMAP
00003fffffff
00003fffffff
00003fffffff
00003fffffff
00003fffffff
00003fffffff
00000000003f
00000000003f
00000000003f
00000000003f
00000000003f
00000000003f
00000080003f
000000c0003f
000000e0003f
000000f8003f
000000fc003f
000000fe003f
ffffffff803f
ffffffffc03f
ffffffffe03f
ffffffffe03f
ffffffffc03f
ffffffff803f
000000fe003f
000000fc003f
000000f8003f
000000e0003f
000000c0003f
00000080003f
00000000003f
00000000003f
00000000003f
00000000003f
00000000003f
00000000003f
00003fffffff
00003fffffff
00003fffffff
00003fffffff
00003fffffff
00003fffffff
000000000000
000000000000
000000000000
000000000000
000000000000
000000000000
ENDCHAR
STARTCHAR /home/kraus/git/open-iconic/png/account-logout-6x.png
ENCODING 65
DWIDTH 48 0
BBX 48 48 0 0
BITMAP
00003fffffff
00003fffffff
00003fffffff
00003fffffff
00003fffffff
00003fffffff
00000000003f
00000000003f
00000000003f
00000000003f
00000000003f
00000000003f
00100000003f
00300000003f
00700000003f
01f00000003f
03f00000003f
07f00000003f
1ffffffff03f
3ffffffff03f
7ffffffff03f
7ffffffff03f
3ffffffff03f
1ffffffff03f
07f00000003f
03f00000003f
01f00000003f
00700000003f
00300000003f
00100000003f
00000000003f
00000000003f
00000000003f
00000000003f
00000000003f
00000000003f
00003fffffff
00003fffffff
00003fffffff
00003fffffff
00003fffffff
00003fffffff
000000000000
000000000000
000000000000
000000000000
000000000000
000000000000
ENDCHAR
STARTCHAR /home/kraus/git/open-iconic/png/action-redo-6x.png
ENCODING 66
DWIDTH 48 0
BBX 48 48 0 0
BITMAP
000000000000
000000000000
000000000000
000000000000
000000000000
000000000000
0000ff800000
0007fff80000
001ffffe0000
007fffff8000
00ffffffc000
01ffffffe000
03e01ffff000
070003fff800
0e0001fffc00
1800007ffe00
1000003ffe00
2000001fff00
2000001fff00
4000000fff80
00000007ff80
00000007ff80
00000007ff80
00000003ffc0
00000003ffc0
00000003ffc0
00000003ffc0
00000003ffc0
00000003ffc0
00000003ffc0
0000007ffffe
0000003ffffc
0000001ffff8
0000000ffff0
00000007ffe0
00000003ffc0
00000001ff80
00000000ff00
000000007e00
000000003c00
000000001800
000000000000
000000000000
000000000000
000000000000
000000000000
000000000000
000000000000
ENDCHAR
STARTCHAR /home/kraus/git/open-iconic/png/action-undo-6x.png
ENCODING 67
DWIDTH 48 0
BBX 48 48 0 0
BITMAP
000000000000
000000000000
000000000000
000000000000
000000000000
000000000000
000003fe0000
00001fffe000
00007ffff800
0001fffffe00
0003ffffff00
0007ffffff80
000ffff807c0
001fffc000e0
003fff800070
007ffe000018
007ffc000008
00fff8000004
00fff8000004
01fff0000002
01ffe0000000
01ffe0000000
03ffe0000000
03ffc0000000
03ffc0000000
03ffc0000000
03ffc0000000
03ffc0000000
03ffc0000000
03ffc0000000
7ffffe000000
3ffffc000000
1ffff8000000
0ffff0000000
07ffe0000000
03ffc0000000
01ff80000000
00ff00000000
007e00000000
003c00000000
001800000000
000000000000
000000000000
000000000000
000000000000
000000000000
000000000000
000000000000
ENDCHAR
STARTCHAR /home/kraus/git/open-iconic/png/collapse-down-6x.png
ENCODING 68
DWIDTH 48 0
BBX 48 48 0 0
BITMAP
ffffffffffff
ffffffffffff
ffffffffffff
ffffffffffff
ffffffffffff
ffffffffffff
ffffffffffff
ffffffffffff
ffffffffffff
ffffffffffff
ffffffffffff
ffffffffffff
000000000000
000000000000
000000000000
000000000000
000000000000
000000000000
0007ffffe000
0003ffffc000
0001ffff8000
0000ffff0000
00007ffe0000
00003ffc0000
00001ff80000
00000ff00000
000007e00000
000003c00000
000001800000
000000000000
000000000000
000000000000
000000000000
000000000000
000000000000
000000000000
000000000000
000000000000
000000000000
000000000000
000000000000
000000000000
ffffffffffff
ffffffffffff
ffffffffffff
ffffffffffff
ffffffffffff
ffffffffffff
ENDCHAR
STARTCHAR /home/kraus/git/open-iconic/png/collapse-left-6x.png
ENCODING 69
DWIDTH 48 0
BBX 48 48 0 0
BITMAP
fc0000000fff
fc0000000fff
fc0000000fff
fc0000000fff
fc0000000fff
fc0000000fff
fc0000000fff
fc0000000fff
fc0000000fff
fc0000000fff
fc0000000fff
fc0000000fff
fc0000000fff
fc0000040fff
fc00000c0fff
fc00001c0fff
fc00003c0fff
fc00007c0fff
fc0000fc0fff
fc0001fc0fff
fc0003fc0fff
fc0007fc0fff
fc000ffc0fff
fc001ffc0fff
fc001ffc0fff
fc000ffc0fff
fc0007fc0fff
fc0003fc0fff
fc0001fc0fff
fc0000fc0fff
fc00007c0fff
fc00003c0fff
fc00001c0fff
fc00000c0fff
fc0000040fff
fc0000000fff
fc0000000fff
fc0000000fff
fc0000000fff
fc0000000fff
fc0000000fff
fc0000000fff
fc0000000fff
fc0000000fff
fc0000000fff
fc0000000fff
fc0000000fff
fc0000000fff
ENDCHAR
STARTCHAR /home/kraus/git/open-iconic/png/collapse-right-6x.png
ENCODING 70
DWIDTH 48 0
BBX 48 48 0 0
BITMAP
fff00000003f
fff00000003f
fff00000003f
fff00000003f
fff00000003f
fff00000003f
fff00000003f
fff00000003f
fff00000003f
fff00000003f
fff00000003f
fff00000003f
fff00000003f
fff02000003f
fff03000003f
fff03800003f
fff03c00003f
fff03e00003f
fff03f00003f
fff03f80003f
fff03fc0003f
fff03fe0003f
fff03ff0003f
fff03ff8003f
fff03ff8003f
fff03ff0003f
fff03fe0003f
fff03fc0003f
fff03f80003f
fff03f00003f
fff03e00003f
fff03c00003f
fff03800003f
fff03000003f
fff02000003f
fff00000003f
fff00000003f
fff00000003f
fff00000003f
fff00000003f
fff00000003f
fff00000003f
fff00000003f
fff00000003f
fff00000003f
fff00000003f
fff00000003f
fff00000003f
ENDCHAR
STARTCHAR /home/kraus/git/open-iconic/png/collapse-up-6x.png
ENCODING 71
DWIDTH 48 0
BBX 48 48 0 0
BITMAP
ffffffffffff
ffffffffffff
ffffffffffff
ffffffffffff
ffffffffffff
ffffffffffff
000000000000
000000000000
000000000000
000000000000
000000000000
000000000000
000000000000
000000000000
000000000000
000000000000
000000000000
000000000000
000000000000
000001800000
000003c00000
000007e00000
00000ff00000
00001ff80000
00003ffc0000
00007ffe0000
0000ffff0000
0001ffff8000
0003ffffc000
0007ffffe000
000000000000
000000000000
000000000000
000000000000
000000000000
000000000000
ffffffffffff
ffffffffffff
ffffffffffff
ffffffffffff
ffffffffffff
ffffffffffff
ffffffffffff
ffffffffffff
ffffffffffff
ffffffffffff
ffffffffffff
ffffffffffff
ENDCHAR
STARTCHAR /home/kraus/git/open-iconic/png/crop-6x.png
ENCODING 72
DWIDTH 48 0
BBX 48 48 0 0
BITMAP
03f000000000
03f00000000c
03f00000001e
03f00000003e
03f00000007c
03f0000000f8
fffffffffff0
ffffffffffe0
ffffffffffc0
ffffffffffc0
ffffffffffc0
ffffffffffc0
03f000007fc0
03f00000ffc0
03f00001ffc0
03f00003efc0
03f00007cfc0
03f0000f8fc0
03f0001f0fc0
03f0003e0fc0
03f0007c0fc0
03f000f80fc0
03f001f00fc0
03f003e00fc0
03f007c00fc0
03f00f800fc0
03f01f000fc0
03f03e000fc0
03f07c000fc0
03f0f8000fc0
03f1f0000fc0
03f3e0000fc0
03f7c0000fc0
03ff80000fc0
03ff00000fc0
03fe00000fc0
03ffffffffff
03ffffffffff
03ffffffffff
03ffffffffff
03ffffffffff
03ffffffffff
000000000fc0
000000000fc0
000000000fc0
000000000fc0
000000000fc0
000000000fc0
ENDCHAR
STARTCHAR /home/kraus/git/open-iconic/png/dashboard-6x.png
ENCODING 73
DWIDTH 48 0
BBX 48 48 0 0
BITMAP
00001ff80000
0000ffff0000
0007ffffe000
000ffffff000
003ffffffc00
007ffffffe00
00fff00fff00
01ff8001ff80
03fe00007fc0
07f800001fe0
0ff000000ff0
0fe0000007f0
1fc003c003f8
3f8007e001fc
3f8007e001fc
3f0007e000fc
7f0007e000fe
7e0003c0007e
7e078001e07e
fe0fc003f07f
fc0fe003f03f
fc0ff003f03f
fc0ff803f03f
fc07fc01e03f
fc03ffc0003f
fc01fff0003f
fc00fff8003f
fc007ff8003f
fe003ffc007f
7e003ffc007e
7e003ffc007e
7f003ffc00fe
3f001ff800fc
3f801ff801fc
3f800ff001fc
1fc003c003f8
0fe0000007f0
0ff000000ff0
07f800001fe0
03fe00007fc0
01ff8001ff80
00fff00fff00
007ffffffe00
003ffffffc00
000ffffff000
0007ffffe000
0000ffff0000
00001ff80000
ENDCHAR
STARTCHAR /home/kraus/git/open-iconic/png/elevator-6x.png
ENCODING 74
DWIDTH 48 0
BBX 48 48 0 0
BITMAP
000000000000
000001800000
000003c00000
000007e00000
00000ff00000
00001ff80000
00003ffc0000
00007ffe0000
0000ffff0000
0001ffff8000
0003ffffc000
0007ffffe000
000ffffff000
001ffffff800
003ffffffc00
007ffffffe00
00ffffffff00
01ffffffff80
000000000000
000000000000
000000000000
000000000000
000000000000
000000000000
000000000000
000000000000
000000000000
000000000000
000000000000
000000000000
01ffffffff80
00ffffffff00
007ffffffe00
003ffffffc00
001ffffff800
000ffffff000
0007ffffe000
0003ffffc000
0001ffff8000
0000ffff0000
00007ffe0000
00003ffc0000
00001ff80000
00000ff00000
000007e00000
000003c00000
000001800000
000000000000
ENDCHAR
STARTCHAR /home/kraus/git/open-iconic/png/expand-down-6x.png
ENCODING 75
DWIDTH 48 0
BBX 48 48 0 0
BITMAP
ffffffffffff
ffffffffffff
ffffffffffff
ffffffffffff
ffffffffffff
ffffffffffff
000000000000
000000000000
000000000000
000000000000
000000000000
000000000000
0007ffffe000
0003ffffc000
0001ffff8000
0000ffff0000
00007ffe0000
00003ffc0000
00001ff80000
00000ff00000
000007e00000
000003c00000
000001800000
000000000000
000000000000
000000000000
000000000000
000000000000
000000000000
000000000000
000000000000
000000000000
000000000000
000000000000
000000000000
000000000000
ffffffffffff
ffffffffffff
ffffffffffff
ffffffffffff
ffffffffffff
ffffffffffff
ffffffffffff
ffffffffffff
ffffffffffff
ffffffffffff
ffffffffffff
ffffffffffff
ENDCHAR
STARTCHAR /home/kraus/git/open-iconic/png/expand-left-6x.png
ENCODING 76
DWIDTH 48 0
BBX 48 48 0 0
BITMAP
fc0000000fff
fc0000000fff
fc0000000fff
fc0000000fff
fc0000000fff
fc0000000fff
fc0000000fff
fc0000000fff
fc0000000fff
fc0000000fff
fc0000000fff
fc0000000fff
fc0000000fff
fc0800000fff
fc0c00000fff
fc0e00000fff
fc0f00000fff
fc0f80000fff
fc0fc0000fff
fc0fe0000fff
fc0ff0000fff
fc0ff8000fff
fc0ffc000fff
fc0ffe000fff
fc0ffe000fff
fc0ffc000fff
fc0ff8000fff
fc0ff0000fff
fc0fe0000fff
fc0fc0000fff
fc0f80000fff
fc0f00000fff
fc0e00000fff
fc0c00000fff
fc0800000fff
fc0000000fff
fc0000000fff
fc0000000fff
fc0000000fff
fc0000000fff
fc0000000fff
fc0000000fff
fc0000000fff
fc0000000fff
fc0000000fff
fc0000000fff
fc0000000fff
fc0000000fff
ENDCHAR
STARTCHAR /home/kraus/git/open-iconic/png/expand-right-6x.png
ENCODING 77
DWIDTH 48 0
BBX 48 48 0 0
BITMAP
fff00000003f
fff00000003f
fff00000003f
fff00000003f
fff00000003f
fff00000003f
fff00000003f
fff00000003f
fff00000003f
fff00000003f
fff00000003f
fff00000003f
fff00000003f
fff00000103f
fff00000303f
fff00000703f
fff00000f03f
fff00001f03f
fff00003f03f
fff00007f03f
fff0000ff03f
fff0001ff03f
fff0003ff03f
fff0007ff03f
fff0007ff03f
fff0003ff03f
fff0001ff03f
fff0000ff03f
fff00007f03f
fff00003f03f
fff00001f03f
fff00000f03f
fff00000703f
fff00000303f
fff00000103f
fff00000003f
fff00000003f
fff00000003f
fff00000003f
fff00000003f
fff00000003f
fff00000003f
fff00000003f
fff00000003f
fff00000003f
fff00000003f
fff00000003f
fff00000003f
ENDCHAR
STARTCHAR /home/kraus/git/open-iconic/png/expand-up-6x.png
ENCODING 78
DWIDTH 48 0
BBX 48 48 0 0
BITMAP
ffffffffffff
ffffffffffff
ffffffffffff
ffffffffffff
ffffffffffff
ffffffffffff
ffffffffffff
ffffffffffff
ffffffffffff
ffffffffffff
ffffffffffff
ffffffffffff
000000000000
000000000000
000000000000
000000000000
000000000000
000000000000
000000000000
000000000000
000000000000
000000000000
000000000000
000000000000
000000000000
000001800000
000003c00000
000007e00000
00000ff00000
00001ff80000
00003ffc0000
00007ffe0000
0000ffff0000
0001ffff8000
0003ffffc000
0007ffffe000
000000000000
000000000000
000000000000
000000000000
000000000000
000000000000
ffffffffffff
ffffffffffff
ffffffffffff
ffffffffffff
ffffffffffff
ffffffffffff
ENDCHAR
STARTCHAR /home/kraus/git/open-iconic/png/fullscreen-enter-6x.png
ENCODING 79
DWIDTH 48 0
BBX 48 48 0 0
BITMAP
fffffe000000
fffffc000000
fffff8000000
fffff0000000
ffffe0000000
ffffc0000000
ffff80000000
ffff00000000
fffe00000000
fffe00000000
ffff00000000
ffff80000000
ffffc0000000
ffffe0000000
fffff0000000
ff3ff8000000
fe1ffc000000
fc0ffe000000
f807fe000000
f003fc000000
e001f8000000
c000f0000000
800060000000
000000000000
000000000000
000000060001
0000000f0003
0000001f8007
0000003fc00f
0000007fe01f
0000007ff03f
0000003ff87f
0000001ffcff
0000000fffff
00000007ffff
00000003ffff
00000001ffff
00000000ffff
000000007fff
000000007fff
00000000ffff
00000001ffff
00000003ffff
00000007ffff
0000000fffff
0000001fffff
0000003fffff
0000007fffff
ENDCHAR
STARTCHAR /home/kraus/git/open-iconic/png/fullscreen-exit-6x.png
ENCODING 80
DWIDTH 48 0
BBX 48 48 0 0
BITMAP
000000000000
060001000000
0f0003000000
1f8007000000
3fc00f000000
7fe01f000000
7ff03f000000
3ff87f000000
1ffcff000000
0fffff000000
07ffff000000
03ffff000000
01ffff000000
00ffff000000
007fff000000
007fff000000
00ffff000000
01ffff000000
03ffff000000
07ffff000000
0fffff000000
1fffff000000
3fffff000000
7fffff000000
000000fffffe
000000fffffc
000000fffff8
000000fffff0
000000ffffe0
000000ffffc0
000000ffff80
000000ffff00
000000fffe00
000000fffe00
000000ffff00
000000ffff80
000000ffffc0
000000ffffe0
000000fffff0
000000ff3ff8
000000fe1ffc
000000fc0ffe
000000f807fe
000000f003fc
000000e001f8
000000c000f0
000000800060
000000000000
ENDCHAR
STARTCHAR /home/kraus/git/open-iconic/png/layers-6x.png
ENCODING 81
DWIDTH 48 0
BBX 48 48 0 0
BITMAP
ffffff000000
ffffff000000
ffffff000000
ffffff000000
ffffff000000
ffffff000000
ffffff000000
ffffff000000
ffffff000000
ffffff000000
ffffff000000
ffffff000000
ffffff03f000
ffffff03f000
ffffff03f000
ffffff03f000
ffffff03f000
ffffff03f000
ffffff03f000
ffffff03f000
ffffff03f000
ffffff03f000
ffffff03f000
ffffff03f000
00000003f03f
00000003f03f
00000003f03f
00000003f03f
00000003f03f
00000003f03f
000ffffff03f
000ffffff03f
000ffffff03f
000ffffff03f
000ffffff03f
000ffffff03f
00000000003f
00000000003f
00000000003f
00000000003f
00000000003f
00000000003f
000000ffffff
000000ffffff
000000ffffff
000000ffffff
000000ffffff
000000ffffff
ENDCHAR
STARTCHAR /home/kraus/git/open-iconic/png/list-6x.png
ENCODING 82
DWIDTH 48 0
BBX 48 48 0 0
BITMAP
780fffffffff
fc0fffffffff
fc0fffffffff
fc0fffffffff
fc0fffffffff
780fffffffff
000000000000
000000000000
000000000000
000000000000
000000000000
000000000000
780fffffffff
fc0fffffffff
fc0fffffffff
fc0fffffffff
fc0fffffffff
780fffffffff
000000000000
000000000000
000000000000
000000000000
000000000000
000000000000
780fffffffff
fc0fffffffff
fc0fffffffff
fc0fffffffff
fc0fffffffff
780fffffffff
000000000000
000000000000
000000000000
000000000000
000000000000
000000000000
780fffffffff
fc0fffffffff
fc0fffffffff
fc0fffffffff
fc0fffffffff
780fffffffff
000000000000
000000000000
000000000000
000000000000
000000000000
000000000000
ENDCHAR
STARTCHAR /home/kraus/git/open-iconic/png/list-rich-6x.png
ENCODING 83
DWIDTH 48 0
BBX 48 48 0 0
BITMAP
ffffc0ffffff
ffffc0ffffff
ffffc0ffffff
ffffc0ffffff
ffffc0ffffff
ffffc0ffffff
ffffc0000000
ffffc0000000
ffffc0000000
ffffc0000000
ffffc0000000
ffffc0000000
ffffc0ffffc0
ffffc0ffffc0
ffffc0ffffc0
ffffc0ffffc0
ffffc0ffffc0
ffffc0ffffc0
000000000000
000000000000
000000000000
000000000000
000000000000
000000000000
ffffc0ffffff
ffffc0ffffff
ffffc0ffffff
ffffc0ffffff
ffffc0ffffff
ffffc0ffffff
ffffc0000000
ffffc0000000
ffffc0000000
ffffc0000000
ffffc0000000
ffffc0000000
ffffc0ffffc0
ffffc0ffffc0
ffffc0ffffc0
ffffc0ffffc0
ffffc0ffffc0
ffffc0ffffc0
000000000000
000000000000
000000000000
000000000000
000000000000
000000000000
ENDCHAR
STARTCHAR /home/kraus/git/open-iconic/png/menu-6x.png
ENCODING 84
DWIDTH 48 0
BBX 48 48 0 0
BITMAP
000000000000
000000000000
000000000000
000000000000
000000000000
000000000000
ffffffffffff
ffffffffffff
ffffffffffff
ffffffffffff
ffffffffffff
ffffffffffff
000000000000
000000000000
000000000000
000000000000
000000000000
000000000000
000000000000
000000000000
000000000000
000000000000
000000000000
000000000000
ffffffffffff
ffffffffffff
ffffffffffff
ffffffffffff
ffffffffffff
ffffffffffff
000000000000
000000000000
000000000000
000000000000
000000000000
000000000000
000000000000
000000000000
000000000000
000000000000
000000000000
000000000000
ffffffffffff
ffffffffffff
ffffffffffff
ffffffffffff
ffffffffffff
ffffffffffff
ENDCHAR
STARTCHAR /home/kraus/git/open-iconic/png/move-6x.png
ENCODING 85
DWIDTH 48 0
BBX 48 48 0 0
BITMAP
000000000000
00000c000000
00001e000000
00003f000000
00007f800000
0000ffc00000
0001ffe00000
0003fff00000
0007fff80000
00003f000000
00003f000000
00003f000000
00003f000000
00803f004000
01803f006000
03803f007000
07803f007800
0f803f007c00
1ffffffffe00
3fffffffff00
7fffffffff80
7fffffffff80
3fffffffff00
1ffffffffe00
0f803f007c00
07803f007800
03803f007000
01803f006000
00803f004000
00003f000000
00003f000000
00003f000000
00003f000000
0007fff80000
0003fff00000
0001ffe00000
0000ffc00000
00007f800000
00003f000000
00001e000000
00000c000000
000000000000
000000000000
000000000000
000000000000
000000000000
000000000000
000000000000
ENDCHAR
STARTCHAR /home/kraus/git/open-iconic/png/print-6x.png
ENCODING 86
DWIDTH 48 0
BBX 48 48 0 0
BITMAP
000ffffff000
000ffffff000
000ffffff000
000ffffff000
000ffffff000
000ffffff000
000ffffff000
000ffffff000
000ffffff000
000ffffff000
000ffffff000
000ffffff000
000000000000
000000000000
000000000000
000000000000
000000000000
000000000000
ffffffffffff
ffffffffffff
ffffffffffff
ffffffffffff
ffffffffffff
ffffffffffff
fc000000003f
fc000000003f
fc000000003f
fc000000003f
fc000000003f
fc000000003f
fc0ffffff03f
fc0ffffff03f
fc0ffffff03f
fc0ffffff03f
fc0ffffff03f
fc0ffffff03f
000ffffff000
000ffffff000
000ffffff000
000ffffff000
000ffffff000
000ffffff000
000ffffff000
000ffffff000
000ffffff000
000ffffff000
000ffffff000
000ffffff000
ENDCHAR
STARTCHAR /home/kraus/git/open-iconic/png/resize-both-6x.png
ENCODING 87
DWIDTH 48 0
BBX 48 48 0 0
BITMAP
0000007fffff
0000003fffff
0000001fffff
0000000fffff
00000007ffff
00000003ffff
00000001ffff
00000000ffff
000000007fff
000000003fff
000000007fff
00000000ffff
00000001ffff
00000003ffff
00000007fdff
0000000ff8ff
0000001ff07f
0000003fe03f
0000007fc01f
000000ff800f
000001ff0007
000003fe0003
000007fc0001
00000ff80000
80001ff00000
c0003fe00000
e0007fc00000
e000ff800000
f001ff000000
f803fe000000
fc07fc000000
fe0ff8000000
ff1ff0000000
ffbfe0000000
ffffc0000000
ffff80000000
ffff00000000
fffe00000000
fffc00000000
fffe00000000
ffff00000000
ffff80000000
ffffc0000000
ffffe0000000
fffff0000000
fffff8000000
fffffc000000
fffffe000000
ENDCHAR
STARTCHAR /home/kraus/git/open-iconic/png/resize-height-6x.png
ENCODING 88
DWIDTH 48 0
BBX 48 48 0 0
BITMAP
000000000000
00000c000000
00001e000000
00003f000000
00007f800000
0000ffc00000
0000ffc00000
0001ffe00000
0003fff00000
0007fff80000
000ffffc0000
001ffffe0000
001ffffe0000
003fffff0000
007fffff8000
00ffffffc000
01ffffffe000
03fffffff000
00003f000000
00003f000000
00003f000000
00003f000000
00003f000000
00003f000000
00003f000000
00003f000000
00003f000000
00003f000000
00003f000000
00003f000000
03fffffff000
01ffffffe000
00ffffffc000
007fffff8000
003fffff0000
001ffffe0000
001ffffe0000
000ffffc0000
0007fff80000
0003fff00000
0001ffe00000
0000ffc00000
0000ffc00000
00007f800000
00003f000000
00001e000000
00000c000000
000000000000
ENDCHAR
STARTCHAR /home/kraus/git/open-iconic/png/resize-width-6x.png
ENCODING 89
DWIDTH 48 0
BBX 48 48 0 0
BITMAP
000000000000
000000000000
000000000000
000000000000
000000000000
000000000000
000040020000
0000c0030000
0001c0038000
0003c003c000
0007c003e000
001fc003f800
003fc003fc00
007fc003fe00
00ffc003ff00
01ffc003ff80
07ffc003ffe0
0fffc003fff0
1ffffffffff8
3ffffffffffc
7ffffffffffe
7ffffffffffe
3ffffffffffc
1ffffffffff8
0fffc003fff0
07ffc003ffe0
01ffc003ff80
00ffc003ff00
007fc003fe00
003fc003fc00
001fc003f800
0007c003e000
0003c003c000
0001c0038000
0000c0030000
000040020000
000000000000
000000000000
000000000000
000000000000
000000000000
000000000000
000000000000
000000000000
000000000000
000000000000
000000000000
000000000000
ENDCHAR
STARTCHAR /home/kraus/git/open-iconic/png/sort-ascending-6x.png
ENCODING 90
DWIDTH 48 0
BBX 48 48 0 0
BITMAP
000fc0fff000
000fc0fff000
000fc0fff000
000fc0fff000
000fc0fff000
000fc0fff000
000fc0000000
000fc0000000
000fc0000000
000fc0000000
000fc0000000
000fc0000000
000fc0ffffc0
000fc0ffffc0
000fc0ffffc0
000fc0ffffc0
000fc0ffffc0
000fc0ffffc0
000fc0000000
000fc0000000
000fc0000000
000fc0000000
000fc0000000
000fc0000000
000fc0ffffff
000fc0ffffff
000fc0ffffff
000fc0ffffff
000fc0ffffff
000fc0ffffff
000fc0000000
000fc0000000
000fc0000000
000fc0000000
000fc0000000
000fc0000000
7ffffff80000
3ffffff00000
1fffffe00000
0fffffc00000
03ffff000000
01fffe000000
00fffc000000
007ff8000000
001fe0000000
000fc0000000
000780000000
000300000000
ENDCHAR
STARTCHAR /home/kraus/git/open-iconic/png/sort-descending-6x.png
ENCODING 91
DWIDTH 48 0
BBX 48 48 0 0
BITMAP
000fc0ffffff
000fc0ffffff
000fc0ffffff
000fc0ffffff
000fc0ffffff
000fc0ffffff
000fc0000000
000fc0000000
000fc0000000
000fc0000000
000fc0000000
000fc0000000
000fc0ffffc0
000fc0ffffc0
000fc0ffffc0
000fc0ffffc0
000fc0ffffc0
000fc0ffffc0
000fc0000000
000fc0000000
000fc0000000
000fc0000000
000fc0000000
000fc0000000
000fc0fff000
000fc0fff000
000fc0fff000
000fc0fff000
000fc0fff000
000fc0fff000
000fc0000000
000fc0000000
000fc0000000
000fc0000000
000fc0000000
000fc0000000
7ffffff80000
3ffffff00000
1fffffe00000
0fffffc00000
03ffff000000
01fffe000000
00fffc000000
007ff8000000
001fe0000000
000fc0000000
000780000000
000300000000
ENDCHAR
STARTCHAR /home/kraus/git/open-iconic/png/zoom-in-6x.png
ENCODING 92
DWIDTH 48 0
BBX 48 48 0 0
BITMAP
0000ff800000
0007fff80000
001ffffe0000
007fffff8000
00ffffffc000
01ffffffe000
03ff807ff000
07fc000ff800
0ff80007fc00
1fe00001fe00
1fc00000fe00
3f8000007f00
3f803f007f00
7f003f003f80
7e003f001f80
7e003f001f80
fe003f001f80
fc003f000fc0
fc0ffffc0fc0
fc0ffffc0fc0
fc0ffffc0fc0
fc0ffffc0fc0
fc0ffffc0fc0
fc0ffffc0fc0
fc003f000fc0
7e003f001f80
7e003f001f80
7e003f001f80
7f003f003f80
3f803f007f00
3f8000007f00
1fc00001ff00
1fe00001ff80
0ff80007ffc0
07fe001fffe0
03ff807ffff0
01fffffffff8
00fffffffffc
007ffffffffe
001fffffffff
0007fff8ffff
00007f807fff
000000003fff
000000001fff
000000000fff
0000000007fe
0000000003fe
0000000001f8
ENDCHAR
STARTCHAR /home/kraus/git/open-iconic/png/zoom-out-6x.png
ENCODING 93
DWIDTH 48 0
BBX 48 48 0 0
BITMAP
0000ff800000
0007fff80000
001ffffe0000
007fffff8000
00ffffffc000
01ffffffe000
03ff807ff000
07fc000ff800
0ff80007fc00
1fe00001fe00
1fc00000fe00
3f8000007f00
3f8000007f00
7f0000003f80
7e0000001f80
7e0000001f80
fe0000001f80
fc0000000fc0
fc0ffffc0fc0
fc0ffffc0fc0
fc0ffffc0fc0
fc0ffffc0fc0
fc0ffffc0fc0
fc0ffffc0fc0
fc0000000fc0
7e0000001f80
7e0000001f80
7e0000001f80
7f0000003f80
3f8000007f00
3f8000007f00
1fc00001ff00
1fe00001ff80
0ff80007ffc0
07fe001fffe0
03ff807ffff0
01fffffffff8
00fffffffffc
007ffffffffe
001fffffffff
0007fff8ffff
00007f807fff
000000003fff
000000001fff
000000000fff
0000000007fe
0000000003fe
0000000001f8
ENDCHAR
