STARTFONT 2.1
FONT "open_iconic_email_8x"
SIZE 16 75 75
FONTBOUNDINGBOX 16 16 0 0
STARTPROPERTIES 3
COPYRIGHT "https://github.com/iconic/open-iconic, SIL OPEN FONT LICENSE"
FONT_ASCENT 0
FONT_DESCENT 0
ENDPROPERTIES
STARTCHAR /home/kraus/git/open-iconic/png/envelope-closed-8x.png
ENCODING 64
DWIDTH 64 0
BBX 64 64 0 0
BITMAP
0000000000000000
0000000000000000
0000000000000000
0000000000000000
0000000000000000
0000000000000000
0000000000000000
0000000000000000
ffffffffffffffff
ffffffffffffffff
ffffffffffffffff
ffffffffffffffff
ffffffffffffffff
ffffffffffffffff
ffffffffffffffff
ffffffffffffffff
7ffffffffffffffe
1ffffffffffffff8
07ffffffffffffe0
01ffffffffffff80
007ffffffffffe00
001ffffffffff800
0007ffffffffe000
0001ffffffff8000
80007ffffffe0001
e0001ffffff80007
f80007ffffe0001f
fe0001ffff80007f
ff80007ffe0001ff
ffe0001ff80007ff
fff80007e0001fff
fffe000180007fff
ffff80000001ffff
ffffe0000007ffff
fffff800001fffff
fffffe00007fffff
ffffff8001ffffff
ffffffe007ffffff
fffffff81fffffff
fffffffe7fffffff
ffffffffffffffff
ffffffffffffffff
ffffffffffffffff
ffffffffffffffff
ffffffffffffffff
ffffffffffffffff
ffffffffffffffff
ffffffffffffffff
ffffffffffffffff
ffffffffffffffff
ffffffffffffffff
ffffffffffffffff
ffffffffffffffff
ffffffffffffffff
ffffffffffffffff
ffffffffffffffff
0000000000000000
0000000000000000
0000000000000000
0000000000000000
0000000000000000
0000000000000000
0000000000000000
0000000000000000
ENDCHAR
STARTCHAR /home/kraus/git/open-iconic/png/envelope-open-8x.png
ENCODING 65
DWIDTH 64 0
BBX 64 64 0 0
BITMAP
0000000180000000
00000007e0000000
0000001ff8000000
0000007ffe000000
000001ffff800000
000007ffffe00000
00001ffffff80000
00007ffffffe0000
0001ffffffff8000
0007fffe7fffe000
001ffff81ffff800
007fffe007fffe00
01ffff8001ffff80
07fffe00007fffe0
1ffff800001ffff8
7fffe0000007fffe
ffff80000001ffff
fffe000000007fff
fff8000000001fff
ffe00000000007ff
ff800000000001ff
ff000000000000ff
ff000000000000ff
ff000000000000ff
ff00ffffffff00ff
ff00ffffffff00ff
ff00ffffffff00ff
ff00ffffffff00ff
ff00ffffffff00ff
ff00ffffffff00ff
ff00ffffffff00ff
ff00ffffffff00ff
ff007ffffffe00ff
ff001ffffff800ff
ff0007ffffe000ff
ff0001ffff8000ff
ff80007ffe0001ff
ffe0001ff80007ff
fff80007e0001fff
fffe000180007fff
ffff80000001ffff
ffffe0000007ffff
fffff800001fffff
fffffe00007fffff
ffffff8001ffffff
ffffffe007ffffff
fffffff81fffffff
fffffffe7fffffff
ffffffffffffffff
ffffffffffffffff
ffffffffffffffff
ffffffffffffffff
ffffffffffffffff
ffffffffffffffff
ffffffffffffffff
ffffffffffffffff
ffffffffffffffff
ffffffffffffffff
ffffffffffffffff
ffffffffffffffff
ffffffffffffffff
ffffffffffffffff
ffffffffffffffff
ffffffffffffffff
ENDCHAR
STARTCHAR /home/kraus/git/open-iconic/png/inbox-8x.png
ENCODING 66
DWIDTH 64 0
BBX 64 64 0 0
BITMAP
ffffffffffffffff
ffffffffffffffff
ffffffffffffffff
ffffffffffffffff
ffffffffffffffff
ffffffffffffffff
ffffffffffffffff
ffffffffffffffff
ffffffffffffffff
ffffffffffffffff
ffffffffffffffff
ffffffffffffffff
ffffffffffffffff
ffffffffffffffff
ffffffffffffffff
ffffffffffffffff
ff000000000000ff
ff000000000000ff
ff000000000000ff
ff000000000000ff
ff000000000000ff
ff000000000000ff
ff000000000000ff
ff000000000000ff
ff000000000000ff
ff000000000000ff
ff000000000000ff
ff000000000000ff
ff000000000000ff
ff000000000000ff
ff000000000000ff
ff000000000000ff
ff000000000000ff
ff000000000000ff
ff000000000000ff
ff000000000000ff
ff000000000000ff
ff000000000000ff
ff000000000000ff
ff000000000000ff
ffff00000000ffff
ffff80000001ffff
ffffc0000003ffff
ffffe0000007ffff
fffff000000fffff
fffff800001fffff
fffffc00003fffff
fffffe00007fffff
ffffffffffffffff
ffffffffffffffff
ffffffffffffffff
ffffffffffffffff
ffffffffffffffff
ffffffffffffffff
ffffffffffffffff
ffffffffffffffff
ffffffffffffffff
ffffffffffffffff
ffffffffffffffff
ffffffffffffffff
ffffffffffffffff
ffffffffffffffff
ffffffffffffffff
ffffffffffffffff
ENDCHAR
STARTCHAR /home/kraus/git/open-iconic/png/tag-8x.png
ENCODING 67
DWIDTH 64 0
BBX 64 64 0 0
BITMAP
ffffff0000000000
ffffff8000000000
ffffffc000000000
ffffffe000000000
fffffff000000000
fffffff800000000
fffffffc00000000
fffffffe00000000
fff81fff00000000
ffe007ff80000000
ffc003ffc0000000
ff8001ffe0000000
ff8001fff0000000
ff0000fff8000000
ff0000fffc000000
ff0000fffe000000
ff0000ffff000000
ff0000ffff800000
ff0000ffffc00000
ff8001ffffe00000
ff8001fffff00000
ffc003fffff80000
ffe007fffffc0000
fff81ffffffe0000
7fffffffffff0000
3fffffffffff8000
1fffffffffffc000
0fffffffffffe000
07fffffffffff000
03fffffffffff800
01fffffffffffc00
00fffffffffffe00
007fffffffffff00
003fffffffffff80
001fffffffffffc0
000fffffffffffe0
0007fffffffffff0
0003fffffffffff8
0001fffffffffffc
0000fffffffffffe
00007ffffffffffe
00003ffffffffffc
00001ffffffffff8
00000ffffffffff0
000007ffffffffe0
000003ffffffffc0
000001ffffffff80
000000ffffffff00
0000007ffffffe00
0000003ffffffc00
0000001ffffff800
0000000ffffff000
00000007ffffe000
00000003ffffc000
00000001ffff8000
00000000ffff0000
000000007ffe0000
000000003ffc0000
000000001ff80000
000000000ff00000
0000000007e00000
0000000003c00000
0000000001800000
0000000000000000
ENDCHAR
STARTCHAR /home/kraus/git/open-iconic/png/tags-8x.png
ENCODING 68
DWIDTH 64 0
BBX 64 64 0 0
BITMAP
0000000000000000
0000000000000000
0000000000000000
0000000000000000
0000000000000000
0000000000000000
0000000000000000
0000000000000000
ffff000fff000000
ffff8007ff800000
ffffc003ffc00000
ffffe001ffe00000
fffff000fff00000
fffff8007ff80000
fffffc003ffc0000
fffffe001ffe0000
ffc3ff000fff0000
ff81ff8007ff8000
ff00ffc003ffc000
ff00ffe001ffe000
ff00fff000fff000
ff00fff8007ff800
ff81fffc003ffc00
ffc3fffe001ffe00
7fffffff000fff00
3fffffff8007ff80
1fffffffc003ffc0
0fffffffe001ffe0
07fffffff000fff0
03fffffff8007ff8
01fffffffc003ffc
00fffffffe001ffe
007ffffffe001ffe
003ffffffc003ffc
001ffffff8007ff8
000ffffff000fff0
0007ffffe001ffe0
0003ffffc003ffc0
0001ffff8007ff80
0000ffff000fff00
00007ffe001ffe00
00003ffc003ffc00
00001ff8001ff800
00000ff0000ff000
000007e00007e000
000003c00003c000
0000018000018000
0000000000000000
0000000000000000
0000000000000000
0000000000000000
0000000000000000
0000000000000000
0000000000000000
0000000000000000
0000000000000000
0000000000000000
0000000000000000
0000000000000000
0000000000000000
0000000000000000
0000000000000000
0000000000000000
0000000000000000
ENDCHAR
