STARTFONT 2.1
FONT "open_iconic_arrow_8x"
SIZE 16 75 75
FONTBOUNDINGBOX 16 16 0 0
STARTPROPERTIES 3
COPYRIGHT "https://github.com/iconic/open-iconic, SIL OPEN FONT LICENSE"
FONT_ASCENT 0
FONT_DESCENT 0
ENDPROPERTIES
STARTCHAR /home/kraus/git/open-iconic/png/arrow-bottom-8x.png
ENCODING 64
DWIDTH 64 0
BBX 64 64 0 0
BITMAP
000000ff00000000
000000ff00000000
000000ff00000000
000000ff00000000
000000ff00000000
000000ff00000000
000000ff00000000
000000ff00000000
000000ff00000000
000000ff00000000
000000ff00000000
000000ff00000000
000000ff00000000
000000ff00000000
000000ff00000000
000000ff00000000
000000ff00000000
000000ff00000000
000000ff00000000
000000ff00000000
000000ff00000000
000000ff00000000
000000ff00000000
000000ff00000000
000000ff00000000
000000ff00000000
000000ff00000000
000000ff00000000
000000ff00000000
000000ff00000000
000000ff00000000
000000ff00000000
000000ff00000000
000000ff00000000
000000ff00000000
000000ff00000000
000000ff00000000
000000ff00000000
000000ff00000000
000000ff00000000
00ffffffffff0000
007ffffffffe0000
003ffffffffc0000
001ffffffff80000
000ffffffff00000
0007ffffffe00000
0007ffffffe00000
0003ffffffc00000
0001ffffff800000
0000ffffff000000
00007ffffe000000
00003ffffe000000
00001ffffc000000
00001ffff8000000
00000ffff0000000
000007ffe0000000
000003ffc0000000
000001ffc0000000
000000ff80000000
000000ff00000000
0000007e00000000
0000003c00000000
0000001800000000
0000000800000000
ENDCHAR
STARTCHAR /home/kraus/git/open-iconic/png/arrow-left-8x.png
ENCODING 65
DWIDTH 64 0
BBX 64 64 0 0
BITMAP
0000000000000000
0000000000000000
0000000000000000
0000000000000000
0000000000000000
0000000000000000
0000000000000000
0000000000000000
0000010000000000
0000030000000000
0000070000000000
00000f0000000000
00001f0000000000
00007f0000000000
0000ff0000000000
0001ff0000000000
0003ff0000000000
0007ff0000000000
000fff0000000000
003fff0000000000
007fff0000000000
00ffff0000000000
01ffff0000000000
03ffff0000000000
0fffffffffffffff
1fffffffffffffff
3fffffffffffffff
7fffffffffffffff
ffffffffffffffff
3fffffffffffffff
1fffffffffffffff
0fffffffffffffff
07ffff0000000000
03ffff0000000000
00ffff0000000000
007fff0000000000
003fff0000000000
001fff0000000000
000fff0000000000
0003ff0000000000
0001ff0000000000
0000ff0000000000
00007f0000000000
00001f0000000000
00000f0000000000
0000070000000000
0000030000000000
0000010000000000
0000000000000000
0000000000000000
0000000000000000
0000000000000000
0000000000000000
0000000000000000
0000000000000000
0000000000000000
0000000000000000
0000000000000000
0000000000000000
0000000000000000
0000000000000000
0000000000000000
0000000000000000
0000000000000000
ENDCHAR
STARTCHAR /home/kraus/git/open-iconic/png/arrow-right-8x.png
ENCODING 66
DWIDTH 64 0
BBX 64 64 0 0
BITMAP
0000000000000000
0000000000000000
0000000000000000
0000000000000000
0000000000000000
0000000000000000
0000000000000000
0000000000000000
0000000000800000
0000000000c00000
0000000000e00000
0000000000f00000
0000000000f80000
0000000000fe0000
0000000000ff0000
0000000000ff8000
0000000000ffc000
0000000000fff000
0000000000fff800
0000000000fffc00
0000000000fffe00
0000000000ffff00
0000000000ffffc0
0000000000ffffe0
fffffffffffffff0
fffffffffffffff8
fffffffffffffffc
ffffffffffffffff
fffffffffffffffe
fffffffffffffffc
fffffffffffffff8
fffffffffffffff0
0000000000ffffc0
0000000000ffff80
0000000000ffff00
0000000000fffe00
0000000000fffc00
0000000000fff000
0000000000ffe000
0000000000ffc000
0000000000ff8000
0000000000ff0000
0000000000fe0000
0000000000f80000
0000000000f00000
0000000000e00000
0000000000c00000
0000000000800000
0000000000000000
0000000000000000
0000000000000000
0000000000000000
0000000000000000
0000000000000000
0000000000000000
0000000000000000
0000000000000000
0000000000000000
0000000000000000
0000000000000000
0000000000000000
0000000000000000
0000000000000000
0000000000000000
ENDCHAR
STARTCHAR /home/kraus/git/open-iconic/png/arrow-top-8x.png
ENCODING 67
DWIDTH 64 0
BBX 64 64 0 0
BITMAP
0000001000000000
0000001800000000
0000003c00000000
0000007e00000000
000000ff00000000
000001ff00000000
000003ff80000000
000003ffc0000000
000007ffe0000000
00000ffff0000000
00001ffff8000000
00003ffff8000000
00007ffffc000000
00007ffffe000000
0000ffffff000000
0001ffffff800000
0003ffffffc00000
0007ffffffe00000
0007ffffffe00000
000ffffffff00000
001ffffffff80000
003ffffffffc0000
007ffffffffe0000
00ffffffffff0000
000000ff00000000
000000ff00000000
000000ff00000000
000000ff00000000
000000ff00000000
000000ff00000000
000000ff00000000
000000ff00000000
000000ff00000000
000000ff00000000
000000ff00000000
000000ff00000000
000000ff00000000
000000ff00000000
000000ff00000000
000000ff00000000
000000ff00000000
000000ff00000000
000000ff00000000
000000ff00000000
000000ff00000000
000000ff00000000
000000ff00000000
000000ff00000000
000000ff00000000
000000ff00000000
000000ff00000000
000000ff00000000
000000ff00000000
000000ff00000000
000000ff00000000
000000ff00000000
000000ff00000000
000000ff00000000
000000ff00000000
000000ff00000000
000000ff00000000
000000ff00000000
000000ff00000000
000000ff00000000
ENDCHAR
STARTCHAR /home/kraus/git/open-iconic/png/arrow-circle-bottom-8x.png
ENCODING 68
DWIDTH 64 0
BBX 64 64 0 0
BITMAP
0000003ffc000000
000003ffffc00000
00000ffffff00000
00007ffffffe0000
0000ffffffff0000
0003ffffffffc000
0007ffffffffe000
001ffffffffff800
003fff0000fffc00
007fff0000fffe00
00ffff0000ffff00
01ffff0000ffff80
01ffff0000ffff80
03ffff0000ffffc0
07ffff0000ffffe0
07ffff0000ffffe0
0fffff0000fffff0
1fffff0000fffff8
1fffff0000fffff8
1fffff0000fffff8
3fffff0000fffffc
3fffff0000fffffc
7fffff0000fffffe
7fffff0000fffffe
7fffff0000fffffe
7fffff0000fffffe
ffffff0000ffffff
ffffff0000ffffff
ffffff0000ffffff
ffffff0000ffffff
ffffff0000ffffff
ffffff0000ffffff
ff000000000000ff
ff800000000001ff
ffc00000000003ff
ffe00000000007ff
fff0000000000fff
fff8000000001fff
7ffc000000003ffe
7ffe000000007ffe
7fff00000000fffe
7fff80000001fffe
3fffc0000003fffc
3fffe0000007fffc
1ffff000000ffff8
1ffff800001ffff8
1ffffc00003ffff8
0ffffe00007ffff0
07ffff0000ffffe0
07ffff8001ffffe0
03ffffc003ffffc0
01ffffe007ffff80
01fffff00fffff80
00fffff81fffff00
007ffffc3ffffe00
003ffffe7ffffc00
001ffffffffff800
0007ffffffffe000
0003ffffffffc000
0000ffffffff0000
00007ffffffe0000
00000ffffff00000
000003ffffc00000
0000003ffc000000
ENDCHAR
STARTCHAR /home/kraus/git/open-iconic/png/arrow-circle-left-8x.png
ENCODING 69
DWIDTH 64 0
BBX 64 64 0 0
BITMAP
0000003ffc000000
000003ffffc00000
00000ffffff00000
00007ffffffe0000
0000ffffffff0000
0003ffffffffc000
0007ffffffffe000
001ffffffffff800
003ffffefffffc00
007ffffcfffffe00
00fffff8ffffff00
01fffff0ffffff80
01ffffe0ffffff80
03ffffc0ffffffc0
07ffff80ffffffe0
07ffff00ffffffe0
0ffffe00fffffff0
1ffffc00fffffff8
1ffff800fffffff8
1ffff000fffffff8
3fffe000fffffffc
3fffc000fffffffc
7fff8000fffffffe
7fff0000fffffffe
7ffe0000000000fe
7ffc0000000000fe
fff80000000000ff
fff00000000000ff
ffe00000000000ff
ffc00000000000ff
ff800000000000ff
ff000000000000ff
ff000000000000ff
ff800000000000ff
ffc00000000000ff
ffe00000000000ff
fff00000000000ff
fff80000000000ff
7ffc0000000000fe
7ffe0000000000fe
7fff0000fffffffe
7fff8000fffffffe
3fffc000fffffffc
3fffe000fffffffc
1ffff000fffffff8
1ffff800fffffff8
1ffffc00fffffff8
0ffffe00fffffff0
07ffff00ffffffe0
07ffff80ffffffe0
03ffffc0ffffffc0
01ffffe0ffffff80
01fffff0ffffff80
00fffff8ffffff00
007ffffcfffffe00
003ffffefffffc00
001ffffffffff800
0007ffffffffe000
0003ffffffffc000
0000ffffffff0000
00007ffffffe0000
00000ffffff00000
000003ffffc00000
0000003ffc000000
ENDCHAR
STARTCHAR /home/kraus/git/open-iconic/png/arrow-circle-right-8x.png
ENCODING 70
DWIDTH 64 0
BBX 64 64 0 0
BITMAP
0000003ffc000000
000003ffffc00000
00000ffffff00000
00007ffffffe0000
0000ffffffff0000
0003ffffffffc000
0007ffffffffe000
001ffffffffff800
003fffff7ffffc00
007fffff3ffffe00
00ffffff1fffff00
01ffffff0fffff80
01ffffff07ffff80
03ffffff03ffffc0
07ffffff01ffffe0
07ffffff00ffffe0
0fffffff007ffff0
1fffffff003ffff8
1fffffff001ffff8
1fffffff000ffff8
3fffffff0007fffc
3fffffff0003fffc
7fffffff0001fffe
7fffffff0000fffe
7f00000000007ffe
7f00000000003ffe
ff00000000001fff
ff00000000000fff
ff000000000007ff
ff000000000003ff
ff000000000001ff
ff000000000000ff
ff000000000000ff
ff000000000001ff
ff000000000003ff
ff000000000007ff
ff00000000000fff
ff00000000001fff
7f00000000003ffe
7f00000000007ffe
7fffffff0000fffe
7fffffff0001fffe
3fffffff0003fffc
3fffffff0007fffc
1fffffff000ffff8
1fffffff001ffff8
1fffffff003ffff8
0fffffff007ffff0
07ffffff00ffffe0
07ffffff01ffffe0
03ffffff03ffffc0
01ffffff07ffff80
01ffffff0fffff80
00ffffff1fffff00
007fffff3ffffe00
003fffff7ffffc00
001ffffffffff800
0007ffffffffe000
0003ffffffffc000
0000ffffffff0000
00007ffffffe0000
00000ffffff00000
000003ffffc00000
0000003ffc000000
ENDCHAR
STARTCHAR /home/kraus/git/open-iconic/png/arrow-circle-top-8x.png
ENCODING 71
DWIDTH 64 0
BBX 64 64 0 0
BITMAP
0000003ffc000000
000003ffffc00000
00000ffffff00000
00007ffffffe0000
0000ffffffff0000
0003ffffffffc000
0007ffffffffe000
001ffffffffff800
003ffffe7ffffc00
007ffffc3ffffe00
00fffff81fffff00
01fffff00fffff80
01ffffe007ffff80
03ffffc003ffffc0
07ffff8001ffffe0
07ffff0000ffffe0
0ffffe00007ffff0
1ffffc00003ffff8
1ffff800001ffff8
1ffff000000ffff8
3fffe0000007fffc
3fffc0000003fffc
7fff80000001fffe
7fff00000000fffe
7ffe000000007ffe
7ffc000000003ffe
fff8000000001fff
fff0000000000fff
ffe00000000007ff
ffc00000000003ff
ff800000000001ff
ff000000000000ff
ffffff0000ffffff
ffffff0000ffffff
ffffff0000ffffff
ffffff0000ffffff
ffffff0000ffffff
ffffff0000ffffff
7fffff0000fffffe
7fffff0000fffffe
7fffff0000fffffe
7fffff0000fffffe
3fffff0000fffffc
3fffff0000fffffc
1fffff0000fffff8
1fffff0000fffff8
1fffff0000fffff8
0fffff0000fffff0
07ffff0000ffffe0
07ffff0000ffffe0
03ffff0000ffffc0
01ffff0000ffff80
01ffff0000ffff80
00ffff0000ffff00
007fff0000fffe00
003fff0000fffc00
001ffffffffff800
0007ffffffffe000
0003ffffffffc000
0000ffffffff0000
00007ffffffe0000
00000ffffff00000
000003ffffc00000
0000003ffc000000
ENDCHAR
STARTCHAR /home/kraus/git/open-iconic/png/arrow-thick-bottom-8x.png
ENCODING 72
DWIDTH 64 0
BBX 64 64 0 0
BITMAP
000000ffff000000
000000ffff000000
000000ffff000000
000000ffff000000
000000ffff000000
000000ffff000000
000000ffff000000
000000ffff000000
000000ffff000000
000000ffff000000
000000ffff000000
000000ffff000000
000000ffff000000
000000ffff000000
000000ffff000000
000000ffff000000
000000ffff000000
000000ffff000000
000000ffff000000
000000ffff000000
000000ffff000000
000000ffff000000
000000ffff000000
000000ffff000000
000000ffff000000
000000ffff000000
000000ffff000000
000000ffff000000
000000ffff000000
000000ffff000000
000000ffff000000
000000ffff000000
000000ffff000000
000000ffff000000
000000ffff000000
000000ffff000000
000000ffff000000
000000ffff000000
000000ffff000000
000000ffff000000
007ffffffffffe00
003ffffffffffe00
001ffffffffffc00
000ffffffffff800
0007fffffffff000
0003ffffffffe000
0001ffffffffc000
0000ffffffff8000
00007fffffff0000
00003ffffffe0000
00001ffffffc0000
00000ffffff80000
000007fffff00000
000003ffffe00000
000001ffffc00000
000000ffff800000
0000007fff000000
0000003ffe000000
0000001ffc000000
0000000ff8000000
00000007f0000000
00000003e0000000
00000001c0000000
0000000080000000
ENDCHAR
STARTCHAR /home/kraus/git/open-iconic/png/arrow-thick-left-8x.png
ENCODING 73
DWIDTH 64 0
BBX 64 64 0 0
BITMAP
0000000000000000
0000000000000000
0000000000000000
0000000000000000
0000000000000000
0000000000000000
0000000000000000
0000000000000000
0000000000000000
0000010000000000
0000030000000000
0000070000000000
00000f0000000000
00001f0000000000
00003f0000000000
00007f0000000000
0000ff0000000000
0001ff0000000000
0003ff0000000000
0007ff0000000000
000fff0000000000
001fff0000000000
003fff0000000000
007fff0000000000
00ffffffffffffff
01ffffffffffffff
03ffffffffffffff
07ffffffffffffff
0fffffffffffffff
1fffffffffffffff
3fffffffffffffff
7fffffffffffffff
ffffffffffffffff
7fffffffffffffff
3fffffffffffffff
1fffffffffffffff
0fffffffffffffff
07ffffffffffffff
03ffffffffffffff
01ffffffffffffff
00ffff0000000000
007fff0000000000
003fff0000000000
001fff0000000000
000fff0000000000
0007ff0000000000
0003ff0000000000
0001ff0000000000
0000ff0000000000
00007f0000000000
00003f0000000000
00001f0000000000
00000f0000000000
0000070000000000
0000030000000000
0000000000000000
0000000000000000
0000000000000000
0000000000000000
0000000000000000
0000000000000000
0000000000000000
0000000000000000
0000000000000000
ENDCHAR
STARTCHAR /home/kraus/git/open-iconic/png/arrow-thick-right-8x.png
ENCODING 74
DWIDTH 64 0
BBX 64 64 0 0
BITMAP
0000000000000000
0000000000000000
0000000000000000
0000000000000000
0000000000000000
0000000000000000
0000000000000000
0000000000000000
0000000000000000
0000000000c00000
0000000000e00000
0000000000f00000
0000000000f80000
0000000000fc0000
0000000000fe0000
0000000000ff0000
0000000000ff8000
0000000000ffc000
0000000000ffe000
0000000000fff000
0000000000fff800
0000000000fffc00
0000000000fffe00
0000000000ffff00
ffffffffffffff80
ffffffffffffffc0
ffffffffffffffe0
fffffffffffffff0
fffffffffffffff8
fffffffffffffffc
fffffffffffffffe
ffffffffffffffff
fffffffffffffffe
fffffffffffffffc
fffffffffffffff8
fffffffffffffff0
ffffffffffffffe0
ffffffffffffffc0
ffffffffffffff80
ffffffffffffff00
0000000000fffe00
0000000000fffc00
0000000000fff800
0000000000fff000
0000000000ffe000
0000000000ffc000
0000000000ff8000
0000000000ff0000
0000000000fe0000
0000000000fc0000
0000000000f80000
0000000000f00000
0000000000e00000
0000000000c00000
0000000000800000
0000000000000000
0000000000000000
0000000000000000
0000000000000000
0000000000000000
0000000000000000
0000000000000000
0000000000000000
0000000000000000
ENDCHAR
STARTCHAR /home/kraus/git/open-iconic/png/arrow-thick-top-8x.png
ENCODING 75
DWIDTH 64 0
BBX 64 64 0 0
BITMAP
0000000100000000
0000000380000000
00000007c0000000
0000000fe0000000
0000001ff0000000
0000003ff8000000
0000007ffc000000
000000fffe000000
000001ffff000000
000003ffff800000
000007ffffc00000
00000fffffe00000
00001ffffff00000
00003ffffff80000
00007ffffffc0000
0000fffffffe0000
0001ffffffff0000
0003ffffffff8000
0007ffffffffc000
000fffffffffe000
001ffffffffff000
003ffffffffff800
007ffffffffffc00
007ffffffffffe00
000000ffff000000
000000ffff000000
000000ffff000000
000000ffff000000
000000ffff000000
000000ffff000000
000000ffff000000
000000ffff000000
000000ffff000000
000000ffff000000
000000ffff000000
000000ffff000000
000000ffff000000
000000ffff000000
000000ffff000000
000000ffff000000
000000ffff000000
000000ffff000000
000000ffff000000
000000ffff000000
000000ffff000000
000000ffff000000
000000ffff000000
000000ffff000000
000000ffff000000
000000ffff000000
000000ffff000000
000000ffff000000
000000ffff000000
000000ffff000000
000000ffff000000
000000ffff000000
000000ffff000000
000000ffff000000
000000ffff000000
000000ffff000000
000000ffff000000
000000ffff000000
000000ffff000000
000000ffff000000
ENDCHAR
STARTCHAR /home/kraus/git/open-iconic/png/caret-bottom-8x.png
ENCODING 76
DWIDTH 64 0
BBX 64 64 0 0
BITMAP
0000000000000000
0000000000000000
0000000000000000
0000000000000000
0000000000000000
0000000000000000
0000000000000000
0000000000000000
0000000000000000
0000000000000000
0000000000000000
0000000000000000
0000000000000000
0000000000000000
0000000000000000
0000000000000000
7ffffffffffffffe
3ffffffffffffffc
1ffffffffffffff8
0ffffffffffffff0
07ffffffffffffe0
03ffffffffffffc0
01ffffffffffff80
00ffffffffffff00
007ffffffffffe00
003ffffffffffc00
001ffffffffff800
000ffffffffff000
0007ffffffffe000
0003ffffffffc000
0001ffffffff8000
0000ffffffff0000
00007ffffffe0000
00003ffffffc0000
00001ffffff80000
00000ffffff00000
000007ffffe00000
000003ffffc00000
000001ffff800000
000000ffff000000
0000007ffe000000
0000003ffc000000
0000001ff8000000
0000000ff0000000
00000007e0000000
00000003c0000000
0000000180000000
0000000000000000
0000000000000000
0000000000000000
0000000000000000
0000000000000000
0000000000000000
0000000000000000
0000000000000000
0000000000000000
0000000000000000
0000000000000000
0000000000000000
0000000000000000
0000000000000000
0000000000000000
0000000000000000
0000000000000000
ENDCHAR
STARTCHAR /home/kraus/git/open-iconic/png/caret-left-8x.png
ENCODING 77
DWIDTH 64 0
BBX 64 64 0 0
BITMAP
0000000000000000
0000000000010000
0000000000030000
0000000000070000
00000000000f0000
00000000001f0000
00000000003f0000
00000000007f0000
0000000000ff0000
0000000001ff0000
0000000003ff0000
0000000007ff0000
000000000fff0000
000000001fff0000
000000003fff0000
000000007fff0000
00000000ffff0000
00000001ffff0000
00000003ffff0000
00000007ffff0000
0000000fffff0000
0000001fffff0000
0000003fffff0000
0000007fffff0000
000000ffffff0000
000001ffffff0000
000003ffffff0000
000007ffffff0000
00000fffffff0000
00001fffffff0000
00003fffffff0000
00007fffffff0000
00007fffffff0000
00003fffffff0000
00001fffffff0000
00000fffffff0000
000007ffffff0000
000003ffffff0000
000001ffffff0000
000000ffffff0000
0000007fffff0000
0000003fffff0000
0000001fffff0000
0000000fffff0000
00000007ffff0000
00000003ffff0000
00000001ffff0000
00000000ffff0000
000000007fff0000
000000003fff0000
000000001fff0000
000000000fff0000
0000000007ff0000
0000000003ff0000
0000000001ff0000
0000000000ff0000
00000000007f0000
00000000003f0000
00000000001f0000
00000000000f0000
0000000000070000
0000000000030000
0000000000010000
0000000000000000
ENDCHAR
STARTCHAR /home/kraus/git/open-iconic/png/caret-right-8x.png
ENCODING 78
DWIDTH 64 0
BBX 64 64 0 0
BITMAP
0000000000000000
0000800000000000
0000c00000000000
0000e00000000000
0000f00000000000
0000f80000000000
0000fc0000000000
0000fe0000000000
0000ff0000000000
0000ff8000000000
0000ffc000000000
0000ffe000000000
0000fff000000000
0000fff800000000
0000fffc00000000
0000fffe00000000
0000ffff00000000
0000ffff80000000
0000ffffc0000000
0000ffffe0000000
0000fffff0000000
0000fffff8000000
0000fffffc000000
0000fffffe000000
0000ffffff000000
0000ffffff800000
0000ffffffc00000
0000ffffffe00000
0000fffffff00000
0000fffffff80000
0000fffffffc0000
0000fffffffe0000
0000fffffffe0000
0000fffffffc0000
0000fffffff80000
0000fffffff00000
0000ffffffe00000
0000ffffffc00000
0000ffffff800000
0000ffffff000000
0000fffffe000000
0000fffffc000000
0000fffff8000000
0000fffff0000000
0000ffffe0000000
0000ffffc0000000
0000ffff80000000
0000ffff00000000
0000fffe00000000
0000fffc00000000
0000fff800000000
0000fff000000000
0000ffe000000000
0000ffc000000000
0000ff8000000000
0000ff0000000000
0000fe0000000000
0000fc0000000000
0000f80000000000
0000f00000000000
0000e00000000000
0000c00000000000
0000800000000000
0000000000000000
ENDCHAR
STARTCHAR /home/kraus/git/open-iconic/png/caret-top-8x.png
ENCODING 79
DWIDTH 64 0
BBX 64 64 0 0
BITMAP
0000000000000000
0000000000000000
0000000000000000
0000000000000000
0000000000000000
0000000000000000
0000000000000000
0000000000000000
0000000000000000
0000000000000000
0000000000000000
0000000000000000
0000000000000000
0000000000000000
0000000000000000
0000000000000000
0000000000000000
0000000180000000
00000003c0000000
00000007e0000000
0000000ff0000000
0000001ff8000000
0000003ffc000000
0000007ffe000000
000000ffff000000
000001ffff800000
000003ffffc00000
000007ffffe00000
00000ffffff00000
00001ffffff80000
00003ffffffc0000
00007ffffffe0000
0000ffffffff0000
0001ffffffff8000
0003ffffffffc000
0007ffffffffe000
000ffffffffff000
001ffffffffff800
003ffffffffffc00
007ffffffffffe00
00ffffffffffff00
01ffffffffffff80
03ffffffffffffc0
07ffffffffffffe0
0ffffffffffffff0
1ffffffffffffff8
3ffffffffffffffc
7ffffffffffffffe
0000000000000000
0000000000000000
0000000000000000
0000000000000000
0000000000000000
0000000000000000
0000000000000000
0000000000000000
0000000000000000
0000000000000000
0000000000000000
0000000000000000
0000000000000000
0000000000000000
0000000000000000
0000000000000000
ENDCHAR
STARTCHAR /home/kraus/git/open-iconic/png/chevron-bottom-8x.png
ENCODING 80
DWIDTH 64 0
BBX 64 64 0 0
BITMAP
0000000000000000
0000000000000000
0000000000000000
0000000000000000
0000000000000000
0000000000000000
0000000000000000
0000000000000000
0000000000000000
0018000000001800
003c000000003c00
007e000000007e00
00ff00000000ff00
01ff80000001ff80
03ffc0000003ffc0
07ffe0000007ffe0
0ffff000000ffff0
1ffff800001ffff8
3ffffc00003ffffc
7ffffe00007ffffe
7fffff0000fffffe
3fffff8001fffffc
1fffffc003fffff8
0fffffe007fffff0
07fffff00fffffe0
03fffff81fffffc0
01fffffc3fffff80
00fffffe7fffff00
007ffffffffffe00
003ffffffffffc00
001ffffffffff800
000ffffffffff000
0007ffffffffe000
0003ffffffffc000
0001ffffffff8000
0000ffffffff0000
00007ffffffe0000
00003ffffffc0000
00001ffffff80000
00000ffffff00000
000007ffffe00000
000003ffffc00000
000001ffff800000
000000ffff000000
0000007ffe000000
0000003ffc000000
0000001ff8000000
0000000ff0000000
00000007e0000000
00000003c0000000
0000000180000000
0000000000000000
0000000000000000
0000000000000000
0000000000000000
0000000000000000
0000000000000000
0000000000000000
0000000000000000
0000000000000000
0000000000000000
0000000000000000
0000000000000000
0000000000000000
ENDCHAR
STARTCHAR /home/kraus/git/open-iconic/png/chevron-left-8x.png
ENCODING 81
DWIDTH 64 0
BBX 64 64 0 0
BITMAP
0000000000000000
0000000001800000
0000000003c00000
0000000007e00000
000000000ff00000
000000001ff80000
000000003ffc0000
000000007ffe0000
00000000ffff0000
00000001ffff8000
00000003ffffc000
00000007ffffe000
0000000fffffe000
0000001fffffc000
0000003fffff8000
0000007fffff0000
000000fffffe0000
000001fffffc0000
000003fffff80000
000007fffff00000
00000fffffe00000
00001fffffc00000
00003fffff800000
00007fffff000000
0000fffffe000000
0001fffffc000000
0003fffff8000000
0007fffff0000000
000fffffe0000000
001fffffc0000000
003fffff80000000
007fffff00000000
007fffff00000000
003fffff80000000
001fffffc0000000
000fffffe0000000
0007fffff0000000
0003fffff8000000
0001fffffc000000
0000fffffe000000
00007fffff000000
00003fffff800000
00001fffffc00000
00000fffffe00000
000007fffff00000
000003fffff80000
000001fffffc0000
000000fffffe0000
0000007fffff0000
0000003fffff8000
0000001fffffc000
0000000fffffe000
00000007ffffe000
00000003ffffc000
00000001ffff8000
00000000ffff0000
000000007ffe0000
000000003ffc0000
000000001ff80000
000000000ff00000
0000000007e00000
0000000003c00000
0000000001800000
0000000000000000
ENDCHAR
STARTCHAR /home/kraus/git/open-iconic/png/chevron-right-8x.png
ENCODING 82
DWIDTH 64 0
BBX 64 64 0 0
BITMAP
0000000000000000
0000180000000000
00003c0000000000
00007e0000000000
0000ff0000000000
0001ff8000000000
0003ffc000000000
0007ffe000000000
000ffff000000000
001ffff800000000
003ffffc00000000
007ffffe00000000
007fffff00000000
003fffff80000000
001fffffc0000000
000fffffe0000000
0007fffff0000000
0003fffff8000000
0001fffffc000000
0000fffffe000000
00007fffff000000
00003fffff800000
00001fffffc00000
00000fffffe00000
000007fffff00000
000003fffff80000
000001fffffc0000
000000fffffe0000
0000007fffff0000
0000003fffff8000
0000001fffffc000
0000000fffffe000
0000000fffffe000
0000001fffffc000
0000003fffff8000
0000007fffff0000
000000fffffe0000
000001fffffc0000
000003fffff80000
000007fffff00000
00000fffffe00000
00001fffffc00000
00003fffff800000
00007fffff000000
0000fffffe000000
0001fffffc000000
0003fffff8000000
0007fffff0000000
000fffffe0000000
001fffffc0000000
003fffff80000000
007fffff00000000
007ffffe00000000
003ffffc00000000
001ffff800000000
000ffff000000000
0007ffe000000000
0003ffc000000000
0001ff8000000000
0000ff0000000000
00007e0000000000
00003c0000000000
0000180000000000
0000000000000000
ENDCHAR
STARTCHAR /home/kraus/git/open-iconic/png/chevron-top-8x.png
ENCODING 83
DWIDTH 64 0
BBX 64 64 0 0
BITMAP
0000000000000000
0000000000000000
0000000000000000
0000000000000000
0000000000000000
0000000000000000
0000000000000000
0000000000000000
0000000000000000
0000000180000000
00000003c0000000
00000007e0000000
0000000ff0000000
0000001ff8000000
0000003ffc000000
0000007ffe000000
000000ffff000000
000001ffff800000
000003ffffc00000
000007ffffe00000
00000ffffff00000
00001ffffff80000
00003ffffffc0000
00007ffffffe0000
0000ffffffff0000
0001ffffffff8000
0003ffffffffc000
0007ffffffffe000
000ffffffffff000
001ffffffffff800
003ffffffffffc00
007ffffffffffe00
00fffffe7fffff00
01fffffc3fffff80
03fffff81fffffc0
07fffff00fffffe0
0fffffe007fffff0
1fffffc003fffff8
3fffff8001fffffc
7fffff0000fffffe
7ffffe00007ffffe
3ffffc00003ffffc
1ffff800001ffff8
0ffff000000ffff0
07ffe0000007ffe0
03ffc0000003ffc0
01ff80000001ff80
00ff00000000ff00
007e000000007e00
003c000000003c00
0018000000001800
0000000000000000
0000000000000000
0000000000000000
0000000000000000
0000000000000000
0000000000000000
0000000000000000
0000000000000000
0000000000000000
0000000000000000
0000000000000000
0000000000000000
0000000000000000
ENDCHAR
STARTCHAR /home/kraus/git/open-iconic/png/data-transfer-download-8x.png
ENCODING 84
DWIDTH 64 0
BBX 64 64 0 0
BITMAP
000000ffff000000
000000ffff000000
000000ffff000000
000000ffff000000
000000ffff000000
000000ffff000000
000000ffff000000
000000ffff000000
000000ffff000000
000000ffff000000
000000ffff000000
000000ffff000000
000000ffff000000
000000ffff000000
000000ffff000000
000000ffff000000
000000ffff000000
000000ffff000000
000000ffff000000
000000ffff000000
000000ffff000000
000000ffff000000
000000ffff000000
000000ffff000000
007ffffffffffe00
003ffffffffffc00
001ffffffffff800
000ffffffffff000
0007ffffffffe000
0003ffffffffc000
0001ffffffff8000
0000ffffffff0000
00007ffffffe0000
00003ffffffc0000
00001ffffff80000
00000ffffff00000
000007ffffe00000
000003ffffc00000
000001ffff800000
000000ffff000000
0000007ffe000000
0000003ffc000000
0000001ff8000000
0000000ff0000000
00000007e0000000
00000003c0000000
0000000180000000
0000000000000000
0000000000000000
0000000000000000
0000000000000000
0000000000000000
0000000000000000
0000000000000000
0000000000000000
0000000000000000
ffffffffffffffff
ffffffffffffffff
ffffffffffffffff
ffffffffffffffff
ffffffffffffffff
ffffffffffffffff
ffffffffffffffff
ffffffffffffffff
ENDCHAR
STARTCHAR /home/kraus/git/open-iconic/png/data-transfer-upload-8x.png
ENCODING 85
DWIDTH 64 0
BBX 64 64 0 0
BITMAP
ffffffffffffffff
ffffffffffffffff
ffffffffffffffff
ffffffffffffffff
ffffffffffffffff
ffffffffffffffff
ffffffffffffffff
ffffffffffffffff
0000000000000000
0000000000000000
0000000000000000
0000000000000000
0000000000000000
0000000000000000
0000000000000000
0000000000000000
0000000000000000
0000000180000000
00000003c0000000
00000007e0000000
0000000ff0000000
0000001ff8000000
0000003ffc000000
0000007ffe000000
000000ffff000000
000001ffff800000
000003ffffc00000
000007ffffe00000
00000ffffff00000
00001ffffff80000
00003ffffffc0000
00007ffffffe0000
0000ffffffff0000
0001ffffffff8000
0003ffffffffc000
0007ffffffffe000
000ffffffffff000
001ffffffffff800
003ffffffffffc00
007ffffffffffe00
000000ffff000000
000000ffff000000
000000ffff000000
000000ffff000000
000000ffff000000
000000ffff000000
000000ffff000000
000000ffff000000
000000ffff000000
000000ffff000000
000000ffff000000
000000ffff000000
000000ffff000000
000000ffff000000
000000ffff000000
000000ffff000000
000000ffff000000
000000ffff000000
000000ffff000000
000000ffff000000
000000ffff000000
000000ffff000000
000000ffff000000
000000ffff000000
ENDCHAR
STARTCHAR /home/kraus/git/open-iconic/png/loop-8x.png
ENCODING 86
DWIDTH 64 0
BBX 64 64 0 0
BITMAP
0000000000008000
000000000000c000
000000000000e000
000000000000f800
000000000000fc00
000000000000fe00
000000000000ff80
000000000000ffc0
07ffffffffffffe0
1ffffffffffffff8
3ffffffffffffffc
7ffffffffffffffe
7ffffffffffffffe
fffffffffffffffc
fffffffffffffff8
ffffffffffffffe0
ff0000000000ffc0
ff0000000000ff80
ff0000000000fe00
ff0000000000fc00
ff0000000000f800
ff0000000000e000
ff0000000000c000
ff00000000008000
0000000000000000
0000000000000000
0000000000000000
0000000000000000
0000000000000000
0000000000000000
0000000000000000
0000000000000000
00010000000000ff
00030000000000ff
00070000000000ff
001f0000000000ff
003f0000000000ff
007f0000000000ff
01ff0000000000ff
03ff0000000000ff
07ffffffffffffff
1fffffffffffffff
3fffffffffffffff
7ffffffffffffffe
7ffffffffffffffe
3ffffffffffffffc
1ffffffffffffff8
07ffffffffffffe0
03ff000000000000
01ff000000000000
007f000000000000
003f000000000000
001f000000000000
0007000000000000
0003000000000000
0001000000000000
0000000000000000
0000000000000000
0000000000000000
0000000000000000
0000000000000000
0000000000000000
0000000000000000
0000000000000000
ENDCHAR
STARTCHAR /home/kraus/git/open-iconic/png/loop-circular-8x.png
ENCODING 87
DWIDTH 64 0
BBX 64 64 0 0
BITMAP
0000000000000000
0000000000000000
0000000000000000
0000000000000000
0000000000000000
0000000000000000
0000000000000000
0000000000000000
0000001f00000000
000000ff00000000
000007ff00000000
00000fff00000000
00003fff00000000
00007fff00000000
0000ffff00000000
0001ffff00000000
0003fff000000000
0007ff8000001800
000ffe0000003c00
000ffc0000007e00
001ff80000007e00
003ff0000000ff00
003fe0000001ff80
003fc0000003ffc0
007fc0000003ffc0
007f80000007ffe0
007f8000000ffff0
00ff8000001ffff8
00ff0000001ffff8
00ff0000003ffffc
00ff0000007ffffe
00ff000000ffffff
ffffff000000ff00
7ffffe000000ff00
3ffffc000000ff00
1ffff8000000ff00
1ffff8000001ff00
0ffff0000001fe00
07ffe0000001fe00
03ffc0000003fe00
03ffc0000003fc00
01ff80000007fc00
00ff0000000ffc00
007e0000001ff800
007e0000003ff000
003c0000007ff000
0018000001ffe000
000000000fffc000
00000000ffff8000
00000000ffff0000
00000000fffe0000
00000000fffc0000
00000000fff00000
00000000ffe00000
00000000ff000000
00000000f8000000
0000000000000000
0000000000000000
0000000000000000
0000000000000000
0000000000000000
0000000000000000
0000000000000000
0000000000000000
ENDCHAR
STARTCHAR /home/kraus/git/open-iconic/png/loop-square-8x.png
ENCODING 88
DWIDTH 64 0
BBX 64 64 0 0
BITMAP
00ffffffffffff00
00ffffffffffff00
00ffffffffffff00
00ffffffffffff00
00ffffffffffff00
00ffffffffffff00
00ffffffffffff00
00ffffffffffff00
00ff00000000ff00
00ff00000000ff00
00ff00000000ff00
00ff00000000ff00
00ff00000000ff00
00ff00000000ff00
00ff00000000ff00
00ff00000000ff00
000000000000ff00
000000000000ff00
000000000000ff00
000000000000ff00
000000000000ff00
001800000000ff00
001800000000ff00
003c00000000ff00
007e000000ffffff
007e0000007ffffe
00ff0000003ffffc
00ff0000003ffffc
01ff8000001ffff8
03ffc000001ffff8
03ffc000000ffff0
07ffe0000007ffe0
07ffe0000007ffe0
0ffff0000003ffc0
1ffff8000003ffc0
1ffff8000001ff80
3ffffc000000ff00
3ffffc000000ff00
7ffffe0000007e00
ffffff0000007e00
00ff000000003c00
00ff000000001800
00ff000000001800
00ff000000000000
00ff000000000000
00ff000000000000
00ff000000000000
00ff000000000000
00ff00000000ff00
00ff00000000ff00
00ff00000000ff00
00ff00000000ff00
00ff00000000ff00
00ff00000000ff00
00ff00000000ff00
00ff00000000ff00
00ffffffffffff00
00ffffffffffff00
00ffffffffffff00
00ffffffffffff00
00ffffffffffff00
00ffffffffffff00
00ffffffffffff00
00ffffffffffff00
ENDCHAR
STARTCHAR /home/kraus/git/open-iconic/png/random-8x.png
ENCODING 89
DWIDTH 64 0
BBX 64 64 0 0
BITMAP
0000000000008000
000000000000c000
000000000000e000
000000000000f800
000000000000fc00
000000000000fe00
000000000000ff80
000000000000ffc0
ffe00000007fffe0
fff8000001fffff8
fffc000003fffffc
fffe000007fffffe
fffe000007fffffe
ffff00000ffffffc
ffff80001ffffff8
ffffc0003fffffe0
00ffe0007ff0ffc0
007ff0007fe0ff80
003ff800ffc0fe00
001ffc01ff80fc00
000ffc03ff00f800
0007fe07ff00e000
0003ff07fe00c000
0003ff8ffc008000
0001ffdff8000000
0000fffff0000000
00007ffff0000000
00003fffe0000000
00001fffc0000000
00000fff80000000
00000fff00000000
000007ff00000000
00000fff80000000
00000fffc0000000
00001fffc0000000
00003fffe0000000
00007ffff0000000
0000fffff8000000
0000ffdffc000000
0001ff8ffe000000
0003ff07ff008000
0007fe03ff00c000
000ffe01ff80e000
000ffc00ffc0f800
001ff800ffe0fc00
003ff0007ff0fe00
007fe0003ff8ff80
00ffe0001ffcffc0
ffffc0000fffffe0
ffff800007fffff8
ffff000003fffffc
fffe000003fffffe
fffe000001fffffe
fffc000000fffffc
fff80000007ffff8
ffe00000001fffe0
000000000000ffc0
000000000000ff80
000000000000fe00
000000000000fc00
000000000000f800
000000000000e000
000000000000c000
0000000000008000
ENDCHAR
STARTCHAR /home/kraus/git/open-iconic/png/share-8x.png
ENCODING 90
DWIDTH 64 0
BBX 64 64 0 0
BITMAP
0000000000800000
0000000000c00000
0000000000e00000
0000000000f00000
0000000000f80000
0000000000fc0000
0000000000fe0000
0000000000ff0000
0000000000ff8000
0000000000ffc000
0000000000ffe000
0000000000fff000
0000000000fff800
0000000000fffc00
0000000000fffe00
0000000000ffff00
00000001ffffff80
0000007fffffffc0
000003fffffffff0
00001ffffffffff8
00007ffffffffffc
0001fffffffffffe
0007ffffffffffff
000ffffffffffffe
001ffffffffffffc
003ffffffffffff8
007ffffffffffff0
00ffffffffffffe0
01ffffffffffffe0
03ffffffffffffc0
03ffffffffffff80
07ffffffffffff00
0fffff8000fffe00
0ffff80000fffc00
0fffc00000fff800
1fff000000fff000
1ffc000000ffe000
3ff0000000ffc000
3fe0000000ff8000
3fc0000000ff0000
3f80000000fe0000
7f00000000fc0000
7e00000000f80000
7c00000000f00000
7800000000e00000
7800000000c00000
7000000000800000
e000000000000000
e000000000000000
c000000000000000
c000000000000000
8000000000000000
8000000000000000
8000000000000000
0000000000000000
0000000000000000
0000000000000000
0000000000000000
0000000000000000
0000000000000000
0000000000000000
0000000000000000
0000000000000000
0000000000000000
ENDCHAR
STARTCHAR /home/kraus/git/open-iconic/png/share-boxed-8x.png
ENCODING 91
DWIDTH 64 0
BBX 64 64 0 0
BITMAP
0fffff0000000000
3fffff0000008000
7fffff000000c000
7fffff000000e000
ffffff000000f000
ffffff000000f800
ffffff000000fc00
ffffff000000fe00
ff000000003fff00
ff00000003ffff80
ff0000000fffffc0
ff0000003ffffff0
ff000000fffffff8
ff000003fffffffc
ff000007fffffffe
ff00000fffffffff
ff00003ffffffffe
ff00007ffffffffc
ff0000fffffffff8
ff0000fffffffff0
ff0001ffffffffe0
ff0003ffffffffc0
ff0007ffffffff80
ff0007ffffffff00
ff000ff00000fe00
ff000f800000fc00
ff001e000000f800
ff001c000000f000
ff0038000000e000
ff0030000000c000
ff00200000008000
ff00400000000000
ff00400000000000
ff00000000000000
ff00000000000000
ff00000000000000
ff00000000000000
ff00000000000000
ff00000000000000
ff00000000000000
ff00000000ff0000
ff00000000ff0000
ff00000000ff0000
ff00000000ff0000
ff00000000ff0000
ff00000000ff0000
ff00000000ff0000
ff00000000ff0000
ffffffffffff0000
ffffffffffff0000
ffffffffffff0000
ffffffffffff0000
7ffffffffffe0000
7ffffffffffe0000
3ffffffffffc0000
0ffffffffff00000
0000000000000000
0000000000000000
0000000000000000
0000000000000000
0000000000000000
0000000000000000
0000000000000000
0000000000000000
ENDCHAR
