STARTFONT 2.1
FONT "streamline_interface_essential_text"
SIZE 16 75 75
FONTBOUNDINGBOX 16 16 0 0
STARTPROPERTIES 3
COPYRIGHT "streamlinehq.com"
FONT_ASCENT 0
FONT_DESCENT 0
ENDPROPERTIES
STARTCHAR streamline-interface-essential-find-text--interface-essential.png
ENCODING 48
DWIDTH 21 0
BBX 21 21 0 0
BITMAP
03e000
0c1800
100400
200200
400100
400100
800080
87f080
888880
888880
888880
408100
408100
208380
1087c0
0c1f60
03e7b0
0003d0
0081f0
03e0e0
000000
ENDCHAR
STARTCHAR streamline-interface-essential-password-type--interface-essential.png
ENCODING 49
DWIDTH 21 0
BBX 21 21 0 0
BITMAP
000000
000000
000000
000000
000000
3fffe0
400010
800008
800008
aaa808
911008
aaabe8
800008
800008
400010
3fffe0
000000
000000
000000
000000
000000
ENDCHAR
STARTCHAR streamline-interface-essential-text-format-1--interface-essential.png
ENCODING 50
DWIDTH 21 0
BBX 21 21 0 0
BITMAP
700070
880088
8fff88
880088
700070
21fc20
222220
222220
202020
202020
202020
202020
202020
202020
202020
20f820
700070
880088
8fff88
880088
700070
ENDCHAR
STARTCHAR streamline-interface-essential-text-format-2--interface-essential.png
ENCODING 51
DWIDTH 21 0
BBX 21 21 0 0
BITMAP
000000
700070
7ffff0
700070
200020
21fc20
222220
222220
202020
202020
202020
202020
202020
202020
202020
20f820
200020
700070
7ffff0
700070
000000
ENDCHAR
STARTCHAR streamline-interface-essential-text-input-area-1--interface-essential.png
ENCODING 52
DWIDTH 21 0
BBX 21 21 0 0
BITMAP
000000
000000
000000
000000
00d800
002000
7faff0
802008
942008
be2008
9c2008
882008
802008
7faff0
002000
00d800
000000
000000
000000
000000
000000
ENDCHAR
STARTCHAR streamline-interface-essential-text-input-area-2--interface-essential.png
ENCODING 53
DWIDTH 21 0
BBX 21 21 0 0
BITMAP
000000
000000
000000
000370
000488
0009c8
0003a8
3fe770
400ee0
8015c0
801388
801108
801e08
892008
800008
400010
3fffe0
000000
000000
000000
000000
ENDCHAR
STARTCHAR streamline-interface-essential-text-input-area-3--interface-essential.png
ENCODING 54
DWIDTH 21 0
BBX 21 21 0 0
BITMAP
000000
000000
000000
000360
000080
2eeea0
400090
8c8088
928088
12e280
9e9488
929488
92e288
400090
2eeea0
000080
000360
000000
000000
000000
000000
ENDCHAR
