STARTFONT 2.1
FONT "streamline_business"
SIZE 16 75 75
FONTBOUNDINGBOX 16 16 0 0
STARTPROPERTIES 3
COPYRIGHT "streamlinehq.com"
FONT_ASCENT 0
FONT_DESCENT 0
ENDPROPERTIES
STARTCHAR streamline-business-money-coin-currency--business.png
ENCODING 48
DWIDTH 21 0
BBX 21 21 0 0
BITMAP
000000
000000
01fc00
060f00
09f380
1209c0
2444e0
28e2e0
515170
514170
50e170
505170
515170
28e2e0
2444e0
1209c0
09f380
060f00
01fc00
000000
000000
ENDCHAR
STARTCHAR streamline-business-prodect-diamond--business.png
ENCODING 49
DWIDTH 21 0
BBX 21 21 0 0
BITMAP
000100
204020
500070
27ff20
0c3f80
1c5f40
3c8f20
7d0710
fe0308
fffff8
83c3f8
43c3f0
21c7e0
11c7c0
88cf88
04cf00
225e20
715c50
20b820
027000
002100
ENDCHAR
STARTCHAR streamline-business-product-check--business.png
ENCODING 50
DWIDTH 21 0
BBX 21 21 0 0
BITMAP
000000
002000
005000
008800
0f0780
080080
080080
080480
100e40
211c20
43b810
21f020
10e040
084080
080080
080080
0f0780
008800
005000
002000
000000
ENDCHAR
STARTCHAR streamline-business-product-piggy-bank--business.png
ENCODING 51
DWIDTH 21 0
BBX 21 21 0 0
BITMAP
4e0800
111c00
2e8900
2ea000
ae8000
110800
0e6300
409480
a39c80
440040
0804a0
100020
1001f0
1003f8
100358
100358
0803f0
0401e0
04fc80
030300
000000
ENDCHAR
STARTCHAR streamline-business-product-price-tag--business.png
ENCODING 52
DWIDTH 21 0
BBX 21 21 0 0
BITMAP
800000
5fc000
202000
561000
4a0800
560400
5e0200
400100
40b080
404040
20ac20
109210
086a08
040410
021a20
010040
008080
004100
002200
001400
000800
ENDCHAR
STARTCHAR streamline-business-product-report-present-grahp--business.png
ENCODING 53
DWIDTH 21 0
BBX 21 21 0 0
BITMAP
002000
005000
fffff8
7ffff0
200020
240020
240220
240420
248820
255020
262020
240020
27ff20
200020
100040
0fff80
002000
002000
002000
005000
002000
ENDCHAR
STARTCHAR streamline-business-products-bag_1--business.png
ENCODING 54
DWIDTH 21 0
BBX 21 21 0 0
BITMAP
000000
000000
000000
7fff00
800080
800080
83fff0
840008
8403c8
840728
840728
8403c8
840008
85c008
7c0008
05f808
040008
03fff0
000000
000000
000000
ENDCHAR
STARTCHAR streamline-business-products-bag--business.png
ENCODING 55
DWIDTH 21 0
BBX 21 21 0 0
BITMAP
07fe00
080100
080100
3fffc0
400020
800010
800010
800010
800010
600060
5801a0
466620
41f820
406020
406020
400020
400020
400020
200040
1fff80
000000
ENDCHAR
STARTCHAR streamline-business-products-bag-money--business.png
ENCODING 56
DWIDTH 21 0
BBX 21 21 0 0
BITMAP
062300
055500
048900
020200
010400
00f800
010400
020200
040100
08f880
11dc40
138e40
237e20
238e20
23f620
238e20
21dc20
10f840
100040
0c0180
03fe00
ENDCHAR
STARTCHAR streamline-business-products-boat-success--business.png
ENCODING 57
DWIDTH 21 0
BBX 21 21 0 0
BITMAP
0000c0
380120
460210
8101e0
810000
7e2000
005000
008800
012400
022200
042100
3fffe0
200020
100040
3870e0
7cf9f0
c78f18
3870e0
c78f18
3870e0
000000
ENDCHAR
STARTCHAR streamline-business-product-scale--business.png
ENCODING 58
DWIDTH 21 0
BBX 21 21 0 0
BITMAP
002000
005000
0020c0
002380
002c80
003080
00e140
032140
0c2220
302220
1027f0
2827f0
2823e0
4421c0
442000
fe2000
fe2000
7c2000
38f800
010400
03fe00
ENDCHAR
STARTCHAR streamline-business-products-cash-search--business.png
ENCODING 59
DWIDTH 21 0
BBX 21 21 0 0
BITMAP
03e000
0c1800
100400
23e200
441100
488900
91c480
920480
91c480
902480
91c480
488900
441100
23e380
1007c0
0c1f60
03e7b0
0003d0
0001f0
0000e0
000000
ENDCHAR
STARTCHAR streamline-business-products-cash-shield--business.png
ENCODING 60
DWIDTH 21 0
BBX 21 21 0 0
BITMAP
01fc00
060300
19fcc0
260320
2800a0
2800a0
2820a0
2870a0
28a8a0
28a0a0
2870a0
2828a0
28a8a0
2870a0
142140
140140
0a0280
058d00
027200
018c00
007000
ENDCHAR
STARTCHAR streamline-business-products-cash-user-man-message--business.png
ENCODING 61
DWIDTH 21 0
BBX 21 21 0 0
BITMAP
007ff0
008008
008208
008708
008a88
008a08
008708
000288
1f0a88
3f8708
7fc208
60c0f0
405100
515200
405c00
414000
464000
208000
1f0000
64c000
843000
ENDCHAR
STARTCHAR streamline-business-products-climb-top--business.png
ENCODING 62
DWIDTH 21 0
BBX 21 21 0 0
BITMAP
000c00
000a00
180900
640f80
820800
7c0820
001c50
003688
003a70
007b00
007f00
00ff80
00f680
01fbc0
01de40
127020
2a0020
440010
440010
880008
880008
ENDCHAR
STARTCHAR streamline-business-products-data-file-bars--business.png
ENCODING 63
DWIDTH 21 0
BBX 21 21 0 0
BITMAP
3fff00
200280
200240
200220
2003e0
200020
200020
280020
280020
2c1820
281b20
28db20
2cdb20
28db20
28db20
2fffa0
200020
200020
200020
200020
3fffe0
ENDCHAR
STARTCHAR streamline-business-products-deal-handshake--business.png
ENCODING 64
DWIDTH 21 0
BBX 21 21 0 0
BITMAP
080000
001040
002800
001000
010000
2000a8
700050
200000
01bc00
024200
e48138
f910f8
e12038
e0d038
e00838
e00438
e02438
e11c38
f893f8
e46038
03c000
ENDCHAR
STARTCHAR streamline-business-products-factory--business.png
ENCODING 65
DWIDTH 21 0
BBX 21 21 0 0
BITMAP
000000
004c70
003250
4c0050
320050
000050
000088
000088
0183a8
068c88
18b088
60c088
8686a8
868688
808088
808088
b0b0a8
b0b088
808088
808088
000000
ENDCHAR
STARTCHAR streamline-business-products-magic-rabbit--business.png
ENCODING 66
DWIDTH 21 0
BBX 21 21 0 0
BITMAP
030600
048900
048900
025200
022200
040100
080080
3904e0
487090
5820d0
7c01f0
3fffe0
0fff80
080080
0fff80
0fff80
0fff80
0fff80
0fff80
07ff00
03fe00
ENDCHAR
STARTCHAR streamline-business-products-money--business.png
ENCODING 67
DWIDTH 21 0
BBX 21 21 0 0
BITMAP
000000
000000
000000
7ffff0
e00038
c0f818
810408
822208
847108
848108
847108
840908
847108
822208
810408
c0f818
e00038
7ffff0
000000
000000
000000
ENDCHAR
STARTCHAR streamline-business-products-network-user--business.png
ENCODING 68
DWIDTH 21 0
BBX 21 21 0 0
BITMAP
00e380
0307c0
0c2fe0
10cc60
210820
3fe820
440440
440380
880440
880920
ff9110
881110
881450
441450
4417d0
3f97d0
210fe0
10c7c0
0c26c0
0306c0
00e6c0
ENDCHAR
STARTCHAR streamline-business-products-performance-money-decrease--business.png
ENCODING 69
DWIDTH 21 0
BBX 21 21 0 0
BITMAP
300000
181800
0c3c20
066660
03c3e0
0181e0
0003e0
3e07e0
410000
808000
c18000
be01e0
c1f210
ba0808
c40418
b60de8
c5f410
360de0
05f400
020800
01f000
ENDCHAR
STARTCHAR streamline-business-products-performance-money-increase--business.png
ENCODING 70
DWIDTH 21 0
BBX 21 21 0 0
BITMAP
0007e0
00c3e0
01e1e0
0333e0
061e60
0c0c20
000000
3e0000
410000
808000
c18000
be01e0
c1f210
b20808
c40418
b60de8
85f410
460de0
35f400
020800
01f000
ENDCHAR
STARTCHAR streamline-business-products-safe--business.png
ENCODING 71
DWIDTH 21 0
BBX 21 21 0 0
BITMAP
3fffe0
400010
800008
9fffc8
900048
90f8e8
9104e8
9272e8
928a48
928a48
928a48
9272e8
9104e8
90f8e8
900048
9fffc8
800008
400010
3fffe0
080080
000000
ENDCHAR
STARTCHAR streamline-business-product-startup-1--business.png
ENCODING 72
DWIDTH 21 0
BBX 21 21 0 0
BITMAP
003000
004800
008400
01fe00
010200
023100
025900
027900
063180
0a0140
120520
120120
1605a0
1a0160
11fe20
008400
007800
000000
034b00
6c48d8
908420
ENDCHAR
STARTCHAR streamline-business-product-startup-2--business.png
ENCODING 73
DWIDTH 21 0
BBX 21 21 0 0
BITMAP
00e000
01f000
43f800
a7fc80
47fc00
040400
044420
04a470
444420
040400
040400
0c4600
14a500
244480
240480
2c0680
33f980
2000a0
015000
815000
004000
ENDCHAR
STARTCHAR streamline-business-products-treasure--business.png
ENCODING 74
DWIDTH 21 0
BBX 21 21 0 0
BITMAP
000000
000000
1fff80
200040
4000a0
7fff10
200090
100050
080030
7ffff0
400110
5d7950
5c7950
5ef950
528950
528950
5ef950
400110
3fffe0
000000
000000
ENDCHAR
STARTCHAR streamline-business-products-wallet-money--business.png
ENCODING 75
DWIDTH 21 0
BBX 21 21 0 0
BITMAP
000000
00c000
032600
0c1900
102100
3fff80
400040
880020
880020
880020
8800f0
8801b8
8801f8
8800f0
880020
880020
880020
880020
400040
3fff80
000000
ENDCHAR
STARTCHAR streamline-business-product-target--business.png
ENCODING 76
DWIDTH 21 0
BBX 21 21 0 0
BITMAP
00f820
030660
0c00f8
10f8f0
23fce0
270100
4c0210
4c7490
9888c8
9914c8
9924c8
9904c8
9888c8
4c7190
4c0190
270320
23fe20
10f840
0c0180
030600
00f800
ENDCHAR
