STARTFONT 2.1
FONT "streamline_interface_essential_alert"
SIZE 16 75 75
FONTBOUNDINGBOX 16 16 0 0
STARTPROPERTIES 3
COPYRIGHT "streamlinehq.com"
FONT_ASCENT 0
FONT_DESCENT 0
ENDPROPERTIES
STARTCHAR streamline-interface-essential-alarm-bell-off--interface-essential.png
ENCODING 48
DWIDTH 21 0
BBX 21 21 0 0
BITMAP
3fffe0
400030
807868
8184c8
820188
840308
840608
880c88
881888
883088
886088
88c088
918048
a33e28
a67928
8c7048
980188
b3fe08
e00008
400010
3fffe0
ENDCHAR
STARTCHAR streamline-interface-essential-alarm-bell-sleep--interface-essential.png
ENCODING 49
DWIDTH 21 0
BBX 21 21 0 0
BITMAP
0c0000
0200f0
040008
080010
060020
007040
018c80
c20278
240100
440100
880080
680080
080080
080080
080080
100040
23fe20
24f920
107040
0c0180
03fe00
ENDCHAR
STARTCHAR streamline-interface-essential-alert--interface-essential.png
ENCODING 50
DWIDTH 21 0
BBX 21 21 0 0
BITMAP
3800e0
440110
880088
90f848
a30628
442110
080080
122240
102040
202020
207020
287ca0
207020
200020
100040
120240
080080
042100
070700
08f880
100040
ENDCHAR
STARTCHAR streamline-interface-essential-notification-alert--interface-essential.png
ENCODING 51
DWIDTH 21 0
BBX 21 21 0 0
BITMAP
300060
400010
907048
a18c28
020200
040100
040100
080080
080080
080080
080080
080080
100040
23fe20
24f920
107040
0c0180
a3fe28
900048
400010
300060
ENDCHAR
STARTCHAR streamline-interface-essential-stopwatch--interface-essential.png
ENCODING 52
DWIDTH 21 0
BBX 21 21 0 0
BITMAP
01fc00
02aa00
02aa00
01fc00
1850c0
39fce0
360360
08a880
0a0280
100040
142140
102040
147d40
102040
140140
100040
0a0280
08a880
060300
01fc00
000000
ENDCHAR
STARTCHAR streamline-interface-essential-watch-time--interface-essential.png
ENCODING 53
DWIDTH 21 0
BBX 21 21 0 0
BITMAP
03f800
020800
03f800
020800
03f800
0ffe00
100100
13f900
17fd00
16ed80
17fd80
16ed80
171d00
13f900
100100
0ffe00
03f800
020800
03f800
020800
03f800
ENDCHAR
