STARTFONT 2.1
FONT "streamline_interface_essential_help"
SIZE 16 75 75
FONTBOUNDINGBOX 16 16 0 0
STARTPROPERTIES 3
COPYRIGHT "streamlinehq.com"
FONT_ASCENT 0
FONT_DESCENT 0
ENDPROPERTIES
STARTCHAR streamline-interface-essential-heart-favorite--interface-essential.png
ENCODING 48
DWIDTH 21 0
BBX 21 21 0 0
BITMAP
000000
000000
1f07c0
208820
405190
802048
800028
800028
800008
800008
400010
400010
200020
1800c0
060300
018c00
005000
002000
000000
000000
000000
ENDCHAR
STARTCHAR streamline-interface-essential-light-bulb--interface-essential.png
ENCODING 49
DWIDTH 21 0
BBX 21 21 0 0
BITMAP
03fe00
040100
080080
100040
200020
200020
200020
210420
210420
208820
208820
205020
105040
085080
045100
03fe00
010400
01fc00
01fc00
010400
00f800
ENDCHAR
STARTCHAR streamline-interface-essential-question-help-square--interface-essential.png
ENCODING 50
DWIDTH 21 0
BBX 21 21 0 0
BITMAP
3fffe0
400010
900048
b8f8e8
91fc48
839e08
830e08
830e08
801e08
803c08
807808
807008
800008
807008
80f808
80f808
90f848
b870e8
900048
400010
3fffe0
ENDCHAR
