STARTFONT 2.1
FONT "streamline_technology"
SIZE 16 75 75
FONTBOUNDINGBOX 16 16 0 0
STARTPROPERTIES 3
COPYRIGHT "streamlinehq.com"
FONT_ASCENT 0
FONT_DESCENT 0
ENDPROPERTIES
STARTCHAR streamline-technology-drone-camera--technology.png
ENCODING 48
DWIDTH 21 0
BBX 21 21 0 0
BITMAP
000000
000000
080080
7f07f0
080080
08f880
090480
7e03f0
80f808
7ffff0
03fe00
01fc00
022200
042100
04f900
010400
012400
010400
00f800
000000
000000
ENDCHAR
STARTCHAR streamline-technology-drone-signal--technology.png
ENCODING 49
DWIDTH 21 0
BBX 21 21 0 0
BITMAP
000000
200020
f800f8
200020
70f870
89fc88
ff8ff8
7f77f0
1e8bc0
017400
035600
057500
048900
007000
000000
008800
027200
010400
00f800
000000
000000
ENDCHAR
STARTCHAR streamline-technology-robot-ai-signal-1--technology.png
ENCODING 50
DWIDTH 21 0
BBX 21 21 0 0
BITMAP
107040
22fa20
24f920
24f920
227220
102040
002000
07ff00
080080
100040
330660
548950
548950
532650
507050
500050
31fc60
10f840
107040
080080
07ff00
ENDCHAR
STARTCHAR streamline-technology-robot-ai-signal-2--technology.png
ENCODING 51
DWIDTH 21 0
BBX 21 21 0 0
BITMAP
092480
125240
092480
002000
03fe00
05fd00
08f880
080080
2a8aa0
3b8ee0
2904a0
080080
082080
087080
040100
03fe00
010400
1fffc0
200020
3dfde0
250520
ENDCHAR
STARTCHAR streamline-technology-robot-ai--technology.png
ENCODING 52
DWIDTH 21 0
BBX 21 21 0 0
BITMAP
007000
008800
007000
002000
002000
402010
43fe10
440110
480090
480090
500050
730670
f48978
f48978
f30678
f00078
707070
100040
0fff80
040100
03fe00
ENDCHAR
