STARTFONT 2.1
FONT "streamline_users"
SIZE 16 75 75
FONTBOUNDINGBOX 16 16 0 0
STARTPROPERTIES 3
COPYRIGHT "streamlinehq.com"
FONT_ASCENT 0
FONT_DESCENT 0
ENDPROPERTIES
STARTCHAR streamline-multiple-user--users.png
ENCODING 48
DWIDTH 21 0
BBX 21 21 0 0
BITMAP
000000
1e03c0
3f07e0
7f8ff0
618c30
408810
40f810
41fc10
43fe10
230620
1e03c0
628a30
828a08
020200
027200
010400
00f800
030600
040100
080080
000000
ENDCHAR
STARTCHAR streamline-search-user--users.png
ENCODING 49
DWIDTH 21 0
BBX 21 21 0 0
BITMAP
03e000
0c1800
100400
23e200
47f100
4ff900
8c1880
880880
8a2880
8a2880
880880
49c900
441100
23e380
1007c0
0c1f60
03e7b0
0003d0
0001f0
0000e0
000000
ENDCHAR
STARTCHAR streamline-single-user-shield--users.png
ENCODING 50
DWIDTH 21 0
BBX 21 21 0 0
BITMAP
01fc00
060300
1800c0
200020
21fc20
23fe20
27ff20
27ff20
27ff20
260320
240120
250520
250520
240120
127240
110440
08f880
040100
020200
018c00
007000
ENDCHAR
STARTCHAR streamline-user-gender-female-male--users.png
ENCODING 51
DWIDTH 21 0
BBX 21 21 0 0
BITMAP
0001e0
000060
0000a0
003920
00c600
070100
194100
222080
222080
421080
411100
411100
20a600
203800
18c000
070000
020000
020000
0f8000
020000
020000
ENDCHAR
STARTCHAR streamline-user-gender-female--users.png
ENCODING 52
DWIDTH 21 0
BBX 21 21 0 0
BITMAP
00f800
030600
040100
080080
080080
100040
100040
100040
100040
100040
080080
080080
040100
030600
00f800
002000
002000
002000
00f800
002000
002000
ENDCHAR
STARTCHAR streamline-user-gender-gay--users.png
ENCODING 53
DWIDTH 21 0
BBX 21 21 0 0
BITMAP
0001e0
000060
0000a0
003920
00c600
070100
194100
222080
222080
421080
411100
411100
20a600
203800
18c000
070000
020000
020000
0a8000
070000
020000
ENDCHAR
STARTCHAR streamline-user-gender-lesbian--users.png
ENCODING 54
DWIDTH 21 0
BBX 21 21 0 0
BITMAP
000020
000140
000080
003940
00c600
070100
194100
222080
222080
421080
411100
411100
20a600
203800
18c000
070000
020000
020000
0f8000
020000
020000
ENDCHAR
STARTCHAR streamline-user-gender-male--users.png
ENCODING 55
DWIDTH 21 0
BBX 21 21 0 0
BITMAP
000000
0001f0
000030
000050
000090
03e110
0c1a00
100400
200200
200200
400100
400100
400100
400100
400100
200200
200200
100400
0c1800
03e000
000000
ENDCHAR
STARTCHAR streamline-user-man-love--users.png
ENCODING 56
DWIDTH 21 0
BBX 21 21 0 0
BITMAP
0e0000
1f0440
3f8ee0
318fe0
2087c0
208380
110100
0e0000
110000
248000
444000
444000
514000
514000
5f4000
5f4000
3f8000
1f0000
1b0000
1b0000
1b0000
ENDCHAR
STARTCHAR streamline-user-single-aim--users.png
ENCODING 57
DWIDTH 21 0
BBX 21 21 0 0
BITMAP
002000
00f800
032600
0c0180
10f840
11fc40
23fe20
230620
420210
428a10
e28a38
420210
427210
210420
20f820
130640
140140
0c0180
032600
00f800
002000
ENDCHAR
STARTCHAR streamline-user-sleep--users.png
ENCODING 58
DWIDTH 21 0
BBX 21 21 0 0
BITMAP
0e00c0
110020
208040
208080
208c60
208200
110400
0e0800
110600
208000
404000
404000
514000
514000
514000
514000
358000
150000
150000
150000
1f0000
ENDCHAR
STARTCHAR streamline-user-woman-increasing-arrow--users.png
ENCODING 59
DWIDTH 21 0
BBX 21 21 0 0
BITMAP
1f0000
3f8070
3b8230
71c550
60c880
60d000
318000
0e1ff0
110000
248000
404000
444000
514000
514000
5f4000
5f4000
3f8000
1f0000
150000
150000
1f0000
ENDCHAR
