STARTFONT 2.1
FONT "streamline_transportation"
SIZE 16 75 75
FONTBOUNDINGBOX 16 16 0 0
STARTPROPERTIES 3
COPYRIGHT "streamlinehq.com"
FONT_ASCENT 0
FONT_DESCENT 0
ENDPROPERTIES
STARTCHAR streamline-transportation-bicycle--transportation.png
ENCODING 48
DWIDTH 21 0
BBX 21 21 0 0
BITMAP
000000
000000
000000
001c00
0c0300
0f0100
0f8100
020100
03ff00
3e03e0
450510
888908
908908
9ff888
808808
808808
410410
3e03e0
000000
000000
000000
ENDCHAR
STARTCHAR streamline-transportation-helicopter--transportation.png
ENCODING 49
DWIDTH 21 0
BBX 21 21 0 0
BITMAP
000000
000000
ffff00
010000
010000
038030
0fe048
181848
2407f8
740010
fce020
f910c0
f11300
811200
411400
3ff800
102000
502800
3ff000
000000
000000
ENDCHAR
STARTCHAR streamline-transportation-motorcycle--transportation.png
ENCODING 50
DWIDTH 21 0
BBX 21 21 0 0
BITMAP
000000
000000
0e0000
330000
4bc000
490000
3a0000
0a3fe0
127ff0
127ff0
222020
7a2790
864848
825328
f1f028
4ffff0
410820
220440
1c0380
000000
000000
ENDCHAR
STARTCHAR streamline-transportation-plane--transportation.png
ENCODING 51
DWIDTH 21 0
BBX 21 21 0 0
BITMAP
000000
000000
000600
001938
002148
004248
008488
1fff08
300008
495078
8807f0
f07fe0
83f180
7fc080
3fe040
001820
000610
000190
000060
000000
000000
ENDCHAR
STARTCHAR streamline-transportation-train--transportation.png
ENCODING 52
DWIDTH 21 0
BBX 21 21 0 0
BITMAP
1fffc0
200020
407010
400010
7ffff0
402010
402010
402010
402010
402010
7ffff0
400010
4c0190
527250
527250
4c0190
200020
1fffc0
060300
0c0180
1800c0
ENDCHAR
STARTCHAR streamline-transportation-truck--transportation.png
ENCODING 53
DWIDTH 21 0
BBX 21 21 0 0
BITMAP
000000
000000
000000
7fe000
801000
801f80
bfd240
801260
bfd2f0
8013f8
8011f8
fff008
801008
9c1388
a21448
6bfd70
220440
1c0380
000000
000000
000000
ENDCHAR
STARTCHAR streamline-transportation-vintage-train--transportation.png
ENCODING 54
DWIDTH 21 0
BBX 21 21 0 0
BITMAP
7ff000
800800
fff000
804000
804fc0
bf5020
a14fc0
a14480
a12480
a11fc0
bf0020
800010
800010
800010
8e0710
910890
a69650
67fe68
269640
110880
0e0700
ENDCHAR
