STARTFONT 2.1
FONT "streamline_interface_essential_calendar"
SIZE 16 75 75
FONTBOUNDINGBOX 16 16 0 0
STARTPROPERTIES 3
COPYRIGHT "streamlinehq.com"
FONT_ASCENT 0
FONT_DESCENT 0
ENDPROPERTIES
STARTCHAR streamline-interface-essential-calendar-appointment--interface-essential.png
ENCODING 48
DWIDTH 21 0
BBX 21 21 0 0
BITMAP
040200
040200
3fffc0
440220
800010
800010
fffff0
800010
800010
911110
800010
800010
801b10
913f90
803f90
801f10
800e10
910410
800010
800010
7fffe0
ENDCHAR
STARTCHAR streamline-interface-essential-calendar-date--interface-essential.png
ENCODING 49
DWIDTH 21 0
BBX 21 21 0 0
BITMAP
080100
080100
77fee0
f7fef0
fffff0
fffff0
800010
800010
800010
800010
811e10
871010
811010
811e10
810210
810210
87de10
800010
800010
800010
7fffe0
ENDCHAR
