STARTFONT 2.1
FONT "streamline_interface_essential_edit"
SIZE 16 75 75
FONTBOUNDINGBOX 16 16 0 0
STARTPROPERTIES 3
COPYRIGHT "streamlinehq.com"
FONT_ASCENT 0
FONT_DESCENT 0
ENDPROPERTIES
STARTCHAR streamline-interface-essential-bin--interface-essential.png
ENCODING 48
DWIDTH 21 0
BBX 21 21 0 0
BITMAP
01fc00
020200
020200
3fffe0
7ffff0
100040
100040
122240
122240
122240
122240
122240
122240
122240
122240
112440
092480
080080
080080
07ff00
000000
ENDCHAR
STARTCHAR streamline-interface-essential-edit-fill--interface-essential.png
ENCODING 49
DWIDTH 21 0
BBX 21 21 0 0
BITMAP
0000e0
3ff110
400288
800448
8008a8
801110
802220
804440
80a888
809108
80ca08
80e408
80f808
800008
800008
800008
800008
800008
800008
400010
3fffe0
ENDCHAR
STARTCHAR streamline-interface-essential-eraser--interface-essential.png
ENCODING 50
DWIDTH 21 0
BBX 21 21 0 0
BITMAP
003000
004800
008400
010200
020100
042080
088040
108820
204020
103040
280080
440100
820200
810400
408800
205000
10a000
0f0120
7fc400
f7f088
000000
ENDCHAR
STARTCHAR streamline-interface-essential-pencil-edit-1--interface-essential.png
ENCODING 51
DWIDTH 21 0
BBX 21 21 0 0
BITMAP
01fc00
020200
040100
040100
07ff00
048900
048900
048900
048900
048900
048900
048900
048900
048900
048900
07ff00
020200
010400
00f800
007000
002000
ENDCHAR
STARTCHAR streamline-interface-essential-pencil-edit-2--interface-essential.png
ENCODING 52
DWIDTH 21 0
BBX 21 21 0 0
BITMAP
000380
000440
000820
001410
002208
004508
008888
011150
022220
044440
088880
111100
222200
444400
f88800
891000
8e2000
824000
c28000
e30000
fe0000
ENDCHAR
