STARTFONT 2.1
FONT "streamline_email"
SIZE 16 75 75
FONTBOUNDINGBOX 16 16 0 0
STARTPROPERTIES 3
COPYRIGHT "streamlinehq.com"
FONT_ASCENT 0
FONT_DESCENT 0
ENDPROPERTIES
STARTCHAR streamline-chat-email--email.png
ENCODING 48
DWIDTH 21 0
BBX 21 21 0 0
BITMAP
01fff0
020008
02bbe8
020008
02ff68
020008
7ffce8
800208
8002e8
9ff208
97d308
9bb290
9c7250
9ff230
9ff200
800200
800200
7c3c00
024000
014000
00c000
ENDCHAR
STARTCHAR streamline-email-chat-think--email.png
ENCODING 49
DWIDTH 21 0
BBX 21 21 0 0
BITMAP
00fe00
030180
040040
040020
080020
080010
100010
111110
100010
100020
080020
040040
030180
18fe00
3c0000
3c0000
180000
400000
e00000
400000
000000
ENDCHAR
STARTCHAR streamline-email-emoji-smile-smart--email.png
ENCODING 50
DWIDTH 21 0
BBX 21 21 0 0
BITMAP
00f800
030600
0c0180
100040
200020
200020
400010
7ffff0
bfffe8
bfcfe8
9f87e8
8f03c8
800008
400010
408010
207820
200020
100040
0c0180
030600
00f800
ENDCHAR
STARTCHAR streamline-email-envelope-close--email.png
ENCODING 51
DWIDTH 21 0
BBX 21 21 0 0
BITMAP
000000
000000
3fffe0
400010
800008
a00028
a00028
900048
880088
840108
820208
818c08
827208
840108
880088
900048
800008
400010
3fffe0
000000
000000
ENDCHAR
STARTCHAR streamline-email-envelope--email.png
ENCODING 52
DWIDTH 21 0
BBX 21 21 0 0
BITMAP
000000
000000
000000
000000
7ffff0
955548
c00018
800188
c003d8
8003c8
c00198
9e0008
c00018
9f8008
c00018
955548
7ffff0
000000
000000
000000
000000
ENDCHAR
STARTCHAR streamline-email-envelope-open--email.png
ENCODING 53
DWIDTH 21 0
BBX 21 21 0 0
BITMAP
00f800
010400
020200
040100
080080
100040
200020
400010
800008
c00018
bfffe8
8fff88
83fe08
80f808
810408
820208
840108
880088
900048
600030
3fffe0
ENDCHAR
STARTCHAR streamline-email-forward-mail--email.png
ENCODING 54
DWIDTH 21 0
BBX 21 21 0 0
BITMAP
000600
000500
000480
007c40
008020
010010
020020
020040
021c80
022500
192640
3920e0
7c93f0
fe77f8
ff07f8
81fc08
80f808
820208
81fc08
800008
7ffff0
ENDCHAR
STARTCHAR streamline-email-mailbox-close--email.png
ENCODING 55
DWIDTH 21 0
BBX 21 21 0 0
BITMAP
000f00
000900
000f00
000800
1fff80
3f0840
678820
5f8820
5f8020
5f8020
5f8020
5f8020
7f8020
7f8020
3fffc0
008800
008800
008800
008800
008800
008800
ENDCHAR
STARTCHAR streamline-email-mailbox--email.png
ENCODING 56
DWIDTH 21 0
BBX 21 21 0 0
BITMAP
000000
0fff80
1c0040
360020
2e7fa0
5f3f10
5f0010
5f0010
5f1f10
5f3190
5f2a90
5f2490
5f2090
5f1f10
5f0010
7f0010
7ffff0
410210
410210
410210
000000
ENDCHAR
STARTCHAR streamline-email-mailbox-open--email.png
ENCODING 57
DWIDTH 21 0
BBX 21 21 0 0
BITMAP
0003c0
000240
0003c0
000200
07ffe0
0fc210
1fe208
1fe208
182008
1a2008
192008
18a008
186008
182008
3ffff0
406200
81a200
822200
7c2200
002200
002200
ENDCHAR
STARTCHAR streamline-email-mail-chat--email.png
ENCODING 58
DWIDTH 21 0
BBX 21 21 0 0
BITMAP
000000
000000
0ff000
300c00
400200
800100
800100
999900
9999c0
8001e0
4003f0
200ff0
13fff0
147ff0
183fe0
101fc0
0001c0
0000c0
000040
000000
000000
ENDCHAR
STARTCHAR streamline-email-mail-open-address--email.png
ENCODING 59
DWIDTH 21 0
BBX 21 21 0 0
BITMAP
00f800
01fc00
03fe00
0fff80
100040
10f840
310460
727270
f29278
f29278
b26c68
910048
88f888
840108
820208
81fc08
820208
840108
800008
400010
3fffe0
ENDCHAR
STARTCHAR streamline-email-stamp-mail--email.png
ENCODING 60
DWIDTH 21 0
BBX 21 21 0 0
BITMAP
000000
000000
f39cf0
8c6310
800010
9fff90
5ff3a0
5fe1a0
9fe190
9ff390
9cff90
587ca0
5038a0
901090
9fff90
800010
8c6310
f39cf0
000000
000000
000000
ENDCHAR
STARTCHAR streamline-email-tray--email.png
ENCODING 61
DWIDTH 21 0
BBX 21 21 0 0
BITMAP
1fff00
200080
300180
280280
27fc80
204080
204080
204080
204080
20ffc0
218060
2140a0
612130
e11e38
fd01f8
830208
fdfdf8
fe03f8
fffff8
fffff8
7ffff0
ENDCHAR
STARTCHAR streamline-notification-email--email.png
ENCODING 62
DWIDTH 21 0
BBX 21 21 0 0
BITMAP
0000e0
0001b0
0003b8
07fbb8
0803f8
0801b0
1ffce0
200000
200080
7fffc0
800020
8007a0
8004a0
8004a0
8007a0
bc0020
800020
800020
bf8020
800020
7fffc0
ENDCHAR
STARTCHAR streamline-send-email--email.png
ENCODING 63
DWIDTH 21 0
BBX 21 21 0 0
BITMAP
000000
7fff80
800040
800000
800ff8
971808
801418
8ba228
8021d0
972010
804020
807fe0
800000
ffffc0
ffffc0
ffffc0
7fff80
021000
040800
07f800
000000
ENDCHAR
