STARTFONT 2.1
FONT "streamline_health_beauty"
SIZE 16 75 75
FONTBOUNDINGBOX 16 16 0 0
STARTPROPERTIES 3
COPYRIGHT "streamlinehq.com"
FONT_ASCENT 0
FONT_DESCENT 0
ENDPROPERTIES
STARTCHAR streamline-beauty-barber-light-sign--health-beauty.png
ENCODING 48
DWIDTH 21 0
BBX 21 21 0 0
BITMAP
c1f000
220820
27fc70
280220
27fc00
233800
3e6810
22c900
239a80
233900
226800
22c810
239a00
233800
3e6820
22c850
27fc00
280200
27fc40
2208e0
c1f040
ENDCHAR
STARTCHAR streamline-beauty-beard-style--health-beauty.png
ENCODING 49
DWIDTH 21 0
BBX 21 21 0 0
BITMAP
7f8ff0
805008
887108
925248
845088
488910
210420
1e73c0
000000
23fe20
27df20
360360
3e09e0
3c31e0
3c01e0
1e73c0
1fffc0
0fff80
0fff80
07ff00
01fc00
ENDCHAR
STARTCHAR streamline-beauty-body-care-snail--health-beauty.png
ENCODING 50
DWIDTH 21 0
BBX 21 21 0 0
BITMAP
004000
00a020
004400
2000c0
720120
207e20
0080a8
013f20
090040
03ffe0
a40010
a40010
700ff0
89e7f0
aa13f0
44cbf0
252bf0
24a8f0
25ce10
121220
0ffcc0
ENDCHAR
STARTCHAR streamline-beauty-body-care-sun-screen--health-beauty.png
ENCODING 51
DWIDTH 21 0
BBX 21 21 0 0
BITMAP
0fff80
092480
0fff80
080080
0fff80
07df00
06fb00
078f00
070700
050500
030600
038e00
02fa00
03de00
03fe00
020200
01fc00
010400
017400
018c00
01fc00
ENDCHAR
STARTCHAR streamline-beauty-cosmatic-brush-set--health-beauty.png
ENCODING 52
DWIDTH 21 0
BBX 21 21 0 0
BITMAP
3f0000
408000
804000
a14800
9e5c00
804800
549c40
4488a0
211d10
120910
1e0910
1e08e0
1a1ce0
1a1ce0
1a1ce0
1a1ce0
1a1ce0
1a1ce0
1e1ce0
1a14a0
1e1ce0
ENDCHAR
STARTCHAR streamline-beauty-cosmatic-lip-stick--health-beauty.png
ENCODING 53
DWIDTH 21 0
BBX 21 21 0 0
BITMAP
3f0000
7f8000
798000
7e8180
7e8240
7e8440
7f8840
7f8940
7f8940
7f8840
7f8840
7f8fc0
408840
408840
7f8fc0
409020
7f9fe0
7f9fe0
7f9fe0
7f9fe0
7f9fe0
ENDCHAR
STARTCHAR streamline-beauty-healthy-food-dish--health-beauty.png
ENCODING 54
DWIDTH 21 0
BBX 21 21 0 0
BITMAP
aa00e0
aa0110
aa0248
aa0228
aa0228
aa0208
82fa08
440110
2800a0
2870a0
2870a0
2870a0
2bfea0
2bfea0
2bfea0
2870a0
2870a0
2870a0
2800a0
2b06a0
10f840
ENDCHAR
STARTCHAR streamline-beauty-mirror-1--health-beauty.png
ENCODING 55
DWIDTH 21 0
BBX 21 21 0 0
BITMAP
01fc00
020200
04f900
090480
0a4280
1a92c0
1a22c0
3a42e0
2a02a0
2904a0
24f920
120240
09fc80
040100
03fe00
005000
005000
03de00
07ff00
060300
03fe00
ENDCHAR
STARTCHAR streamline-beauty-mirror-2--health-beauty.png
ENCODING 56
DWIDTH 21 0
BBX 21 21 0 0
BITMAP
01f800
03fc00
060600
0c8300
190180
1a0180
180180
189180
180180
189180
186180
180180
0c0300
070e00
01f800
00f000
00f000
00d000
00d000
00f000
006000
ENDCHAR
STARTCHAR streamline-beauty-nail-polish--health-beauty.png
ENCODING 57
DWIDTH 21 0
BBX 21 21 0 0
BITMAP
030000
048000
0840e0
0840a0
0840a0
0840a0
0840a0
0fc0a0
1020e0
601840
8fc440
bbf440
b3f440
b3f440
b3f440
9be440
4dc840
4fc8e0
2790e0
2010e0
1fe070
ENDCHAR
STARTCHAR streamline-beauty-perfume-1--health-beauty.png
ENCODING 58
DWIDTH 21 0
BBX 21 21 0 0
BITMAP
0383c0
578420
010ff0
03f810
044ff0
07c420
0fe3c0
1ff000
27c800
428400
444400
882200
882200
882200
882200
882200
882200
444400
444400
329800
0fe000
ENDCHAR
STARTCHAR streamline-beauty-perfume-2--health-beauty.png
ENCODING 59
DWIDTH 21 0
BBX 21 21 0 0
BITMAP
03f040
040910
040c40
07f910
012040
03f000
021000
3fff00
400080
800c40
800240
800140
83e140
8ff840
bfff40
bfff40
bfff40
bfff40
9ffe40
400080
3fff00
ENDCHAR
STARTCHAR streamline-health-ambulance-call--health-beauty.png
ENCODING 60
DWIDTH 21 0
BBX 21 21 0 0
BITMAP
078000
084000
112000
11a000
21a000
2021c0
20c1c0
2107f0
2107f0
2107f0
2101c0
2101c0
210000
20c000
202000
21a000
11a000
112400
084a00
07c640
003980
ENDCHAR
STARTCHAR streamline-health-ambulance-car--health-beauty.png
ENCODING 61
DWIDTH 21 0
BBX 21 21 0 0
BITMAP
002480
001500
000000
006ec0
000e00
01fff0
024008
04c188
05c188
0fc7e8
0fc7e8
0f8188
300188
400008
9fffe8
800008
8e01c8
910228
75feb0
110220
0e01c0
ENDCHAR
STARTCHAR streamline-health-anti-virus--health-beauty.png
ENCODING 62
DWIDTH 21 0
BBX 21 21 0 0
BITMAP
00f800
03fe00
0f0780
1c01c0
3c70e0
3e2260
677330
638c30
c1c418
cae298
ce7398
ca3a98
c11c18
618e30
667730
3223e0
3871e0
1c01c0
0f0780
03fe00
00f800
ENDCHAR
STARTCHAR streamline-health-bandage--health-beauty.png
ENCODING 63
DWIDTH 21 0
BBX 21 21 0 0
BITMAP
1c01c0
220220
490410
808908
aa5008
806548
48f010
21f920
13ac40
0f0680
070700
0b8f80
11de40
24fc20
407890
953008
8052a8
848808
410490
220220
1c01c0
ENDCHAR
STARTCHAR streamline-health-blood-drop-type--health-beauty.png
ENCODING 64
DWIDTH 21 0
BBX 21 21 0 0
BITMAP
000600
000900
001080
002040
004020
064620
0f0910
1f8f10
3bc910
77e910
6fe010
eff020
fff020
fff0c0
fff700
fff000
7fe000
7fe000
3fc000
0f0000
000000
ENDCHAR
STARTCHAR streamline-health-brain-1--health-beauty.png
ENCODING 65
DWIDTH 21 0
BBX 21 21 0 0
BITMAP
000000
007f00
0182c0
061420
096410
108148
2083e8
4241c8
e42088
984008
8002c8
861130
586450
208190
1ffe20
000940
000640
000140
000140
000140
000000
ENDCHAR
STARTCHAR streamline-health-brain-2--health-beauty.png
ENCODING 66
DWIDTH 21 0
BBX 21 21 0 0
BITMAP
0f8f80
305260
422210
412490
b0e008
882098
842128
c43e28
a0a448
986408
802338
e22088
80ba08
94a428
be6428
9c2018
882188
402210
20d820
1f07c0
000000
ENDCHAR
STARTCHAR streamline-health-dentistry-tooth--health-beauty.png
ENCODING 67
DWIDTH 21 0
BBX 21 21 0 0
BITMAP
000000
1f8fc0
207020
400010
400310
400090
400050
408850
400050
408810
407010
200020
200020
20f820
210420
220220
120240
120240
0c0180
000000
000000
ENDCHAR
STARTCHAR streamline-health-drug-medicine-bag-aid-1--health-beauty.png
ENCODING 68
DWIDTH 21 0
BBX 21 21 0 0
BITMAP
01f800
0fff00
13fc80
100080
3fffc0
400020
80f010
830c10
840210
846210
886110
89f910
89f910
886110
846210
840210
830c10
80f010
400020
3fffc0
000000
ENDCHAR
STARTCHAR streamline-health-drug-medicine-bag-aid-2--health-beauty.png
ENCODING 69
DWIDTH 21 0
BBX 21 21 0 0
BITMAP
03fe00
040100
3fffe0
400010
807008
807008
81fc08
81fc08
81fc08
807008
9f77c8
8a0288
8e0388
400010
7ffff0
4e0390
4e0390
4e0390
4e0390
3fffe0
000000
ENDCHAR
STARTCHAR streamline-health-drug-medicine--health-beauty.png
ENCODING 70
DWIDTH 21 0
BBX 21 21 0 0
BITMAP
000f80
001040
002020
004010
008010
010010
020010
070010
0f8020
1fc040
3fe080
7ff100
fffa00
fffc00
ffb800
ff7000
fee000
79c000
3f8000
1f0000
000000
ENDCHAR
STARTCHAR streamline-health-drug-medicine-water--health-beauty.png
ENCODING 71
DWIDTH 21 0
BBX 21 21 0 0
BITMAP
01fc00
020200
07ff00
080080
07ff00
020200
040100
080080
100040
1f8340
104740
175f40
105f40
175f40
105f40
1f9f40
103f40
13fe40
080080
07ff00
000000
ENDCHAR
STARTCHAR streamline-health-drugs-cannabis--health-beauty.png
ENCODING 72
DWIDTH 21 0
BBX 21 21 0 0
BITMAP
002000
005000
005000
008800
308860
2888a0
250520
130640
110440
108840
080080
7800f0
865308
412010
305060
0f0780
022200
047100
08a880
072700
002000
ENDCHAR
STARTCHAR streamline-health-drugs-pill--health-beauty.png
ENCODING 73
DWIDTH 21 0
BBX 21 21 0 0
BITMAP
3ff800
6aac00
6aac00
6aac00
3ff800
101000
100000
200f00
4030c0
807820
f89c10
848e10
e58708
858388
e5c1c8
95c0e8
84e070
f8f030
807c20
403fc0
3f8f00
ENDCHAR
STARTCHAR streamline-health-health-dead--health-beauty.png
ENCODING 74
DWIDTH 21 0
BBX 21 21 0 0
BITMAP
000000
03fe00
040100
040100
63fe30
9800c8
840108
478f10
afdfa8
9fffc8
5f8fd0
9f8fc8
9e03c8
4e0390
3e03e0
078f00
038e00
01fc00
00f800
007000
000000
ENDCHAR
STARTCHAR streamline-health-hospital-building-1--health-beauty.png
ENCODING 75
DWIDTH 21 0
BBX 21 21 0 0
BITMAP
01fc00
01fc00
01dc00
0f8f80
09dc80
09fc80
09fc80
f800f8
8b7688
a800a8
8b7688
a800a8
89fc88
a924a8
892488
a924a8
892488
892488
fffff8
820208
000000
ENDCHAR
STARTCHAR streamline-health-hospital-building-2--health-beauty.png
ENCODING 76
DWIDTH 21 0
BBX 21 21 0 0
BITMAP
fffe00
800200
fffe00
4004e0
5d75f0
5557b8
5d7718
4007b8
5d75f0
5554e0
5d7400
4007f8
5ff408
5015e8
5ff528
492528
4925e8
492528
492528
4fe5e8
5ff408
ENDCHAR
STARTCHAR streamline-health-injection--health-beauty.png
ENCODING 77
DWIDTH 21 0
BBX 21 21 0 0
BITMAP
060000
0e0000
1c4000
3ca000
7f2000
665000
04c800
09b400
13f200
0ded00
02fc80
017b40
00be40
005c80
002940
001280
000d40
000020
000000
000010
000010
ENDCHAR
STARTCHAR streamline-health-laboratory--health-beauty.png
ENCODING 78
DWIDTH 21 0
BBX 21 21 0 0
BITMAP
078000
078000
0fc000
102000
11f800
120600
120100
11f080
102880
102440
084440
078440
0784e0
0005b0
000510
1fe5b0
0484e0
3ff840
400080
400080
3fff00
ENDCHAR
STARTCHAR streamline-health-laboratory-test-blood-sugar--health-beauty.png
ENCODING 79
DWIDTH 21 0
BBX 21 21 0 0
BITMAP
004180
40e240
a04420
400810
041308
002388
004390
049020
413848
027c80
04b900
093220
122450
114820
209100
202000
304000
498400
8e0e20
900400
600000
ENDCHAR
STARTCHAR streamline-health-laboratory-test-stool-cup--health-beauty.png
ENCODING 80
DWIDTH 21 0
BBX 21 21 0 0
BITMAP
3fffe0
492490
492490
492490
3fffe0
200020
200220
228020
210020
204020
28e2a0
20f120
217c20
239e20
23fe20
27ff20
2c01a0
2fffa0
27ff20
200020
1fffc0
ENDCHAR
STARTCHAR streamline-health-medical-notes--health-beauty.png
ENCODING 81
DWIDTH 21 0
BBX 21 21 0 0
BITMAP
007000
018c00
1f07c0
31fc60
300060
330060
378060
379e60
330060
300060
32fe60
300060
300060
32fe60
300060
300060
32fe60
300060
3fffe0
1fffc0
000000
ENDCHAR
STARTCHAR streamline-health-monitor-heart-beat--health-beauty.png
ENCODING 82
DWIDTH 21 0
BBX 21 21 0 0
BITMAP
000000
000000
0f1e00
30a180
404040
800020
800020
810020
828820
829400
9c93f0
405000
205080
102100
080200
040400
020800
011000
00e000
000000
000000
ENDCHAR
STARTCHAR streamline-health-stool--health-beauty.png
ENCODING 83
DWIDTH 21 0
BBX 21 21 0 0
BITMAP
0a4000
04a000
0090a0
508840
210400
030400
0c0300
100000
270380
288440
2a4520
4944a0
864320
908440
8f0390
404010
803810
800010
400020
3fffc0
000000
ENDCHAR
STARTCHAR streamline-health-transfusion-bag--health-beauty.png
ENCODING 84
DWIDTH 21 0
BBX 21 21 0 0
BITMAP
002000
002000
072700
027200
028a00
070700
080080
100040
200020
200020
2fffa0
2fffa0
2c01a0
2dfda0
2c01a0
2dfda0
2c01a0
27ff20
23fe20
100040
0fff80
ENDCHAR
STARTCHAR streamline-health-virus--health-beauty.png
ENCODING 85
DWIDTH 21 0
BBX 21 21 0 0
BITMAP
000020
008470
2000d8
700070
d87020
712400
227200
05fd00
01ec10
4b7e80
0ff780
0bfe80
01bc10
45fd00
027200
012420
107070
3800d8
6c0070
388420
100000
ENDCHAR
