STARTFONT 2.1
FONT "streamline_design"
SIZE 16 75 75
FONTBOUNDINGBOX 16 16 0 0
STARTPROPERTIES 3
COPYRIGHT "streamlinehq.com"
FONT_ASCENT 0
FONT_DESCENT 0
ENDPROPERTIES
STARTCHAR streamline-design-artboard-shapes--design.png
ENCODING 48
DWIDTH 21 0
BBX 21 21 0 0
BITMAP
200020
200020
c00018
1fffc0
100040
11e040
13f040
17f840
170040
177f40
174140
134140
114140
104140
104140
107f40
100040
1fffc0
c00018
200020
200020
ENDCHAR
STARTCHAR streamline-design-color-brush-paint--design.png
ENCODING 49
DWIDTH 21 0
BBX 21 21 0 0
BITMAP
000030
000048
000048
000088
000090
000110
000120
7f8220
004240
008440
070480
180880
200900
203900
1c4600
028100
04a100
38f500
41fe00
83fc00
7ff000
ENDCHAR
STARTCHAR streamline-design-color-bucket-brush--design.png
ENCODING 50
DWIDTH 21 0
BBX 21 21 0 0
BITMAP
1fe000
601800
8fc400
bff780
9fe840
cfcb40
a01b40
9fe480
804480
818480
c60480
b80840
803030
804008
407ff8
206d58
1f6d58
006fd8
00fff8
00fff0
000000
ENDCHAR
STARTCHAR streamline-design-color-bucket--design.png
ENCODING 51
DWIDTH 21 0
BBX 21 21 0 0
BITMAP
07ff00
080080
13fe40
240120
29fca0
2fffa0
2fffa0
27ffa0
33ffe0
280fa0
27ffa0
200720
200620
240620
250020
254020
254020
210020
100040
080080
07ff00
ENDCHAR
STARTCHAR streamline-design-color-painting-palette--design.png
ENCODING 52
DWIDTH 21 0
BBX 21 21 0 0
BITMAP
00fe00
030180
0c0c40
101e20
230c20
278010
478710
430890
801090
982090
bc40a0
bc4120
984240
803c80
818100
43c200
43c400
318800
081000
07e000
000000
ENDCHAR
STARTCHAR streamline-design-color-palette-sample--design.png
ENCODING 53
DWIDTH 21 0
BBX 21 21 0 0
BITMAP
7f8000
804000
bf4200
a14500
a14a80
a15740
bf6fa0
805fd0
be8fa0
a14740
82e280
bfffe0
a00010
c1f7d0
991450
a51450
a51450
991450
41f7d0
200010
1fffe0
ENDCHAR
STARTCHAR streamline-design-color-spray--design.png
ENCODING 54
DWIDTH 21 0
BBX 21 21 0 0
BITMAP
000020
000080
000220
030880
048220
04e880
048220
0fc880
102220
201080
400820
7ff800
400800
400800
41f800
421800
423800
427800
42f800
41f800
400800
ENDCHAR
STARTCHAR streamline-design-color-tube-pastel--design.png
ENCODING 55
DWIDTH 21 0
BBX 21 21 0 0
BITMAP
000000
0c0300
120480
120480
210840
7f9fe0
409020
409020
7f9fe0
7f9fe0
6d9b60
7f9fe0
6d9ce0
739b60
7f9fe0
7f9fe0
7f9fe0
409020
409020
3f0fc0
000000
ENDCHAR
STARTCHAR streamline-design-crop-edit-picture--design.png
ENCODING 56
DWIDTH 21 0
BBX 21 21 0 0
BITMAP
380000
280000
efffe0
800020
efffa0
2800a0
2980a0
2bc0a0
2bc0a0
2980a0
2807a0
2808a0
29d0a0
2a20a0
2c10a0
2808a0
2fffb8
200008
3fffb8
0000a0
0000e0
ENDCHAR
STARTCHAR streamline-design-drawing-board--design.png
ENCODING 57
DWIDTH 21 0
BBX 21 21 0 0
BITMAP
002000
1fffc0
1001c0
1491c0
12a1c0
27e380
281380
2a4b80
280b80
249380
4417c0
43e740
400740
400720
7fff20
140aa0
17faa0
140a90
2ff450
281450
381c70
ENDCHAR
STARTCHAR streamline-design-dropper-1--design.png
ENCODING 58
DWIDTH 21 0
BBX 21 21 0 0
BITMAP
000060
0006f0
000ff0
000fe0
0007c0
000be0
0011e0
0022c0
004400
00f800
01f000
03e000
03c000
038000
000000
040000
040000
000000
040000
1f0000
7fc000
ENDCHAR
STARTCHAR streamline-design-dropper-2--design.png
ENCODING 59
DWIDTH 21 0
BBX 21 21 0 0
BITMAP
0001c0
0003e0
0077f0
008fd8
0087e8
0083d8
0041b0
00a0e0
011040
020820
048420
090220
1205c0
240800
281000
282000
204000
408000
8f0000
500000
200000
ENDCHAR
STARTCHAR streamline-design-half-circle-ruler--design.png
ENCODING 60
DWIDTH 21 0
BBX 21 21 0 0
BITMAP
000000
000000
000000
000000
01fc00
062300
092480
100040
28f8a0
210420
420210
420210
e7ff38
800008
800008
a22228
7ffff0
000000
000000
000000
000000
ENDCHAR
STARTCHAR streamline-design-hilight--design.png
ENCODING 61
DWIDTH 21 0
BBX 21 21 0 0
BITMAP
000000
000000
0003e0
000430
000818
001108
002388
0047c8
008f88
011f10
013e20
029c40
024880
042100
021200
050c00
08b000
0f4000
f00000
000000
000000
ENDCHAR
STARTCHAR streamline-design-ink-pen--design.png
ENCODING 62
DWIDTH 21 0
BBX 21 21 0 0
BITMAP
000030
000048
000088
000310
000420
000840
001040
002080
004100
008200
010400
038800
1fd000
61e000
4ec000
4a8000
4e8000
508000
a10000
df0000
e00000
ENDCHAR
STARTCHAR streamline-design-layer--design.png
ENCODING 63
DWIDTH 21 0
BBX 21 21 0 0
BITMAP
006000
019800
060600
180180
600060
800010
600060
180180
e60670
7999e0
1e6780
e79e70
79f9e0
1e6780
e79e70
79f9e0
1e6780
079e00
01f800
006000
000000
ENDCHAR
STARTCHAR streamline-design-magic-wand--design.png
ENCODING 64
DWIDTH 21 0
BBX 21 21 0 0
BITMAP
000000
000400
008420
004440
002080
000000
000c00
001e70
003e00
005c00
008880
011040
022020
044000
088000
110000
220000
440000
480000
300000
000000
ENDCHAR
STARTCHAR streamline-design-pencil--design.png
ENCODING 65
DWIDTH 21 0
BBX 21 21 0 0
BITMAP
00e000
011000
03f800
020800
03f800
03fc00
03fa00
03fa00
020a00
020a00
020a00
020a00
020800
020800
020800
020800
01f000
011000
00a000
004000
004000
ENDCHAR
STARTCHAR streamline-design-ruler--design.png
ENCODING 66
DWIDTH 21 0
BBX 21 21 0 0
BITMAP
0ffff0
129248
221048
420008
820008
820008
fffff0
820000
c20000
820000
820000
e20000
820000
820000
c20000
820000
820000
e20000
820000
820000
7c0000
ENDCHAR
STARTCHAR streamline-design-stamp--design.png
ENCODING 67
DWIDTH 21 0
BBX 21 21 0 0
BITMAP
078000
084000
084000
084000
084000
084000
084000
3ff000
400800
bff400
c00c00
9fe400
b7b400
bff7e0
b7b410
b87448
9fe408
400848
3ff788
004010
003fe0
ENDCHAR
STARTCHAR streamline-design-vectors-pen-new-anchor--design.png
ENCODING 68
DWIDTH 21 0
BBX 21 21 0 0
BITMAP
002000
007000
00f800
007000
00a800
010400
020200
142140
3850e0
7c51f0
38a8e0
10a840
012400
027200
02fa00
027200
022200
010400
00f800
00f800
01fc00
ENDCHAR
STARTCHAR streamline-ui-design-website--design.png
ENCODING 69
DWIDTH 21 0
BBX 21 21 0 0
BITMAP
000000
7ffff0
800008
aa0008
800008
fffff8
800008
9ffe08
900208
900208
900208
910708
9b8888
87d048
8fd048
9fd048
800888
800708
800008
7ffff0
000000
ENDCHAR
