STARTFONT 2.1
FONT "streamline_interface_essential_audio"
SIZE 16 75 75
FONTBOUNDINGBOX 16 16 0 0
STARTPROPERTIES 3
COPYRIGHT "streamlinehq.com"
FONT_ASCENT 0
FONT_DESCENT 0
ENDPROPERTIES
STARTCHAR streamline-interface-essential-call-center-contact-help--interface-essential.png
ENCODING 48
DWIDTH 21 0
BBX 21 21 0 0
BITMAP
01fc00
020200
040100
080080
080080
080080
080080
080080
3800e0
6800b0
e800b8
e800b8
e800b8
e800b8
7800f0
300060
000040
001c40
002380
001c00
000000
ENDCHAR
STARTCHAR streamline-interface-essential-microphone--interface-essential.png
ENCODING 49
DWIDTH 21 0
BBX 21 21 0 0
BITMAP
01fc00
020200
040100
052500
040100
048900
140140
1d25c0
140140
148940
140140
17ff40
17ff40
13fe40
09fc80
045100
03de00
005000
07ff00
080080
1fffc0
ENDCHAR
STARTCHAR streamline-interface-essential-note-music--interface-essential.png
ENCODING 50
DWIDTH 21 0
BBX 21 21 0 0
BITMAP
0000e0
000720
003820
01c020
0e00e0
080720
083820
09c020
0e0020
080020
080020
080020
080020
0800e0
0801e0
0801e0
3800c0
780000
780000
300000
000000
ENDCHAR
STARTCHAR streamline-interface-essential-sound--interface-essential.png
ENCODING 51
DWIDTH 21 0
BBX 21 21 0 0
BITMAP
000000
003800
004400
008200
010220
021210
042208
782248
d82228
b822a8
b822a8
f82228
782248
042208
021210
010220
008200
004400
003800
000000
000000
ENDCHAR
STARTCHAR streamline-interface-essential-speaker-announce--interface-essential.png
ENCODING 52
DWIDTH 21 0
BBX 21 21 0 0
BITMAP
0001c0
000620
001810
00e008
1f0048
7c0088
dc0108
bc0108
bc0108
fc0108
fc0108
fc0108
7c0088
1f0048
12e008
121810
120620
1201c0
120000
0c0000
000000
ENDCHAR
STARTCHAR streamline-interface-essential-voice-id--interface-essential.png
ENCODING 53
DWIDTH 21 0
BBX 21 21 0 0
BITMAP
700070
800008
800008
800008
000000
002000
026100
067180
4ef9a0
6efbb0
fffff8
6efbb0
46f1a0
067180
026100
002000
000000
800008
800008
800008
700070
ENDCHAR
