STARTFONT 2.1
FONT "streamline_interface_essential_setting"
SIZE 16 75 75
FONTBOUNDINGBOX 16 16 0 0
STARTPROPERTIES 3
COPYRIGHT "streamlinehq.com"
FONT_ASCENT 0
FONT_DESCENT 0
ENDPROPERTIES
STARTCHAR streamline-interface-essential-hammer-1--interface-essential.png
ENCODING 48
DWIDTH 21 0
BBX 21 21 0 0
BITMAP
004000
00a600
011900
008080
004040
002020
001050
003888
005d10
00ba20
017140
03e080
07c000
0f8000
1f0000
3e0000
7c0000
f80000
f00000
600000
000000
ENDCHAR
STARTCHAR streamline-interface-essential-hammer-2--interface-essential.png
ENCODING 49
DWIDTH 21 0
BBX 21 21 0 0
BITMAP
007000
018800
020400
040200
058100
024080
002060
002090
004510
00ea20
017240
02e180
05c000
0f8000
1f0000
3e0000
7c0000
f80000
f00000
600000
000000
ENDCHAR
STARTCHAR streamline-interface-essential-setting-cog--interface-essential.png
ENCODING 50
DWIDTH 21 0
BBX 21 21 0 0
BITMAP
00f000
009000
0b0d00
140280
20f040
130c80
240240
240240
c86130
88f110
88f110
c86130
240240
240240
130c80
20f040
140280
0b0d00
009000
00f000
000000
ENDCHAR
STARTCHAR streamline-interface-essential-setting-slide--interface-essential.png
ENCODING 51
DWIDTH 21 0
BBX 21 21 0 0
BITMAP
000100
000280
000280
7ffef0
000280
000280
000100
080000
1c0000
1c0000
7ffff0
1c0000
1c0000
080000
000100
000280
000280
7ffef0
000280
000280
000100
ENDCHAR
STARTCHAR streamline-interface-essential-settings-toggle-horizontal--interface-essential.png
ENCODING 52
DWIDTH 21 0
BBX 21 21 0 0
BITMAP
3fffe0
63fff0
c5fff8
82fff8
82fff8
80fff8
c1fff8
63fff0
3fffe0
000000
000000
3fffe0
400410
800848
800828
800828
800808
800808
400410
3fffe0
000000
ENDCHAR
STARTCHAR streamline-interface-essential-wench-1--interface-essential.png
ENCODING 53
DWIDTH 21 0
BBX 21 21 0 0
BITMAP
1f0000
118000
08c000
e4c000
b4c000
9cc000
806000
413000
3c9800
024c00
012600
009300
0049e0
002410
001008
0009c8
0009a8
000998
0008c0
000440
0003c0
ENDCHAR
STARTCHAR streamline-interface-essential-wench-2--interface-essential.png
ENCODING 54
DWIDTH 21 0
BBX 21 21 0 0
BITMAP
1f03c0
118440
08c880
c4c918
a4c928
9cc9c8
807008
413010
3c99e0
024e00
012600
029300
3c49e0
402410
805008
9c89c8
a489a8
c48998
0888c0
110460
1e03e0
ENDCHAR
