STARTFONT 2.1
FONT "streamline_hand_signs"
SIZE 16 75 75
FONTBOUNDINGBOX 16 16 0 0
STARTPROPERTIES 3
COPYRIGHT "streamlinehq.com"
FONT_ASCENT 0
FONT_DESCENT 0
ENDPROPERTIES
STARTCHAR streamline-cursor-hand--hand-signs.png
ENCODING 48
DWIDTH 21 0
BBX 21 21 0 0
BITMAP
030000
048000
048000
048000
048000
048000
04fc00
040300
0c0080
149240
249240
249240
240040
200040
100040
100040
080080
040080
0fffc0
0ffcc0
0fffc0
ENDCHAR
STARTCHAR streamline-hand-awesome--hand-signs.png
ENCODING 49
DWIDTH 21 0
BBX 21 21 0 0
BITMAP
003000
004800
004400
004400
004400
008400
3d0800
3e17c0
342820
340820
3c0fe0
3c1020
3c1020
3c0fe0
3c1020
3c1020
3c0fc0
3c0840
3f0480
3cff00
000000
ENDCHAR
STARTCHAR streamline-hand-cross-finger-heart--hand-signs.png
ENCODING 50
DWIDTH 21 0
BBX 21 21 0 0
BITMAP
036000
07f000
07f000
03e000
01c000
008000
000c00
0e1200
112200
114200
108400
090800
0a1000
0c2000
085800
108600
200900
201080
202140
200240
200440
ENDCHAR
STARTCHAR streamline-hand-dislike--hand-signs.png
ENCODING 51
DWIDTH 21 0
BBX 21 21 0 0
BITMAP
0ff800
1004f0
2003f0
3e00f0
4000f0
4000f0
7c00f0
4000f0
4000f0
7c00f0
4000f0
2000f0
1f80f0
0041f0
0086f0
010800
011000
011000
011000
009000
006000
ENDCHAR
STARTCHAR streamline-hand-fight-2-finger--hand-signs.png
ENCODING 52
DWIDTH 21 0
BBX 21 21 0 0
BITMAP
1c0e00
221100
221100
221100
112200
112200
08c400
084600
0709c0
08c920
102920
101920
1116e0
10e020
080020
080020
040040
020040
07ffe0
07fe60
07ffe0
ENDCHAR
STARTCHAR streamline-hand-fiist--hand-signs.png
ENCODING 53
DWIDTH 21 0
BBX 21 21 0 0
BITMAP
000000
000000
000000
03fc00
049300
0e9280
119240
207240
203240
222dc0
21c040
100040
100040
080080
040080
0fffc0
0ffcc0
0fffc0
000000
000000
000000
ENDCHAR
STARTCHAR streamline-hand-four--hand-signs.png
ENCODING 54
DWIDTH 21 0
BBX 21 21 0 0
BITMAP
006000
039000
049c00
049200
049380
049240
049240
049240
0e9240
119240
204040
202040
222040
21c080
100080
100080
080100
040100
0fff80
0ff980
0fff80
ENDCHAR
STARTCHAR streamline-hand-fuck-middle-finger--hand-signs.png
ENCODING 55
DWIDTH 21 0
BBX 21 21 0 0
BITMAP
006000
009000
009000
009000
009000
009000
039c00
049300
0e9280
119240
207240
203240
222dc0
21c040
100040
100040
080080
040080
0fffc0
0ffcc0
0fffc0
ENDCHAR
STARTCHAR streamline-hand-gesture-finger-click--hand-signs.png
ENCODING 56
DWIDTH 21 0
BBX 21 21 0 0
BITMAP
008000
008000
108400
080800
041000
000000
018000
024000
024000
024000
024000
027c00
0e0200
124900
124880
104880
100080
080080
040080
020100
020200
ENDCHAR
STARTCHAR streamline-hand--hand-signs.png
ENCODING 57
DWIDTH 21 0
BBX 21 21 0 0
BITMAP
003000
01c800
024e00
024900
0249c0
024920
024920
324920
4a4920
460020
41c020
202020
101020
081040
040040
040040
020080
020080
07ffc0
07fcc0
07ffc0
ENDCHAR
STARTCHAR streamline-hand-like--hand-signs.png
ENCODING 58
DWIDTH 21 0
BBX 21 21 0 0
BITMAP
003000
004800
008800
008800
008800
008400
0042f0
0021f0
1fc0b0
2000b0
4000f0
7c00f0
4000f0
4000f0
7c00f0
4000f0
4000f0
3e00f0
2003f0
1004f0
0ff800
ENDCHAR
STARTCHAR streamline-hand-little-finger--hand-signs.png
ENCODING 59
DWIDTH 21 0
BBX 21 21 0 0
BITMAP
000000
000180
000240
000240
000240
03fe40
049240
0e9240
119240
207240
203240
222c40
21c040
100040
100040
080080
040080
0fffc0
0ffcc0
0fffc0
000000
ENDCHAR
STARTCHAR streamline-hand-love--hand-signs.png
ENCODING 60
DWIDTH 21 0
BBX 21 21 0 0
BITMAP
018000
024000
024000
0240c0
024120
024120
027f20
324920
4a4920
460020
424920
200020
100020
080040
040040
040040
020080
020080
07ffc0
07fcc0
07ffc0
ENDCHAR
STARTCHAR streamline-hand-love-sign--hand-signs.png
ENCODING 61
DWIDTH 21 0
BBX 21 21 0 0
BITMAP
030000
048000
048180
048240
048240
048240
04fe40
049240
0e9240
119240
207240
203240
222c40
21c040
100040
100040
080080
040080
0fffc0
0ffcc0
0fffc0
ENDCHAR
STARTCHAR streamline-hand-ok--hand-signs.png
ENCODING 62
DWIDTH 21 0
BBX 21 21 0 0
BITMAP
058000
0a4000
0a4000
1a4000
2a4000
2a4f00
2a5080
2a6040
284620
228920
2a90c0
281120
201120
200e20
200040
100040
100080
080100
1fff80
1ff980
1fff80
ENDCHAR
STARTCHAR streamline-hand-point--hand-signs.png
ENCODING 63
DWIDTH 21 0
BBX 21 21 0 0
BITMAP
030000
048000
048000
048000
048000
048000
04fc00
049300
0e9280
119240
207240
203240
222dc0
21c040
100040
100040
080080
040080
0fffc0
0ffcc0
0fffc0
ENDCHAR
STARTCHAR streamline-hand-three-finger--hand-signs.png
ENCODING 64
DWIDTH 21 0
BBX 21 21 0 0
BITMAP
006000
039000
049c00
049200
049200
049200
049200
049300
0e9280
119240
204240
202240
2221c0
21c040
100040
100040
080080
040080
0fffc0
0ffcc0
0fffc0
ENDCHAR
STARTCHAR streamline-hand-writing--hand-signs.png
ENCODING 65
DWIDTH 21 0
BBX 21 21 0 0
BITMAP
000e00
001200
002a00
01c400
024800
025000
067e00
0a0180
120040
224920
464920
2a4920
120020
100020
080020
080020
040040
020040
07ffe0
07fe60
07ffe0
ENDCHAR
STARTCHAR streamline-hand-zombie--hand-signs.png
ENCODING 66
DWIDTH 21 0
BBX 21 21 0 0
BITMAP
006000
009000
0c8800
1244c0
112520
08a520
04a520
624220
920020
920040
8c38b0
804148
400388
200010
980060
640198
fa0268
ba05b8
faf5d8
3c63c0
d79eb8
ENDCHAR
STARTCHAR streamline-hand-zoom--hand-signs.png
ENCODING 67
DWIDTH 21 0
BBX 21 21 0 0
BITMAP
1cc000
0d2000
152000
a12000
c12000
e12000
013f80
190040
250020
232490
212490
110010
080010
040020
020020
020020
010040
010040
03ffe0
03fe60
03ffe0
ENDCHAR
