STARTFONT 2.1
FONT "streamline_interface_essential_search"
SIZE 16 75 75
FONTBOUNDINGBOX 16 16 0 0
STARTPROPERTIES 3
COPYRIGHT "streamlinehq.com"
FONT_ASCENT 0
FONT_DESCENT 0
ENDPROPERTIES
STARTCHAR streamline-interface-essential-filter--interface-essential.png
ENCODING 48
DWIDTH 21 0
BBX 21 21 0 0
BITMAP
07ff00
1800c0
27ff20
5fffd0
5fffd0
47ff10
41fc10
400010
200020
100040
080080
040100
020200
010400
008800
008800
008800
008800
008800
009000
006000
ENDCHAR
STARTCHAR streamline-interface-essential-search-1--interface-essential.png
ENCODING 49
DWIDTH 21 0
BBX 21 21 0 0
BITMAP
01e000
061800
180600
200100
206100
401880
400480
800440
800240
800240
800040
400080
400080
200180
2001c0
1807e0
061ff0
01e3f8
0001f0
0000e0
000040
ENDCHAR
STARTCHAR streamline-interface-essential-search-binocular--interface-essential.png
ENCODING 50
DWIDTH 21 0
BBX 21 21 0 0
BITMAP
000000
0f8f80
105040
105040
107040
200020
207020
20f820
407010
5e03d0
612430
5edbd0
a35468
a754e8
af55e8
bf57e8
5e8bd0
210420
1e03c0
000000
000000
ENDCHAR
STARTCHAR streamline-interface-essential-search-check--interface-essential.png
ENCODING 51
DWIDTH 21 0
BBX 21 21 0 0
BITMAP
03e000
0c1800
100400
200200
400100
400900
801c80
803880
887080
9ce080
8fc080
478100
430100
200380
1007c0
0c1f60
03e7b0
0003d0
0001f0
0000e0
000000
ENDCHAR
