STARTFONT 2.1
FONT "streamline_shopping_shipping"
SIZE 16 75 75
FONTBOUNDINGBOX 16 16 0 0
STARTPROPERTIES 3
COPYRIGHT "streamlinehq.com"
FONT_ASCENT 0
FONT_DESCENT 0
ENDPROPERTIES
STARTCHAR streamline-shopping-shipping-bag-1--shopping-shipping.png
ENCODING 48
DWIDTH 21 0
BBX 21 21 0 0
BITMAP
07de00
082100
082100
082100
fffff0
800770
800770
800770
800770
800770
800770
800770
800770
800770
800770
800770
800770
8006b0
8005d0
fffff0
000000
ENDCHAR
STARTCHAR streamline-shopping-shipping-bag-2--shopping-shipping.png
ENCODING 49
DWIDTH 21 0
BBX 21 21 0 0
BITMAP
000300
3dc480
432f40
549840
495eb0
5250f0
fffff0
8001f0
8001f0
8421f0
8421f0
83c1f0
8001f8
8001f8
8000f8
4000f8
4000f8
4000f0
4000e0
4000c0
3fff80
ENDCHAR
STARTCHAR streamline-shopping-shipping-barcode--shopping-shipping.png
ENCODING 50
DWIDTH 21 0
BBX 21 21 0 0
BITMAP
000000
000000
6b16a0
6b16a0
6b16a0
6b16a0
6b16a0
000000
fffff0
800010
fffff0
000000
6b16a0
6b16a0
6b16a0
6b16a0
6b16a0
6b16a0
000000
000000
000000
ENDCHAR
STARTCHAR streamline-shopping-shipping-basket--shopping-shipping.png
ENCODING 51
DWIDTH 21 0
BBX 21 21 0 0
BITMAP
002000
007000
03fe00
047100
042100
080080
080080
100040
100040
fffff8
442110
442110
7ffff0
442110
442110
442110
7ffff0
442110
242120
1fffc0
000000
ENDCHAR
STARTCHAR streamline-shopping-shipping-box--shopping-shipping.png
ENCODING 52
DWIDTH 21 0
BBX 21 21 0 0
BITMAP
000000
000000
000000
000000
fffff8
8009c8
8129c8
8129c8
8009c8
800888
800888
800888
b80888
800888
b80888
800888
fffff8
000000
000000
000000
000000
ENDCHAR
STARTCHAR streamline-shopping-shipping-cart--shopping-shipping.png
ENCODING 53
DWIDTH 21 0
BBX 21 21 0 0
BITMAP
c00000
200000
100000
100000
080000
080000
07fff0
040008
040008
024448
024450
024450
012490
0124a0
010020
00ffc0
010000
026180
01fff0
00f3c0
006180
ENDCHAR
STARTCHAR streamline-shopping-shipping-crack-1--shopping-shipping.png
ENCODING 54
DWIDTH 21 0
BBX 21 21 0 0
BITMAP
000000
03fe00
041100
042100
047100
041100
042100
044100
020200
020200
010400
00f800
002000
002000
002000
002000
01fc00
03fe00
03fe00
01fc00
000000
ENDCHAR
STARTCHAR streamline-shopping-shipping-crack-2--shopping-shipping.png
ENCODING 55
DWIDTH 21 0
BBX 21 21 0 0
BITMAP
001c00
033800
047100
04f900
043100
046100
04c100
040100
020200
020200
010400
00f800
002000
002000
002000
002000
01fc00
022200
020200
01fc00
000000
ENDCHAR
STARTCHAR streamline-shopping-shipping-delivery-person-motorcycle--shopping-shipping.png
ENCODING 56
DWIDTH 21 0
BBX 21 21 0 0
BITMAP
001ff8
001188
001188
0e1008
3310a8
4bd008
4910e8
3a1008
0a3ff8
127ff0
127ff0
222020
7a2790
864848
825328
f1f028
4ffff0
410820
220440
1c0380
000000
ENDCHAR
STARTCHAR streamline-shopping-shipping-delivery-truck--shopping-shipping.png
ENCODING 57
DWIDTH 21 0
BBX 21 21 0 0
BITMAP
000000
0c0000
330000
c0c000
b34000
8c4000
845000
845f80
c4d240
371260
8c12f0
8013f8
8011f8
fff008
801008
9c1388
a21448
6bfd70
220440
1c0380
000000
ENDCHAR
STARTCHAR streamline-shopping-shipping-discount-coupon--shopping-shipping.png
ENCODING 58
DWIDTH 21 0
BBX 21 21 0 0
BITMAP
000000
000000
000000
7fffe0
800010
800010
830610
878c10
c79830
233040
206040
20cc40
c19e30
831e10
860c10
800010
800010
7fffe0
000000
000000
000000
ENDCHAR
STARTCHAR streamline-shopping-shipping-loading-box--shopping-shipping.png
ENCODING 59
DWIDTH 21 0
BBX 21 21 0 0
BITMAP
000000
002000
002000
002000
00f800
007000
002000
fe03f8
410410
208820
1fffe0
201850
402848
ffc878
100840
100840
100840
100840
100840
1fffc0
000000
ENDCHAR
STARTCHAR streamline-shopping-shipping-products-gift--shopping-shipping.png
ENCODING 60
DWIDTH 21 0
BBX 21 21 0 0
BITMAP
2000c0
710180
200900
000010
470728
a8a890
4b5680
05dd08
1fffc0
200020
200020
3fffe0
127240
1fffc0
127240
127240
1fffc0
127240
0a7280
0a7280
0fff80
ENDCHAR
STARTCHAR streamline-shopping-shipping-receipt-slip--shopping-shipping.png
ENCODING 61
DWIDTH 21 0
BBX 21 21 0 0
BITMAP
622230
555550
488890
400010
400010
4c0010
4dc010
400210
4c0710
4dca90
400a10
4c0710
4dc290
400a90
4c0710
4dc210
400010
400010
488890
555550
622230
ENDCHAR
STARTCHAR streamline-shopping-shipping-shipment-deliver--shopping-shipping.png
ENCODING 62
DWIDTH 21 0
BBX 21 21 0 0
BITMAP
030000
0cc000
30b000
430800
743800
4ccb00
4308b8
410878
410838
410838
313038
8dc038
830038
700038
200038
200028
1fc028
0800f8
080738
07f800
000000
ENDCHAR
STARTCHAR streamline-shopping-shipping-shop--shopping-shipping.png
ENCODING 63
DWIDTH 21 0
BBX 21 21 0 0
BITMAP
0fff80
0fff80
125240
248920
488890
7ffff0
888888
888888
fffff8
400010
4f8f90
505250
505250
505fd0
545250
545250
505fd0
504010
504010
504010
000000
ENDCHAR
STARTCHAR streamline-shopping-shipping-upload-information--shopping-shipping.png
ENCODING 64
DWIDTH 21 0
BBX 21 21 0 0
BITMAP
3fffe0
400010
800008
800008
800008
820208
870708
8f8f88
9fdfc8
870708
870708
870708
870708
870708
800008
800008
8fff88
800008
800008
400010
3fffe0
ENDCHAR
STARTCHAR streamline-shopping-shipping-warehouse-truck-delivery--shopping-shipping.png
ENCODING 65
DWIDTH 21 0
BBX 21 21 0 0
BITMAP
000000
000000
003f00
304080
308040
310040
310040
320c40
321e40
341fe0
35d810
349008
f4f008
348808
3d04e8
352518
e30758
008910
0070e0
000000
000000
ENDCHAR
STARTCHAR streamline-shopping-shipping-weight-kg--shopping-shipping.png
ENCODING 66
DWIDTH 21 0
BBX 21 21 0 0
BITMAP
000000
01e000
033000
033000
01e000
1fff80
200380
2003c0
2003c0
2003c0
4931c0
4a41e0
4c59e0
8a48e0
8930f0
8000f0
8000f0
8000e0
8000c0
7fff80
000000
ENDCHAR
