STARTFONT 2.1
FONT "streamline_interface_essential_share"
SIZE 16 75 75
FONTBOUNDINGBOX 16 16 0 0
STARTPROPERTIES 3
COPYRIGHT "streamlinehq.com"
FONT_ASCENT 0
FONT_DESCENT 0
ENDPROPERTIES
STARTCHAR streamline-interface-essential-share-1--interface-essential.png
ENCODING 48
DWIDTH 21 0
BBX 21 21 0 0
BITMAP
000380
0007c0
000f60
000fa0
000fa0
0017c0
002380
1c4000
3e8000
7f0000
7f0000
7f0000
3e8000
1c4000
002380
0017c0
000f60
000fa0
000fa0
0007c0
000380
ENDCHAR
STARTCHAR streamline-interface-essential-share-2--interface-essential.png
ENCODING 49
DWIDTH 21 0
BBX 21 21 0 0
BITMAP
000080
0000c0
3ff0a0
4000d0
8007f8
8018f0
8020e0
8040c0
804080
804000
804000
804020
800020
800020
800020
800020
800020
800020
800020
400040
3fff80
ENDCHAR
STARTCHAR streamline-interface-essential-share-3--interface-essential.png
ENCODING 50
DWIDTH 21 0
BBX 21 21 0 0
BITMAP
002000
007000
00f800
01fc00
03fe00
007000
007000
067300
087080
107040
107040
100040
100040
100040
100040
100040
100040
100040
100040
080080
07ff00
ENDCHAR
