STARTFONT 2.1
FONT -Adobe-Symbol-Medium-R-Normal--34-240-100-100-P-191-Adobe-FontSpecific
SIZE 24 100 100
FONTBOUNDINGBOX 40 34 -5 -7
COMMENT 
COMMENT +
COMMENT  Copyright 1984-1989, 1994 Adobe Systems Incorporated.
COMMENT  Copyright 1988, 1994 Digital Equipment Corporation.
COMMENT
COMMENT  Adobe is a trademark of Adobe Systems Incorporated which may be
COMMENT  registered in certain jurisdictions.
COMMENT  Permission to use these trademarks is hereby granted only in
COMMENT  association with the images described in this file.
COMMENT
COMMENT  Permission to use, copy, modify, distribute and sell this software
COMMENT  and its documentation for any purpose and without fee is hereby
COMMENT  granted, provided that the above copyright notices appear in all
COMMENT  copies and that both those copyright notices and this permission
COMMENT  notice appear in supporting documentation, and that the names of
COMMENT  Adobe Systems and Digital Equipment Corporation not be used in
COMMENT  advertising or publicity pertaining to distribution of the software
COMMENT  without specific, written prior permission.  Adobe Systems and
COMMENT  Digital Equipment Corporation make no representations about the
COMMENT  suitability of this software for any purpose.  It is provided "as
COMMENT  is" without express or implied warranty.
COMMENT -
STARTPROPERTIES 27
FOUNDRY "Adobe"
FAMILY_NAME "Symbol"
WEIGHT_NAME "Medium"
SLANT "R"
SETWIDTH_NAME "Normal"
ADD_STYLE_NAME ""
PIXEL_SIZE 34
POINT_SIZE 240
RESOLUTION_X 100
RESOLUTION_Y 100
SPACING "P"
AVERAGE_WIDTH 191
CHARSET_REGISTRY "Adobe"
CHARSET_ENCODING "FontSpecific"
CAP_HEIGHT 23
X_HEIGHT 17
FONT_ASCENT 26
FONT_DESCENT 7
FACE_NAME "Symbol"
COPYRIGHT "Copyright (c) 1984, 1987 Adobe Systems Incorporated. All Rights Reserved. Copyright (c) 1988, 1991 Digital Equipment Corporation. All Rights Reserved."
NOTICE "No mark"
_DEC_DEVICE_FONTNAMES "PS=Symbol"
_DEC_PRODUCTINFO "DECwindows Fonts V2.2-1, 18-Nov-1991"
DEFAULT_CHAR 32
RELATIVE_SETWIDTH 50
RELATIVE_WEIGHT 50
FULL_NAME "Symbol"
ENDPROPERTIES
CHARS 189
STARTCHAR space
ENCODING 32
SWIDTH 250 0
DWIDTH 8 0
BBX 1 1 0 0
BITMAP
00
ENDCHAR
STARTCHAR exclam
ENCODING 33
SWIDTH 333 0
DWIDTH 11 0
BBX 4 23 4 0
BITMAP
60
F0
F0
F0
F0
F0
60
60
60
60
60
60
60
60
60
60
00
00
00
60
F0
F0
60
ENDCHAR
STARTCHAR universal
ENCODING 34
SWIDTH 713 0
DWIDTH 23 0
BBX 20 24 1 0
BITMAP
C00030
C00030
C00060
600060
600060
3000C0
3000C0
3FFFC0
1FFF80
180180
0C0300
0C0300
0C0300
060600
060600
030C00
030C00
030C00
019800
019800
00F000
00F000
00F000
006000
ENDCHAR
STARTCHAR numbersign
ENCODING 35
SWIDTH 500 0
DWIDTH 16 0
BBX 14 23 1 0
BITMAP
0630
0630
0630
0630
0C60
0C60
0C60
7FFC
7FFC
0C60
0C60
0C60
18C0
18C0
18C0
FFF8
FFF8
18C0
18C0
3180
3180
3180
3180
ENDCHAR
STARTCHAR existential
ENCODING 36
SWIDTH 549 0
DWIDTH 18 0
BBX 15 24 0 0
BITMAP
FFFE
FFFE
0006
0006
0006
0006
0006
0006
0006
0006
0006
3FFE
3FFE
0006
0006
0006
0006
0006
0006
0006
0006
0006
FFFE
FFFE
ENDCHAR
STARTCHAR percent
ENCODING 37
SWIDTH 833 0
DWIDTH 27 0
BBX 23 23 2 -1
BITMAP
07C060
1EE1C0
3C3FC0
382180
702180
702300
F06200
E04600
E0CC00
E0CC00
619800
77107C
3E30EE
0061C6
006382
00C702
008702
018E06
030E04
030E0C
060E18
0E0730
0C03E0
ENDCHAR
STARTCHAR ampersand
ENCODING 38
SWIDTH 778 0
DWIDTH 25 0
BBX 23 22 1 0
BITMAP
00F800
038C00
030600
070600
070600
070600
070C00
079800
03F1FC
03C070
07C060
1DE060
38F0C0
70F080
607980
E03F00
E01E00
E01F00
F01F82
F837EE
7FE3FC
1F80F8
ENDCHAR
STARTCHAR suchthat
ENCODING 39
SWIDTH 439 0
DWIDTH 14 0
BBX 12 17 1 0
BITMAP
7E00
7F80
07C0
01E0
00E0
00F0
0070
0070
3FF0
3FF0
0070
0070
00E0
01E0
03C0
FF00
7C00
ENDCHAR
STARTCHAR parenleft
ENCODING 40
SWIDTH 333 0
DWIDTH 11 0
BBX 8 29 2 -6
BITMAP
03
07
06
0C
18
30
30
70
70
60
60
E0
E0
E0
E0
E0
E0
E0
60
60
70
70
30
30
18
0C
06
07
03
ENDCHAR
STARTCHAR parenright
ENCODING 41
SWIDTH 333 0
DWIDTH 11 0
BBX 8 29 1 -6
BITMAP
C0
E0
60
30
18
0C
0C
0E
0E
06
06
07
07
07
07
07
07
07
06
06
0E
0E
0C
0C
18
30
60
E0
C0
ENDCHAR
STARTCHAR asteriskmath
ENCODING 42
SWIDTH 500 0
DWIDTH 16 0
BBX 11 14 2 4
BITMAP
0400
0E00
0E00
C460
E4E0
7FC0
1F00
1F00
7FC0
E4E0
C460
0E00
0E00
0400
ENDCHAR
STARTCHAR plus
ENCODING 43
SWIDTH 549 0
DWIDTH 18 0
BBX 16 18 1 0
BITMAP
0180
0180
0180
0180
0180
0180
0180
0180
FFFF
FFFF
0180
0180
0180
0180
0180
0180
0180
0180
ENDCHAR
STARTCHAR comma
ENCODING 44
SWIDTH 250 0
DWIDTH 8 0
BBX 4 9 2 -5
BITMAP
60
F0
F0
F0
10
30
60
E0
C0
ENDCHAR
STARTCHAR minus
ENCODING 45
SWIDTH 549 0
DWIDTH 18 0
BBX 17 2 0 8
BITMAP
FFFF80
FFFF80
ENDCHAR
STARTCHAR period
ENCODING 46
SWIDTH 250 0
DWIDTH 8 0
BBX 4 4 2 0
BITMAP
60
F0
F0
60
ENDCHAR
STARTCHAR slash
ENCODING 47
SWIDTH 278 0
DWIDTH 9 0
BBX 7 22 1 0
BITMAP
02
02
06
06
04
0C
0C
08
18
18
10
30
30
20
20
60
40
40
C0
C0
80
80
ENDCHAR
STARTCHAR zero
ENCODING 48
SWIDTH 500 0
DWIDTH 16 0
BBX 14 23 1 0
BITMAP
0FC0
1CE0
3870
3030
7038
7038
6018
E01C
E01C
E01C
E01C
E01C
E01C
E01C
E01C
E01C
6018
7038
7038
3030
3870
1CE0
0FC0
ENDCHAR
STARTCHAR one
ENCODING 49
SWIDTH 500 0
DWIDTH 16 0
BBX 9 23 4 0
BITMAP
0400
1C00
FC00
DC00
1C00
1C00
1C00
1C00
1C00
1C00
1C00
1C00
1C00
1C00
1C00
1C00
1C00
1C00
1C00
1C00
1C00
3E00
FF80
ENDCHAR
STARTCHAR two
ENCODING 50
SWIDTH 500 0
DWIDTH 16 0
BBX 14 23 1 0
BITMAP
0F80
1FC0
3FE0
61F0
C0F0
C070
8070
0070
0070
0060
0060
00C0
00C0
0180
0300
0300
0600
0C00
1800
300C
7018
7FF8
FFF0
ENDCHAR
STARTCHAR three
ENCODING 51
SWIDTH 500 0
DWIDTH 16 0
BBX 13 23 1 0
BITMAP
0F80
3FE0
71E0
40E0
C060
8060
0060
00C0
00C0
0180
07C0
0FE0
01F0
0070
0078
0038
0038
0038
0030
0030
6060
79C0
7F80
ENDCHAR
STARTCHAR four
ENCODING 52
SWIDTH 500 0
DWIDTH 16 0
BBX 15 23 0 0
BITMAP
0030
0070
0070
00F0
01F0
01F0
0370
0670
0670
0C70
1870
1870
3070
2070
6070
C070
FFFE
FFFE
0070
0070
0070
0070
0070
ENDCHAR
STARTCHAR five
ENCODING 53
SWIDTH 500 0
DWIDTH 16 0
BBX 13 23 1 0
BITMAP
0FF8
0FF0
1FF0
1000
3000
2000
7E00
7F80
7FC0
0FE0
03E0
00F0
0070
0070
0070
0030
0030
0030
0070
0060
E0C0
FB80
FE00
ENDCHAR
STARTCHAR six
ENCODING 54
SWIDTH 500 0
DWIDTH 16 0
BBX 14 23 1 0
BITMAP
0038
01E0
0380
0700
0E00
1C00
3800
3800
7000
77C0
FFF0
F078
E038
E03C
E01C
E01C
E01C
E01C
701C
7038
3838
1C70
0FC0
ENDCHAR
STARTCHAR seven
ENCODING 55
SWIDTH 500 0
DWIDTH 16 0
BBX 13 23 1 0
BITMAP
7FF8
7FF8
7FF8
C018
8030
0030
0030
0060
0060
0060
00C0
00C0
00C0
01C0
0180
0180
0180
0300
0300
0300
0600
0600
0600
ENDCHAR
STARTCHAR eight
ENCODING 56
SWIDTH 500 0
DWIDTH 16 0
BBX 12 23 2 0
BITMAP
1F80
71C0
60E0
E060
C060
E060
E0E0
70C0
79C0
3F00
1F00
1F80
3FC0
73C0
60E0
E0F0
C070
C070
E070
E070
6060
79C0
1F80
ENDCHAR
STARTCHAR nine
ENCODING 57
SWIDTH 500 0
DWIDTH 16 0
BBX 14 23 1 0
BITMAP
0F80
38E0
3070
6038
E038
E038
E03C
E01C
E01C
E01C
F01C
701C
787C
3FFC
0F38
0038
0070
00F0
00E0
01C0
0780
1E00
7000
ENDCHAR
STARTCHAR colon
ENCODING 58
SWIDTH 278 0
DWIDTH 9 0
BBX 4 15 2 0
BITMAP
60
F0
F0
60
00
00
00
00
00
00
00
60
F0
F0
60
ENDCHAR
STARTCHAR semicolon
ENCODING 59
SWIDTH 278 0
DWIDTH 9 0
BBX 4 20 3 -5
BITMAP
60
F0
F0
60
00
00
00
00
00
00
00
60
F0
F0
F0
10
30
60
E0
C0
ENDCHAR
STARTCHAR less
ENCODING 60
SWIDTH 549 0
DWIDTH 18 0
BBX 16 16 1 1
BITMAP
0007
001F
007C
01F0
0780
1E00
7800
E000
E000
7800
1E00
0780
01F0
007C
001F
0007
ENDCHAR
STARTCHAR equal
ENCODING 61
SWIDTH 549 0
DWIDTH 18 0
BBX 17 8 0 5
BITMAP
FFFF80
FFFF80
000000
000000
000000
000000
FFFF80
FFFF80
ENDCHAR
STARTCHAR greater
ENCODING 62
SWIDTH 549 0
DWIDTH 18 0
BBX 16 16 1 1
BITMAP
E000
F800
3E00
0F80
01E0
0078
001E
0007
0007
001E
0078
01E0
0F80
3E00
F800
E000
ENDCHAR
STARTCHAR question
ENCODING 63
SWIDTH 444 0
DWIDTH 14 0
BBX 11 23 2 0
BITMAP
3F00
6380
C1C0
C0E0
C0E0
E0E0
C0E0
01E0
01C0
0180
0380
0300
0600
0600
0400
0400
0400
0000
0000
0C00
1E00
1E00
0C00
ENDCHAR
STARTCHAR congruent
ENCODING 64
SWIDTH 549 0
DWIDTH 18 0
BBX 17 16 0 0
BITMAP
1E0100
3FC380
60FF00
401C00
000000
000000
000000
000000
FFFF80
FFFF80
000000
000000
000000
000000
FFFF80
FFFF80
ENDCHAR
STARTCHAR Alpha
ENCODING 65
SWIDTH 722 0
DWIDTH 23 0
BBX 21 23 0 0
BITMAP
002000
007000
007000
007000
00F800
00F800
00BC00
01BC00
019C00
031E00
030E00
020F00
060F00
060700
0C0780
0FFF80
080380
1803C0
1801C0
3001E0
3001E0
7001F0
FC07F8
ENDCHAR
STARTCHAR Beta
ENCODING 66
SWIDTH 667 0
DWIDTH 22 0
BBX 18 23 1 0
BITMAP
FFE000
3FFE00
1C1F00
1C0700
1C0780
1C0780
1C0780
1C0780
1C0700
1C0F00
1C3E00
1FF800
1C1F00
1C0780
1C0380
1C03C0
1C03C0
1C03C0
1C03C0
1C0780
1C0F80
3FFF00
FFF800
ENDCHAR
STARTCHAR Chi
ENCODING 67
SWIDTH 722 0
DWIDTH 23 0
BBX 22 23 0 0
BITMAP
FFC3FC
3F00E0
1F00C0
0F01C0
078180
07C300
03C600
01E600
01EC00
00F800
007800
007800
007C00
00DE00
019E00
018F00
030F80
060780
0E03C0
0C03E0
1801E0
3801F0
FE07FC
ENDCHAR
STARTCHAR Delta
ENCODING 68
SWIDTH 612 0
DWIDTH 20 0
BBX 19 22 0 0
BITMAP
006000
006000
00F000
00F000
00F000
01F800
013800
033C00
023C00
061C00
041E00
0C0E00
0C0F00
080F00
180700
100780
300380
2003C0
6003C0
4001C0
FFFFE0
FFFFE0
ENDCHAR
STARTCHAR Epsilon
ENCODING 69
SWIDTH 611 0
DWIDTH 20 0
BBX 18 23 1 0
BITMAP
FFFF80
3FFF80
1C0380
1C0180
1C0180
1C0000
1C0000
1C0200
1C0200
1C0200
1C0E00
1FFE00
1C0600
1C0200
1C0200
1C0000
1C0000
1C0040
1C0040
1C00C0
1C01C0
3FFF80
FFFF80
ENDCHAR
STARTCHAR Phi
ENCODING 70
SWIDTH 763 0
DWIDTH 25 0
BBX 23 23 1 0
BITMAP
01FF00
007C00
003800
003800
07FFC0
1F39F0
3C3878
78383C
78383C
F0381E
F0381E
F0381E
F0381E
F0381E
78381C
78383C
3C3878
1F39F0
07FFC0
003800
003800
007C00
01FF00
ENDCHAR
STARTCHAR Gamma
ENCODING 71
SWIDTH 603 0
DWIDTH 20 0
BBX 18 23 1 0
BITMAP
FFFF80
3FFFC0
3C01C0
1C00C0
1C0040
1C0040
1C0000
1C0000
1C0000
1C0000
1C0000
1C0000
1C0000
1C0000
1C0000
1C0000
1C0000
1C0000
1C0000
1C0000
1C0000
3E0000
FF8000
ENDCHAR
STARTCHAR Eta
ENCODING 72
SWIDTH 722 0
DWIDTH 24 0
BBX 22 23 1 0
BITMAP
FF87FC
3E01F0
1C00E0
1C00E0
1C00E0
1C00E0
1C00E0
1C00E0
1C00E0
1C00E0
1C00E0
1FFFE0
1C00E0
1C00E0
1C00E0
1C00E0
1C00E0
1C00E0
1C00E0
1C00E0
1C00E0
3E01F0
FF87FC
ENDCHAR
STARTCHAR Iota
ENCODING 73
SWIDTH 333 0
DWIDTH 11 0
BBX 9 23 1 0
BITMAP
FF80
3E00
1C00
1C00
1C00
1C00
1C00
1C00
1C00
1C00
1C00
1C00
1C00
1C00
1C00
1C00
1C00
1C00
1C00
1C00
1C00
3E00
FF80
ENDCHAR
STARTCHAR theta1
ENCODING 74
SWIDTH 631 0
DWIDTH 20 0
BBX 20 23 0 0
BITMAP
007800
00DC00
008600
008700
008300
00C380
004380
1C6380
3E3980
7E1D80
C70780
C701E0
0601B0
0E0180
0E0180
0E0180
0E0380
0E0300
0E0300
0E0700
070600
039C00
01F800
ENDCHAR
STARTCHAR Kappa
ENCODING 75
SWIDTH 722 0
DWIDTH 23 0
BBX 22 23 1 0
BITMAP
FF8FF0
3E03C0
1C0380
1C0300
1C0600
1C0C00
1C1800
1C3000
1C6000
1DC000
1FE000
1FE000
1EF000
1C7800
1C7C00
1C3E00
1C1F00
1C0F80
1C0780
1C03C0
1C01E0
3E01F0
FF8FFC
ENDCHAR
STARTCHAR Lambda
ENCODING 76
SWIDTH 686 0
DWIDTH 22 0
BBX 21 22 0 0
BITMAP
002000
003000
007000
007000
00F800
00F800
00BC00
01BC00
019C00
011E00
030E00
030F00
020F00
060700
060780
0C0380
0C03C0
0803C0
1801C0
1801E0
3801F0
FE07F8
ENDCHAR
STARTCHAR Mu
ENCODING 77
SWIDTH 889 0
DWIDTH 29 0
BBX 27 23 1 0
BITMAP
FE000FE0
1E000F80
1F000F00
1F001F00
1F001F00
1F803700
1B803700
1BC02700
1BC06700
19E06700
19E0C700
18E0C700
18F08700
18718700
18798700
187B0700
183F0700
183F0700
181E0700
181E0700
180C0700
380C0F80
FF0C3FE0
ENDCHAR
STARTCHAR Nu
ENCODING 78
SWIDTH 722 0
DWIDTH 23 0
BBX 22 23 1 0
BITMAP
FC03FC
3E0060
1E0060
1F0060
1F8060
1FC060
1BC060
19E060
19F060
18F060
187860
183C60
183C60
181E60
180F60
180FE0
1807E0
1803E0
1801E0
1801E0
1800E0
380060
FF0020
ENDCHAR
STARTCHAR Omicron
ENCODING 79
SWIDTH 722 0
DWIDTH 23 0
BBX 22 23 1 0
BITMAP
01FE00
078780
0E01C0
1C00E0
3C00F0
780070
780078
700038
F0003C
F0003C
F0003C
F0003C
F0003C
F0003C
F0003C
700038
780078
380070
3C00F0
1C00E0
0E01C0
07CF80
01FE00
ENDCHAR
STARTCHAR Pi
ENCODING 80
SWIDTH 768 0
DWIDTH 25 0
BBX 23 23 1 0
BITMAP
FFFFFE
3FFFF8
1C0070
1C0070
1C0070
1C0070
1C0070
1C0070
1C0070
1C0070
1C0070
1C0070
1C0070
1C0070
1C0070
1C0070
1C0070
1C0070
1C0070
1C0070
1C0070
3E00F8
FF83FE
ENDCHAR
STARTCHAR Theta
ENCODING 81
SWIDTH 741 0
DWIDTH 24 0
BBX 22 23 1 0
BITMAP
01FE00
078780
0E01C0
1C00E0
3C00F0
380070
780078
700038
700038
F2013C
F3033C
F3FF3C
F3FF3C
F3033C
F2013C
700038
700038
780078
380070
1C00E0
0E01C0
078780
01FE00
ENDCHAR
STARTCHAR Rho
ENCODING 82
SWIDTH 556 0
DWIDTH 18 0
BBX 17 23 1 0
BITMAP
FFF000
3FFE00
1C0F00
1C0780
1C0780
1C0380
1C0380
1C0380
1C0380
1C0780
1C0700
1E3E00
1FFC00
1C0000
1C0000
1C0000
1C0000
1C0000
1C0000
1C0000
1C0000
3E0000
FF8000
ENDCHAR
STARTCHAR Sigma
ENCODING 83
SWIDTH 592 0
DWIDTH 19 0
BBX 18 23 1 0
BITMAP
FFFF00
FFFF00
780300
3C0100
3E0180
1E0000
0F0000
078000
07C000
03C000
01E000
00C000
01C000
018000
030000
060000
0C0040
1C00C0
180080
300180
7FFF80
FFFF80
FFFF80
ENDCHAR
STARTCHAR Tau
ENCODING 84
SWIDTH 611 0
DWIDTH 20 0
BBX 19 23 1 0
BITMAP
FFFFE0
F8E3E0
C0E0E0
C0E060
80E020
80E020
00E000
00E000
00E000
00E000
00E000
00E000
00E000
00E000
00E000
00E000
00E000
00E000
00E000
00E000
00E000
01F000
07FC00
ENDCHAR
STARTCHAR Upsilon
ENCODING 85
SWIDTH 690 0
DWIDTH 23 0
BBX 23 23 0 0
BITMAP
FFC1FE
3E0070
1F0060
0F00E0
0F80C0
078180
03C180
03E300
01E300
00F600
00FC00
007C00
003800
003800
003800
003800
003800
003800
003800
003800
003800
007C00
01FF00
ENDCHAR
STARTCHAR sigma1
ENCODING 86
SWIDTH 439 0
DWIDTH 14 0
BBX 13 24 1 -7
BITMAP
03E0
0FF0
1FF0
3000
6000
4000
C000
C000
8000
8000
8000
C000
C000
F000
7FF0
3FF0
1FF8
0018
0008
0008
0018
07F0
07F0
07C0
ENDCHAR
STARTCHAR Omega
ENCODING 87
SWIDTH 768 0
DWIDTH 25 0
BBX 23 23 1 0
BITMAP
00FE00
038380
0E00E0
1E00F0
1C0070
3C0078
380038
78003C
78003C
78003C
78003C
78003C
78003C
380038
3C0078
1C0070
0E00E0
0701C0
818302
C08206
FFC7FE
FFC7FE
FFC7FE
ENDCHAR
STARTCHAR Xi
ENCODING 88
SWIDTH 645 0
DWIDTH 21 0
BBX 19 23 1 0
BITMAP
7FFFC0
7FFFC0
7FFFC0
6000C0
400040
000000
000000
000000
080200
0C0600
0FFE00
0FFE00
0FFE00
080200
080200
000000
000000
C00060
C00060
400040
7FFFC0
7FFFC0
7FFFC0
ENDCHAR
STARTCHAR Psi
ENCODING 89
SWIDTH 795 0
DWIDTH 26 0
BBX 25 23 0 0
BITMAP
E0FF8380
703E0700
381C0E00
381C0E00
3C1C1E00
3C1C1E00
3C1C1E00
3C1C1E00
3C1C1E00
1C1C1C00
1E1C3C00
0F9CF800
03FFE000
001C0000
001C0000
001C0000
001C0000
001C0000
001C0000
001C0000
001C0000
003E0000
00FF8000
ENDCHAR
STARTCHAR Zeta
ENCODING 90
SWIDTH 611 0
DWIDTH 20 0
BBX 19 23 1 0
BITMAP
7FFFC0
7803C0
600780
600F00
400F00
401E00
003E00
003C00
007800
00F800
00F000
01E000
01E000
03C000
07C000
078000
0F0000
1F0020
1E0020
3E0060
3C00E0
7803C0
FFFFC0
ENDCHAR
STARTCHAR bracketleft
ENCODING 91
SWIDTH 333 0
DWIDTH 11 0
BBX 7 28 3 -5
BITMAP
FE
E0
C0
C0
C0
C0
C0
C0
C0
C0
C0
C0
C0
C0
C0
C0
C0
C0
C0
C0
C0
C0
C0
C0
C0
C0
E0
FE
ENDCHAR
STARTCHAR therefore
ENCODING 92
SWIDTH 863 0
DWIDTH 28 0
BBX 17 16 5 0
BITMAP
01E000
01E000
01E000
01E000
000000
000000
000000
000000
000000
000000
000000
000000
F00780
F00780
F00780
F00780
ENDCHAR
STARTCHAR bracketright
ENCODING 93
SWIDTH 333 0
DWIDTH 11 0
BBX 7 28 1 -5
BITMAP
FE
0E
06
06
06
06
06
06
06
06
06
06
06
06
06
06
06
06
06
06
06
06
06
06
06
06
0E
FE
ENDCHAR
STARTCHAR perpendicular
ENCODING 94
SWIDTH 658 0
DWIDTH 21 0
BBX 20 23 1 0
BITMAP
006000
006000
006000
006000
006000
006000
006000
006000
006000
006000
006000
006000
006000
006000
006000
006000
006000
006000
006000
006000
006000
FFFFF0
FFFFF0
ENDCHAR
STARTCHAR underscore
ENCODING 95
SWIDTH 500 0
DWIDTH 16 0
BBX 16 2 0 -7
BITMAP
FFFF
FFFF
ENDCHAR
STARTCHAR radicalex
ENCODING 96
SWIDTH 500 0
DWIDTH 17 0
BBX 20 1 15 26
BITMAP
FFFFF0
ENDCHAR
STARTCHAR alpha
ENCODING 97
SWIDTH 631 0
DWIDTH 20 0
BBX 19 17 1 0
BITMAP
0FC180
1CE180
383380
701380
701700
F01F00
E00F00
E00E00
E00E00
E00E00
E01C00
F01E00
F01E20
703A20
7873E0
3CE1C0
0FC1C0
ENDCHAR
STARTCHAR beta
ENCODING 98
SWIDTH 549 0
DWIDTH 18 0
BBX 14 32 2 -7
BITMAP
0F80
19E0
30E0
7070
6070
6070
6070
6070
6070
6060
67C0
67E0
6070
6038
6038
603C
601C
601C
601C
601C
601C
6038
7878
6FF0
63C0
6000
6000
6000
6000
E000
E000
E000
ENDCHAR
STARTCHAR chi
ENCODING 99
SWIDTH 549 0
DWIDTH 18 0
BBX 17 25 0 -7
BITMAP
180000
3C0E00
7E0E00
461E00
C21C00
C33C00
033800
017000
017000
01E000
01E000
01C000
03C000
038000
07C000
07C000
0F4000
0E4000
1E6000
1C6180
3C6180
383300
783F00
703E00
701E00
ENDCHAR
STARTCHAR delta
ENCODING 100
SWIDTH 494 0
DWIDTH 16 0
BBX 14 25 1 0
BITMAP
0F80
1FE0
30F0
2078
3030
3800
1C00
0E00
0780
03C0
07F0
1CF0
3878
7038
F03C
E01C
E01C
E01C
E01C
F01C
F038
7038
7870
1FE0
0780
ENDCHAR
STARTCHAR epsilon
ENCODING 101
SWIDTH 439 0
DWIDTH 14 0
BBX 12 18 1 -1
BITMAP
1F80
39E0
70E0
E0E0
E040
E000
7000
7800
1F80
7800
F000
E000
E000
E010
F030
7830
3FE0
0F80
ENDCHAR
STARTCHAR phi
ENCODING 102
SWIDTH 521 0
DWIDTH 17 0
BBX 15 30 1 -7
BITMAP
0100
0100
0100
0100
0100
0100
0FC0
1D70
3938
711C
711C
E11E
E10E
E10E
E10E
E10E
E10E
F10E
710C
711C
3918
1D70
07E0
0100
0100
0100
0100
0100
0100
0100
ENDCHAR
STARTCHAR gamma
ENCODING 103
SWIDTH 411 0
DWIDTH 13 0
BBX 15 24 -2 -7
BITMAP
380E
7C0E
7C0E
C61C
861C
821C
0338
0338
0130
0130
0160
01E0
01C0
00C0
00C0
0180
01C0
01C0
03C0
03C0
03C0
03C0
0380
0180
ENDCHAR
STARTCHAR eta
ENCODING 104
SWIDTH 603 0
DWIDTH 20 0
BBX 17 24 0 -7
BITMAP
183800
7CFE00
DFDE00
CF0F00
8F0700
0E0700
0E0700
0E0700
0E0700
0E0700
0E0700
0E0700
0E0700
0E0700
0E0700
0E0700
0E0700
000700
000700
000700
000700
000700
000300
000380
ENDCHAR
STARTCHAR iota
ENCODING 105
SWIDTH 329 0
DWIDTH 11 0
BBX 10 17 0 0
BITMAP
0400
7C00
FC00
3C00
1C00
1C00
1C00
1C00
1C00
1C00
1C00
1C00
1C00
1C40
1CC0
0FC0
0F00
ENDCHAR
STARTCHAR phi1
ENCODING 106
SWIDTH 603 0
DWIDTH 20 0
BBX 18 24 1 -7
BITMAP
063C00
1E7E00
38FF00
70C780
70C380
F0C3C0
E0C1C0
E0C1C0
E0C1C0
E0C1C0
F0C1C0
F0C180
70C380
78C300
38C700
1EDC00
07F800
00C000
00C000
00C000
00C000
00C000
00C000
00C000
ENDCHAR
STARTCHAR kappa
ENCODING 107
SWIDTH 549 0
DWIDTH 18 0
BBX 17 17 1 0
BITMAP
080700
F81F80
F83F80
386300
18C000
198000
1B0000
1F8000
1F8000
1BC000
19E000
18F000
18F000
187800
183C00
183E00
187F80
ENDCHAR
STARTCHAR lambda
ENCODING 108
SWIDTH 549 0
DWIDTH 18 0
BBX 17 25 1 0
BITMAP
380000
7C0000
7E0000
C60000
C30000
830000
010000
010000
018000
038000
038000
078000
07C000
0FC000
0EC000
1E4000
1C6000
1C6000
386000
386080
703080
703980
E03F00
E01F00
E00E00
ENDCHAR
STARTCHAR mu
ENCODING 109
SWIDTH 576 0
DWIDTH 19 0
BBX 17 24 1 -7
BITMAP
703800
703800
703800
703800
703800
703800
703800
703800
703800
703800
703800
703800
707800
787880
7FFD80
7F9F80
6E1E00
600000
600000
600000
E00000
E00000
E00000
600000
ENDCHAR
STARTCHAR nu
ENCODING 110
SWIDTH 521 0
DWIDTH 17 0
BBX 16 17 -1 0
BITMAP
1806
F807
3C07
1C07
1C07
1E06
0E06
0E0C
070C
0718
0798
03B0
03A0
01E0
01C0
01C0
0080
ENDCHAR
STARTCHAR omicron
ENCODING 111
SWIDTH 549 0
DWIDTH 18 0
BBX 15 17 1 0
BITMAP
07C0
1C70
3038
703C
701C
E01E
E00E
E00E
E00E
E00E
E00E
F00E
701C
781C
3838
1E70
0FE0
ENDCHAR
STARTCHAR pi
ENCODING 112
SWIDTH 549 0
DWIDTH 18 0
BBX 17 17 0 0
BITMAP
0FFF80
3FFF80
3FFF80
663800
C63800
063000
063000
063000
063000
063000
043000
0C3000
0C3080
1C3980
3C3F00
3C1F00
381E00
ENDCHAR
STARTCHAR theta
ENCODING 113
SWIDTH 521 0
DWIDTH 17 0
BBX 14 23 1 0
BITMAP
0780
1CE0
1870
3030
7038
7038
F03C
E01C
E01C
E01C
E01C
FFFC
FFFC
E01C
E01C
E01C
E01C
7038
7038
7038
3870
1CE0
0FC0
ENDCHAR
STARTCHAR rho
ENCODING 114
SWIDTH 549 0
DWIDTH 18 0
BBX 14 25 2 -7
BITMAP
07C0
1FE0
30F0
6078
6078
E03C
E03C
E01C
E01C
E01C
E01C
E018
E018
E038
F070
F8E0
EFC0
E700
E000
E000
E000
E000
E000
E000
E000
ENDCHAR
STARTCHAR sigma
ENCODING 115
SWIDTH 603 0
DWIDTH 20 0
BBX 18 18 1 0
BITMAP
03FFC0
0FFFC0
3FFFC0
7C3000
781800
F01C00
F00E00
E00F00
E00700
E00700
F00700
700700
700F00
380E00
3C1E00
1E3800
07F000
01C000
ENDCHAR
STARTCHAR tau
ENCODING 116
SWIDTH 439 0
DWIDTH 14 0
BBX 14 17 0 0
BITMAP
0FFC
3FFC
3FFC
6380
C380
C380
0300
0300
0300
0300
0300
0308
0388
0398
03F8
01F0
01E0
ENDCHAR
STARTCHAR upsilon
ENCODING 117
SWIDTH 576 0
DWIDTH 19 0
BBX 17 18 0 0
BITMAP
001000
3C1800
7C1C00
FC0600
CE0700
8E0300
0E0300
0E0380
0E0380
0E0380
0E0380
0E0380
0E0300
0E0700
070700
070E00
039C00
01F800
ENDCHAR
STARTCHAR omega1
ENCODING 118
SWIDTH 713 0
DWIDTH 23 0
BBX 21 19 0 0
BITMAP
1FFFF8
3FFFF8
7FFFF8
E78380
DE00C0
3C00E0
383870
783870
783838
783838
703838
703838
703838
701038
781038
783870
382870
1CECE0
0F87C0
ENDCHAR
STARTCHAR omega
ENCODING 119
SWIDTH 686 0
DWIDTH 22 0
BBX 20 17 1 0
BITMAP
0F0E00
1C0780
3801C0
7061E0
70E0E0
E0E0F0
E0E0F0
E0E070
E0E070
E0E070
E0E070
E04070
E0E0F0
70E0E0
71B1E0
3F1FC0
1E0F00
ENDCHAR
STARTCHAR xi
ENCODING 120
SWIDTH 493 0
DWIDTH 16 0
BBX 14 33 1 -7
BITMAP
3000
60C0
63E0
67C0
3F80
1800
3000
2000
2000
3000
31F0
1FF0
1FE0
3000
6000
4000
C000
8000
8000
8000
C000
C000
F800
7FF0
3FFC
1FFC
000C
0004
0004
000C
03F8
03F8
01E0
ENDCHAR
STARTCHAR psi
ENCODING 121
SWIDTH 686 0
DWIDTH 22 0
BBX 22 24 0 -7
BITMAP
F0303C
783078
3C30F0
1C30E0
1C30E0
1C30E0
1C30E0
1C30E0
1E30E0
1E31E0
1E31E0
0E31C0
0E31C0
0631C0
073380
03B700
01FE00
003000
003000
003000
003000
003000
003000
003000
ENDCHAR
STARTCHAR zeta
ENCODING 122
SWIDTH 494 0
DWIDTH 16 0
BBX 13 32 2 -7
BITMAP
1800
3870
30F0
33E0
3FC0
0E00
0C00
1800
1000
3000
2000
6000
4000
4000
C000
C000
C000
C000
C000
E000
6000
7FC0
3FF0
1FF8
0FF8
0018
0008
0008
0018
03F8
07F0
03E0
ENDCHAR
STARTCHAR braceleft
ENCODING 123
SWIDTH 480 0
DWIDTH 16 0
BBX 11 29 2 -6
BITMAP
07E0
0E00
0C00
0C00
0C00
0C00
0C00
0C00
0C00
0C00
0C00
1C00
1C00
7000
C000
7000
1C00
1C00
0C00
0C00
0C00
0C00
0C00
0C00
0C00
0C00
0C00
0E00
07E0
ENDCHAR
STARTCHAR bar
ENCODING 124
SWIDTH 200 0
DWIDTH 7 0
BBX 2 28 2 -6
BITMAP
C0
C0
C0
C0
C0
C0
C0
C0
C0
C0
C0
C0
C0
C0
C0
C0
C0
C0
C0
C0
C0
C0
C0
C0
C0
C0
C0
C0
ENDCHAR
STARTCHAR braceright
ENCODING 125
SWIDTH 480 0
DWIDTH 16 0
BBX 11 29 2 -6
BITMAP
FC00
0E00
0600
0600
0600
0600
0600
0600
0600
0600
0600
0700
0700
01C0
0060
01C0
0700
0700
0600
0600
0600
0600
0600
0600
0600
0600
0600
0E00
FC00
ENDCHAR
STARTCHAR similar
ENCODING 126
SWIDTH 549 0
DWIDTH 18 0
BBX 15 4 1 7
BITMAP
1800
7F86
E3FE
C038
ENDCHAR
STARTCHAR Upsilon1
ENCODING 161
SWIDTH 620 0
DWIDTH 20 0
BBX 20 23 0 0
BITMAP
F001C0
7C07E0
0F0C70
070CF0
0398E0
01D0E0
01D000
01F000
01F000
00E000
00E000
00E000
00E000
00E000
00E000
00E000
00E000
00E000
00E000
00E000
00E000
01F000
07FC00
ENDCHAR
STARTCHAR minute
ENCODING 162
SWIDTH 247 0
DWIDTH 8 0
BBX 6 9 1 16
BITMAP
18
3C
3C
78
70
60
E0
C0
80
ENDCHAR
STARTCHAR lessequal
ENCODING 163
SWIDTH 549 0
DWIDTH 18 0
BBX 16 21 1 0
BITMAP
0007
001F
007C
01F0
07C0
1E00
7800
E000
E000
7800
1E00
0780
01E0
0078
001E
0007
0001
0000
0000
FFFF
FFFF
ENDCHAR
STARTCHAR fraction
ENCODING 164
SWIDTH 167 0
DWIDTH 6 0
BBX 15 23 -5 0
BITMAP
0002
0006
000C
000C
0018
0030
0030
0060
00C0
00C0
0180
0300
0300
0600
0C00
0C00
1800
3000
3000
6000
C000
C000
8000
ENDCHAR
STARTCHAR infinity
ENCODING 165
SWIDTH 713 0
DWIDTH 23 0
BBX 21 10 1 4
BITMAP
1C03C0
7F0FE0
639E30
C1F818
C0F018
C0F018
C0F818
639C30
7F0FF0
1C03C0
ENDCHAR
STARTCHAR florin
ENCODING 166
SWIDTH 500 0
DWIDTH 16 0
BBX 16 29 0 -6
BITMAP
001E
0033
0067
0062
00E0
00E0
00C0
00C0
00C0
0FFC
01C0
01C0
01C0
01C0
0180
0180
0180
0380
0380
0380
0300
0300
0300
0300
0200
6600
E600
EC00
7800
ENDCHAR
STARTCHAR club
ENCODING 167
SWIDTH 753 0
DWIDTH 24 0
BBX 18 18 3 0
BITMAP
01E000
03F000
07F800
07F800
07F800
07F800
03F000
01E000
7CCF80
FFFFC0
FFFFC0
FFFFC0
FFFFC0
FFFFC0
FCCFC0
78C780
00C000
01E000
ENDCHAR
STARTCHAR diamond
ENCODING 168
SWIDTH 753 0
DWIDTH 24 0
BBX 14 18 5 0
BITMAP
0300
0780
07C0
0FC0
1FE0
3FF0
7FF8
7FF8
FFFC
FFFC
7FF8
7FF8
3FF0
1FE0
0FC0
07C0
0780
0300
ENDCHAR
STARTCHAR heart
ENCODING 169
SWIDTH 753 0
DWIDTH 24 0
BBX 16 18 4 0
BITMAP
7C3E
FE7F
FE7F
FFFF
FFFF
FFFF
FFFF
7FFE
7FFE
3FFC
3FFC
1FF8
0FF0
0FF0
07E0
03C0
0180
0180
ENDCHAR
STARTCHAR spade
ENCODING 170
SWIDTH 753 0
DWIDTH 24 0
BBX 16 18 4 0
BITMAP
0180
01C0
03C0
07E0
07F0
0FF0
1FF8
3FFC
3FFC
7FFE
FFFF
FFFF
FFFF
FDBF
F99F
F99F
718E
03C0
ENDCHAR
STARTCHAR arrowboth
ENCODING 171
SWIDTH 1042 0
DWIDTH 34 0
BBX 32 16 1 0
BITMAP
01800180
030000C0
070000E0
0E000070
1C000038
3800001C
7000000E
FFFFFFFF
FFFFFFFF
7000000E
3800001C
1C000038
0E000070
070000E0
030000C0
01800180
ENDCHAR
STARTCHAR arrowleft
ENCODING 172
SWIDTH 987 0
DWIDTH 32 0
BBX 29 16 1 0
BITMAP
01800000
03000000
06000000
0E000000
1C000000
38000000
70000000
FFFFFFF8
FFFFFFF8
70000000
38000000
1C000000
0E000000
06000000
03000000
01800000
ENDCHAR
STARTCHAR arrowup
ENCODING 173
SWIDTH 603 0
DWIDTH 20 0
BBX 16 27 2 0
BITMAP
0180
03C0
07E0
0FF0
1DB8
399C
718E
E187
C183
0180
0180
0180
0180
0180
0180
0180
0180
0180
0180
0180
0180
0180
0180
0180
0180
0180
0180
ENDCHAR
STARTCHAR arrowright
ENCODING 174
SWIDTH 987 0
DWIDTH 32 0
BBX 29 16 2 0
BITMAP
00000C00
00000E00
00000700
00000380
000001C0
000000E0
00000070
FFFFFFF8
FFFFFFF8
00000070
000000E0
000001C0
00000380
00000700
00000E00
00000C00
ENDCHAR
STARTCHAR arrowdown
ENCODING 175
SWIDTH 603 0
DWIDTH 20 0
BBX 16 27 2 0
BITMAP
0180
0180
0180
0180
0180
0180
0180
0180
0180
0180
0180
0180
0180
0180
0180
0180
0180
0180
C183
E187
718E
399C
1DB8
0FF0
07E0
03C0
0180
ENDCHAR
STARTCHAR degree
ENCODING 176
SWIDTH 400 0
DWIDTH 13 0
BBX 9 10 2 13
BITMAP
1C00
6300
4100
8080
8080
8080
8080
4100
6300
1C00
ENDCHAR
STARTCHAR plusminus
ENCODING 177
SWIDTH 549 0
DWIDTH 18 0
BBX 16 22 1 0
BITMAP
0180
0180
0180
0180
0180
0180
0180
0180
FFFF
FFFF
0180
0180
0180
0180
0180
0180
0180
0180
0000
0000
FFFF
FFFF
ENDCHAR
STARTCHAR second
ENCODING 178
SWIDTH 411 0
DWIDTH 13 0
BBX 12 9 1 15
BITMAP
1C70
1C70
3CF0
38E0
71C0
71C0
E380
C300
8200
ENDCHAR
STARTCHAR greaterequal
ENCODING 179
SWIDTH 549 0
DWIDTH 18 0
BBX 16 21 1 0
BITMAP
E000
F800
3E00
0F80
01E0
0078
001E
0007
0007
001E
0078
01E0
0780
1E00
7800
E000
8000
0000
0000
FFFF
FFFF
ENDCHAR
STARTCHAR multiply
ENCODING 180
SWIDTH 549 0
DWIDTH 18 0
BBX 16 16 1 1
BITMAP
C003
E007
700E
381C
1C38
0E70
07E0
03C0
03C0
07E0
0E70
1C38
381C
700E
E007
C003
ENDCHAR
STARTCHAR proportional
ENCODING 181
SWIDTH 713 0
DWIDTH 23 0
BBX 19 10 1 4
BITMAP
1C03C0
3F0FE0
639C00
C1F800
C0F000
C0F000
C1F800
639C00
7F0FE0
1C03C0
ENDCHAR
STARTCHAR partialdiff
ENCODING 182
SWIDTH 494 0
DWIDTH 16 0
BBX 14 27 1 0
BITMAP
1E00
3F80
20E0
0070
0030
0018
0018
0018
001C
001C
001C
0F1C
1FFC
387C
783C
703C
F038
E038
E038
E038
E070
E070
6060
70E0
39C0
1F80
0F00
ENDCHAR
STARTCHAR bullet
ENCODING 183
SWIDTH 460 0
DWIDTH 15 0
BBX 11 12 2 4
BITMAP
0E00
3F80
7FC0
7FC0
FFE0
FFE0
FFE0
FFE0
7FC0
7FC0
3F80
0E00
ENDCHAR
STARTCHAR divide
ENCODING 184
SWIDTH 549 0
DWIDTH 18 0
BBX 16 13 1 2
BITMAP
0180
03C0
03C0
0180
0000
FFFF
FFFF
0000
0000
0180
03C0
03C0
0180
ENDCHAR
STARTCHAR notequal
ENCODING 185
SWIDTH 549 0
DWIDTH 18 0
BBX 17 19 1 -1
BITMAP
000C00
001800
001800
003000
003000
FFFF80
FFFF80
00C000
00C000
018000
018000
030000
FFFF80
FFFF80
060000
0C0000
0C0000
180000
180000
ENDCHAR
STARTCHAR equivalence
ENCODING 186
SWIDTH 549 0
DWIDTH 18 0
BBX 17 12 0 3
BITMAP
FFFF80
FFFF80
000000
000000
000000
FFFF80
FFFF80
000000
000000
000000
FFFF80
FFFF80
ENDCHAR
STARTCHAR approxequal
ENCODING 187
SWIDTH 549 0
DWIDTH 18 0
BBX 16 9 1 4
BITMAP
1C00
7F87
E1FE
4038
0000
1C00
7F87
E1FE
C038
ENDCHAR
STARTCHAR ellipsis
ENCODING 188
SWIDTH 1000 0
DWIDTH 33 0
BBX 26 4 3 0
BITMAP
600C0180
F01E03C0
F01E03C0
600C0180
ENDCHAR
STARTCHAR arrowvertex
ENCODING 189
SWIDTH 603 0
DWIDTH 20 0
BBX 2 34 9 -7
BITMAP
C0
C0
C0
C0
C0
C0
C0
C0
C0
C0
C0
C0
C0
C0
C0
C0
C0
C0
C0
C0
C0
C0
C0
C0
C0
C0
C0
C0
C0
C0
C0
C0
C0
C0
ENDCHAR
STARTCHAR arrowhorizex
ENCODING 190
SWIDTH 1000 0
DWIDTH 32 0
BBX 32 2 0 7
BITMAP
FFFFFFFF
FFFFFFFF
ENDCHAR
STARTCHAR carriagereturn
ENCODING 191
SWIDTH 658 0
DWIDTH 21 0
BBX 18 21 1 0
BITMAP
0000C0
0000C0
0000C0
0000C0
0000C0
0000C0
0000C0
0000C0
0000C0
0000C0
0000C0
0000C0
0000C0
0000C0
0000C0
1000C0
7000C0
FFFFC0
FFFFC0
700000
100000
ENDCHAR
STARTCHAR aleph
ENCODING 192
SWIDTH 823 0
DWIDTH 27 0
BBX 16 22 5 0
BITMAP
0020
6060
F07E
F07F
F87F
7C3F
3C0F
3E0C
1F18
1F98
37F0
73F0
61F0
E1F0
F0F8
F07C
783E
7C1E
7C1F
3C0F
7C07
FC06
ENDCHAR
STARTCHAR Ifraktur
ENCODING 193
SWIDTH 686 0
DWIDTH 22 0
BBX 18 27 1 -2
BITMAP
07F000
1FFE00
3FFF80
383F80
600700
600700
400600
400C00
400C00
601C00
301C00
1C0E00
0E0E00
000F00
000700
000780
000380
0003C0
0001C0
0001C0
0001C0
3C0180
FF0180
9FC300
07FE00
03F800
00F000
ENDCHAR
STARTCHAR Rfraktur
ENCODING 194
SWIDTH 795 0
DWIDTH 26 0
BBX 23 24 1 0
BITMAP
0F80C0
3FE1F0
61F7F8
C0FC7C
80783E
80781C
803838
C03870
E038C0
7839C0
3E3BC0
0E39E0
0638E0
0638E0
0038F0
0038F0
003870
007070
007070
006078
1EC07A
3F803E
2F803C
060010
ENDCHAR
STARTCHAR weierstrass
ENCODING 195
SWIDTH 987 0
DWIDTH 32 0
BBX 23 26 5 -7
BITMAP
00C000
01C000
030070
0603FC
060E1E
0C181E
1C300E
18600E
38C01E
39801E
3B001E
3E001C
3E303C
3C7838
1E7078
3E40F0
2F41E0
6F63C0
473F00
C70000
870000
830000
830000
C70000
660000
3C0000
ENDCHAR
STARTCHAR circlemultiply
ENCODING 196
SWIDTH 768 0
DWIDTH 25 0
BBX 22 23 1 0
BITMAP
00FC00
03FF00
0F03C0
1C00E0
380070
320130
670398
638718
C18608
C0CC0C
C0780C
C0300C
C0780C
C0CC0C
C1860C
638718
670398
320130
380070
1C00E0
0F03C0
03FF00
00FC00
ENDCHAR
STARTCHAR circleplus
ENCODING 197
SWIDTH 768 0
DWIDTH 25 0
BBX 22 23 1 0
BITMAP
00FC00
03FF00
0F03C0
1C30E0
183060
303030
603018
603018
603018
C0300C
C0300C
DFFFEC
DFFFEC
C0300C
C0300C
603018
603018
303030
383070
1C30E0
0F03C0
03FF00
00FC00
ENDCHAR
STARTCHAR emptyset
ENCODING 198
SWIDTH 823 0
DWIDTH 27 0
BBX 24 24 1 0
BITMAP
007E02
03FFC6
0781EE
0E007C
180038
30007C
7000EE
6001C6
600386
C00703
C00E03
C01C03
C03803
C07003
C0E003
61C006
638006
77000E
3E000C
1C0018
3E0070
7781E0
E3FFC0
C07E00
ENDCHAR
STARTCHAR intersection
ENCODING 199
SWIDTH 768 0
DWIDTH 25 0
BBX 22 17 1 0
BITMAP
00FC00
03FF00
0F03C0
1C00E0
380070
300030
600018
600018
C0000C
C0000C
C0000C
C0000C
C0000C
C0000C
C0000C
C0000C
C0000C
ENDCHAR
STARTCHAR union
ENCODING 200
SWIDTH 768 0
DWIDTH 25 0
BBX 22 17 1 0
BITMAP
C0000C
C0000C
C0000C
C0000C
C0000C
C0000C
C0000C
C0000C
C0000C
600018
600018
300030
380070
1C00E0
0F03C0
03FF00
00FC00
ENDCHAR
STARTCHAR propersuperset
ENCODING 201
SWIDTH 713 0
DWIDTH 23 0
BBX 21 16 1 0
BITMAP
FFFF00
FFFFC0
0001E0
000070
000030
000038
000018
000018
000018
000018
000018
000030
000070
0000E0
FFFFC0
FFFF00
ENDCHAR
STARTCHAR reflexsuperset
ENCODING 202
SWIDTH 713 0
DWIDTH 23 0
BBX 21 20 1 -4
BITMAP
FFFF00
FFFFC0
0000E0
000070
000030
000018
000018
000018
000018
000018
000018
000030
000070
0000E0
FFFFC0
FFFF00
000000
000000
FFFFF0
FFFFF0
ENDCHAR
STARTCHAR notsubset
ENCODING 203
SWIDTH 713 0
DWIDTH 23 0
BBX 21 20 1 -2
BITMAP
000060
0000C0
07FFF8
0FFFF8
380180
700300
600300
E00600
C00600
C00C00
C00C00
C01800
E01800
603000
703000
3C6000
1FFFF8
07FFF8
00C000
018000
ENDCHAR
STARTCHAR propersubset
ENCODING 204
SWIDTH 713 0
DWIDTH 23 0
BBX 21 16 1 0
BITMAP
07FFF8
1FFFF8
380000
700000
600000
C00000
C00000
C00000
C00000
C00000
E00000
600000
700000
3C0000
1FFFF8
07FFF8
ENDCHAR
STARTCHAR reflexsubset
ENCODING 205
SWIDTH 713 0
DWIDTH 23 0
BBX 21 20 1 -4
BITMAP
07FFF8
1FFFF8
380000
700000
600000
C00000
C00000
C00000
C00000
C00000
C00000
600000
700000
380000
1FFFF8
07FFF8
000000
000000
7FFFF8
7FFFF8
ENDCHAR
STARTCHAR element
ENCODING 206
SWIDTH 713 0
DWIDTH 23 0
BBX 15 16 1 0
BITMAP
07FE
1FFE
3800
7000
6000
C000
C000
FFFE
FFFE
C000
C000
6000
7000
3800
1FFE
07FE
ENDCHAR
STARTCHAR notelement
ENCODING 207
SWIDTH 713 0
DWIDTH 23 0
BBX 15 20 1 -2
BITMAP
0018
0018
07FE
1FFE
3860
7060
60C0
40C0
C180
FFFE
FFFE
C300
4600
6E00
7C00
3C00
1FFE
37FE
3000
2000
ENDCHAR
STARTCHAR angle
ENCODING 208
SWIDTH 768 0
DWIDTH 25 0
BBX 22 22 1 0
BITMAP
00000C
00001C
000038
000070
0000E0
0001C0
000380
000700
000E00
001C00
003800
007000
006000
00C000
018000
030000
070000
0E0000
1C0000
380000
7FFFF8
FFFFF8
ENDCHAR
STARTCHAR gradient
ENCODING 209
SWIDTH 713 0
DWIDTH 23 0
BBX 20 24 1 0
BITMAP
FFFFF0
7FFFF0
780030
780020
3C0060
3C0040
1C00C0
1E00C0
1E0180
0F0180
0F0100
070300
078200
078600
03C400
03CC00
03CC00
01F800
01F800
00F000
00F000
00E000
006000
004000
ENDCHAR
STARTCHAR registerserif
ENCODING 210
SWIDTH 790 0
DWIDTH 25 0
BBX 21 22 2 0
BITMAP
01FC00
070700
0C01C0
1800C0
33F860
618E30
418610
C18618
C18618
818C08
81F808
81B808
819808
C19C18
C18E18
418710
67C3B0
300060
1800C0
1C01C0
070700
01FC00
ENDCHAR
STARTCHAR copyrightserif
ENCODING 211
SWIDTH 790 0
DWIDTH 25 0
BBX 21 23 2 0
BITMAP
01FC00
07CF00
0E0180
1800C0
300060
300030
607D30
41C710
C30318
C30118
860008
860008
860008
860008
860008
C70018
430318
61C710
20FC30
300060
1C00C0
078780
01FE00
ENDCHAR
STARTCHAR trademarkserif
ENCODING 212
SWIDTH 890 0
DWIDTH 29 0
BBX 27 13 1 10
BITMAP
FFDC01E0
CCCE0380
8C4E0380
0C0F0780
0C0B0580
0C0B8D80
0C098D80
0C09C980
0C08D980
0C08F180
0C087180
0C086180
3E1E27E0
ENDCHAR
STARTCHAR product
ENCODING 213
SWIDTH 823 0
DWIDTH 27 0
BBX 25 27 1 0
BITMAP
FFFFFF80
3FFFFE00
1E003C00
1E003C00
1E003C00
1E003C00
1E003C00
1E003C00
1E003C00
1E003C00
1E003C00
1E003C00
1E003C00
1E003C00
1E003C00
1E003C00
1E003C00
1E003C00
1E003C00
1E003C00
1E003C00
1E003C00
1E003C00
1E003C00
1E003C00
3F007E00
FFC1FF80
ENDCHAR
STARTCHAR radical
ENCODING 214
SWIDTH 549 0
DWIDTH 18 0
BBX 17 27 0 0
BITMAP
000080
000080
000080
000080
000180
000100
000100
000300
000200
080200
380200
EC0600
0C0400
060400
060400
030400
030C00
018C00
018800
00C800
00C800
006800
007800
003800
003000
001000
001000
ENDCHAR
STARTCHAR dotmath
ENCODING 215
SWIDTH 250 0
DWIDTH 8 0
BBX 3 3 2 7
BITMAP
E0
E0
E0
ENDCHAR
STARTCHAR logicalnot
ENCODING 216
SWIDTH 713 0
DWIDTH 23 0
BBX 21 10 1 0
BITMAP
FFFFF8
FFFFF8
000018
000018
000018
000018
000018
000018
000018
000018
ENDCHAR
STARTCHAR logicaland
ENCODING 217
SWIDTH 603 0
DWIDTH 20 0
BBX 16 15 2 0
BITMAP
0180
0180
03C0
03C0
0660
0E70
0C30
1C38
1818
300C
300C
6006
E007
C003
8001
ENDCHAR
STARTCHAR logicalor
ENCODING 218
SWIDTH 603 0
DWIDTH 20 0
BBX 16 15 2 0
BITMAP
8001
C003
E007
6006
300C
300C
1818
1C38
0C30
0660
0660
03C0
03C0
0180
0180
ENDCHAR
STARTCHAR arrowdblboth
ENCODING 219
SWIDTH 1042 0
DWIDTH 34 0
BBX 32 18 1 0
BITMAP
00800100
01800180
030000C0
06000060
0FFFFFF0
1FFFFFF8
3800001C
7000000E
E0000007
E0000007
7000000E
3800001C
1FFFFFF8
0FFFFFF0
06000060
030000C0
01800180
00800100
ENDCHAR
STARTCHAR arrowdblleft
ENCODING 220
SWIDTH 987 0
DWIDTH 32 0
BBX 29 17 1 0
BITMAP
00800000
01800000
03000000
06000000
0FFFFFF8
1FFFFFF8
38000000
70000000
E0000000
70000000
38000000
1FFFFFF8
0FFFFFF8
06000000
03000000
01800000
00800000
ENDCHAR
STARTCHAR arrowdblup
ENCODING 221
SWIDTH 603 0
DWIDTH 20 0
BBX 17 27 1 0
BITMAP
008000
01C000
03E000
077000
0E3800
1C1C00
3C1E00
7C1F00
EC1B80
0C1800
0C1800
0C1800
0C1800
0C1800
0C1800
0C1800
0C1800
0C1800
0C1800
0C1800
0C1800
0C1800
0C1800
0C1800
0C1800
0C1800
0C1800
ENDCHAR
STARTCHAR arrowdblright
ENCODING 222
SWIDTH 987 0
DWIDTH 32 0
BBX 29 17 2 0
BITMAP
00000800
00000C00
00000600
00000300
FFFFFF80
FFFFFFC0
000000E0
00000070
00000038
00000070
000000E0
FFFFFFC0
FFFFFF80
00000300
00000600
00000C00
00000800
ENDCHAR
STARTCHAR arrowdbldown
ENCODING 223
SWIDTH 603 0
DWIDTH 20 0
BBX 17 27 1 0
BITMAP
0C1800
0C1800
0C1800
0C1800
0C1800
0C1800
0C1800
0C1800
0C1800
0C1800
0C1800
0C1800
0C1800
0C1800
0C1800
0C1800
0C1800
0C1800
EC1B80
7C1F00
3C1E00
1C1C00
0E3800
077000
03E000
01C000
008000
ENDCHAR
STARTCHAR lozenge
ENCODING 224
SWIDTH 494 0
DWIDTH 16 0
BBX 14 25 1 0
BITMAP
0300
0780
0780
0CC0
0CC0
1860
1860
3030
3030
6018
6018
C00C
C00C
E01C
6018
6018
3030
3030
1860
1860
0CC0
0CC0
0780
0780
0300
ENDCHAR
STARTCHAR angleleft
ENCODING 225
SWIDTH 329 0
DWIDTH 11 0
BBX 9 30 1 -6
BITMAP
0180
0300
0300
0600
0600
0E00
0C00
1C00
1800
3800
3000
3000
6000
6000
C000
C000
6000
6000
3000
3000
3800
1800
1C00
0C00
0E00
0600
0600
0300
0300
0180
ENDCHAR
STARTCHAR registersans
ENCODING 226
SWIDTH 790 0
DWIDTH 26 0
BBX 21 22 2 0
BITMAP
01FC00
070F00
0C0180
1800C0
300060
63FE30
430610
C30318
C30318
C30318
830608
83FC08
830608
C30318
C30318
430310
630330
200020
300060
1C01C0
070F00
03FC00
ENDCHAR
STARTCHAR copyrightsans
ENCODING 227
SWIDTH 790 0
DWIDTH 26 0
BBX 21 23 2 0
BITMAP
01FC00
07DF00
0E0380
1800C0
300060
200020
60FC30
41CE10
C30618
C30318
C20008
860008
860008
860008
860318
C30318
430618
61CE30
20F830
300060
1C00C0
0F8780
03FE00
ENDCHAR
STARTCHAR trademarksans
ENCODING 228
SWIDTH 786 0
DWIDTH 25 0
BBX 22 13 1 10
BITMAP
FF381C
18381C
18381C
183C3C
183C3C
18342C
18366C
18366C
18324C
1833CC
1833CC
18318C
18318C
ENDCHAR
STARTCHAR summation
ENCODING 229
SWIDTH 713 0
DWIDTH 23 0
BBX 21 28 1 -1
BITMAP
FFFFE0
7803E0
7C0060
3C0060
1E0020
0F0000
0F8000
078000
03C000
03E000
01F000
00F000
007800
007800
003800
003000
006000
00C000
018000
038000
030000
060008
0C0018
180018
300030
7FFFF0
7FFFF0
FFFFF0
ENDCHAR
STARTCHAR parenlefttp
ENCODING 230
SWIDTH 384 0
DWIDTH 13 0
BBX 13 34 1 -7
BITMAP
0018
0078
00E0
01C0
0380
0300
0600
0C00
0C00
1800
1800
3800
3000
3000
3000
6000
6000
6000
6000
6000
C000
C000
C000
C000
C000
C000
C000
C000
C000
C000
C000
C000
C000
C000
ENDCHAR
STARTCHAR parenleftex
ENCODING 231
SWIDTH 384 0
DWIDTH 13 0
BBX 2 34 1 -7
BITMAP
C0
C0
C0
C0
C0
C0
C0
C0
C0
C0
C0
C0
C0
C0
C0
C0
C0
C0
C0
C0
C0
C0
C0
C0
C0
C0
C0
C0
C0
C0
C0
C0
C0
C0
ENDCHAR
STARTCHAR parenleftbt
ENCODING 232
SWIDTH 384 0
DWIDTH 13 0
BBX 13 34 1 -7
BITMAP
C000
C000
C000
C000
C000
C000
C000
C000
C000
C000
C000
C000
C000
C000
6000
6000
6000
6000
6000
3000
3000
3000
3800
1800
1800
0C00
0C00
0600
0300
0380
01C0
00E0
0078
0018
ENDCHAR
STARTCHAR bracketlefttp
ENCODING 233
SWIDTH 384 0
DWIDTH 13 0
BBX 11 34 0 -7
BITMAP
FFE0
FFE0
C000
C000
C000
C000
C000
C000
C000
C000
C000
C000
C000
C000
C000
C000
C000
C000
C000
C000
C000
C000
C000
C000
C000
C000
C000
C000
C000
C000
C000
C000
C000
C000
ENDCHAR
STARTCHAR bracketleftex
ENCODING 234
SWIDTH 384 0
DWIDTH 13 0
BBX 2 34 0 -7
BITMAP
C0
C0
C0
C0
C0
C0
C0
C0
C0
C0
C0
C0
C0
C0
C0
C0
C0
C0
C0
C0
C0
C0
C0
C0
C0
C0
C0
C0
C0
C0
C0
C0
C0
C0
ENDCHAR
STARTCHAR bracketleftbt
ENCODING 235
SWIDTH 384 0
DWIDTH 13 0
BBX 11 34 0 -7
BITMAP
C000
C000
C000
C000
C000
C000
C000
C000
C000
C000
C000
C000
C000
C000
C000
C000
C000
C000
C000
C000
C000
C000
C000
C000
C000
C000
C000
C000
C000
C000
C000
C000
FFE0
FFE0
ENDCHAR
STARTCHAR bracelefttp
ENCODING 236
SWIDTH 494 0
DWIDTH 16 0
BBX 8 34 6 -7
BITMAP
07
1F
38
70
60
60
E0
C0
C0
C0
C0
C0
C0
C0
C0
C0
C0
C0
C0
C0
C0
C0
C0
C0
C0
C0
C0
C0
C0
C0
C0
C0
C0
C0
ENDCHAR
STARTCHAR braceleftmid
ENCODING 237
SWIDTH 494 0
DWIDTH 16 0
BBX 9 34 -1 -7
BITMAP
0180
0180
0180
0180
0180
0180
0180
0180
0180
0180
0180
0300
0300
0600
0C00
3800
E000
7800
0C00
0600
0300
0300
0180
0180
0180
0180
0180
0180
0180
0180
0180
0180
0180
0180
ENDCHAR
STARTCHAR braceleftbt
ENCODING 238
SWIDTH 494 0
DWIDTH 16 0
BBX 8 34 6 -7
BITMAP
C0
C0
C0
C0
C0
C0
C0
C0
C0
C0
C0
C0
C0
C0
C0
C0
C0
C0
C0
C0
C0
C0
C0
C0
C0
C0
C0
E0
60
60
70
38
1F
07
ENDCHAR
STARTCHAR braceex
ENCODING 239
SWIDTH 494 0
DWIDTH 16 0
BBX 2 34 6 -7
BITMAP
C0
C0
C0
C0
C0
C0
C0
C0
C0
C0
C0
C0
C0
C0
C0
C0
C0
C0
C0
C0
C0
C0
C0
C0
C0
C0
C0
C0
C0
C0
C0
C0
C0
C0
ENDCHAR
STARTCHAR angleright
ENCODING 241
SWIDTH 329 0
DWIDTH 11 0
BBX 9 30 1 -6
BITMAP
C000
6000
6000
3000
3000
3800
1800
1C00
0C00
0E00
0600
0600
0300
0300
0180
0180
0300
0300
0600
0600
0E00
0C00
1C00
1800
3800
3000
3000
6000
6000
C000
ENDCHAR
STARTCHAR integral
ENCODING 242
SWIDTH 274 0
DWIDTH 9 0
BBX 9 33 0 -6
BITMAP
0300
0780
0780
0C00
0C00
0C00
0C00
0C00
0C00
0C00
0C00
0C00
0C00
0C00
0C00
0C00
0C00
0C00
0C00
0C00
0C00
0C00
0C00
0C00
0C00
0C00
0C00
0C00
0C00
0C00
F800
F800
7000
ENDCHAR
STARTCHAR integraltp
ENCODING 243
SWIDTH 686 0
DWIDTH 23 0
BBX 12 34 10 -7
BITMAP
01E0
03F0
0670
0CF0
0860
1800
1800
3000
3000
3000
7000
6000
6000
6000
6000
E000
E000
E000
E000
E000
E000
E000
E000
E000
E000
E000
E000
E000
E000
E000
E000
E000
E000
E000
ENDCHAR
STARTCHAR integralex
ENCODING 244
SWIDTH 686 0
DWIDTH 22 0
BBX 3 34 10 -7
BITMAP
E0
E0
E0
E0
E0
E0
E0
E0
E0
E0
E0
E0
E0
E0
E0
E0
E0
E0
E0
E0
E0
E0
E0
E0
E0
E0
E0
E0
E0
E0
E0
E0
E0
E0
ENDCHAR
STARTCHAR integralbt
ENCODING 245
SWIDTH 686 0
DWIDTH 22 0
BBX 12 34 1 -7
BITMAP
0070
0070
0070
0070
0070
0070
0070
0070
0070
0070
0070
0070
0070
0070
0070
0070
0070
0070
0070
0060
0060
0060
0060
00E0
00C0
00C0
00C0
0180
0180
6100
F300
E600
FC00
7800
ENDCHAR
STARTCHAR parenrighttp
ENCODING 246
SWIDTH 384 0
DWIDTH 13 0
BBX 13 34 0 -7
BITMAP
C000
F000
3800
1800
0C00
0600
0300
0100
0180
00C0
00C0
00C0
0060
0060
0060
0030
0030
0030
0030
0030
0010
0010
0018
0018
0018
0018
0018
0018
0018
0018
0018
0018
0018
0018
ENDCHAR
STARTCHAR parenrightex
ENCODING 247
SWIDTH 384 0
DWIDTH 13 0
BBX 2 34 11 -7
BITMAP
C0
C0
C0
C0
C0
C0
C0
C0
C0
C0
C0
C0
C0
C0
C0
C0
C0
C0
C0
C0
C0
C0
C0
C0
C0
C0
C0
C0
C0
C0
C0
C0
C0
C0
ENDCHAR
STARTCHAR parenrightbt
ENCODING 248
SWIDTH 384 0
DWIDTH 13 0
BBX 13 34 0 -7
BITMAP
0018
0018
0018
0018
0018
0018
0018
0018
0018
0018
0018
0018
0010
0010
0030
0030
0030
0030
0030
0060
0060
0060
00C0
00C0
00C0
0180
0100
0300
0600
0C00
1C00
3800
F000
C000
ENDCHAR
STARTCHAR bracketrighttp
ENCODING 249
SWIDTH 384 0
DWIDTH 13 0
BBX 11 34 1 -7
BITMAP
FFE0
FFE0
0060
0060
0060
0060
0060
0060
0060
0060
0060
0060
0060
0060
0060
0060
0060
0060
0060
0060
0060
0060
0060
0060
0060
0060
0060
0060
0060
0060
0060
0060
0060
0060
ENDCHAR
STARTCHAR bracketrightex
ENCODING 250
SWIDTH 384 0
DWIDTH 13 0
BBX 2 34 10 -7
BITMAP
C0
C0
C0
C0
C0
C0
C0
C0
C0
C0
C0
C0
C0
C0
C0
C0
C0
C0
C0
C0
C0
C0
C0
C0
C0
C0
C0
C0
C0
C0
C0
C0
C0
C0
ENDCHAR
STARTCHAR bracketrightbt
ENCODING 251
SWIDTH 384 0
DWIDTH 13 0
BBX 11 34 1 -7
BITMAP
0060
0060
0060
0060
0060
0060
0060
0060
0060
0060
0060
0060
0060
0060
0060
0060
0060
0060
0060
0060
0060
0060
0060
0060
0060
0060
0060
0060
0060
0060
0060
0060
FFE0
FFE0
ENDCHAR
STARTCHAR bracerighttp
ENCODING 252
SWIDTH 494 0
DWIDTH 16 0
BBX 8 34 0 -7
BITMAP
E0
78
1C
0E
06
06
03
03
03
03
03
03
03
03
03
03
03
03
03
03
03
03
03
03
03
03
03
03
03
03
03
03
03
03
ENDCHAR
STARTCHAR bracerightmid
ENCODING 253
SWIDTH 494 0
DWIDTH 16 0
BBX 9 34 6 -7
BITMAP
C000
C000
C000
C000
C000
C000
C000
C000
C000
C000
C000
6000
6000
3000
1800
0E00
0380
0E00
1800
3000
6000
6000
C000
C000
C000
C000
C000
C000
C000
C000
C000
C000
C000
C000
ENDCHAR
STARTCHAR bracerightbt
ENCODING 254
SWIDTH 494 0
DWIDTH 16 0
BBX 8 33 0 -6
BITMAP
03
03
03
03
03
03
03
03
03
03
03
03
03
03
03
03
03
03
03
03
03
03
03
03
03
03
03
06
06
0E
1C
78
E0
ENDCHAR
STARTCHAR apple
ENCODING -1
SWIDTH 790 0
DWIDTH 26 0
BBX 21 27 2 0
BITMAP
0001C0
000780
000F00
000F00
001E00
001C00
0787C0
1FFFF0
3FFFF8
7FFFF0
7FFFE0
FFFFE0
FFFFC0
FFFFC0
FFFFC0
FFFFC0
FFFFE0
FFFFE0
7FFFF0
7FFFF8
7FFFF8
3FFFF8
3FFFF0
1FFFF0
0FFFE0
0FFFC0
038780
ENDCHAR
ENDFONT
