STARTFONT 2.1
FONT -Adobe-Symbol-Medium-R-Normal--17-120-100-100-P-95-Adobe-FontSpecific
SIZE 12 100 100
FONTBOUNDINGBOX 20 17 -3 -4
COMMENT 
COMMENT +
COMMENT  Copyright 1984-1989, 1994 Adobe Systems Incorporated.
COMMENT  Copyright 1988, 1994 Digital Equipment Corporation.
COMMENT
COMMENT  Adobe is a trademark of Adobe Systems Incorporated which may be
COMMENT  registered in certain jurisdictions.
COMMENT  Permission to use these trademarks is hereby granted only in
COMMENT  association with the images described in this file.
COMMENT
COMMENT  Permission to use, copy, modify, distribute and sell this software
COMMENT  and its documentation for any purpose and without fee is hereby
COMMENT  granted, provided that the above copyright notices appear in all
COMMENT  copies and that both those copyright notices and this permission
COMMENT  notice appear in supporting documentation, and that the names of
COMMENT  Adobe Systems and Digital Equipment Corporation not be used in
COMMENT  advertising or publicity pertaining to distribution of the software
COMMENT  without specific, written prior permission.  Adobe Systems and
COMMENT  Digital Equipment Corporation make no representations about the
COMMENT  suitability of this software for any purpose.  It is provided "as
COMMENT  is" without express or implied warranty.
COMMENT -
STARTPROPERTIES 27
FOUNDRY "Adobe"
FAMILY_NAME "Symbol"
WEIGHT_NAME "Medium"
SLANT "R"
SETWIDTH_NAME "Normal"
ADD_STYLE_NAME ""
PIXEL_SIZE 17
POINT_SIZE 120
RESOLUTION_X 100
RESOLUTION_Y 100
SPACING "P"
AVERAGE_WIDTH 95
CHARSET_REGISTRY "Adobe"
CHARSET_ENCODING "FontSpecific"
CAP_HEIGHT 11
X_HEIGHT 9
FONT_ASCENT 13
FONT_DESCENT 4
FACE_NAME "Symbol"
COPYRIGHT "Copyright (c) 1984, 1987 Adobe Systems Incorporated. All Rights Reserved. Copyright (c) 1988, 1991 Digital Equipment Corporation. All Rights Reserved."
NOTICE "No mark"
_DEC_DEVICE_FONTNAMES "PS=Symbol"
_DEC_PRODUCTINFO "DECwindows Fonts V2.2-1, 18-Nov-1991"
DEFAULT_CHAR 32
RELATIVE_SETWIDTH 50
RELATIVE_WEIGHT 50
FULL_NAME "Symbol"
ENDPROPERTIES
CHARS 189
STARTCHAR space
ENCODING 32
SWIDTH 250 0
DWIDTH 4 0
BBX 1 1 0 0
BITMAP
00
ENDCHAR
STARTCHAR exclam
ENCODING 33
SWIDTH 333 0
DWIDTH 5 0
BBX 3 11 1 0
BITMAP
40
E0
E0
E0
40
40
40
00
40
E0
40
ENDCHAR
STARTCHAR universal
ENCODING 34
SWIDTH 713 0
DWIDTH 11 0
BBX 11 12 0 0
BITMAP
8020
8020
4040
4040
3F80
2080
1100
1100
0A00
0A00
0400
0400
ENDCHAR
STARTCHAR numbersign
ENCODING 35
SWIDTH 500 0
DWIDTH 8 0
BBX 8 11 0 0
BITMAP
12
12
12
7F
24
24
24
FE
48
48
48
ENDCHAR
STARTCHAR existential
ENCODING 36
SWIDTH 549 0
DWIDTH 9 0
BBX 7 12 0 0
BITMAP
FE
02
02
02
02
7E
02
02
02
02
02
FE
ENDCHAR
STARTCHAR percent
ENCODING 37
SWIDTH 833 0
DWIDTH 13 0
BBX 11 12 1 -1
BITMAP
3040
6F80
C900
C900
9A00
94C0
65A0
0B20
0B20
1260
2240
2180
ENDCHAR
STARTCHAR ampersand
ENCODING 38
SWIDTH 778 0
DWIDTH 13 0
BBX 12 11 0 0
BITMAP
0E00
1900
1100
1A00
0CF0
3840
4C80
C680
8300
C590
78E0
ENDCHAR
STARTCHAR suchthat
ENCODING 39
SWIDTH 439 0
DWIDTH 7 0
BBX 5 8 1 0
BITMAP
E0
10
18
78
18
18
10
E0
ENDCHAR
STARTCHAR parenleft
ENCODING 40
SWIDTH 333 0
DWIDTH 5 0
BBX 4 14 0 -2
BITMAP
10
20
40
40
80
80
80
80
80
80
40
40
20
10
ENDCHAR
STARTCHAR parenright
ENCODING 41
SWIDTH 333 0
DWIDTH 5 0
BBX 4 14 0 -2
BITMAP
80
40
20
20
10
10
10
10
10
10
20
20
40
80
ENDCHAR
STARTCHAR asteriskmath
ENCODING 42
SWIDTH 500 0
DWIDTH 8 0
BBX 5 5 1 3
BITMAP
20
A8
70
A8
20
ENDCHAR
STARTCHAR plus
ENCODING 43
SWIDTH 549 0
DWIDTH 9 0
BBX 9 9 0 0
BITMAP
0800
0800
0800
0800
FF80
0800
0800
0800
0800
ENDCHAR
STARTCHAR comma
ENCODING 44
SWIDTH 250 0
DWIDTH 4 0
BBX 3 5 1 -2
BITMAP
40
E0
60
40
80
ENDCHAR
STARTCHAR minus
ENCODING 45
SWIDTH 549 0
DWIDTH 9 0
BBX 9 1 0 4
BITMAP
FF80
ENDCHAR
STARTCHAR period
ENCODING 46
SWIDTH 250 0
DWIDTH 4 0
BBX 3 3 1 0
BITMAP
40
E0
40
ENDCHAR
STARTCHAR slash
ENCODING 47
SWIDTH 278 0
DWIDTH 5 0
BBX 5 11 -1 0
BITMAP
08
08
10
10
20
20
20
40
40
80
80
ENDCHAR
STARTCHAR zero
ENCODING 48
SWIDTH 500 0
DWIDTH 8 0
BBX 7 12 0 0
BITMAP
38
6C
44
C6
82
82
82
82
C6
44
6C
38
ENDCHAR
STARTCHAR one
ENCODING 49
SWIDTH 500 0
DWIDTH 8 0
BBX 5 12 1 0
BITMAP
20
60
A0
20
20
20
20
20
20
20
20
F8
ENDCHAR
STARTCHAR two
ENCODING 50
SWIDTH 500 0
DWIDTH 8 0
BBX 7 12 0 0
BITMAP
38
4C
86
02
02
04
04
08
10
22
7E
FC
ENDCHAR
STARTCHAR three
ENCODING 51
SWIDTH 500 0
DWIDTH 8 0
BBX 6 12 1 0
BITMAP
38
4C
84
04
08
38
0C
04
04
04
C8
70
ENDCHAR
STARTCHAR four
ENCODING 52
SWIDTH 500 0
DWIDTH 8 0
BBX 7 12 0 0
BITMAP
04
04
0C
14
14
24
44
44
FE
04
04
04
ENDCHAR
STARTCHAR five
ENCODING 53
SWIDTH 500 0
DWIDTH 8 0
BBX 7 12 0 0
BITMAP
3E
3C
40
40
F0
F8
0C
04
04
04
C8
F0
ENDCHAR
STARTCHAR six
ENCODING 54
SWIDTH 500 0
DWIDTH 8 0
BBX 6 12 1 0
BITMAP
0C
30
60
40
F8
CC
84
84
84
84
4C
38
ENDCHAR
STARTCHAR seven
ENCODING 55
SWIDTH 500 0
DWIDTH 8 0
BBX 6 12 1 0
BITMAP
FC
FC
88
08
08
10
10
10
10
20
20
20
ENDCHAR
STARTCHAR eight
ENCODING 56
SWIDTH 500 0
DWIDTH 8 0
BBX 6 12 1 0
BITMAP
30
48
84
C4
68
30
58
8C
84
84
48
30
ENDCHAR
STARTCHAR nine
ENCODING 57
SWIDTH 500 0
DWIDTH 8 0
BBX 6 12 1 0
BITMAP
70
C8
84
84
84
84
CC
7C
08
18
30
C0
ENDCHAR
STARTCHAR colon
ENCODING 58
SWIDTH 278 0
DWIDTH 4 0
BBX 3 8 1 0
BITMAP
40
E0
40
00
00
40
E0
40
ENDCHAR
STARTCHAR semicolon
ENCODING 59
SWIDTH 278 0
DWIDTH 4 0
BBX 3 10 1 -2
BITMAP
40
E0
40
00
00
40
E0
60
40
80
ENDCHAR
STARTCHAR less
ENCODING 60
SWIDTH 549 0
DWIDTH 9 0
BBX 8 9 0 0
BITMAP
01
06
18
60
80
60
18
06
01
ENDCHAR
STARTCHAR equal
ENCODING 61
SWIDTH 549 0
DWIDTH 9 0
BBX 9 4 0 2
BITMAP
FF80
0000
0000
FF80
ENDCHAR
STARTCHAR greater
ENCODING 62
SWIDTH 549 0
DWIDTH 9 0
BBX 8 9 0 0
BITMAP
80
60
18
06
01
06
18
60
80
ENDCHAR
STARTCHAR question
ENCODING 63
SWIDTH 444 0
DWIDTH 7 0
BBX 6 11 0 0
BITMAP
78
9C
8C
0C
18
10
20
00
20
70
20
ENDCHAR
STARTCHAR congruent
ENCODING 64
SWIDTH 549 0
DWIDTH 9 0
BBX 8 8 0 0
BITMAP
71
8E
00
00
FF
00
00
FF
ENDCHAR
STARTCHAR Alpha
ENCODING 65
SWIDTH 722 0
DWIDTH 12 0
BBX 11 11 0 0
BITMAP
0400
0400
0E00
0E00
1300
1300
2180
3F80
41C0
40C0
E1E0
ENDCHAR
STARTCHAR Beta
ENCODING 66
SWIDTH 667 0
DWIDTH 11 0
BBX 9 11 1 0
BITMAP
FE00
6300
6180
6180
6300
7E00
6300
6180
6180
6300
FE00
ENDCHAR
STARTCHAR Chi
ENCODING 67
SWIDTH 722 0
DWIDTH 12 0
BBX 10 11 0 0
BITMAP
F1C0
6080
3100
1A00
1A00
0C00
1600
1300
2300
4180
E3C0
ENDCHAR
STARTCHAR Delta
ENCODING 68
SWIDTH 612 0
DWIDTH 10 0
BBX 10 11 0 0
BITMAP
0400
0400
0E00
0E00
1300
1300
2300
2180
4180
40C0
FFC0
ENDCHAR
STARTCHAR Epsilon
ENCODING 69
SWIDTH 611 0
DWIDTH 10 0
BBX 8 11 1 0
BITMAP
FF
61
60
60
62
7E
62
60
60
61
FF
ENDCHAR
STARTCHAR Phi
ENCODING 70
SWIDTH 763 0
DWIDTH 12 0
BBX 12 11 0 0
BITMAP
0F00
0600
3FC0
6660
C630
C630
C630
6660
3FC0
0600
0F00
ENDCHAR
STARTCHAR Gamma
ENCODING 71
SWIDTH 603 0
DWIDTH 10 0
BBX 9 11 1 0
BITMAP
FF80
6180
6000
6000
6000
6000
6000
6000
6000
6000
F000
ENDCHAR
STARTCHAR Eta
ENCODING 72
SWIDTH 722 0
DWIDTH 12 0
BBX 11 11 0 0
BITMAP
F1E0
60C0
60C0
60C0
60C0
7FC0
60C0
60C0
60C0
60C0
F1E0
ENDCHAR
STARTCHAR Iota
ENCODING 73
SWIDTH 333 0
DWIDTH 6 0
BBX 4 11 1 0
BITMAP
F0
60
60
60
60
60
60
60
60
60
F0
ENDCHAR
STARTCHAR theta1
ENCODING 74
SWIDTH 631 0
DWIDTH 10 0
BBX 9 12 0 0
BITMAP
0C00
1200
1100
0900
4500
A300
2180
2100
2100
2100
2200
1C00
ENDCHAR
STARTCHAR Kappa
ENCODING 75
SWIDTH 722 0
DWIDTH 12 0
BBX 10 11 1 0
BITMAP
F3C0
6100
6200
6400
6800
7800
6C00
6600
6300
6180
F3C0
ENDCHAR
STARTCHAR Lambda
ENCODING 76
SWIDTH 686 0
DWIDTH 11 0
BBX 11 11 0 0
BITMAP
0400
0400
0E00
0E00
1300
1300
2180
2180
40C0
40C0
E1E0
ENDCHAR
STARTCHAR Mu
ENCODING 77
SWIDTH 889 0
DWIDTH 14 0
BBX 13 11 1 0
BITMAP
E038
6070
7070
70B0
58B0
5930
4D30
4E30
4630
4430
E078
ENDCHAR
STARTCHAR Nu
ENCODING 78
SWIDTH 722 0
DWIDTH 11 0
BBX 10 11 1 0
BITMAP
E1C0
7080
7080
5880
5C80
4E80
4680
4380
4380
4180
E080
ENDCHAR
STARTCHAR Omicron
ENCODING 79
SWIDTH 722 0
DWIDTH 12 0
BBX 11 11 0 0
BITMAP
1F00
71C0
60C0
C060
C060
C060
C060
C060
60C0
71C0
1F00
ENDCHAR
STARTCHAR Pi
ENCODING 80
SWIDTH 768 0
DWIDTH 12 0
BBX 11 11 1 0
BITMAP
FFE0
60C0
60C0
60C0
60C0
60C0
60C0
60C0
60C0
60C0
F1E0
ENDCHAR
STARTCHAR Theta
ENCODING 81
SWIDTH 741 0
DWIDTH 12 0
BBX 11 11 0 0
BITMAP
1F00
71C0
60C0
C060
D160
DF60
D160
C060
60C0
71C0
1F00
ENDCHAR
STARTCHAR Rho
ENCODING 82
SWIDTH 556 0
DWIDTH 9 0
BBX 8 11 1 0
BITMAP
FC
66
63
63
66
7C
60
60
60
60
F0
ENDCHAR
STARTCHAR Sigma
ENCODING 83
SWIDTH 592 0
DWIDTH 10 0
BBX 9 11 0 0
BITMAP
FF80
6080
3000
1800
0C00
0C00
0800
1080
2080
7F80
FF80
ENDCHAR
STARTCHAR Tau
ENCODING 84
SWIDTH 611 0
DWIDTH 10 0
BBX 10 11 0 0
BITMAP
FFC0
8C40
8C40
0C00
0C00
0C00
0C00
0C00
0C00
0C00
1E00
ENDCHAR
STARTCHAR Upsilon
ENCODING 85
SWIDTH 690 0
DWIDTH 11 0
BBX 10 11 1 0
BITMAP
F1C0
6080
3100
3100
1A00
0C00
0C00
0C00
0C00
0C00
1E00
ENDCHAR
STARTCHAR sigma1
ENCODING 86
SWIDTH 439 0
DWIDTH 8 0
BBX 7 12 0 -4
BITMAP
3C
4C
80
80
80
80
7C
3E
02
02
3C
38
ENDCHAR
STARTCHAR Omega
ENCODING 87
SWIDTH 768 0
DWIDTH 12 0
BBX 12 12 0 0
BITMAP
1F80
70E0
6060
C030
C030
C030
C030
6060
30C0
8910
F9F0
F9F0
ENDCHAR
STARTCHAR Xi
ENCODING 88
SWIDTH 645 0
DWIDTH 11 0
BBX 9 11 0 0
BITMAP
FF80
FF80
8080
0000
2200
3E00
2200
0000
8080
FF80
FF80
ENDCHAR
STARTCHAR Psi
ENCODING 89
SWIDTH 795 0
DWIDTH 13 0
BBX 12 11 0 0
BITMAP
CF30
6660
6660
6660
6660
3FC0
0600
0600
0600
0600
0F00
ENDCHAR
STARTCHAR Zeta
ENCODING 90
SWIDTH 611 0
DWIDTH 10 0
BBX 8 11 1 0
BITMAP
FF
83
86
0C
0C
18
30
30
61
C1
FF
ENDCHAR
STARTCHAR bracketleft
ENCODING 91
SWIDTH 333 0
DWIDTH 6 0
BBX 3 14 1 -2
BITMAP
E0
80
80
80
80
80
80
80
80
80
80
80
80
E0
ENDCHAR
STARTCHAR therefore
ENCODING 92
SWIDTH 863 0
DWIDTH 14 0
BBX 9 8 2 0
BITMAP
0800
1C00
0800
0000
0000
4100
E380
4100
ENDCHAR
STARTCHAR bracketright
ENCODING 93
SWIDTH 333 0
DWIDTH 5 0
BBX 3 14 0 -2
BITMAP
E0
20
20
20
20
20
20
20
20
20
20
20
20
E0
ENDCHAR
STARTCHAR perpendicular
ENCODING 94
SWIDTH 658 0
DWIDTH 11 0
BBX 9 11 1 0
BITMAP
0800
0800
0800
0800
0800
0800
0800
0800
0800
0800
FF80
ENDCHAR
STARTCHAR underscore
ENCODING 95
SWIDTH 500 0
DWIDTH 8 0
BBX 8 1 0 -3
BITMAP
FF
ENDCHAR
STARTCHAR radicalex
ENCODING 96
SWIDTH 500 0
DWIDTH 8 0
BBX 10 1 7 12
BITMAP
FFC0
ENDCHAR
STARTCHAR alpha
ENCODING 97
SWIDTH 631 0
DWIDTH 11 0
BBX 10 9 0 0
BITMAP
3980
6580
C300
C300
C300
C200
C640
6540
3880
ENDCHAR
STARTCHAR beta
ENCODING 98
SWIDTH 549 0
DWIDTH 9 0
BBX 8 17 0 -4
BITMAP
3C
46
42
42
46
5C
46
43
43
41
41
63
5E
40
40
40
C0
ENDCHAR
STARTCHAR chi
ENCODING 99
SWIDTH 549 0
DWIDTH 9 0
BBX 8 12 0 -3
BITMAP
63
A2
96
14
1C
18
18
38
28
69
45
C6
ENDCHAR
STARTCHAR delta
ENCODING 100
SWIDTH 494 0
DWIDTH 8 0
BBX 7 12 0 0
BITMAP
78
8C
40
30
18
2C
46
C2
82
C2
44
38
ENDCHAR
STARTCHAR epsilon
ENCODING 101
SWIDTH 439 0
DWIDTH 7 0
BBX 7 9 0 0
BITMAP
38
44
C0
C0
78
C0
C0
42
3C
ENDCHAR
STARTCHAR phi
ENCODING 102
SWIDTH 521 0
DWIDTH 9 0
BBX 7 14 1 -3
BITMAP
10
10
38
54
D6
92
92
92
D6
54
38
10
10
10
ENDCHAR
STARTCHAR gamma
ENCODING 103
SWIDTH 411 0
DWIDTH 7 0
BBX 8 13 -1 -4
BITMAP
61
A1
92
12
14
14
08
08
10
10
30
30
30
ENDCHAR
STARTCHAR eta
ENCODING 104
SWIDTH 603 0
DWIDTH 10 0
BBX 9 12 0 -3
BITMAP
6E00
B100
2100
2100
2100
2100
2100
2100
2100
0100
0100
0180
ENDCHAR
STARTCHAR iota
ENCODING 105
SWIDTH 329 0
DWIDTH 5 0
BBX 6 9 -1 0
BITMAP
20
60
A0
20
20
20
20
34
18
ENDCHAR
STARTCHAR phi1
ENCODING 106
SWIDTH 603 0
DWIDTH 10 0
BBX 9 12 0 -3
BITMAP
2700
4980
C980
8880
8880
8880
C980
4900
3E00
0800
0800
0800
ENDCHAR
STARTCHAR kappa
ENCODING 107
SWIDTH 549 0
DWIDTH 9 0
BBX 8 9 0 0
BITMAP
46
CE
50
50
78
4C
4C
46
4F
ENDCHAR
STARTCHAR lambda
ENCODING 108
SWIDTH 549 0
DWIDTH 9 0
BBX 9 13 0 0
BITMAP
6000
D000
9000
1000
0800
1800
1800
3800
2800
2400
6480
4480
C300
ENDCHAR
STARTCHAR mu
ENCODING 109
SWIDTH 576 0
DWIDTH 9 0
BBX 8 13 1 -4
BITMAP
84
84
84
84
84
84
84
CD
B6
80
80
80
80
ENDCHAR
STARTCHAR nu
ENCODING 110
SWIDTH 521 0
DWIDTH 8 0
BBX 9 9 -1 0
BITMAP
E180
2180
3100
3300
1200
1A00
0C00
0C00
0800
ENDCHAR
STARTCHAR omicron
ENCODING 111
SWIDTH 549 0
DWIDTH 9 0
BBX 7 9 1 0
BITMAP
38
44
C6
82
82
82
C6
44
38
ENDCHAR
STARTCHAR pi
ENCODING 112
SWIDTH 549 0
DWIDTH 9 0
BBX 8 9 0 0
BITMAP
7F
FF
A4
24
24
24
25
67
66
ENDCHAR
STARTCHAR theta
ENCODING 113
SWIDTH 521 0
DWIDTH 9 0
BBX 7 12 1 0
BITMAP
38
6C
44
C6
82
FE
82
82
C6
44
6C
38
ENDCHAR
STARTCHAR rho
ENCODING 114
SWIDTH 549 0
DWIDTH 9 0
BBX 7 13 1 -4
BITMAP
38
4C
86
86
82
82
C6
C4
B8
80
80
80
80
ENDCHAR
STARTCHAR sigma
ENCODING 115
SWIDTH 603 0
DWIDTH 10 0
BBX 9 9 1 0
BITMAP
1F80
7400
C200
C300
8100
C100
4100
6300
1E00
ENDCHAR
STARTCHAR tau
ENCODING 116
SWIDTH 439 0
DWIDTH 7 0
BBX 7 9 0 0
BITMAP
3C
7C
90
10
10
10
12
1E
0C
ENDCHAR
STARTCHAR upsilon
ENCODING 117
SWIDTH 576 0
DWIDTH 9 0
BBX 8 9 1 0
BITMAP
44
E2
A1
21
21
21
21
32
1C
ENDCHAR
STARTCHAR omega1
ENCODING 118
SWIDTH 713 0
DWIDTH 11 0
BBX 10 10 0 0
BITMAP
7FC0
9B00
2080
64C0
4440
4440
4440
4440
64C0
3B80
ENDCHAR
STARTCHAR omega
ENCODING 119
SWIDTH 686 0
DWIDTH 11 0
BBX 9 9 1 0
BITMAP
3600
4100
C980
8880
8880
8880
8880
C980
7700
ENDCHAR
STARTCHAR xi
ENCODING 120
SWIDTH 493 0
DWIDTH 8 0
BBX 7 17 0 -4
BITMAP
40
58
30
40
5C
3C
40
80
80
80
80
7C
3E
02
02
3C
38
ENDCHAR
STARTCHAR psi
ENCODING 121
SWIDTH 686 0
DWIDTH 11 0
BBX 11 13 0 -4
BITMAP
C460
64C0
2480
2480
2480
2480
2480
3580
1F00
0400
0400
0400
0400
ENDCHAR
STARTCHAR zeta
ENCODING 122
SWIDTH 494 0
DWIDTH 8 0
BBX 7 17 1 -4
BITMAP
20
4C
3C
20
40
40
80
80
80
80
80
7C
3E
02
02
3C
38
ENDCHAR
STARTCHAR braceleft
ENCODING 123
SWIDTH 480 0
DWIDTH 8 0
BBX 5 14 1 -2
BITMAP
18
20
20
20
20
20
C0
20
20
20
20
20
20
18
ENDCHAR
STARTCHAR bar
ENCODING 124
SWIDTH 200 0
DWIDTH 3 0
BBX 1 14 1 -3
BITMAP
80
80
80
80
80
80
80
80
80
80
80
80
80
80
ENDCHAR
STARTCHAR braceright
ENCODING 125
SWIDTH 480 0
DWIDTH 8 0
BBX 5 14 1 -2
BITMAP
C0
20
20
20
20
20
18
20
20
20
20
20
20
C0
ENDCHAR
STARTCHAR similar
ENCODING 126
SWIDTH 549 0
DWIDTH 9 0
BBX 8 2 0 3
BITMAP
71
8E
ENDCHAR
STARTCHAR Upsilon1
ENCODING 161
SWIDTH 620 0
DWIDTH 10 0
BBX 10 11 -1 0
BITMAP
E180
12C0
0AC0
0C00
0C00
0C00
0C00
0C00
0C00
0C00
1E00
ENDCHAR
STARTCHAR minute
ENCODING 162
SWIDTH 247 0
DWIDTH 4 0
BBX 3 4 1 8
BITMAP
60
60
C0
80
ENDCHAR
STARTCHAR lessequal
ENCODING 163
SWIDTH 549 0
DWIDTH 9 0
BBX 8 11 0 0
BITMAP
01
06
18
60
80
60
18
06
01
00
FF
ENDCHAR
STARTCHAR fraction
ENCODING 164
SWIDTH 167 0
DWIDTH 3 0
BBX 8 11 -3 0
BITMAP
01
02
02
04
08
10
10
20
40
40
80
ENDCHAR
STARTCHAR infinity
ENCODING 165
SWIDTH 713 0
DWIDTH 12 0
BBX 11 5 0 2
BITMAP
71C0
8A20
8420
8A20
71C0
ENDCHAR
STARTCHAR florin
ENCODING 166
SWIDTH 500 0
DWIDTH 8 0
BBX 7 15 0 -3
BITMAP
06
0A
08
08
08
7E
10
10
10
10
20
20
20
A0
C0
ENDCHAR
STARTCHAR club
ENCODING 167
SWIDTH 753 0
DWIDTH 12 0
BBX 9 10 1 -1
BITMAP
1C00
3E00
3E00
1C00
6B00
FF80
FF80
6B00
0800
1C00
ENDCHAR
STARTCHAR diamond
ENCODING 168
SWIDTH 753 0
DWIDTH 12 0
BBX 7 9 2 0
BITMAP
10
38
7C
7C
FE
7C
7C
38
10
ENDCHAR
STARTCHAR heart
ENCODING 169
SWIDTH 753 0
DWIDTH 12 0
BBX 8 9 2 0
BITMAP
66
FF
FF
FF
7E
3C
3C
18
18
ENDCHAR
STARTCHAR spade
ENCODING 170
SWIDTH 753 0
DWIDTH 12 0
BBX 9 10 2 -1
BITMAP
0800
1C00
1C00
3E00
7F00
7F00
FF80
6B00
0800
1C00
ENDCHAR
STARTCHAR arrowboth
ENCODING 171
SWIDTH 1042 0
DWIDTH 17 0
BBX 15 9 0 0
BITMAP
0820
1010
2008
4004
FFFE
4004
2008
1010
0820
ENDCHAR
STARTCHAR arrowleft
ENCODING 172
SWIDTH 987 0
DWIDTH 16 0
BBX 16 9 0 0
BITMAP
0800
1000
2000
4000
FFFF
4000
2000
1000
0800
ENDCHAR
STARTCHAR arrowup
ENCODING 173
SWIDTH 603 0
DWIDTH 10 0
BBX 9 15 0 -2
BITMAP
0800
1C00
2A00
4900
8880
0800
0800
0800
0800
0800
0800
0800
0800
0800
0800
ENDCHAR
STARTCHAR arrowright
ENCODING 174
SWIDTH 987 0
DWIDTH 16 0
BBX 15 9 0 0
BITMAP
0020
0010
0008
0004
FFFE
0004
0008
0010
0020
ENDCHAR
STARTCHAR arrowdown
ENCODING 175
SWIDTH 603 0
DWIDTH 10 0
BBX 9 15 0 -2
BITMAP
0800
0800
0800
0800
0800
0800
0800
0800
0800
0800
8880
4900
2A00
1C00
0800
ENDCHAR
STARTCHAR degree
ENCODING 176
SWIDTH 400 0
DWIDTH 6 0
BBX 5 5 0 6
BITMAP
70
88
88
88
70
ENDCHAR
STARTCHAR plusminus
ENCODING 177
SWIDTH 549 0
DWIDTH 9 0
BBX 9 11 0 0
BITMAP
0800
0800
0800
0800
FF80
0800
0800
0800
0800
0000
FF80
ENDCHAR
STARTCHAR second
ENCODING 178
SWIDTH 411 0
DWIDTH 7 0
BBX 6 4 1 8
BITMAP
6C
6C
D8
90
ENDCHAR
STARTCHAR greaterequal
ENCODING 179
SWIDTH 549 0
DWIDTH 9 0
BBX 8 11 0 0
BITMAP
80
60
18
06
01
06
18
60
80
00
FF
ENDCHAR
STARTCHAR multiply
ENCODING 180
SWIDTH 549 0
DWIDTH 9 0
BBX 9 9 0 0
BITMAP
8080
4100
2200
1400
0800
1400
2200
4100
8080
ENDCHAR
STARTCHAR proportional
ENCODING 181
SWIDTH 713 0
DWIDTH 11 0
BBX 10 5 0 2
BITMAP
71C0
8A00
8400
8A00
71C0
ENDCHAR
STARTCHAR partialdiff
ENCODING 182
SWIDTH 494 0
DWIDTH 8 0
BBX 7 14 0 -1
BITMAP
78
C4
04
02
02
02
3A
66
C2
C2
82
C4
44
38
ENDCHAR
STARTCHAR bullet
ENCODING 183
SWIDTH 460 0
DWIDTH 8 0
BBX 6 6 1 2
BITMAP
78
FC
FC
FC
FC
78
ENDCHAR
STARTCHAR divide
ENCODING 184
SWIDTH 549 0
DWIDTH 9 0
BBX 8 7 0 1
BITMAP
18
18
00
FF
00
18
18
ENDCHAR
STARTCHAR notequal
ENCODING 185
SWIDTH 549 0
DWIDTH 9 0
BBX 9 10 0 -1
BITMAP
0200
0200
0400
FF80
0800
0800
FF80
1000
2000
2000
ENDCHAR
STARTCHAR equivalence
ENCODING 186
SWIDTH 549 0
DWIDTH 9 0
BBX 8 7 0 1
BITMAP
FF
00
00
FF
00
00
FF
ENDCHAR
STARTCHAR approxequal
ENCODING 187
SWIDTH 549 0
DWIDTH 9 0
BBX 8 5 0 2
BITMAP
71
8E
00
71
8E
ENDCHAR
STARTCHAR ellipsis
ENCODING 188
SWIDTH 1000 0
DWIDTH 16 0
BBX 13 3 1 0
BITMAP
4210
E738
4210
ENDCHAR
STARTCHAR arrowvertex
ENCODING 189
SWIDTH 603 0
DWIDTH 10 0
BBX 1 17 4 -4
BITMAP
80
80
80
80
80
80
80
80
80
80
80
80
80
80
80
80
80
ENDCHAR
STARTCHAR arrowhorizex
ENCODING 190
SWIDTH 1000 0
DWIDTH 16 0
BBX 16 1 0 4
BITMAP
FFFF
ENDCHAR
STARTCHAR carriagereturn
ENCODING 191
SWIDTH 658 0
DWIDTH 10 0
BBX 9 11 0 -1
BITMAP
0080
0080
0080
0080
0080
0080
2080
6080
FF80
6000
2000
ENDCHAR
STARTCHAR aleph
ENCODING 192
SWIDTH 823 0
DWIDTH 13 0
BBX 9 11 2 0
BITMAP
4400
E700
6700
3200
1A00
3C00
6C00
6600
6300
3380
7100
ENDCHAR
STARTCHAR Ifraktur
ENCODING 193
SWIDTH 686 0
DWIDTH 11 0
BBX 9 14 0 -1
BITMAP
1E00
3F80
4380
4100
4200
2200
1300
0100
0180
0080
0080
7080
BF00
1C00
ENDCHAR
STARTCHAR Rfraktur
ENCODING 194
SWIDTH 795 0
DWIDTH 13 0
BBX 12 13 0 0
BITMAP
7180
8AC0
8C60
C440
6480
2500
0780
0580
0CC0
0CC0
08D0
6860
3040
ENDCHAR
STARTCHAR weierstrass
ENCODING 195
SWIDTH 987 0
DWIDTH 16 0
BBX 12 13 2 -4
BITMAP
0C00
11E0
2230
2410
4830
7220
6660
64C0
7300
9000
9000
9000
6000
ENDCHAR
STARTCHAR circlemultiply
ENCODING 196
SWIDTH 768 0
DWIDTH 12 0
BBX 11 11 1 0
BITMAP
0E00
3180
4040
5140
8A20
8420
8A20
5140
4040
3180
0E00
ENDCHAR
STARTCHAR circleplus
ENCODING 197
SWIDTH 768 0
DWIDTH 12 0
BBX 11 11 1 0
BITMAP
0E00
3180
4440
4440
8420
BFA0
8420
4440
4440
3180
0E00
ENDCHAR
STARTCHAR emptyset
ENCODING 198
SWIDTH 823 0
DWIDTH 13 0
BBX 12 12 1 0
BITMAP
0F10
30E0
4060
40A0
8110
8210
8410
8810
5020
6020
70C0
9F00
ENDCHAR
STARTCHAR intersection
ENCODING 199
SWIDTH 768 0
DWIDTH 12 0
BBX 11 9 1 0
BITMAP
0E00
3180
4040
4040
8020
8020
8020
8020
8020
ENDCHAR
STARTCHAR union
ENCODING 200
SWIDTH 768 0
DWIDTH 12 0
BBX 11 9 1 0
BITMAP
8020
8020
8020
8020
8020
4040
4040
3180
0E00
ENDCHAR
STARTCHAR propersuperset
ENCODING 201
SWIDTH 713 0
DWIDTH 11 0
BBX 10 8 0 0
BITMAP
FF00
0080
0040
0040
0040
0040
0080
FF00
ENDCHAR
STARTCHAR reflexsuperset
ENCODING 202
SWIDTH 713 0
DWIDTH 11 0
BBX 10 10 0 -3
BITMAP
FF00
0080
0040
0040
0040
0040
0080
FF00
0000
FFC0
ENDCHAR
STARTCHAR notsubset
ENCODING 203
SWIDTH 713 0
DWIDTH 11 0
BBX 11 10 0 -1
BITMAP
0080
3FE0
4100
8100
8200
8200
8400
4400
3FE0
0800
ENDCHAR
STARTCHAR propersubset
ENCODING 204
SWIDTH 713 0
DWIDTH 11 0
BBX 10 8 0 0
BITMAP
3FC0
4000
8000
8000
8000
8000
4000
3FC0
ENDCHAR
STARTCHAR reflexsubset
ENCODING 205
SWIDTH 713 0
DWIDTH 11 0
BBX 10 10 0 -2
BITMAP
3FC0
4000
8000
8000
8000
8000
4000
3FC0
0000
FFC0
ENDCHAR
STARTCHAR element
ENCODING 206
SWIDTH 713 0
DWIDTH 11 0
BBX 7 7 0 0
BITMAP
3E
40
80
FE
80
40
3E
ENDCHAR
STARTCHAR notelement
ENCODING 207
SWIDTH 713 0
DWIDTH 11 0
BBX 7 9 0 -1
BITMAP
04
3E
48
88
FE
90
50
3E
20
ENDCHAR
STARTCHAR angle
ENCODING 208
SWIDTH 768 0
DWIDTH 12 0
BBX 11 11 1 0
BITMAP
0020
0040
0080
0100
0200
0400
0800
1000
2000
4000
FFC0
ENDCHAR
STARTCHAR gradient
ENCODING 209
SWIDTH 713 0
DWIDTH 11 0
BBX 10 11 1 1
BITMAP
FFC0
C080
6080
6100
3100
3200
3200
1C00
1C00
0800
0800
ENDCHAR
STARTCHAR registerserif
ENCODING 210
SWIDTH 790 0
DWIDTH 13 0
BBX 11 11 1 0
BITMAP
0E00
3180
5E40
4940
8920
8E20
8A20
4940
5DC0
3180
0E00
ENDCHAR
STARTCHAR copyrightserif
ENCODING 211
SWIDTH 790 0
DWIDTH 13 0
BBX 11 11 1 0
BITMAP
0E00
3180
4640
4940
9120
9020
9020
4940
4640
3180
0E00
ENDCHAR
STARTCHAR trademarkserif
ENCODING 212
SWIDTH 890 0
DWIDTH 14 0
BBX 13 6 0 5
BITMAP
FF18
AB10
22B0
22B0
2250
7758
ENDCHAR
STARTCHAR product
ENCODING 213
SWIDTH 823 0
DWIDTH 13 0
BBX 12 15 1 -2
BITMAP
FFF0
6060
6060
6060
6060
6060
6060
6060
6060
6060
6060
6060
6060
6060
F0F0
ENDCHAR
STARTCHAR radical
ENCODING 214
SWIDTH 549 0
DWIDTH 9 0
BBX 7 16 1 -3
BITMAP
02
02
02
02
02
04
44
C4
24
24
14
14
14
08
08
08
ENDCHAR
STARTCHAR dotmath
ENCODING 215
SWIDTH 250 0
DWIDTH 4 0
BBX 2 2 1 3
BITMAP
C0
C0
ENDCHAR
STARTCHAR logicalnot
ENCODING 216
SWIDTH 713 0
DWIDTH 12 0
BBX 11 5 0 0
BITMAP
FFE0
0020
0020
0020
0020
ENDCHAR
STARTCHAR logicaland
ENCODING 217
SWIDTH 603 0
DWIDTH 10 0
BBX 9 8 0 0
BITMAP
0800
0800
1400
2200
2200
4100
8080
8080
ENDCHAR
STARTCHAR logicalor
ENCODING 218
SWIDTH 603 0
DWIDTH 10 0
BBX 9 8 0 0
BITMAP
8080
8080
4100
2200
2200
1400
0800
0800
ENDCHAR
STARTCHAR arrowdblboth
ENCODING 219
SWIDTH 1042 0
DWIDTH 17 0
BBX 16 9 0 0
BITMAP
0810
1008
3FFC
4002
8001
4002
3FFC
1008
0810
ENDCHAR
STARTCHAR arrowdblleft
ENCODING 220
SWIDTH 987 0
DWIDTH 16 0
BBX 15 9 0 0
BITMAP
0800
1000
3FFE
4000
8000
4000
3FFE
1000
0800
ENDCHAR
STARTCHAR arrowdblup
ENCODING 221
SWIDTH 603 0
DWIDTH 10 0
BBX 9 15 0 -2
BITMAP
0800
1400
2200
6300
A280
2200
2200
2200
2200
2200
2200
2200
2200
2200
2200
ENDCHAR
STARTCHAR arrowdblright
ENCODING 222
SWIDTH 987 0
DWIDTH 16 0
BBX 15 9 0 0
BITMAP
0020
0010
FFF8
0004
0002
0004
FFF8
0010
0020
ENDCHAR
STARTCHAR arrowdbldown
ENCODING 223
SWIDTH 603 0
DWIDTH 10 0
BBX 9 15 0 -2
BITMAP
2200
2200
2200
2200
2200
2200
2200
2200
2200
2200
A280
6300
2200
1400
0800
ENDCHAR
STARTCHAR lozenge
ENCODING 224
SWIDTH 494 0
DWIDTH 8 0
BBX 7 12 0 0
BITMAP
10
28
28
44
44
82
82
44
44
28
28
10
ENDCHAR
STARTCHAR angleleft
ENCODING 225
SWIDTH 329 0
DWIDTH 5 0
BBX 4 15 0 -2
BITMAP
10
10
20
20
40
40
80
80
80
40
40
20
20
10
10
ENDCHAR
STARTCHAR registersans
ENCODING 226
SWIDTH 790 0
DWIDTH 13 0
BBX 11 11 1 0
BITMAP
0E00
3180
5E40
5140
9120
9E20
9120
5140
5140
3180
0E00
ENDCHAR
STARTCHAR copyrightsans
ENCODING 227
SWIDTH 790 0
DWIDTH 13 0
BBX 11 11 1 0
BITMAP
0E00
3180
4640
4940
9020
9020
9020
4940
4640
3180
0E00
ENDCHAR
STARTCHAR trademarksans
ENCODING 228
SWIDTH 786 0
DWIDTH 13 0
BBX 11 6 0 5
BITMAP
FC20
2660
2660
25A0
25A0
2420
ENDCHAR
STARTCHAR summation
ENCODING 229
SWIDTH 713 0
DWIDTH 11 0
BBX 11 15 0 -2
BITMAP
FFC0
7040
3840
1800
0C00
0E00
0700
0300
0200
0400
0800
1020
2040
7FC0
FF80
ENDCHAR
STARTCHAR parenlefttp
ENCODING 230
SWIDTH 384 0
DWIDTH 6 0
BBX 6 17 1 -4
BITMAP
04
08
10
20
20
40
40
40
40
80
80
80
80
80
80
80
80
ENDCHAR
STARTCHAR parenleftex
ENCODING 231
SWIDTH 384 0
DWIDTH 6 0
BBX 1 17 1 -4
BITMAP
80
80
80
80
80
80
80
80
80
80
80
80
80
80
80
80
80
ENDCHAR
STARTCHAR parenleftbt
ENCODING 232
SWIDTH 384 0
DWIDTH 6 0
BBX 6 17 1 -4
BITMAP
80
80
80
80
80
80
80
80
40
40
40
40
20
20
10
08
04
ENDCHAR
STARTCHAR bracketlefttp
ENCODING 233
SWIDTH 384 0
DWIDTH 6 0
BBX 5 17 0 -4
BITMAP
F8
80
80
80
80
80
80
80
80
80
80
80
80
80
80
80
80
ENDCHAR
STARTCHAR bracketleftex
ENCODING 234
SWIDTH 384 0
DWIDTH 6 0
BBX 1 17 0 -4
BITMAP
80
80
80
80
80
80
80
80
80
80
80
80
80
80
80
80
80
ENDCHAR
STARTCHAR bracketleftbt
ENCODING 235
SWIDTH 384 0
DWIDTH 6 0
BBX 5 17 0 -4
BITMAP
80
80
80
80
80
80
80
80
80
80
80
80
80
80
80
80
F8
ENDCHAR
STARTCHAR bracelefttp
ENCODING 236
SWIDTH 494 0
DWIDTH 8 0
BBX 4 17 3 -4
BITMAP
30
40
80
80
80
80
80
80
80
80
80
80
80
80
80
80
80
ENDCHAR
STARTCHAR braceleftmid
ENCODING 237
SWIDTH 494 0
DWIDTH 8 0
BBX 4 17 0 -4
BITMAP
10
10
10
10
10
10
10
20
C0
20
10
10
10
10
10
10
10
ENDCHAR
STARTCHAR braceleftbt
ENCODING 238
SWIDTH 494 0
DWIDTH 8 0
BBX 4 17 3 -4
BITMAP
80
80
80
80
80
80
80
80
80
80
80
80
80
80
80
40
30
ENDCHAR
STARTCHAR braceex
ENCODING 239
SWIDTH 494 0
DWIDTH 8 0
BBX 1 17 3 -4
BITMAP
80
80
80
80
80
80
80
80
80
80
80
80
80
80
80
80
80
ENDCHAR
STARTCHAR angleright
ENCODING 241
SWIDTH 329 0
DWIDTH 5 0
BBX 4 15 0 -2
BITMAP
80
80
40
40
20
20
10
10
10
20
20
40
40
80
80
ENDCHAR
STARTCHAR integral
ENCODING 242
SWIDTH 274 0
DWIDTH 5 0
BBX 5 17 0 -4
BITMAP
18
28
20
20
20
20
20
20
20
20
20
20
20
20
20
A0
C0
ENDCHAR
STARTCHAR integraltp
ENCODING 243
SWIDTH 686 0
DWIDTH 11 0
BBX 6 17 5 -4
BITMAP
18
2C
48
40
80
80
80
80
80
80
80
80
80
80
80
80
80
ENDCHAR
STARTCHAR integralex
ENCODING 244
SWIDTH 686 0
DWIDTH 11 0
BBX 1 17 5 -4
BITMAP
80
80
80
80
80
80
80
80
80
80
80
80
80
80
80
80
80
ENDCHAR
STARTCHAR integralbt
ENCODING 245
SWIDTH 686 0
DWIDTH 11 0
BBX 6 17 0 -4
BITMAP
04
04
04
04
04
04
04
04
04
04
04
04
04
08
48
D0
60
ENDCHAR
STARTCHAR parenrighttp
ENCODING 246
SWIDTH 384 0
DWIDTH 7 0
BBX 6 17 1 -4
BITMAP
80
40
20
10
10
08
08
08
08
04
04
04
04
04
04
04
04
ENDCHAR
STARTCHAR parenrightex
ENCODING 247
SWIDTH 384 0
DWIDTH 6 0
BBX 1 17 5 -4
BITMAP
80
80
80
80
80
80
80
80
80
80
80
80
80
80
80
80
80
ENDCHAR
STARTCHAR parenrightbt
ENCODING 248
SWIDTH 384 0
DWIDTH 6 0
BBX 6 17 0 -4
BITMAP
04
04
04
04
04
04
04
04
08
08
08
08
10
10
20
40
80
ENDCHAR
STARTCHAR bracketrighttp
ENCODING 249
SWIDTH 384 0
DWIDTH 6 0
BBX 5 17 1 -4
BITMAP
F8
08
08
08
08
08
08
08
08
08
08
08
08
08
08
08
08
ENDCHAR
STARTCHAR bracketrightex
ENCODING 250
SWIDTH 384 0
DWIDTH 6 0
BBX 1 17 5 -4
BITMAP
80
80
80
80
80
80
80
80
80
80
80
80
80
80
80
80
80
ENDCHAR
STARTCHAR bracketrightbt
ENCODING 251
SWIDTH 384 0
DWIDTH 6 0
BBX 5 17 1 -4
BITMAP
08
08
08
08
08
08
08
08
08
08
08
08
08
08
08
08
F8
ENDCHAR
STARTCHAR bracerighttp
ENCODING 252
SWIDTH 494 0
DWIDTH 8 0
BBX 4 17 0 -4
BITMAP
C0
20
10
10
10
10
10
10
10
10
10
10
10
10
10
10
10
ENDCHAR
STARTCHAR bracerightmid
ENCODING 253
SWIDTH 494 0
DWIDTH 8 0
BBX 4 17 3 -4
BITMAP
80
80
80
80
80
80
80
40
30
40
80
80
80
80
80
80
80
ENDCHAR
STARTCHAR bracerightbt
ENCODING 254
SWIDTH 494 0
DWIDTH 8 0
BBX 4 17 0 -4
BITMAP
10
10
10
10
10
10
10
10
10
10
10
10
10
10
10
20
C0
ENDCHAR
STARTCHAR apple
ENCODING -1
SWIDTH 790 0
DWIDTH 13 0
BBX 11 13 1 0
BITMAP
0300
0700
0600
3580
7FE0
7FC0
FF80
FF80
FF80
FFE0
7FE0
7FC0
3B80
ENDCHAR
ENDFONT
