STARTFONT 2.1
COMMENT Copyright (C) 1990-1991 EWT Consulting
COMMENT Portions Copyright (C) 1994-1995 Cronyx Ltd.
COMMENT Modified by Serge Vakulenko, <vak@cronyx.ru>
COMMENT Encoding changed to CP1251 by Rabinovich Moisei, <moisei@cs.bgu.ac.il>,$
COMMENT This software may be used, modified, copied, distributed, and sold,
COMMENT in both source and binary form provided that the copyright
COMMENT and these terms are retained. Under no circumstances is the author
COMMENT responsible for the proper functioning of this software, nor does
COMMENT the author assume any responsibility for damages incurred with its use.
FONT -Cronyx-Times-Medium-R-Normal--12-120-75-75-P-64-RAWIN-R
SIZE 12 96 96
FONTBOUNDINGBOX 18 19 0 -4
STARTPROPERTIES 19
DEFAULT_CHAR 32
FONT_ASCENT 15
FONT_DESCENT 4
SPACING "P"
FONTNAME_REGISTRY ""
FOUNDRY "Cronyx"
FAMILY_NAME "Times"
WEIGHT_NAME "Medium"
SLANT "R"
SETWIDTH_NAME "Normal"
ADD_STYLE_NAME ""
AVERAGE_WIDTH 64
CHARSET_REGISTRY "RAWIN"
CHARSET_ENCODING "R"
PIXEL_SIZE 12
POINT_SIZE 120
RESOLUTION_X 75
RESOLUTION_Y 75
COPYRIGHT "Copyright (C) 1990, 1991 EWT Consulting, Portions Copyright (C) 1994 Cronyx Ltd."
ENDPROPERTIES
CHARS 224
STARTCHAR space
ENCODING 32
SWIDTH 210 0
DWIDTH 4 0
BBX 4 19 0 -4
BITMAP
00
00
00
00
00
00
00
00
00
00
00
00
00
00
00
00
00
00
00
ENDCHAR
STARTCHAR exclam
ENCODING 33
SWIDTH 210 0
DWIDTH 4 0
BBX 4 19 0 -4
BITMAP
00
00
00
00
40
40
40
40
40
40
40
40
00
40
40
00
00
00
00
ENDCHAR
STARTCHAR quotedbl
ENCODING 34
SWIDTH 315 0
DWIDTH 6 0
BBX 6 19 0 -4
BITMAP
00
00
00
00
48
48
48
48
00
00
00
00
00
00
00
00
00
00
00
ENDCHAR
STARTCHAR numbersign
ENCODING 35
SWIDTH 421 0
DWIDTH 8 0
BBX 8 19 0 -4
BITMAP
00
00
00
00
12
12
12
7f
24
24
24
fe
48
48
48
00
00
00
00
ENDCHAR
STARTCHAR dollar
ENCODING 36
SWIDTH 421 0
DWIDTH 8 0
BBX 8 19 0 -4
BITMAP
00
00
08
08
3a
4e
4a
48
28
18
0c
0a
4a
6a
5c
08
08
00
00
ENDCHAR
STARTCHAR percent
ENCODING 37
SWIDTH 684 0
DWIDTH 13 0
BBX 13 19 0 -4
BITMAP
0000
0000
0000
0000
3010
4fe0
4840
4880
3100
0200
0460
0890
1090
2090
4060
0000
0000
0000
0000
ENDCHAR
STARTCHAR ampersand
ENCODING 38
SWIDTH 631 0
DWIDTH 12 0
BBX 12 19 0 -4
BITMAP
0000
0000
0000
0000
1800
2400
2400
2400
1800
18e0
2440
4280
4100
4280
3c40
0000
0000
0000
0000
ENDCHAR
STARTCHAR quoteright
ENCODING 39
SWIDTH 210 0
DWIDTH 4 0
BBX 4 19 0 -4
BITMAP
00
00
00
00
40
40
40
40
00
00
00
00
00
00
00
00
00
00
00
ENDCHAR
STARTCHAR parenleft
ENCODING 40
SWIDTH 263 0
DWIDTH 5 0
BBX 5 19 0 -4
BITMAP
00
00
00
10
10
20
20
40
40
40
40
40
40
40
20
20
10
10
00
ENDCHAR
STARTCHAR parenright
ENCODING 41
SWIDTH 263 0
DWIDTH 5 0
BBX 5 19 0 -4
BITMAP
00
00
00
40
40
20
20
10
10
10
10
10
10
10
20
20
40
40
00
ENDCHAR
STARTCHAR asterisk
ENCODING 42
SWIDTH 368 0
DWIDTH 7 0
BBX 7 19 0 -4
BITMAP
00
00
00
00
10
54
38
38
54
10
00
00
00
00
00
00
00
00
00
ENDCHAR
STARTCHAR plus
ENCODING 43
SWIDTH 473 0
DWIDTH 9 0
BBX 9 19 0 -4
BITMAP
0000
0000
0000
0000
0000
0000
0800
0800
0800
7f00
0800
0800
0800
0000
0000
0000
0000
0000
0000
ENDCHAR
STARTCHAR comma
ENCODING 44
SWIDTH 210 0
DWIDTH 4 0
BBX 4 19 0 -4
BITMAP
00
00
00
00
00
00
00
00
00
00
00
00
00
40
40
80
00
00
00
ENDCHAR
STARTCHAR minus
ENCODING 45
SWIDTH 263 0
DWIDTH 5 0
BBX 5 19 0 -4
BITMAP
00
00
00
00
00
00
00
00
00
f0
00
00
00
00
00
00
00
00
00
ENDCHAR
STARTCHAR period
ENCODING 46
SWIDTH 210 0
DWIDTH 4 0
BBX 4 19 0 -4
BITMAP
00
00
00
00
00
00
00
00
00
00
00
00
00
40
40
00
00
00
00
ENDCHAR
STARTCHAR slash
ENCODING 47
SWIDTH 263 0
DWIDTH 5 0
BBX 5 19 0 -4
BITMAP
00
00
00
00
08
08
10
10
10
20
20
40
40
40
80
80
00
00
00
ENDCHAR
STARTCHAR zero
ENCODING 48
SWIDTH 421 0
DWIDTH 8 0
BBX 8 19 0 -4
BITMAP
00
00
00
00
18
24
42
42
42
42
42
42
42
24
18
00
00
00
00
ENDCHAR
STARTCHAR one
ENCODING 49
SWIDTH 421 0
DWIDTH 8 0
BBX 8 19 0 -4
BITMAP
00
00
00
00
08
18
28
08
08
08
08
08
08
08
3e
00
00
00
00
ENDCHAR
STARTCHAR two
ENCODING 50
SWIDTH 421 0
DWIDTH 8 0
BBX 8 19 0 -4
BITMAP
00
00
00
00
38
44
02
02
02
04
08
10
20
42
7e
00
00
00
00
ENDCHAR
STARTCHAR three
ENCODING 51
SWIDTH 421 0
DWIDTH 8 0
BBX 8 19 0 -4
BITMAP
00
00
00
00
38
44
02
02
04
18
04
02
02
44
38
00
00
00
00
ENDCHAR
STARTCHAR four
ENCODING 52
SWIDTH 421 0
DWIDTH 8 0
BBX 8 19 0 -4
BITMAP
00
00
00
00
02
06
0a
0a
12
22
22
42
7e
02
02
00
00
00
00
ENDCHAR
STARTCHAR five
ENCODING 53
SWIDTH 421 0
DWIDTH 8 0
BBX 8 19 0 -4
BITMAP
00
00
00
00
3e
20
40
40
78
04
02
02
02
44
38
00
00
00
00
ENDCHAR
STARTCHAR six
ENCODING 54
SWIDTH 421 0
DWIDTH 8 0
BBX 8 19 0 -4
BITMAP
00
00
00
00
06
18
20
20
5c
62
42
42
42
42
3c
00
00
00
00
ENDCHAR
STARTCHAR seven
ENCODING 55
SWIDTH 421 0
DWIDTH 8 0
BBX 8 19 0 -4
BITMAP
00
00
00
00
7e
42
02
04
04
04
08
08
08
10
10
00
00
00
00
ENDCHAR
STARTCHAR eight
ENCODING 56
SWIDTH 421 0
DWIDTH 8 0
BBX 8 19 0 -4
BITMAP
00
00
00
00
3c
42
42
42
42
3c
42
42
42
42
3c
00
00
00
00
ENDCHAR
STARTCHAR nine
ENCODING 57
SWIDTH 421 0
DWIDTH 8 0
BBX 8 19 0 -4
BITMAP
00
00
00
00
3c
42
42
42
42
46
3a
04
04
18
60
00
00
00
00
ENDCHAR
STARTCHAR colon
ENCODING 58
SWIDTH 210 0
DWIDTH 4 0
BBX 4 19 0 -4
BITMAP
00
00
00
00
00
00
00
00
40
40
00
00
00
40
40
00
00
00
00
ENDCHAR
STARTCHAR semicolon
ENCODING 59
SWIDTH 210 0
DWIDTH 4 0
BBX 4 19 0 -4
BITMAP
00
00
00
00
00
00
00
00
40
40
00
00
00
40
40
80
00
00
00
ENDCHAR
STARTCHAR less
ENCODING 60
SWIDTH 473 0
DWIDTH 9 0
BBX 9 19 0 -4
BITMAP
0000
0000
0000
0000
0000
0000
0000
0100
0600
1800
6000
1800
0600
0100
0000
0000
0000
0000
0000
ENDCHAR
STARTCHAR equal
ENCODING 61
SWIDTH 473 0
DWIDTH 9 0
BBX 9 19 0 -4
BITMAP
0000
0000
0000
0000
0000
0000
0000
0000
0000
7f00
0000
7f00
0000
0000
0000
0000
0000
0000
0000
ENDCHAR
STARTCHAR greater
ENCODING 62
SWIDTH 473 0
DWIDTH 9 0
BBX 9 19 0 -4
BITMAP
0000
0000
0000
0000
0000
0000
0000
4000
3000
0c00
0300
0c00
3000
4000
0000
0000
0000
0000
0000
ENDCHAR
STARTCHAR question
ENCODING 63
SWIDTH 368 0
DWIDTH 7 0
BBX 7 19 0 -4
BITMAP
00
00
00
00
38
44
04
04
08
10
10
10
00
10
10
00
00
00
00
ENDCHAR
STARTCHAR at
ENCODING 64
SWIDTH 789 0
DWIDTH 15 0
BBX 15 19 0 -4
BITMAP
0000
0000
0000
0000
07c0
1830
2008
2008
43a4
4444
4444
4884
4884
4888
4770
2000
3030
0fc0
0000
ENDCHAR
STARTCHAR A
ENCODING 65
SWIDTH 578 0
DWIDTH 11 0
BBX 11 19 0 -4
BITMAP
0000
0000
0000
0000
0400
0400
0a00
0a00
1100
1100
2080
3f80
4040
4040
e0e0
0000
0000
0000
0000
ENDCHAR
STARTCHAR B
ENCODING 66
SWIDTH 578 0
DWIDTH 11 0
BBX 11 19 0 -4
BITMAP
0000
0000
0000
0000
7e00
2100
2080
2080
2100
3f00
2080
2040
2040
2080
7f00
0000
0000
0000
0000
ENDCHAR
STARTCHAR C
ENCODING 67
SWIDTH 578 0
DWIDTH 11 0
BBX 11 19 0 -4
BITMAP
0000
0000
0000
0000
0f40
30c0
2040
4000
4000
4000
4000
4000
2040
3080
0f00
0000
0000
0000
0000
ENDCHAR
STARTCHAR D
ENCODING 68
SWIDTH 631 0
DWIDTH 12 0
BBX 12 19 0 -4
BITMAP
0000
0000
0000
0000
7f00
20c0
2040
2020
2020
2020
2020
2020
2040
20c0
7f00
0000
0000
0000
0000
ENDCHAR
STARTCHAR E
ENCODING 69
SWIDTH 526 0
DWIDTH 10 0
BBX 10 19 0 -4
BITMAP
0000
0000
0000
0000
7f80
2080
2000
2000
2200
3e00
2200
2000
2000
2080
7f80
0000
0000
0000
0000
ENDCHAR
STARTCHAR F
ENCODING 70
SWIDTH 526 0
DWIDTH 10 0
BBX 10 19 0 -4
BITMAP
0000
0000
0000
0000
7f80
2080
2000
2000
2200
3e00
2200
2000
2000
2000
7000
0000
0000
0000
0000
ENDCHAR
STARTCHAR G
ENCODING 71
SWIDTH 631 0
DWIDTH 12 0
BBX 12 19 0 -4
BITMAP
0000
0000
0000
0000
0f40
30c0
2040
4000
4000
40f0
4020
4020
2040
30c0
0f00
0000
0000
0000
0000
ENDCHAR
STARTCHAR H
ENCODING 72
SWIDTH 631 0
DWIDTH 12 0
BBX 12 19 0 -4
BITMAP
0000
0000
0000
0000
70e0
2040
2040
2040
2040
3fc0
2040
2040
2040
2040
70e0
0000
0000
0000
0000
ENDCHAR
STARTCHAR I
ENCODING 73
SWIDTH 263 0
DWIDTH 5 0
BBX 5 19 0 -4
BITMAP
00
00
00
00
70
20
20
20
20
20
20
20
20
20
70
00
00
00
00
ENDCHAR
STARTCHAR J
ENCODING 74
SWIDTH 368 0
DWIDTH 7 0
BBX 7 19 0 -4
BITMAP
00
00
00
00
1c
08
08
08
08
08
08
08
08
48
30
00
00
00
00
ENDCHAR
STARTCHAR K
ENCODING 75
SWIDTH 578 0
DWIDTH 11 0
BBX 11 19 0 -4
BITMAP
0000
0000
0000
0000
71c0
2080
2100
2200
2400
2c00
3200
2100
2080
2040
70e0
0000
0000
0000
0000
ENDCHAR
STARTCHAR L
ENCODING 76
SWIDTH 526 0
DWIDTH 10 0
BBX 10 19 0 -4
BITMAP
0000
0000
0000
0000
7000
2000
2000
2000
2000
2000
2000
2000
2000
2080
7f80
0000
0000
0000
0000
ENDCHAR
STARTCHAR M
ENCODING 77
SWIDTH 789 0
DWIDTH 15 0
BBX 15 19 0 -4
BITMAP
0000
0000
0000
0000
600c
3018
3018
2828
2828
2448
2448
2288
2288
2108
711c
0000
0000
0000
0000
ENDCHAR
STARTCHAR N
ENCODING 78
SWIDTH 631 0
DWIDTH 12 0
BBX 12 19 0 -4
BITMAP
0000
0000
0000
0000
60e0
3040
3040
2840
2440
2440
2240
2140
2140
20c0
7040
0000
0000
0000
0000
ENDCHAR
STARTCHAR O
ENCODING 79
SWIDTH 631 0
DWIDTH 12 0
BBX 12 19 0 -4
BITMAP
0000
0000
0000
0000
0f00
30c0
2040
4020
4020
4020
4020
4020
2040
30c0
0f00
0000
0000
0000
0000
ENDCHAR
STARTCHAR P
ENCODING 80
SWIDTH 473 0
DWIDTH 9 0
BBX 9 19 0 -4
BITMAP
0000
0000
0000
0000
7c00
2200
2100
2100
2200
3c00
2000
2000
2000
2000
7000
0000
0000
0000
0000
ENDCHAR
STARTCHAR Q
ENCODING 81
SWIDTH 631 0
DWIDTH 12 0
BBX 12 19 0 -4
BITMAP
0000
0000
0000
0000
0f00
30c0
2040
4020
4020
4020
4020
4020
2040
30c0
0f00
0300
0180
0000
0000
ENDCHAR
STARTCHAR R
ENCODING 82
SWIDTH 526 0
DWIDTH 10 0
BBX 10 19 0 -4
BITMAP
0000
0000
0000
0000
7c00
2200
2100
2100
2200
3c00
2400
2200
2100
2080
7040
0000
0000
0000
0000
ENDCHAR
STARTCHAR S
ENCODING 83
SWIDTH 473 0
DWIDTH 9 0
BBX 9 19 0 -4
BITMAP
0000
0000
0000
0000
1d00
2300
4100
4000
2000
1c00
0200
0100
4100
6200
5c00
0000
0000
0000
0000
ENDCHAR
STARTCHAR T
ENCODING 84
SWIDTH 473 0
DWIDTH 9 0
BBX 9 19 0 -4
BITMAP
0000
0000
0000
0000
ff80
8880
0800
0800
0800
0800
0800
0800
0800
0800
1c00
0000
0000
0000
0000
ENDCHAR
STARTCHAR U
ENCODING 85
SWIDTH 631 0
DWIDTH 12 0
BBX 12 19 0 -4
BITMAP
0000
0000
0000
0000
70e0
2040
2040
2040
2040
2040
2040
2040
2040
1080
0f00
0000
0000
0000
0000
ENDCHAR
STARTCHAR V
ENCODING 86
SWIDTH 578 0
DWIDTH 11 0
BBX 11 19 0 -4
BITMAP
0000
0000
0000
0000
e0e0
4040
4040
2080
2080
1100
1100
0a00
0a00
0400
0400
0000
0000
0000
0000
ENDCHAR
STARTCHAR W
ENCODING 87
SWIDTH 789 0
DWIDTH 15 0
BBX 15 19 0 -4
BITMAP
0000
0000
0000
0000
eeee
4444
4448
2288
2288
1110
1110
0aa0
0aa0
0440
0440
0000
0000
0000
0000
ENDCHAR
STARTCHAR X
ENCODING 88
SWIDTH 578 0
DWIDTH 11 0
BBX 11 19 0 -4
BITMAP
0000
0000
0000
0000
e0e0
4040
2080
1100
0a00
0400
0a00
1100
2080
4040
e0e0
0000
0000
0000
0000
ENDCHAR
STARTCHAR Y
ENCODING 89
SWIDTH 578 0
DWIDTH 11 0
BBX 11 19 0 -4
BITMAP
0000
0000
0000
0000
e0e0
4040
2080
1100
0a00
0400
0400
0400
0400
0400
0e00
0000
0000
0000
0000
ENDCHAR
STARTCHAR Z
ENCODING 90
SWIDTH 526 0
DWIDTH 10 0
BBX 10 19 0 -4
BITMAP
0000
0000
0000
0000
7f80
4100
0200
0200
0400
0800
1000
2000
2000
4080
ff80
0000
0000
0000
0000
ENDCHAR
STARTCHAR bracketleft
ENCODING 91
SWIDTH 263 0
DWIDTH 5 0
BBX 5 19 0 -4
BITMAP
00
00
00
70
40
40
40
40
40
40
40
40
40
40
40
40
40
70
00
ENDCHAR
STARTCHAR backslash
ENCODING 92
SWIDTH 263 0
DWIDTH 5 0
BBX 5 19 0 -4
BITMAP
00
00
00
00
80
80
40
40
40
20
20
10
10
10
08
08
00
00
00
ENDCHAR
STARTCHAR bracketright
ENCODING 93
SWIDTH 263 0
DWIDTH 5 0
BBX 5 19 0 -4
BITMAP
00
00
00
70
10
10
10
10
10
10
10
10
10
10
10
10
10
70
00
ENDCHAR
STARTCHAR asciicircum
ENCODING 94
SWIDTH 368 0
DWIDTH 7 0
BBX 7 19 0 -4
BITMAP
00
00
00
10
28
44
00
00
00
00
00
00
00
00
00
00
00
00
00
ENDCHAR
STARTCHAR underscore
ENCODING 95
SWIDTH 421 0
DWIDTH 8 0
BBX 8 19 0 -4
BITMAP
00
00
00
00
00
00
00
00
00
00
00
00
00
00
00
00
00
00
ff
ENDCHAR
STARTCHAR quoteleft
ENCODING 96
SWIDTH 263 0
DWIDTH 5 0
BBX 5 19 0 -4
BITMAP
00
00
00
80
40
20
00
00
00
00
00
00
00
00
00
00
00
00
00
ENDCHAR
STARTCHAR a
ENCODING 97
SWIDTH 315 0
DWIDTH 6 0
BBX 6 19 0 -4
BITMAP
00
00
00
00
00
00
00
30
48
08
38
48
48
48
34
00
00
00
00
ENDCHAR
STARTCHAR b
ENCODING 98
SWIDTH 368 0
DWIDTH 7 0
BBX 7 19 0 -4
BITMAP
00
00
00
60
20
20
20
2c
32
22
22
22
22
22
1c
00
00
00
00
ENDCHAR
STARTCHAR c
ENCODING 99
SWIDTH 315 0
DWIDTH 6 0
BBX 6 19 0 -4
BITMAP
00
00
00
00
00
00
00
38
44
40
40
40
40
44
38
00
00
00
00
ENDCHAR
STARTCHAR d
ENCODING 100
SWIDTH 368 0
DWIDTH 7 0
BBX 7 19 0 -4
BITMAP
00
00
00
0c
04
04
04
3c
44
44
44
44
44
44
3e
00
00
00
00
ENDCHAR
STARTCHAR e
ENCODING 101
SWIDTH 315 0
DWIDTH 6 0
BBX 6 19 0 -4
BITMAP
00
00
00
00
00
00
00
38
44
44
7c
40
40
44
38
00
00
00
00
ENDCHAR
STARTCHAR f
ENCODING 102
SWIDTH 315 0
DWIDTH 6 0
BBX 6 19 0 -4
BITMAP
00
00
00
18
24
20
20
70
20
20
20
20
20
20
70
00
00
00
00
ENDCHAR
STARTCHAR g
ENCODING 103
SWIDTH 421 0
DWIDTH 8 0
BBX 8 19 0 -4
BITMAP
00
00
00
00
00
00
00
3a
44
44
44
44
38
40
7c
82
81
81
7e
ENDCHAR
STARTCHAR h
ENCODING 104
SWIDTH 421 0
DWIDTH 8 0
BBX 8 19 0 -4
BITMAP
00
00
00
60
20
20
20
2c
32
22
22
22
22
22
77
00
00
00
00
ENDCHAR
STARTCHAR i
ENCODING 105
SWIDTH 210 0
DWIDTH 4 0
BBX 4 19 0 -4
BITMAP
00
00
00
00
20
00
00
60
20
20
20
20
20
20
70
00
00
00
00
ENDCHAR
STARTCHAR j
ENCODING 106
SWIDTH 157 0
DWIDTH 3 0
BBX 3 19 0 -4
BITMAP
00
00
00
00
20
00
00
60
20
20
20
20
20
20
20
20
20
20
40
ENDCHAR
STARTCHAR k
ENCODING 107
SWIDTH 473 0
DWIDTH 9 0
BBX 9 19 0 -4
BITMAP
0000
0000
0000
6000
2000
2000
2000
2700
2200
2400
2800
3400
2200
2100
7380
0000
0000
0000
0000
ENDCHAR
STARTCHAR l
ENCODING 108
SWIDTH 210 0
DWIDTH 4 0
BBX 4 19 0 -4
BITMAP
00
00
00
60
20
20
20
20
20
20
20
20
20
20
70
00
00
00
00
ENDCHAR
STARTCHAR m
ENCODING 109
SWIDTH 631 0
DWIDTH 12 0
BBX 12 19 0 -4
BITMAP
0000
0000
0000
0000
0000
0000
0000
6cc0
3320
2220
2220
2220
2220
2220
7770
0000
0000
0000
0000
ENDCHAR
STARTCHAR n
ENCODING 110
SWIDTH 421 0
DWIDTH 8 0
BBX 8 19 0 -4
BITMAP
00
00
00
00
00
00
00
6c
32
22
22
22
22
22
77
00
00
00
00
ENDCHAR
STARTCHAR o
ENCODING 111
SWIDTH 315 0
DWIDTH 6 0
BBX 6 19 0 -4
BITMAP
00
00
00
00
00
00
00
38
44
44
44
44
44
44
38
00
00
00
00
ENDCHAR
STARTCHAR p
ENCODING 112
SWIDTH 368 0
DWIDTH 7 0
BBX 7 19 0 -4
BITMAP
00
00
00
00
00
00
00
6c
32
22
22
22
22
22
3c
20
20
20
70
ENDCHAR
STARTCHAR q
ENCODING 113
SWIDTH 368 0
DWIDTH 7 0
BBX 7 19 0 -4
BITMAP
00
00
00
00
00
00
00
34
4c
44
44
44
44
44
3c
04
04
04
0e
ENDCHAR
STARTCHAR r
ENCODING 114
SWIDTH 263 0
DWIDTH 5 0
BBX 5 19 0 -4
BITMAP
00
00
00
00
00
00
00
68
30
20
20
20
20
20
70
00
00
00
00
ENDCHAR
STARTCHAR s
ENCODING 115
SWIDTH 210 0
DWIDTH 4 0
BBX 4 19 0 -4
BITMAP
00
00
00
00
00
00
00
30
40
40
20
10
10
10
60
00
00
00
00
ENDCHAR
STARTCHAR t
ENCODING 116
SWIDTH 263 0
DWIDTH 5 0
BBX 5 19 0 -4
BITMAP
00
00
00
00
00
20
20
70
20
20
20
20
20
28
10
00
00
00
00
ENDCHAR
STARTCHAR u
ENCODING 117
SWIDTH 421 0
DWIDTH 8 0
BBX 8 19 0 -4
BITMAP
00
00
00
00
00
00
00
66
22
22
22
22
22
26
1b
00
00
00
00
ENDCHAR
STARTCHAR v
ENCODING 118
SWIDTH 421 0
DWIDTH 8 0
BBX 8 19 0 -4
BITMAP
00
00
00
00
00
00
00
77
22
22
14
14
14
08
08
00
00
00
00
ENDCHAR
STARTCHAR w
ENCODING 119
SWIDTH 631 0
DWIDTH 12 0
BBX 12 19 0 -4
BITMAP
0000
0000
0000
0000
0000
0000
0000
7770
2220
2220
1540
1540
1540
0880
0880
0000
0000
0000
0000
ENDCHAR
STARTCHAR x
ENCODING 120
SWIDTH 421 0
DWIDTH 8 0
BBX 8 19 0 -4
BITMAP
00
00
00
00
00
00
00
63
22
14
08
08
14
22
63
00
00
00
00
ENDCHAR
STARTCHAR y
ENCODING 121
SWIDTH 421 0
DWIDTH 8 0
BBX 8 19 0 -4
BITMAP
00
00
00
00
00
00
00
77
22
22
14
14
14
08
08
10
10
50
60
ENDCHAR
STARTCHAR z
ENCODING 122
SWIDTH 368 0
DWIDTH 7 0
BBX 7 19 0 -4
BITMAP
00
00
00
00
00
00
00
7e
44
08
08
10
10
22
7e
00
00
00
00
ENDCHAR
STARTCHAR braceleft
ENCODING 123
SWIDTH 368 0
DWIDTH 7 0
BBX 7 19 0 -4
BITMAP
00
00
00
0c
10
10
10
10
10
10
60
10
10
10
10
10
10
0c
00
ENDCHAR
STARTCHAR bar
ENCODING 124
SWIDTH 157 0
DWIDTH 3 0
BBX 3 19 0 -4
BITMAP
00
00
00
00
40
40
40
40
40
40
40
40
40
40
40
40
00
00
00
ENDCHAR
STARTCHAR braceright
ENCODING 125
SWIDTH 368 0
DWIDTH 7 0
BBX 7 19 0 -4
BITMAP
00
00
00
60
10
10
10
10
10
10
0c
10
10
10
10
10
10
60
00
ENDCHAR
STARTCHAR asciitilde
ENCODING 126
SWIDTH 473 0
DWIDTH 9 0
BBX 9 19 0 -4
BITMAP
0000
0000
0000
3000
4900
0600
0000
0000
0000
0000
0000
0000
0000
0000
0000
0000
0000
0000
0000
ENDCHAR
STARTCHAR C177
ENCODING -1
SWIDTH 263 0
DWIDTH 5 0
BBX 5 19 0 -4
BITMAP
00
00
00
00
00
30
30
30
30
30
30
30
30
30
30
30
00
00
00
ENDCHAR
STARTCHAR C200
ENCODING -1
SWIDTH 263 0
DWIDTH 5 0
BBX 5 19 0 -4
BITMAP
00
00
00
00
00
30
30
30
30
30
30
30
30
30
30
30
00
00
00
ENDCHAR
STARTCHAR C201
ENCODING -1
SWIDTH 263 0
DWIDTH 5 0
BBX 5 19 0 -4
BITMAP
00
00
00
00
00
30
30
30
30
30
30
30
30
30
30
30
00
00
00
ENDCHAR
STARTCHAR C202
ENCODING -1
SWIDTH 263 0
DWIDTH 5 0
BBX 5 19 0 -4
BITMAP
00
00
00
00
00
30
30
30
30
30
30
30
30
30
30
30
00
00
00
ENDCHAR
STARTCHAR C203
ENCODING -1
SWIDTH 263 0
DWIDTH 5 0
BBX 5 19 0 -4
BITMAP
00
00
00
00
00
30
30
30
30
30
30
30
30
30
30
30
00
00
00
ENDCHAR
STARTCHAR C204
ENCODING -1
SWIDTH 263 0
DWIDTH 5 0
BBX 5 19 0 -4
BITMAP
00
00
00
00
00
30
30
30
30
30
30
30
30
30
30
30
00
00
00
ENDCHAR
STARTCHAR C205
ENCODING -1
SWIDTH 263 0
DWIDTH 5 0
BBX 5 19 0 -4
BITMAP
00
00
00
00
00
30
30
30
30
30
30
30
30
30
30
30
00
00
00
ENDCHAR
STARTCHAR C206
ENCODING -1
SWIDTH 263 0
DWIDTH 5 0
BBX 5 19 0 -4
BITMAP
00
00
00
00
00
30
30
30
30
30
30
30
30
30
30
30
00
00
00
ENDCHAR
STARTCHAR C207
ENCODING -1
SWIDTH 263 0
DWIDTH 5 0
BBX 5 19 0 -4
BITMAP
00
00
00
00
00
30
30
30
30
30
30
30
30
30
30
30
00
00
00
ENDCHAR
STARTCHAR C210
ENCODING -1
SWIDTH 263 0
DWIDTH 5 0
BBX 5 19 0 -4
BITMAP
00
00
00
00
00
30
30
30
30
30
30
30
30
30
30
30
00
00
00
ENDCHAR
STARTCHAR C211
ENCODING -1
SWIDTH 263 0
DWIDTH 5 0
BBX 5 19 0 -4
BITMAP
00
00
00
00
00
30
30
30
30
30
30
30
30
30
30
30
00
00
00
ENDCHAR
STARTCHAR C212
ENCODING -1
SWIDTH 263 0
DWIDTH 5 0
BBX 5 19 0 -4
BITMAP
00
00
00
00
00
30
30
30
30
30
30
30
30
30
30
30
00
00
00
ENDCHAR
STARTCHAR C213
ENCODING -1
SWIDTH 263 0
DWIDTH 5 0
BBX 5 19 0 -4
BITMAP
00
00
00
00
00
30
30
30
30
30
30
30
30
30
30
30
00
00
00
ENDCHAR
STARTCHAR C214
ENCODING -1
SWIDTH 263 0
DWIDTH 5 0
BBX 5 19 0 -4
BITMAP
00
00
00
00
00
30
30
30
30
30
30
30
30
30
30
30
00
00
00
ENDCHAR
STARTCHAR C215
ENCODING -1
SWIDTH 263 0
DWIDTH 5 0
BBX 5 19 0 -4
BITMAP
00
00
00
00
00
30
30
30
30
30
30
30
30
30
30
30
00
00
00
ENDCHAR
STARTCHAR C216
ENCODING -1
SWIDTH 263 0
DWIDTH 5 0
BBX 5 19 0 -4
BITMAP
00
00
00
00
00
30
30
30
30
30
30
30
30
30
30
30
00
00
00
ENDCHAR
STARTCHAR C217
ENCODING -1
SWIDTH 263 0
DWIDTH 5 0
BBX 5 19 0 -4
BITMAP
00
00
00
00
00
30
30
30
30
30
30
30
30
30
30
30
00
00
00
ENDCHAR
STARTCHAR C220
ENCODING -1
SWIDTH 263 0
DWIDTH 5 0
BBX 5 19 0 -4
BITMAP
00
00
00
00
00
30
30
30
30
30
30
30
30
30
30
30
00
00
00
ENDCHAR
STARTCHAR C221
ENCODING -1
SWIDTH 210 0
DWIDTH 4 0
BBX 4 19 0 -4
BITMAP
00
00
00
00
20
40
60
00
00
00
00
00
00
00
00
00
00
00
00
ENDCHAR
STARTCHAR C222
ENCODING -1
SWIDTH 210 0
DWIDTH 4 0
BBX 4 19 0 -4
BITMAP
00
00
00
00
60
20
40
00
00
00
00
00
00
00
00
00
00
00
00
ENDCHAR
STARTCHAR C223
ENCODING -1
SWIDTH 263 0
DWIDTH 5 0
BBX 5 19 0 -4
BITMAP
00
00
00
00
00
30
30
30
30
30
30
30
30
30
30
30
00
00
00
ENDCHAR
STARTCHAR C224
ENCODING -1
SWIDTH 263 0
DWIDTH 5 0
BBX 5 19 0 -4
BITMAP
00
00
00
00
00
30
30
30
30
30
30
30
30
30
30
30
00
00
00
ENDCHAR
STARTCHAR C225
ENCODING -1
SWIDTH 263 0
DWIDTH 5 0
BBX 5 19 0 -4
BITMAP
00
00
00
00
00
30
30
30
30
30
30
30
30
30
30
30
00
00
00
ENDCHAR
STARTCHAR C226
ENCODING -1
SWIDTH 263 0
DWIDTH 5 0
BBX 5 19 0 -4
BITMAP
00
00
00
00
00
30
30
30
30
30
30
30
30
30
30
30
00
00
00
ENDCHAR
STARTCHAR C227
ENCODING -1
SWIDTH 263 0
DWIDTH 5 0
BBX 5 19 0 -4
BITMAP
00
00
00
00
00
30
30
30
30
30
30
30
30
30
30
30
00
00
00
ENDCHAR
STARTCHAR C230
ENCODING -1
SWIDTH 263 0
DWIDTH 5 0
BBX 5 19 0 -4
BITMAP
00
00
00
00
00
30
30
30
30
30
30
30
30
30
30
30
00
00
00
ENDCHAR
STARTCHAR C231
ENCODING -1
SWIDTH 263 0
DWIDTH 5 0
BBX 5 19 0 -4
BITMAP
00
00
00
00
00
30
30
30
30
30
30
30
30
30
30
30
00
00
00
ENDCHAR
STARTCHAR C232
ENCODING -1
SWIDTH 263 0
DWIDTH 5 0
BBX 5 19 0 -4
BITMAP
00
00
00
00
00
30
30
30
30
30
30
30
30
30
30
30
00
00
00
ENDCHAR
STARTCHAR C233
ENCODING -1
SWIDTH 263 0
DWIDTH 5 0
BBX 5 19 0 -4
BITMAP
00
00
00
00
00
30
30
30
30
30
30
30
30
30
30
30
00
00
00
ENDCHAR
STARTCHAR C234
ENCODING -1
SWIDTH 263 0
DWIDTH 5 0
BBX 5 19 0 -4
BITMAP
00
00
00
00
00
30
30
30
30
30
30
30
30
30
30
30
00
00
00
ENDCHAR
STARTCHAR C235
ENCODING -1
SWIDTH 263 0
DWIDTH 5 0
BBX 5 19 0 -4
BITMAP
00
00
00
00
00
30
30
30
30
30
30
30
30
30
30
30
00
00
00
ENDCHAR
STARTCHAR C236
ENCODING -1
SWIDTH 263 0
DWIDTH 5 0
BBX 5 19 0 -4
BITMAP
00
00
00
00
00
30
30
30
30
30
30
30
30
30
30
30
00
00
00
ENDCHAR
STARTCHAR C237
ENCODING -1
SWIDTH 263 0
DWIDTH 5 0
BBX 5 19 0 -4
BITMAP
00
00
00
00
00
30
30
30
30
30
30
30
30
30
30
30
00
00
00
ENDCHAR
STARTCHAR C240
ENCODING 160
SWIDTH 210 0
DWIDTH 4 0
BBX 4 19 0 -4
BITMAP
00
00
00
00
00
00
00
00
00
00
00
00
00
00
00
00
00
00
00
ENDCHAR
STARTCHAR exclamdown
ENCODING 161
SWIDTH 526 0
DWIDTH 10 0
BBX 10 19 0 -4
BITMAP
0000
0000
3300
0000
7f80
2080
2000
2000
2200
3e00
2200
2000
2000
2080
7f80
0000
0000
0000
0000
ENDCHAR
STARTCHAR cent
ENCODING 162
SWIDTH 421 0
DWIDTH 8 0
BBX 8 19 0 -4
BITMAP
00
00
00
00
00
00
00
04
38
4c
50
50
50
64
38
40
00
00
00
ENDCHAR
STARTCHAR sterling
ENCODING 184
SWIDTH 421 0
DWIDTH 8 0
BBX 8 19 0 -4
BITMAP
00
00
00
00
18
24
20
20
20
78
20
20
20
22
5c
00
00
00
00
ENDCHAR
STARTCHAR currency
ENCODING 164
SWIDTH 421 0
DWIDTH 8 0
BBX 8 19 0 -4
BITMAP
00
00
00
00
42
3c
24
24
3c
42
00
00
00
00
00
00
00
00
00
ENDCHAR
STARTCHAR yen
ENCODING 165
SWIDTH 421 0
DWIDTH 8 0
BBX 8 19 0 -4
BITMAP
00
00
00
00
c7
82
44
44
fe
10
fe
10
10
10
38
00
00
00
00
ENDCHAR
STARTCHAR brokenbar
ENCODING 166
SWIDTH 210 0
DWIDTH 4 0
BBX 4 19 0 -4
BITMAP
00
00
00
00
40
40
40
40
40
40
00
00
00
40
40
40
40
40
40
ENDCHAR
STARTCHAR section
ENCODING 167
SWIDTH 421 0
DWIDTH 8 0
BBX 8 19 0 -4
BITMAP
00
00
00
00
3c
42
40
30
4c
42
32
0c
02
42
3c
00
00
00
00
ENDCHAR
STARTCHAR dieresis
ENCODING 168
SWIDTH 263 0
DWIDTH 5 0
BBX 5 19 0 -4
BITMAP
00
00
00
00
90
00
00
00
00
00
00
00
00
00
00
00
00
00
00
ENDCHAR
STARTCHAR copyright
ENCODING 169
SWIDTH 684 0
DWIDTH 13 0
BBX 13 19 0 -4
BITMAP
0000
0000
0000
0000
0f80
3060
2720
4890
4810
4810
4810
4890
2720
3060
0f80
0000
0000
0000
0000
ENDCHAR
STARTCHAR ordfeminine
ENCODING 170
SWIDTH 210 0
DWIDTH 4 0
BBX 4 19 0 -4
BITMAP
00
00
00
00
60
10
70
90
70
00
f0
00
00
00
00
00
00
00
00
ENDCHAR
STARTCHAR guillemotleft
ENCODING 171
SWIDTH 421 0
DWIDTH 8 0
BBX 8 19 0 -4
BITMAP
00
00
00
00
00
00
00
00
12
24
48
90
48
24
12
00
00
00
00
ENDCHAR
STARTCHAR logicalnot
ENCODING 172
SWIDTH 473 0
DWIDTH 9 0
BBX 9 19 0 -4
BITMAP
0000
0000
0000
0000
0000
0000
0000
0000
0000
7f00
0100
0100
0000
0000
0000
0000
0000
0000
0000
ENDCHAR
STARTCHAR hyphen
ENCODING 173
SWIDTH 263 0
DWIDTH 5 0
BBX 5 19 0 -4
BITMAP
00
00
00
00
00
00
00
00
00
00
f0
00
00
00
00
00
00
00
00
ENDCHAR
STARTCHAR registered
ENCODING 174
SWIDTH 684 0
DWIDTH 13 0
BBX 13 19 0 -4
BITMAP
0000
0000
0000
0000
0f80
3060
2f20
4890
4890
4f10
4910
4910
28a0
3060
0f80
0000
0000
0000
0000
ENDCHAR
STARTCHAR macron
ENCODING 175
SWIDTH 421 0
DWIDTH 8 0
BBX 8 19 0 -4
BITMAP
ff
00
00
00
00
00
00
00
00
00
00
00
00
00
00
00
00
00
00
ENDCHAR
STARTCHAR degree
ENCODING 176
SWIDTH 263 0
DWIDTH 5 0
BBX 5 19 0 -4
BITMAP
00
00
00
00
20
50
20
00
00
00
00
00
00
00
00
00
00
00
00
ENDCHAR
STARTCHAR plusminus
ENCODING 177
SWIDTH 473 0
DWIDTH 9 0
BBX 9 19 0 -4
BITMAP
0000
0000
0000
0000
0000
0800
0800
0800
7f00
0800
0800
0800
0000
0000
7f00
0000
0000
0000
0000
ENDCHAR
STARTCHAR twosuperior
ENCODING 178
SWIDTH 210 0
DWIDTH 4 0
BBX 4 19 0 -4
BITMAP
00
00
00
00
60
90
20
40
80
f0
00
00
00
00
00
00
00
00
00
ENDCHAR
STARTCHAR threesuperior
ENCODING 168
SWIDTH 210 0
DWIDTH 4 0
BBX 4 19 0 -4
BITMAP
00
00
00
00
60
90
20
10
90
60
00
00
00
00
00
00
00
00
00
ENDCHAR
STARTCHAR acute
ENCODING 180
SWIDTH 263 0
DWIDTH 5 0
BBX 5 19 0 -4
BITMAP
00
00
00
10
20
40
00
00
00
00
00
00
00
00
00
00
00
00
00
ENDCHAR
STARTCHAR mu
ENCODING 181
SWIDTH 526 0
DWIDTH 10 0
BBX 10 19 0 -4
BITMAP
0000
0000
0000
0000
0000
0000
0000
0000
2100
2100
2100
2100
2100
2100
3ec0
2000
2000
2000
2000
ENDCHAR
STARTCHAR paragraph
ENCODING 182
SWIDTH 368 0
DWIDTH 7 0
BBX 7 19 0 -4
BITMAP
00
00
00
00
7c
f4
f4
f4
f4
74
14
14
14
14
14
14
00
00
00
ENDCHAR
STARTCHAR periodcentered
ENCODING 183
SWIDTH 210 0
DWIDTH 4 0
BBX 4 19 0 -4
BITMAP
00
00
00
00
00
00
00
00
00
40
00
00
00
00
00
00
00
00
00
ENDCHAR
STARTCHAR cedilla
ENCODING 184
SWIDTH 263 0
DWIDTH 5 0
BBX 5 19 0 -4
BITMAP
00
00
00
00
00
00
00
00
00
00
00
00
00
00
00
40
20
c0
00
ENDCHAR
STARTCHAR onesuperior
ENCODING 185
SWIDTH 210 0
DWIDTH 4 0
BBX 4 19 0 -4
BITMAP
00
00
00
00
20
60
20
20
20
70
00
00
00
00
00
00
00
00
00
ENDCHAR
STARTCHAR ordmasculine
ENCODING 186
SWIDTH 263 0
DWIDTH 5 0
BBX 5 19 0 -4
BITMAP
00
00
00
00
70
88
88
88
70
00
f8
00
00
00
00
00
00
00
00
ENDCHAR
STARTCHAR guillemotright
ENCODING 187
SWIDTH 421 0
DWIDTH 8 0
BBX 8 19 0 -4
BITMAP
00
00
00
00
00
00
00
00
90
48
24
12
24
48
90
00
00
00
00
ENDCHAR
STARTCHAR onequarter
ENCODING 188
SWIDTH 578 0
DWIDTH 11 0
BBX 11 19 0 -4
BITMAP
0000
0000
0000
0000
2020
6040
2080
2100
2200
7480
0980
1280
2280
43c0
8080
0000
0000
0000
0000
ENDCHAR
STARTCHAR onehalf
ENCODING 189
SWIDTH 578 0
DWIDTH 11 0
BBX 11 19 0 -4
BITMAP
0000
0000
0000
0000
2020
6040
2080
2100
2200
74c0
0920
1040
2080
4100
81e0
0000
0000
0000
0000
ENDCHAR
STARTCHAR threequarters
ENCODING 190
SWIDTH 578 0
DWIDTH 11 0
BBX 11 19 0 -4
BITMAP
0000
0000
0000
0000
6020
9040
2080
1100
9200
6480
0980
1280
2280
43c0
8080
0000
0000
0000
0000
ENDCHAR
STARTCHAR questiondown
ENCODING 191
SWIDTH 368 0
DWIDTH 7 0
BBX 7 19 0 -4
BITMAP
00
00
00
00
00
6c
00
38
44
44
7c
40
40
44
38
00
00
00
00
ENDCHAR
STARTCHAR cyr-A
ENCODING 192
SWIDTH 578 0
DWIDTH 11 0
BBX 11 19 0 -4
BITMAP
0000
0000
0000
0000
0400
0400
0a00
0a00
1100
1100
2080
3f80
4040
4040
e0e0
0000
0000
0000
0000
ENDCHAR
STARTCHAR cyr-Be
ENCODING 193
SWIDTH 578 0
DWIDTH 11 0
BBX 11 19 0 -4
BITMAP
0000
0000
0000
0000
7f00
2080
2000
2000
3f00
2080
2040
2040
2040
2080
7f00
0000
0000
0000
0000
ENDCHAR
STARTCHAR cyr-Ve
ENCODING 194
SWIDTH 578 0
DWIDTH 11 0
BBX 11 19 0 -4
BITMAP
0000
0000
0000
0000
7e00
2100
2080
2080
2100
3f00
2080
2040
2040
2080
7f00
0000
0000
0000
0000
ENDCHAR
STARTCHAR cyr-Ghe
ENCODING 195
SWIDTH 473 0
DWIDTH 9 0
BBX 9 19 0 -4
BITMAP
0000
0000
0000
0000
7f80
2080
2000
2000
2000
2000
2000
2000
2000
2000
7000
0000
0000
0000
0000
ENDCHAR
STARTCHAR cyr-De
ENCODING 196
SWIDTH 578 0
DWIDTH 11 0
BBX 11 19 0 -4
BITMAP
0000
0000
0000
0000
3fc0
1080
1080
1080
1080
1080
1080
1080
1080
2080
7fc0
4040
4040
0000
0000
ENDCHAR
STARTCHAR cyr-Ie
ENCODING 197
SWIDTH 526 0
DWIDTH 10 0
BBX 10 19 0 -4
BITMAP
0000
0000
0000
0000
7f80
2080
2000
2000
2200
3e00
2200
2000
2000
2080
7f80
0000
0000
0000
0000
ENDCHAR
STARTCHAR cyr-Zhe
ENCODING 198
SWIDTH 947 0
DWIDTH 18 0
BBX 18 19 0 -4
BITMAP
000000
000000
000000
000000
38e380
104100
084200
044400
024800
035800
04e400
084200
104100
204080
70e1c0
000000
000000
000000
000000
ENDCHAR
STARTCHAR cyr-Ze
ENCODING 199
SWIDTH 526 0
DWIDTH 10 0
BBX 10 19 0 -4
BITMAP
0000
0000
0000
0000
3e00
4100
0080
0080
0100
0e00
0100
0080
0080
4100
3e00
0000
0000
0000
0000
ENDCHAR
STARTCHAR cyr-I
ENCODING 200
SWIDTH 631 0
DWIDTH 12 0
BBX 12 19 0 -4
BITMAP
0000
0000
0000
0000
70e0
2040
2040
20c0
2140
2240
2440
2840
3040
2040
70e0
0000
0000
0000
0000
ENDCHAR
STARTCHAR cyr-I-short
ENCODING 201
SWIDTH 631 0
DWIDTH 12 0
BBX 12 19 0 -4
BITMAP
0000
0000
0f00
0000
70e0
2040
2040
20c0
2140
2240
2440
2840
3040
2040
70e0
0000
0000
0000
0000
ENDCHAR
STARTCHAR cyr-Ka
ENCODING 202
SWIDTH 578 0
DWIDTH 11 0
BBX 11 19 0 -4
BITMAP
0000
0000
0000
0000
71c0
2080
2100
2200
2400
2c00
3200
2100
2080
2040
70e0
0000
0000
0000
0000
ENDCHAR
STARTCHAR cyr-El
ENCODING 203
SWIDTH 631 0
DWIDTH 12 0
BBX 12 19 0 -4
BITMAP
0000
0000
0000
0000
1fe0
0840
0840
0840
0840
0840
0840
0840
0840
0840
70e0
0000
0000
0000
0000
ENDCHAR
STARTCHAR cyr-Em
ENCODING 204
SWIDTH 789 0
DWIDTH 15 0
BBX 15 19 0 -4
BITMAP
0000
0000
0000
0000
600c
3018
3018
2828
2828
2448
2448
2288
2288
2108
711c
0000
0000
0000
0000
ENDCHAR
STARTCHAR cyr-En
ENCODING 205
SWIDTH 631 0
DWIDTH 12 0
BBX 12 19 0 -4
BITMAP
0000
0000
0000
0000
70e0
2040
2040
2040
2040
3fc0
2040
2040
2040
2040
70e0
0000
0000
0000
0000
ENDCHAR
STARTCHAR cyr-O
ENCODING 206
SWIDTH 631 0
DWIDTH 12 0
BBX 12 19 0 -4
BITMAP
0000
0000
0000
0000
0f00
30c0
2040
4020
4020
4020
4020
4020
2040
30c0
0f00
0000
0000
0000
0000
ENDCHAR
STARTCHAR cyr-Pe
ENCODING 207
SWIDTH 631 0
DWIDTH 12 0
BBX 12 19 0 -4
BITMAP
0000
0000
0000
0000
7fe0
2040
2040
2040
2040
2040
2040
2040
2040
2040
70e0
0000
0000
0000
0000
ENDCHAR
STARTCHAR cyr-Er
ENCODING 208
SWIDTH 578 0
DWIDTH 11 0
BBX 11 19 0 -4
BITMAP
0000
0000
0000
0000
7f00
2080
2040
2040
2040
2080
3f00
2000
2000
2000
7000
0000
0000
0000
0000
ENDCHAR
STARTCHAR cyr-Es
ENCODING 209
SWIDTH 578 0
DWIDTH 11 0
BBX 11 19 0 -4
BITMAP
0000
0000
0000
0000
0f40
30c0
2040
4000
4000
4000
4000
4020
2040
30c0
0f00
0000
0000
0000
0000
ENDCHAR
STARTCHAR cyr-Te
ENCODING 210
SWIDTH 578 0
DWIDTH 11 0
BBX 11 19 0 -4
BITMAP
0000
0000
0000
0000
7fc0
4440
0400
0400
0400
0400
0400
0400
0400
0400
0e00
0000
0000
0000
0000
ENDCHAR
STARTCHAR cyr-U
ENCODING 211
SWIDTH 631 0
DWIDTH 12 0
BBX 12 19 0 -4
BITMAP
0000
0000
0000
0000
7070
2020
1040
0840
0880
0480
0500
0300
0200
0200
1c00
0000
0000
0000
0000
ENDCHAR
STARTCHAR cyr-Ef
ENCODING 212
SWIDTH 684 0
DWIDTH 13 0
BBX 13 19 0 -4
BITMAP
0000
0000
0000
0000
1fc0
2220
4210
4210
4210
4210
4210
4210
4210
2220
1fc0
0200
0200
0700
0000
ENDCHAR
STARTCHAR cyr-Kha
ENCODING 213
SWIDTH 684 0
DWIDTH 13 0
BBX 13 19 0 -4
BITMAP
0000
0000
0000
0000
7070
2020
1040
0880
0500
0200
0500
0880
1040
2020
7070
0000
0000
0000
0000
ENDCHAR
STARTCHAR cyr-Tse
ENCODING 214
SWIDTH 631 0
DWIDTH 12 0
BBX 12 19 0 -4
BITMAP
0000
0000
0000
0000
70e0
2040
2040
2040
2040
2040
2040
2040
2040
2040
7fe0
0020
0020
0000
0000
ENDCHAR
STARTCHAR cyr-Che
ENCODING 215
SWIDTH 631 0
DWIDTH 12 0
BBX 12 19 0 -4
BITMAP
0000
0000
0000
0000
70e0
2040
2040
2040
2040
1fc0
0040
0040
0040
0040
00e0
0000
0000
0000
0000
ENDCHAR
STARTCHAR cyr-Sha
ENCODING 216
SWIDTH 894 0
DWIDTH 17 0
BBX 17 19 0 -4
BITMAP
000000
000000
000000
000000
71c700
208200
208200
208200
208200
208200
208200
208200
208200
208200
7fff00
000000
000000
000000
000000
ENDCHAR
STARTCHAR cyr-Shcha
ENCODING 217
SWIDTH 894 0
DWIDTH 17 0
BBX 17 19 0 -4
BITMAP
000000
000000
000000
000000
71c700
208200
208200
208200
208200
208200
208200
208200
208200
208200
7fff00
000100
000100
000000
000000
ENDCHAR
STARTCHAR cyr-Ier
ENCODING 218
SWIDTH 684 0
DWIDTH 13 0
BBX 13 19 0 -4
BITMAP
0000
0000
0000
0000
7c00
4800
4800
0800
0fc0
0820
0810
0810
0810
0820
1fc0
0000
0000
0000
0000
ENDCHAR
STARTCHAR cyr-Iery
ENCODING 219
SWIDTH 789 0
DWIDTH 15 0
BBX 15 19 0 -4
BITMAP
0000
0000
0000
0000
701c
2008
2008
2008
3f08
2088
2048
2048
2048
2088
7f1c
0000
0000
0000
0000
ENDCHAR
STARTCHAR cyr-Ierik
ENCODING 220
SWIDTH 578 0
DWIDTH 11 0
BBX 11 19 0 -4
BITMAP
0000
0000
0000
0000
7000
2000
2000
2000
3f00
2080
2040
2040
2040
2080
7f00
0000
0000
0000
0000
ENDCHAR
STARTCHAR cyr-E-rev
ENCODING 221
SWIDTH 526 0
DWIDTH 10 0
BBX 10 19 0 -4
BITMAP
0000
0000
0000
0000
1e00
2100
4080
0080
0080
1f80
0080
0080
4080
2100
1e00
0000
0000
0000
0000
ENDCHAR
STARTCHAR cyr-Yu
ENCODING 222
SWIDTH 894 0
DWIDTH 17 0
BBX 17 19 0 -4
BITMAP
000000
000000
000000
000000
707800
218600
210200
220100
220100
3e0100
220100
220100
210200
218600
707800
000000
000000
000000
000000
ENDCHAR
STARTCHAR cyr-Ya
ENCODING 223
SWIDTH 684 0
DWIDTH 13 0
BBX 13 19 0 -4
BITMAP
0000
0000
0000
0000
0ff0
1020
1020
1020
1020
0fe0
0420
0820
1020
1020
7070
0000
0000
0000
0000
ENDCHAR
STARTCHAR cyr-a
ENCODING 224
SWIDTH 368 0
DWIDTH 7 0
BBX 7 19 0 -4
BITMAP
00
00
00
00
00
00
00
38
44
04
3c
44
44
44
3a
00
00
00
00
ENDCHAR
STARTCHAR cyr-be
ENCODING 225
SWIDTH 315 0
DWIDTH 6 0
BBX 6 19 0 -4
BITMAP
00
00
04
38
40
40
40
58
64
44
44
44
44
44
38
00
00
00
00
ENDCHAR
STARTCHAR cyr-ve
ENCODING 226
SWIDTH 368 0
DWIDTH 7 0
BBX 7 19 0 -4
BITMAP
00
00
00
00
00
00
00
78
24
24
3c
22
22
22
7c
00
00
00
00
ENDCHAR
STARTCHAR cyr-ghe
ENCODING 227
SWIDTH 368 0
DWIDTH 7 0
BBX 7 19 0 -4
BITMAP
00
00
00
00
00
00
00
7e
22
20
20
20
20
20
70
00
00
00
00
ENDCHAR
STARTCHAR cyr-de
ENCODING 228
SWIDTH 421 0
DWIDTH 8 0
BBX 8 19 0 -4
BITMAP
00
00
00
00
00
00
00
3f
12
12
12
12
12
22
7f
41
41
00
00
ENDCHAR
STARTCHAR cyr-ie
ENCODING 229
SWIDTH 315 0
DWIDTH 6 0
BBX 6 19 0 -4
BITMAP
00
00
00
00
00
00
00
38
44
44
7c
40
40
44
38
00
00
00
00
ENDCHAR
STARTCHAR cyr-zhe
ENCODING 230
SWIDTH 736 0
DWIDTH 14 0
BBX 14 19 0 -4
BITMAP
0000
0000
0000
0000
0000
0000
0000
3bb8
1110
0920
07c0
0920
1110
1110
3bb8
0000
0000
0000
0000
ENDCHAR
STARTCHAR cyr-z
ENCODING 231
SWIDTH 368 0
DWIDTH 7 0
BBX 7 19 0 -4
BITMAP
00
00
00
00
00
00
00
3c
42
02
0c
02
02
42
3c
00
00
00
00
ENDCHAR
STARTCHAR cyr-i
ENCODING 232
SWIDTH 473 0
DWIDTH 9 0
BBX 9 19 0 -4
BITMAP
0000
0000
0000
0000
0000
0000
0000
7380
2300
2500
2500
2900
2900
3100
7380
0000
0000
0000
0000
ENDCHAR
STARTCHAR cyr-i-short
ENCODING 233
SWIDTH 473 0
DWIDTH 9 0
BBX 9 19 0 -4
BITMAP
0000
0000
0000
0000
0000
0c00
0000
7380
2300
2500
2500
2900
2900
3100
7380
0000
0000
0000
0000
ENDCHAR
STARTCHAR cyr-ka
ENCODING 234
SWIDTH 421 0
DWIDTH 8 0
BBX 8 19 0 -4
BITMAP
00
00
00
00
00
00
00
77
22
24
38
24
22
22
77
00
00
00
00
ENDCHAR
STARTCHAR cyr-el
ENCODING 235
SWIDTH 473 0
DWIDTH 9 0
BBX 9 19 0 -4
BITMAP
0000
0000
0000
0000
0000
0000
0000
3f80
1100
1100
1100
1100
1100
1100
6380
0000
0000
0000
0000
ENDCHAR
STARTCHAR cyr-em
ENCODING 236
SWIDTH 526 0
DWIDTH 10 0
BBX 10 19 0 -4
BITMAP
0000
0000
0000
0000
0000
0000
0000
60c0
3180
3180
2a80
2a80
2480
2480
71c0
0000
0000
0000
0000
ENDCHAR
STARTCHAR cyr-en
ENCODING 237
SWIDTH 421 0
DWIDTH 8 0
BBX 8 19 0 -4
BITMAP
00
00
00
00
00
00
00
77
22
22
3e
22
22
22
77
00
00
00
00
ENDCHAR
STARTCHAR cyr-o
ENCODING 238
SWIDTH 368 0
DWIDTH 7 0
BBX 7 19 0 -4
BITMAP
00
00
00
00
00
00
00
3c
42
42
42
42
42
42
3c
00
00
00
00
ENDCHAR
STARTCHAR cyr-pe
ENCODING 239
SWIDTH 421 0
DWIDTH 8 0
BBX 8 19 0 -4
BITMAP
00
00
00
00
00
00
00
7f
22
22
22
22
22
22
77
00
00
00
00
ENDCHAR
STARTCHAR cyr-er
ENCODING 240
SWIDTH 368 0
DWIDTH 7 0
BBX 7 19 0 -4
BITMAP
00
00
00
00
00
00
00
7c
22
22
22
22
22
22
3c
20
20
20
70
ENDCHAR
STARTCHAR cyr-es
ENCODING 241
SWIDTH 315 0
DWIDTH 6 0
BBX 6 19 0 -4
BITMAP
00
00
00
00
00
00
00
38
44
40
40
40
40
44
38
00
00
00
00
ENDCHAR
STARTCHAR cyr-te
ENCODING 242
SWIDTH 421 0
DWIDTH 8 0
BBX 8 19 0 -4
BITMAP
00
00
00
00
00
00
00
7f
49
08
08
08
08
08
1c
00
00
00
00
ENDCHAR
STARTCHAR cyr-u
ENCODING 243
SWIDTH 421 0
DWIDTH 8 0
BBX 8 19 0 -4
BITMAP
00
00
00
00
00
00
00
77
22
22
14
14
14
08
08
10
10
50
60
ENDCHAR
STARTCHAR cyr-ef
ENCODING 244
SWIDTH 421 0
DWIDTH 8 0
BBX 8 19 0 -4
BITMAP
00
00
00
00
00
00
00
3e
49
49
49
49
49
49
3e
08
08
08
1c
ENDCHAR
STARTCHAR cyr-kha
ENCODING 245
SWIDTH 421 0
DWIDTH 8 0
BBX 8 19 0 -4
BITMAP
00
00
00
00
00
00
00
63
22
14
08
08
14
22
63
00
00
00
00
ENDCHAR
STARTCHAR cyr-tse
ENCODING 246
SWIDTH 421 0
DWIDTH 8 0
BBX 8 19 0 -4
BITMAP
00
00
00
00
00
00
00
77
22
22
22
22
22
22
7f
01
01
00
00
ENDCHAR
STARTCHAR cyr-che
ENCODING 247
SWIDTH 421 0
DWIDTH 8 0
BBX 8 19 0 -4
BITMAP
00
00
00
00
00
00
00
77
22
22
22
1e
02
02
07
00
00
00
00
ENDCHAR
STARTCHAR cyr-sha
ENCODING 248
SWIDTH 631 0
DWIDTH 12 0
BBX 12 19 0 -4
BITMAP
0000
0000
0000
0000
0000
0000
0000
7770
2220
2220
2220
2220
2220
2220
7ff0
0000
0000
0000
0000
ENDCHAR
STARTCHAR cyr-shcha
ENCODING 249
SWIDTH 631 0
DWIDTH 12 0
BBX 12 19 0 -4
BITMAP
0000
0000
0000
0000
0000
0000
0000
7770
2220
2220
2220
2220
2220
2220
7ff0
0010
0010
0000
0000
ENDCHAR
STARTCHAR cyr-ier
ENCODING 250
SWIDTH 421 0
DWIDTH 8 0
BBX 8 19 0 -4
BITMAP
00
00
00
00
00
00
00
78
50
50
1e
11
11
11
3e
00
00
00
00
ENDCHAR
STARTCHAR cyr-iery
ENCODING 251
SWIDTH 578 0
DWIDTH 11 0
BBX 11 19 0 -4
BITMAP
0000
0000
0000
0000
0000
0000
0000
70e0
2040
2040
3c40
2240
2240
2240
7ce0
0000
0000
0000
0000
ENDCHAR
STARTCHAR cyr-ierik
ENCODING 252
SWIDTH 368 0
DWIDTH 7 0
BBX 7 19 0 -4
BITMAP
00
00
00
00
00
00
00
70
20
20
3c
22
22
22
7c
00
00
00
00
ENDCHAR
STARTCHAR cyr-e-rev
ENCODING 253
SWIDTH 368 0
DWIDTH 7 0
BBX 7 19 0 -4
BITMAP
00
00
00
00
00
00
00
3c
42
02
1e
02
02
42
3c
00
00
00
00
ENDCHAR
STARTCHAR cyr-yu
ENCODING 254
SWIDTH 578 0
DWIDTH 11 0
BBX 11 19 0 -4
BITMAP
0000
0000
0000
0000
0000
0000
0000
73c0
2420
2420
3c20
2420
2420
2420
73c0
0000
0000
0000
0000
ENDCHAR
STARTCHAR cyr-ya
ENCODING 255
SWIDTH 421 0
DWIDTH 8 0
BBX 8 19 0 -4
BITMAP
00
00
00
00
00
00
00
1f
22
22
22
1e
12
22
67
00
00
00
00
ENDCHAR
ENDFONT
