STARTFONT 2.1
COMMENT Copyright (C) 1990-1991 EWT Consulting
COMMENT Portions Copyright (C) 1994-1995 Cronyx Ltd.
COMMENT Modified by Serge Vakulenko, <vak@cronyx.ru>
COMMENT Encoding changed to CP1251 by Rabinovich Moisei, <moisei@cs.bgu.ac.il>,$
COMMENT This software may be used, modified, copied, distributed, and sold,
COMMENT in both source and binary form provided that the copyright
COMMENT and these terms are retained. Under no circumstances is the author
COMMENT responsible for the proper functioning of this software, nor does
COMMENT the author assume any responsibility for damages incurred with its use.
FONT -Cronyx-Helvetica-Medium-R-Normal--12-120-75-75-P-67-RAWIN-R
SIZE 12 96 96
FONTBOUNDINGBOX 16 20 0 -4
STARTPROPERTIES 19
DEFAULT_CHAR 32
FONT_ASCENT 16
FONT_DESCENT 4
SPACING "P"
FONTNAME_REGISTRY ""
FOUNDRY "Cronyx"
FAMILY_NAME "Helvetica"
WEIGHT_NAME "Medium"
SLANT "R"
SETWIDTH_NAME "Normal"
ADD_STYLE_NAME ""
AVERAGE_WIDTH 67
CHARSET_REGISTRY "RAWIN"
CHARSET_ENCODING "R"
PIXEL_SIZE 12
POINT_SIZE 120
RESOLUTION_X 75
RESOLUTION_Y 75
COPYRIGHT "Copyright (C) 1990, 1991 EWT Consulting, Portions Copyright (C) 1994 Cronyx Ltd."
ENDPROPERTIES
CHARS 224
STARTCHAR space
ENCODING 32
SWIDTH 200 0
DWIDTH 4 0
BBX 4 20 0 -4
BITMAP
00
00
00
00
00
00
00
00
00
00
00
00
00
00
00
00
00
00
00
00
ENDCHAR
STARTCHAR exclam
ENCODING 33
SWIDTH 200 0
DWIDTH 4 0
BBX 4 20 0 -4
BITMAP
00
00
00
00
20
20
20
20
20
20
20
20
20
00
00
20
00
00
00
00
ENDCHAR
STARTCHAR quotedbl
ENCODING 34
SWIDTH 300 0
DWIDTH 6 0
BBX 6 20 0 -4
BITMAP
00
00
00
00
48
48
48
48
00
00
00
00
00
00
00
00
00
00
00
00
ENDCHAR
STARTCHAR numbersign
ENCODING 35
SWIDTH 450 0
DWIDTH 9 0
BBX 9 20 0 -4
BITMAP
0000
0000
0000
0000
1200
1200
1200
7f00
2400
2400
2400
2400
fe00
4800
4800
4800
0000
0000
0000
0000
ENDCHAR
STARTCHAR dollar
ENCODING 36
SWIDTH 450 0
DWIDTH 9 0
BBX 9 20 0 -4
BITMAP
0000
0000
0000
0800
1c00
2a00
4900
4800
2800
1c00
0a00
0900
0900
4900
2a00
1c00
0800
0000
0000
0000
ENDCHAR
STARTCHAR percent
ENCODING 37
SWIDTH 700 0
DWIDTH 14 0
BBX 14 20 0 -4
BITMAP
0000
0000
0000
0000
3808
4410
4420
4440
3880
0100
0200
0470
0888
1088
2088
4070
0000
0000
0000
0000
ENDCHAR
STARTCHAR ampersand
ENCODING 38
SWIDTH 550 0
DWIDTH 11 0
BBX 11 20 0 -4
BITMAP
0000
0000
0000
0000
1800
2400
2400
2400
1800
1800
2400
4240
4140
4080
2140
1e20
0000
0000
0000
0000
ENDCHAR
STARTCHAR quoteright
ENCODING 39
SWIDTH 150 0
DWIDTH 3 0
BBX 3 20 0 -4
BITMAP
00
00
00
00
40
40
40
40
00
00
00
00
00
00
00
00
00
00
00
00
ENDCHAR
STARTCHAR parenleft
ENCODING 40
SWIDTH 250 0
DWIDTH 5 0
BBX 5 20 0 -4
BITMAP
00
00
00
10
20
20
20
40
40
40
40
40
40
40
40
20
20
20
10
00
ENDCHAR
STARTCHAR parenright
ENCODING 41
SWIDTH 250 0
DWIDTH 5 0
BBX 5 20 0 -4
BITMAP
00
00
00
40
20
20
20
10
10
10
10
10
10
10
10
20
20
20
40
00
ENDCHAR
STARTCHAR asterisk
ENCODING 42
SWIDTH 300 0
DWIDTH 6 0
BBX 6 20 0 -4
BITMAP
00
00
00
10
54
38
28
44
00
00
00
00
00
00
00
00
00
00
00
00
ENDCHAR
STARTCHAR plus
ENCODING 43
SWIDTH 450 0
DWIDTH 9 0
BBX 9 20 0 -4
BITMAP
0000
0000
0000
0000
0000
0000
0000
0800
0800
0800
7f00
0800
0800
0800
0000
0000
0000
0000
0000
0000
ENDCHAR
STARTCHAR comma
ENCODING 44
SWIDTH 200 0
DWIDTH 4 0
BBX 4 20 0 -4
BITMAP
00
00
00
00
00
00
00
00
00
00
00
00
00
00
00
20
40
00
00
00
ENDCHAR
STARTCHAR minus
ENCODING 45
SWIDTH 250 0
DWIDTH 5 0
BBX 5 20 0 -4
BITMAP
00
00
00
00
00
00
00
00
00
00
f8
00
00
00
00
00
00
00
00
00
ENDCHAR
STARTCHAR period
ENCODING 46
SWIDTH 200 0
DWIDTH 4 0
BBX 4 20 0 -4
BITMAP
00
00
00
00
00
00
00
00
00
00
00
00
00
00
00
20
00
00
00
00
ENDCHAR
STARTCHAR slash
ENCODING 47
SWIDTH 200 0
DWIDTH 4 0
BBX 4 20 0 -4
BITMAP
00
00
00
00
10
10
10
10
20
20
20
20
40
40
40
40
80
00
00
00
ENDCHAR
STARTCHAR zero
ENCODING 48
SWIDTH 450 0
DWIDTH 9 0
BBX 9 20 0 -4
BITMAP
0000
0000
0000
0000
1c00
2200
2200
4100
4100
4100
4100
4100
4100
2200
2200
1c00
0000
0000
0000
0000
ENDCHAR
STARTCHAR one
ENCODING 49
SWIDTH 450 0
DWIDTH 9 0
BBX 9 20 0 -4
BITMAP
0000
0000
0000
0000
0800
3800
0800
0800
0800
0800
0800
0800
0800
0800
0800
0800
0000
0000
0000
0000
ENDCHAR
STARTCHAR two
ENCODING 50
SWIDTH 450 0
DWIDTH 9 0
BBX 9 20 0 -4
BITMAP
0000
0000
0000
0000
1c00
2200
4100
4100
0100
0200
0400
0800
1000
2000
4000
7f00
0000
0000
0000
0000
ENDCHAR
STARTCHAR three
ENCODING 51
SWIDTH 450 0
DWIDTH 9 0
BBX 9 20 0 -4
BITMAP
0000
0000
0000
0000
1c00
2200
4100
4100
0200
1c00
0200
0100
4100
4100
2200
1c00
0000
0000
0000
0000
ENDCHAR
STARTCHAR four
ENCODING 52
SWIDTH 450 0
DWIDTH 9 0
BBX 9 20 0 -4
BITMAP
0000
0000
0000
0000
0200
0600
0600
0a00
1200
1200
2200
4200
7f00
0200
0200
0200
0000
0000
0000
0000
ENDCHAR
STARTCHAR five
ENCODING 53
SWIDTH 450 0
DWIDTH 9 0
BBX 9 20 0 -4
BITMAP
0000
0000
0000
0000
7f00
4000
4000
4000
5c00
6200
4100
0100
4100
4100
2200
1c00
0000
0000
0000
0000
ENDCHAR
STARTCHAR six
ENCODING 54
SWIDTH 450 0
DWIDTH 9 0
BBX 9 20 0 -4
BITMAP
0000
0000
0000
0000
1c00
2200
4100
4000
5c00
6200
4100
4100
4100
4100
2200
1c00
0000
0000
0000
0000
ENDCHAR
STARTCHAR seven
ENCODING 55
SWIDTH 450 0
DWIDTH 9 0
BBX 9 20 0 -4
BITMAP
0000
0000
0000
0000
7f00
0100
0100
0200
0200
0400
0400
0400
0800
0800
0800
0800
0000
0000
0000
0000
ENDCHAR
STARTCHAR eight
ENCODING 56
SWIDTH 450 0
DWIDTH 9 0
BBX 9 20 0 -4
BITMAP
0000
0000
0000
0000
1c00
2200
4100
4100
2200
1c00
2200
4100
4100
4100
2200
1c00
0000
0000
0000
0000
ENDCHAR
STARTCHAR nine
ENCODING 57
SWIDTH 450 0
DWIDTH 9 0
BBX 9 20 0 -4
BITMAP
0000
0000
0000
0000
1c00
2200
4100
4100
4100
4100
2300
1d00
0100
4100
2200
1c00
0000
0000
0000
0000
ENDCHAR
STARTCHAR colon
ENCODING 58
SWIDTH 200 0
DWIDTH 4 0
BBX 4 20 0 -4
BITMAP
00
00
00
00
00
00
00
20
00
00
00
00
00
00
00
20
00
00
00
00
ENDCHAR
STARTCHAR semicolon
ENCODING 59
SWIDTH 200 0
DWIDTH 4 0
BBX 4 20 0 -4
BITMAP
00
00
00
00
00
00
00
20
00
00
00
00
00
00
00
20
40
00
00
00
ENDCHAR
STARTCHAR less
ENCODING 60
SWIDTH 450 0
DWIDTH 9 0
BBX 9 20 0 -4
BITMAP
0000
0000
0000
0000
0000
0000
0000
0300
0c00
3000
4000
3000
0c00
0300
0000
0000
0000
0000
0000
0000
ENDCHAR
STARTCHAR equal
ENCODING 61
SWIDTH 450 0
DWIDTH 9 0
BBX 9 20 0 -4
BITMAP
0000
0000
0000
0000
0000
0000
0000
0000
7f00
0000
0000
7f00
0000
0000
0000
0000
0000
0000
0000
0000
ENDCHAR
STARTCHAR greater
ENCODING 62
SWIDTH 450 0
DWIDTH 9 0
BBX 9 20 0 -4
BITMAP
0000
0000
0000
0000
0000
0000
0000
6000
1800
0600
0100
0600
1800
6000
0000
0000
0000
0000
0000
0000
ENDCHAR
STARTCHAR question
ENCODING 63
SWIDTH 450 0
DWIDTH 9 0
BBX 9 20 0 -4
BITMAP
0000
0000
0000
0000
1c00
2200
4100
4100
0100
0200
0400
0800
0800
0000
0000
0800
0000
0000
0000
0000
ENDCHAR
STARTCHAR at
ENCODING 64
SWIDTH 800 0
DWIDTH 16 0
BBX 16 20 0 -4
BITMAP
0000
0000
0000
0000
03f0
0c08
1004
21c2
2222
4422
4422
4464
43b8
2000
1818
07e0
0000
0000
0000
0000
ENDCHAR
STARTCHAR A
ENCODING 65
SWIDTH 550 0
DWIDTH 11 0
BBX 11 20 0 -4
BITMAP
0000
0000
0000
0000
0400
0400
0a00
0a00
1100
1100
2080
2080
7fc0
4040
8020
8020
0000
0000
0000
0000
ENDCHAR
STARTCHAR B
ENCODING 66
SWIDTH 550 0
DWIDTH 11 0
BBX 11 20 0 -4
BITMAP
0000
0000
0000
0000
3f00
2080
2040
2040
2080
3f00
2080
2040
2040
2040
2080
3f00
0000
0000
0000
0000
ENDCHAR
STARTCHAR C
ENCODING 67
SWIDTH 550 0
DWIDTH 11 0
BBX 11 20 0 -4
BITMAP
0000
0000
0000
0000
0f00
30c0
2040
4020
4000
4000
4000
4000
4020
2040
30c0
0f00
0000
0000
0000
0000
ENDCHAR
STARTCHAR D
ENCODING 68
SWIDTH 600 0
DWIDTH 12 0
BBX 12 20 0 -4
BITMAP
0000
0000
0000
0000
3f00
20c0
2040
2020
2020
2020
2020
2020
2020
2040
20c0
3f00
0000
0000
0000
0000
ENDCHAR
STARTCHAR E
ENCODING 69
SWIDTH 550 0
DWIDTH 11 0
BBX 11 20 0 -4
BITMAP
0000
0000
0000
0000
3fc0
2000
2000
2000
2000
3f80
2000
2000
2000
2000
2000
3fc0
0000
0000
0000
0000
ENDCHAR
STARTCHAR F
ENCODING 70
SWIDTH 500 0
DWIDTH 10 0
BBX 10 20 0 -4
BITMAP
0000
0000
0000
0000
3fc0
2000
2000
2000
2000
3f80
2000
2000
2000
2000
2000
2000
0000
0000
0000
0000
ENDCHAR
STARTCHAR G
ENCODING 71
SWIDTH 650 0
DWIDTH 13 0
BBX 13 20 0 -4
BITMAP
0000
0000
0000
0000
0f00
30c0
2040
4020
4000
4000
43e0
4020
4020
2060
30e0
0f20
0000
0000
0000
0000
ENDCHAR
STARTCHAR H
ENCODING 72
SWIDTH 600 0
DWIDTH 12 0
BBX 12 20 0 -4
BITMAP
0000
0000
0000
0000
2040
2040
2040
2040
2040
3fc0
2040
2040
2040
2040
2040
2040
0000
0000
0000
0000
ENDCHAR
STARTCHAR I
ENCODING 73
SWIDTH 250 0
DWIDTH 5 0
BBX 5 20 0 -4
BITMAP
00
00
00
00
20
20
20
20
20
20
20
20
20
20
20
20
00
00
00
00
ENDCHAR
STARTCHAR J
ENCODING 74
SWIDTH 400 0
DWIDTH 8 0
BBX 8 20 0 -4
BITMAP
00
00
00
00
04
04
04
04
04
04
04
04
84
84
84
78
00
00
00
00
ENDCHAR
STARTCHAR K
ENCODING 75
SWIDTH 500 0
DWIDTH 10 0
BBX 10 20 0 -4
BITMAP
0000
0000
0000
0000
2080
2100
2200
2400
2800
3000
2800
2400
2200
2100
2080
2040
0000
0000
0000
0000
ENDCHAR
STARTCHAR L
ENCODING 76
SWIDTH 450 0
DWIDTH 9 0
BBX 9 20 0 -4
BITMAP
0000
0000
0000
0000
2000
2000
2000
2000
2000
2000
2000
2000
2000
2000
2000
3f80
0000
0000
0000
0000
ENDCHAR
STARTCHAR M
ENCODING 77
SWIDTH 650 0
DWIDTH 13 0
BBX 13 20 0 -4
BITMAP
0000
0000
0000
0000
2020
2020
3060
3060
28a0
28a0
2520
2520
2220
2220
2020
2020
0000
0000
0000
0000
ENDCHAR
STARTCHAR N
ENCODING 78
SWIDTH 550 0
DWIDTH 11 0
BBX 11 20 0 -4
BITMAP
0000
0000
0000
0000
2080
3080
3080
2880
2880
2480
2480
2280
2280
2180
2180
2080
0000
0000
0000
0000
ENDCHAR
STARTCHAR O
ENCODING 79
SWIDTH 600 0
DWIDTH 12 0
BBX 12 20 0 -4
BITMAP
0000
0000
0000
0000
0f00
30c0
2040
4020
4020
4020
4020
4020
4020
2040
30c0
0f00
0000
0000
0000
0000
ENDCHAR
STARTCHAR P
ENCODING 80
SWIDTH 500 0
DWIDTH 10 0
BBX 10 20 0 -4
BITMAP
0000
0000
0000
0000
3f00
2080
2040
2040
2040
2080
3f00
2000
2000
2000
2000
2000
0000
0000
0000
0000
ENDCHAR
STARTCHAR Q
ENCODING 81
SWIDTH 600 0
DWIDTH 12 0
BBX 12 20 0 -4
BITMAP
0000
0000
0000
0000
0f00
30c0
2040
4020
4020
4020
4020
4020
4220
2140
30c0
0f40
0020
0000
0000
0000
ENDCHAR
STARTCHAR R
ENCODING 82
SWIDTH 600 0
DWIDTH 12 0
BBX 12 20 0 -4
BITMAP
0000
0000
0000
0000
3f00
2080
2040
2040
2040
2080
3f00
2080
2040
2040
2040
2020
0000
0000
0000
0000
ENDCHAR
STARTCHAR S
ENCODING 83
SWIDTH 550 0
DWIDTH 11 0
BBX 11 20 0 -4
BITMAP
0000
0000
0000
0000
1f00
2080
4040
4000
2000
1f00
0080
0040
0040
4040
2080
1f00
0000
0000
0000
0000
ENDCHAR
STARTCHAR T
ENCODING 84
SWIDTH 450 0
DWIDTH 9 0
BBX 9 20 0 -4
BITMAP
0000
0000
0000
0000
ff80
0800
0800
0800
0800
0800
0800
0800
0800
0800
0800
0800
0000
0000
0000
0000
ENDCHAR
STARTCHAR U
ENCODING 85
SWIDTH 600 0
DWIDTH 12 0
BBX 12 20 0 -4
BITMAP
0000
0000
0000
0000
2040
2040
2040
2040
2040
2040
2040
2040
2040
2040
1080
0f00
0000
0000
0000
0000
ENDCHAR
STARTCHAR V
ENCODING 86
SWIDTH 550 0
DWIDTH 11 0
BBX 11 20 0 -4
BITMAP
0000
0000
0000
0000
8020
8020
4040
4040
2080
2080
1100
1100
0a00
0a00
0400
0400
0000
0000
0000
0000
ENDCHAR
STARTCHAR W
ENCODING 87
SWIDTH 750 0
DWIDTH 15 0
BBX 15 20 0 -4
BITMAP
0000
0000
0000
0000
8002
8102
4104
4104
4284
2288
2288
1450
1450
0820
0820
0820
0000
0000
0000
0000
ENDCHAR
STARTCHAR X
ENCODING 88
SWIDTH 550 0
DWIDTH 11 0
BBX 11 20 0 -4
BITMAP
0000
0000
0000
0000
8020
4040
2080
1100
0a00
0400
0400
0a00
1100
2080
4040
8020
0000
0000
0000
0000
ENDCHAR
STARTCHAR Y
ENCODING 89
SWIDTH 550 0
DWIDTH 11 0
BBX 11 20 0 -4
BITMAP
0000
0000
0000
0000
8020
4040
2080
1100
0a00
0400
0400
0400
0400
0400
0400
0400
0000
0000
0000
0000
ENDCHAR
STARTCHAR Z
ENCODING 90
SWIDTH 500 0
DWIDTH 10 0
BBX 10 20 0 -4
BITMAP
0000
0000
0000
0000
7fc0
0040
0080
0100
0200
0400
0800
1000
2000
4000
8000
ff80
0000
0000
0000
0000
ENDCHAR
STARTCHAR bracketleft
ENCODING 91
SWIDTH 200 0
DWIDTH 4 0
BBX 4 20 0 -4
BITMAP
00
00
00
00
60
40
40
40
40
40
40
40
40
40
40
40
40
40
60
00
ENDCHAR
STARTCHAR backslash
ENCODING 92
SWIDTH 200 0
DWIDTH 4 0
BBX 4 20 0 -4
BITMAP
00
00
00
00
80
80
80
80
40
40
40
40
20
20
20
20
10
00
00
00
ENDCHAR
STARTCHAR bracketright
ENCODING 93
SWIDTH 200 0
DWIDTH 4 0
BBX 4 20 0 -4
BITMAP
00
00
00
00
60
20
20
20
20
20
20
20
20
20
20
20
20
20
60
00
ENDCHAR
STARTCHAR asciicircum
ENCODING 94
SWIDTH 350 0
DWIDTH 7 0
BBX 7 20 0 -4
BITMAP
00
00
00
10
28
44
00
00
00
00
00
00
00
00
00
00
00
00
00
00
ENDCHAR
STARTCHAR underscore
ENCODING 95
SWIDTH 450 0
DWIDTH 9 0
BBX 9 20 0 -4
BITMAP
0000
0000
0000
0000
0000
0000
0000
0000
0000
0000
0000
0000
0000
0000
0000
0000
0000
ff80
0000
0000
ENDCHAR
STARTCHAR quoteleft
ENCODING 96
SWIDTH 250 0
DWIDTH 5 0
BBX 5 20 0 -4
BITMAP
00
00
00
40
20
10
00
00
00
00
00
00
00
00
00
00
00
00
00
00
ENDCHAR
STARTCHAR a
ENCODING 97
SWIDTH 450 0
DWIDTH 9 0
BBX 9 20 0 -4
BITMAP
0000
0000
0000
0000
0000
0000
0000
3e00
4100
0100
0100
3f00
4100
4100
4100
3e80
0000
0000
0000
0000
ENDCHAR
STARTCHAR b
ENCODING 98
SWIDTH 450 0
DWIDTH 9 0
BBX 9 20 0 -4
BITMAP
0000
0000
0000
0000
4000
4000
4000
5c00
6200
4100
4100
4100
4100
4100
6200
5c00
0000
0000
0000
0000
ENDCHAR
STARTCHAR c
ENCODING 99
SWIDTH 400 0
DWIDTH 8 0
BBX 8 20 0 -4
BITMAP
00
00
00
00
00
00
00
1c
22
41
40
40
40
41
22
1c
00
00
00
00
ENDCHAR
STARTCHAR d
ENCODING 100
SWIDTH 450 0
DWIDTH 9 0
BBX 9 20 0 -4
BITMAP
0000
0000
0000
0000
0100
0100
0100
1d00
2300
4100
4100
4100
4100
4100
2300
1d00
0000
0000
0000
0000
ENDCHAR
STARTCHAR e
ENCODING 101
SWIDTH 450 0
DWIDTH 9 0
BBX 9 20 0 -4
BITMAP
0000
0000
0000
0000
0000
0000
0000
1c00
2200
4100
4100
7f00
4000
4100
2200
1c00
0000
0000
0000
0000
ENDCHAR
STARTCHAR f
ENCODING 102
SWIDTH 250 0
DWIDTH 5 0
BBX 5 20 0 -4
BITMAP
00
00
00
00
18
20
20
f8
20
20
20
20
20
20
20
20
00
00
00
00
ENDCHAR
STARTCHAR g
ENCODING 103
SWIDTH 450 0
DWIDTH 9 0
BBX 9 20 0 -4
BITMAP
0000
0000
0000
0000
0000
0000
0000
1d00
2300
4100
4100
4100
4100
4100
2300
1d00
0100
0100
0200
3c00
ENDCHAR
STARTCHAR h
ENCODING 104
SWIDTH 450 0
DWIDTH 9 0
BBX 9 20 0 -4
BITMAP
0000
0000
0000
0000
4000
4000
4000
5c00
6200
4100
4100
4100
4100
4100
4100
4100
0000
0000
0000
0000
ENDCHAR
STARTCHAR i
ENCODING 105
SWIDTH 150 0
DWIDTH 3 0
BBX 3 20 0 -4
BITMAP
00
00
00
00
40
00
00
40
40
40
40
40
40
40
40
40
00
00
00
00
ENDCHAR
STARTCHAR j
ENCODING 106
SWIDTH 150 0
DWIDTH 3 0
BBX 3 20 0 -4
BITMAP
00
00
00
00
40
00
00
40
40
40
40
40
40
40
40
40
40
40
40
80
ENDCHAR
STARTCHAR k
ENCODING 107
SWIDTH 400 0
DWIDTH 8 0
BBX 8 20 0 -4
BITMAP
00
00
00
00
40
40
40
42
44
48
50
70
48
44
42
41
00
00
00
00
ENDCHAR
STARTCHAR l
ENCODING 108
SWIDTH 150 0
DWIDTH 3 0
BBX 3 20 0 -4
BITMAP
00
00
00
00
40
40
40
40
40
40
40
40
40
40
40
40
00
00
00
00
ENDCHAR
STARTCHAR m
ENCODING 109
SWIDTH 650 0
DWIDTH 13 0
BBX 13 20 0 -4
BITMAP
0000
0000
0000
0000
0000
0000
0000
58c0
6520
4210
4210
4210
4210
4210
4210
4210
0000
0000
0000
0000
ENDCHAR
STARTCHAR n
ENCODING 110
SWIDTH 450 0
DWIDTH 9 0
BBX 9 20 0 -4
BITMAP
0000
0000
0000
0000
0000
0000
0000
5c00
6200
4100
4100
4100
4100
4100
4100
4100
0000
0000
0000
0000
ENDCHAR
STARTCHAR o
ENCODING 111
SWIDTH 450 0
DWIDTH 9 0
BBX 9 20 0 -4
BITMAP
0000
0000
0000
0000
0000
0000
0000
1c00
2200
4100
4100
4100
4100
4100
2200
1c00
0000
0000
0000
0000
ENDCHAR
STARTCHAR p
ENCODING 112
SWIDTH 450 0
DWIDTH 9 0
BBX 9 20 0 -4
BITMAP
0000
0000
0000
0000
0000
0000
0000
5c00
6200
4100
4100
4100
4100
4100
6200
5c00
4000
4000
4000
4000
ENDCHAR
STARTCHAR q
ENCODING 113
SWIDTH 450 0
DWIDTH 9 0
BBX 9 20 0 -4
BITMAP
0000
0000
0000
0000
0000
0000
0000
1d00
2300
4100
4100
4100
4100
4100
2300
1d00
0100
0100
0100
0100
ENDCHAR
STARTCHAR r
ENCODING 114
SWIDTH 250 0
DWIDTH 5 0
BBX 5 20 0 -4
BITMAP
00
00
00
00
00
00
00
58
60
40
40
40
40
40
40
40
00
00
00
00
ENDCHAR
STARTCHAR s
ENCODING 115
SWIDTH 400 0
DWIDTH 8 0
BBX 8 20 0 -4
BITMAP
00
00
00
00
00
00
00
3c
42
40
40
3c
02
02
42
3c
00
00
00
00
ENDCHAR
STARTCHAR t
ENCODING 116
SWIDTH 250 0
DWIDTH 5 0
BBX 5 20 0 -4
BITMAP
00
00
00
00
20
20
20
f8
20
20
20
20
20
20
20
10
00
00
00
00
ENDCHAR
STARTCHAR u
ENCODING 117
SWIDTH 450 0
DWIDTH 9 0
BBX 9 20 0 -4
BITMAP
0000
0000
0000
0000
0000
0000
0000
4100
4100
4100
4100
4100
4100
4100
2300
1d00
0000
0000
0000
0000
ENDCHAR
STARTCHAR v
ENCODING 118
SWIDTH 350 0
DWIDTH 7 0
BBX 7 20 0 -4
BITMAP
00
00
00
00
00
00
00
82
82
44
44
28
28
10
10
10
00
00
00
00
ENDCHAR
STARTCHAR w
ENCODING 119
SWIDTH 550 0
DWIDTH 11 0
BBX 11 20 0 -4
BITMAP
0000
0000
0000
0000
0000
0000
0000
8020
8420
4440
4440
2a80
2a80
1100
1100
1100
0000
0000
0000
0000
ENDCHAR
STARTCHAR x
ENCODING 120
SWIDTH 350 0
DWIDTH 7 0
BBX 7 20 0 -4
BITMAP
00
00
00
00
00
00
00
82
44
44
28
10
28
44
44
82
00
00
00
00
ENDCHAR
STARTCHAR y
ENCODING 121
SWIDTH 350 0
DWIDTH 7 0
BBX 7 20 0 -4
BITMAP
00
00
00
00
00
00
00
82
82
44
44
28
28
10
10
20
20
40
40
80
ENDCHAR
STARTCHAR z
ENCODING 122
SWIDTH 400 0
DWIDTH 8 0
BBX 8 20 0 -4
BITMAP
00
00
00
00
00
00
00
7e
02
04
08
10
10
20
40
7e
00
00
00
00
ENDCHAR
STARTCHAR braceleft
ENCODING 123
SWIDTH 250 0
DWIDTH 5 0
BBX 5 20 0 -4
BITMAP
00
00
00
00
10
20
20
20
20
20
20
40
20
20
20
20
20
20
10
00
ENDCHAR
STARTCHAR bar
ENCODING 124
SWIDTH 250 0
DWIDTH 5 0
BBX 5 20 0 -4
BITMAP
00
00
00
00
20
20
20
20
20
20
20
20
20
20
20
20
20
00
00
00
ENDCHAR
STARTCHAR braceright
ENCODING 125
SWIDTH 250 0
DWIDTH 5 0
BBX 5 20 0 -4
BITMAP
00
00
00
00
40
20
20
20
20
20
20
10
20
20
20
20
20
20
40
00
ENDCHAR
STARTCHAR asciitilde
ENCODING 126
SWIDTH 450 0
DWIDTH 9 0
BBX 9 20 0 -4
BITMAP
0000
0000
0000
3100
4900
4600
0000
0000
0000
0000
0000
0000
0000
0000
0000
0000
0000
0000
0000
0000
ENDCHAR
STARTCHAR C177
ENCODING -1
SWIDTH 250 0
DWIDTH 5 0
BBX 5 20 0 -4
BITMAP
00
00
00
00
70
70
70
70
70
70
70
70
70
70
70
70
00
00
00
00
ENDCHAR
STARTCHAR C200
ENCODING -1
SWIDTH 250 0
DWIDTH 5 0
BBX 5 20 0 -4
BITMAP
00
00
00
00
70
70
70
70
70
70
70
70
70
70
70
70
00
00
00
00
ENDCHAR
STARTCHAR C201
ENCODING -1
SWIDTH 250 0
DWIDTH 5 0
BBX 5 20 0 -4
BITMAP
00
00
00
00
70
70
70
70
70
70
70
70
70
70
70
70
00
00
00
00
ENDCHAR
STARTCHAR C202
ENCODING -1
SWIDTH 250 0
DWIDTH 5 0
BBX 5 20 0 -4
BITMAP
00
00
00
00
70
70
70
70
70
70
70
70
70
70
70
70
00
00
00
00
ENDCHAR
STARTCHAR C203
ENCODING -1
SWIDTH 250 0
DWIDTH 5 0
BBX 5 20 0 -4
BITMAP
00
00
00
00
70
70
70
70
70
70
70
70
70
70
70
70
00
00
00
00
ENDCHAR
STARTCHAR C204
ENCODING -1
SWIDTH 250 0
DWIDTH 5 0
BBX 5 20 0 -4
BITMAP
00
00
00
00
70
70
70
70
70
70
70
70
70
70
70
70
00
00
00
00
ENDCHAR
STARTCHAR C205
ENCODING -1
SWIDTH 250 0
DWIDTH 5 0
BBX 5 20 0 -4
BITMAP
00
00
00
00
70
70
70
70
70
70
70
70
70
70
70
70
00
00
00
00
ENDCHAR
STARTCHAR C206
ENCODING -1
SWIDTH 250 0
DWIDTH 5 0
BBX 5 20 0 -4
BITMAP
00
00
00
00
70
70
70
70
70
70
70
70
70
70
70
70
00
00
00
00
ENDCHAR
STARTCHAR C207
ENCODING -1
SWIDTH 250 0
DWIDTH 5 0
BBX 5 20 0 -4
BITMAP
00
00
00
00
70
70
70
70
70
70
70
70
70
70
70
70
00
00
00
00
ENDCHAR
STARTCHAR C210
ENCODING -1
SWIDTH 250 0
DWIDTH 5 0
BBX 5 20 0 -4
BITMAP
00
00
00
00
70
70
70
70
70
70
70
70
70
70
70
70
00
00
00
00
ENDCHAR
STARTCHAR C211
ENCODING -1
SWIDTH 250 0
DWIDTH 5 0
BBX 5 20 0 -4
BITMAP
00
00
00
00
70
70
70
70
70
70
70
70
70
70
70
70
00
00
00
00
ENDCHAR
STARTCHAR C212
ENCODING -1
SWIDTH 250 0
DWIDTH 5 0
BBX 5 20 0 -4
BITMAP
00
00
00
00
70
70
70
70
70
70
70
70
70
70
70
70
00
00
00
00
ENDCHAR
STARTCHAR C213
ENCODING -1
SWIDTH 250 0
DWIDTH 5 0
BBX 5 20 0 -4
BITMAP
00
00
00
00
70
70
70
70
70
70
70
70
70
70
70
70
00
00
00
00
ENDCHAR
STARTCHAR C214
ENCODING -1
SWIDTH 250 0
DWIDTH 5 0
BBX 5 20 0 -4
BITMAP
00
00
00
00
70
70
70
70
70
70
70
70
70
70
70
70
00
00
00
00
ENDCHAR
STARTCHAR C215
ENCODING -1
SWIDTH 250 0
DWIDTH 5 0
BBX 5 20 0 -4
BITMAP
00
00
00
00
70
70
70
70
70
70
70
70
70
70
70
70
00
00
00
00
ENDCHAR
STARTCHAR C216
ENCODING -1
SWIDTH 250 0
DWIDTH 5 0
BBX 5 20 0 -4
BITMAP
00
00
00
00
70
70
70
70
70
70
70
70
70
70
70
70
00
00
00
00
ENDCHAR
STARTCHAR C217
ENCODING -1
SWIDTH 250 0
DWIDTH 5 0
BBX 5 20 0 -4
BITMAP
00
00
00
00
70
70
70
70
70
70
70
70
70
70
70
70
00
00
00
00
ENDCHAR
STARTCHAR C220
ENCODING -1
SWIDTH 250 0
DWIDTH 5 0
BBX 5 20 0 -4
BITMAP
00
00
00
00
70
70
70
70
70
70
70
70
70
70
70
70
00
00
00
00
ENDCHAR
STARTCHAR C221
ENCODING -1
SWIDTH 200 0
DWIDTH 4 0
BBX 4 20 0 -4
BITMAP
00
00
00
00
20
40
00
00
00
00
00
00
00
00
00
00
00
00
00
00
ENDCHAR
STARTCHAR C222
ENCODING -1
SWIDTH 200 0
DWIDTH 4 0
BBX 4 20 0 -4
BITMAP
00
00
00
00
20
40
00
00
00
00
00
00
00
00
00
00
00
00
00
00
ENDCHAR
STARTCHAR C223
ENCODING -1
SWIDTH 250 0
DWIDTH 5 0
BBX 5 20 0 -4
BITMAP
00
00
00
00
70
70
70
70
70
70
70
70
70
70
70
70
00
00
00
00
ENDCHAR
STARTCHAR C224
ENCODING -1
SWIDTH 250 0
DWIDTH 5 0
BBX 5 20 0 -4
BITMAP
00
00
00
00
70
70
70
70
70
70
70
70
70
70
70
70
00
00
00
00
ENDCHAR
STARTCHAR C225
ENCODING -1
SWIDTH 250 0
DWIDTH 5 0
BBX 5 20 0 -4
BITMAP
00
00
00
00
70
70
70
70
70
70
70
70
70
70
70
70
00
00
00
00
ENDCHAR
STARTCHAR C226
ENCODING -1
SWIDTH 250 0
DWIDTH 5 0
BBX 5 20 0 -4
BITMAP
00
00
00
00
70
70
70
70
70
70
70
70
70
70
70
70
00
00
00
00
ENDCHAR
STARTCHAR C227
ENCODING -1
SWIDTH 250 0
DWIDTH 5 0
BBX 5 20 0 -4
BITMAP
00
00
00
00
70
70
70
70
70
70
70
70
70
70
70
70
00
00
00
00
ENDCHAR
STARTCHAR C230
ENCODING -1
SWIDTH 250 0
DWIDTH 5 0
BBX 5 20 0 -4
BITMAP
00
00
00
00
70
70
70
70
70
70
70
70
70
70
70
70
00
00
00
00
ENDCHAR
STARTCHAR C231
ENCODING -1
SWIDTH 250 0
DWIDTH 5 0
BBX 5 20 0 -4
BITMAP
00
00
00
00
70
70
70
70
70
70
70
70
70
70
70
70
00
00
00
00
ENDCHAR
STARTCHAR C232
ENCODING -1
SWIDTH 250 0
DWIDTH 5 0
BBX 5 20 0 -4
BITMAP
00
00
00
00
70
70
70
70
70
70
70
70
70
70
70
70
00
00
00
00
ENDCHAR
STARTCHAR C233
ENCODING -1
SWIDTH 250 0
DWIDTH 5 0
BBX 5 20 0 -4
BITMAP
00
00
00
00
70
70
70
70
70
70
70
70
70
70
70
70
00
00
00
00
ENDCHAR
STARTCHAR C234
ENCODING -1
SWIDTH 250 0
DWIDTH 5 0
BBX 5 20 0 -4
BITMAP
00
00
00
00
70
70
70
70
70
70
70
70
70
70
70
70
00
00
00
00
ENDCHAR
STARTCHAR C235
ENCODING -1
SWIDTH 250 0
DWIDTH 5 0
BBX 5 20 0 -4
BITMAP
00
00
00
00
70
70
70
70
70
70
70
70
70
70
70
70
00
00
00
00
ENDCHAR
STARTCHAR C236
ENCODING -1
SWIDTH 250 0
DWIDTH 5 0
BBX 5 20 0 -4
BITMAP
00
00
00
00
70
70
70
70
70
70
70
70
70
70
70
70
00
00
00
00
ENDCHAR
STARTCHAR C237
ENCODING -1
SWIDTH 250 0
DWIDTH 5 0
BBX 5 20 0 -4
BITMAP
00
00
00
00
70
70
70
70
70
70
70
70
70
70
70
70
00
00
00
00
ENDCHAR
STARTCHAR C240
ENCODING 160
SWIDTH 200 0
DWIDTH 4 0
BBX 4 20 0 -4
BITMAP
00
00
00
00
00
00
00
00
00
00
00
00
00
00
00
00
00
00
00
00
ENDCHAR
STARTCHAR exclamdown
ENCODING 161
SWIDTH 200 0
DWIDTH 4 0
BBX 4 20 0 -4
BITMAP
00
00
00
00
00
00
00
40
00
00
40
40
40
40
40
40
40
40
40
00
ENDCHAR
STARTCHAR cent
ENCODING 162
SWIDTH 450 0
DWIDTH 9 0
BBX 9 20 0 -4
BITMAP
0000
0000
0000
0000
0000
0000
0100
1d00
2200
4500
4400
4800
5000
5100
2200
5c00
4000
0000
0000
0000
ENDCHAR
STARTCHAR sterling
ENCODING 184
SWIDTH 450 0
DWIDTH 9 0
BBX 9 20 0 -4
BITMAP
0000
0000
0000
0000
1c00
2200
2200
2000
1000
7e00
1000
1000
1000
2000
2000
7f00
0000
0000
0000
0000
ENDCHAR
STARTCHAR currency
ENCODING 164
SWIDTH 450 0
DWIDTH 9 0
BBX 9 20 0 -4
BITMAP
0000
0000
0000
0000
0000
4100
3e00
2200
2200
2200
3e00
4100
0000
0000
0000
0000
0000
0000
0000
0000
ENDCHAR
STARTCHAR yen
ENCODING 165
SWIDTH 450 0
DWIDTH 9 0
BBX 9 20 0 -4
BITMAP
0000
0000
0000
0000
8080
8080
4100
2200
ff80
0800
0800
ff80
0800
0800
0800
0800
0000
0000
0000
0000
ENDCHAR
STARTCHAR brokenbar
ENCODING 166
SWIDTH 250 0
DWIDTH 5 0
BBX 5 20 0 -4
BITMAP
00
00
00
00
20
20
20
20
20
20
00
00
20
20
20
20
20
20
00
00
ENDCHAR
STARTCHAR section
ENCODING 167
SWIDTH 450 0
DWIDTH 9 0
BBX 9 20 0 -4
BITMAP
0000
0000
0000
0000
1c00
2200
2000
3000
4800
4400
2200
1100
0900
0600
0200
2200
1c00
0000
0000
0000
ENDCHAR
STARTCHAR dieresis
ENCODING 168
SWIDTH 250 0
DWIDTH 5 0
BBX 5 20 0 -4
BITMAP
00
00
00
00
50
00
00
00
00
00
00
00
00
00
00
00
00
00
00
00
ENDCHAR
STARTCHAR copyright
ENCODING 169
SWIDTH 550 0
DWIDTH 11 0
BBX 11 20 0 -4
BITMAP
0000
0000
0000
0000
1f00
60c0
4040
8e20
9120
9020
9020
9120
8e20
4060
60c0
1f00
0000
0000
0000
0000
ENDCHAR
STARTCHAR ordfeminine
ENCODING 170
SWIDTH 300 0
DWIDTH 6 0
BBX 6 20 0 -4
BITMAP
00
00
00
00
30
08
38
48
38
00
78
00
00
00
00
00
00
00
00
00
ENDCHAR
STARTCHAR guillemotleft
ENCODING 171
SWIDTH 450 0
DWIDTH 9 0
BBX 9 20 0 -4
BITMAP
0000
0000
0000
0000
0000
0000
0000
0000
0000
0000
1100
2200
4400
2200
1100
0000
0000
0000
0000
0000
ENDCHAR
STARTCHAR logicalnot
ENCODING 172
SWIDTH 450 0
DWIDTH 9 0
BBX 9 20 0 -4
BITMAP
0000
0000
0000
0000
0000
0000
0000
0000
0000
0000
7f00
0100
0100
0000
0000
0000
0000
0000
0000
0000
ENDCHAR
STARTCHAR hyphen
ENCODING 173
SWIDTH 250 0
DWIDTH 5 0
BBX 5 20 0 -4
BITMAP
00
00
00
00
00
00
00
00
00
00
00
f8
00
00
00
00
00
00
00
00
ENDCHAR
STARTCHAR registered
ENCODING 174
SWIDTH 550 0
DWIDTH 11 0
BBX 11 20 0 -4
BITMAP
0000
0000
0000
1f00
60c0
4040
9e20
9120
9120
9e20
9220
9120
4040
60c0
1f00
0000
0000
0000
0000
0000
ENDCHAR
STARTCHAR macron
ENCODING 175
SWIDTH 450 0
DWIDTH 9 0
BBX 9 20 0 -4
BITMAP
0000
0000
ff80
0000
0000
0000
0000
0000
0000
0000
0000
0000
0000
0000
0000
0000
0000
0000
0000
0000
ENDCHAR
STARTCHAR degree
ENCODING 176
SWIDTH 250 0
DWIDTH 5 0
BBX 5 20 0 -4
BITMAP
00
00
00
00
30
48
48
30
00
00
00
00
00
00
00
00
00
00
00
00
ENDCHAR
STARTCHAR plusminus
ENCODING 177
SWIDTH 450 0
DWIDTH 9 0
BBX 9 20 0 -4
BITMAP
0000
0000
0000
0000
0000
0000
0000
0800
0800
0800
7f00
0800
0800
0800
0000
7f00
0000
0000
0000
0000
ENDCHAR
STARTCHAR twosuperior
ENCODING 178
SWIDTH 250 0
DWIDTH 5 0
BBX 5 20 0 -4
BITMAP
00
00
00
00
30
48
08
10
20
78
00
00
00
00
00
00
00
00
00
00
ENDCHAR
STARTCHAR threesuperior
ENCODING 168
SWIDTH 250 0
DWIDTH 5 0
BBX 5 20 0 -4
BITMAP
00
00
00
00
30
48
10
08
48
30
00
00
00
00
00
00
00
00
00
00
ENDCHAR
STARTCHAR acute
ENCODING 180
SWIDTH 250 0
DWIDTH 5 0
BBX 5 20 0 -4
BITMAP
00
00
00
10
20
40
00
00
00
00
00
00
00
00
00
00
00
00
00
00
ENDCHAR
STARTCHAR mu
ENCODING 181
SWIDTH 400 0
DWIDTH 8 0
BBX 8 20 0 -4
BITMAP
00
00
00
00
00
00
00
42
42
42
42
42
42
42
42
7d
40
40
40
00
ENDCHAR
STARTCHAR paragraph
ENCODING 182
SWIDTH 400 0
DWIDTH 8 0
BBX 8 20 0 -4
BITMAP
00
00
00
00
3f
7a
7a
7a
7a
3a
0a
0a
0a
0a
0a
0a
0a
00
00
00
ENDCHAR
STARTCHAR periodcentered
ENCODING 183
SWIDTH 200 0
DWIDTH 4 0
BBX 4 20 0 -4
BITMAP
00
00
00
00
00
00
00
00
00
20
00
00
00
00
00
00
00
00
00
00
ENDCHAR
STARTCHAR cedilla
ENCODING 184
SWIDTH 250 0
DWIDTH 5 0
BBX 5 20 0 -4
BITMAP
00
00
00
00
00
00
00
00
00
00
00
00
00
00
00
00
20
10
10
60
ENDCHAR
STARTCHAR onesuperior
ENCODING 185
SWIDTH 250 0
DWIDTH 5 0
BBX 5 20 0 -4
BITMAP
00
00
00
00
20
60
20
20
20
20
00
00
00
00
00
00
00
00
00
00
ENDCHAR
STARTCHAR ordmasculine
ENCODING 186
SWIDTH 300 0
DWIDTH 6 0
BBX 6 20 0 -4
BITMAP
00
00
00
00
30
48
48
48
30
00
78
00
00
00
00
00
00
00
00
00
ENDCHAR
STARTCHAR guillemotright
ENCODING 187
SWIDTH 450 0
DWIDTH 9 0
BBX 9 20 0 -4
BITMAP
0000
0000
0000
0000
0000
0000
0000
0000
0000
0000
4400
2200
1100
2200
4400
0000
0000
0000
0000
0000
ENDCHAR
STARTCHAR onequarter
ENCODING 188
SWIDTH 600 0
DWIDTH 12 0
BBX 12 20 0 -4
BITMAP
0000
0000
0000
0000
2010
6020
2040
2080
2100
2200
0420
0860
10a0
2120
41e0
8020
0000
0000
0000
0000
ENDCHAR
STARTCHAR onehalf
ENCODING 189
SWIDTH 600 0
DWIDTH 12 0
BBX 12 20 0 -4
BITMAP
0000
0000
0000
0000
2010
6020
2040
2080
2100
2200
04c0
0920
1020
2040
4080
81e0
0000
0000
0000
0000
ENDCHAR
STARTCHAR threequarters
ENCODING 190
SWIDTH 600 0
DWIDTH 12 0
BBX 12 20 0 -4
BITMAP
0000
0000
0000
0000
3010
4820
1040
0880
4900
3200
0420
0860
10a0
2120
41e0
8020
0000
0000
0000
0000
ENDCHAR
STARTCHAR questiondown
ENCODING 191
SWIDTH 450 0
DWIDTH 9 0
BBX 9 20 0 -4
BITMAP
0000
0000
0000
0000
0000
0000
0000
0800
0000
0000
0800
0800
1000
2000
4000
4000
4100
2200
1c00
0000
ENDCHAR
STARTCHAR cyr-A
ENCODING 192
SWIDTH 550 0
DWIDTH 11 0
BBX 11 20 0 -4
BITMAP
0000
0000
0000
0000
0400
0400
0a00
0a00
1100
1100
2080
2080
7fc0
4040
8020
8020
0000
0000
0000
0000
ENDCHAR
STARTCHAR cyr-Be
ENCODING 193
SWIDTH 550 0
DWIDTH 11 0
BBX 11 20 0 -4
BITMAP
0000
0000
0000
0000
3f80
2000
2000
2000
2000
3f00
2080
2040
2040
2040
2080
3f00
0000
0000
0000
0000
ENDCHAR
STARTCHAR cyr-Ve
ENCODING 194
SWIDTH 550 0
DWIDTH 11 0
BBX 11 20 0 -4
BITMAP
0000
0000
0000
0000
3f00
2080
2040
2040
2080
3f00
2080
2040
2040
2040
2080
3f00
0000
0000
0000
0000
ENDCHAR
STARTCHAR cyr-Ghe
ENCODING 195
SWIDTH 550 0
DWIDTH 11 0
BBX 11 20 0 -4
BITMAP
0000
0000
0000
0000
3fc0
2000
2000
2000
2000
2000
2000
2000
2000
2000
2000
2000
0000
0000
0000
0000
ENDCHAR
STARTCHAR cyr-De
ENCODING 196
SWIDTH 600 0
DWIDTH 12 0
BBX 12 20 0 -4
BITMAP
0000
0000
0000
0000
0fc0
0840
0840
0840
0840
0840
0840
0840
0840
0840
1040
7fe0
4020
4020
0000
0000
ENDCHAR
STARTCHAR cyr-Ie
ENCODING 197
SWIDTH 550 0
DWIDTH 11 0
BBX 11 20 0 -4
BITMAP
0000
0000
0000
0000
3fc0
2000
2000
2000
2000
3f80
2000
2000
2000
2000
2000
3fc0
0000
0000
0000
0000
ENDCHAR
STARTCHAR cyr-Zhe
ENCODING 198
SWIDTH 750 0
DWIDTH 15 0
BBX 15 20 0 -4
BITMAP
0000
0000
0000
0000
8102
4104
2108
1110
0920
0540
07c0
0920
1110
2108
4104
8102
0000
0000
0000
0000
ENDCHAR
STARTCHAR cyr-Ze
ENCODING 199
SWIDTH 550 0
DWIDTH 11 0
BBX 11 20 0 -4
BITMAP
0000
0000
0000
0000
1f80
2040
0040
0040
0040
0f80
0040
0040
0040
0040
2040
1f80
0000
0000
0000
0000
ENDCHAR
STARTCHAR cyr-I
ENCODING 200
SWIDTH 550 0
DWIDTH 11 0
BBX 11 20 0 -4
BITMAP
0000
0000
0000
0000
2080
2180
2180
2280
2280
2480
2480
2880
2880
3080
3080
2080
0000
0000
0000
0000
ENDCHAR
STARTCHAR cyr-I-short
ENCODING 201
SWIDTH 550 0
DWIDTH 11 0
BBX 11 20 0 -4
BITMAP
0000
0000
1100
0e00
2080
2180
2180
2280
2280
2480
2480
2880
2880
3080
3080
2080
0000
0000
0000
0000
ENDCHAR
STARTCHAR cyr-Ka
ENCODING 202
SWIDTH 500 0
DWIDTH 10 0
BBX 10 20 0 -4
BITMAP
0000
0000
0000
0000
2080
2100
2200
2400
2800
3000
2800
2400
2200
2100
2080
2040
0000
0000
0000
0000
ENDCHAR
STARTCHAR cyr-El
ENCODING 203
SWIDTH 500 0
DWIDTH 10 0
BBX 10 20 0 -4
BITMAP
0000
0000
0000
0000
1f80
1080
1080
1080
1080
1080
1080
1080
1080
1080
1080
6080
0000
0000
0000
0000
ENDCHAR
STARTCHAR cyr-Em
ENCODING 204
SWIDTH 650 0
DWIDTH 13 0
BBX 13 20 0 -4
BITMAP
0000
0000
0000
0000
2020
2020
3060
3060
28a0
28a0
2520
2520
2220
2220
2020
2020
0000
0000
0000
0000
ENDCHAR
STARTCHAR cyr-En
ENCODING 205
SWIDTH 600 0
DWIDTH 12 0
BBX 12 20 0 -4
BITMAP
0000
0000
0000
0000
2040
2040
2040
2040
2040
3fc0
2040
2040
2040
2040
2040
2040
0000
0000
0000
0000
ENDCHAR
STARTCHAR cyr-O
ENCODING 206
SWIDTH 600 0
DWIDTH 12 0
BBX 12 20 0 -4
BITMAP
0000
0000
0000
0000
0f00
30c0
2040
4020
4020
4020
4020
4020
4020
2040
30c0
0f00
0000
0000
0000
0000
ENDCHAR
STARTCHAR cyr-Pe
ENCODING 207
SWIDTH 600 0
DWIDTH 12 0
BBX 12 20 0 -4
BITMAP
0000
0000
0000
0000
3fc0
2040
2040
2040
2040
2040
2040
2040
2040
2040
2040
2040
0000
0000
0000
0000
ENDCHAR
STARTCHAR cyr-Er
ENCODING 208
SWIDTH 500 0
DWIDTH 10 0
BBX 10 20 0 -4
BITMAP
0000
0000
0000
0000
3f00
2080
2040
2040
2040
2080
3f00
2000
2000
2000
2000
2000
0000
0000
0000
0000
ENDCHAR
STARTCHAR cyr-Es
ENCODING 209
SWIDTH 550 0
DWIDTH 11 0
BBX 11 20 0 -4
BITMAP
0000
0000
0000
0000
0f00
30c0
2040
4020
4000
4000
4000
4000
4020
2040
30c0
0f00
0000
0000
0000
0000
ENDCHAR
STARTCHAR cyr-Te
ENCODING 210
SWIDTH 450 0
DWIDTH 9 0
BBX 9 20 0 -4
BITMAP
0000
0000
0000
0000
ff80
0800
0800
0800
0800
0800
0800
0800
0800
0800
0800
0800
0000
0000
0000
0000
ENDCHAR
STARTCHAR cyr-U
ENCODING 211
SWIDTH 550 0
DWIDTH 11 0
BBX 11 20 0 -4
BITMAP
0000
0000
0000
0000
4040
4040
2080
2080
1100
1100
0a00
0a00
0400
0400
0400
3800
0000
0000
0000
0000
ENDCHAR
STARTCHAR cyr-Ef
ENCODING 212
SWIDTH 600 0
DWIDTH 12 0
BBX 12 20 0 -4
BITMAP
0000
0000
0000
0000
0f80
3260
2220
4210
4210
4210
4210
4210
2220
3260
0f80
0200
0000
0000
0000
0000
ENDCHAR
STARTCHAR cyr-Kha
ENCODING 213
SWIDTH 550 0
DWIDTH 11 0
BBX 11 20 0 -4
BITMAP
0000
0000
0000
0000
8020
4040
2080
1100
0a00
0400
0400
0a00
1100
2080
4040
8020
0000
0000
0000
0000
ENDCHAR
STARTCHAR cyr-Tse
ENCODING 214
SWIDTH 600 0
DWIDTH 12 0
BBX 12 20 0 -4
BITMAP
0000
0000
0000
0000
2040
2040
2040
2040
2040
2040
2040
2040
2040
2040
2040
3fe0
0020
0020
0000
0000
ENDCHAR
STARTCHAR cyr-Che
ENCODING 215
SWIDTH 600 0
DWIDTH 12 0
BBX 12 20 0 -4
BITMAP
0000
0000
0000
0000
2040
2040
2040
2040
2040
1fc0
0040
0040
0040
0040
0040
0040
0000
0000
0000
0000
ENDCHAR
STARTCHAR cyr-Sha
ENCODING 216
SWIDTH 750 0
DWIDTH 15 0
BBX 15 20 0 -4
BITMAP
0000
0000
0000
0000
4104
4104
4104
4104
4104
4104
4104
4104
4104
4104
4104
7ffc
0000
0000
0000
0000
ENDCHAR
STARTCHAR cyr-Shcha
ENCODING 217
SWIDTH 800 0
DWIDTH 16 0
BBX 16 20 0 -4
BITMAP
0000
0000
0000
0000
4104
4104
4104
4104
4104
4104
4104
4104
4104
4104
4104
7ffe
0002
0002
0000
0000
ENDCHAR
STARTCHAR cyr-Ier
ENCODING 218
SWIDTH 600 0
DWIDTH 12 0
BBX 12 20 0 -4
BITMAP
0000
0000
0000
0000
7000
1000
1000
1000
1000
1fc0
1020
1010
1010
1010
1020
1fc0
0000
0000
0000
0000
ENDCHAR
STARTCHAR cyr-Iery
ENCODING 219
SWIDTH 700 0
DWIDTH 14 0
BBX 14 20 0 -4
BITMAP
0000
0000
0000
0000
2008
2008
2008
2008
2008
3f88
2048
2028
2028
2028
2048
3f88
0000
0000
0000
0000
ENDCHAR
STARTCHAR cyr-Ierik
ENCODING 220
SWIDTH 550 0
DWIDTH 11 0
BBX 11 20 0 -4
BITMAP
0000
0000
0000
0000
2000
2000
2000
2000
2000
3f80
2040
2020
2020
2020
2040
3f80
0000
0000
0000
0000
ENDCHAR
STARTCHAR cyr-E-rev
ENCODING 221
SWIDTH 600 0
DWIDTH 12 0
BBX 12 20 0 -4
BITMAP
0000
0000
0000
0000
1f80
2040
4020
0020
0020
0fe0
0020
0020
0020
4020
2040
1f80
0000
0000
0000
0000
ENDCHAR
STARTCHAR cyr-Yu
ENCODING 222
SWIDTH 650 0
DWIDTH 13 0
BBX 13 20 0 -4
BITMAP
0000
0000
0000
0000
4380
4c60
4820
5010
5010
7010
5010
5010
5010
4820
4c60
4380
0000
0000
0000
0000
ENDCHAR
STARTCHAR cyr-Ya
ENCODING 223
SWIDTH 550 0
DWIDTH 11 0
BBX 11 20 0 -4
BITMAP
0000
0000
0000
0000
1f80
2080
4080
4080
4080
2080
1f80
0480
0880
1080
2080
4080
0000
0000
0000
0000
ENDCHAR
STARTCHAR cyr-a
ENCODING 224
SWIDTH 450 0
DWIDTH 9 0
BBX 9 20 0 -4
BITMAP
0000
0000
0000
0000
0000
0000
0000
3e00
4100
0100
0100
3f00
4100
4100
4100
3e80
0000
0000
0000
0000
ENDCHAR
STARTCHAR cyr-be
ENCODING 225
SWIDTH 450 0
DWIDTH 9 0
BBX 9 20 0 -4
BITMAP
0000
0000
0000
0000
0100
1e00
2000
5c00
6200
4100
4100
4100
4100
4100
2200
1c00
0000
0000
0000
0000
ENDCHAR
STARTCHAR cyr-ve
ENCODING 226
SWIDTH 450 0
DWIDTH 9 0
BBX 9 20 0 -4
BITMAP
0000
0000
0000
0000
0000
0000
0000
7e00
4100
4100
4100
7e00
4100
4100
4100
7e00
0000
0000
0000
0000
ENDCHAR
STARTCHAR cyr-ghe
ENCODING 227
SWIDTH 450 0
DWIDTH 9 0
BBX 9 20 0 -4
BITMAP
0000
0000
0000
0000
0000
0000
0000
7f00
4000
4000
4000
4000
4000
4000
4000
4000
0000
0000
0000
0000
ENDCHAR
STARTCHAR cyr-de
ENCODING 228
SWIDTH 500 0
DWIDTH 10 0
BBX 10 20 0 -4
BITMAP
0000
0000
0000
0000
0000
0000
0000
1f00
1100
1100
1100
1100
1100
1100
2100
7f80
4080
4080
0000
0000
ENDCHAR
STARTCHAR cyr-ie
ENCODING 229
SWIDTH 450 0
DWIDTH 9 0
BBX 9 20 0 -4
BITMAP
0000
0000
0000
0000
0000
0000
0000
1c00
2200
4100
4100
7f00
4000
4100
2200
1c00
0000
0000
0000
0000
ENDCHAR
STARTCHAR cyr-zhe
ENCODING 230
SWIDTH 650 0
DWIDTH 13 0
BBX 13 20 0 -4
BITMAP
0000
0000
0000
0000
0000
0000
0000
4210
2220
1240
0a80
0f80
1240
2220
4210
8208
0000
0000
0000
0000
ENDCHAR
STARTCHAR cyr-z
ENCODING 231
SWIDTH 450 0
DWIDTH 9 0
BBX 9 20 0 -4
BITMAP
0000
0000
0000
0000
0000
0000
0000
3e00
4100
0100
0100
1e00
0100
4100
4100
3e00
0000
0000
0000
0000
ENDCHAR
STARTCHAR cyr-i
ENCODING 232
SWIDTH 450 0
DWIDTH 9 0
BBX 9 20 0 -4
BITMAP
0000
0000
0000
0000
0000
0000
0000
4100
4100
4300
4500
4900
5100
6100
4100
4100
0000
0000
0000
0000
ENDCHAR
STARTCHAR cyr-i-short
ENCODING 233
SWIDTH 450 0
DWIDTH 9 0
BBX 9 20 0 -4
BITMAP
0000
0000
0000
0000
0000
2200
1c00
4100
4100
4300
4500
4900
5100
6100
4100
4100
0000
0000
0000
0000
ENDCHAR
STARTCHAR cyr-ka
ENCODING 234
SWIDTH 400 0
DWIDTH 8 0
BBX 8 20 0 -4
BITMAP
00
00
00
00
00
00
00
42
44
48
50
70
48
44
42
41
00
00
00
00
ENDCHAR
STARTCHAR cyr-el
ENCODING 235
SWIDTH 450 0
DWIDTH 9 0
BBX 9 20 0 -4
BITMAP
0000
0000
0000
0000
0000
0000
0000
1f00
1100
1100
1100
1100
1100
1100
1100
6100
0000
0000
0000
0000
ENDCHAR
STARTCHAR cyr-em
ENCODING 236
SWIDTH 550 0
DWIDTH 11 0
BBX 11 20 0 -4
BITMAP
0000
0000
0000
0000
0000
0000
0000
4040
60c0
5140
4a40
4440
4040
4040
4040
4040
0000
0000
0000
0000
ENDCHAR
STARTCHAR cyr-en
ENCODING 237
SWIDTH 450 0
DWIDTH 9 0
BBX 9 20 0 -4
BITMAP
0000
0000
0000
0000
0000
0000
0000
4100
4100
4100
4100
7f00
4100
4100
4100
4100
0000
0000
0000
0000
ENDCHAR
STARTCHAR cyr-o
ENCODING 238
SWIDTH 450 0
DWIDTH 9 0
BBX 9 20 0 -4
BITMAP
0000
0000
0000
0000
0000
0000
0000
1c00
2200
4100
4100
4100
4100
4100
2200
1c00
0000
0000
0000
0000
ENDCHAR
STARTCHAR cyr-pe
ENCODING 239
SWIDTH 450 0
DWIDTH 9 0
BBX 9 20 0 -4
BITMAP
0000
0000
0000
0000
0000
0000
0000
7f00
4100
4100
4100
4100
4100
4100
4100
4100
0000
0000
0000
0000
ENDCHAR
STARTCHAR cyr-er
ENCODING 240
SWIDTH 450 0
DWIDTH 9 0
BBX 9 20 0 -4
BITMAP
0000
0000
0000
0000
0000
0000
0000
5c00
6200
4100
4100
4100
4100
4100
6200
5c00
4000
4000
4000
4000
ENDCHAR
STARTCHAR cyr-es
ENCODING 241
SWIDTH 400 0
DWIDTH 8 0
BBX 8 20 0 -4
BITMAP
00
00
00
00
00
00
00
1c
22
41
40
40
40
41
22
1c
00
00
00
00
ENDCHAR
STARTCHAR cyr-te
ENCODING 242
SWIDTH 450 0
DWIDTH 9 0
BBX 9 20 0 -4
BITMAP
0000
0000
0000
0000
0000
0000
0000
7f00
0800
0800
0800
0800
0800
0800
0800
0800
0000
0000
0000
0000
ENDCHAR
STARTCHAR cyr-u
ENCODING 243
SWIDTH 350 0
DWIDTH 7 0
BBX 7 20 0 -4
BITMAP
00
00
00
00
00
00
00
82
82
44
44
28
28
10
10
20
20
40
40
80
ENDCHAR
STARTCHAR cyr-ef
ENCODING 244
SWIDTH 450 0
DWIDTH 9 0
BBX 9 20 0 -4
BITMAP
0000
0000
0000
0000
0000
0000
0800
1c00
2a00
4900
4900
4900
4900
4900
2a00
1c00
0800
0800
0800
0800
ENDCHAR
STARTCHAR cyr-kha
ENCODING 245
SWIDTH 350 0
DWIDTH 7 0
BBX 7 20 0 -4
BITMAP
00
00
00
00
00
00
00
82
44
44
28
10
28
44
44
82
00
00
00
00
ENDCHAR
STARTCHAR cyr-tse
ENCODING 246
SWIDTH 400 0
DWIDTH 8 0
BBX 8 20 0 -4
BITMAP
00
00
00
00
00
00
00
42
42
42
42
42
42
42
42
7f
01
01
00
00
ENDCHAR
STARTCHAR cyr-che
ENCODING 247
SWIDTH 450 0
DWIDTH 9 0
BBX 9 20 0 -4
BITMAP
0000
0000
0000
0000
0000
0000
0000
4100
4100
4100
4100
3f00
0100
0100
0100
0100
0000
0000
0000
0000
ENDCHAR
STARTCHAR cyr-sha
ENCODING 248
SWIDTH 550 0
DWIDTH 11 0
BBX 11 20 0 -4
BITMAP
0000
0000
0000
0000
0000
0000
0000
4440
4440
4440
4440
4440
4440
4440
4440
7fc0
0000
0000
0000
0000
ENDCHAR
STARTCHAR cyr-shcha
ENCODING 249
SWIDTH 550 0
DWIDTH 11 0
BBX 11 20 0 -4
BITMAP
0000
0000
0000
0000
0000
0000
0000
4440
4440
4440
4440
4440
4440
4440
4440
7fe0
0020
0020
0000
0000
ENDCHAR
STARTCHAR cyr-ier
ENCODING 250
SWIDTH 500 0
DWIDTH 10 0
BBX 10 20 0 -4
BITMAP
0000
0000
0000
0000
0000
0000
0000
e000
2000
2000
3f00
2080
2080
2080
2080
3f00
0000
0000
0000
0000
ENDCHAR
STARTCHAR cyr-iery
ENCODING 251
SWIDTH 550 0
DWIDTH 11 0
BBX 11 20 0 -4
BITMAP
0000
0000
0000
0000
0000
0000
0000
4040
4040
4040
7e40
4140
4140
4140
4140
7e40
0000
0000
0000
0000
ENDCHAR
STARTCHAR cyr-ierik
ENCODING 252
SWIDTH 450 0
DWIDTH 9 0
BBX 9 20 0 -4
BITMAP
0000
0000
0000
0000
0000
0000
0000
4000
4000
4000
7e00
4100
4100
4100
4100
7e00
0000
0000
0000
0000
ENDCHAR
STARTCHAR cyr-e-rev
ENCODING 253
SWIDTH 450 0
DWIDTH 9 0
BBX 9 20 0 -4
BITMAP
0000
0000
0000
0000
0000
0000
0000
3c00
4200
0100
0100
1f00
0100
0100
4200
3c00
0000
0000
0000
0000
ENDCHAR
STARTCHAR cyr-yu
ENCODING 254
SWIDTH 550 0
DWIDTH 11 0
BBX 11 20 0 -4
BITMAP
0000
0000
0000
0000
0000
0000
0000
4700
4880
5040
5040
7040
5040
5040
4880
4700
0000
0000
0000
0000
ENDCHAR
STARTCHAR cyr-ya
ENCODING 255
SWIDTH 450 0
DWIDTH 9 0
BBX 9 20 0 -4
BITMAP
0000
0000
0000
0000
0000
0000
0000
3f00
4100
4100
4100
3f00
0900
1100
2100
4100
0000
0000
0000
0000
ENDCHAR
ENDFONT
