STARTFONT 2.1
COMMENT Copyright (C) 1990-1991 EWT Consulting
COMMENT Portions Copyright (C) 1994-1995 Cronyx Ltd.
COMMENT Modified by Serge Vakulenko, <vak@cronyx.ru>
COMMENT Encoding changed to CP1251 by Rabinovich Moisei, <moisei@cs.bgu.ac.il>,$
COMMENT This software may be used, modified, copied, distributed, and sold,
COMMENT in both source and binary form provided that the copyright
COMMENT and these terms are retained. Under no circumstances is the author
COMMENT responsible for the proper functioning of this software, nor does
COMMENT the author assume any responsibility for damages incurred with its use.
FONT -Cronyx-Times-Bold-R-Normal--10-100-75-75-P-54-RAWIN-R
SIZE 10 96 96
FONTBOUNDINGBOX 15 16 0 -3
STARTPROPERTIES 19
DEFAULT_CHAR 32
FONT_ASCENT 13
FONT_DESCENT 3
SPACING "P"
FONTNAME_REGISTRY ""
FOUNDRY "Cronyx"
FAMILY_NAME "Times"
WEIGHT_NAME "Bold"
SLANT "R"
SETWIDTH_NAME "Normal"
ADD_STYLE_NAME ""
AVERAGE_WIDTH 54
CHARSET_REGISTRY "RAWIN"
CHARSET_ENCODING "R"
PIXEL_SIZE 10
POINT_SIZE 100
RESOLUTION_X 75
RESOLUTION_Y 75
COPYRIGHT "Copyright (C) 1990, 1991 EWT Consulting, Portions Copyright (C) 1994 Cronyx Ltd."
ENDPROPERTIES
CHARS 224
STARTCHAR space
ENCODING 32
SWIDTH 250 0
DWIDTH 4 0
BBX 4 16 0 -3
BITMAP
00
00
00
00
00
00
00
00
00
00
00
00
00
00
00
00
ENDCHAR
STARTCHAR exclam
ENCODING 33
SWIDTH 250 0
DWIDTH 4 0
BBX 4 16 0 -3
BITMAP
00
00
00
60
60
60
60
60
60
60
00
00
60
00
00
00
ENDCHAR
STARTCHAR quotedbl
ENCODING 34
SWIDTH 375 0
DWIDTH 6 0
BBX 6 16 0 -3
BITMAP
00
00
00
78
78
78
00
00
00
00
00
00
00
00
00
00
ENDCHAR
STARTCHAR numbersign
ENCODING 35
SWIDTH 500 0
DWIDTH 8 0
BBX 8 16 0 -3
BITMAP
00
00
00
1E
1E
1E
7F
3C
3C
FE
78
78
78
00
00
00
ENDCHAR
STARTCHAR dollar
ENCODING 36
SWIDTH 437 0
DWIDTH 7 0
BBX 7 16 0 -3
BITMAP
00
00
18
18
38
6C
6C
60
38
0C
0C
6C
38
30
30
00
ENDCHAR
STARTCHAR percent
ENCODING 37
SWIDTH 812 0
DWIDTH 13 0
BBX 13 16 0 -3
BITMAP
0000
0000
0000
3830
6C60
6CC0
3980
0300
0600
0CE0
19B0
31B0
60E0
0000
0000
0000
ENDCHAR
STARTCHAR ampersand
ENCODING 38
SWIDTH 687 0
DWIDTH 11 0
BBX 11 16 0 -3
BITMAP
0000
0000
0000
1800
3C00
3C00
3C00
1BC0
3D80
6780
6300
6780
3CC0
0000
0000
0000
ENDCHAR
STARTCHAR quoteright
ENCODING 39
SWIDTH 250 0
DWIDTH 4 0
BBX 4 16 0 -3
BITMAP
00
00
00
60
60
60
00
00
00
00
00
00
00
00
00
00
ENDCHAR
STARTCHAR parenleft
ENCODING 40
SWIDTH 312 0
DWIDTH 5 0
BBX 5 16 0 -3
BITMAP
00
00
00
30
30
60
60
60
60
60
60
60
60
60
30
30
ENDCHAR
STARTCHAR parenright
ENCODING 41
SWIDTH 312 0
DWIDTH 5 0
BBX 5 16 0 -3
BITMAP
00
00
00
60
60
30
30
30
30
30
30
30
30
30
60
60
ENDCHAR
STARTCHAR asterisk
ENCODING 42
SWIDTH 500 0
DWIDTH 8 0
BBX 8 16 0 -3
BITMAP
00
00
00
18
7E
3C
7E
18
00
00
00
00
00
00
00
00
ENDCHAR
STARTCHAR plus
ENCODING 43
SWIDTH 500 0
DWIDTH 8 0
BBX 8 16 0 -3
BITMAP
00
00
00
00
00
00
18
18
7E
18
18
00
00
00
00
00
ENDCHAR
STARTCHAR comma
ENCODING 44
SWIDTH 250 0
DWIDTH 4 0
BBX 4 16 0 -3
BITMAP
00
00
00
00
00
00
00
00
00
00
00
00
60
60
80
00
ENDCHAR
STARTCHAR minus
ENCODING 45
SWIDTH 312 0
DWIDTH 5 0
BBX 5 16 0 -3
BITMAP
00
00
00
00
00
00
00
00
F8
00
00
00
00
00
00
00
ENDCHAR
STARTCHAR period
ENCODING 46
SWIDTH 250 0
DWIDTH 4 0
BBX 4 16 0 -3
BITMAP
00
00
00
00
00
00
00
00
00
00
00
00
60
00
00
00
ENDCHAR
STARTCHAR slash
ENCODING 47
SWIDTH 312 0
DWIDTH 5 0
BBX 5 16 0 -3
BITMAP
00
00
00
18
18
18
30
30
30
60
60
60
80
80
80
00
ENDCHAR
STARTCHAR zero
ENCODING 48
SWIDTH 437 0
DWIDTH 7 0
BBX 7 16 0 -3
BITMAP
00
00
00
38
6C
6C
6C
6C
6C
6C
6C
6C
38
00
00
00
ENDCHAR
STARTCHAR one
ENCODING 49
SWIDTH 437 0
DWIDTH 7 0
BBX 7 16 0 -3
BITMAP
00
00
00
18
38
18
18
18
18
18
18
18
3C
00
00
00
ENDCHAR
STARTCHAR two
ENCODING 50
SWIDTH 437 0
DWIDTH 7 0
BBX 7 16 0 -3
BITMAP
00
00
00
38
6C
0C
0C
18
18
30
30
6C
7C
00
00
00
ENDCHAR
STARTCHAR three
ENCODING 51
SWIDTH 437 0
DWIDTH 7 0
BBX 7 16 0 -3
BITMAP
00
00
00
38
6C
0C
0C
38
0C
0C
0C
6C
38
00
00
00
ENDCHAR
STARTCHAR four
ENCODING 52
SWIDTH 437 0
DWIDTH 7 0
BBX 7 16 0 -3
BITMAP
00
00
00
0C
1C
1C
3C
3C
6C
7C
0C
0C
0C
00
00
00
ENDCHAR
STARTCHAR five
ENCODING 53
SWIDTH 437 0
DWIDTH 7 0
BBX 7 16 0 -3
BITMAP
00
00
00
7C
60
60
60
78
0C
0C
0C
6C
38
00
00
00
ENDCHAR
STARTCHAR six
ENCODING 54
SWIDTH 437 0
DWIDTH 7 0
BBX 7 16 0 -3
BITMAP
00
00
00
1C
30
60
60
78
6C
6C
6C
6C
38
00
00
00
ENDCHAR
STARTCHAR seven
ENCODING 55
SWIDTH 437 0
DWIDTH 7 0
BBX 7 16 0 -3
BITMAP
00
00
00
7C
6C
0C
18
18
18
30
30
30
30
00
00
00
ENDCHAR
STARTCHAR eight
ENCODING 56
SWIDTH 437 0
DWIDTH 7 0
BBX 7 16 0 -3
BITMAP
00
00
00
38
6C
6C
6C
38
6C
6C
6C
6C
38
00
00
00
ENDCHAR
STARTCHAR nine
ENCODING 57
SWIDTH 437 0
DWIDTH 7 0
BBX 7 16 0 -3
BITMAP
00
00
00
38
6C
6C
6C
6C
3C
0C
0C
18
70
00
00
00
ENDCHAR
STARTCHAR colon
ENCODING 58
SWIDTH 250 0
DWIDTH 4 0
BBX 4 16 0 -3
BITMAP
00
00
00
00
00
00
00
60
00
00
00
00
60
00
00
00
ENDCHAR
STARTCHAR semicolon
ENCODING 59
SWIDTH 250 0
DWIDTH 4 0
BBX 4 16 0 -3
BITMAP
00
00
00
00
00
00
00
60
00
00
00
00
60
60
80
00
ENDCHAR
STARTCHAR less
ENCODING 60
SWIDTH 500 0
DWIDTH 8 0
BBX 8 16 0 -3
BITMAP
00
00
00
00
06
0C
18
30
60
30
18
0C
06
00
00
00
ENDCHAR
STARTCHAR equal
ENCODING 61
SWIDTH 500 0
DWIDTH 8 0
BBX 8 16 0 -3
BITMAP
00
00
00
00
00
00
7E
00
00
7E
00
00
00
00
00
00
ENDCHAR
STARTCHAR greater
ENCODING 62
SWIDTH 500 0
DWIDTH 8 0
BBX 8 16 0 -3
BITMAP
00
00
00
00
60
30
18
0C
06
0C
18
30
60
00
00
00
ENDCHAR
STARTCHAR question
ENCODING 63
SWIDTH 437 0
DWIDTH 7 0
BBX 7 16 0 -3
BITMAP
00
00
00
38
6C
0C
0C
18
30
30
00
00
30
00
00
00
ENDCHAR
STARTCHAR at
ENCODING 64
SWIDTH 812 0
DWIDTH 13 0
BBX 13 16 0 -3
BITMAP
0000
0000
0000
1FC0
3060
67B0
6DB0
6DB0
6DB0
6DB0
67B0
30E0
1E00
0000
0000
0000
ENDCHAR
STARTCHAR A
ENCODING 65
SWIDTH 625 0
DWIDTH 10 0
BBX 10 16 0 -3
BITMAP
0000
0000
0000
0C00
0C00
1E00
1E00
3300
3300
3F00
6180
6180
F3C0
0000
0000
0000
ENDCHAR
STARTCHAR B
ENCODING 66
SWIDTH 625 0
DWIDTH 10 0
BBX 10 16 0 -3
BITMAP
0000
0000
0000
7F00
3180
3180
3180
3F00
3180
3180
3180
3180
7F00
0000
0000
0000
ENDCHAR
STARTCHAR C
ENCODING 67
SWIDTH 687 0
DWIDTH 11 0
BBX 11 16 0 -3
BITMAP
0000
0000
0000
1FC0
31C0
60C0
6000
6000
6000
6000
60C0
3180
1F00
0000
0000
0000
ENDCHAR
STARTCHAR D
ENCODING 68
SWIDTH 687 0
DWIDTH 11 0
BBX 11 16 0 -3
BITMAP
0000
0000
0000
7E00
3380
3180
30C0
30C0
30C0
30C0
3180
3380
7E00
0000
0000
0000
ENDCHAR
STARTCHAR E
ENCODING 69
SWIDTH 562 0
DWIDTH 9 0
BBX 9 16 0 -3
BITMAP
0000
0000
0000
7F00
3300
3000
3600
3E00
3600
3000
3000
3300
7F00
0000
0000
0000
ENDCHAR
STARTCHAR F
ENCODING 70
SWIDTH 562 0
DWIDTH 9 0
BBX 9 16 0 -3
BITMAP
0000
0000
0000
7F00
3300
3000
3600
3E00
3600
3000
3000
3000
7800
0000
0000
0000
ENDCHAR
STARTCHAR G
ENCODING 71
SWIDTH 687 0
DWIDTH 11 0
BBX 11 16 0 -3
BITMAP
0000
0000
0000
1FC0
31C0
60C0
6000
6000
61E0
60C0
60C0
30C0
1F80
0000
0000
0000
ENDCHAR
STARTCHAR H
ENCODING 72
SWIDTH 687 0
DWIDTH 11 0
BBX 11 16 0 -3
BITMAP
0000
0000
0000
7BC0
3180
3180
3180
3F80
3180
3180
3180
3180
7BC0
0000
0000
0000
ENDCHAR
STARTCHAR I
ENCODING 73
SWIDTH 375 0
DWIDTH 6 0
BBX 6 16 0 -3
BITMAP
00
00
00
78
30
30
30
30
30
30
30
30
78
00
00
00
ENDCHAR
STARTCHAR J
ENCODING 74
SWIDTH 500 0
DWIDTH 8 0
BBX 8 16 0 -3
BITMAP
00
00
00
1E
0C
0C
0C
0C
0C
0C
0C
6C
78
00
00
00
ENDCHAR
STARTCHAR K
ENCODING 75
SWIDTH 625 0
DWIDTH 10 0
BBX 10 16 0 -3
BITMAP
0000
0000
0000
7F80
3300
3600
3C00
3800
3C00
3600
3300
3180
7BC0
0000
0000
0000
ENDCHAR
STARTCHAR L
ENCODING 76
SWIDTH 625 0
DWIDTH 10 0
BBX 10 16 0 -3
BITMAP
0000
0000
0000
7800
3000
3000
3000
3000
3000
3000
3000
3180
7F80
0000
0000
0000
ENDCHAR
STARTCHAR M
ENCODING 77
SWIDTH 750 0
DWIDTH 12 0
BBX 12 16 0 -3
BITMAP
0000
0000
0000
70E0
39C0
39C0
39C0
3FC0
3FC0
3FC0
36C0
36C0
7FE0
0000
0000
0000
ENDCHAR
STARTCHAR N
ENCODING 78
SWIDTH 687 0
DWIDTH 11 0
BBX 11 16 0 -3
BITMAP
0000
0000
0000
73C0
3980
3980
3D80
3D80
3780
3780
3380
3380
7980
0000
0000
0000
ENDCHAR
STARTCHAR O
ENCODING 79
SWIDTH 687 0
DWIDTH 11 0
BBX 11 16 0 -3
BITMAP
0000
0000
0000
1F00
3180
60C0
60C0
60C0
60C0
60C0
60C0
3180
1F00
0000
0000
0000
ENDCHAR
STARTCHAR P
ENCODING 80
SWIDTH 562 0
DWIDTH 9 0
BBX 9 16 0 -3
BITMAP
0000
0000
0000
7E00
3300
3300
3300
3300
3E00
3000
3000
3000
7800
0000
0000
0000
ENDCHAR
STARTCHAR Q
ENCODING 81
SWIDTH 687 0
DWIDTH 11 0
BBX 11 16 0 -3
BITMAP
0000
0000
0000
1F00
3180
60C0
60C0
60C0
60C0
60C0
60C0
3180
1F00
0700
0380
0000
ENDCHAR
STARTCHAR R
ENCODING 82
SWIDTH 687 0
DWIDTH 11 0
BBX 11 16 0 -3
BITMAP
0000
0000
0000
7E00
3300
3300
3300
3300
3E00
3600
3300
3180
79C0
0000
0000
0000
ENDCHAR
STARTCHAR S
ENCODING 83
SWIDTH 500 0
DWIDTH 8 0
BBX 8 16 0 -3
BITMAP
00
00
00
3E
6E
66
60
38
0C
06
66
76
7C
00
00
00
ENDCHAR
STARTCHAR T
ENCODING 84
SWIDTH 750 0
DWIDTH 12 0
BBX 12 16 0 -3
BITMAP
0000
0000
0000
7FE0
6660
0600
0600
0600
0600
0600
0600
0600
0F00
0000
0000
0000
ENDCHAR
STARTCHAR U
ENCODING 85
SWIDTH 687 0
DWIDTH 11 0
BBX 11 16 0 -3
BITMAP
0000
0000
0000
7BC0
3180
3180
3180
3180
3180
3180
3180
3180
1F00
0000
0000
0000
ENDCHAR
STARTCHAR V
ENCODING 86
SWIDTH 625 0
DWIDTH 10 0
BBX 10 16 0 -3
BITMAP
0000
0000
0000
F3C0
6180
6180
3300
3300
1E00
1E00
1E00
0C00
0C00
0000
0000
0000
ENDCHAR
STARTCHAR W
ENCODING 87
SWIDTH 875 0
DWIDTH 14 0
BBX 14 16 0 -3
BITMAP
0000
0000
0000
FFFC
6798
6798
3330
3330
1FE0
1FE0
1FE0
0CC0
0CC0
0000
0000
0000
ENDCHAR
STARTCHAR X
ENCODING 88
SWIDTH 687 0
DWIDTH 11 0
BBX 11 16 0 -3
BITMAP
0000
0000
0000
F1E0
60C0
3180
1B00
0E00
0E00
1B00
3180
60C0
F1E0
0000
0000
0000
ENDCHAR
STARTCHAR Y
ENCODING 89
SWIDTH 625 0
DWIDTH 10 0
BBX 10 16 0 -3
BITMAP
0000
0000
0000
F3C0
6180
3300
3300
1E00
0C00
0C00
0C00
0C00
1E00
0000
0000
0000
ENDCHAR
STARTCHAR Z
ENCODING 90
SWIDTH 562 0
DWIDTH 9 0
BBX 9 16 0 -3
BITMAP
0000
0000
0000
FF80
8300
0600
0600
0C00
1800
3000
3000
6180
FF80
0000
0000
0000
ENDCHAR
STARTCHAR bracketleft
ENCODING 91
SWIDTH 312 0
DWIDTH 5 0
BBX 5 16 0 -3
BITMAP
00
00
00
70
60
60
60
60
60
60
60
60
60
60
60
70
ENDCHAR
STARTCHAR backslash
ENCODING 92
SWIDTH 312 0
DWIDTH 5 0
BBX 5 16 0 -3
BITMAP
00
00
00
80
80
80
60
60
60
30
30
30
18
18
18
00
ENDCHAR
STARTCHAR bracketright
ENCODING 93
SWIDTH 312 0
DWIDTH 5 0
BBX 5 16 0 -3
BITMAP
00
00
00
70
30
30
30
30
30
30
30
30
30
30
30
70
ENDCHAR
STARTCHAR asciicircum
ENCODING 94
SWIDTH 500 0
DWIDTH 8 0
BBX 8 16 0 -3
BITMAP
00
00
18
3C
66
00
00
00
00
00
00
00
00
00
00
00
ENDCHAR
STARTCHAR underscore
ENCODING 95
SWIDTH 437 0
DWIDTH 7 0
BBX 7 16 0 -3
BITMAP
00
00
00
00
00
00
00
00
00
00
00
00
00
00
00
FE
ENDCHAR
STARTCHAR quoteleft
ENCODING 96
SWIDTH 312 0
DWIDTH 5 0
BBX 5 16 0 -3
BITMAP
00
00
80
60
30
00
00
00
00
00
00
00
00
00
00
00
ENDCHAR
STARTCHAR a
ENCODING 97
SWIDTH 437 0
DWIDTH 7 0
BBX 7 16 0 -3
BITMAP
00
00
00
00
00
00
38
0C
3C
6C
6C
6C
3E
00
00
00
ENDCHAR
STARTCHAR b
ENCODING 98
SWIDTH 500 0
DWIDTH 8 0
BBX 8 16 0 -3
BITMAP
00
00
00
70
30
30
3E
3B
33
33
33
33
1E
00
00
00
ENDCHAR
STARTCHAR c
ENCODING 99
SWIDTH 437 0
DWIDTH 7 0
BBX 7 16 0 -3
BITMAP
00
00
00
00
00
00
3C
66
60
60
60
66
3C
00
00
00
ENDCHAR
STARTCHAR d
ENCODING 100
SWIDTH 437 0
DWIDTH 7 0
BBX 7 16 0 -3
BITMAP
00
00
00
0E
06
06
3E
66
66
66
66
66
3E
00
00
00
ENDCHAR
STARTCHAR e
ENCODING 101
SWIDTH 437 0
DWIDTH 7 0
BBX 7 16 0 -3
BITMAP
00
00
00
00
00
00
3C
66
66
7E
60
66
3C
00
00
00
ENDCHAR
STARTCHAR f
ENCODING 102
SWIDTH 375 0
DWIDTH 6 0
BBX 6 16 0 -3
BITMAP
00
00
00
1C
30
30
78
30
30
30
30
30
38
00
00
00
ENDCHAR
STARTCHAR g
ENCODING 103
SWIDTH 500 0
DWIDTH 8 0
BBX 8 16 0 -3
BITMAP
00
00
00
00
00
00
3F
66
66
66
3C
60
3E
63
63
3E
ENDCHAR
STARTCHAR h
ENCODING 104
SWIDTH 500 0
DWIDTH 8 0
BBX 8 16 0 -3
BITMAP
00
00
00
E0
60
60
7C
76
66
66
66
66
77
00
00
00
ENDCHAR
STARTCHAR i
ENCODING 105
SWIDTH 312 0
DWIDTH 5 0
BBX 5 16 0 -3
BITMAP
00
00
00
30
00
00
70
30
30
30
30
30
38
00
00
00
ENDCHAR
STARTCHAR j
ENCODING 106
SWIDTH 312 0
DWIDTH 5 0
BBX 5 16 0 -3
BITMAP
00
00
00
30
00
00
70
30
30
30
30
30
30
30
30
60
ENDCHAR
STARTCHAR k
ENCODING 107
SWIDTH 500 0
DWIDTH 8 0
BBX 8 16 0 -3
BITMAP
00
00
00
E0
60
60
6E
6C
78
78
6C
66
77
00
00
00
ENDCHAR
STARTCHAR l
ENCODING 108
SWIDTH 250 0
DWIDTH 4 0
BBX 4 16 0 -3
BITMAP
00
00
00
E0
60
60
60
60
60
60
60
60
70
00
00
00
ENDCHAR
STARTCHAR m
ENCODING 109
SWIDTH 625 0
DWIDTH 10 0
BBX 10 16 0 -3
BITMAP
0000
0000
0000
0000
0000
0000
FB00
7F80
6D80
6D80
6D80
6D80
7FC0
0000
0000
0000
ENDCHAR
STARTCHAR n
ENCODING 110
SWIDTH 500 0
DWIDTH 8 0
BBX 8 16 0 -3
BITMAP
00
00
00
00
00
00
FC
76
66
66
66
66
77
00
00
00
ENDCHAR
STARTCHAR o
ENCODING 111
SWIDTH 437 0
DWIDTH 7 0
BBX 7 16 0 -3
BITMAP
00
00
00
00
00
00
3C
66
66
66
66
66
3C
00
00
00
ENDCHAR
STARTCHAR p
ENCODING 112
SWIDTH 500 0
DWIDTH 8 0
BBX 8 16 0 -3
BITMAP
00
00
00
00
00
00
7E
3B
33
33
33
33
3E
30
30
78
ENDCHAR
STARTCHAR q
ENCODING 113
SWIDTH 500 0
DWIDTH 8 0
BBX 8 16 0 -3
BITMAP
00
00
00
00
00
00
3E
66
66
66
66
66
3E
06
06
0F
ENDCHAR
STARTCHAR r
ENCODING 114
SWIDTH 375 0
DWIDTH 6 0
BBX 6 16 0 -3
BITMAP
00
00
00
00
00
00
7C
38
30
30
30
30
38
00
00
00
ENDCHAR
STARTCHAR s
ENCODING 115
SWIDTH 312 0
DWIDTH 5 0
BBX 5 16 0 -3
BITMAP
00
00
00
00
00
00
38
60
60
30
18
18
70
00
00
00
ENDCHAR
STARTCHAR t
ENCODING 116
SWIDTH 312 0
DWIDTH 5 0
BBX 5 16 0 -3
BITMAP
00
00
00
00
30
30
78
30
30
30
30
30
18
00
00
00
ENDCHAR
STARTCHAR u
ENCODING 117
SWIDTH 500 0
DWIDTH 8 0
BBX 8 16 0 -3
BITMAP
00
00
00
00
00
00
EE
66
66
66
66
6E
3F
00
00
00
ENDCHAR
STARTCHAR v
ENCODING 118
SWIDTH 500 0
DWIDTH 8 0
BBX 8 16 0 -3
BITMAP
00
00
00
00
00
00
FF
66
66
3C
3C
18
18
00
00
00
ENDCHAR
STARTCHAR w
ENCODING 119
SWIDTH 625 0
DWIDTH 10 0
BBX 10 16 0 -3
BITMAP
0000
0000
0000
0000
0000
0000
FFC0
8CC0
8CC0
7F80
7F80
3300
3300
0000
0000
0000
ENDCHAR
STARTCHAR x
ENCODING 120
SWIDTH 500 0
DWIDTH 8 0
BBX 8 16 0 -3
BITMAP
00
00
00
00
00
00
FF
66
3C
18
3C
66
FF
00
00
00
ENDCHAR
STARTCHAR y
ENCODING 121
SWIDTH 500 0
DWIDTH 8 0
BBX 8 16 0 -3
BITMAP
00
00
00
00
00
00
FF
66
66
3C
3C
18
18
30
B0
E0
ENDCHAR
STARTCHAR z
ENCODING 122
SWIDTH 437 0
DWIDTH 7 0
BBX 7 16 0 -3
BITMAP
00
00
00
00
00
00
7E
66
0C
18
30
66
7E
00
00
00
ENDCHAR
STARTCHAR braceleft
ENCODING 123
SWIDTH 375 0
DWIDTH 6 0
BBX 6 16 0 -3
BITMAP
00
00
00
18
30
30
30
30
30
60
30
30
30
30
30
18
ENDCHAR
STARTCHAR bar
ENCODING 124
SWIDTH 250 0
DWIDTH 4 0
BBX 4 16 0 -3
BITMAP
00
00
00
60
60
60
60
60
60
60
60
60
60
60
60
60
ENDCHAR
STARTCHAR braceright
ENCODING 125
SWIDTH 375 0
DWIDTH 6 0
BBX 6 16 0 -3
BITMAP
00
00
00
60
30
30
30
30
30
18
30
30
30
30
30
60
ENDCHAR
STARTCHAR asciitilde
ENCODING 126
SWIDTH 562 0
DWIDTH 9 0
BBX 9 16 0 -3
BITMAP
0000
0000
0000
3B00
6E00
0000
0000
0000
0000
0000
0000
0000
0000
0000
0000
0000
ENDCHAR
STARTCHAR C177
ENCODING -1
SWIDTH 312 0
DWIDTH 5 0
BBX 5 16 0 -3
BITMAP
00
00
00
00
70
70
70
70
70
70
70
70
70
00
00
00
ENDCHAR
STARTCHAR C200
ENCODING -1
SWIDTH 312 0
DWIDTH 5 0
BBX 5 16 0 -3
BITMAP
00
00
00
00
70
70
70
70
70
70
70
70
70
00
00
00
ENDCHAR
STARTCHAR C201
ENCODING -1
SWIDTH 312 0
DWIDTH 5 0
BBX 5 16 0 -3
BITMAP
00
00
00
00
70
70
70
70
70
70
70
70
70
00
00
00
ENDCHAR
STARTCHAR C202
ENCODING -1
SWIDTH 312 0
DWIDTH 5 0
BBX 5 16 0 -3
BITMAP
00
00
00
00
70
70
70
70
70
70
70
70
70
00
00
00
ENDCHAR
STARTCHAR C203
ENCODING -1
SWIDTH 312 0
DWIDTH 5 0
BBX 5 16 0 -3
BITMAP
00
00
00
00
70
70
70
70
70
70
70
70
70
00
00
00
ENDCHAR
STARTCHAR C204
ENCODING -1
SWIDTH 312 0
DWIDTH 5 0
BBX 5 16 0 -3
BITMAP
00
00
00
00
70
70
70
70
70
70
70
70
70
00
00
00
ENDCHAR
STARTCHAR C205
ENCODING -1
SWIDTH 312 0
DWIDTH 5 0
BBX 5 16 0 -3
BITMAP
00
00
00
00
70
70
70
70
70
70
70
70
70
00
00
00
ENDCHAR
STARTCHAR C206
ENCODING -1
SWIDTH 312 0
DWIDTH 5 0
BBX 5 16 0 -3
BITMAP
00
00
00
00
70
70
70
70
70
70
70
70
70
00
00
00
ENDCHAR
STARTCHAR C207
ENCODING -1
SWIDTH 312 0
DWIDTH 5 0
BBX 5 16 0 -3
BITMAP
00
00
00
00
70
70
70
70
70
70
70
70
70
00
00
00
ENDCHAR
STARTCHAR C210
ENCODING -1
SWIDTH 312 0
DWIDTH 5 0
BBX 5 16 0 -3
BITMAP
00
00
00
00
70
70
70
70
70
70
70
70
70
00
00
00
ENDCHAR
STARTCHAR C211
ENCODING -1
SWIDTH 312 0
DWIDTH 5 0
BBX 5 16 0 -3
BITMAP
00
00
00
00
70
70
70
70
70
70
70
70
70
00
00
00
ENDCHAR
STARTCHAR C212
ENCODING -1
SWIDTH 312 0
DWIDTH 5 0
BBX 5 16 0 -3
BITMAP
00
00
00
00
70
70
70
70
70
70
70
70
70
00
00
00
ENDCHAR
STARTCHAR C213
ENCODING -1
SWIDTH 312 0
DWIDTH 5 0
BBX 5 16 0 -3
BITMAP
00
00
00
00
70
70
70
70
70
70
70
70
70
00
00
00
ENDCHAR
STARTCHAR C214
ENCODING -1
SWIDTH 312 0
DWIDTH 5 0
BBX 5 16 0 -3
BITMAP
00
00
00
00
70
70
70
70
70
70
70
70
70
00
00
00
ENDCHAR
STARTCHAR C215
ENCODING -1
SWIDTH 312 0
DWIDTH 5 0
BBX 5 16 0 -3
BITMAP
00
00
00
00
70
70
70
70
70
70
70
70
70
00
00
00
ENDCHAR
STARTCHAR C216
ENCODING -1
SWIDTH 312 0
DWIDTH 5 0
BBX 5 16 0 -3
BITMAP
00
00
00
00
70
70
70
70
70
70
70
70
70
00
00
00
ENDCHAR
STARTCHAR C217
ENCODING -1
SWIDTH 312 0
DWIDTH 5 0
BBX 5 16 0 -3
BITMAP
00
00
00
00
70
70
70
70
70
70
70
70
70
00
00
00
ENDCHAR
STARTCHAR C220
ENCODING -1
SWIDTH 312 0
DWIDTH 5 0
BBX 5 16 0 -3
BITMAP
00
00
00
00
70
70
70
70
70
70
70
70
70
00
00
00
ENDCHAR
STARTCHAR C221
ENCODING -1
SWIDTH 250 0
DWIDTH 4 0
BBX 4 16 0 -3
BITMAP
00
00
00
30
60
60
00
00
00
00
00
00
00
00
00
00
ENDCHAR
STARTCHAR C222
ENCODING -1
SWIDTH 250 0
DWIDTH 4 0
BBX 4 16 0 -3
BITMAP
00
00
00
60
60
80
00
00
00
00
00
00
00
00
00
00
ENDCHAR
STARTCHAR C223
ENCODING -1
SWIDTH 312 0
DWIDTH 5 0
BBX 5 16 0 -3
BITMAP
00
00
00
00
70
70
70
70
70
70
70
70
70
00
00
00
ENDCHAR
STARTCHAR C224
ENCODING -1
SWIDTH 312 0
DWIDTH 5 0
BBX 5 16 0 -3
BITMAP
00
00
00
00
70
70
70
70
70
70
70
70
70
00
00
00
ENDCHAR
STARTCHAR C225
ENCODING -1
SWIDTH 312 0
DWIDTH 5 0
BBX 5 16 0 -3
BITMAP
00
00
00
00
70
70
70
70
70
70
70
70
70
00
00
00
ENDCHAR
STARTCHAR C226
ENCODING -1
SWIDTH 312 0
DWIDTH 5 0
BBX 5 16 0 -3
BITMAP
00
00
00
00
70
70
70
70
70
70
70
70
70
00
00
00
ENDCHAR
STARTCHAR C227
ENCODING -1
SWIDTH 312 0
DWIDTH 5 0
BBX 5 16 0 -3
BITMAP
00
00
00
00
70
70
70
70
70
70
70
70
70
00
00
00
ENDCHAR
STARTCHAR C230
ENCODING -1
SWIDTH 312 0
DWIDTH 5 0
BBX 5 16 0 -3
BITMAP
00
00
00
00
70
70
70
70
70
70
70
70
70
00
00
00
ENDCHAR
STARTCHAR C231
ENCODING -1
SWIDTH 312 0
DWIDTH 5 0
BBX 5 16 0 -3
BITMAP
00
00
00
00
70
70
70
70
70
70
70
70
70
00
00
00
ENDCHAR
STARTCHAR C232
ENCODING -1
SWIDTH 312 0
DWIDTH 5 0
BBX 5 16 0 -3
BITMAP
00
00
00
00
70
70
70
70
70
70
70
70
70
00
00
00
ENDCHAR
STARTCHAR C233
ENCODING -1
SWIDTH 312 0
DWIDTH 5 0
BBX 5 16 0 -3
BITMAP
00
00
00
00
70
70
70
70
70
70
70
70
70
00
00
00
ENDCHAR
STARTCHAR C234
ENCODING -1
SWIDTH 312 0
DWIDTH 5 0
BBX 5 16 0 -3
BITMAP
00
00
00
00
70
70
70
70
70
70
70
70
70
00
00
00
ENDCHAR
STARTCHAR C235
ENCODING -1
SWIDTH 312 0
DWIDTH 5 0
BBX 5 16 0 -3
BITMAP
00
00
00
00
70
70
70
70
70
70
70
70
70
00
00
00
ENDCHAR
STARTCHAR C236
ENCODING -1
SWIDTH 312 0
DWIDTH 5 0
BBX 5 16 0 -3
BITMAP
00
00
00
00
70
70
70
70
70
70
70
70
70
00
00
00
ENDCHAR
STARTCHAR C237
ENCODING -1
SWIDTH 312 0
DWIDTH 5 0
BBX 5 16 0 -3
BITMAP
00
00
00
00
70
70
70
70
70
70
70
70
70
00
00
00
ENDCHAR
STARTCHAR C240
ENCODING 160
SWIDTH 250 0
DWIDTH 4 0
BBX 4 16 0 -3
BITMAP
00
00
00
00
00
00
00
00
00
00
00
00
00
00
00
00
ENDCHAR
STARTCHAR exclamdown
ENCODING 161
SWIDTH 562 0
DWIDTH 9 0
BBX 9 16 0 -3
BITMAP
0000
3F00
0000
7F00
3300
3000
3600
3E00
3600
3000
3000
3300
7F00
0000
0000
0000
ENDCHAR
STARTCHAR cent
ENCODING 162
SWIDTH 437 0
DWIDTH 7 0
BBX 7 16 0 -3
BITMAP
00
00
00
00
00
00
06
3C
6E
78
78
76
3C
60
00
00
ENDCHAR
STARTCHAR sterling
ENCODING 184
SWIDTH 437 0
DWIDTH 7 0
BBX 7 16 0 -3
BITMAP
00
00
00
38
6C
60
60
30
7C
30
30
36
7C
00
00
00
ENDCHAR
STARTCHAR currency
ENCODING 164
SWIDTH 437 0
DWIDTH 7 0
BBX 7 16 0 -3
BITMAP
00
00
00
BE
6C
6C
BE
00
00
00
00
00
00
00
00
00
ENDCHAR
STARTCHAR yen
ENCODING 165
SWIDTH 437 0
DWIDTH 7 0
BBX 7 16 0 -3
BITMAP
00
00
00
FE
8C
FC
78
FC
30
30
30
30
78
00
00
00
ENDCHAR
STARTCHAR brokenbar
ENCODING 166
SWIDTH 250 0
DWIDTH 4 0
BBX 4 16 0 -3
BITMAP
00
00
00
60
60
60
60
60
00
00
00
60
60
60
60
60
ENDCHAR
STARTCHAR section
ENCODING 167
SWIDTH 437 0
DWIDTH 7 0
BBX 7 16 0 -3
BITMAP
00
00
00
38
6C
60
30
78
6C
6C
3C
18
0C
6C
38
00
ENDCHAR
STARTCHAR dieresis
ENCODING 168
SWIDTH 375 0
DWIDTH 6 0
BBX 6 16 0 -3
BITMAP
00
00
00
78
00
00
00
00
00
00
00
00
00
00
00
00
ENDCHAR
STARTCHAR copyright
ENCODING 169
SWIDTH 750 0
DWIDTH 12 0
BBX 12 16 0 -3
BITMAP
0000
0000
0000
1F80
30C0
6F60
79E0
7860
7860
79E0
6F60
30C0
1F80
0000
0000
0000
ENDCHAR
STARTCHAR ordfeminine
ENCODING 170
SWIDTH 312 0
DWIDTH 5 0
BBX 5 16 0 -3
BITMAP
00
00
00
60
30
70
70
00
70
00
00
00
00
00
00
00
ENDCHAR
STARTCHAR guillemotleft
ENCODING 171
SWIDTH 500 0
DWIDTH 8 0
BBX 8 16 0 -3
BITMAP
00
00
00
00
00
00
00
00
1E
3C
78
3C
1E
00
00
00
ENDCHAR
STARTCHAR logicalnot
ENCODING 172
SWIDTH 500 0
DWIDTH 8 0
BBX 8 16 0 -3
BITMAP
00
00
00
00
00
00
00
7E
06
00
00
00
00
00
00
00
ENDCHAR
STARTCHAR hyphen
ENCODING 173
SWIDTH 312 0
DWIDTH 5 0
BBX 5 16 0 -3
BITMAP
00
00
00
00
00
00
00
00
F8
00
00
00
00
00
00
00
ENDCHAR
STARTCHAR registered
ENCODING 174
SWIDTH 750 0
DWIDTH 12 0
BBX 12 16 0 -3
BITMAP
0000
0000
0000
1F80
30C0
7F60
79E0
79E0
7F60
7B60
79E0
30C0
1F80
0000
0000
0000
ENDCHAR
STARTCHAR macron
ENCODING 175
SWIDTH 437 0
DWIDTH 7 0
BBX 7 16 0 -3
BITMAP
FE
00
00
00
00
00
00
00
00
00
00
00
00
00
00
00
ENDCHAR
STARTCHAR degree
ENCODING 176
SWIDTH 312 0
DWIDTH 5 0
BBX 5 16 0 -3
BITMAP
00
00
00
30
78
30
00
00
00
00
00
00
00
00
00
00
ENDCHAR
STARTCHAR plusminus
ENCODING 177
SWIDTH 500 0
DWIDTH 8 0
BBX 8 16 0 -3
BITMAP
00
00
00
00
00
18
18
7E
18
18
00
00
7E
00
00
00
ENDCHAR
STARTCHAR twosuperior
ENCODING 178
SWIDTH 250 0
DWIDTH 4 0
BBX 4 16 0 -3
BITMAP
00
00
00
60
B0
30
60
80
F0
00
00
00
00
00
00
00
ENDCHAR
STARTCHAR threesuperior
ENCODING 168
SWIDTH 250 0
DWIDTH 4 0
BBX 4 16 0 -3
BITMAP
00
00
00
E0
30
60
30
30
E0
00
00
00
00
00
00
00
ENDCHAR
STARTCHAR acute
ENCODING 180
SWIDTH 312 0
DWIDTH 5 0
BBX 5 16 0 -3
BITMAP
00
00
18
30
60
00
00
00
00
00
00
00
00
00
00
00
ENDCHAR
STARTCHAR mu
ENCODING 181
SWIDTH 562 0
DWIDTH 9 0
BBX 9 16 0 -3
BITMAP
0000
0000
0000
0000
0000
0000
0000
6600
6600
6600
6600
6600
7F80
6000
6000
6000
ENDCHAR
STARTCHAR paragraph
ENCODING 182
SWIDTH 437 0
DWIDTH 7 0
BBX 7 16 0 -3
BITMAP
00
00
00
3C
7C
7C
7C
3C
0C
0C
0C
0C
0C
00
00
00
ENDCHAR
STARTCHAR periodcentered
ENCODING 183
SWIDTH 250 0
DWIDTH 4 0
BBX 4 16 0 -3
BITMAP
00
00
00
00
00
00
00
00
60
00
00
00
00
00
00
00
ENDCHAR
STARTCHAR cedilla
ENCODING 184
SWIDTH 312 0
DWIDTH 5 0
BBX 5 16 0 -3
BITMAP
00
00
00
00
00
00
00
00
00
00
00
00
60
30
60
00
ENDCHAR
STARTCHAR onesuperior
ENCODING 185
SWIDTH 250 0
DWIDTH 4 0
BBX 4 16 0 -3
BITMAP
00
00
00
60
E0
60
60
60
F0
00
00
00
00
00
00
00
ENDCHAR
STARTCHAR ordmasculine
ENCODING 186
SWIDTH 312 0
DWIDTH 5 0
BBX 5 16 0 -3
BITMAP
00
00
00
70
70
70
70
00
70
00
00
00
00
00
00
00
ENDCHAR
STARTCHAR guillemotright
ENCODING 187
SWIDTH 500 0
DWIDTH 8 0
BBX 8 16 0 -3
BITMAP
00
00
00
00
00
00
00
00
78
3C
1E
3C
78
00
00
00
ENDCHAR
STARTCHAR onequarter
ENCODING 188
SWIDTH 625 0
DWIDTH 10 0
BBX 10 16 0 -3
BITMAP
0000
0000
0000
60C0
E180
6300
6600
6CC0
FDC0
1BC0
33C0
63C0
80C0
0000
0000
0000
ENDCHAR
STARTCHAR onehalf
ENCODING 189
SWIDTH 625 0
DWIDTH 10 0
BBX 10 16 0 -3
BITMAP
0000
0000
0000
60C0
E180
6300
6600
6D80
FFC0
18C0
3180
6300
83C0
0000
0000
0000
ENDCHAR
STARTCHAR threequarters
ENCODING 190
SWIDTH 625 0
DWIDTH 10 0
BBX 10 16 0 -3
BITMAP
0000
0000
0000
E0C0
3180
6300
3600
3CC0
EDC0
1BC0
33C0
63C0
80C0
0000
0000
0000
ENDCHAR
STARTCHAR questiondown
ENCODING 191
SWIDTH 500 0
DWIDTH 8 0
BBX 8 16 0 -3
BITMAP
00
00
00
00
7E
00
3C
66
66
7E
60
66
3C
00
00
00
ENDCHAR
STARTCHAR cyr-A
ENCODING 192
SWIDTH 625 0
DWIDTH 10 0
BBX 10 16 0 -3
BITMAP
0000
0000
0000
0C00
0C00
1E00
1E00
3300
3300
3F00
6180
6180
F3C0
0000
0000
0000
ENDCHAR
STARTCHAR cyr-Be
ENCODING 193
SWIDTH 562 0
DWIDTH 9 0
BBX 9 16 0 -3
BITMAP
0000
0000
0000
7F80
3180
3000
3000
3F00
3180
3180
3180
3180
7F00
0000
0000
0000
ENDCHAR
STARTCHAR cyr-Ve
ENCODING 194
SWIDTH 562 0
DWIDTH 9 0
BBX 9 16 0 -3
BITMAP
0000
0000
0000
7F00
3180
3180
3180
3F00
3180
3180
3180
3180
7F00
0000
0000
0000
ENDCHAR
STARTCHAR cyr-Ghe
ENCODING 195
SWIDTH 562 0
DWIDTH 9 0
BBX 9 16 0 -3
BITMAP
0000
0000
0000
7F80
3180
3000
3000
3000
3000
3000
3000
3000
7800
0000
0000
0000
ENDCHAR
STARTCHAR cyr-De
ENCODING 196
SWIDTH 625 0
DWIDTH 10 0
BBX 10 16 0 -3
BITMAP
0000
0000
0000
3FC0
1980
1980
1980
1980
1980
1980
1980
3180
7FC0
60C0
60C0
0000
ENDCHAR
STARTCHAR cyr-Ie
ENCODING 197
SWIDTH 500 0
DWIDTH 8 0
BBX 8 16 0 -3
BITMAP
00
00
00
7F
33
30
36
3E
36
30
30
33
7F
00
00
00
ENDCHAR
STARTCHAR cyr-Zhe
ENCODING 198
SWIDTH 812 0
DWIDTH 13 0
BBX 13 16 0 -3
BITMAP
0000
0000
0000
7FF8
3330
1B60
1B60
0FC0
1B60
1B60
3330
3330
7FF8
0000
0000
0000
ENDCHAR
STARTCHAR cyr-Ze
ENCODING 199
SWIDTH 500 0
DWIDTH 8 0
BBX 8 16 0 -3
BITMAP
00
00
00
3E
63
63
03
1E
03
03
63
63
3E
00
00
00
ENDCHAR
STARTCHAR cyr-I
ENCODING 200
SWIDTH 625 0
DWIDTH 10 0
BBX 10 16 0 -3
BITMAP
0000
0000
0000
7BC0
3180
3380
3780
3780
3D80
3D80
3980
3180
7BC0
0000
0000
0000
ENDCHAR
STARTCHAR cyr-I-short
ENCODING 201
SWIDTH 625 0
DWIDTH 10 0
BBX 10 16 0 -3
BITMAP
0000
0E00
0000
7BC0
3180
3380
3780
3780
3D80
3D80
3980
3180
7BC0
0000
0000
0000
ENDCHAR
STARTCHAR cyr-Ka
ENCODING 202
SWIDTH 562 0
DWIDTH 9 0
BBX 9 16 0 -3
BITMAP
0000
0000
0000
7F80
3300
3600
3600
3C00
3600
3600
3300
3300
7F80
0000
0000
0000
ENDCHAR
STARTCHAR cyr-El
ENCODING 203
SWIDTH 625 0
DWIDTH 10 0
BBX 10 16 0 -3
BITMAP
0000
0000
0000
3FC0
1980
1980
1980
1980
1980
1980
1980
1980
73C0
0000
0000
0000
ENDCHAR
STARTCHAR cyr-Em
ENCODING 204
SWIDTH 687 0
DWIDTH 11 0
BBX 11 16 0 -3
BITMAP
0000
0000
0000
70E0
39C0
39C0
39C0
3FC0
3FC0
3FC0
36C0
36C0
7FE0
0000
0000
0000
ENDCHAR
STARTCHAR cyr-En
ENCODING 205
SWIDTH 625 0
DWIDTH 10 0
BBX 10 16 0 -3
BITMAP
0000
0000
0000
7BC0
3180
3180
3180
3F80
3180
3180
3180
3180
7BC0
0000
0000
0000
ENDCHAR
STARTCHAR cyr-O
ENCODING 206
SWIDTH 625 0
DWIDTH 10 0
BBX 10 16 0 -3
BITMAP
0000
0000
0000
1F00
3180
60C0
60C0
60C0
60C0
60C0
60C0
3180
1F00
0000
0000
0000
ENDCHAR
STARTCHAR cyr-Pe
ENCODING 207
SWIDTH 625 0
DWIDTH 10 0
BBX 10 16 0 -3
BITMAP
0000
0000
0000
7FC0
3180
3180
3180
3180
3180
3180
3180
3180
7BC0
0000
0000
0000
ENDCHAR
STARTCHAR cyr-Er
ENCODING 208
SWIDTH 562 0
DWIDTH 9 0
BBX 9 16 0 -3
BITMAP
0000
0000
0000
7F00
3180
3180
3180
3180
3F00
3000
3000
3000
7800
0000
0000
0000
ENDCHAR
STARTCHAR cyr-Es
ENCODING 209
SWIDTH 625 0
DWIDTH 10 0
BBX 10 16 0 -3
BITMAP
0000
0000
0000
1FC0
31C0
60C0
6000
6000
6000
6000
60C0
3180
1F00
0000
0000
0000
ENDCHAR
STARTCHAR cyr-Te
ENCODING 210
SWIDTH 687 0
DWIDTH 11 0
BBX 11 16 0 -3
BITMAP
0000
0000
0000
7FE0
6660
0600
0600
0600
0600
0600
0600
0600
0F00
0000
0000
0000
ENDCHAR
STARTCHAR cyr-U
ENCODING 211
SWIDTH 750 0
DWIDTH 12 0
BBX 12 16 0 -3
BITMAP
0000
0000
0000
78F0
3060
18C0
0CC0
0D80
0780
0300
0300
0600
3C00
0000
0000
0000
ENDCHAR
STARTCHAR cyr-Ef
ENCODING 212
SWIDTH 687 0
DWIDTH 11 0
BBX 11 16 0 -3
BITMAP
0000
0000
0000
1F80
36C0
6660
6660
6660
36C0
1F80
0600
0600
0F00
0000
0000
0000
ENDCHAR
STARTCHAR cyr-Kha
ENCODING 213
SWIDTH 750 0
DWIDTH 12 0
BBX 12 16 0 -3
BITMAP
0000
0000
0000
78F0
3060
18C0
0D80
0700
0700
0D80
18C0
3060
78F0
0000
0000
0000
ENDCHAR
STARTCHAR cyr-Tse
ENCODING 214
SWIDTH 625 0
DWIDTH 10 0
BBX 10 16 0 -3
BITMAP
0000
0000
0000
7BC0
3180
3180
3180
3180
3180
3180
3180
3180
7FC0
00C0
00C0
0000
ENDCHAR
STARTCHAR cyr-Che
ENCODING 215
SWIDTH 625 0
DWIDTH 10 0
BBX 10 16 0 -3
BITMAP
0000
0000
0000
7BC0
3180
3180
3180
3180
1F80
0180
0180
0180
03C0
0000
0000
0000
ENDCHAR
STARTCHAR cyr-Sha
ENCODING 216
SWIDTH 812 0
DWIDTH 13 0
BBX 13 16 0 -3
BITMAP
0000
0000
0000
7FF8
3330
3330
3330
3330
3330
3330
3330
3330
7FF8
0000
0000
0000
ENDCHAR
STARTCHAR cyr-Shcha
ENCODING 217
SWIDTH 812 0
DWIDTH 13 0
BBX 13 16 0 -3
BITMAP
0000
0000
0000
7FF8
3330
3330
3330
3330
3330
3330
3330
3330
7FF8
0018
0018
0000
ENDCHAR
STARTCHAR cyr-Ier
ENCODING 218
SWIDTH 687 0
DWIDTH 11 0
BBX 11 16 0 -3
BITMAP
0000
0000
0000
7E00
6C00
6C00
0C00
0FC0
0C60
0C60
0C60
0C60
1FC0
0000
0000
0000
ENDCHAR
STARTCHAR cyr-Iery
ENCODING 219
SWIDTH 750 0
DWIDTH 12 0
BBX 12 16 0 -3
BITMAP
0000
0000
0000
78F0
3060
3060
3060
3F60
31E0
31E0
31E0
31E0
7FF0
0000
0000
0000
ENDCHAR
STARTCHAR cyr-Ierik
ENCODING 220
SWIDTH 562 0
DWIDTH 9 0
BBX 9 16 0 -3
BITMAP
0000
0000
0000
7800
3000
3000
3000
3F00
3180
3180
3180
3180
7F00
0000
0000
0000
ENDCHAR
STARTCHAR cyr-E-rev
ENCODING 221
SWIDTH 562 0
DWIDTH 9 0
BBX 9 16 0 -3
BITMAP
0000
0000
0000
3F00
6180
6180
0180
1F80
0180
0180
6180
6180
3F00
0000
0000
0000
ENDCHAR
STARTCHAR cyr-Yu
ENCODING 222
SWIDTH 875 0
DWIDTH 14 0
BBX 14 16 0 -3
BITMAP
0000
0000
0000
79F0
3318
360C
360C
3E0C
360C
360C
360C
3318
79F0
0000
0000
0000
ENDCHAR
STARTCHAR cyr-Ya
ENCODING 223
SWIDTH 687 0
DWIDTH 11 0
BBX 11 16 0 -3
BITMAP
0000
0000
0000
0FE0
18C0
18C0
18C0
18C0
0FC0
06C0
0CC0
18C0
39E0
0000
0000
0000
ENDCHAR
STARTCHAR cyr-a
ENCODING 224
SWIDTH 500 0
DWIDTH 8 0
BBX 8 16 0 -3
BITMAP
00
00
00
00
00
00
3C
06
3E
66
66
66
3F
00
00
00
ENDCHAR
STARTCHAR cyr-be
ENCODING 225
SWIDTH 437 0
DWIDTH 7 0
BBX 7 16 0 -3
BITMAP
00
00
06
3C
60
60
7C
76
66
66
66
66
3C
00
00
00
ENDCHAR
STARTCHAR cyr-ve
ENCODING 226
SWIDTH 500 0
DWIDTH 8 0
BBX 8 16 0 -3
BITMAP
00
00
00
00
00
00
7E
33
33
3E
33
33
7E
00
00
00
ENDCHAR
STARTCHAR cyr-ghe
ENCODING 227
SWIDTH 437 0
DWIDTH 7 0
BBX 7 16 0 -3
BITMAP
00
00
00
00
00
00
7E
36
30
30
30
30
78
00
00
00
ENDCHAR
STARTCHAR cyr-de
ENCODING 228
SWIDTH 500 0
DWIDTH 8 0
BBX 8 16 0 -3
BITMAP
00
00
00
00
00
00
3F
1E
1E
1E
1E
36
7F
63
00
00
ENDCHAR
STARTCHAR cyr-ie
ENCODING 229
SWIDTH 437 0
DWIDTH 7 0
BBX 7 16 0 -3
BITMAP
00
00
00
00
00
00
3C
66
66
7E
60
66
3C
00
00
00
ENDCHAR
STARTCHAR cyr-zhe
ENCODING 230
SWIDTH 687 0
DWIDTH 11 0
BBX 11 16 0 -3
BITMAP
0000
0000
0000
0000
0000
0000
7FE0
36C0
1F80
1F80
36C0
36C0
7FE0
0000
0000
0000
ENDCHAR
STARTCHAR cyr-z
ENCODING 231
SWIDTH 437 0
DWIDTH 7 0
BBX 7 16 0 -3
BITMAP
00
00
00
00
00
00
3C
66
06
1C
06
66
3C
00
00
00
ENDCHAR
STARTCHAR cyr-i
ENCODING 232
SWIDTH 562 0
DWIDTH 9 0
BBX 9 16 0 -3
BITMAP
0000
0000
0000
0000
0000
0000
7F80
3300
3700
3F00
3B00
3300
7F80
0000
0000
0000
ENDCHAR
STARTCHAR cyr-i-short
ENCODING 233
SWIDTH 562 0
DWIDTH 9 0
BBX 9 16 0 -3
BITMAP
0000
0000
0000
0000
1E00
0000
7F80
3300
3700
3F00
3B00
3300
7F80
0000
0000
0000
ENDCHAR
STARTCHAR cyr-ka
ENCODING 234
SWIDTH 500 0
DWIDTH 8 0
BBX 8 16 0 -3
BITMAP
00
00
00
00
00
00
7F
36
3C
3C
36
36
7F
00
00
00
ENDCHAR
STARTCHAR cyr-el
ENCODING 235
SWIDTH 562 0
DWIDTH 9 0
BBX 9 16 0 -3
BITMAP
0000
0000
0000
0000
0000
0000
3F80
1B00
1B00
1B00
1B00
1B00
7780
0000
0000
0000
ENDCHAR
STARTCHAR cyr-em
ENCODING 236
SWIDTH 687 0
DWIDTH 11 0
BBX 11 16 0 -3
BITMAP
0000
0000
0000
0000
0000
0000
70E0
39C0
39C0
3FC0
3FC0
36C0
7EE0
0000
0000
0000
ENDCHAR
STARTCHAR cyr-en
ENCODING 237
SWIDTH 562 0
DWIDTH 9 0
BBX 9 16 0 -3
BITMAP
0000
0000
0000
0000
0000
0000
7F80
3300
3300
3F00
3300
3300
7F80
0000
0000
0000
ENDCHAR
STARTCHAR cyr-o
ENCODING 238
SWIDTH 437 0
DWIDTH 7 0
BBX 7 16 0 -3
BITMAP
00
00
00
00
00
00
3C
66
66
66
66
66
3C
00
00
00
ENDCHAR
STARTCHAR cyr-pe
ENCODING 239
SWIDTH 562 0
DWIDTH 9 0
BBX 9 16 0 -3
BITMAP
0000
0000
0000
0000
0000
0000
7F80
3300
3300
3300
3300
3300
7F80
0000
0000
0000
ENDCHAR
STARTCHAR cyr-er
ENCODING 240
SWIDTH 500 0
DWIDTH 8 0
BBX 8 16 0 -3
BITMAP
00
00
00
00
00
00
7E
33
33
33
33
33
3E
30
30
78
ENDCHAR
STARTCHAR cyr-es
ENCODING 241
SWIDTH 437 0
DWIDTH 7 0
BBX 7 16 0 -3
BITMAP
00
00
00
00
00
00
3C
66
60
60
60
66
3C
00
00
00
ENDCHAR
STARTCHAR cyr-te
ENCODING 242
SWIDTH 562 0
DWIDTH 9 0
BBX 9 16 0 -3
BITMAP
0000
0000
0000
0000
0000
0000
7F80
6D80
0C00
0C00
0C00
0C00
1E00
0000
0000
0000
ENDCHAR
STARTCHAR cyr-u
ENCODING 243
SWIDTH 562 0
DWIDTH 9 0
BBX 9 16 0 -3
BITMAP
0000
0000
0000
0000
0000
0000
7F80
3300
3300
1E00
1E00
0C00
0C00
1800
7800
7000
ENDCHAR
STARTCHAR cyr-ef
ENCODING 244
SWIDTH 562 0
DWIDTH 9 0
BBX 9 16 0 -3
BITMAP
0000
0000
0000
0000
0000
0000
3F00
6D80
6D80
6D80
6D80
6D80
3F00
0C00
0C00
1E00
ENDCHAR
STARTCHAR cyr-kha
ENCODING 245
SWIDTH 562 0
DWIDTH 9 0
BBX 9 16 0 -3
BITMAP
0000
0000
0000
0000
0000
0000
7F80
3300
1E00
0C00
1E00
3300
7F80
0000
0000
0000
ENDCHAR
STARTCHAR cyr-tse
ENCODING 246
SWIDTH 562 0
DWIDTH 9 0
BBX 9 16 0 -3
BITMAP
0000
0000
0000
0000
0000
0000
7F80
3300
3300
3300
3300
3300
7F80
0180
0180
0000
ENDCHAR
STARTCHAR cyr-che
ENCODING 247
SWIDTH 562 0
DWIDTH 9 0
BBX 9 16 0 -3
BITMAP
0000
0000
0000
0000
0000
0000
7F80
3300
3300
1F00
0300
0300
0780
0000
0000
0000
ENDCHAR
STARTCHAR cyr-sha
ENCODING 248
SWIDTH 812 0
DWIDTH 13 0
BBX 13 16 0 -3
BITMAP
0000
0000
0000
0000
0000
0000
7FF8
3330
3330
3330
3330
3330
7FF8
0000
0000
0000
ENDCHAR
STARTCHAR cyr-shcha
ENCODING 249
SWIDTH 812 0
DWIDTH 13 0
BBX 13 16 0 -3
BITMAP
0000
0000
0000
0000
0000
0000
7FF8
3330
3330
3330
3330
3330
7FF8
0018
0018
0000
ENDCHAR
STARTCHAR cyr-ier
ENCODING 250
SWIDTH 562 0
DWIDTH 9 0
BBX 9 16 0 -3
BITMAP
0000
0000
0000
0000
0000
0000
7C00
7800
7F00
1980
1980
1980
3F00
0000
0000
0000
ENDCHAR
STARTCHAR cyr-iery
ENCODING 251
SWIDTH 687 0
DWIDTH 11 0
BBX 11 16 0 -3
BITMAP
0000
0000
0000
0000
0000
0000
79E0
30C0
3EC0
33C0
33C0
33C0
7FE0
0000
0000
0000
ENDCHAR
STARTCHAR cyr-ierik
ENCODING 252
SWIDTH 500 0
DWIDTH 8 0
BBX 8 16 0 -3
BITMAP
00
00
00
00
00
00
78
30
3E
33
33
33
7E
00
00
00
ENDCHAR
STARTCHAR cyr-e-rev
ENCODING 253
SWIDTH 437 0
DWIDTH 7 0
BBX 7 16 0 -3
BITMAP
00
00
00
00
00
00
3C
66
06
1E
06
66
3C
00
00
00
ENDCHAR
STARTCHAR cyr-yu
ENCODING 254
SWIDTH 687 0
DWIDTH 11 0
BBX 11 16 0 -3
BITMAP
0000
0000
0000
0000
0000
0000
7BC0
3660
3660
3E60
3660
3660
7BC0
0000
0000
0000
ENDCHAR
STARTCHAR cyr-ya
ENCODING 255
SWIDTH 562 0
DWIDTH 9 0
BBX 9 16 0 -3
BITMAP
0000
0000
0000
0000
0000
0000
1F80
3300
3300
1F00
1B00
3300
7780
0000
0000
0000
ENDCHAR
ENDFONT
