STARTFONT 2.1
COMMENT Copyright (C) 1990-1991 EWT Consulting
COMMENT Portions Copyright (C) 1994-1995 Cronyx Ltd.
COMMENT Modified by Serge Vakulenko, <vak@cronyx.ru>
COMMENT Encoding changed to CP1251 by Rabinovich Moisei, <moisei@cs.bgu.ac.il>,$
COMMENT This software may be used, modified, copied, distributed, and sold,
COMMENT in both source and binary form provided that the copyright
COMMENT and these terms are retained. Under no circumstances is the author
COMMENT responsible for the proper functioning of this software, nor does
COMMENT the author assume any responsibility for damages incurred with its use.
FONT -Cronyx-Helvetica-Bold-R-Normal--12-120-75-75-P-67-RAWIN-R
SIZE 12 96 96
FONTBOUNDINGBOX 17 20 0 -4
STARTPROPERTIES 19
DEFAULT_CHAR 32
FONT_ASCENT 16
FONT_DESCENT 4
SPACING "P"
FONTNAME_REGISTRY ""
FOUNDRY "Cronyx"
FAMILY_NAME "Helvetica"
WEIGHT_NAME "Bold"
SLANT "R"
SETWIDTH_NAME "Normal"
ADD_STYLE_NAME ""
AVERAGE_WIDTH 67
CHARSET_REGISTRY "RAWIN"
CHARSET_ENCODING "R"
PIXEL_SIZE 12
POINT_SIZE 120
RESOLUTION_X 75
RESOLUTION_Y 75
COPYRIGHT "Copyright (C) 1990, 1991 EWT Consulting, Portions Copyright (C) 1994 Cronyx Ltd."
ENDPROPERTIES
CHARS 224
STARTCHAR space
ENCODING 32
SWIDTH 250 0
DWIDTH 5 0
BBX 5 20 0 -4
BITMAP
00
00
00
00
00
00
00
00
00
00
00
00
00
00
00
00
00
00
00
00
ENDCHAR
STARTCHAR exclam
ENCODING 33
SWIDTH 250 0
DWIDTH 5 0
BBX 5 20 0 -4
BITMAP
00
00
00
00
30
30
30
30
30
30
30
30
30
00
00
30
00
00
00
00
ENDCHAR
STARTCHAR quotedbl
ENCODING 34
SWIDTH 350 0
DWIDTH 7 0
BBX 7 20 0 -4
BITMAP
00
00
00
00
6C
6C
6C
6C
00
00
00
00
00
00
00
00
00
00
00
00
ENDCHAR
STARTCHAR numbersign
ENCODING 35
SWIDTH 500 0
DWIDTH 10 0
BBX 10 20 0 -4
BITMAP
0000
0000
0000
0000
1B00
1B00
1B00
7F80
3600
3600
3600
3600
FF00
6C00
6C00
6C00
0000
0000
0000
0000
ENDCHAR
STARTCHAR dollar
ENCODING 36
SWIDTH 500 0
DWIDTH 10 0
BBX 10 20 0 -4
BITMAP
0000
0000
0000
0C00
1E00
3F00
6D80
6C00
3C00
1E00
0F00
0D80
0D80
6D80
3F00
1E00
0C00
0000
0000
0000
ENDCHAR
STARTCHAR percent
ENCODING 37
SWIDTH 750 0
DWIDTH 15 0
BBX 15 20 0 -4
BITMAP
0000
0000
0000
0000
3C0C
6618
6630
6660
3CC0
0180
0300
0678
0CCC
18CC
30CC
6078
0000
0000
0000
0000
ENDCHAR
STARTCHAR ampersand
ENCODING 38
SWIDTH 600 0
DWIDTH 12 0
BBX 12 20 0 -4
BITMAP
0000
0000
0000
0000
1C00
3600
3600
3600
1C00
1C00
3600
6360
61E0
60C0
31E0
1F30
0000
0000
0000
0000
ENDCHAR
STARTCHAR quoteright
ENCODING 39
SWIDTH 200 0
DWIDTH 4 0
BBX 4 20 0 -4
BITMAP
00
00
00
00
60
60
60
60
00
00
00
00
00
00
00
00
00
00
00
00
ENDCHAR
STARTCHAR parenleft
ENCODING 40
SWIDTH 300 0
DWIDTH 6 0
BBX 6 20 0 -4
BITMAP
00
00
00
18
30
30
30
60
60
60
60
60
60
60
60
30
30
30
18
00
ENDCHAR
STARTCHAR parenright
ENCODING 41
SWIDTH 300 0
DWIDTH 6 0
BBX 6 20 0 -4
BITMAP
00
00
00
60
30
30
30
18
18
18
18
18
18
18
18
30
30
30
60
00
ENDCHAR
STARTCHAR asterisk
ENCODING 42
SWIDTH 350 0
DWIDTH 7 0
BBX 7 20 0 -4
BITMAP
00
00
00
18
7E
3C
3C
66
00
00
00
00
00
00
00
00
00
00
00
00
ENDCHAR
STARTCHAR plus
ENCODING 43
SWIDTH 500 0
DWIDTH 10 0
BBX 10 20 0 -4
BITMAP
0000
0000
0000
0000
0000
0000
0000
0C00
0C00
0C00
7F80
0C00
0C00
0C00
0000
0000
0000
0000
0000
0000
ENDCHAR
STARTCHAR comma
ENCODING 44
SWIDTH 250 0
DWIDTH 5 0
BBX 5 20 0 -4
BITMAP
00
00
00
00
00
00
00
00
00
00
00
00
00
00
00
30
60
00
00
00
ENDCHAR
STARTCHAR minus
ENCODING 45
SWIDTH 300 0
DWIDTH 6 0
BBX 6 20 0 -4
BITMAP
00
00
00
00
00
00
00
00
00
00
FC
00
00
00
00
00
00
00
00
00
ENDCHAR
STARTCHAR period
ENCODING 46
SWIDTH 250 0
DWIDTH 5 0
BBX 5 20 0 -4
BITMAP
00
00
00
00
00
00
00
00
00
00
00
00
00
00
00
30
00
00
00
00
ENDCHAR
STARTCHAR slash
ENCODING 47
SWIDTH 250 0
DWIDTH 5 0
BBX 5 20 0 -4
BITMAP
00
00
00
00
18
18
18
18
30
30
30
30
60
60
60
60
80
00
00
00
ENDCHAR
STARTCHAR zero
ENCODING 48
SWIDTH 500 0
DWIDTH 10 0
BBX 10 20 0 -4
BITMAP
0000
0000
0000
0000
1E00
3300
3300
6180
6180
6180
6180
6180
6180
3300
3300
1E00
0000
0000
0000
0000
ENDCHAR
STARTCHAR one
ENCODING 49
SWIDTH 500 0
DWIDTH 10 0
BBX 10 20 0 -4
BITMAP
0000
0000
0000
0000
0C00
3C00
0C00
0C00
0C00
0C00
0C00
0C00
0C00
0C00
0C00
0C00
0000
0000
0000
0000
ENDCHAR
STARTCHAR two
ENCODING 50
SWIDTH 500 0
DWIDTH 10 0
BBX 10 20 0 -4
BITMAP
0000
0000
0000
0000
1E00
3300
6180
6180
0180
0300
0600
0C00
1800
3000
6000
7F80
0000
0000
0000
0000
ENDCHAR
STARTCHAR three
ENCODING 51
SWIDTH 500 0
DWIDTH 10 0
BBX 10 20 0 -4
BITMAP
0000
0000
0000
0000
1E00
3300
6180
6180
0300
1E00
0300
0180
6180
6180
3300
1E00
0000
0000
0000
0000
ENDCHAR
STARTCHAR four
ENCODING 52
SWIDTH 500 0
DWIDTH 10 0
BBX 10 20 0 -4
BITMAP
0000
0000
0000
0000
0300
0700
0700
0F00
1B00
1B00
3300
6300
7F80
0300
0300
0300
0000
0000
0000
0000
ENDCHAR
STARTCHAR five
ENCODING 53
SWIDTH 500 0
DWIDTH 10 0
BBX 10 20 0 -4
BITMAP
0000
0000
0000
0000
7F80
6000
6000
6000
7E00
7300
6180
0180
6180
6180
3300
1E00
0000
0000
0000
0000
ENDCHAR
STARTCHAR six
ENCODING 54
SWIDTH 500 0
DWIDTH 10 0
BBX 10 20 0 -4
BITMAP
0000
0000
0000
0000
1E00
3300
6180
6000
7E00
7300
6180
6180
6180
6180
3300
1E00
0000
0000
0000
0000
ENDCHAR
STARTCHAR seven
ENCODING 55
SWIDTH 500 0
DWIDTH 10 0
BBX 10 20 0 -4
BITMAP
0000
0000
0000
0000
7F80
0180
0180
0300
0300
0600
0600
0600
0C00
0C00
0C00
0C00
0000
0000
0000
0000
ENDCHAR
STARTCHAR eight
ENCODING 56
SWIDTH 500 0
DWIDTH 10 0
BBX 10 20 0 -4
BITMAP
0000
0000
0000
0000
1E00
3300
6180
6180
3300
1E00
3300
6180
6180
6180
3300
1E00
0000
0000
0000
0000
ENDCHAR
STARTCHAR nine
ENCODING 57
SWIDTH 500 0
DWIDTH 10 0
BBX 10 20 0 -4
BITMAP
0000
0000
0000
0000
1E00
3300
6180
6180
6180
6180
3380
1F80
0180
6180
3300
1E00
0000
0000
0000
0000
ENDCHAR
STARTCHAR colon
ENCODING 58
SWIDTH 250 0
DWIDTH 5 0
BBX 5 20 0 -4
BITMAP
00
00
00
00
00
00
00
30
00
00
00
00
00
00
00
30
00
00
00
00
ENDCHAR
STARTCHAR semicolon
ENCODING 59
SWIDTH 250 0
DWIDTH 5 0
BBX 5 20 0 -4
BITMAP
00
00
00
00
00
00
00
30
00
00
00
00
00
00
00
30
60
00
00
00
ENDCHAR
STARTCHAR less
ENCODING 60
SWIDTH 500 0
DWIDTH 10 0
BBX 10 20 0 -4
BITMAP
0000
0000
0000
0000
0000
0000
0000
0380
0E00
3800
6000
3800
0E00
0380
0000
0000
0000
0000
0000
0000
ENDCHAR
STARTCHAR equal
ENCODING 61
SWIDTH 500 0
DWIDTH 10 0
BBX 10 20 0 -4
BITMAP
0000
0000
0000
0000
0000
0000
0000
0000
7F80
0000
0000
7F80
0000
0000
0000
0000
0000
0000
0000
0000
ENDCHAR
STARTCHAR greater
ENCODING 62
SWIDTH 500 0
DWIDTH 10 0
BBX 10 20 0 -4
BITMAP
0000
0000
0000
0000
0000
0000
0000
7000
1C00
0700
0180
0700
1C00
7000
0000
0000
0000
0000
0000
0000
ENDCHAR
STARTCHAR question
ENCODING 63
SWIDTH 500 0
DWIDTH 10 0
BBX 10 20 0 -4
BITMAP
0000
0000
0000
0000
1E00
3300
6180
6180
0180
0300
0600
0C00
0C00
0000
0000
0C00
0000
0000
0000
0000
ENDCHAR
STARTCHAR at
ENCODING 64
SWIDTH 850 0
DWIDTH 17 0
BBX 17 20 0 -4
BITMAP
000000
000000
000000
000000
03F800
0E0C00
180600
31E300
333300
663300
663300
667600
63FC00
300000
1C1C00
07F000
000000
000000
000000
000000
ENDCHAR
STARTCHAR A
ENCODING 65
SWIDTH 600 0
DWIDTH 12 0
BBX 12 20 0 -4
BITMAP
0000
0000
0000
0000
0600
0600
0F00
0F00
1980
1980
30C0
30C0
7FE0
6060
8030
8030
0000
0000
0000
0000
ENDCHAR
STARTCHAR B
ENCODING 66
SWIDTH 600 0
DWIDTH 12 0
BBX 12 20 0 -4
BITMAP
0000
0000
0000
0000
3F80
30C0
3060
3060
30C0
3F80
30C0
3060
3060
3060
30C0
3F80
0000
0000
0000
0000
ENDCHAR
STARTCHAR C
ENCODING 67
SWIDTH 600 0
DWIDTH 12 0
BBX 12 20 0 -4
BITMAP
0000
0000
0000
0000
0F80
38E0
3060
6030
6000
6000
6000
6000
6030
3060
38E0
0F80
0000
0000
0000
0000
ENDCHAR
STARTCHAR D
ENCODING 68
SWIDTH 650 0
DWIDTH 13 0
BBX 13 20 0 -4
BITMAP
0000
0000
0000
0000
3F80
30E0
3060
3030
3030
3030
3030
3030
3030
3060
30E0
3F80
0000
0000
0000
0000
ENDCHAR
STARTCHAR E
ENCODING 69
SWIDTH 600 0
DWIDTH 12 0
BBX 12 20 0 -4
BITMAP
0000
0000
0000
0000
3FE0
3000
3000
3000
3000
3FC0
3000
3000
3000
3000
3000
3FE0
0000
0000
0000
0000
ENDCHAR
STARTCHAR F
ENCODING 70
SWIDTH 550 0
DWIDTH 11 0
BBX 11 20 0 -4
BITMAP
0000
0000
0000
0000
3FE0
3000
3000
3000
3000
3FC0
3000
3000
3000
3000
3000
3000
0000
0000
0000
0000
ENDCHAR
STARTCHAR G
ENCODING 71
SWIDTH 700 0
DWIDTH 14 0
BBX 14 20 0 -4
BITMAP
0000
0000
0000
0000
0F80
38E0
3060
6030
6000
6000
63F0
6030
6030
3070
38F0
0FB0
0000
0000
0000
0000
ENDCHAR
STARTCHAR H
ENCODING 72
SWIDTH 650 0
DWIDTH 13 0
BBX 13 20 0 -4
BITMAP
0000
0000
0000
0000
3060
3060
3060
3060
3060
3FE0
3060
3060
3060
3060
3060
3060
0000
0000
0000
0000
ENDCHAR
STARTCHAR I
ENCODING 73
SWIDTH 300 0
DWIDTH 6 0
BBX 6 20 0 -4
BITMAP
00
00
00
00
30
30
30
30
30
30
30
30
30
30
30
30
00
00
00
00
ENDCHAR
STARTCHAR J
ENCODING 74
SWIDTH 450 0
DWIDTH 9 0
BBX 9 20 0 -4
BITMAP
0000
0000
0000
0000
0600
0600
0600
0600
0600
0600
0600
0600
8600
8600
8600
7C00
0000
0000
0000
0000
ENDCHAR
STARTCHAR K
ENCODING 75
SWIDTH 550 0
DWIDTH 11 0
BBX 11 20 0 -4
BITMAP
0000
0000
0000
0000
30C0
3180
3300
3600
3C00
3800
3C00
3600
3300
3180
30C0
3060
0000
0000
0000
0000
ENDCHAR
STARTCHAR L
ENCODING 76
SWIDTH 500 0
DWIDTH 10 0
BBX 10 20 0 -4
BITMAP
0000
0000
0000
0000
3000
3000
3000
3000
3000
3000
3000
3000
3000
3000
3000
3FC0
0000
0000
0000
0000
ENDCHAR
STARTCHAR M
ENCODING 77
SWIDTH 700 0
DWIDTH 14 0
BBX 14 20 0 -4
BITMAP
0000
0000
0000
0000
3030
3030
3870
3870
3CF0
3CF0
37B0
37B0
3330
3330
3030
3030
0000
0000
0000
0000
ENDCHAR
STARTCHAR N
ENCODING 78
SWIDTH 600 0
DWIDTH 12 0
BBX 12 20 0 -4
BITMAP
0000
0000
0000
0000
30C0
38C0
38C0
3CC0
3CC0
36C0
36C0
33C0
33C0
31C0
31C0
30C0
0000
0000
0000
0000
ENDCHAR
STARTCHAR O
ENCODING 79
SWIDTH 650 0
DWIDTH 13 0
BBX 13 20 0 -4
BITMAP
0000
0000
0000
0000
0F80
38E0
3060
6030
6030
6030
6030
6030
6030
3060
38E0
0F80
0000
0000
0000
0000
ENDCHAR
STARTCHAR P
ENCODING 80
SWIDTH 550 0
DWIDTH 11 0
BBX 11 20 0 -4
BITMAP
0000
0000
0000
0000
3F80
30C0
3060
3060
3060
30C0
3F80
3000
3000
3000
3000
3000
0000
0000
0000
0000
ENDCHAR
STARTCHAR Q
ENCODING 81
SWIDTH 650 0
DWIDTH 13 0
BBX 13 20 0 -4
BITMAP
0000
0000
0000
0000
0F80
38E0
3060
6030
6030
6030
6030
6030
6330
31E0
38E0
0FE0
0030
0000
0000
0000
ENDCHAR
STARTCHAR R
ENCODING 82
SWIDTH 650 0
DWIDTH 13 0
BBX 13 20 0 -4
BITMAP
0000
0000
0000
0000
3F80
30C0
3060
3060
3060
30C0
3F80
30C0
3060
3060
3060
3030
0000
0000
0000
0000
ENDCHAR
STARTCHAR S
ENCODING 83
SWIDTH 600 0
DWIDTH 12 0
BBX 12 20 0 -4
BITMAP
0000
0000
0000
0000
1F80
30C0
6060
6000
3000
1F80
00C0
0060
0060
6060
30C0
1F80
0000
0000
0000
0000
ENDCHAR
STARTCHAR T
ENCODING 84
SWIDTH 500 0
DWIDTH 10 0
BBX 10 20 0 -4
BITMAP
0000
0000
0000
0000
FFC0
0C00
0C00
0C00
0C00
0C00
0C00
0C00
0C00
0C00
0C00
0C00
0000
0000
0000
0000
ENDCHAR
STARTCHAR U
ENCODING 85
SWIDTH 650 0
DWIDTH 13 0
BBX 13 20 0 -4
BITMAP
0000
0000
0000
0000
3060
3060
3060
3060
3060
3060
3060
3060
3060
3060
18C0
0F80
0000
0000
0000
0000
ENDCHAR
STARTCHAR V
ENCODING 86
SWIDTH 600 0
DWIDTH 12 0
BBX 12 20 0 -4
BITMAP
0000
0000
0000
0000
8030
8030
6060
6060
30C0
30C0
1980
1980
0F00
0F00
0600
0600
0000
0000
0000
0000
ENDCHAR
STARTCHAR W
ENCODING 87
SWIDTH 800 0
DWIDTH 16 0
BBX 16 20 0 -4
BITMAP
0000
0000
0000
0000
8003
8183
6186
6186
63C6
33CC
33CC
1E78
1E78
0C30
0C30
0C30
0000
0000
0000
0000
ENDCHAR
STARTCHAR X
ENCODING 88
SWIDTH 600 0
DWIDTH 12 0
BBX 12 20 0 -4
BITMAP
0000
0000
0000
0000
8030
6060
30C0
1980
0F00
0600
0600
0F00
1980
30C0
6060
8030
0000
0000
0000
0000
ENDCHAR
STARTCHAR Y
ENCODING 89
SWIDTH 600 0
DWIDTH 12 0
BBX 12 20 0 -4
BITMAP
0000
0000
0000
0000
8030
6060
30C0
1980
0F00
0600
0600
0600
0600
0600
0600
0600
0000
0000
0000
0000
ENDCHAR
STARTCHAR Z
ENCODING 90
SWIDTH 550 0
DWIDTH 11 0
BBX 11 20 0 -4
BITMAP
0000
0000
0000
0000
7FE0
0060
00C0
0180
0300
0600
0C00
1800
3000
6000
8000
FFC0
0000
0000
0000
0000
ENDCHAR
STARTCHAR bracketleft
ENCODING 91
SWIDTH 250 0
DWIDTH 5 0
BBX 5 20 0 -4
BITMAP
00
00
00
00
70
60
60
60
60
60
60
60
60
60
60
60
60
60
70
00
ENDCHAR
STARTCHAR backslash
ENCODING 92
SWIDTH 250 0
DWIDTH 5 0
BBX 5 20 0 -4
BITMAP
00
00
00
00
80
80
80
80
60
60
60
60
30
30
30
30
18
00
00
00
ENDCHAR
STARTCHAR bracketright
ENCODING 93
SWIDTH 250 0
DWIDTH 5 0
BBX 5 20 0 -4
BITMAP
00
00
00
00
70
30
30
30
30
30
30
30
30
30
30
30
30
30
70
00
ENDCHAR
STARTCHAR asciicircum
ENCODING 94
SWIDTH 400 0
DWIDTH 8 0
BBX 8 20 0 -4
BITMAP
00
00
00
18
3C
66
00
00
00
00
00
00
00
00
00
00
00
00
00
00
ENDCHAR
STARTCHAR underscore
ENCODING 95
SWIDTH 500 0
DWIDTH 10 0
BBX 10 20 0 -4
BITMAP
0000
0000
0000
0000
0000
0000
0000
0000
0000
0000
0000
0000
0000
0000
0000
0000
0000
FFC0
0000
0000
ENDCHAR
STARTCHAR quoteleft
ENCODING 96
SWIDTH 300 0
DWIDTH 6 0
BBX 6 20 0 -4
BITMAP
00
00
00
60
30
18
00
00
00
00
00
00
00
00
00
00
00
00
00
00
ENDCHAR
STARTCHAR a
ENCODING 97
SWIDTH 500 0
DWIDTH 10 0
BBX 10 20 0 -4
BITMAP
0000
0000
0000
0000
0000
0000
0000
3F00
6180
0180
0180
3F80
6180
6180
6180
3FC0
0000
0000
0000
0000
ENDCHAR
STARTCHAR b
ENCODING 98
SWIDTH 500 0
DWIDTH 10 0
BBX 10 20 0 -4
BITMAP
0000
0000
0000
0000
6000
6000
6000
7E00
7300
6180
6180
6180
6180
6180
7300
7E00
0000
0000
0000
0000
ENDCHAR
STARTCHAR c
ENCODING 99
SWIDTH 450 0
DWIDTH 9 0
BBX 9 20 0 -4
BITMAP
0000
0000
0000
0000
0000
0000
0000
1E00
3300
6180
6000
6000
6000
6180
3300
1E00
0000
0000
0000
0000
ENDCHAR
STARTCHAR d
ENCODING 100
SWIDTH 500 0
DWIDTH 10 0
BBX 10 20 0 -4
BITMAP
0000
0000
0000
0000
0180
0180
0180
1F80
3380
6180
6180
6180
6180
6180
3380
1F80
0000
0000
0000
0000
ENDCHAR
STARTCHAR e
ENCODING 101
SWIDTH 500 0
DWIDTH 10 0
BBX 10 20 0 -4
BITMAP
0000
0000
0000
0000
0000
0000
0000
1E00
3300
6180
6180
7F80
6000
6180
3300
1E00
0000
0000
0000
0000
ENDCHAR
STARTCHAR f
ENCODING 102
SWIDTH 300 0
DWIDTH 6 0
BBX 6 20 0 -4
BITMAP
00
00
00
00
1C
30
30
FC
30
30
30
30
30
30
30
30
00
00
00
00
ENDCHAR
STARTCHAR g
ENCODING 103
SWIDTH 500 0
DWIDTH 10 0
BBX 10 20 0 -4
BITMAP
0000
0000
0000
0000
0000
0000
0000
1F80
3380
6180
6180
6180
6180
6180
3380
1F80
0180
0180
0300
3E00
ENDCHAR
STARTCHAR h
ENCODING 104
SWIDTH 500 0
DWIDTH 10 0
BBX 10 20 0 -4
BITMAP
0000
0000
0000
0000
6000
6000
6000
7E00
7300
6180
6180
6180
6180
6180
6180
6180
0000
0000
0000
0000
ENDCHAR
STARTCHAR i
ENCODING 105
SWIDTH 200 0
DWIDTH 4 0
BBX 4 20 0 -4
BITMAP
00
00
00
00
60
00
00
60
60
60
60
60
60
60
60
60
00
00
00
00
ENDCHAR
STARTCHAR j
ENCODING 106
SWIDTH 200 0
DWIDTH 4 0
BBX 4 20 0 -4
BITMAP
00
00
00
00
60
00
00
60
60
60
60
60
60
60
60
60
60
60
60
80
ENDCHAR
STARTCHAR k
ENCODING 107
SWIDTH 450 0
DWIDTH 9 0
BBX 9 20 0 -4
BITMAP
0000
0000
0000
0000
6000
6000
6000
6300
6600
6C00
7800
7800
6C00
6600
6300
6180
0000
0000
0000
0000
ENDCHAR
STARTCHAR l
ENCODING 108
SWIDTH 200 0
DWIDTH 4 0
BBX 4 20 0 -4
BITMAP
00
00
00
00
60
60
60
60
60
60
60
60
60
60
60
60
00
00
00
00
ENDCHAR
STARTCHAR m
ENCODING 109
SWIDTH 700 0
DWIDTH 14 0
BBX 14 20 0 -4
BITMAP
0000
0000
0000
0000
0000
0000
0000
7CE0
77B0
6318
6318
6318
6318
6318
6318
6318
0000
0000
0000
0000
ENDCHAR
STARTCHAR n
ENCODING 110
SWIDTH 500 0
DWIDTH 10 0
BBX 10 20 0 -4
BITMAP
0000
0000
0000
0000
0000
0000
0000
7E00
7300
6180
6180
6180
6180
6180
6180
6180
0000
0000
0000
0000
ENDCHAR
STARTCHAR o
ENCODING 111
SWIDTH 500 0
DWIDTH 10 0
BBX 10 20 0 -4
BITMAP
0000
0000
0000
0000
0000
0000
0000
1E00
3300
6180
6180
6180
6180
6180
3300
1E00
0000
0000
0000
0000
ENDCHAR
STARTCHAR p
ENCODING 112
SWIDTH 500 0
DWIDTH 10 0
BBX 10 20 0 -4
BITMAP
0000
0000
0000
0000
0000
0000
0000
7E00
7300
6180
6180
6180
6180
6180
7300
7E00
6000
6000
6000
6000
ENDCHAR
STARTCHAR q
ENCODING 113
SWIDTH 500 0
DWIDTH 10 0
BBX 10 20 0 -4
BITMAP
0000
0000
0000
0000
0000
0000
0000
1F80
3380
6180
6180
6180
6180
6180
3380
1F80
0180
0180
0180
0180
ENDCHAR
STARTCHAR r
ENCODING 114
SWIDTH 300 0
DWIDTH 6 0
BBX 6 20 0 -4
BITMAP
00
00
00
00
00
00
00
7C
70
60
60
60
60
60
60
60
00
00
00
00
ENDCHAR
STARTCHAR s
ENCODING 115
SWIDTH 450 0
DWIDTH 9 0
BBX 9 20 0 -4
BITMAP
0000
0000
0000
0000
0000
0000
0000
3E00
6300
6000
6000
3E00
0300
0300
6300
3E00
0000
0000
0000
0000
ENDCHAR
STARTCHAR t
ENCODING 116
SWIDTH 300 0
DWIDTH 6 0
BBX 6 20 0 -4
BITMAP
00
00
00
00
30
30
30
FC
30
30
30
30
30
30
30
18
00
00
00
00
ENDCHAR
STARTCHAR u
ENCODING 117
SWIDTH 500 0
DWIDTH 10 0
BBX 10 20 0 -4
BITMAP
0000
0000
0000
0000
0000
0000
0000
6180
6180
6180
6180
6180
6180
6180
3380
1F80
0000
0000
0000
0000
ENDCHAR
STARTCHAR v
ENCODING 118
SWIDTH 400 0
DWIDTH 8 0
BBX 8 20 0 -4
BITMAP
00
00
00
00
00
00
00
83
83
66
66
3C
3C
18
18
18
00
00
00
00
ENDCHAR
STARTCHAR w
ENCODING 119
SWIDTH 600 0
DWIDTH 12 0
BBX 12 20 0 -4
BITMAP
0000
0000
0000
0000
0000
0000
0000
8030
8630
6660
6660
3FC0
3FC0
1980
1980
1980
0000
0000
0000
0000
ENDCHAR
STARTCHAR x
ENCODING 120
SWIDTH 400 0
DWIDTH 8 0
BBX 8 20 0 -4
BITMAP
00
00
00
00
00
00
00
83
66
66
3C
18
3C
66
66
83
00
00
00
00
ENDCHAR
STARTCHAR y
ENCODING 121
SWIDTH 400 0
DWIDTH 8 0
BBX 8 20 0 -4
BITMAP
00
00
00
00
00
00
00
83
83
66
66
3C
3C
18
18
30
30
60
60
80
ENDCHAR
STARTCHAR z
ENCODING 122
SWIDTH 450 0
DWIDTH 9 0
BBX 9 20 0 -4
BITMAP
0000
0000
0000
0000
0000
0000
0000
7F00
0300
0600
0C00
1800
1800
3000
6000
7F00
0000
0000
0000
0000
ENDCHAR
STARTCHAR braceleft
ENCODING 123
SWIDTH 300 0
DWIDTH 6 0
BBX 6 20 0 -4
BITMAP
00
00
00
00
18
30
30
30
30
30
30
60
30
30
30
30
30
30
18
00
ENDCHAR
STARTCHAR bar
ENCODING 124
SWIDTH 300 0
DWIDTH 6 0
BBX 6 20 0 -4
BITMAP
00
00
00
00
30
30
30
30
30
30
30
30
30
30
30
30
30
00
00
00
ENDCHAR
STARTCHAR braceright
ENCODING 125
SWIDTH 300 0
DWIDTH 6 0
BBX 6 20 0 -4
BITMAP
00
00
00
00
60
30
30
30
30
30
30
18
30
30
30
30
30
30
60
00
ENDCHAR
STARTCHAR asciitilde
ENCODING 126
SWIDTH 500 0
DWIDTH 10 0
BBX 10 20 0 -4
BITMAP
0000
0000
0000
3980
6D80
6700
0000
0000
0000
0000
0000
0000
0000
0000
0000
0000
0000
0000
0000
0000
ENDCHAR
STARTCHAR C177
ENCODING -1
SWIDTH 300 0
DWIDTH 6 0
BBX 6 20 0 -4
BITMAP
00
00
00
00
78
78
78
78
78
78
78
78
78
78
78
78
00
00
00
00
ENDCHAR
STARTCHAR C200
ENCODING -1
SWIDTH 300 0
DWIDTH 6 0
BBX 6 20 0 -4
BITMAP
00
00
00
00
78
78
78
78
78
78
78
78
78
78
78
78
00
00
00
00
ENDCHAR
STARTCHAR C201
ENCODING -1
SWIDTH 300 0
DWIDTH 6 0
BBX 6 20 0 -4
BITMAP
00
00
00
00
78
78
78
78
78
78
78
78
78
78
78
78
00
00
00
00
ENDCHAR
STARTCHAR C202
ENCODING -1
SWIDTH 300 0
DWIDTH 6 0
BBX 6 20 0 -4
BITMAP
00
00
00
00
78
78
78
78
78
78
78
78
78
78
78
78
00
00
00
00
ENDCHAR
STARTCHAR C203
ENCODING -1
SWIDTH 300 0
DWIDTH 6 0
BBX 6 20 0 -4
BITMAP
00
00
00
00
78
78
78
78
78
78
78
78
78
78
78
78
00
00
00
00
ENDCHAR
STARTCHAR C204
ENCODING -1
SWIDTH 300 0
DWIDTH 6 0
BBX 6 20 0 -4
BITMAP
00
00
00
00
78
78
78
78
78
78
78
78
78
78
78
78
00
00
00
00
ENDCHAR
STARTCHAR C205
ENCODING -1
SWIDTH 300 0
DWIDTH 6 0
BBX 6 20 0 -4
BITMAP
00
00
00
00
78
78
78
78
78
78
78
78
78
78
78
78
00
00
00
00
ENDCHAR
STARTCHAR C206
ENCODING -1
SWIDTH 300 0
DWIDTH 6 0
BBX 6 20 0 -4
BITMAP
00
00
00
00
78
78
78
78
78
78
78
78
78
78
78
78
00
00
00
00
ENDCHAR
STARTCHAR C207
ENCODING -1
SWIDTH 300 0
DWIDTH 6 0
BBX 6 20 0 -4
BITMAP
00
00
00
00
78
78
78
78
78
78
78
78
78
78
78
78
00
00
00
00
ENDCHAR
STARTCHAR C210
ENCODING -1
SWIDTH 300 0
DWIDTH 6 0
BBX 6 20 0 -4
BITMAP
00
00
00
00
78
78
78
78
78
78
78
78
78
78
78
78
00
00
00
00
ENDCHAR
STARTCHAR C211
ENCODING -1
SWIDTH 300 0
DWIDTH 6 0
BBX 6 20 0 -4
BITMAP
00
00
00
00
78
78
78
78
78
78
78
78
78
78
78
78
00
00
00
00
ENDCHAR
STARTCHAR C212
ENCODING -1
SWIDTH 300 0
DWIDTH 6 0
BBX 6 20 0 -4
BITMAP
00
00
00
00
78
78
78
78
78
78
78
78
78
78
78
78
00
00
00
00
ENDCHAR
STARTCHAR C213
ENCODING -1
SWIDTH 300 0
DWIDTH 6 0
BBX 6 20 0 -4
BITMAP
00
00
00
00
78
78
78
78
78
78
78
78
78
78
78
78
00
00
00
00
ENDCHAR
STARTCHAR C214
ENCODING -1
SWIDTH 300 0
DWIDTH 6 0
BBX 6 20 0 -4
BITMAP
00
00
00
00
78
78
78
78
78
78
78
78
78
78
78
78
00
00
00
00
ENDCHAR
STARTCHAR C215
ENCODING -1
SWIDTH 300 0
DWIDTH 6 0
BBX 6 20 0 -4
BITMAP
00
00
00
00
78
78
78
78
78
78
78
78
78
78
78
78
00
00
00
00
ENDCHAR
STARTCHAR C216
ENCODING -1
SWIDTH 300 0
DWIDTH 6 0
BBX 6 20 0 -4
BITMAP
00
00
00
00
78
78
78
78
78
78
78
78
78
78
78
78
00
00
00
00
ENDCHAR
STARTCHAR C217
ENCODING -1
SWIDTH 300 0
DWIDTH 6 0
BBX 6 20 0 -4
BITMAP
00
00
00
00
78
78
78
78
78
78
78
78
78
78
78
78
00
00
00
00
ENDCHAR
STARTCHAR C220
ENCODING -1
SWIDTH 300 0
DWIDTH 6 0
BBX 6 20 0 -4
BITMAP
00
00
00
00
78
78
78
78
78
78
78
78
78
78
78
78
00
00
00
00
ENDCHAR
STARTCHAR C221
ENCODING -1
SWIDTH 250 0
DWIDTH 5 0
BBX 5 20 0 -4
BITMAP
00
00
00
00
30
60
00
00
00
00
00
00
00
00
00
00
00
00
00
00
ENDCHAR
STARTCHAR C222
ENCODING -1
SWIDTH 250 0
DWIDTH 5 0
BBX 5 20 0 -4
BITMAP
00
00
00
00
30
60
00
00
00
00
00
00
00
00
00
00
00
00
00
00
ENDCHAR
STARTCHAR C223
ENCODING -1
SWIDTH 300 0
DWIDTH 6 0
BBX 6 20 0 -4
BITMAP
00
00
00
00
78
78
78
78
78
78
78
78
78
78
78
78
00
00
00
00
ENDCHAR
STARTCHAR C224
ENCODING -1
SWIDTH 300 0
DWIDTH 6 0
BBX 6 20 0 -4
BITMAP
00
00
00
00
78
78
78
78
78
78
78
78
78
78
78
78
00
00
00
00
ENDCHAR
STARTCHAR C225
ENCODING -1
SWIDTH 300 0
DWIDTH 6 0
BBX 6 20 0 -4
BITMAP
00
00
00
00
78
78
78
78
78
78
78
78
78
78
78
78
00
00
00
00
ENDCHAR
STARTCHAR C226
ENCODING -1
SWIDTH 300 0
DWIDTH 6 0
BBX 6 20 0 -4
BITMAP
00
00
00
00
78
78
78
78
78
78
78
78
78
78
78
78
00
00
00
00
ENDCHAR
STARTCHAR C227
ENCODING -1
SWIDTH 300 0
DWIDTH 6 0
BBX 6 20 0 -4
BITMAP
00
00
00
00
78
78
78
78
78
78
78
78
78
78
78
78
00
00
00
00
ENDCHAR
STARTCHAR C230
ENCODING -1
SWIDTH 300 0
DWIDTH 6 0
BBX 6 20 0 -4
BITMAP
00
00
00
00
78
78
78
78
78
78
78
78
78
78
78
78
00
00
00
00
ENDCHAR
STARTCHAR C231
ENCODING -1
SWIDTH 300 0
DWIDTH 6 0
BBX 6 20 0 -4
BITMAP
00
00
00
00
78
78
78
78
78
78
78
78
78
78
78
78
00
00
00
00
ENDCHAR
STARTCHAR C232
ENCODING -1
SWIDTH 300 0
DWIDTH 6 0
BBX 6 20 0 -4
BITMAP
00
00
00
00
78
78
78
78
78
78
78
78
78
78
78
78
00
00
00
00
ENDCHAR
STARTCHAR C233
ENCODING -1
SWIDTH 300 0
DWIDTH 6 0
BBX 6 20 0 -4
BITMAP
00
00
00
00
78
78
78
78
78
78
78
78
78
78
78
78
00
00
00
00
ENDCHAR
STARTCHAR C234
ENCODING -1
SWIDTH 300 0
DWIDTH 6 0
BBX 6 20 0 -4
BITMAP
00
00
00
00
78
78
78
78
78
78
78
78
78
78
78
78
00
00
00
00
ENDCHAR
STARTCHAR C235
ENCODING -1
SWIDTH 300 0
DWIDTH 6 0
BBX 6 20 0 -4
BITMAP
00
00
00
00
78
78
78
78
78
78
78
78
78
78
78
78
00
00
00
00
ENDCHAR
STARTCHAR C236
ENCODING -1
SWIDTH 300 0
DWIDTH 6 0
BBX 6 20 0 -4
BITMAP
00
00
00
00
78
78
78
78
78
78
78
78
78
78
78
78
00
00
00
00
ENDCHAR
STARTCHAR C237
ENCODING -1
SWIDTH 300 0
DWIDTH 6 0
BBX 6 20 0 -4
BITMAP
00
00
00
00
78
78
78
78
78
78
78
78
78
78
78
78
00
00
00
00
ENDCHAR
STARTCHAR C240
ENCODING 160
SWIDTH 250 0
DWIDTH 5 0
BBX 5 20 0 -4
BITMAP
00
00
00
00
00
00
00
00
00
00
00
00
00
00
00
00
00
00
00
00
ENDCHAR
STARTCHAR exclamdown
ENCODING 161
SWIDTH 250 0
DWIDTH 5 0
BBX 5 20 0 -4
BITMAP
00
00
00
00
00
00
00
60
00
00
60
60
60
60
60
60
60
60
60
00
ENDCHAR
STARTCHAR cent
ENCODING 162
SWIDTH 500 0
DWIDTH 10 0
BBX 10 20 0 -4
BITMAP
0000
0000
0000
0000
0000
0000
0180
1F80
3300
6780
6600
6C00
7800
7980
3300
7E00
6000
0000
0000
0000
ENDCHAR
STARTCHAR sterling
ENCODING 184
SWIDTH 500 0
DWIDTH 10 0
BBX 10 20 0 -4
BITMAP
0000
0000
0000
0000
1E00
3300
3300
3000
1800
7F00
1800
1800
1800
3000
3000
7F80
0000
0000
0000
0000
ENDCHAR
STARTCHAR currency
ENCODING 164
SWIDTH 500 0
DWIDTH 10 0
BBX 10 20 0 -4
BITMAP
0000
0000
0000
0000
0000
6180
3F00
3300
3300
3300
3F00
6180
0000
0000
0000
0000
0000
0000
0000
0000
ENDCHAR
STARTCHAR yen
ENCODING 165
SWIDTH 500 0
DWIDTH 10 0
BBX 10 20 0 -4
BITMAP
0000
0000
0000
0000
80C0
80C0
6180
3300
FFC0
0C00
0C00
FFC0
0C00
0C00
0C00
0C00
0000
0000
0000
0000
ENDCHAR
STARTCHAR brokenbar
ENCODING 166
SWIDTH 300 0
DWIDTH 6 0
BBX 6 20 0 -4
BITMAP
00
00
00
00
30
30
30
30
30
30
00
00
30
30
30
30
30
30
00
00
ENDCHAR
STARTCHAR section
ENCODING 167
SWIDTH 500 0
DWIDTH 10 0
BBX 10 20 0 -4
BITMAP
0000
0000
0000
0000
1E00
3300
3000
3800
6C00
6600
3300
1980
0D80
0700
0300
3300
1E00
0000
0000
0000
ENDCHAR
STARTCHAR dieresis
ENCODING 168
SWIDTH 300 0
DWIDTH 6 0
BBX 6 20 0 -4
BITMAP
00
00
00
00
78
00
00
00
00
00
00
00
00
00
00
00
00
00
00
00
ENDCHAR
STARTCHAR copyright
ENCODING 169
SWIDTH 600 0
DWIDTH 12 0
BBX 12 20 0 -4
BITMAP
0000
0000
0000
0000
1F80
70E0
6060
8F30
99B0
9830
9830
99B0
8F30
6070
70E0
1F80
0000
0000
0000
0000
ENDCHAR
STARTCHAR ordfeminine
ENCODING 170
SWIDTH 350 0
DWIDTH 7 0
BBX 7 20 0 -4
BITMAP
00
00
00
00
38
0C
3C
6C
3C
00
7C
00
00
00
00
00
00
00
00
00
ENDCHAR
STARTCHAR guillemotleft
ENCODING 171
SWIDTH 500 0
DWIDTH 10 0
BBX 10 20 0 -4
BITMAP
0000
0000
0000
0000
0000
0000
0000
0000
0000
0000
1980
3300
6600
3300
1980
0000
0000
0000
0000
0000
ENDCHAR
STARTCHAR logicalnot
ENCODING 172
SWIDTH 500 0
DWIDTH 10 0
BBX 10 20 0 -4
BITMAP
0000
0000
0000
0000
0000
0000
0000
0000
0000
0000
7F80
0180
0180
0000
0000
0000
0000
0000
0000
0000
ENDCHAR
STARTCHAR hyphen
ENCODING 173
SWIDTH 300 0
DWIDTH 6 0
BBX 6 20 0 -4
BITMAP
00
00
00
00
00
00
00
00
00
00
00
FC
00
00
00
00
00
00
00
00
ENDCHAR
STARTCHAR registered
ENCODING 174
SWIDTH 600 0
DWIDTH 12 0
BBX 12 20 0 -4
BITMAP
0000
0000
0000
1F80
70E0
6060
9F30
99B0
99B0
9F30
9B30
99B0
6060
70E0
1F80
0000
0000
0000
0000
0000
ENDCHAR
STARTCHAR macron
ENCODING 175
SWIDTH 500 0
DWIDTH 10 0
BBX 10 20 0 -4
BITMAP
0000
0000
FFC0
0000
0000
0000
0000
0000
0000
0000
0000
0000
0000
0000
0000
0000
0000
0000
0000
0000
ENDCHAR
STARTCHAR degree
ENCODING 176
SWIDTH 300 0
DWIDTH 6 0
BBX 6 20 0 -4
BITMAP
00
00
00
00
38
6C
6C
38
00
00
00
00
00
00
00
00
00
00
00
00
ENDCHAR
STARTCHAR plusminus
ENCODING 177
SWIDTH 500 0
DWIDTH 10 0
BBX 10 20 0 -4
BITMAP
0000
0000
0000
0000
0000
0000
0000
0C00
0C00
0C00
7F80
0C00
0C00
0C00
0000
7F80
0000
0000
0000
0000
ENDCHAR
STARTCHAR twosuperior
ENCODING 178
SWIDTH 300 0
DWIDTH 6 0
BBX 6 20 0 -4
BITMAP
00
00
00
00
38
6C
0C
18
30
7C
00
00
00
00
00
00
00
00
00
00
ENDCHAR
STARTCHAR threesuperior
ENCODING 168
SWIDTH 300 0
DWIDTH 6 0
BBX 6 20 0 -4
BITMAP
00
00
00
00
38
6C
18
0C
6C
38
00
00
00
00
00
00
00
00
00
00
ENDCHAR
STARTCHAR acute
ENCODING 180
SWIDTH 300 0
DWIDTH 6 0
BBX 6 20 0 -4
BITMAP
00
00
00
18
30
60
00
00
00
00
00
00
00
00
00
00
00
00
00
00
ENDCHAR
STARTCHAR mu
ENCODING 181
SWIDTH 450 0
DWIDTH 9 0
BBX 9 20 0 -4
BITMAP
0000
0000
0000
0000
0000
0000
0000
6300
6300
6300
6300
6300
6300
6300
6300
7F80
6000
6000
6000
0000
ENDCHAR
STARTCHAR paragraph
ENCODING 182
SWIDTH 450 0
DWIDTH 9 0
BBX 9 20 0 -4
BITMAP
0000
0000
0000
0000
3F80
7F00
7F00
7F00
7F00
3F00
0F00
0F00
0F00
0F00
0F00
0F00
0F00
0000
0000
0000
ENDCHAR
STARTCHAR periodcentered
ENCODING 183
SWIDTH 250 0
DWIDTH 5 0
BBX 5 20 0 -4
BITMAP
00
00
00
00
00
00
00
00
00
30
00
00
00
00
00
00
00
00
00
00
ENDCHAR
STARTCHAR cedilla
ENCODING 184
SWIDTH 300 0
DWIDTH 6 0
BBX 6 20 0 -4
BITMAP
00
00
00
00
00
00
00
00
00
00
00
00
00
00
00
00
30
18
18
70
ENDCHAR
STARTCHAR onesuperior
ENCODING 185
SWIDTH 300 0
DWIDTH 6 0
BBX 6 20 0 -4
BITMAP
00
00
00
00
30
70
30
30
30
30
00
00
00
00
00
00
00
00
00
00
ENDCHAR
STARTCHAR ordmasculine
ENCODING 186
SWIDTH 350 0
DWIDTH 7 0
BBX 7 20 0 -4
BITMAP
00
00
00
00
38
6C
6C
6C
38
00
7C
00
00
00
00
00
00
00
00
00
ENDCHAR
STARTCHAR guillemotright
ENCODING 187
SWIDTH 500 0
DWIDTH 10 0
BBX 10 20 0 -4
BITMAP
0000
0000
0000
0000
0000
0000
0000
0000
0000
0000
6600
3300
1980
3300
6600
0000
0000
0000
0000
0000
ENDCHAR
STARTCHAR onequarter
ENCODING 188
SWIDTH 650 0
DWIDTH 13 0
BBX 13 20 0 -4
BITMAP
0000
0000
0000
0000
3018
7030
3060
30C0
3180
3300
0630
0C70
18F0
31B0
61F0
8030
0000
0000
0000
0000
ENDCHAR
STARTCHAR onehalf
ENCODING 189
SWIDTH 650 0
DWIDTH 13 0
BBX 13 20 0 -4
BITMAP
0000
0000
0000
0000
3018
7030
3060
30C0
3180
3300
06E0
0DB0
1830
3060
60C0
81F0
0000
0000
0000
0000
ENDCHAR
STARTCHAR threequarters
ENCODING 190
SWIDTH 650 0
DWIDTH 13 0
BBX 13 20 0 -4
BITMAP
0000
0000
0000
0000
3818
6C30
1860
0CC0
6D80
3B00
0630
0C70
18F0
31B0
61F0
8030
0000
0000
0000
0000
ENDCHAR
STARTCHAR questiondown
ENCODING 191
SWIDTH 500 0
DWIDTH 10 0
BBX 10 20 0 -4
BITMAP
0000
0000
0000
0000
0000
0000
0000
0C00
0000
0000
0C00
0C00
1800
3000
6000
6000
6180
3300
1E00
0000
ENDCHAR
STARTCHAR cyr-A
ENCODING 192
SWIDTH 600 0
DWIDTH 12 0
BBX 12 20 0 -4
BITMAP
0000
0000
0000
0000
0600
0600
0F00
0F00
1980
1980
30C0
30C0
7FE0
6060
8030
8030
0000
0000
0000
0000
ENDCHAR
STARTCHAR cyr-Be
ENCODING 193
SWIDTH 600 0
DWIDTH 12 0
BBX 12 20 0 -4
BITMAP
0000
0000
0000
0000
3FC0
3000
3000
3000
3000
3F80
30C0
3060
3060
3060
30C0
3F80
0000
0000
0000
0000
ENDCHAR
STARTCHAR cyr-Ve
ENCODING 194
SWIDTH 600 0
DWIDTH 12 0
BBX 12 20 0 -4
BITMAP
0000
0000
0000
0000
3F80
30C0
3060
3060
30C0
3F80
30C0
3060
3060
3060
30C0
3F80
0000
0000
0000
0000
ENDCHAR
STARTCHAR cyr-Ghe
ENCODING 195
SWIDTH 600 0
DWIDTH 12 0
BBX 12 20 0 -4
BITMAP
0000
0000
0000
0000
3FE0
3000
3000
3000
3000
3000
3000
3000
3000
3000
3000
3000
0000
0000
0000
0000
ENDCHAR
STARTCHAR cyr-De
ENCODING 196
SWIDTH 650 0
DWIDTH 13 0
BBX 13 20 0 -4
BITMAP
0000
0000
0000
0000
0FE0
0C60
0C60
0C60
0C60
0C60
0C60
0C60
0C60
0C60
1860
7FF0
6030
6030
0000
0000
ENDCHAR
STARTCHAR cyr-Ie
ENCODING 197
SWIDTH 600 0
DWIDTH 12 0
BBX 12 20 0 -4
BITMAP
0000
0000
0000
0000
3FE0
3000
3000
3000
3000
3FC0
3000
3000
3000
3000
3000
3FE0
0000
0000
0000
0000
ENDCHAR
STARTCHAR cyr-Zhe
ENCODING 198
SWIDTH 800 0
DWIDTH 16 0
BBX 16 20 0 -4
BITMAP
0000
0000
0000
0000
8183
6186
318C
1998
0DB0
07E0
07E0
0DB0
1998
318C
6186
8183
0000
0000
0000
0000
ENDCHAR
STARTCHAR cyr-Ze
ENCODING 199
SWIDTH 600 0
DWIDTH 12 0
BBX 12 20 0 -4
BITMAP
0000
0000
0000
0000
1FC0
3060
0060
0060
0060
0FC0
0060
0060
0060
0060
3060
1FC0
0000
0000
0000
0000
ENDCHAR
STARTCHAR cyr-I
ENCODING 200
SWIDTH 600 0
DWIDTH 12 0
BBX 12 20 0 -4
BITMAP
0000
0000
0000
0000
30C0
31C0
31C0
33C0
33C0
36C0
36C0
3CC0
3CC0
38C0
38C0
30C0
0000
0000
0000
0000
ENDCHAR
STARTCHAR cyr-I-short
ENCODING 201
SWIDTH 600 0
DWIDTH 12 0
BBX 12 20 0 -4
BITMAP
0000
0000
1980
0F00
30C0
31C0
31C0
33C0
33C0
36C0
36C0
3CC0
3CC0
38C0
38C0
30C0
0000
0000
0000
0000
ENDCHAR
STARTCHAR cyr-Ka
ENCODING 202
SWIDTH 550 0
DWIDTH 11 0
BBX 11 20 0 -4
BITMAP
0000
0000
0000
0000
30C0
3180
3300
3600
3C00
3800
3C00
3600
3300
3180
30C0
3060
0000
0000
0000
0000
ENDCHAR
STARTCHAR cyr-El
ENCODING 203
SWIDTH 550 0
DWIDTH 11 0
BBX 11 20 0 -4
BITMAP
0000
0000
0000
0000
1FC0
18C0
18C0
18C0
18C0
18C0
18C0
18C0
18C0
18C0
18C0
70C0
0000
0000
0000
0000
ENDCHAR
STARTCHAR cyr-Em
ENCODING 204
SWIDTH 700 0
DWIDTH 14 0
BBX 14 20 0 -4
BITMAP
0000
0000
0000
0000
3030
3030
3870
3870
3CF0
3CF0
37B0
37B0
3330
3330
3030
3030
0000
0000
0000
0000
ENDCHAR
STARTCHAR cyr-En
ENCODING 205
SWIDTH 650 0
DWIDTH 13 0
BBX 13 20 0 -4
BITMAP
0000
0000
0000
0000
3060
3060
3060
3060
3060
3FE0
3060
3060
3060
3060
3060
3060
0000
0000
0000
0000
ENDCHAR
STARTCHAR cyr-O
ENCODING 206
SWIDTH 650 0
DWIDTH 13 0
BBX 13 20 0 -4
BITMAP
0000
0000
0000
0000
0F80
38E0
3060
6030
6030
6030
6030
6030
6030
3060
38E0
0F80
0000
0000
0000
0000
ENDCHAR
STARTCHAR cyr-Pe
ENCODING 207
SWIDTH 650 0
DWIDTH 13 0
BBX 13 20 0 -4
BITMAP
0000
0000
0000
0000
3FE0
3060
3060
3060
3060
3060
3060
3060
3060
3060
3060
3060
0000
0000
0000
0000
ENDCHAR
STARTCHAR cyr-Er
ENCODING 208
SWIDTH 550 0
DWIDTH 11 0
BBX 11 20 0 -4
BITMAP
0000
0000
0000
0000
3F80
30C0
3060
3060
3060
30C0
3F80
3000
3000
3000
3000
3000
0000
0000
0000
0000
ENDCHAR
STARTCHAR cyr-Es
ENCODING 209
SWIDTH 600 0
DWIDTH 12 0
BBX 12 20 0 -4
BITMAP
0000
0000
0000
0000
0F80
38E0
3060
6030
6000
6000
6000
6000
6030
3060
38E0
0F80
0000
0000
0000
0000
ENDCHAR
STARTCHAR cyr-Te
ENCODING 210
SWIDTH 500 0
DWIDTH 10 0
BBX 10 20 0 -4
BITMAP
0000
0000
0000
0000
FFC0
0C00
0C00
0C00
0C00
0C00
0C00
0C00
0C00
0C00
0C00
0C00
0000
0000
0000
0000
ENDCHAR
STARTCHAR cyr-U
ENCODING 211
SWIDTH 600 0
DWIDTH 12 0
BBX 12 20 0 -4
BITMAP
0000
0000
0000
0000
6060
6060
30C0
30C0
1980
1980
0F00
0F00
0600
0600
0600
3C00
0000
0000
0000
0000
ENDCHAR
STARTCHAR cyr-Ef
ENCODING 212
SWIDTH 650 0
DWIDTH 13 0
BBX 13 20 0 -4
BITMAP
0000
0000
0000
0000
0FC0
3B70
3330
6318
6318
6318
6318
6318
3330
3B70
0FC0
0300
0000
0000
0000
0000
ENDCHAR
STARTCHAR cyr-Kha
ENCODING 213
SWIDTH 600 0
DWIDTH 12 0
BBX 12 20 0 -4
BITMAP
0000
0000
0000
0000
8030
6060
30C0
1980
0F00
0600
0600
0F00
1980
30C0
6060
8030
0000
0000
0000
0000
ENDCHAR
STARTCHAR cyr-Tse
ENCODING 214
SWIDTH 650 0
DWIDTH 13 0
BBX 13 20 0 -4
BITMAP
0000
0000
0000
0000
3060
3060
3060
3060
3060
3060
3060
3060
3060
3060
3060
3FF0
0030
0030
0000
0000
ENDCHAR
STARTCHAR cyr-Che
ENCODING 215
SWIDTH 650 0
DWIDTH 13 0
BBX 13 20 0 -4
BITMAP
0000
0000
0000
0000
3060
3060
3060
3060
3060
1FE0
0060
0060
0060
0060
0060
0060
0000
0000
0000
0000
ENDCHAR
STARTCHAR cyr-Sha
ENCODING 216
SWIDTH 800 0
DWIDTH 16 0
BBX 16 20 0 -4
BITMAP
0000
0000
0000
0000
6186
6186
6186
6186
6186
6186
6186
6186
6186
6186
6186
7FFE
0000
0000
0000
0000
ENDCHAR
STARTCHAR cyr-Shcha
ENCODING 217
SWIDTH 850 0
DWIDTH 17 0
BBX 17 20 0 -4
BITMAP
000000
000000
000000
000000
618600
618600
618600
618600
618600
618600
618600
618600
618600
618600
618600
7FFF00
000300
000300
000000
000000
ENDCHAR
STARTCHAR cyr-Ier
ENCODING 218
SWIDTH 650 0
DWIDTH 13 0
BBX 13 20 0 -4
BITMAP
0000
0000
0000
0000
7800
1800
1800
1800
1800
1FE0
1830
1818
1818
1818
1830
1FE0
0000
0000
0000
0000
ENDCHAR
STARTCHAR cyr-Iery
ENCODING 219
SWIDTH 750 0
DWIDTH 15 0
BBX 15 20 0 -4
BITMAP
0000
0000
0000
0000
300C
300C
300C
300C
300C
3FCC
306C
303C
303C
303C
306C
3FCC
0000
0000
0000
0000
ENDCHAR
STARTCHAR cyr-Ierik
ENCODING 220
SWIDTH 600 0
DWIDTH 12 0
BBX 12 20 0 -4
BITMAP
0000
0000
0000
0000
3000
3000
3000
3000
3000
3FC0
3060
3030
3030
3030
3060
3FC0
0000
0000
0000
0000
ENDCHAR
STARTCHAR cyr-E-rev
ENCODING 221
SWIDTH 650 0
DWIDTH 13 0
BBX 13 20 0 -4
BITMAP
0000
0000
0000
0000
1FC0
3060
6030
0030
0030
0FF0
0030
0030
0030
6030
3060
1FC0
0000
0000
0000
0000
ENDCHAR
STARTCHAR cyr-Yu
ENCODING 222
SWIDTH 700 0
DWIDTH 14 0
BBX 14 20 0 -4
BITMAP
0000
0000
0000
0000
63C0
6E70
6C30
7818
7818
7818
7818
7818
7818
6C30
6E70
63C0
0000
0000
0000
0000
ENDCHAR
STARTCHAR cyr-Ya
ENCODING 223
SWIDTH 600 0
DWIDTH 12 0
BBX 12 20 0 -4
BITMAP
0000
0000
0000
0000
1FC0
30C0
60C0
60C0
60C0
30C0
1FC0
06C0
0CC0
18C0
30C0
60C0
0000
0000
0000
0000
ENDCHAR
STARTCHAR cyr-a
ENCODING 224
SWIDTH 500 0
DWIDTH 10 0
BBX 10 20 0 -4
BITMAP
0000
0000
0000
0000
0000
0000
0000
3F00
6180
0180
0180
3F80
6180
6180
6180
3FC0
0000
0000
0000
0000
ENDCHAR
STARTCHAR cyr-be
ENCODING 225
SWIDTH 500 0
DWIDTH 10 0
BBX 10 20 0 -4
BITMAP
0000
0000
0000
0000
0180
1F00
3000
7E00
7300
6180
6180
6180
6180
6180
3300
1E00
0000
0000
0000
0000
ENDCHAR
STARTCHAR cyr-ve
ENCODING 226
SWIDTH 500 0
DWIDTH 10 0
BBX 10 20 0 -4
BITMAP
0000
0000
0000
0000
0000
0000
0000
7F00
6180
6180
6180
7F00
6180
6180
6180
7F00
0000
0000
0000
0000
ENDCHAR
STARTCHAR cyr-ghe
ENCODING 227
SWIDTH 500 0
DWIDTH 10 0
BBX 10 20 0 -4
BITMAP
0000
0000
0000
0000
0000
0000
0000
7F80
6000
6000
6000
6000
6000
6000
6000
6000
0000
0000
0000
0000
ENDCHAR
STARTCHAR cyr-de
ENCODING 228
SWIDTH 550 0
DWIDTH 11 0
BBX 11 20 0 -4
BITMAP
0000
0000
0000
0000
0000
0000
0000
1F80
1980
1980
1980
1980
1980
1980
3180
7FC0
60C0
60C0
0000
0000
ENDCHAR
STARTCHAR cyr-ie
ENCODING 229
SWIDTH 500 0
DWIDTH 10 0
BBX 10 20 0 -4
BITMAP
0000
0000
0000
0000
0000
0000
0000
1E00
3300
6180
6180
7F80
6000
6180
3300
1E00
0000
0000
0000
0000
ENDCHAR
STARTCHAR cyr-zhe
ENCODING 230
SWIDTH 700 0
DWIDTH 14 0
BBX 14 20 0 -4
BITMAP
0000
0000
0000
0000
0000
0000
0000
6318
3330
1B60
0FC0
0FC0
1B60
3330
6318
830C
0000
0000
0000
0000
ENDCHAR
STARTCHAR cyr-z
ENCODING 231
SWIDTH 500 0
DWIDTH 10 0
BBX 10 20 0 -4
BITMAP
0000
0000
0000
0000
0000
0000
0000
3F00
6180
0180
0180
1F00
0180
6180
6180
3F00
0000
0000
0000
0000
ENDCHAR
STARTCHAR cyr-i
ENCODING 232
SWIDTH 500 0
DWIDTH 10 0
BBX 10 20 0 -4
BITMAP
0000
0000
0000
0000
0000
0000
0000
6180
6180
6380
6780
6D80
7980
7180
6180
6180
0000
0000
0000
0000
ENDCHAR
STARTCHAR cyr-i-short
ENCODING 233
SWIDTH 500 0
DWIDTH 10 0
BBX 10 20 0 -4
BITMAP
0000
0000
0000
0000
0000
3300
1E00
6180
6180
6380
6780
6D80
7980
7180
6180
6180
0000
0000
0000
0000
ENDCHAR
STARTCHAR cyr-ka
ENCODING 234
SWIDTH 450 0
DWIDTH 9 0
BBX 9 20 0 -4
BITMAP
0000
0000
0000
0000
0000
0000
0000
6300
6600
6C00
7800
7800
6C00
6600
6300
6180
0000
0000
0000
0000
ENDCHAR
STARTCHAR cyr-el
ENCODING 235
SWIDTH 500 0
DWIDTH 10 0
BBX 10 20 0 -4
BITMAP
0000
0000
0000
0000
0000
0000
0000
1F80
1980
1980
1980
1980
1980
1980
1980
7180
0000
0000
0000
0000
ENDCHAR
STARTCHAR cyr-em
ENCODING 236
SWIDTH 600 0
DWIDTH 12 0
BBX 12 20 0 -4
BITMAP
0000
0000
0000
0000
0000
0000
0000
6060
70E0
79E0
6F60
6660
6060
6060
6060
6060
0000
0000
0000
0000
ENDCHAR
STARTCHAR cyr-en
ENCODING 237
SWIDTH 500 0
DWIDTH 10 0
BBX 10 20 0 -4
BITMAP
0000
0000
0000
0000
0000
0000
0000
6180
6180
6180
6180
7F80
6180
6180
6180
6180
0000
0000
0000
0000
ENDCHAR
STARTCHAR cyr-o
ENCODING 238
SWIDTH 500 0
DWIDTH 10 0
BBX 10 20 0 -4
BITMAP
0000
0000
0000
0000
0000
0000
0000
1E00
3300
6180
6180
6180
6180
6180
3300
1E00
0000
0000
0000
0000
ENDCHAR
STARTCHAR cyr-pe
ENCODING 239
SWIDTH 500 0
DWIDTH 10 0
BBX 10 20 0 -4
BITMAP
0000
0000
0000
0000
0000
0000
0000
7F80
6180
6180
6180
6180
6180
6180
6180
6180
0000
0000
0000
0000
ENDCHAR
STARTCHAR cyr-er
ENCODING 240
SWIDTH 500 0
DWIDTH 10 0
BBX 10 20 0 -4
BITMAP
0000
0000
0000
0000
0000
0000
0000
7E00
7300
6180
6180
6180
6180
6180
7300
7E00
6000
6000
6000
6000
ENDCHAR
STARTCHAR cyr-es
ENCODING 241
SWIDTH 450 0
DWIDTH 9 0
BBX 9 20 0 -4
BITMAP
0000
0000
0000
0000
0000
0000
0000
1E00
3300
6180
6000
6000
6000
6180
3300
1E00
0000
0000
0000
0000
ENDCHAR
STARTCHAR cyr-te
ENCODING 242
SWIDTH 500 0
DWIDTH 10 0
BBX 10 20 0 -4
BITMAP
0000
0000
0000
0000
0000
0000
0000
7F80
0C00
0C00
0C00
0C00
0C00
0C00
0C00
0C00
0000
0000
0000
0000
ENDCHAR
STARTCHAR cyr-u
ENCODING 243
SWIDTH 400 0
DWIDTH 8 0
BBX 8 20 0 -4
BITMAP
00
00
00
00
00
00
00
83
83
66
66
3C
3C
18
18
30
30
60
60
80
ENDCHAR
STARTCHAR cyr-ef
ENCODING 244
SWIDTH 500 0
DWIDTH 10 0
BBX 10 20 0 -4
BITMAP
0000
0000
0000
0000
0000
0000
0C00
1E00
3F00
6D80
6D80
6D80
6D80
6D80
3F00
1E00
0C00
0C00
0C00
0C00
ENDCHAR
STARTCHAR cyr-kha
ENCODING 245
SWIDTH 400 0
DWIDTH 8 0
BBX 8 20 0 -4
BITMAP
00
00
00
00
00
00
00
83
66
66
3C
18
3C
66
66
83
00
00
00
00
ENDCHAR
STARTCHAR cyr-tse
ENCODING 246
SWIDTH 450 0
DWIDTH 9 0
BBX 9 20 0 -4
BITMAP
0000
0000
0000
0000
0000
0000
0000
6300
6300
6300
6300
6300
6300
6300
6300
7F80
0180
0180
0000
0000
ENDCHAR
STARTCHAR cyr-che
ENCODING 247
SWIDTH 500 0
DWIDTH 10 0
BBX 10 20 0 -4
BITMAP
0000
0000
0000
0000
0000
0000
0000
6180
6180
6180
6180
3F80
0180
0180
0180
0180
0000
0000
0000
0000
ENDCHAR
STARTCHAR cyr-sha
ENCODING 248
SWIDTH 600 0
DWIDTH 12 0
BBX 12 20 0 -4
BITMAP
0000
0000
0000
0000
0000
0000
0000
6660
6660
6660
6660
6660
6660
6660
6660
7FE0
0000
0000
0000
0000
ENDCHAR
STARTCHAR cyr-shcha
ENCODING 249
SWIDTH 600 0
DWIDTH 12 0
BBX 12 20 0 -4
BITMAP
0000
0000
0000
0000
0000
0000
0000
6660
6660
6660
6660
6660
6660
6660
6660
7FF0
0030
0030
0000
0000
ENDCHAR
STARTCHAR cyr-ier
ENCODING 250
SWIDTH 550 0
DWIDTH 11 0
BBX 11 20 0 -4
BITMAP
0000
0000
0000
0000
0000
0000
0000
F000
3000
3000
3F80
30C0
30C0
30C0
30C0
3F80
0000
0000
0000
0000
ENDCHAR
STARTCHAR cyr-iery
ENCODING 251
SWIDTH 600 0
DWIDTH 12 0
BBX 12 20 0 -4
BITMAP
0000
0000
0000
0000
0000
0000
0000
6060
6060
6060
7F60
61E0
61E0
61E0
61E0
7F60
0000
0000
0000
0000
ENDCHAR
STARTCHAR cyr-ierik
ENCODING 252
SWIDTH 500 0
DWIDTH 10 0
BBX 10 20 0 -4
BITMAP
0000
0000
0000
0000
0000
0000
0000
6000
6000
6000
7F00
6180
6180
6180
6180
7F00
0000
0000
0000
0000
ENDCHAR
STARTCHAR cyr-e-rev
ENCODING 253
SWIDTH 500 0
DWIDTH 10 0
BBX 10 20 0 -4
BITMAP
0000
0000
0000
0000
0000
0000
0000
3E00
6300
0180
0180
1F80
0180
0180
6300
3E00
0000
0000
0000
0000
ENDCHAR
STARTCHAR cyr-yu
ENCODING 254
SWIDTH 600 0
DWIDTH 12 0
BBX 12 20 0 -4
BITMAP
0000
0000
0000
0000
0000
0000
0000
6780
6CC0
7860
7860
7860
7860
7860
6CC0
6780
0000
0000
0000
0000
ENDCHAR
STARTCHAR cyr-ya
ENCODING 255
SWIDTH 500 0
DWIDTH 10 0
BBX 10 20 0 -4
BITMAP
0000
0000
0000
0000
0000
0000
0000
3F80
6180
6180
6180
3F80
0D80
1980
3180
6180
0000
0000
0000
0000
ENDCHAR
ENDFONT
