STARTFONT 2.1
COMMENT Copyright (C) 1990-1991 EWT Consulting
COMMENT Portions Copyright (C) 1994-1995 Cronyx Ltd.
COMMENT Modified by Serge Vakulenko, <vak@cronyx.ru>
COMMENT Encoding changed to CP1251 by Rabinovich Moisei, <moisei@cs.bgu.ac.il>,$
COMMENT This software may be used, modified, copied, distributed, and sold,
COMMENT in both source and binary form provided that the copyright
COMMENT and these terms are retained. Under no circumstances is the author
COMMENT responsible for the proper functioning of this software, nor does
COMMENT the author assume any responsibility for damages incurred with its use.
FONT -Cronyx-Helvetica-Medium-R-Normal--14-140-75-75-P-77-RAWIN-R
SIZE 14 96 96
FONTBOUNDINGBOX 19 24 0 -5
STARTPROPERTIES 19
DEFAULT_CHAR 32
FONT_ASCENT 19
FONT_DESCENT 5
SPACING "P"
FONTNAME_REGISTRY ""
FOUNDRY "Cronyx"
FAMILY_NAME "Helvetica"
WEIGHT_NAME "Medium"
SLANT "R"
SETWIDTH_NAME "Normal"
ADD_STYLE_NAME ""
AVERAGE_WIDTH 77
CHARSET_REGISTRY "RAWIN"
CHARSET_ENCODING "R"
PIXEL_SIZE 14
POINT_SIZE 140
RESOLUTION_X 75
RESOLUTION_Y 75
COPYRIGHT "Copyright (C) 1990, 1991 EWT Consulting, Portions Copyright (C) 1994 Cronyx Ltd."
ENDPROPERTIES
CHARS 224
STARTCHAR space
ENCODING 32
SWIDTH 208 0
DWIDTH 5 0
BBX 5 24 0 -5
BITMAP
00
00
00
00
00
00
00
00
00
00
00
00
00
00
00
00
00
00
00
00
00
00
00
00
ENDCHAR
STARTCHAR exclam
ENCODING 33
SWIDTH 208 0
DWIDTH 5 0
BBX 5 24 0 -5
BITMAP
00
00
00
00
00
30
30
30
30
30
30
30
30
30
30
00
00
30
30
00
00
00
00
00
ENDCHAR
STARTCHAR quotedbl
ENCODING 34
SWIDTH 291 0
DWIDTH 7 0
BBX 7 24 0 -5
BITMAP
00
00
00
00
00
6c
6c
6c
6c
00
00
00
00
00
00
00
00
00
00
00
00
00
00
00
ENDCHAR
STARTCHAR numbersign
ENCODING 35
SWIDTH 416 0
DWIDTH 10 0
BBX 10 24 0 -5
BITMAP
0000
0000
0000
0000
0000
0900
0900
0900
0900
3f80
1200
1200
1200
1200
7f00
2400
2400
2400
2400
0000
0000
0000
0000
0000
ENDCHAR
STARTCHAR dollar
ENCODING 36
SWIDTH 416 0
DWIDTH 10 0
BBX 10 24 0 -5
BITMAP
0000
0000
0000
0800
0800
1c00
7f00
6b00
c800
e800
7800
3e00
0f00
0b80
0980
c980
6b00
7f00
1c00
0800
0800
0000
0000
0000
ENDCHAR
STARTCHAR percent
ENCODING 37
SWIDTH 625 0
DWIDTH 15 0
BBX 15 24 0 -5
BITMAP
0000
0000
0000
0000
0000
3c18
6630
4230
4260
66c0
3cc0
0180
0300
0678
06cc
0c84
1884
18cc
3078
0000
0000
0000
0000
0000
ENDCHAR
STARTCHAR ampersand
ENCODING 38
SWIDTH 541 0
DWIDTH 13 0
BBX 13 24 0 -5
BITMAP
0000
0000
0000
0000
0000
0c00
1e00
3300
3300
3300
1e00
1c30
3e30
7760
63e0
61c0
71e0
3f70
1e38
0000
0000
0000
0000
0000
ENDCHAR
STARTCHAR quoteright
ENCODING 39
SWIDTH 166 0
DWIDTH 4 0
BBX 4 24 0 -5
BITMAP
00
00
00
00
00
60
60
60
60
00
00
00
00
00
00
00
00
00
00
00
00
00
00
00
ENDCHAR
STARTCHAR parenleft
ENCODING 40
SWIDTH 250 0
DWIDTH 6 0
BBX 6 24 0 -5
BITMAP
00
00
00
00
00
08
18
30
30
60
60
60
60
60
60
60
60
60
60
30
30
18
08
00
ENDCHAR
STARTCHAR parenright
ENCODING 41
SWIDTH 250 0
DWIDTH 6 0
BBX 6 24 0 -5
BITMAP
00
00
00
00
00
40
60
30
30
18
18
18
18
18
18
18
18
18
18
30
30
60
40
00
ENDCHAR
STARTCHAR asterisk
ENCODING 42
SWIDTH 291 0
DWIDTH 7 0
BBX 7 24 0 -5
BITMAP
00
00
00
00
00
10
54
7c
38
7c
54
10
00
00
00
00
00
00
00
00
00
00
00
00
ENDCHAR
STARTCHAR plus
ENCODING 43
SWIDTH 458 0
DWIDTH 11 0
BBX 11 24 0 -5
BITMAP
0000
0000
0000
0000
0000
0000
0000
0600
0600
0600
0600
7fe0
7fe0
0600
0600
0600
0600
0000
0000
0000
0000
0000
0000
0000
ENDCHAR
STARTCHAR comma
ENCODING 44
SWIDTH 208 0
DWIDTH 5 0
BBX 5 24 0 -5
BITMAP
00
00
00
00
00
00
00
00
00
00
00
00
00
00
00
00
00
30
30
10
20
00
00
00
ENDCHAR
STARTCHAR minus
ENCODING 45
SWIDTH 250 0
DWIDTH 6 0
BBX 6 24 0 -5
BITMAP
00
00
00
00
00
00
00
00
00
00
00
00
00
fc
fc
00
00
00
00
00
00
00
00
00
ENDCHAR
STARTCHAR period
ENCODING 46
SWIDTH 208 0
DWIDTH 5 0
BBX 5 24 0 -5
BITMAP
00
00
00
00
00
00
00
00
00
00
00
00
00
00
00
00
00
30
30
00
00
00
00
00
ENDCHAR
STARTCHAR slash
ENCODING 47
SWIDTH 208 0
DWIDTH 5 0
BBX 5 24 0 -5
BITMAP
00
00
00
00
00
18
18
18
18
30
30
30
30
60
60
60
60
c0
c0
c0
c0
00
00
00
ENDCHAR
STARTCHAR zero
ENCODING 48
SWIDTH 416 0
DWIDTH 10 0
BBX 10 24 0 -5
BITMAP
0000
0000
0000
0000
0000
0e00
3f80
3180
60c0
60c0
60c0
60c0
60c0
60c0
60c0
60c0
3180
3f80
0e00
0000
0000
0000
0000
0000
ENDCHAR
STARTCHAR one
ENCODING 49
SWIDTH 416 0
DWIDTH 10 0
BBX 10 24 0 -5
BITMAP
0000
0000
0000
0000
0000
0600
0e00
3e00
3e00
0600
0600
0600
0600
0600
0600
0600
0600
0600
0600
0000
0000
0000
0000
0000
ENDCHAR
STARTCHAR two
ENCODING 50
SWIDTH 416 0
DWIDTH 10 0
BBX 10 24 0 -5
BITMAP
0000
0000
0000
0000
0000
1f00
3f80
71c0
60c0
00c0
01c0
0380
0f00
1c00
3800
3000
6000
7fc0
7fc0
0000
0000
0000
0000
0000
ENDCHAR
STARTCHAR three
ENCODING 51
SWIDTH 416 0
DWIDTH 10 0
BBX 10 24 0 -5
BITMAP
0000
0000
0000
0000
0000
0e00
3f80
3180
60c0
60c0
0180
0f00
0f80
0180
60c0
60c0
3180
3f80
0e00
0000
0000
0000
0000
0000
ENDCHAR
STARTCHAR four
ENCODING 52
SWIDTH 416 0
DWIDTH 10 0
BBX 10 24 0 -5
BITMAP
0000
0000
0000
0000
0000
0700
0700
0f00
0f00
1b00
1b00
3300
3300
6300
7fc0
7fc0
0300
0300
0300
0000
0000
0000
0000
0000
ENDCHAR
STARTCHAR five
ENCODING 53
SWIDTH 416 0
DWIDTH 10 0
BBX 10 24 0 -5
BITMAP
0000
0000
0000
0000
0000
3f80
3f80
3000
3000
6000
7e00
7f80
6180
00c0
00c0
60c0
7180
3f80
1e00
0000
0000
0000
0000
0000
ENDCHAR
STARTCHAR six
ENCODING 54
SWIDTH 416 0
DWIDTH 10 0
BBX 10 24 0 -5
BITMAP
0000
0000
0000
0000
0000
0e00
3f80
3180
60c0
6000
6e00
7f80
7180
60c0
60c0
60c0
3180
3f80
0e00
0000
0000
0000
0000
0000
ENDCHAR
STARTCHAR seven
ENCODING 55
SWIDTH 416 0
DWIDTH 10 0
BBX 10 24 0 -5
BITMAP
0000
0000
0000
0000
0000
7fc0
7fc0
00c0
00c0
0180
0180
0300
0300
0600
0600
0600
0c00
0c00
0c00
0000
0000
0000
0000
0000
ENDCHAR
STARTCHAR eight
ENCODING 56
SWIDTH 416 0
DWIDTH 10 0
BBX 10 24 0 -5
BITMAP
0000
0000
0000
0000
0000
0e00
3f80
3180
60c0
60c0
3180
1f00
3f80
3180
60c0
60c0
3180
3f80
0e00
0000
0000
0000
0000
0000
ENDCHAR
STARTCHAR nine
ENCODING 57
SWIDTH 416 0
DWIDTH 10 0
BBX 10 24 0 -5
BITMAP
0000
0000
0000
0000
0000
0e00
3f80
3180
60c0
60c0
60c0
31c0
3fc0
0ec0
00c0
60c0
3180
3f80
0e00
0000
0000
0000
0000
0000
ENDCHAR
STARTCHAR colon
ENCODING 58
SWIDTH 208 0
DWIDTH 5 0
BBX 5 24 0 -5
BITMAP
00
00
00
00
00
00
00
00
00
30
30
00
00
00
00
00
00
30
30
00
00
00
00
00
ENDCHAR
STARTCHAR semicolon
ENCODING 59
SWIDTH 208 0
DWIDTH 5 0
BBX 5 24 0 -5
BITMAP
00
00
00
00
00
00
00
00
00
30
30
00
00
00
00
00
00
30
30
10
20
00
00
00
ENDCHAR
STARTCHAR less
ENCODING 60
SWIDTH 458 0
DWIDTH 11 0
BBX 11 24 0 -5
BITMAP
0000
0000
0000
0000
0000
0000
0000
0000
0060
01e0
0780
1e00
7800
1e00
0780
01e0
0060
0000
0000
0000
0000
0000
0000
0000
ENDCHAR
STARTCHAR equal
ENCODING 61
SWIDTH 458 0
DWIDTH 11 0
BBX 11 24 0 -5
BITMAP
0000
0000
0000
0000
0000
0000
0000
0000
0000
7fe0
7fe0
0000
0000
7fe0
7fe0
0000
0000
0000
0000
0000
0000
0000
0000
0000
ENDCHAR
STARTCHAR greater
ENCODING 62
SWIDTH 458 0
DWIDTH 11 0
BBX 11 24 0 -5
BITMAP
0000
0000
0000
0000
0000
0000
0000
0000
6000
7800
1e00
0780
03e0
0780
1e00
7800
6000
0000
0000
0000
0000
0000
0000
0000
ENDCHAR
STARTCHAR question
ENCODING 63
SWIDTH 416 0
DWIDTH 10 0
BBX 10 24 0 -5
BITMAP
0000
0000
0000
0000
0000
0e00
3f80
3180
60c0
60c0
0180
0380
0700
0600
0c00
0c00
0000
0c00
0c00
0000
0000
0000
0000
0000
ENDCHAR
STARTCHAR at
ENCODING 64
SWIDTH 791 0
DWIDTH 19 0
BBX 19 24 0 -5
BITMAP
000000
000000
000000
000000
000000
03f800
0e0e00
180300
300180
200080
60ecc0
419840
431840
431840
4630c0
463180
63df00
200000
300000
180200
0e0e00
03f800
000000
000000
ENDCHAR
STARTCHAR A
ENCODING 65
SWIDTH 541 0
DWIDTH 13 0
BBX 13 24 0 -5
BITMAP
0000
0000
0000
0000
0000
0700
0700
0d80
0d80
18c0
18c0
18c0
3060
3fe0
7ff0
6030
6030
c018
c018
0000
0000
0000
0000
0000
ENDCHAR
STARTCHAR B
ENCODING 66
SWIDTH 500 0
DWIDTH 12 0
BBX 12 24 0 -5
BITMAP
0000
0000
0000
0000
0000
7f80
7fc0
60e0
6060
6060
60e0
7fc0
7fc0
60e0
6060
6060
60e0
7fc0
7f80
0000
0000
0000
0000
0000
ENDCHAR
STARTCHAR C
ENCODING 67
SWIDTH 541 0
DWIDTH 13 0
BBX 13 24 0 -5
BITMAP
0000
0000
0000
0000
0000
07c0
1ff0
3838
3018
6000
6000
6000
6000
6000
6000
3018
3838
1ff0
07c0
0000
0000
0000
0000
0000
ENDCHAR
STARTCHAR D
ENCODING 68
SWIDTH 541 0
DWIDTH 13 0
BBX 13 24 0 -5
BITMAP
0000
0000
0000
0000
0000
7f00
7fc0
60e0
6060
6030
6030
6030
6030
6030
6030
6060
60e0
7fc0
7f00
0000
0000
0000
0000
0000
ENDCHAR
STARTCHAR E
ENCODING 69
SWIDTH 541 0
DWIDTH 13 0
BBX 13 24 0 -5
BITMAP
0000
0000
0000
0000
0000
7ff0
7ff0
6000
6000
6000
6000
7fe0
7fe0
6000
6000
6000
6000
7ff0
7ff0
0000
0000
0000
0000
0000
ENDCHAR
STARTCHAR F
ENCODING 70
SWIDTH 500 0
DWIDTH 12 0
BBX 12 24 0 -5
BITMAP
0000
0000
0000
0000
0000
7ff0
7ff0
6000
6000
6000
6000
7fe0
7fe0
6000
6000
6000
6000
6000
6000
0000
0000
0000
0000
0000
ENDCHAR
STARTCHAR G
ENCODING 71
SWIDTH 583 0
DWIDTH 14 0
BBX 14 24 0 -5
BITMAP
0000
0000
0000
0000
0000
07c0
1ff0
3838
3018
6000
6000
6000
6078
6078
6018
3018
3838
1ff8
07d8
0000
0000
0000
0000
0000
ENDCHAR
STARTCHAR H
ENCODING 72
SWIDTH 583 0
DWIDTH 14 0
BBX 14 24 0 -5
BITMAP
0000
0000
0000
0000
0000
6018
6018
6018
6018
6018
6018
7ff8
7ff8
6018
6018
6018
6018
6018
6018
0000
0000
0000
0000
0000
ENDCHAR
STARTCHAR I
ENCODING 73
SWIDTH 166 0
DWIDTH 4 0
BBX 4 24 0 -5
BITMAP
00
00
00
00
00
60
60
60
60
60
60
60
60
60
60
60
60
60
60
00
00
00
00
00
ENDCHAR
STARTCHAR J
ENCODING 74
SWIDTH 375 0
DWIDTH 9 0
BBX 9 24 0 -5
BITMAP
0000
0000
0000
0000
0000
0300
0300
0300
0300
0300
0300
0300
0300
0300
0300
c300
e700
7e00
1800
0000
0000
0000
0000
0000
ENDCHAR
STARTCHAR K
ENCODING 75
SWIDTH 500 0
DWIDTH 12 0
BBX 12 24 0 -5
BITMAP
0000
0000
0000
0000
0000
60e0
61c0
6380
6700
6e00
7c00
7800
7c00
6e00
6700
6380
61c0
60e0
6070
0000
0000
0000
0000
0000
ENDCHAR
STARTCHAR L
ENCODING 76
SWIDTH 416 0
DWIDTH 10 0
BBX 10 24 0 -5
BITMAP
0000
0000
0000
0000
0000
6000
6000
6000
6000
6000
6000
6000
6000
6000
6000
6000
6000
7fc0
7fc0
0000
0000
0000
0000
0000
ENDCHAR
STARTCHAR M
ENCODING 77
SWIDTH 666 0
DWIDTH 16 0
BBX 16 24 0 -5
BITMAP
0000
0000
0000
0000
0000
6006
6006
700e
700e
781e
781e
6c36
6c36
6666
6666
63c6
63c6
6186
6186
0000
0000
0000
0000
0000
ENDCHAR
STARTCHAR N
ENCODING 78
SWIDTH 583 0
DWIDTH 14 0
BBX 14 24 0 -5
BITMAP
0000
0000
0000
0000
0000
7018
7818
7818
7c18
6e18
6618
6718
6398
6198
61d8
60f8
6078
6078
6038
0000
0000
0000
0000
0000
ENDCHAR
STARTCHAR O
ENCODING 79
SWIDTH 625 0
DWIDTH 15 0
BBX 15 24 0 -5
BITMAP
0000
0000
0000
0000
0000
07c0
1ff0
3838
3018
600c
600c
600c
600c
600c
600c
3018
3838
1ff0
07c0
0000
0000
0000
0000
0000
ENDCHAR
STARTCHAR P
ENCODING 80
SWIDTH 500 0
DWIDTH 12 0
BBX 12 24 0 -5
BITMAP
0000
0000
0000
0000
0000
7f80
7fe0
6060
6030
6030
6030
6060
7fe0
7f80
6000
6000
6000
6000
6000
0000
0000
0000
0000
0000
ENDCHAR
STARTCHAR Q
ENCODING 81
SWIDTH 625 0
DWIDTH 15 0
BBX 15 24 0 -5
BITMAP
0000
0000
0000
0000
0000
07c0
1ff0
3838
3018
600c
600c
600c
600c
604c
60ec
3078
3838
1ffc
07c8
0000
0000
0000
0000
0000
ENDCHAR
STARTCHAR R
ENCODING 82
SWIDTH 541 0
DWIDTH 13 0
BBX 13 24 0 -5
BITMAP
0000
0000
0000
0000
0000
7f80
7fe0
6060
6030
6030
6030
6060
7fe0
7fe0
6030
6030
6030
6030
6018
0000
0000
0000
0000
0000
ENDCHAR
STARTCHAR S
ENCODING 83
SWIDTH 500 0
DWIDTH 12 0
BBX 12 24 0 -5
BITMAP
0000
0000
0000
0000
0000
0f00
3fc0
70e0
6060
7000
3c00
1f80
07c0
00e0
0060
6060
70e0
3fc0
0f00
0000
0000
0000
0000
0000
ENDCHAR
STARTCHAR T
ENCODING 84
SWIDTH 500 0
DWIDTH 12 0
BBX 12 24 0 -5
BITMAP
0000
0000
0000
0000
0000
fff0
fff0
0600
0600
0600
0600
0600
0600
0600
0600
0600
0600
0600
0600
0000
0000
0000
0000
0000
ENDCHAR
STARTCHAR U
ENCODING 85
SWIDTH 541 0
DWIDTH 13 0
BBX 13 24 0 -5
BITMAP
0000
0000
0000
0000
0000
6030
6030
6030
6030
6030
6030
6030
6030
6030
6030
3060
38e0
1fc0
0700
0000
0000
0000
0000
0000
ENDCHAR
STARTCHAR V
ENCODING 86
SWIDTH 541 0
DWIDTH 13 0
BBX 13 24 0 -5
BITMAP
0000
0000
0000
0000
0000
c018
c018
6030
6030
3060
3060
3060
18c0
18c0
0d80
0d80
0f80
0700
0700
0000
0000
0000
0000
0000
ENDCHAR
STARTCHAR W
ENCODING 87
SWIDTH 750 0
DWIDTH 18 0
BBX 18 24 0 -5
BITMAP
000000
000000
000000
000000
000000
c0c0c0
c0c0c0
c0c0c0
61e180
61e180
61e180
333300
333300
333300
1e1e00
1e1e00
1e1e00
0c0c00
0c0c00
000000
000000
000000
000000
000000
ENDCHAR
STARTCHAR X
ENCODING 88
SWIDTH 583 0
DWIDTH 14 0
BBX 14 24 0 -5
BITMAP
0000
0000
0000
0000
0000
c00c
e01c
7038
3870
1ce0
0fc0
0780
0780
0fc0
1ce0
3870
7038
e01c
c00c
0000
0000
0000
0000
0000
ENDCHAR
STARTCHAR Y
ENCODING 89
SWIDTH 500 0
DWIDTH 12 0
BBX 12 24 0 -5
BITMAP
0000
0000
0000
0000
0000
c030
e070
6060
30c0
39c0
1980
0f00
0f00
0600
0600
0600
0600
0600
0600
0000
0000
0000
0000
0000
ENDCHAR
STARTCHAR Z
ENCODING 90
SWIDTH 500 0
DWIDTH 12 0
BBX 12 24 0 -5
BITMAP
0000
0000
0000
0000
0000
7ff0
7ff0
0070
00e0
01c0
0380
0700
0e00
1c00
3800
7000
e000
fff0
fff0
0000
0000
0000
0000
0000
ENDCHAR
STARTCHAR bracketleft
ENCODING 91
SWIDTH 208 0
DWIDTH 5 0
BBX 5 24 0 -5
BITMAP
00
00
00
00
78
78
60
60
60
60
60
60
60
60
60
60
60
60
60
60
60
78
78
00
ENDCHAR
STARTCHAR backslash
ENCODING 92
SWIDTH 208 0
DWIDTH 5 0
BBX 5 24 0 -5
BITMAP
00
00
00
00
00
c0
c0
c0
c0
60
60
60
60
30
30
30
30
18
18
18
18
00
00
00
ENDCHAR
STARTCHAR bracketright
ENCODING 93
SWIDTH 208 0
DWIDTH 5 0
BBX 5 24 0 -5
BITMAP
00
00
00
00
f0
f0
30
30
30
30
30
30
30
30
30
30
30
30
30
30
30
f0
f0
00
ENDCHAR
STARTCHAR asciicircum
ENCODING 94
SWIDTH 375 0
DWIDTH 9 0
BBX 9 24 0 -5
BITMAP
0000
0000
0000
0000
0000
1c00
3600
6300
0000
0000
0000
0000
0000
0000
0000
0000
0000
0000
0000
0000
0000
0000
0000
0000
ENDCHAR
STARTCHAR underscore
ENCODING 95
SWIDTH 416 0
DWIDTH 10 0
BBX 10 24 0 -5
BITMAP
0000
0000
0000
0000
0000
0000
0000
0000
0000
0000
0000
0000
0000
0000
0000
0000
0000
0000
0000
0000
ffc0
ffc0
0000
0000
ENDCHAR
STARTCHAR quoteleft
ENCODING 96
SWIDTH 250 0
DWIDTH 6 0
BBX 6 24 0 -5
BITMAP
00
00
00
00
00
70
18
08
00
00
00
00
00
00
00
00
00
00
00
00
00
00
00
00
ENDCHAR
STARTCHAR a
ENCODING 97
SWIDTH 416 0
DWIDTH 10 0
BBX 10 24 0 -5
BITMAP
0000
0000
0000
0000
0000
0000
0000
0000
0000
1e00
3f00
7380
0180
0f80
3980
6180
6380
7fc0
3cc0
0000
0000
0000
0000
0000
ENDCHAR
STARTCHAR b
ENCODING 98
SWIDTH 458 0
DWIDTH 11 0
BBX 11 24 0 -5
BITMAP
0000
0000
0000
0000
0000
6000
6000
6000
6000
6e00
7f80
7180
60c0
60c0
60c0
60c0
7180
7f80
6e00
0000
0000
0000
0000
0000
ENDCHAR
STARTCHAR c
ENCODING 99
SWIDTH 416 0
DWIDTH 10 0
BBX 10 24 0 -5
BITMAP
0000
0000
0000
0000
0000
0000
0000
0000
0000
0e00
3f80
3180
60c0
6000
6000
60c0
3180
3f80
0e00
0000
0000
0000
0000
0000
ENDCHAR
STARTCHAR d
ENCODING 100
SWIDTH 458 0
DWIDTH 11 0
BBX 11 24 0 -5
BITMAP
0000
0000
0000
0000
0000
00c0
00c0
00c0
00c0
0ec0
3fc0
31c0
60c0
60c0
60c0
60c0
31c0
3fc0
0ec0
0000
0000
0000
0000
0000
ENDCHAR
STARTCHAR e
ENCODING 101
SWIDTH 458 0
DWIDTH 11 0
BBX 11 24 0 -5
BITMAP
0000
0000
0000
0000
0000
0000
0000
0000
0000
0e00
3f80
3180
60c0
7fc0
7fc0
6000
30c0
3f80
0e00
0000
0000
0000
0000
0000
ENDCHAR
STARTCHAR f
ENCODING 102
SWIDTH 166 0
DWIDTH 4 0
BBX 4 24 0 -5
BITMAP
00
00
00
00
00
30
70
60
60
f0
f0
60
60
60
60
60
60
60
60
00
00
00
00
00
ENDCHAR
STARTCHAR g
ENCODING 103
SWIDTH 458 0
DWIDTH 11 0
BBX 11 24 0 -5
BITMAP
0000
0000
0000
0000
0000
0000
0000
0000
0000
0ec0
3fc0
31c0
60c0
60c0
60c0
60c0
31c0
3fc0
0ec0
60c0
3180
3f80
0e00
0000
ENDCHAR
STARTCHAR h
ENCODING 104
SWIDTH 458 0
DWIDTH 11 0
BBX 11 24 0 -5
BITMAP
0000
0000
0000
0000
0000
6000
6000
6000
6000
6e00
7f80
7180
60c0
60c0
60c0
60c0
60c0
60c0
60c0
0000
0000
0000
0000
0000
ENDCHAR
STARTCHAR i
ENCODING 105
SWIDTH 166 0
DWIDTH 4 0
BBX 4 24 0 -5
BITMAP
00
00
00
00
00
60
60
00
00
60
60
60
60
60
60
60
60
60
60
00
00
00
00
00
ENDCHAR
STARTCHAR j
ENCODING 106
SWIDTH 166 0
DWIDTH 4 0
BBX 4 24 0 -5
BITMAP
00
00
00
00
00
60
60
00
00
60
60
60
60
60
60
60
60
60
60
60
60
e0
c0
00
ENDCHAR
STARTCHAR k
ENCODING 107
SWIDTH 375 0
DWIDTH 9 0
BBX 9 24 0 -5
BITMAP
0000
0000
0000
0000
0000
6000
6000
6000
6000
6180
6300
6600
6c00
7800
7c00
6600
6300
6180
6080
0000
0000
0000
0000
0000
ENDCHAR
STARTCHAR l
ENCODING 108
SWIDTH 166 0
DWIDTH 4 0
BBX 4 24 0 -5
BITMAP
00
00
00
00
00
60
60
60
60
60
60
60
60
60
60
60
60
60
60
00
00
00
00
00
ENDCHAR
STARTCHAR m
ENCODING 109
SWIDTH 666 0
DWIDTH 16 0
BBX 16 24 0 -5
BITMAP
0000
0000
0000
0000
0000
0000
0000
0000
0000
6e38
7f7c
73ce
6186
6186
6186
6186
6186
6186
6186
0000
0000
0000
0000
0000
ENDCHAR
STARTCHAR n
ENCODING 110
SWIDTH 458 0
DWIDTH 11 0
BBX 11 24 0 -5
BITMAP
0000
0000
0000
0000
0000
0000
0000
0000
0000
6e00
7f80
7180
60c0
60c0
60c0
60c0
60c0
60c0
60c0
0000
0000
0000
0000
0000
ENDCHAR
STARTCHAR o
ENCODING 111
SWIDTH 458 0
DWIDTH 11 0
BBX 11 24 0 -5
BITMAP
0000
0000
0000
0000
0000
0000
0000
0000
0000
0e00
3f80
3180
60c0
60c0
60c0
60c0
3180
3f80
0e00
0000
0000
0000
0000
0000
ENDCHAR
STARTCHAR p
ENCODING 112
SWIDTH 458 0
DWIDTH 11 0
BBX 11 24 0 -5
BITMAP
0000
0000
0000
0000
0000
0000
0000
0000
0000
6e00
7f80
7180
60c0
60c0
60c0
60c0
7180
7f80
6e00
6000
6000
6000
6000
0000
ENDCHAR
STARTCHAR q
ENCODING 113
SWIDTH 458 0
DWIDTH 11 0
BBX 11 24 0 -5
BITMAP
0000
0000
0000
0000
0000
0000
0000
0000
0000
0ec0
3fc0
31c0
60c0
60c0
60c0
60c0
31c0
3fc0
0ec0
00c0
00c0
00c0
00c0
0000
ENDCHAR
STARTCHAR r
ENCODING 114
SWIDTH 250 0
DWIDTH 6 0
BBX 6 24 0 -5
BITMAP
00
00
00
00
00
00
00
00
00
6c
7c
70
60
60
60
60
60
60
60
00
00
00
00
00
ENDCHAR
STARTCHAR s
ENCODING 115
SWIDTH 375 0
DWIDTH 9 0
BBX 9 24 0 -5
BITMAP
0000
0000
0000
0000
0000
0000
0000
0000
0000
1c00
3e00
6300
7000
3c00
0e00
0300
6300
3e00
1c00
0000
0000
0000
0000
0000
ENDCHAR
STARTCHAR t
ENCODING 116
SWIDTH 166 0
DWIDTH 4 0
BBX 4 24 0 -5
BITMAP
00
00
00
00
00
00
60
60
60
f0
f0
60
60
60
60
60
60
70
30
00
00
00
00
00
ENDCHAR
STARTCHAR u
ENCODING 117
SWIDTH 458 0
DWIDTH 11 0
BBX 11 24 0 -5
BITMAP
0000
0000
0000
0000
0000
0000
0000
0000
0000
60c0
60c0
60c0
60c0
60c0
60c0
60c0
31c0
3fc0
0ec0
0000
0000
0000
0000
0000
ENDCHAR
STARTCHAR v
ENCODING 118
SWIDTH 375 0
DWIDTH 9 0
BBX 9 24 0 -5
BITMAP
0000
0000
0000
0000
0000
0000
0000
0000
0000
c180
c180
c180
6300
6300
3600
3600
3e00
1c00
1c00
0000
0000
0000
0000
0000
ENDCHAR
STARTCHAR w
ENCODING 119
SWIDTH 583 0
DWIDTH 14 0
BBX 14 24 0 -5
BITMAP
0000
0000
0000
0000
0000
0000
0000
0000
0000
c30c
c30c
6318
6798
6798
3cf0
3cf0
1ce0
1860
1860
0000
0000
0000
0000
0000
ENDCHAR
STARTCHAR x
ENCODING 120
SWIDTH 416 0
DWIDTH 10 0
BBX 10 24 0 -5
BITMAP
0000
0000
0000
0000
0000
0000
0000
0000
0000
c0c0
e1c0
7380
3f00
1e00
1e00
3f00
7380
e1c0
c0c0
0000
0000
0000
0000
0000
ENDCHAR
STARTCHAR y
ENCODING 121
SWIDTH 375 0
DWIDTH 9 0
BBX 9 24 0 -5
BITMAP
0000
0000
0000
0000
0000
0000
0000
0000
0000
c180
c180
c180
6300
6300
3600
3600
3e00
1c00
1c00
1800
1800
7800
7000
0000
ENDCHAR
STARTCHAR z
ENCODING 122
SWIDTH 375 0
DWIDTH 9 0
BBX 9 24 0 -5
BITMAP
0000
0000
0000
0000
0000
0000
0000
0000
0000
ff80
ff80
0300
0600
0c00
1800
3000
6000
ff80
ff80
0000
0000
0000
0000
0000
ENDCHAR
STARTCHAR braceleft
ENCODING 123
SWIDTH 250 0
DWIDTH 6 0
BBX 6 24 0 -5
BITMAP
00
00
00
00
00
0c
18
18
18
18
18
18
30
60
60
30
18
18
18
18
18
18
0c
00
ENDCHAR
STARTCHAR bar
ENCODING 124
SWIDTH 166 0
DWIDTH 4 0
BBX 4 24 0 -5
BITMAP
00
00
00
00
00
60
60
60
60
60
60
60
60
60
60
60
60
60
60
60
60
60
60
60
ENDCHAR
STARTCHAR braceright
ENCODING 125
SWIDTH 250 0
DWIDTH 6 0
BBX 6 24 0 -5
BITMAP
00
00
00
00
00
c0
60
60
60
60
60
60
30
18
18
30
60
60
60
60
60
60
c0
00
ENDCHAR
STARTCHAR asciitilde
ENCODING 126
SWIDTH 458 0
DWIDTH 11 0
BBX 11 24 0 -5
BITMAP
0000
0000
0000
0000
0000
38c0
6ec0
6380
0000
0000
0000
0000
0000
0000
0000
0000
0000
0000
0000
0000
0000
0000
0000
0000
ENDCHAR
STARTCHAR C177
ENCODING -1
SWIDTH 250 0
DWIDTH 6 0
BBX 6 24 0 -5
BITMAP
00
00
00
00
00
78
78
78
78
78
78
78
78
78
78
78
78
78
78
00
00
00
00
00
ENDCHAR
STARTCHAR C200
ENCODING -1
SWIDTH 250 0
DWIDTH 6 0
BBX 6 24 0 -5
BITMAP
00
00
00
00
00
78
78
78
78
78
78
78
78
78
78
78
78
78
78
00
00
00
00
00
ENDCHAR
STARTCHAR C201
ENCODING -1
SWIDTH 250 0
DWIDTH 6 0
BBX 6 24 0 -5
BITMAP
00
00
00
00
00
78
78
78
78
78
78
78
78
78
78
78
78
78
78
00
00
00
00
00
ENDCHAR
STARTCHAR C202
ENCODING -1
SWIDTH 250 0
DWIDTH 6 0
BBX 6 24 0 -5
BITMAP
00
00
00
00
00
78
78
78
78
78
78
78
78
78
78
78
78
78
78
00
00
00
00
00
ENDCHAR
STARTCHAR C203
ENCODING -1
SWIDTH 250 0
DWIDTH 6 0
BBX 6 24 0 -5
BITMAP
00
00
00
00
00
78
78
78
78
78
78
78
78
78
78
78
78
78
78
00
00
00
00
00
ENDCHAR
STARTCHAR C204
ENCODING -1
SWIDTH 250 0
DWIDTH 6 0
BBX 6 24 0 -5
BITMAP
00
00
00
00
00
78
78
78
78
78
78
78
78
78
78
78
78
78
78
00
00
00
00
00
ENDCHAR
STARTCHAR C205
ENCODING -1
SWIDTH 250 0
DWIDTH 6 0
BBX 6 24 0 -5
BITMAP
00
00
00
00
00
78
78
78
78
78
78
78
78
78
78
78
78
78
78
00
00
00
00
00
ENDCHAR
STARTCHAR C206
ENCODING -1
SWIDTH 250 0
DWIDTH 6 0
BBX 6 24 0 -5
BITMAP
00
00
00
00
00
78
78
78
78
78
78
78
78
78
78
78
78
78
78
00
00
00
00
00
ENDCHAR
STARTCHAR C207
ENCODING -1
SWIDTH 250 0
DWIDTH 6 0
BBX 6 24 0 -5
BITMAP
00
00
00
00
00
78
78
78
78
78
78
78
78
78
78
78
78
78
78
00
00
00
00
00
ENDCHAR
STARTCHAR C210
ENCODING -1
SWIDTH 250 0
DWIDTH 6 0
BBX 6 24 0 -5
BITMAP
00
00
00
00
00
78
78
78
78
78
78
78
78
78
78
78
78
78
78
00
00
00
00
00
ENDCHAR
STARTCHAR C211
ENCODING -1
SWIDTH 250 0
DWIDTH 6 0
BBX 6 24 0 -5
BITMAP
00
00
00
00
00
78
78
78
78
78
78
78
78
78
78
78
78
78
78
00
00
00
00
00
ENDCHAR
STARTCHAR C212
ENCODING -1
SWIDTH 250 0
DWIDTH 6 0
BBX 6 24 0 -5
BITMAP
00
00
00
00
00
78
78
78
78
78
78
78
78
78
78
78
78
78
78
00
00
00
00
00
ENDCHAR
STARTCHAR C213
ENCODING -1
SWIDTH 250 0
DWIDTH 6 0
BBX 6 24 0 -5
BITMAP
00
00
00
00
00
78
78
78
78
78
78
78
78
78
78
78
78
78
78
00
00
00
00
00
ENDCHAR
STARTCHAR C214
ENCODING -1
SWIDTH 250 0
DWIDTH 6 0
BBX 6 24 0 -5
BITMAP
00
00
00
00
00
78
78
78
78
78
78
78
78
78
78
78
78
78
78
00
00
00
00
00
ENDCHAR
STARTCHAR C215
ENCODING -1
SWIDTH 250 0
DWIDTH 6 0
BBX 6 24 0 -5
BITMAP
00
00
00
00
00
78
78
78
78
78
78
78
78
78
78
78
78
78
78
00
00
00
00
00
ENDCHAR
STARTCHAR C216
ENCODING -1
SWIDTH 250 0
DWIDTH 6 0
BBX 6 24 0 -5
BITMAP
00
00
00
00
00
78
78
78
78
78
78
78
78
78
78
78
78
78
78
00
00
00
00
00
ENDCHAR
STARTCHAR C217
ENCODING -1
SWIDTH 250 0
DWIDTH 6 0
BBX 6 24 0 -5
BITMAP
00
00
00
00
00
78
78
78
78
78
78
78
78
78
78
78
78
78
78
00
00
00
00
00
ENDCHAR
STARTCHAR C220
ENCODING -1
SWIDTH 250 0
DWIDTH 6 0
BBX 6 24 0 -5
BITMAP
00
00
00
00
00
78
78
78
78
78
78
78
78
78
78
78
78
78
78
00
00
00
00
00
ENDCHAR
STARTCHAR C221
ENCODING -1
SWIDTH 208 0
DWIDTH 5 0
BBX 5 24 0 -5
BITMAP
00
00
00
00
00
10
20
30
30
00
00
00
00
00
00
00
00
00
00
00
00
00
00
00
ENDCHAR
STARTCHAR C222
ENCODING -1
SWIDTH 208 0
DWIDTH 5 0
BBX 5 24 0 -5
BITMAP
00
00
00
00
00
60
60
20
40
00
00
00
00
00
00
00
00
00
00
00
00
00
00
00
ENDCHAR
STARTCHAR C223
ENCODING -1
SWIDTH 250 0
DWIDTH 6 0
BBX 6 24 0 -5
BITMAP
00
00
00
00
00
78
78
78
78
78
78
78
78
78
78
78
78
78
78
00
00
00
00
00
ENDCHAR
STARTCHAR C224
ENCODING -1
SWIDTH 250 0
DWIDTH 6 0
BBX 6 24 0 -5
BITMAP
00
00
00
00
00
78
78
78
78
78
78
78
78
78
78
78
78
78
78
00
00
00
00
00
ENDCHAR
STARTCHAR C225
ENCODING -1
SWIDTH 250 0
DWIDTH 6 0
BBX 6 24 0 -5
BITMAP
00
00
00
00
00
78
78
78
78
78
78
78
78
78
78
78
78
78
78
00
00
00
00
00
ENDCHAR
STARTCHAR C226
ENCODING -1
SWIDTH 250 0
DWIDTH 6 0
BBX 6 24 0 -5
BITMAP
00
00
00
00
00
78
78
78
78
78
78
78
78
78
78
78
78
78
78
00
00
00
00
00
ENDCHAR
STARTCHAR C227
ENCODING -1
SWIDTH 250 0
DWIDTH 6 0
BBX 6 24 0 -5
BITMAP
00
00
00
00
00
78
78
78
78
78
78
78
78
78
78
78
78
78
78
00
00
00
00
00
ENDCHAR
STARTCHAR C230
ENCODING -1
SWIDTH 250 0
DWIDTH 6 0
BBX 6 24 0 -5
BITMAP
00
00
00
00
00
78
78
78
78
78
78
78
78
78
78
78
78
78
78
00
00
00
00
00
ENDCHAR
STARTCHAR C231
ENCODING -1
SWIDTH 250 0
DWIDTH 6 0
BBX 6 24 0 -5
BITMAP
00
00
00
00
00
78
78
78
78
78
78
78
78
78
78
78
78
78
78
00
00
00
00
00
ENDCHAR
STARTCHAR C232
ENCODING -1
SWIDTH 250 0
DWIDTH 6 0
BBX 6 24 0 -5
BITMAP
00
00
00
00
00
78
78
78
78
78
78
78
78
78
78
78
78
78
78
00
00
00
00
00
ENDCHAR
STARTCHAR C233
ENCODING -1
SWIDTH 250 0
DWIDTH 6 0
BBX 6 24 0 -5
BITMAP
00
00
00
00
00
78
78
78
78
78
78
78
78
78
78
78
78
78
78
00
00
00
00
00
ENDCHAR
STARTCHAR C234
ENCODING -1
SWIDTH 250 0
DWIDTH 6 0
BBX 6 24 0 -5
BITMAP
00
00
00
00
00
78
78
78
78
78
78
78
78
78
78
78
78
78
78
00
00
00
00
00
ENDCHAR
STARTCHAR C235
ENCODING -1
SWIDTH 250 0
DWIDTH 6 0
BBX 6 24 0 -5
BITMAP
00
00
00
00
00
78
78
78
78
78
78
78
78
78
78
78
78
78
78
00
00
00
00
00
ENDCHAR
STARTCHAR C236
ENCODING -1
SWIDTH 250 0
DWIDTH 6 0
BBX 6 24 0 -5
BITMAP
00
00
00
00
00
78
78
78
78
78
78
78
78
78
78
78
78
78
78
00
00
00
00
00
ENDCHAR
STARTCHAR C237
ENCODING -1
SWIDTH 250 0
DWIDTH 6 0
BBX 6 24 0 -5
BITMAP
00
00
00
00
00
78
78
78
78
78
78
78
78
78
78
78
78
78
78
00
00
00
00
00
ENDCHAR
STARTCHAR C240
ENCODING 160
SWIDTH 208 0
DWIDTH 5 0
BBX 5 24 0 -5
BITMAP
00
00
00
00
00
00
00
00
00
00
00
00
00
00
00
00
00
00
00
00
00
00
00
00
ENDCHAR
STARTCHAR exclamdown
ENCODING 161
SWIDTH 208 0
DWIDTH 5 0
BBX 5 24 0 -5
BITMAP
00
00
00
00
00
60
60
00
00
60
60
60
60
60
60
60
60
60
60
00
00
00
00
00
ENDCHAR
STARTCHAR cent
ENCODING 162
SWIDTH 416 0
DWIDTH 10 0
BBX 10 24 0 -5
BITMAP
0000
0000
0000
0000
0000
0000
0000
0100
0100
0f00
3f80
3380
6200
6600
6400
6400
3d80
3f80
1e00
1000
1000
0000
0000
0000
ENDCHAR
STARTCHAR sterling
ENCODING 184
SWIDTH 416 0
DWIDTH 10 0
BBX 10 24 0 -5
BITMAP
0000
0000
0000
0000
0000
0f00
1f80
30c0
3000
3000
3000
7e00
3000
1800
1800
1800
30c0
7fc0
7780
0000
0000
0000
0000
0000
ENDCHAR
STARTCHAR currency
ENCODING 164
SWIDTH 416 0
DWIDTH 10 0
BBX 10 24 0 -5
BITMAP
0000
0000
0000
0000
0000
0000
60c0
7fc0
3f80
3180
3180
3180
3f80
7fc0
60c0
0000
0000
0000
0000
0000
0000
0000
0000
0000
ENDCHAR
STARTCHAR yen
ENCODING 165
SWIDTH 416 0
DWIDTH 10 0
BBX 10 24 0 -5
BITMAP
0000
0000
0000
0000
0000
c0c0
c0c0
6180
6180
3300
7f80
7f80
1e00
0c00
7f80
7f80
0c00
0c00
0c00
0000
0000
0000
0000
0000
ENDCHAR
STARTCHAR brokenbar
ENCODING 166
SWIDTH 166 0
DWIDTH 4 0
BBX 4 24 0 -5
BITMAP
00
00
00
00
00
60
60
60
60
60
60
60
60
00
00
60
60
60
60
60
60
60
60
00
ENDCHAR
STARTCHAR section
ENCODING 167
SWIDTH 416 0
DWIDTH 10 0
BBX 10 24 0 -5
BITMAP
0000
0000
0000
0000
0000
1e00
3f00
3300
3000
7800
6c00
6600
3300
1980
0d80
0780
0300
3300
3f00
1e00
0000
0000
0000
0000
ENDCHAR
STARTCHAR dieresis
ENCODING 168
SWIDTH 250 0
DWIDTH 6 0
BBX 6 24 0 -5
BITMAP
00
00
00
00
00
cc
cc
00
00
00
00
00
00
00
00
00
00
00
00
00
00
00
00
00
ENDCHAR
STARTCHAR copyright
ENCODING 169
SWIDTH 583 0
DWIDTH 14 0
BBX 14 24 0 -5
BITMAP
0000
0000
0000
0000
0000
0f80
38e0
6030
4790
ccd8
9808
9808
9808
9808
ccd8
4790
6030
38e0
0f80
0000
0000
0000
0000
0000
ENDCHAR
STARTCHAR ordfeminine
ENCODING 170
SWIDTH 291 0
DWIDTH 7 0
BBX 7 24 0 -5
BITMAP
00
00
00
00
00
3c
66
1e
36
66
3e
00
7e
00
00
00
00
00
00
00
00
00
00
00
ENDCHAR
STARTCHAR guillemotleft
ENCODING 171
SWIDTH 416 0
DWIDTH 10 0
BBX 10 24 0 -5
BITMAP
0000
0000
0000
0000
0000
0000
0000
0000
0000
0000
0000
0000
1100
3300
6600
3300
1100
0000
0000
0000
0000
0000
0000
0000
ENDCHAR
STARTCHAR logicalnot
ENCODING 172
SWIDTH 458 0
DWIDTH 11 0
BBX 11 24 0 -5
BITMAP
0000
0000
0000
0000
0000
0000
0000
0000
0000
0000
0000
7fc0
7fc0
00c0
00c0
00c0
0000
0000
0000
0000
0000
0000
0000
0000
ENDCHAR
STARTCHAR hyphen
ENCODING 173
SWIDTH 250 0
DWIDTH 6 0
BBX 6 24 0 -5
BITMAP
00
00
00
00
00
00
00
00
00
00
00
00
00
fc
fc
00
00
00
00
00
00
00
00
00
ENDCHAR
STARTCHAR registered
ENCODING 174
SWIDTH 583 0
DWIDTH 14 0
BBX 14 24 0 -5
BITMAP
0000
0000
0000
0000
0000
07c0
1c70
3018
2fc8
6c6c
4c64
4c64
4fc4
4c64
6c6c
2c68
3018
1c70
07c0
0000
0000
0000
0000
0000
ENDCHAR
STARTCHAR macron
ENCODING 175
SWIDTH 416 0
DWIDTH 10 0
BBX 10 24 0 -5
BITMAP
0000
0000
ffc0
ffc0
0000
0000
0000
0000
0000
0000
0000
0000
0000
0000
0000
0000
0000
0000
0000
0000
0000
0000
0000
0000
ENDCHAR
STARTCHAR degree
ENCODING 176
SWIDTH 250 0
DWIDTH 6 0
BBX 6 24 0 -5
BITMAP
00
00
00
00
00
38
6c
44
6c
38
00
00
00
00
00
00
00
00
00
00
00
00
00
00
ENDCHAR
STARTCHAR plusminus
ENCODING 177
SWIDTH 458 0
DWIDTH 11 0
BBX 11 24 0 -5
BITMAP
0000
0000
0000
0000
0000
0000
0000
0000
0600
0600
0600
3fc0
3fc0
0600
0600
0600
0000
3fc0
3fc0
0000
0000
0000
0000
0000
ENDCHAR
STARTCHAR twosuperior
ENCODING 178
SWIDTH 208 0
DWIDTH 5 0
BBX 5 24 0 -5
BITMAP
00
00
00
00
00
70
d8
98
30
60
c0
f8
00
00
00
00
00
00
00
00
00
00
00
00
ENDCHAR
STARTCHAR threesuperior
ENCODING 168
SWIDTH 208 0
DWIDTH 5 0
BBX 5 24 0 -5
BITMAP
00
00
00
00
00
70
d8
18
70
18
d8
70
00
00
00
00
00
00
00
00
00
00
00
00
ENDCHAR
STARTCHAR acute
ENCODING 180
SWIDTH 250 0
DWIDTH 6 0
BBX 6 24 0 -5
BITMAP
00
00
00
00
00
38
60
40
00
00
00
00
00
00
00
00
00
00
00
00
00
00
00
00
ENDCHAR
STARTCHAR mu
ENCODING 181
SWIDTH 375 0
DWIDTH 9 0
BBX 9 24 0 -5
BITMAP
0000
0000
0000
0000
0000
0000
0000
0000
0000
6180
6180
6180
6180
6180
6180
6180
7380
7f80
6d80
6000
6000
6000
6000
0000
ENDCHAR
STARTCHAR paragraph
ENCODING 182
SWIDTH 416 0
DWIDTH 10 0
BBX 10 24 0 -5
BITMAP
0000
0000
0000
0000
0000
0f80
3d00
3d00
7d00
7d00
7d00
3d00
3d00
0d00
0500
0500
0500
0500
0500
0500
0500
0000
0000
0000
ENDCHAR
STARTCHAR periodcentered
ENCODING 183
SWIDTH 208 0
DWIDTH 5 0
BBX 5 24 0 -5
BITMAP
00
00
00
00
00
00
00
00
00
00
30
30
00
00
00
00
00
00
00
00
00
00
00
00
ENDCHAR
STARTCHAR cedilla
ENCODING 184
SWIDTH 250 0
DWIDTH 6 0
BBX 6 24 0 -5
BITMAP
00
00
00
00
00
00
00
00
00
00
00
00
00
00
00
00
00
00
00
20
38
18
f0
00
ENDCHAR
STARTCHAR onesuperior
ENCODING 185
SWIDTH 208 0
DWIDTH 5 0
BBX 5 24 0 -5
BITMAP
00
00
00
00
00
30
70
f0
30
30
30
30
00
00
00
00
00
00
00
00
00
00
00
00
ENDCHAR
STARTCHAR ordmasculine
ENCODING 186
SWIDTH 291 0
DWIDTH 7 0
BBX 7 24 0 -5
BITMAP
00
00
00
00
00
3c
66
66
66
66
3c
00
7e
00
00
00
00
00
00
00
00
00
00
00
ENDCHAR
STARTCHAR guillemotright
ENCODING 187
SWIDTH 416 0
DWIDTH 10 0
BBX 10 24 0 -5
BITMAP
0000
0000
0000
0000
0000
0000
0000
0000
0000
0000
0000
0000
2200
3300
1980
3300
2200
0000
0000
0000
0000
0000
0000
0000
ENDCHAR
STARTCHAR onequarter
ENCODING 188
SWIDTH 625 0
DWIDTH 15 0
BBX 15 24 0 -5
BITMAP
0000
0000
0000
0000
0000
1818
3830
7830
1860
18c0
18c0
1980
0318
0638
0658
0c98
18f8
1818
3018
0000
0000
0000
0000
0000
ENDCHAR
STARTCHAR onehalf
ENCODING 189
SWIDTH 625 0
DWIDTH 15 0
BBX 15 24 0 -5
BITMAP
0000
0000
0000
0000
0000
1818
3830
7830
1860
18c0
18c0
1980
0370
06d8
0698
0c30
1860
18c0
30f8
0000
0000
0000
0000
0000
ENDCHAR
STARTCHAR threequarters
ENCODING 190
SWIDTH 625 0
DWIDTH 15 0
BBX 15 24 0 -5
BITMAP
0000
0000
0000
0000
0000
3818
6c30
0c30
3860
0cc0
6cc0
3980
0318
0638
0658
0c98
18f8
1818
3018
0000
0000
0000
0000
0000
ENDCHAR
STARTCHAR questiondown
ENCODING 191
SWIDTH 416 0
DWIDTH 10 0
BBX 10 24 0 -5
BITMAP
0000
0000
0000
0000
0000
0c00
0c00
0000
0c00
0c00
1800
3800
7000
6000
c180
c180
6300
7f00
1c00
0000
0000
0000
0000
0000
ENDCHAR
STARTCHAR cyr-A
ENCODING 192
SWIDTH 541 0
DWIDTH 13 0
BBX 13 24 0 -5
BITMAP
0000
0000
0000
0000
0000
0700
0700
0d80
0d80
18c0
18c0
18c0
3060
3fe0
7ff0
6030
6030
c018
c018
0000
0000
0000
0000
0000
ENDCHAR
STARTCHAR cyr-Be
ENCODING 193
SWIDTH 500 0
DWIDTH 12 0
BBX 12 24 0 -5
BITMAP
0000
0000
0000
0000
0000
7fc0
7fc0
6000
6000
6000
6000
7fc0
7fc0
60e0
6060
6060
60e0
7fc0
7f80
0000
0000
0000
0000
0000
ENDCHAR
STARTCHAR cyr-Ve
ENCODING 194
SWIDTH 500 0
DWIDTH 12 0
BBX 12 24 0 -5
BITMAP
0000
0000
0000
0000
0000
7f80
7fc0
60e0
6060
6060
60e0
7fc0
7fc0
60e0
6060
6060
60e0
7fc0
7f80
0000
0000
0000
0000
0000
ENDCHAR
STARTCHAR cyr-Ghe
ENCODING 195
SWIDTH 541 0
DWIDTH 13 0
BBX 13 24 0 -5
BITMAP
0000
0000
0000
0000
0000
7ff0
7ff0
6000
6000
6000
6000
6000
6000
6000
6000
6000
6000
6000
6000
0000
0000
0000
0000
0000
ENDCHAR
STARTCHAR cyr-De
ENCODING 196
SWIDTH 625 0
DWIDTH 15 0
BBX 15 24 0 -5
BITMAP
0000
0000
0000
0000
0000
0ff0
0ff0
0c30
0c30
0c30
0c30
0c30
0c30
0c30
0c30
0c30
1830
7ffc
7ffc
600c
600c
0000
0000
0000
ENDCHAR
STARTCHAR cyr-Ie
ENCODING 197
SWIDTH 541 0
DWIDTH 13 0
BBX 13 24 0 -5
BITMAP
0000
0000
0000
0000
0000
7ff0
7ff0
6000
6000
6000
6000
7fe0
7fe0
6000
6000
6000
6000
7ff0
7ff0
0000
0000
0000
0000
0000
ENDCHAR
STARTCHAR cyr-Zhe
ENCODING 198
SWIDTH 750 0
DWIDTH 18 0
BBX 18 24 0 -5
BITMAP
000000
000000
000000
000000
000000
60c180
70c380
38c700
1cce00
0edc00
07f800
03f000
07f800
0edc00
1cce00
38c700
70c380
e0c1c0
c0c0c0
000000
000000
000000
000000
000000
ENDCHAR
STARTCHAR cyr-Ze
ENCODING 199
SWIDTH 458 0
DWIDTH 11 0
BBX 11 24 0 -5
BITMAP
0000
0000
0000
0000
0000
1f00
3f80
60c0
00c0
00c0
0180
0700
0700
0180
00c0
00c0
60c0
3f80
1f00
0000
0000
0000
0000
0000
ENDCHAR
STARTCHAR cyr-I
ENCODING 200
SWIDTH 583 0
DWIDTH 14 0
BBX 14 24 0 -5
BITMAP
0000
0000
0000
0000
0000
6018
6018
6038
6078
60f8
61d8
6398
6718
6e18
7c18
7818
7018
6018
6018
0000
0000
0000
0000
0000
ENDCHAR
STARTCHAR cyr-I-short
ENCODING 201
SWIDTH 583 0
DWIDTH 14 0
BBX 14 24 0 -5
BITMAP
0000
0000
1860
0fc0
0780
6018
6018
6038
6078
60f8
61d8
6398
6718
6e18
7c18
7818
7018
6018
6018
0000
0000
0000
0000
0000
ENDCHAR
STARTCHAR cyr-Ka
ENCODING 202
SWIDTH 500 0
DWIDTH 12 0
BBX 12 24 0 -5
BITMAP
0000
0000
0000
0000
0000
60e0
61c0
6380
6700
6e00
7c00
7800
7c00
6e00
6700
6380
61c0
60e0
6070
0000
0000
0000
0000
0000
ENDCHAR
STARTCHAR cyr-El
ENCODING 203
SWIDTH 541 0
DWIDTH 13 0
BBX 13 24 0 -5
BITMAP
0000
0000
0000
0000
0000
1ff0
1ff0
1830
1830
1830
1830
1830
1830
1830
1830
1830
1830
3830
7030
0000
0000
0000
0000
0000
ENDCHAR
STARTCHAR cyr-Em
ENCODING 204
SWIDTH 666 0
DWIDTH 16 0
BBX 16 24 0 -5
BITMAP
0000
0000
0000
0000
0000
6006
6006
700e
700e
781e
781e
6c36
6c36
6666
6666
63c6
63c6
6186
6186
0000
0000
0000
0000
0000
ENDCHAR
STARTCHAR cyr-En
ENCODING 205
SWIDTH 583 0
DWIDTH 14 0
BBX 14 24 0 -5
BITMAP
0000
0000
0000
0000
0000
6018
6018
6018
6018
6018
6018
7ff8
7ff8
6018
6018
6018
6018
6018
6018
0000
0000
0000
0000
0000
ENDCHAR
STARTCHAR cyr-O
ENCODING 206
SWIDTH 625 0
DWIDTH 15 0
BBX 15 24 0 -5
BITMAP
0000
0000
0000
0000
0000
07c0
1ff0
3838
3018
600c
600c
600c
600c
600c
600c
3018
3838
1ff0
07c0
0000
0000
0000
0000
0000
ENDCHAR
STARTCHAR cyr-Pe
ENCODING 207
SWIDTH 583 0
DWIDTH 14 0
BBX 14 24 0 -5
BITMAP
0000
0000
0000
0000
0000
7ff8
7ff8
6018
6018
6018
6018
6018
6018
6018
6018
6018
6018
6018
6018
0000
0000
0000
0000
0000
ENDCHAR
STARTCHAR cyr-Er
ENCODING 208
SWIDTH 500 0
DWIDTH 12 0
BBX 12 24 0 -5
BITMAP
0000
0000
0000
0000
0000
7f80
7fe0
6060
6030
6030
6030
6060
7fe0
7f80
6000
6000
6000
6000
6000
0000
0000
0000
0000
0000
ENDCHAR
STARTCHAR cyr-Es
ENCODING 209
SWIDTH 541 0
DWIDTH 13 0
BBX 13 24 0 -5
BITMAP
0000
0000
0000
0000
0000
07c0
1ff0
3838
3018
6000
6000
6000
6000
6000
6000
3018
3838
1ff0
07c0
0000
0000
0000
0000
0000
ENDCHAR
STARTCHAR cyr-Te
ENCODING 210
SWIDTH 500 0
DWIDTH 12 0
BBX 12 24 0 -5
BITMAP
0000
0000
0000
0000
0000
fff0
fff0
0600
0600
0600
0600
0600
0600
0600
0600
0600
0600
0600
0600
0000
0000
0000
0000
0000
ENDCHAR
STARTCHAR cyr-U
ENCODING 211
SWIDTH 500 0
DWIDTH 12 0
BBX 12 24 0 -5
BITMAP
0000
0000
0000
0000
0000
c030
c030
6060
6060
30c0
30c0
1980
1980
0f00
0700
0600
0e00
3c00
3800
0000
0000
0000
0000
0000
ENDCHAR
STARTCHAR cyr-Ef
ENCODING 212
SWIDTH 666 0
DWIDTH 16 0
BBX 16 24 0 -5
BITMAP
0000
0000
0000
0000
0000
07e0
1ff8
399c
318c
6186
6186
6186
6186
6186
318c
399c
1ff8
07e0
0180
0000
0000
0000
0000
0000
ENDCHAR
STARTCHAR cyr-Kha
ENCODING 213
SWIDTH 583 0
DWIDTH 14 0
BBX 14 24 0 -5
BITMAP
0000
0000
0000
0000
0000
c00c
e01c
7038
3870
1ce0
0fc0
0780
0780
0fc0
1ce0
3870
7038
e01c
c00c
0000
0000
0000
0000
0000
ENDCHAR
STARTCHAR cyr-Tse
ENCODING 214
SWIDTH 583 0
DWIDTH 14 0
BBX 14 24 0 -5
BITMAP
0000
0000
0000
0000
0000
6030
6030
6030
6030
6030
6030
6030
6030
6030
6030
6030
6030
7ff0
7ff8
0018
0018
0000
0000
0000
ENDCHAR
STARTCHAR cyr-Che
ENCODING 215
SWIDTH 583 0
DWIDTH 14 0
BBX 14 24 0 -5
BITMAP
0000
0000
0000
0000
0000
6018
6018
6018
6018
6018
7018
3ff8
1ff8
0018
0018
0018
0018
0018
0018
0000
0000
0000
0000
0000
ENDCHAR
STARTCHAR cyr-Sha
ENCODING 216
SWIDTH 750 0
DWIDTH 18 0
BBX 18 24 0 -5
BITMAP
000000
000000
000000
000000
000000
60c180
60c180
60c180
60c180
60c180
60c180
60c180
60c180
60c180
60c180
60c180
60c180
7fff80
7fff80
000000
000000
000000
000000
000000
ENDCHAR
STARTCHAR cyr-Shcha
ENCODING 217
SWIDTH 791 0
DWIDTH 19 0
BBX 19 24 0 -5
BITMAP
000000
000000
000000
000000
000000
60c180
60c180
60c180
60c180
60c180
60c180
60c180
60c180
60c180
60c180
60c180
60c180
7fffc0
7fffc0
0000c0
0000c0
000000
000000
000000
ENDCHAR
STARTCHAR cyr-Ier
ENCODING 218
SWIDTH 625 0
DWIDTH 15 0
BBX 15 24 0 -5
BITMAP
0000
0000
0000
0000
0000
7800
7800
1800
1800
1800
1ff0
1ff8
181c
180c
180c
180c
181c
1ff8
1ff0
0000
0000
0000
0000
0000
ENDCHAR
STARTCHAR cyr-Iery
ENCODING 219
SWIDTH 666 0
DWIDTH 16 0
BBX 16 24 0 -5
BITMAP
0000
0000
0000
0000
0000
6006
6006
6006
6006
6006
7fc6
7fe6
6076
6036
6036
6036
6076
7fe6
7fc6
0000
0000
0000
0000
0000
ENDCHAR
STARTCHAR cyr-Ierik
ENCODING 220
SWIDTH 541 0
DWIDTH 13 0
BBX 13 24 0 -5
BITMAP
0000
0000
0000
0000
0000
6000
6000
6000
6000
6000
7fc0
7fe0
6070
6030
6030
6030
6070
7fe0
7fc0
0000
0000
0000
0000
0000
ENDCHAR
STARTCHAR cyr-E-rev
ENCODING 221
SWIDTH 541 0
DWIDTH 13 0
BBX 13 24 0 -5
BITMAP
0000
0000
0000
0000
0000
1f80
3fc0
70e0
0070
0030
0030
07f0
07f0
0030
0030
0060
70e0
3fc0
1f80
0000
0000
0000
0000
0000
ENDCHAR
STARTCHAR cyr-Yu
ENCODING 222
SWIDTH 666 0
DWIDTH 16 0
BBX 16 24 0 -5
BITMAP
0000
0000
0000
0000
0000
60f0
63fc
670e
6606
6c03
6c03
7c03
7c03
6c03
6c03
6606
670e
63fc
60f0
0000
0000
0000
0000
0000
ENDCHAR
STARTCHAR cyr-Ya
ENCODING 223
SWIDTH 541 0
DWIDTH 13 0
BBX 13 24 0 -5
BITMAP
0000
0000
0000
0000
0000
1ff0
3ff0
7030
6030
6030
6030
7030
3ff0
1ff0
03b0
0730
0e30
1c30
3830
7030
0000
0000
0000
0000
ENDCHAR
STARTCHAR cyr-a
ENCODING 224
SWIDTH 416 0
DWIDTH 10 0
BBX 10 24 0 -5
BITMAP
0000
0000
0000
0000
0000
0000
0000
0000
0000
1e00
3f00
7380
0180
0f80
3980
6180
6380
7fc0
3cc0
0000
0000
0000
0000
0000
ENDCHAR
STARTCHAR cyr-be
ENCODING 225
SWIDTH 458 0
DWIDTH 11 0
BBX 11 24 0 -5
BITMAP
0000
0000
0000
0000
0000
0180
1f80
3f00
7000
6f00
7f80
71c0
60c0
60c0
60c0
60c0
71c0
3f80
1f00
0000
0000
0000
0000
0000
ENDCHAR
STARTCHAR cyr-ve
ENCODING 226
SWIDTH 416 0
DWIDTH 10 0
BBX 10 24 0 -5
BITMAP
0000
0000
0000
0000
0000
0000
0000
0000
0000
7f00
7f00
6180
6180
7f00
7f00
6180
6180
7f80
7f00
0000
0000
0000
0000
0000
ENDCHAR
STARTCHAR cyr-ghe
ENCODING 227
SWIDTH 375 0
DWIDTH 9 0
BBX 9 24 0 -5
BITMAP
0000
0000
0000
0000
0000
0000
0000
0000
0000
7f80
7f80
6000
6000
6000
6000
6000
6000
6000
6000
0000
0000
0000
0000
0000
ENDCHAR
STARTCHAR cyr-de
ENCODING 228
SWIDTH 541 0
DWIDTH 13 0
BBX 13 24 0 -5
BITMAP
0000
0000
0000
0000
0000
0000
0000
0000
0000
0fe0
0fe0
0c60
0c60
0c60
0c60
0c60
1860
7ff8
7ff8
6018
6018
0000
0000
0000
ENDCHAR
STARTCHAR cyr-ie
ENCODING 229
SWIDTH 458 0
DWIDTH 11 0
BBX 11 24 0 -5
BITMAP
0000
0000
0000
0000
0000
0000
0000
0000
0000
0e00
3f80
3180
60c0
7fc0
7fc0
6000
30c0
3f80
0e00
0000
0000
0000
0000
0000
ENDCHAR
STARTCHAR cyr-zhe
ENCODING 230
SWIDTH 666 0
DWIDTH 16 0
BBX 16 24 0 -5
BITMAP
0000
0000
0000
0000
0000
0000
0000
0000
0000
e187
718e
399c
1db8
0ff0
0ff0
1db8
399c
718e
e187
c183
0000
0000
0000
0000
ENDCHAR
STARTCHAR cyr-z
ENCODING 231
SWIDTH 416 0
DWIDTH 10 0
BBX 10 24 0 -5
BITMAP
0000
0000
0000
0000
0000
0000
0000
0000
0000
3f00
7f80
6180
0180
0f00
0f80
0180
6180
7f80
3f00
0000
0000
0000
0000
0000
ENDCHAR
STARTCHAR cyr-i
ENCODING 232
SWIDTH 458 0
DWIDTH 11 0
BBX 11 24 0 -5
BITMAP
0000
0000
0000
0000
0000
0000
0000
0000
0000
60c0
60c0
61c0
63c0
66c0
6cc0
78c0
70c0
60c0
60c0
0000
0000
0000
0000
0000
ENDCHAR
STARTCHAR cyr-i-short
ENCODING 233
SWIDTH 458 0
DWIDTH 11 0
BBX 11 24 0 -5
BITMAP
0000
0000
0000
0000
0000
0000
0000
1b00
0e00
60c0
60c0
61c0
63c0
66c0
6cc0
78c0
70c0
60c0
60c0
0000
0000
0000
0000
0000
ENDCHAR
STARTCHAR cyr-ka
ENCODING 234
SWIDTH 375 0
DWIDTH 9 0
BBX 9 24 0 -5
BITMAP
0000
0000
0000
0000
0000
0000
0000
0000
0000
6180
6300
6600
6c00
7800
7c00
6600
6300
6180
6080
0000
0000
0000
0000
0000
ENDCHAR
STARTCHAR cyr-el
ENCODING 235
SWIDTH 458 0
DWIDTH 11 0
BBX 11 24 0 -5
BITMAP
0000
0000
0000
0000
0000
0000
0000
0000
0000
1fc0
1fc0
18c0
18c0
18c0
18c0
18c0
18c0
38c0
70c0
0000
0000
0000
0000
0000
ENDCHAR
STARTCHAR cyr-em
ENCODING 236
SWIDTH 583 0
DWIDTH 14 0
BBX 14 24 0 -5
BITMAP
0000
0000
0000
0000
0000
0000
0000
0000
0000
6018
7038
7878
6cd8
6798
6318
6018
6018
6018
6018
0000
0000
0000
0000
0000
ENDCHAR
STARTCHAR cyr-en
ENCODING 237
SWIDTH 458 0
DWIDTH 11 0
BBX 11 24 0 -5
BITMAP
0000
0000
0000
0000
0000
0000
0000
0000
0000
60c0
60c0
60c0
60c0
7fc0
7fc0
60c0
60c0
60c0
60c0
0000
0000
0000
0000
0000
ENDCHAR
STARTCHAR cyr-o
ENCODING 238
SWIDTH 458 0
DWIDTH 11 0
BBX 11 24 0 -5
BITMAP
0000
0000
0000
0000
0000
0000
0000
0000
0000
0e00
3f80
3180
60c0
60c0
60c0
60c0
3180
3f80
0e00
0000
0000
0000
0000
0000
ENDCHAR
STARTCHAR cyr-pe
ENCODING 239
SWIDTH 458 0
DWIDTH 11 0
BBX 11 24 0 -5
BITMAP
0000
0000
0000
0000
0000
0000
0000
0000
0000
7fc0
7fc0
60c0
60c0
60c0
60c0
60c0
60c0
60c0
60c0
0000
0000
0000
0000
0000
ENDCHAR
STARTCHAR cyr-er
ENCODING 240
SWIDTH 458 0
DWIDTH 11 0
BBX 11 24 0 -5
BITMAP
0000
0000
0000
0000
0000
0000
0000
0000
0000
6e00
7f80
7180
60c0
60c0
60c0
60c0
7180
7f80
6e00
6000
6000
6000
6000
0000
ENDCHAR
STARTCHAR cyr-es
ENCODING 241
SWIDTH 416 0
DWIDTH 10 0
BBX 10 24 0 -5
BITMAP
0000
0000
0000
0000
0000
0000
0000
0000
0000
0e00
3f80
3180
60c0
6000
6000
60c0
3180
3f80
0e00
0000
0000
0000
0000
0000
ENDCHAR
STARTCHAR cyr-te
ENCODING 242
SWIDTH 500 0
DWIDTH 12 0
BBX 12 24 0 -5
BITMAP
0000
0000
0000
0000
0000
0000
0000
0000
0000
7fe0
7fe0
0600
0600
0600
0600
0600
0600
0600
0600
0600
0000
0000
0000
0000
ENDCHAR
STARTCHAR cyr-u
ENCODING 243
SWIDTH 375 0
DWIDTH 9 0
BBX 9 24 0 -5
BITMAP
0000
0000
0000
0000
0000
0000
0000
0000
0000
c180
c180
c180
6300
6300
3600
3600
3e00
1c00
1c00
1800
1800
7800
7000
0000
ENDCHAR
STARTCHAR cyr-ef
ENCODING 244
SWIDTH 583 0
DWIDTH 14 0
BBX 14 24 0 -5
BITMAP
0000
0000
0000
0000
0000
0000
0000
0000
0300
0fc0
3ff0
3330
6318
6318
6318
6318
3330
3ff0
0fc0
0300
0300
0300
0300
0300
ENDCHAR
STARTCHAR cyr-kha
ENCODING 245
SWIDTH 416 0
DWIDTH 10 0
BBX 10 24 0 -5
BITMAP
0000
0000
0000
0000
0000
0000
0000
0000
0000
c0c0
e1c0
7380
3f00
1e00
1e00
3f00
7380
e1c0
c0c0
0000
0000
0000
0000
0000
ENDCHAR
STARTCHAR cyr-tse
ENCODING 246
SWIDTH 500 0
DWIDTH 12 0
BBX 12 24 0 -5
BITMAP
0000
0000
0000
0000
0000
0000
0000
0000
0000
60c0
60c0
60c0
60c0
60c0
60c0
60c0
60c0
7fe0
7fe0
0060
0060
0000
0000
0000
ENDCHAR
STARTCHAR cyr-che
ENCODING 247
SWIDTH 458 0
DWIDTH 11 0
BBX 11 24 0 -5
BITMAP
0000
0000
0000
0000
0000
0000
0000
0000
0000
60c0
60c0
60c0
60c0
7fc0
3fc0
00c0
00c0
00c0
00c0
0000
0000
0000
0000
0000
ENDCHAR
STARTCHAR cyr-sha
ENCODING 248
SWIDTH 583 0
DWIDTH 14 0
BBX 14 24 0 -5
BITMAP
0000
0000
0000
0000
0000
0000
0000
0000
0000
6318
6318
6318
6318
6318
6318
6318
6318
7ff8
7ff8
0000
0000
0000
0000
0000
ENDCHAR
STARTCHAR cyr-shcha
ENCODING 249
SWIDTH 625 0
DWIDTH 15 0
BBX 15 24 0 -5
BITMAP
0000
0000
0000
0000
0000
0000
0000
0000
0000
6318
6318
6318
6318
6318
6318
6318
6318
7ffc
7ffc
000c
000c
0000
0000
0000
ENDCHAR
STARTCHAR cyr-ier
ENCODING 250
SWIDTH 541 0
DWIDTH 13 0
BBX 13 24 0 -5
BITMAP
0000
0000
0000
0000
0000
0000
0000
0000
0000
7800
7800
1800
1fe0
1ff0
1830
1830
1830
1ff0
1fe0
0000
0000
0000
0000
0000
ENDCHAR
STARTCHAR cyr-iery
ENCODING 251
SWIDTH 583 0
DWIDTH 14 0
BBX 14 24 0 -5
BITMAP
0000
0000
0000
0000
0000
0000
0000
0000
0000
6018
6018
6018
7f98
7fd8
60d8
60d8
60d8
7fd8
7f98
0000
0000
0000
0000
0000
ENDCHAR
STARTCHAR cyr-ierik
ENCODING 252
SWIDTH 458 0
DWIDTH 11 0
BBX 11 24 0 -5
BITMAP
0000
0000
0000
0000
0000
0000
0000
0000
0000
6000
6000
6000
7f80
7fc0
60c0
60c0
60c0
7fc0
7f80
0000
0000
0000
0000
0000
ENDCHAR
STARTCHAR cyr-e-rev
ENCODING 253
SWIDTH 416 0
DWIDTH 10 0
BBX 10 24 0 -5
BITMAP
0000
0000
0000
0000
0000
0000
0000
0000
0000
1e00
3f00
6380
0180
0f80
0f80
0180
6380
3f00
1e00
0000
0000
0000
0000
0000
ENDCHAR
STARTCHAR cyr-yu
ENCODING 254
SWIDTH 583 0
DWIDTH 14 0
BBX 14 24 0 -5
BITMAP
0000
0000
0000
0000
0000
0000
0000
0000
0000
61c0
67f0
6630
6c18
7c18
7c18
6c18
6630
67f0
61c0
0000
0000
0000
0000
0000
ENDCHAR
STARTCHAR cyr-ya
ENCODING 255
SWIDTH 458 0
DWIDTH 11 0
BBX 11 24 0 -5
BITMAP
0000
0000
0000
0000
0000
0000
0000
0000
0000
3fc0
7fc0
60c0
60c0
60c0
7fc0
3fc0
1cc0
38c0
70c0
0000
0000
0000
0000
0000
ENDCHAR
ENDFONT
