#define u8g2_logo_128x64_width 128
#define u8g2_logo_128x64_height 64
static unsigned char u8g2_logo_128x64_bits[] = {
   0x00, 0x00, 0x00, 0x00, 0x00, 0x00, 0x00, 0x00, 0x00, 0x00, 0x00, 0x00,
   0x00, 0x00, 0x00, 0x00, 0x00, 0x00, 0x00, 0x00, 0x00, 0x00, 0x00, 0x00,
   0x00, 0x00, 0x00, 0x00, 0x00, 0x00, 0x00, 0x00, 0x00, 0x00, 0x00, 0x00,
   0x00, 0x00, 0x00, 0x00, 0x00, 0x00, 0x00, 0x00, 0x00, 0x00, 0x00, 0x00,
   0x00, 0x00, 0x00, 0x00, 0x00, 0x00, 0x00, 0x00, 0x00, 0x00, 0x00, 0x00,
   0x00, 0x00, 0x00, 0x00, 0x00, 0x00, 0x00, 0x00, 0x00, 0x00, 0x00, 0x00,
   0x00, 0x00, 0x00, 0x00, 0x00, 0x00, 0x00, 0x00, 0x00, 0x00, 0x00, 0x00,
   0x00, 0x00, 0x00, 0x00, 0x00, 0x00, 0x00, 0x00, 0x00, 0x00, 0x00, 0x00,
   0x3c, 0x80, 0x07, 0x00, 0x00, 0x00, 0x00, 0x00, 0x00, 0xf8, 0x00, 0x00,
   0x00, 0x00, 0x00, 0x00, 0x3c, 0x80, 0x07, 0x00, 0x00, 0x00, 0x00, 0x00,
   0x00, 0xfe, 0x03, 0x00, 0x00, 0x00, 0x00, 0x00, 0x3c, 0x80, 0x07, 0x00,
   0x00, 0x00, 0x00, 0x00, 0x00, 0xff, 0x03, 0x00, 0x00, 0x00, 0x00, 0x00,
   0x3c, 0x80, 0x07, 0x00, 0x00, 0x00, 0x00, 0x00, 0x80, 0xcf, 0x07, 0x00,
   0x00, 0x00, 0x00, 0x00, 0x3c, 0x80, 0x07, 0x00, 0x00, 0x00, 0x00, 0x00,
   0x80, 0x83, 0x07, 0x00, 0x00, 0x00, 0x00, 0x00, 0x3c, 0x80, 0x07, 0xf8,
   0x00, 0x00, 0x00, 0x00, 0x00, 0x81, 0x07, 0x00, 0x00, 0x00, 0x00, 0x00,
   0x3c, 0x80, 0x07, 0xfc, 0x03, 0x1c, 0x00, 0x3e, 0x1c, 0xc0, 0x03, 0x00,
   0x00, 0x00, 0x00, 0x00, 0x3c, 0x80, 0x07, 0xff, 0x07, 0x7f, 0x80, 0xff,
   0x3f, 0xe0, 0x01, 0x00, 0x00, 0x00, 0x00, 0x00, 0x3c, 0x80, 0x07, 0xff,
   0x8f, 0xff, 0xc1, 0xff, 0x3f, 0xf0, 0x00, 0x00, 0x00, 0x00, 0x00, 0x00,
   0x3c, 0x80, 0x87, 0xff, 0xdf, 0xff, 0xc1, 0xc3, 0x07, 0x7c, 0x00, 0x00,
   0x00, 0x00, 0x00, 0x00, 0x3c, 0x80, 0x87, 0x0f, 0xfe, 0xff, 0xe3, 0x81,
   0x03, 0x1e, 0x00, 0x00, 0x00, 0x00, 0x00, 0x00, 0x3c, 0x80, 0xc7, 0x07,
   0xfc, 0xe3, 0xe3, 0x81, 0x07, 0x0f, 0x00, 0x00, 0x00, 0x00, 0x00, 0x00,
   0x3c, 0x80, 0xc7, 0x07, 0xf8, 0xc1, 0xe7, 0x81, 0x87, 0xff, 0x07, 0x00,
   0x00, 0x00, 0x00, 0x00, 0x3c, 0x80, 0xc7, 0x03, 0xf0, 0x80, 0xe7, 0xc3,
   0x87, 0xff, 0x07, 0x00, 0x00, 0x00, 0x00, 0x00, 0x3c, 0x80, 0xc7, 0x03,
   0x70, 0x80, 0xc7, 0xe7, 0x83, 0xff, 0x07, 0x00, 0x00, 0x00, 0x00, 0x00,
   0x3c, 0x80, 0xc7, 0x03, 0x78, 0x80, 0xc7, 0xff, 0x03, 0x00, 0x00, 0x00,
   0x00, 0x00, 0x00, 0x00, 0x3c, 0x80, 0xc7, 0x03, 0xf8, 0xc0, 0x87, 0xff,
   0x01, 0x00, 0x00, 0x00, 0x00, 0x00, 0x00, 0x00, 0x3c, 0x80, 0xc7, 0x07,
   0xfc, 0xc1, 0xc7, 0x7f, 0x00, 0x00, 0x00, 0x00, 0x00, 0x00, 0x00, 0x00,
   0x3c, 0xc0, 0x87, 0x0f, 0xfe, 0xff, 0xe3, 0x01, 0x00, 0x00, 0x00, 0x00,
   0x00, 0x00, 0x00, 0x00, 0x78, 0xc0, 0x83, 0xff, 0xdf, 0xff, 0xe3, 0x03,
   0x00, 0x00, 0x00, 0x00, 0x00, 0x00, 0x00, 0x00, 0xf8, 0xf1, 0x03, 0xff,
   0x8f, 0xff, 0xe1, 0xff, 0x07, 0x00, 0x00, 0x00, 0x00, 0x00, 0x00, 0x00,
   0xf0, 0xff, 0x01, 0xfe, 0x0f, 0xff, 0xc0, 0xff, 0x0f, 0x00, 0x00, 0x00,
   0x00, 0x00, 0x00, 0x00, 0xe0, 0xff, 0x00, 0xfc, 0x03, 0x7c, 0xc0, 0xff,
   0x1f, 0x00, 0x00, 0x00, 0x00, 0x00, 0x00, 0x00, 0x80, 0x3f, 0x00, 0xf8,
   0x01, 0x00, 0xe0, 0x01, 0x1e, 0x00, 0x00, 0x00, 0x00, 0x00, 0x00, 0x00,
   0x00, 0x00, 0x00, 0x00, 0x00, 0x00, 0xf0, 0x00, 0x1e, 0x00, 0x00, 0x00,
   0x00, 0x00, 0x00, 0x00, 0x00, 0x00, 0x00, 0x00, 0x00, 0x00, 0xf0, 0x00,
   0x1e, 0x00, 0x00, 0x00, 0x00, 0x00, 0x00, 0x00, 0x00, 0x00, 0x00, 0x00,
   0x00, 0x20, 0xf0, 0xc7, 0x0f, 0x00, 0x00, 0x00, 0x00, 0x00, 0x00, 0x00,
   0x00, 0x00, 0x00, 0x00, 0x00, 0x60, 0xe0, 0xff, 0x0f, 0x00, 0x00, 0x00,
   0x00, 0x00, 0x00, 0x00, 0x00, 0x00, 0x00, 0x00, 0x00, 0x60, 0xc0, 0xff,
   0x03, 0x00, 0x00, 0x00, 0x00, 0x00, 0x00, 0x00, 0xfc, 0xff, 0xff, 0xff,
   0xff, 0xff, 0x01, 0xff, 0x00, 0x00, 0x00, 0x00, 0x00, 0x00, 0x00, 0x00,
   0xf8, 0xff, 0xff, 0xff, 0xff, 0xff, 0x03, 0x00, 0x00, 0x00, 0x00, 0x00,
   0x00, 0x00, 0x00, 0x00, 0x00, 0x00, 0x00, 0x00, 0x00, 0x60, 0x00, 0x00,
   0x00, 0x00, 0x00, 0x00, 0x00, 0x00, 0x00, 0x00, 0x00, 0x00, 0x00, 0x00,
   0x00, 0x60, 0x00, 0x00, 0x00, 0x00, 0x00, 0x00, 0x00, 0x00, 0x00, 0x00,
   0x00, 0x00, 0x00, 0x00, 0x00, 0x60, 0x00, 0x00, 0x00, 0x00, 0x00, 0x00,
   0x00, 0x00, 0x00, 0x00, 0x00, 0x00, 0x00, 0x00, 0x00, 0x60, 0x00, 0x00,
   0x00, 0x00, 0x00, 0x00, 0x00, 0x00, 0x00, 0x00, 0x00, 0x00, 0x00, 0x00,
   0x00, 0x60, 0x00, 0x00, 0x00, 0x00, 0x00, 0x00, 0x00, 0x00, 0x00, 0x00,
   0x00, 0x00, 0x00, 0x00, 0x00, 0x60, 0x00, 0x00, 0x00, 0x00, 0x00, 0x00,
   0x00, 0x00, 0x00, 0x00, 0x00, 0x00, 0x00, 0x00, 0x00, 0x60, 0x00, 0x00,
   0x00, 0x00, 0x00, 0x00, 0x00, 0x00, 0x00, 0x00, 0x00, 0x00, 0x00, 0x00,
   0x00, 0x40, 0x00, 0x00, 0x00, 0x00, 0x00, 0x00, 0x00, 0x00, 0x00, 0x00,
   0x00, 0x00, 0x00, 0x00, 0x00, 0x00, 0x00, 0x00, 0x00, 0x00, 0x00, 0x00,
   0x00, 0x00, 0x00, 0x00, 0x00, 0x00, 0x00, 0x00, 0x00, 0x00, 0x00, 0x00,
   0x00, 0x00, 0x00, 0x00, 0x00, 0x00, 0x00, 0x00, 0x00, 0x00, 0x00, 0x00,
   0x00, 0x00, 0x00, 0x00, 0x00, 0x00, 0x00, 0x00, 0x00, 0x00, 0x00, 0x00,
   0x00, 0x00, 0x00, 0x00, 0x00, 0x00, 0x00, 0x00, 0x00, 0x00, 0x00, 0x00,
   0x00, 0x00, 0x00, 0x00, 0x40, 0x24, 0x20, 0x00, 0x00, 0x08, 0x46, 0x02,
   0x00, 0x80, 0xc0, 0x40, 0x00, 0x00, 0x00, 0x00, 0x0c, 0x6e, 0x6a, 0xc0,
   0xa4, 0x48, 0x04, 0xaa, 0xac, 0x8c, 0xaa, 0xac, 0x00, 0x00, 0x00, 0x00,
   0x6a, 0xa4, 0xaa, 0x20, 0xea, 0xa4, 0x64, 0x66, 0xaa, 0x46, 0x4a, 0x8a,
   0x00, 0x00, 0x00, 0x00, 0x4c, 0xa4, 0xaa, 0x20, 0xaa, 0xa2, 0x44, 0x2a,
   0xaa, 0x28, 0xaa, 0x4c, 0x00, 0x00, 0x00, 0x00, 0xe8, 0xa8, 0x6c, 0xc4,
   0xa4, 0x42, 0xee, 0x2a, 0xcc, 0x26, 0x6c, 0xe8, 0x00, 0x00, 0x00, 0x00,
   0x06, 0x00, 0x00, 0x00, 0x00, 0x00, 0x00, 0x00, 0x00, 0x00, 0x00, 0x06,
   0x00, 0x00, 0x00, 0x00, 0x00, 0x00, 0x00, 0x00, 0x00, 0x00, 0x00, 0x00,
   0x00, 0x00, 0x00, 0x00, 0x00, 0x00, 0x00, 0x00, 0x00, 0x00, 0x00, 0x00,
   0x00, 0x00, 0x00, 0x00, 0x00, 0x00, 0x00, 0x00, 0x00, 0x00, 0x00, 0x00,
   0x00, 0x00, 0x00, 0x00, 0x00, 0x00, 0x00, 0x00, 0x00, 0x00, 0x00, 0x00,
   0x00, 0x00, 0x00, 0x00, 0x00, 0x00, 0x00, 0x00, 0x00, 0x00, 0x00, 0x00,
   0x00, 0x00, 0x00, 0x00, 0x00, 0x00, 0x00, 0x00, 0x00, 0x00, 0x00, 0x00,
   0x00, 0x00, 0x00, 0x00, 0x00, 0x00, 0x00, 0x00, 0x00, 0x00, 0x00, 0x00,
   0x00, 0x00, 0x00, 0x00, 0x00, 0x00, 0x00, 0x00, 0x00, 0x00, 0x00, 0x00,
   0x00, 0x00, 0x00, 0x00, 0x00, 0x00, 0x00, 0x00, 0x00, 0x00, 0x00, 0x00,
   0x00, 0x00, 0x00, 0x00, 0x00, 0x00, 0x00, 0x00, 0x00, 0x00, 0x00, 0x00,
   0x00, 0x00, 0x00, 0x00, 0x00, 0x00, 0x00, 0x00, 0x00, 0x00, 0x00, 0x00,
   0x00, 0x00, 0x00, 0x00, 0x00, 0x00, 0x00, 0x00, 0x00, 0x00, 0x00, 0x00,
   0x00, 0x00, 0x00, 0x00 };
