STARTFONT 2.1
FONT "open_iconic_1x"
SIZE 16 75 75
FONTBOUNDINGBOX 16 16 0 0
STARTPROPERTIES 3
COPYRIGHT "unknown"
FONT_ASCENT 0
FONT_DESCENT 0
ENDPROPERTIES
STARTCHAR 64
ENCODING 64
DWIDTH 8 0
BBX 8 8 0 0
BITMAP
00
38
0c
06
06
06
00
00
ENDCHAR
STARTCHAR 65
ENCODING 65
DWIDTH 8 0
BBX 8 8 0 0
BITMAP
00
1c
30
60
60
60
00
00
ENDCHAR
STARTCHAR 66
ENCODING 66
DWIDTH 8 0
BBX 8 8 0 0
BITMAP
1c
5c
e3
c3
03
40
6e
2c
ENDCHAR
STARTCHAR 67
ENCODING 67
DWIDTH 8 0
BBX 8 8 0 0
BITMAP
3c
46
87
89
91
e1
62
3c
ENDCHAR
STARTCHAR 68
ENCODING 68
DWIDTH 8 0
BBX 8 8 0 0
BITMAP
86
86
b6
b6
b6
80
ff
00
ENDCHAR
STARTCHAR 69
ENCODING 69
DWIDTH 8 0
BBX 8 8 0 0
BITMAP
18
18
24
ff
7e
5a
5a
7e
ENDCHAR
STARTCHAR 70
ENCODING 70
DWIDTH 8 0
BBX 8 8 0 0
BITMAP
7e
24
24
66
42
ff
ff
ff
ENDCHAR
STARTCHAR 71
ENCODING 71
DWIDTH 8 0
BBX 8 8 0 0
BITMAP
18
3c
3c
3c
7e
ff
00
18
ENDCHAR
STARTCHAR 72
ENCODING 72
DWIDTH 8 0
BBX 8 8 0 0
BITMAP
10
18
64
38
38
64
18
10
ENDCHAR
STARTCHAR 73
ENCODING 73
DWIDTH 8 0
BBX 8 8 0 0
BITMAP
00
10
10
3c
78
10
10
00
ENDCHAR
STARTCHAR 74
ENCODING 74
DWIDTH 8 0
BBX 8 8 0 0
BITMAP
f2
f2
f2
fe
fe
fe
80
fe
ENDCHAR
STARTCHAR 75
ENCODING 75
DWIDTH 8 0
BBX 8 8 0 0
BITMAP
ff
00
e7
ff
ff
ff
ff
ff
ENDCHAR
STARTCHAR 76
ENCODING 76
DWIDTH 8 0
BBX 8 8 0 0
BITMAP
3c
24
ff
ff
ff
00
ff
ff
ENDCHAR
STARTCHAR 77
ENCODING 77
DWIDTH 8 0
BBX 8 8 0 0
BITMAP
ff
a1
ff
81
81
81
81
ff
ENDCHAR
STARTCHAR 78
ENCODING 78
DWIDTH 8 0
BBX 8 8 0 0
BITMAP
01
06
0e
0c
30
70
70
e0
ENDCHAR
STARTCHAR 79
ENCODING 79
DWIDTH 8 0
BBX 8 8 0 0
BITMAP
10
38
fe
7c
ee
6c
ee
00
ENDCHAR
STARTCHAR 80
ENCODING 80
DWIDTH 8 0
BBX 8 8 0 0
BITMAP
02
1a
fa
fa
7a
22
20
00
ENDCHAR
STARTCHAR 81
ENCODING 81
DWIDTH 8 0
BBX 8 8 0 0
BITMAP
fe
82
82
fe
aa
fa
aa
fe
ENDCHAR
STARTCHAR 82
ENCODING 82
DWIDTH 8 0
BBX 8 8 0 0
BITMAP
fe
fe
00
fe
aa
fe
ae
fe
ENDCHAR
STARTCHAR 83
ENCODING 83
DWIDTH 8 0
BBX 8 8 0 0
BITMAP
0c
1e
ff
b3
ed
ed
f3
ff
ENDCHAR
STARTCHAR 84
ENCODING 84
DWIDTH 8 0
BBX 8 8 0 0
BITMAP
00
e0
3f
1e
1e
00
12
00
ENDCHAR
STARTCHAR 85
ENCODING 85
DWIDTH 8 0
BBX 8 8 0 0
BITMAP
f8
c0
df
df
1f
1f
00
00
ENDCHAR
STARTCHAR 86
ENCODING 86
DWIDTH 8 0
BBX 8 8 0 0
BITMAP
00
02
07
4e
fc
78
30
00
ENDCHAR
STARTCHAR 87
ENCODING 87
DWIDTH 8 0
BBX 8 8 0 0
BITMAP
3c
7e
fb
f3
c7
ff
7e
3c
ENDCHAR
STARTCHAR 88
ENCODING 88
DWIDTH 8 0
BBX 8 8 0 0
BITMAP
3c
7e
db
e7
e7
db
7e
3c
ENDCHAR
STARTCHAR 89
ENCODING 89
DWIDTH 8 0
BBX 8 8 0 0
BITMAP
10
ba
82
fe
fe
fe
fe
fe
ENDCHAR
STARTCHAR 90
ENCODING 90
DWIDTH 8 0
BBX 8 8 0 0
BITMAP
3c
42
81
81
89
81
42
3c
ENDCHAR
STARTCHAR 91
ENCODING 91
DWIDTH 8 0
BBX 8 8 0 0
BITMAP
00
1c
3e
7e
ff
ff
7f
00
ENDCHAR
STARTCHAR 92
ENCODING 92
DWIDTH 8 0
BBX 8 8 0 0
BITMAP
1c
3e
7e
e3
eb
08
1c
08
ENDCHAR
STARTCHAR 93
ENCODING 93
DWIDTH 8 0
BBX 8 8 0 0
BITMAP
1c
3e
7e
f7
e3
08
1c
08
ENDCHAR
STARTCHAR 94
ENCODING 94
DWIDTH 8 0
BBX 8 8 0 0
BITMAP
70
e0
dc
3e
7e
ff
ff
7f
ENDCHAR
STARTCHAR 95
ENCODING 95
DWIDTH 8 0
BBX 8 8 0 0
BITMAP
18
7e
7e
e7
e7
7e
7e
18
ENDCHAR
STARTCHAR 96
ENCODING 96
DWIDTH 8 0
BBX 8 8 0 0
BITMAP
ff
ff
ff
ff
ff
ff
01
00
ENDCHAR
STARTCHAR 97
ENCODING 97
DWIDTH 8 0
BBX 8 8 0 0
BITMAP
3c
42
85
99
99
a1
42
3c
ENDCHAR
STARTCHAR 98
ENCODING 98
DWIDTH 8 0
BBX 8 8 0 0
BITMAP
3c
72
f1
f1
f1
f1
72
3c
ENDCHAR
STARTCHAR 99
ENCODING 99
DWIDTH 8 0
BBX 8 8 0 0
BITMAP
00
ff
00
ff
ff
af
ff
00
ENDCHAR
STARTCHAR 100
ENCODING 100
DWIDTH 8 0
BBX 8 8 0 0
BITMAP
3c
42
81
a5
99
99
42
3c
ENDCHAR
STARTCHAR 101
ENCODING 101
DWIDTH 8 0
BBX 8 8 0 0
BITMAP
00
3c
42
99
bd
3c
18
00
ENDCHAR
STARTCHAR 102
ENCODING 102
DWIDTH 8 0
BBX 8 8 0 0
BITMAP
e0
e8
ac
e0
be
fe
86
fe
ENDCHAR
STARTCHAR 103
ENCODING 103
DWIDTH 8 0
BBX 8 8 0 0
BITMAP
00
18
3c
7e
7e
5e
6e
3c
ENDCHAR
STARTCHAR 104
ENCODING 104
DWIDTH 8 0
BBX 8 8 0 0
BITMAP
00
ff
7e
99
e7
ff
ff
00
ENDCHAR
STARTCHAR 105
ENCODING 105
DWIDTH 8 0
BBX 8 8 0 0
BITMAP
18
66
81
bd
99
e7
ff
ff
ENDCHAR
STARTCHAR 106
ENCODING 106
DWIDTH 8 0
BBX 8 8 0 0
BITMAP
00
3c
66
d3
db
66
3c
00
ENDCHAR
STARTCHAR 107
ENCODING 107
DWIDTH 8 0
BBX 8 8 0 0
BITMAP
17
0f
17
22
45
c8
f0
e0
ENDCHAR
STARTCHAR 108
ENCODING 108
DWIDTH 8 0
BBX 8 8 0 0
BITMAP
e0
e8
ec
e0
fe
fe
fe
fe
ENDCHAR
STARTCHAR 109
ENCODING 109
DWIDTH 8 0
BBX 8 8 0 0
BITMAP
20
30
70
74
e6
ee
ce
5e
ENDCHAR
STARTCHAR 110
ENCODING 110
DWIDTH 8 0
BBX 8 8 0 0
BITMAP
18
10
3c
08
08
38
30
00
ENDCHAR
STARTCHAR 111
ENCODING 111
DWIDTH 8 0
BBX 8 8 0 0
BITMAP
e0
ff
00
ff
ff
ff
ff
ff
ENDCHAR
STARTCHAR 112
ENCODING 112
DWIDTH 8 0
BBX 8 8 0 0
BITMAP
ee
ee
ee
44
7c
e0
e0
e0
ENDCHAR
STARTCHAR 113
ENCODING 113
DWIDTH 8 0
BBX 8 8 0 0
BITMAP
3c
66
c7
87
8f
c3
62
3c
ENDCHAR
STARTCHAR 114
ENCODING 114
DWIDTH 8 0
BBX 8 8 0 0
BITMAP
00
02
04
38
40
80
00
ff
ENDCHAR
STARTCHAR 115
ENCODING 115
DWIDTH 8 0
BBX 8 8 0 0
BITMAP
fe
fe
fe
fe
00
fe
fa
fe
ENDCHAR
STARTCHAR 116
ENCODING 116
DWIDTH 8 0
BBX 8 8 0 0
BITMAP
3c
66
42
42
c3
c3
c3
00
ENDCHAR
STARTCHAR 117
ENCODING 117
DWIDTH 8 0
BBX 8 8 0 0
BITMAP
00
66
ff
ff
7e
3c
18
00
ENDCHAR
STARTCHAR 118
ENCODING 118
DWIDTH 8 0
BBX 8 8 0 0
BITMAP
18
3c
7e
7e
7e
66
66
00
ENDCHAR
STARTCHAR 119
ENCODING 119
DWIDTH 8 0
BBX 8 8 0 0
BITMAP
ff
81
81
81
e3
f1
f9
ff
ENDCHAR
STARTCHAR 120
ENCODING 120
DWIDTH 8 0
BBX 8 8 0 0
BITMAP
ff
ff
81
81
81
c3
ff
ff
ENDCHAR
STARTCHAR 121
ENCODING 121
DWIDTH 8 0
BBX 8 8 0 0
BITMAP
0e
19
19
3f
7e
78
e0
e0
ENDCHAR
STARTCHAR 122
ENCODING 122
DWIDTH 8 0
BBX 8 8 0 0
BITMAP
00
7e
42
42
42
e7
ff
00
ENDCHAR
STARTCHAR 123
ENCODING 123
DWIDTH 8 0
BBX 8 8 0 0
BITMAP
18
70
1c
70
1c
38
00
10
ENDCHAR
STARTCHAR 124
ENCODING 124
DWIDTH 8 0
BBX 8 8 0 0
BITMAP
bf
00
bf
00
bf
00
bf
00
ENDCHAR
STARTCHAR 125
ENCODING 125
DWIDTH 8 0
BBX 8 8 0 0
BITMAP
18
24
24
7e
7e
7e
7e
00
ENDCHAR
STARTCHAR 126
ENCODING 126
DWIDTH 8 0
BBX 8 8 0 0
BITMAP
18
24
04
04
7e
7e
7e
7e
ENDCHAR
STARTCHAR 127
ENCODING 127
DWIDTH 8 0
BBX 8 8 0 0
BITMAP
02
ff
82
00
41
ff
40
00
ENDCHAR
STARTCHAR 128
ENCODING 128
DWIDTH 8 0
BBX 8 8 0 0
BITMAP
00
30
62
47
e2
46
0c
00
ENDCHAR
STARTCHAR 129
ENCODING 129
DWIDTH 8 0
BBX 8 8 0 0
BITMAP
7e
42
02
47
e2
40
42
7e
ENDCHAR
STARTCHAR 130
ENCODING 130
DWIDTH 8 0
BBX 8 8 0 0
BITMAP
38
44
82
82
82
46
3f
03
ENDCHAR
STARTCHAR 131
ENCODING 131
DWIDTH 8 0
BBX 8 8 0 0
BITMAP
ff
81
b9
a9
b9
97
81
ff
ENDCHAR
STARTCHAR 132
ENCODING 132
DWIDTH 8 0
BBX 8 8 0 0
BITMAP
3c
66
42
42
66
3c
18
00
ENDCHAR
STARTCHAR 133
ENCODING 133
DWIDTH 8 0
BBX 8 8 0 0
BITMAP
18
18
5a
5a
66
3c
08
3c
ENDCHAR
STARTCHAR 134
ENCODING 134
DWIDTH 8 0
BBX 8 8 0 0
BITMAP
ff
81
81
81
81
ff
18
7e
ENDCHAR
STARTCHAR 135
ENCODING 135
DWIDTH 8 0
BBX 8 8 0 0
BITMAP
00
60
e0
e0
f0
fe
7e
18
ENDCHAR
STARTCHAR 136
ENCODING 136
DWIDTH 8 0
BBX 8 8 0 0
BITMAP
1f
3f
21
21
27
e7
e7
e0
ENDCHAR
STARTCHAR 137
ENCODING 137
DWIDTH 8 0
BBX 8 8 0 0
BITMAP
0c
12
22
44
a8
b0
c8
70
ENDCHAR
STARTCHAR 138
ENCODING 138
DWIDTH 8 0
BBX 8 8 0 0
BITMAP
00
02
00
18
38
70
e0
c0
ENDCHAR
STARTCHAR 139
ENCODING 139
DWIDTH 8 0
BBX 8 8 0 0
BITMAP
04
26
76
74
21
8b
fb
f8
ENDCHAR
STARTCHAR 140
ENCODING 140
DWIDTH 8 0
BBX 8 8 0 0
BITMAP
18
3c
3c
3c
18
46
ff
ff
ENDCHAR
STARTCHAR 141
ENCODING 141
DWIDTH 8 0
BBX 8 8 0 0
BITMAP
7c
44
44
44
44
44
7c
7c
ENDCHAR
STARTCHAR 142
ENCODING 142
DWIDTH 8 0
BBX 8 8 0 0
BITMAP
30
34
16
c7
e7
cf
1e
1c
ENDCHAR
STARTCHAR 143
ENCODING 143
DWIDTH 8 0
BBX 8 8 0 0
BITMAP
7c
38
38
fe
10
10
10
00
ENDCHAR
STARTCHAR 144
ENCODING 144
DWIDTH 8 0
BBX 8 8 0 0
BITMAP
10
10
54
92
82
82
44
38
ENDCHAR
STARTCHAR 145
ENCODING 145
DWIDTH 8 0
BBX 8 8 0 0
BITMAP
3c
3c
00
ff
81
bd
3c
3c
ENDCHAR
STARTCHAR 146
ENCODING 146
DWIDTH 8 0
BBX 8 8 0 0
BITMAP
00
10
30
3c
ef
68
00
00
ENDCHAR
STARTCHAR 147
ENCODING 147
DWIDTH 8 0
BBX 8 8 0 0
BITMAP
30
30
fc
fc
ff
ff
cc
cc
ENDCHAR
STARTCHAR 148
ENCODING 148
DWIDTH 8 0
BBX 8 8 0 0
BITMAP
1c
3e
7e
ff
c7
11
54
54
ENDCHAR
STARTCHAR 149
ENCODING 149
DWIDTH 8 0
BBX 8 8 0 0
BITMAP
3c
43
87
80
80
80
40
3c
ENDCHAR
STARTCHAR 150
ENCODING 150
DWIDTH 8 0
BBX 8 8 0 0
BITMAP
70
18
64
1a
6b
35
d5
c0
ENDCHAR
STARTCHAR 151
ENCODING 151
DWIDTH 8 0
BBX 8 8 0 0
BITMAP
e0
f8
3c
ce
f6
37
9b
db
ENDCHAR
STARTCHAR 152
ENCODING 152
DWIDTH 8 0
BBX 8 8 0 0
BITMAP
3f
2f
2f
20
3e
be
be
fe
ENDCHAR
STARTCHAR 153
ENCODING 153
DWIDTH 8 0
BBX 8 8 0 0
BITMAP
04
06
3f
7e
c4
80
00
00
ENDCHAR
STARTCHAR 154
ENCODING 154
DWIDTH 8 0
BBX 8 8 0 0
BITMAP
e0
8f
9e
80
80
84
fc
00
ENDCHAR
STARTCHAR 155
ENCODING 155
DWIDTH 8 0
BBX 8 8 0 0
BITMAP
18
ef
8f
8f
4e
4e
2c
18
ENDCHAR
STARTCHAR 156
ENCODING 156
DWIDTH 8 0
BBX 8 8 0 0
BITMAP
10
70
7c
1c
10
10
10
10
ENDCHAR
STARTCHAR 157
ENCODING 157
DWIDTH 8 0
BBX 8 8 0 0
BITMAP
ff
a1
ff
a1
ff
a1
ff
00
ENDCHAR
STARTCHAR 158
ENCODING 158
DWIDTH 8 0
BBX 8 8 0 0
BITMAP
00
00
18
7e
3c
3c
24
00
ENDCHAR
STARTCHAR 159
ENCODING 159
DWIDTH 8 0
BBX 8 8 0 0
BITMAP
00
42
18
3c
3c
18
42
00
ENDCHAR
STARTCHAR 160
ENCODING 160
DWIDTH 8 0
BBX 8 8 0 0
BITMAP
fe
82
82
82
82
82
fe
fe
ENDCHAR
STARTCHAR 161
ENCODING 161
DWIDTH 8 0
BBX 8 8 0 0
BITMAP
e0
90
98
7c
3e
1e
0c
00
ENDCHAR
STARTCHAR 162
ENCODING 162
DWIDTH 8 0
BBX 8 8 0 0
BITMAP
00
c8
a4
72
32
00
00
00
ENDCHAR
STARTCHAR 163
ENCODING 163
DWIDTH 8 0
BBX 8 8 0 0
BITMAP
3c
42
99
a5
a5
99
42
3c
ENDCHAR
STARTCHAR 164
ENCODING 164
DWIDTH 8 0
BBX 8 8 0 0
BITMAP
f8
82
84
98
82
82
fe
00
ENDCHAR
STARTCHAR 165
ENCODING 165
DWIDTH 8 0
BBX 8 8 0 0
BITMAP
bc
bc
be
be
18
18
08
00
ENDCHAR
STARTCHAR 166
ENCODING 166
DWIDTH 8 0
BBX 8 8 0 0
BITMAP
08
18
18
be
be
bc
bc
00
ENDCHAR
STARTCHAR 167
ENCODING 167
DWIDTH 8 0
BBX 8 8 0 0
BITMAP
38
38
40
8a
92
82
44
38
ENDCHAR
STARTCHAR 168
ENCODING 168
DWIDTH 8 0
BBX 8 8 0 0
BITMAP
38
fe
00
54
54
54
54
7c
ENDCHAR
STARTCHAR 169
ENCODING 169
DWIDTH 8 0
BBX 8 8 0 0
BITMAP
00
fc
fd
ff
fd
fc
00
00
ENDCHAR
STARTCHAR 170
ENCODING 170
DWIDTH 8 0
BBX 8 8 0 0
BITMAP
10
36
f3
f5
f5
f3
36
10
ENDCHAR
STARTCHAR 171
ENCODING 171
DWIDTH 8 0
BBX 8 8 0 0
BITMAP
08
18
78
7a
7a
78
18
08
ENDCHAR
STARTCHAR 172
ENCODING 172
DWIDTH 8 0
BBX 8 8 0 0
BITMAP
04
0c
3c
3c
3c
3c
0c
04
ENDCHAR
STARTCHAR 173
ENCODING 173
DWIDTH 8 0
BBX 8 8 0 0
BITMAP
10
38
38
68
6c
7c
ee
fe
ENDCHAR
STARTCHAR 174
ENCODING 174
DWIDTH 8 0
BBX 8 8 0 0
BITMAP
7c
82
00
38
00
00
18
18
ENDCHAR
STARTCHAR 175
ENCODING 175
DWIDTH 8 0
BBX 8 8 0 0
BITMAP
08
18
18
1f
3e
70
e0
c0
ENDCHAR
STARTCHAR 176
ENCODING 176
DWIDTH 8 0
BBX 8 8 0 0
BITMAP
42
e7
7e
3c
3c
7e
e7
42
ENDCHAR
STARTCHAR 177
ENCODING 177
DWIDTH 8 0
BBX 8 8 0 0
BITMAP
38
44
92
ba
92
46
3f
03
ENDCHAR
STARTCHAR 178
ENCODING 178
DWIDTH 8 0
BBX 8 8 0 0
BITMAP
38
44
82
ba
82
46
3f
03
ENDCHAR
