999
dxfrw 0.6.3
  0
SECTION
  2
HEADER
  9
$ACADVER
  1
AC1021
  9
$DWGCODEPAGE
  3
ANSI_1252
  9
$INSBASE
 10
0
 20
0
 30
0
  9
$EXTMIN
 10
-112.5
 20
-10.00000023081839
 30
0
  9
$EXTMAX
 10
263.125
 20
280.8125
 30
0
  9
$LIMMIN
 10
0
 20
0
  9
$LIMMAX
 10
420
 20
297
  9
$ORTHOMODE
 70
    0
  9
$REGENMODE
 70
    1
  9
$FILLMODE
 70
    1
  9
$QTEXTMODE
 70
    0
  9
$MIRRTEXT
 70
    0
  9
$LTSCALE
 40
1
  9
$ATTMODE
 70
    0
  9
$TEXTSIZE
 40
2.5
  9
$TRACEWID
 40
15.68
  9
$TEXTSTYLE
  7
STANDARD
  9
$CLAYER
  8
measure
  9
$CELTYPE
  6
BYLAYER
  9
$CECOLOR
 62
  256
  9
$CELTSCALE
 40
1
  9
$DISPSILH
 70
    0
  9
$DIMSCALE
 40
2.5
  9
$DIMASZ
 40
2.5
  9
$DIMEXO
 40
0.625
  9
$DIMDLI
 40
3.75
  9
$DIMRND
 40
0
  9
$DIMDLE
 40
0
  9
$DIMEXE
 40
1.25
  9
$DIMTP
 40
0
  9
$DIMTM
 40
0
  9
$DIMTXT
 40
2.5
  9
$DIMCEN
 40
2.5
  9
$DIMTSZ
 40
0
  9
$DIMTOL
 70
    0
  9
$DIMLIM
 70
    0
  9
$DIMTIH
 70
    0
  9
$DIMTOH
 70
    0
  9
$DIMSE1
 70
    0
  9
$DIMSE2
 70
    0
  9
$DIMTAD
 70
    1
  9
$DIMZIN
 70
    1
  9
$DIMBLK
  1

  9
$DIMASO
 70
    1
  9
$DIMSHO
 70
    1
  9
$DIMPOST
  1

  9
$DIMAPOST
  1

  9
$DIMALT
 70
    0
  9
$DIMALTD
 70
    3
  9
$DIMALTF
 40
0.03937
  9
$DIMLFAC
 40
1
  9
$DIMTOFL
 70
    1
  9
$DIMTVP
 40
0
  9
$DIMTIX
 70
    0
  9
$DIMSOXD
 70
    0
  9
$DIMSAH
 70
    0
  9
$DIMBLK1
  1

  9
$DIMBLK2
  1

  9
$DIMSTYLE
  2
STANDARD
  9
$DIMCLRD
 70
    0
  9
$DIMCLRE
 70
    0
  9
$DIMCLRT
 70
    0
  9
$DIMTFAC
 40
1
  9
$DIMGAP
 40
0.625
  9
$DIMJUST
 70
    0
  9
$DIMSD1
 70
    0
  9
$DIMSD2
 70
    0
  9
$DIMTOLJ
 70
    0
  9
$DIMTZIN
 70
    8
  9
$DIMALTZ
 70
    0
  9
$DIMALTTZ
 70
    0
  9
$DIMUPT
 70
    0
  9
$DIMDEC
 70
    0
  9
$DIMTDEC
 70
    2
  9
$DIMALTU
 70
    2
  9
$DIMALTTD
 70
    3
  9
$DIMTXSTY
  7
standard
  9
$DIMAUNIT
 70
    0
  9
$DIMADEC
 70
    2
  9
$DIMALTRND
 40
0
  9
$DIMAZIN
 70
    0
  9
$DIMDSEP
 70
    0
  9
$DIMATFIT
 70
    3
  9
$DIMFRAC
 70
    0
  9
$DIMLDRBLK
  1
STANDARD
  9
$DIMLUNIT
 70
    2
  9
$DIMLWD
 70
   -2
  9
$DIMLWE
 70
   -2
  9
$DIMTMOVE
 70
    0
  9
$DIMFXL
 40
1
  9
$DIMFXLON
 70
    0
  9
$DIMJOGANG
 40
0.7854
  9
$DIMTFILL
 70
    0
  9
$DIMTFILLCLR
 70
    0
  9
$DIMARCSYM
 70
    0
  9
$DIMLTYPE
  6

  9
$DIMLTEX1
  6

  9
$DIMLTEX2
  6

  9
$LUNITS
 70
    2
  9
$LUPREC
 70
    4
  9
$SKETCHINC
 40
1
  9
$FILLETRAD
 40
0
  9
$AUNITS
 70
    0
  9
$AUPREC
 70
    0
  9
$MENU
  1
.
  9
$ELEVATION
 40
0
  9
$PELEVATION
 40
0
  9
$THICKNESS
 40
0
  9
$LIMCHECK
 70
    0
  9
$CHAMFERA
 40
0
  9
$CHAMFERB
 40
0
  9
$CHAMFERC
 40
0
  9
$CHAMFERD
 40
0
  9
$SKPOLY
 70
    0
  9
$USRTIMER
 70
    1
  9
$ANGBASE
 50
0
  9
$ANGDIR
 70
    0
  9
$PDMODE
 70
   34
  9
$PDSIZE
 40
0
  9
$PLINEWID
 40
0
  9
$SPLFRAME
 70
    0
  9
$SPLINETYPE
 70
    2
  9
$SPLINESEGS
 70
    8
  9
$HANDSEED
  5
20000
  9
$SURFTAB1
 70
    6
  9
$SURFTAB2
 70
    6
  9
$SURFTYPE
 70
    6
  9
$SURFU
 70
    6
  9
$SURFV
 70
    6
  9
$UCSBASE
  2

  9
$UCSNAME
  2

  9
$UCSORG
 10
0
 20
0
 30
0
  9
$UCSXDIR
 10
1
 20
0
 30
0
  9
$UCSYDIR
 10
0
 20
1
 30
0
  9
$UCSORTHOREF
  2

  9
$UCSORTHOVIEW
 70
    0
  9
$UCSORGTOP
 10
0
 20
0
 30
0
  9
$UCSORGBOTTOM
 10
0
 20
0
 30
0
  9
$UCSORGLEFT
 10
0
 20
0
 30
0
  9
$UCSORGRIGHT
 10
0
 20
0
 30
0
  9
$UCSORGFRONT
 10
0
 20
0
 30
0
  9
$UCSORGBACK
 10
0
 20
0
 30
0
  9
$PUCSBASE
  2

  9
$PUCSNAME
  2

  9
$PUCSORG
 10
0
 20
0
 30
0
  9
$PUCSXDIR
 10
1
 20
0
 30
0
  9
$PUCSYDIR
 10
0
 20
1
 30
0
  9
$PUCSORTHOREF
  2

  9
$PUCSORTHOVIEW
 70
    0
  9
$PUCSORGTOP
 10
0
 20
0
 30
0
  9
$PUCSORGBOTTOM
 10
0
 20
0
 30
0
  9
$PUCSORGLEFT
 10
0
 20
0
 30
0
  9
$PUCSORGRIGHT
 10
0
 20
0
 30
0
  9
$PUCSORGFRONT
 10
0
 20
0
 30
0
  9
$PUCSORGBACK
 10
0
 20
0
 30
0
  9
$USERI1
 70
    0
  9
$USERI2
 70
    0
  9
$USERI3
 70
    0
  9
$USERI4
 70
    0
  9
$USERI5
 70
    0
  9
$USERR1
 40
0
  9
$USERR2
 40
0
  9
$USERR3
 40
0
  9
$USERR4
 40
0
  9
$USERR5
 40
0
  9
$WORLDVIEW
 70
    1
  9
$SHADEDGE
 70
    3
  9
$SHADEDIF
 70
   70
  9
$TILEMODE
 70
    1
  9
$MAXACTVP
 70
   64
  9
$PINSBASE
 10
97.11111115504259
 20
19.35185200414766
 30
0
  9
$PLIMCHECK
 70
    0
  9
$PEXTMIN
 10
0
 20
0
 30
0
  9
$PEXTMAX
 10
0
 20
0
 30
0
  9
$GRIDMODE
 70
    1
  9
$SNAPSTYLE
 70
    0
  9
$GRIDUNIT
 10
0
 20
0
  9
$PLIMMIN
 10
0
 20
0
  9
$PLIMMAX
 10
297
 20
210
  9
$UNITMODE
 70
    0
  9
$VISRETAIN
 70
    1
  9
$PLINEGEN
 70
    0
  9
$PSLTSCALE
 70
    1
  9
$TREEDEPTH
 70
 3020
  9
$CMLSTYLE
  2
Standard
  9
$CMLJUST
 70
    0
  9
$CMLSCALE
 40
20
  9
$PROXYGRAPHICS
 70
    1
  9
$MEASUREMENT
 70
    1
  9
$CELWEIGHT
370
   -1
  9
$ENDCAPS
280
    0
  9
$JOINSTYLE
280
    0
  9
$LWDISPLAY
290
    0
  9
$INSUNITS
 70
    4
  9
$HYPERLINKBASE
  1

  9
$STYLESHEET
  1

  9
$XEDIT
290
    1
  9
$CEPSNTYPE
380
    0
  9
$PSTYLEMODE
290
    1
  9
$EXTNAMES
290
    1
  9
$PSVPSCALE
 40
0.6851849314129884
  9
$OLESTARTUP
290
    0
  9
$SORTENTS
280
  127
  9
$INDEXCTL
280
    0
  9
$HIDETEXT
280
    1
  9
$XCLIPFRAME
290
    0
  9
$HALOGAP
280
    0
  9
$OBSCOLOR
 70
  257
  9
$OBSLTYPE
280
    0
  9
$INTERSECTIONDISPLAY
280
    0
  9
$INTERSECTIONCOLOR
 70
  257
  9
$DIMASSOC
280
    1
  9
$PROJECTNAME
  1

  9
$CAMERADISPLAY
290
    0
  9
$LENSLENGTH
 40
50
  9
$CAMERAHEIGHT
 40
0
  9
$STEPSPERSEC
 40
2
  9
$STEPSIZE
 40
50
  9
$3DDWFPREC
 40
2
  9
$PSOLWIDTH
 40
5
  9
$PSOLHEIGHT
 40
80
  9
$LOFTANG1
 40
1.570796326794897
  9
$LOFTANG2
 40
1.570796326794897
  9
$LOFTMAG1
 40
0
  9
$LOFTMAG2
 40
0
  9
$LOFTPARAM
 70
    7
  9
$LOFTNORMALS
280
    1
  9
$LATITUDE
 40
1
  9
$LONGITUDE
 40
1
  9
$NORTHDIRECTION
 40
0
  9
$TIMEZONE
 70
-8000
  9
$LIGHTGLYPHDISPLAY
280
    1
  9
$TILEMODELIGHTSYNCH
280
    1
  9
$SOLIDHIST
280
    1
  9
$SHOWHIST
280
    1
  9
$DWFFRAME
280
    2
  9
$DGNFRAME
280
    0
  9
$REALWORLDSCALE
290
    1
  9
$INTERFERECOLOR
 62
    1
  9
$CSHADOW
280
    0
  9
$SHADOWPLANELOCATION
 40
0
  0
ENDSEC
  0
SECTION
  2
CLASSES
  0
ENDSEC
  0
SECTION
  2
TABLES
  0
TABLE
  2
VPORT
  5
8
330
0
100
AcDbSymbolTable
 70
    1
  0
VPORT
  5
31
330
2
100
AcDbSymbolTableRecord
100
AcDbViewportTableRecord
  2
*ACTIVE
 70
    0
 10
0
 20
0
 11
1
 21
1
 12
107.6208979592095
 22
89.1219591836949
 13
0
 23
0
 14
10
 24
10
 15
10
 25
10
 16
0
 26
0
 36
1
 17
0
 27
0
 37
0
 40
168.4323265306527
 41
1.811893203883495
 42
50
 43
0
 44
0
 50
0
 51
0
 71
    0
 72
  100
 73
    1
 74
    3
 75
    0
 76
    1
 77
    0
 78
    0
281
    0
 65
    1
110
0
120
0
130
0
111
1
121
0
131
0
112
0
122
1
132
0
 79
    0
146
0
348
10020
 60
    7
 61
    5
292
1
282
    1
141
0
142
0
 63
  250
421
3358443
  0
ENDTAB
  0
TABLE
  2
LTYPE
  5
5
330
0
100
AcDbSymbolTable
 70
    4
  0
LTYPE
  5
14
330
5
100
AcDbSymbolTableRecord
100
AcDbLinetypeTableRecord
  2
ByBlock
 70
    0
  3

 72
   65
 73
    0
 40
0
  0
LTYPE
  5
15
330
5
100
AcDbSymbolTableRecord
100
AcDbLinetypeTableRecord
  2
ByLayer
 70
    0
  3

 72
   65
 73
    0
 40
0
  0
LTYPE
  5
16
330
5
100
AcDbSymbolTableRecord
100
AcDbLinetypeTableRecord
  2
Continuous
 70
    0
  3
Solid line
 72
   65
 73
    0
 40
0
  0
LTYPE
  5
32
330
5
100
AcDbSymbolTableRecord
100
AcDbLinetypeTableRecord
  2
DOT
 70
    0
  3
Dot . . . . . . . . . . . . . . . . . . . . . .
 72
   65
 73
    2
 40
6.35
 49
0
 74
    0
 49
-6.35
 74
    0
  0
LTYPE
  5
33
330
5
100
AcDbSymbolTableRecord
100
AcDbLinetypeTableRecord
  2
DOTTINY
 70
    0
  3
Dot (.15x) .....................................
 72
   65
 73
    2
 40
0.9525
 49
0
 74
    0
 49
-0.9525
 74
    0
  0
LTYPE
  5
34
330
5
100
AcDbSymbolTableRecord
100
AcDbLinetypeTableRecord
  2
DOT2
 70
    0
  3
Dot (.5x) .....................................
 72
   65
 73
    2
 40
3.175
 49
0
 74
    0
 49
-3.175
 74
    0
  0
LTYPE
  5
35
330
5
100
AcDbSymbolTableRecord
100
AcDbLinetypeTableRecord
  2
DOTX2
 70
    0
  3
Dot (2x) .  .  .  .  .  .  .  .  .  .  .  .  .
 72
   65
 73
    2
 40
12.7
 49
0
 74
    0
 49
-12.7
 74
    0
  0
LTYPE
  5
36
330
5
100
AcDbSymbolTableRecord
100
AcDbLinetypeTableRecord
  2
DASHED
 70
    0
  3
Dashed _ _ _ _ _ _ _ _ _ _ _ _ _ _ _ _ _
 72
   65
 73
    2
 40
19.05
 49
12.7
 74
    0
 49
-6.35
 74
    0
  0
LTYPE
  5
37
330
5
100
AcDbSymbolTableRecord
100
AcDbLinetypeTableRecord
  2
DASHEDTINY
 70
    0
  3
Dashed (.15x) _ _ _ _ _ _ _ _ _ _ _ _ _ _ _ _ _
 72
   65
 73
    2
 40
2.8575
 49
1.905
 74
    0
 49
-0.9525
 74
    0
  0
LTYPE
  5
38
330
5
100
AcDbSymbolTableRecord
100
AcDbLinetypeTableRecord
  2
DASHED2
 70
    0
  3
Dashed (.5x) _ _ _ _ _ _ _ _ _ _ _ _ _ _ _ _ _
 72
   65
 73
    2
 40
9.524999999999999
 49
6.35
 74
    0
 49
-3.175
 74
    0
  0
LTYPE
  5
39
330
5
100
AcDbSymbolTableRecord
100
AcDbLinetypeTableRecord
  2
DASHEDX2
 70
    0
  3
Dashed (2x) ____  ____  ____  ____  ____  ___
 72
   65
 73
    2
 40
38.09999999999999
 49
25.4
 74
    0
 49
-12.7
 74
    0
  0
LTYPE
  5
3A
330
5
100
AcDbSymbolTableRecord
100
AcDbLinetypeTableRecord
  2
DASHDOT
 70
    0
  3
Dash dot __ . __ . __ . __ . __ . __ . __ . __
 72
   65
 73
    4
 40
25.4
 49
12.7
 74
    0
 49
-6.35
 74
    0
 49
0
 74
    0
 49
-6.35
 74
    0
  0
LTYPE
  5
3B
330
5
100
AcDbSymbolTableRecord
100
AcDbLinetypeTableRecord
  2
DASHDOTTINY
 70
    0
  3
Dash dot (.15x) _._._._._._._._._._._._._._._.
 72
   65
 73
    4
 40
3.81
 49
1.905
 74
    0
 49
-0.9525
 74
    0
 49
0
 74
    0
 49
-0.9525
 74
    0
  0
LTYPE
  5
3C
330
5
100
AcDbSymbolTableRecord
100
AcDbLinetypeTableRecord
  2
DASHDOT2
 70
    0
  3
Dash dot (.5x) _._._._._._._._._._._._._._._.
 72
   65
 73
    4
 40
12.7
 49
6.35
 74
    0
 49
-3.175
 74
    0
 49
0
 74
    0
 49
-3.175
 74
    0
  0
LTYPE
  5
3D
330
5
100
AcDbSymbolTableRecord
100
AcDbLinetypeTableRecord
  2
DASHDOTX2
 70
    0
  3
Dash dot (2x) ____  .  ____  .  ____  .  ___
 72
   65
 73
    4
 40
50.8
 49
25.4
 74
    0
 49
-12.7
 74
    0
 49
0
 74
    0
 49
-12.7
 74
    0
  0
LTYPE
  5
3E
330
5
100
AcDbSymbolTableRecord
100
AcDbLinetypeTableRecord
  2
DIVIDE
 70
    0
  3
Divide ____ . . ____ . . ____ . . ____ . . ____
 72
   65
 73
    6
 40
31.75
 49
12.7
 74
    0
 49
-6.35
 74
    0
 49
0
 74
    0
 49
-6.35
 74
    0
 49
0
 74
    0
 49
-6.35
 74
    0
  0
LTYPE
  5
3F
330
5
100
AcDbSymbolTableRecord
100
AcDbLinetypeTableRecord
  2
DIVIDETINY
 70
    0
  3
Divide (.15x) __..__..__..__..__..__..__..__.._
 72
   65
 73
    6
 40
4.7625
 49
1.905
 74
    0
 49
-0.9525
 74
    0
 49
0
 74
    0
 49
-0.9525
 74
    0
 49
0
 74
    0
 49
-0.9525
 74
    0
  0
LTYPE
  5
40
330
5
100
AcDbSymbolTableRecord
100
AcDbLinetypeTableRecord
  2
DIVIDE2
 70
    0
  3
Divide (.5x) __..__..__..__..__..__..__..__.._
 72
   65
 73
    6
 40
15.875
 49
6.35
 74
    0
 49
-3.175
 74
    0
 49
0
 74
    0
 49
-3.175
 74
    0
 49
0
 74
    0
 49
-3.175
 74
    0
  0
LTYPE
  5
41
330
5
100
AcDbSymbolTableRecord
100
AcDbLinetypeTableRecord
  2
DIVIDEX2
 70
    0
  3
Divide (2x) ________  .  .  ________  .  .  _
 72
   65
 73
    6
 40
63.5
 49
25.4
 74
    0
 49
-12.7
 74
    0
 49
0
 74
    0
 49
-12.7
 74
    0
 49
0
 74
    0
 49
-12.7
 74
    0
  0
LTYPE
  5
42
330
5
100
AcDbSymbolTableRecord
100
AcDbLinetypeTableRecord
  2
BORDER
 70
    0
  3
Border __ __ . __ __ . __ __ . __ __ . __ __ .
 72
   65
 73
    6
 40
44.45
 49
12.7
 74
    0
 49
-6.35
 74
    0
 49
12.7
 74
    0
 49
-6.35
 74
    0
 49
0
 74
    0
 49
-6.35
 74
    0
  0
LTYPE
  5
43
330
5
100
AcDbSymbolTableRecord
100
AcDbLinetypeTableRecord
  2
BORDERTINY
 70
    0
  3
Border (.15x) __.__.__.__.__.__.__.__.__.__.__.
 72
   65
 73
    6
 40
6.6675
 49
1.905
 74
    0
 49
-0.9525
 74
    0
 49
1.905
 74
    0
 49
-0.9525
 74
    0
 49
0
 74
    0
 49
-0.9525
 74
    0
  0
LTYPE
  5
44
330
5
100
AcDbSymbolTableRecord
100
AcDbLinetypeTableRecord
  2
BORDER2
 70
    0
  3
Border (.5x) __.__.__.__.__.__.__.__.__.__.__.
 72
   65
 73
    6
 40
22.225
 49
6.35
 74
    0
 49
-3.175
 74
    0
 49
6.35
 74
    0
 49
-3.175
 74
    0
 49
0
 74
    0
 49
-3.175
 74
    0
  0
LTYPE
  5
45
330
5
100
AcDbSymbolTableRecord
100
AcDbLinetypeTableRecord
  2
BORDERX2
 70
    0
  3
Border (2x) ____  ____  .  ____  ____  .  ___
 72
   65
 73
    6
 40
88.89999999999999
 49
25.4
 74
    0
 49
-12.7
 74
    0
 49
25.4
 74
    0
 49
-12.7
 74
    0
 49
0
 74
    0
 49
-12.7
 74
    0
  0
LTYPE
  5
46
330
5
100
AcDbSymbolTableRecord
100
AcDbLinetypeTableRecord
  2
CENTER
 70
    0
  3
Center ____ _ ____ _ ____ _ ____ _ ____ _ ____
 72
   65
 73
    4
 40
50.8
 49
31.75
 74
    0
 49
-6.35
 74
    0
 49
6.35
 74
    0
 49
-6.35
 74
    0
  0
LTYPE
  5
47
330
5
100
AcDbSymbolTableRecord
100
AcDbLinetypeTableRecord
  2
CENTERTINY
 70
    0
  3
Center (.15x) ___ _ ___ _ ___ _ ___ _ ___ _ ___
 72
   65
 73
    4
 40
7.619999999999999
 49
4.7625
 74
    0
 49
-0.9525
 74
    0
 49
0.9525
 74
    0
 49
-0.9525
 74
    0
  0
LTYPE
  5
48
330
5
100
AcDbSymbolTableRecord
100
AcDbLinetypeTableRecord
  2
CENTER2
 70
    0
  3
Center (.5x) ___ _ ___ _ ___ _ ___ _ ___ _ ___
 72
   65
 73
    4
 40
28.575
 49
19.05
 74
    0
 49
-3.175
 74
    0
 49
3.175
 74
    0
 49
-3.175
 74
    0
  0
LTYPE
  5
49
330
5
100
AcDbSymbolTableRecord
100
AcDbLinetypeTableRecord
  2
CENTERX2
 70
    0
  3
Center (2x) ________  __  ________  __  _____
 72
   65
 73
    4
 40
101.6
 49
63.5
 74
    0
 49
-12.7
 74
    0
 49
12.7
 74
    0
 49
-12.7
 74
    0
  0
ENDTAB
  0
TABLE
  2
LAYER
  5
2
330
0
100
AcDbSymbolTable
 70
    1
  0
LAYER
  5
10
330
2
100
AcDbSymbolTableRecord
100
AcDbLayerTableRecord
  2
0
 70
    0
 62
    7
  6
CONTINUOUS
370
    0
390
F
  0
LAYER
  5
4A
330
2
100
AcDbSymbolTableRecord
100
AcDbLayerTableRecord
  2
aux
 70
    0
 62
    5
  6
DOT2
290
0
370
   25
390
F
1001
LibreCad
1070
    1
  0
LAYER
  5
4B
330
2
100
AcDbSymbolTableRecord
100
AcDbLayerTableRecord
  2
invisible
 70
    0
 62
    7
  6
DASHEDTINY
370
   35
390
F
  0
LAYER
  5
4C
330
2
100
AcDbSymbolTableRecord
100
AcDbLayerTableRecord
  2
measure
 70
    0
 62
    7
  6
CONTINUOUS
370
   18
390
F
  0
LAYER
  5
4D
330
2
100
AcDbSymbolTableRecord
100
AcDbLayerTableRecord
  2
middle
 70
    0
 62
    7
  6
DASHDOT2
370
   35
390
F
  0
LAYER
  5
4E
330
2
100
AcDbSymbolTableRecord
100
AcDbLayerTableRecord
  2
saw
 70
    0
 62
    7
  6
CONTINUOUS
370
  100
390
F
  0
LAYER
  5
4F
330
2
100
AcDbSymbolTableRecord
100
AcDbLayerTableRecord
  2
visible
 70
    0
 62
    7
  6
CONTINUOUS
370
   70
390
F
  0
ENDTAB
  0
TABLE
  2
STYLE
  5
3
330
0
100
AcDbSymbolTable
 70
    3
  0
STYLE
  5
50
330
2
100
AcDbSymbolTableRecord
100
AcDbTextStyleTableRecord
  2
standard
 70
    0
 40
0
 41
1
 50
0
 71
    0
 42
1
  3
standard
  4

  0
ENDTAB
  0
TABLE
  2
VIEW
  5
6
330
0
100
AcDbSymbolTable
 70
    0
  0
ENDTAB
  0
TABLE
  2
UCS
  5
7
330
0
100
AcDbSymbolTable
 70
    0
  0
ENDTAB
  0
TABLE
  2
APPID
  5
9
330
0
100
AcDbSymbolTable
 70
    1
  0
APPID
  5
12
330
9
100
AcDbSymbolTableRecord
100
AcDbRegAppTableRecord
  2
ACAD
 70
    0
  0
APPID
  5
51
330
9
100
AcDbSymbolTableRecord
100
AcDbRegAppTableRecord
  2
LibreCad
 70
    0
  0
ENDTAB
  0
TABLE
  2
DIMSTYLE
  5
A
330
0
100
AcDbSymbolTable
 70
    1
100
AcDbDimStyleTable
 71
    1
  0
DIMSTYLE
105
52
330
A
100
AcDbSymbolTableRecord
100
AcDbDimStyleTableRecord
  2
Standard
 70
    0
 40
2.5
 41
2.5
 42
0.625
 43
0.38
 44
1.25
 45
0
 46
0
 47
0
 48
0
 49
1
140
2.5
141
0.09
142
0
143
25.4
144
1
145
0
146
1
147
0.625
148
0
 71
    0
 72
    0
 73
    0
 74
    1
 75
    0
 76
    0
 77
    0
 78
    1
 79
    0
170
    0
171
    2
172
    0
173
    0
174
    0
175
    0
176
    0
177
    0
178
    0
179
    2
271
    0
272
    4
273
    2
274
    2
275
    0
276
    0
277
    2
278
    0
279
    0
280
    0
281
    0
282
    0
283
    1
284
    0
285
    0
286
    0
288
    0
289
    3
340
standard
341

371
   -2
372
   -2
  0
ENDTAB
  0
TABLE
  2
BLOCK_RECORD
  5
1
330
0
100
AcDbSymbolTable
 70
    2
  0
BLOCK_RECORD
  5
1F
330
1
100
AcDbSymbolTableRecord
100
AcDbBlockTableRecord
  2
*Model_Space
 70
    0
280
    1
281
    0
  0
BLOCK_RECORD
  5
1E
330
1
100
AcDbSymbolTableRecord
100
AcDbBlockTableRecord
  2
*Paper_Space
 70
    0
280
    1
281
    0
  0
BLOCK_RECORD
  5
53
330
1
100
AcDbSymbolTableRecord
100
AcDbBlockTableRecord
  2
*D26
 70
    0
280
    1
281
    0
  0
BLOCK_RECORD
  5
56
330
1
100
AcDbSymbolTableRecord
100
AcDbBlockTableRecord
  2
*D19
 70
    0
280
    1
281
    0
  0
BLOCK_RECORD
  5
59
330
1
100
AcDbSymbolTableRecord
100
AcDbBlockTableRecord
  2
*D24
 70
    0
280
    1
281
    0
  0
BLOCK_RECORD
  5
5C
330
1
100
AcDbSymbolTableRecord
100
AcDbBlockTableRecord
  2
*D25
 70
    0
280
    1
281
    0
  0
BLOCK_RECORD
  5
5F
330
1
100
AcDbSymbolTableRecord
100
AcDbBlockTableRecord
  2
*D17
 70
    0
280
    1
281
    0
  0
BLOCK_RECORD
  5
62
330
1
100
AcDbSymbolTableRecord
100
AcDbBlockTableRecord
  2
*D23
 70
    0
280
    1
281
    0
  0
BLOCK_RECORD
  5
65
330
1
100
AcDbSymbolTableRecord
100
AcDbBlockTableRecord
  2
*D9
 70
    0
280
    1
281
    0
  0
BLOCK_RECORD
  5
68
330
1
100
AcDbSymbolTableRecord
100
AcDbBlockTableRecord
  2
*D7
 70
    0
280
    1
281
    0
  0
BLOCK_RECORD
  5
6B
330
1
100
AcDbSymbolTableRecord
100
AcDbBlockTableRecord
  2
*D5
 70
    0
280
    1
281
    0
  0
BLOCK_RECORD
  5
6E
330
1
100
AcDbSymbolTableRecord
100
AcDbBlockTableRecord
  2
*D14
 70
    0
280
    1
281
    0
  0
BLOCK_RECORD
  5
71
330
1
100
AcDbSymbolTableRecord
100
AcDbBlockTableRecord
  2
*D18
 70
    0
280
    1
281
    0
  0
BLOCK_RECORD
  5
74
330
1
100
AcDbSymbolTableRecord
100
AcDbBlockTableRecord
  2
*D4
 70
    0
280
    1
281
    0
  0
BLOCK_RECORD
  5
77
330
1
100
AcDbSymbolTableRecord
100
AcDbBlockTableRecord
  2
*D10
 70
    0
280
    1
281
    0
  0
BLOCK_RECORD
  5
7A
330
1
100
AcDbSymbolTableRecord
100
AcDbBlockTableRecord
  2
*D6
 70
    0
280
    1
281
    0
  0
BLOCK_RECORD
  5
7D
330
1
100
AcDbSymbolTableRecord
100
AcDbBlockTableRecord
  2
*D13
 70
    0
280
    1
281
    0
  0
BLOCK_RECORD
  5
80
330
1
100
AcDbSymbolTableRecord
100
AcDbBlockTableRecord
  2
*D2
 70
    0
280
    1
281
    0
  0
BLOCK_RECORD
  5
83
330
1
100
AcDbSymbolTableRecord
100
AcDbBlockTableRecord
  2
*D12
 70
    0
280
    1
281
    0
  0
BLOCK_RECORD
  5
86
330
1
100
AcDbSymbolTableRecord
100
AcDbBlockTableRecord
  2
*D15
 70
    0
280
    1
281
    0
  0
BLOCK_RECORD
  5
89
330
1
100
AcDbSymbolTableRecord
100
AcDbBlockTableRecord
  2
*D1
 70
    0
280
    1
281
    0
  0
BLOCK_RECORD
  5
8C
330
1
100
AcDbSymbolTableRecord
100
AcDbBlockTableRecord
  2
*D20
 70
    0
280
    1
281
    0
  0
BLOCK_RECORD
  5
8F
330
1
100
AcDbSymbolTableRecord
100
AcDbBlockTableRecord
  2
*D16
 70
    0
280
    1
281
    0
  0
BLOCK_RECORD
  5
92
330
1
100
AcDbSymbolTableRecord
100
AcDbBlockTableRecord
  2
*D22
 70
    0
280
    1
281
    0
  0
BLOCK_RECORD
  5
95
330
1
100
AcDbSymbolTableRecord
100
AcDbBlockTableRecord
  2
*D3
 70
    0
280
    1
281
    0
  0
BLOCK_RECORD
  5
98
330
1
100
AcDbSymbolTableRecord
100
AcDbBlockTableRecord
  2
*D11
 70
    0
280
    1
281
    0
  0
BLOCK_RECORD
  5
9B
330
1
100
AcDbSymbolTableRecord
100
AcDbBlockTableRecord
  2
*D21
 70
    0
280
    1
281
    0
  0
BLOCK_RECORD
  5
9E
330
1
100
AcDbSymbolTableRecord
100
AcDbBlockTableRecord
  2
*D8
 70
    0
280
    1
281
    0
  0
ENDTAB
  0
ENDSEC
  0
SECTION
  2
BLOCKS
  0
BLOCK
  5
20
330
1F
100
AcDbEntity
  8
0
100
AcDbBlockBegin
  2
*Model_Space
 70
    0
 10
0
 20
0
 30
0
  3
*Model_Space
  1

  0
ENDBLK
  5
21
330
1F
100
AcDbEntity
  8
0
100
AcDbBlockEnd
  0
BLOCK
  5
1C
330
1B
100
AcDbEntity
  8
0
100
AcDbBlockBegin
  2
*Paper_Space
 70
    0
 10
0
 20
0
 30
0
  3
*Paper_Space
  1

  0
ENDBLK
  5
1D
330
1F
100
AcDbEntity
  8
0
100
AcDbBlockEnd
  0
BLOCK
  5
54
330
53
100
AcDbEntity
  8
0
100
AcDbBlockBegin
  2
*D26
 70
    1
 10
0
 20
0
  3
*D26
  1

  0
LINE
  5
A1
100
AcDbEntity
  8
measure
  6
ByBlock
 62
    0
370
   -2
100
AcDbLine
 10
105
 20
191
 11
150
 21
191
  0
SOLID
  5
A2
100
AcDbEntity
  8
measure
  6
ByBlock
 62
    0
370
   -2
100
AcDbTrace
 10
105
 20
191
 30
0
 11
111.25
 21
192.0407116444321
 31
0
 12
111.25
 22
189.9592883555679
 32
0
 13
111.25
 23
189.9592883555679
 33
0
  0
SOLID
  5
A3
100
AcDbEntity
  8
measure
  6
ByBlock
 62
    0
370
   -2
100
AcDbTrace
 10
150
 20
191
 30
0
 11
143.75
 21
189.9592883555679
 31
0
 12
143.75
 22
192.0407116444321
 32
0
 13
143.75
 23
192.0407116444321
 33
0
  0
MTEXT
  5
A4
100
AcDbEntity
  8
measure
  6
CONTINUOUS
 62
    0
370
   -2
100
AcDbMText
 10
127.5
 20
195.6875
 30
0
 40
6.25
 41
8.333333333333719
 71
    5
 72
    1
  1
45
  7
standard
210
0
220
0
230
1
 50
0
 73
    2
 44
1
  0
LINE
  5
A5
100
AcDbEntity
  8
measure
  6
ByBlock
 62
    0
370
   -2
100
AcDbLine
 10
105
 20
198.4375
 11
105
 21
187.875
  0
LINE
  5
A6
100
AcDbEntity
  8
measure
  6
ByBlock
 62
    0
370
   -2
100
AcDbLine
 10
150
 20
198.4375
 11
150
 21
187.875
  0
ENDBLK
  5
55
330
53
100
AcDbEntity
  8
0
100
AcDbBlockEnd
  0
BLOCK
  5
57
330
56
100
AcDbEntity
  8
0
100
AcDbBlockBegin
  2
*D19
 70
    1
 10
0
 20
0
  3
*D19
  1

  0
LINE
  5
A7
100
AcDbEntity
  8
measure
  6
ByBlock
 62
    0
370
   -2
100
AcDbLine
 10
150
 20
273
 11
75
 21
273
  0
SOLID
  5
A8
100
AcDbEntity
  8
measure
  6
ByBlock
 62
    0
370
   -2
100
AcDbTrace
 10
150
 20
273
 30
0
 11
143.75
 21
271.9592883555679
 31
0
 12
143.75
 22
274.0407116444321
 32
0
 13
143.75
 23
274.0407116444321
 33
0
  0
SOLID
  5
A9
100
AcDbEntity
  8
measure
  6
ByBlock
 62
    0
370
   -2
100
AcDbTrace
 10
75
 20
273
 30
0
 11
81.25
 21
274.0407116444321
 31
0
 12
81.25
 22
271.9592883555679
 32
0
 13
81.25
 23
271.9592883555679
 33
0
  0
MTEXT
  5
AA
100
AcDbEntity
  8
measure
  6
CONTINUOUS
 62
    0
370
   -2
100
AcDbMText
 10
112.5
 20
277.6875
 30
0
 40
6.25
 41
7.638888888889277
 71
    5
 72
    1
  1
75
  7
standard
210
0
220
0
230
1
 50
360
 73
    2
 44
1
  0
LINE
  5
AB
100
AcDbEntity
  8
measure
  6
ByBlock
 62
    0
370
   -2
100
AcDbLine
 10
150
 20
259.5625
 11
150
 21
276.125
  0
LINE
  5
AC
100
AcDbEntity
  8
measure
  6
ByBlock
 62
    0
370
   -2
100
AcDbLine
 10
75
 20
259.5625
 11
75
 21
276.125
  0
ENDBLK
  5
58
330
56
100
AcDbEntity
  8
0
100
AcDbBlockEnd
  0
BLOCK
  5
5A
330
59
100
AcDbEntity
  8
0
100
AcDbBlockBegin
  2
*D24
 70
    1
 10
0
 20
0
  3
*D24
  1

  0
LINE
  5
AD
100
AcDbEntity
  8
measure
  6
ByBlock
 62
    0
370
   -2
100
AcDbLine
 10
-83.08147545195111
 20
123.0814754519511
 11
-56.91852454804887
 21
96.91852454804885
  0
SOLID
  5
AE
100
AcDbEntity
  8
measure
  6
ByBlock
 62
    0
370
   -2
100
AcDbTrace
 10
-74.24264068711928
 20
114.2426406871193
 30
0
 11
-79.39795233057293
 21
117.9261638084975
 31
0
 12
-77.92616380849745
 22
119.397952330573
 32
0
 13
-77.92616380849745
 23
119.397952330573
 33
0
  0
SOLID
  5
AF
100
AcDbEntity
  8
measure
  6
ByBlock
 62
    0
370
   -2
100
AcDbTrace
 10
-65.75735931288071
 20
105.7573593128807
 30
0
 11
-60.60204766942705
 21
102.0738361915025
 31
0
 12
-62.07383619150254
 22
100.602047669427
 32
0
 13
-62.07383619150254
 23
100.602047669427
 33
0
  0
MTEXT
  5
B0
100
AcDbEntity
  8
measure
  6
CONTINUOUS
 62
    0
370
   -2
100
AcDbMText
 10
-66.68543696318804
 20
113.3145630368119
 30
0
 40
6.25
 41
6.25
 71
    5
 72
    1
  1
12
  7
standard
210
0
220
0
230
1
 50
314.9999999999999
 73
    2
 44
1
  0
ENDBLK
  5
5B
330
59
100
AcDbEntity
  8
0
100
AcDbBlockEnd
  0
BLOCK
  5
5D
330
5C
100
AcDbEntity
  8
0
100
AcDbBlockBegin
  2
*D25
 70
    1
 10
0
 20
0
  3
*D25
  1

  0
LINE
  5
B1
100
AcDbEntity
  8
measure
  6
ByBlock
 62
    0
370
   -2
100
AcDbLine
 10
-105.667261889578
 20
157.667261889578
 11
-82.33273811042197
 21
134.332738110422
  0
SOLID
  5
B2
100
AcDbEntity
  8
measure
  6
ByBlock
 62
    0
370
   -2
100
AcDbTrace
 10
-96.82842712474618
 20
148.8284271247462
 30
0
 11
-101.9837387681998
 21
152.5119502461244
 31
0
 12
-100.5119502461244
 22
153.9837387681999
 32
0
 13
-100.5119502461244
 23
153.9837387681999
 33
0
  0
SOLID
  5
B3
100
AcDbEntity
  8
measure
  6
ByBlock
 62
    0
370
   -2
100
AcDbTrace
 10
-91.17157287525382
 20
143.1715728752538
 30
0
 11
-86.01626123180016
 21
139.4880497538756
 31
0
 12
-87.48804975387563
 22
138.0162612318001
 32
0
 13
-87.48804975387563
 23
138.0162612318001
 33
0
  0
MTEXT
  5
B4
100
AcDbEntity
  8
measure
  6
CONTINUOUS
 62
    0
370
   -2
100
AcDbMText
 10
-90.68543696318807
 20
149.3145630368119
 30
0
 40
6.25
 41
2.777777777777778
 71
    5
 72
    1
  1
8
  7
standard
210
0
220
0
230
1
 50
315.0000000000001
 73
    2
 44
1
  0
ENDBLK
  5
5E
330
5C
100
AcDbEntity
  8
0
100
AcDbBlockEnd
  0
BLOCK
  5
60
330
5F
100
AcDbEntity
  8
0
100
AcDbBlockBegin
  2
*D17
 70
    1
 10
0
 20
0
  3
*D17
  1

  0
LINE
  5
B5
100
AcDbEntity
  8
measure
  6
ByBlock
 62
    0
370
   -2
100
AcDbLine
 10
108.5777087639997
 20
22.84458247200067
 11
101.4222912360003
 21
37.15541752799933
  0
SOLID
  5
B6
100
AcDbEntity
  8
measure
  6
ByBlock
 62
    0
370
   -2
100
AcDbTrace
 10
108.5777087639997
 20
22.84458247200067
 30
0
 11
104.8517829993546
 21
27.96933201936498
 31
0
 12
106.7134645848952
 22
28.9001728121353
 32
0
 13
106.7134645848952
 23
28.9001728121353
 33
0
  0
SOLID
  5
B7
100
AcDbEntity
  8
measure
  6
ByBlock
 62
    0
370
   -2
100
AcDbTrace
 10
101.4222912360003
 20
37.15541752799933
 30
0
 11
105.1482170006454
 21
32.03066798063502
 31
0
 12
103.2865354151048
 22
31.09982718786471
 32
0
 13
103.2865354151048
 23
31.09982718786471
 33
0
  0
MTEXT
  5
B8
100
AcDbEntity
  8
measure
  6
CONTINUOUS
 62
    0
370
   -2
100
AcDbMText
 10
109.1926274578121
 20
32.09631372890607
 30
0
 40
6.25
 41
6.250000000000387
 71
    5
 72
    1
  1
16
  7
standard
210
0
220
0
230
1
 50
296.5650511770781
 73
    2
 44
1
  0
ENDBLK
  5
61
330
5F
100
AcDbEntity
  8
0
100
AcDbBlockEnd
  0
BLOCK
  5
63
330
62
100
AcDbEntity
  8
0
100
AcDbBlockBegin
  2
*D23
 70
    1
 10
0
 20
0
  3
*D23
  1

  0
LINE
  5
B9
100
AcDbEntity
  8
measure
  6
ByBlock
 62
    0
370
   -2
100
AcDbLine
 10
-100
 20
173
 11
-70
 21
173
  0
SOLID
  5
BA
100
AcDbEntity
  8
measure
  6
ByBlock
 62
    0
370
   -2
100
AcDbTrace
 10
-100
 20
173
 30
0
 11
-93.75
 21
174.0407116444321
 31
0
 12
-93.75
 22
171.9592883555679
 32
0
 13
-93.75
 23
171.9592883555679
 33
0
  0
SOLID
  5
BB
100
AcDbEntity
  8
measure
  6
ByBlock
 62
    0
370
   -2
100
AcDbTrace
 10
-70
 20
173
 30
0
 11
-76.25
 21
171.9592883555679
 31
0
 12
-76.25
 22
174.0407116444321
 32
0
 13
-76.25
 23
174.0407116444321
 33
0
  0
MTEXT
  5
BC
100
AcDbEntity
  8
measure
  6
CONTINUOUS
 62
    0
370
   -2
100
AcDbMText
 10
-85
 20
177.6875
 30
0
 40
6.25
 41
7.638888888889277
 71
    5
 72
    1
  1
30
  7
standard
210
0
220
0
230
1
 50
0
 73
    2
 44
1
  0
LINE
  5
BD
100
AcDbEntity
  8
measure
  6
ByBlock
 62
    0
370
   -2
100
AcDbLine
 10
-100
 20
161.5625
 11
-100
 21
176.125
  0
LINE
  5
BE
100
AcDbEntity
  8
measure
  6
ByBlock
 62
    0
370
   -2
100
AcDbLine
 10
-70
 20
161.5625
 11
-70
 21
176.125
  0
ENDBLK
  5
64
330
62
100
AcDbEntity
  8
0
100
AcDbBlockEnd
  0
BLOCK
  5
66
330
65
100
AcDbEntity
  8
0
100
AcDbBlockBegin
  2
*D9
 70
    1
 10
0
 20
0
  3
*D9
  1

  0
LINE
  5
BF
100
AcDbEntity
  8
measure
  6
ByBlock
 62
    0
370
   -2
100
AcDbLine
 10
105
 20
63
 11
150
 21
63
  0
SOLID
  5
C0
100
AcDbEntity
  8
measure
  6
ByBlock
 62
    0
370
   -2
100
AcDbTrace
 10
105
 20
63
 30
0
 11
111.25
 21
64.04071164443209
 31
0
 12
111.25
 22
61.9592883555679
 32
0
 13
111.25
 23
61.9592883555679
 33
0
  0
SOLID
  5
C1
100
AcDbEntity
  8
measure
  6
ByBlock
 62
    0
370
   -2
100
AcDbTrace
 10
150
 20
63
 30
0
 11
143.75
 21
61.9592883555679
 31
0
 12
143.75
 22
64.04071164443211
 32
0
 13
143.75
 23
64.04071164443211
 33
0
  0
MTEXT
  5
C2
100
AcDbEntity
  8
measure
  6
CONTINUOUS
 62
    0
370
   -2
100
AcDbMText
 10
127.5
 20
67.6875
 30
0
 40
6.25
 41
8.333333333333719
 71
    5
 72
    1
  1
45
  7
standard
210
0
220
0
230
1
 50
0
 73
    2
 44
1
  0
LINE
  5
C3
100
AcDbEntity
  8
measure
  6
ByBlock
 62
    0
370
   -2
100
AcDbLine
 10
105
 20
31.5625
 11
105
 21
66.125
  0
LINE
  5
C4
100
AcDbEntity
  8
measure
  6
ByBlock
 62
    0
370
   -2
100
AcDbLine
 10
150
 20
31.5625
 11
150
 21
66.125
  0
ENDBLK
  5
67
330
65
100
AcDbEntity
  8
0
100
AcDbBlockEnd
  0
BLOCK
  5
69
330
68
100
AcDbEntity
  8
0
100
AcDbBlockBegin
  2
*D7
 70
    1
 10
0
 20
0
  3
*D7
  1

  0
LINE
  5
C5
100
AcDbEntity
  8
measure
  6
ByBlock
 62
    0
370
   -2
100
AcDbLine
 10
0
 20
63
 11
45
 21
63
  0
SOLID
  5
C6
100
AcDbEntity
  8
measure
  6
ByBlock
 62
    0
370
   -2
100
AcDbTrace
 10
0
 20
63
 30
0
 11
6.25
 21
64.04071164443209
 31
0
 12
6.25
 22
61.9592883555679
 32
0
 13
6.25
 23
61.9592883555679
 33
0
  0
SOLID
  5
C7
100
AcDbEntity
  8
measure
  6
ByBlock
 62
    0
370
   -2
100
AcDbTrace
 10
45
 20
63
 30
0
 11
38.75
 21
61.9592883555679
 31
0
 12
38.75
 22
64.04071164443211
 32
0
 13
38.75
 23
64.04071164443211
 33
0
  0
MTEXT
  5
C8
100
AcDbEntity
  8
measure
  6
CONTINUOUS
 62
    0
370
   -2
100
AcDbMText
 10
22.5
 20
67.6875
 30
0
 40
6.25
 41
8.333333333333719
 71
    5
 72
    1
  1
45
  7
standard
210
0
220
0
230
1
 50
0
 73
    2
 44
1
  0
LINE
  5
C9
100
AcDbEntity
  8
measure
  6
ByBlock
 62
    0
370
   -2
100
AcDbLine
 10
9.567553118338697e-17
 20
31.5625
 11
1.913510623667739e-16
 21
66.125
  0
LINE
  5
CA
100
AcDbEntity
  8
measure
  6
ByBlock
 62
    0
370
   -2
100
AcDbLine
 10
45
 20
31.5625
 11
45
 21
66.125
  0
ENDBLK
  5
6A
330
68
100
AcDbEntity
  8
0
100
AcDbBlockEnd
  0
BLOCK
  5
6C
330
6B
100
AcDbEntity
  8
0
100
AcDbBlockBegin
  2
*D5
 70
    1
 10
0
 20
0
  3
*D5
  1

  0
LINE
  5
CB
100
AcDbEntity
  8
measure
  6
ByBlock
 62
    0
370
   -2
100
AcDbLine
 10
-103
 20
133.5
 11
-103
 21
172.5
  0
SOLID
  5
CC
100
AcDbEntity
  8
measure
  6
ByBlock
 62
    0
370
   -2
100
AcDbTrace
 10
-103
 20
146
 30
0
 11
-101.9592883555679
 21
139.75
 31
0
 12
-104.0407116444321
 22
139.75
 32
0
 13
-104.0407116444321
 23
139.75
 33
0
  0
SOLID
  5
CD
100
AcDbEntity
  8
measure
  6
ByBlock
 62
    0
370
   -2
100
AcDbTrace
 10
-103
 20
160
 30
0
 11
-104.0407116444321
 21
166.25
 31
0
 12
-101.9592883555679
 22
166.25
 32
0
 13
-101.9592883555679
 23
166.25
 33
0
  0
MTEXT
  5
CE
100
AcDbEntity
  8
measure
  6
CONTINUOUS
 62
    0
370
   -2
100
AcDbMText
 10
-107.6875
 20
153
 30
0
 40
6.25
 41
6.944444444444445
 71
    5
 72
    1
  1
14
  7
standard
210
0
220
0
230
1
 50
90
 73
    2
 44
1
  0
LINE
  5
CF
100
AcDbEntity
  8
measure
  6
ByBlock
 62
    0
370
   -2
100
AcDbLine
 10
-95.5625
 20
146
 11
-106.125
 21
146
  0
LINE
  5
D0
100
AcDbEntity
  8
measure
  6
ByBlock
 62
    0
370
   -2
100
AcDbLine
 10
-95.5625
 20
160
 11
-106.125
 21
160
  0
ENDBLK
  5
6D
330
6B
100
AcDbEntity
  8
0
100
AcDbBlockEnd
  0
BLOCK
  5
6F
330
6E
100
AcDbEntity
  8
0
100
AcDbBlockBegin
  2
*D14
 70
    1
 10
0
 20
0
  3
*D14
  1

  0
LINE
  5
D1
100
AcDbEntity
  8
measure
  6
ByBlock
 62
    0
370
   -2
100
AcDbLine
 10
144.148633274257
 20
245.5108200354459
 11
115.851366725743
 21
262.4891799645541
  0
SOLID
  5
D2
100
AcDbEntity
  8
measure
  6
ByBlock
 62
    0
370
   -2
100
AcDbTrace
 10
133.4299717028502
 20
251.9420169782899
 30
0
 11
139.3247442122379
 21
249.6188213796751
 31
0
 12
138.2538607648693
 22
247.8340156340607
 32
0
 13
138.2538607648693
 23
247.8340156340607
 33
0
  0
SOLID
  5
D3
100
AcDbEntity
  8
measure
  6
ByBlock
 62
    0
370
   -2
100
AcDbTrace
 10
126.5700282971498
 20
256.0579830217101
 30
0
 11
120.6752557877621
 21
258.3811786203249
 31
0
 12
121.7461392351307
 22
260.1659843659393
 32
0
 13
121.7461392351307
 23
260.1659843659393
 33
0
  0
MTEXT
  5
D4
100
AcDbEntity
  8
measure
  6
CONTINUOUS
 62
    0
370
   -2
100
AcDbMText
 10
132.4116988535665
 20
258.0194980892776
 30
0
 40
6.25
 41
2.777777777777778
 71
    5
 72
    1
  1
8
  7
standard
210
0
220
0
230
1
 50
329.0362434679269
 73
    2
 44
1
  0
ENDBLK
  5
70
330
6E
100
AcDbEntity
  8
0
100
AcDbBlockEnd
  0
BLOCK
  5
72
330
71
100
AcDbEntity
  8
0
100
AcDbBlockBegin
  2
*D18
 70
    1
 10
0
 20
0
  3
*D18
  1

  0
LINE
  5
D5
100
AcDbEntity
  8
measure
  6
ByBlock
 62
    0
370
   -2
100
AcDbLine
 10
103
 20
200
 11
103
 21
235
  0
SOLID
  5
D6
100
AcDbEntity
  8
measure
  6
ByBlock
 62
    0
370
   -2
100
AcDbTrace
 10
103
 20
200
 30
0
 11
101.9592883555679
 21
206.25
 31
0
 12
104.0407116444321
 22
206.25
 32
0
 13
104.0407116444321
 23
206.25
 33
0
  0
SOLID
  5
D7
100
AcDbEntity
  8
measure
  6
ByBlock
 62
    0
370
   -2
100
AcDbTrace
 10
103
 20
235
 30
0
 11
104.0407116444321
 21
228.75
 31
0
 12
101.9592883555679
 22
228.75
 32
0
 13
101.9592883555679
 23
228.75
 33
0
  0
MTEXT
  5
D8
100
AcDbEntity
  8
measure
  6
CONTINUOUS
 62
    0
370
   -2
100
AcDbMText
 10
98.3125
 20
217.5
 30
0
 40
6.25
 41
7.638888888889664
 71
    5
 72
    1
  1
35
  7
standard
210
0
220
0
230
1
 50
90
 73
    2
 44
1
  0
LINE
  5
D9
100
AcDbEntity
  8
measure
  6
ByBlock
 62
    0
370
   -2
100
AcDbLine
 10
103.4375
 20
200
 11
99.875
 21
200
  0
LINE
  5
DA
100
AcDbEntity
  8
measure
  6
ByBlock
 62
    0
370
   -2
100
AcDbLine
 10
103.4375
 20
235
 11
99.875
 21
235
  0
ENDBLK
  5
73
330
71
100
AcDbEntity
  8
0
100
AcDbBlockEnd
  0
BLOCK
  5
75
330
74
100
AcDbEntity
  8
0
100
AcDbBlockBegin
  2
*D4
 70
    1
 10
0
 20
0
  3
*D4
  1

  0
LINE
  5
DB
100
AcDbEntity
  8
measure
  6
ByBlock
 62
    0
370
   -2
100
AcDbLine
 10
97
 20
138
 11
97
 21
122
  0
SOLID
  5
DC
100
AcDbEntity
  8
measure
  6
ByBlock
 62
    0
370
   -2
100
AcDbTrace
 10
97
 20
138
 30
0
 11
98.04071164443211
 21
131.75
 31
0
 12
95.95928835556789
 22
131.75
 32
0
 13
95.95928835556789
 23
131.75
 33
0
  0
SOLID
  5
DD
100
AcDbEntity
  8
measure
  6
ByBlock
 62
    0
370
   -2
100
AcDbTrace
 10
97
 20
122
 30
0
 11
95.95928835556791
 21
128.25
 31
0
 12
98.04071164443211
 22
128.25
 32
0
 13
98.04071164443211
 23
128.25
 33
0
  0
MTEXT
  5
DE
100
AcDbEntity
  8
measure
  6
CONTINUOUS
 62
    0
370
   -2
100
AcDbMText
 10
92.3125
 20
130
 30
0
 40
6.25
 41
6.250000000000387
 71
    5
 72
    1
  1
16
  7
standard
210
0
220
0
230
1
 50
90
 73
    2
 44
1
  0
LINE
  5
DF
100
AcDbEntity
  8
measure
  6
ByBlock
 62
    0
370
   -2
100
AcDbLine
 10
96.5625
 20
138
 11
100.125
 21
138
  0
LINE
  5
E0
100
AcDbEntity
  8
measure
  6
ByBlock
 62
    0
370
   -2
100
AcDbLine
 10
96.5625
 20
122
 11
100.125
 21
122
  0
ENDBLK
  5
76
330
74
100
AcDbEntity
  8
0
100
AcDbBlockEnd
  0
BLOCK
  5
78
330
77
100
AcDbEntity
  8
0
100
AcDbBlockBegin
  2
*D10
 70
    1
 10
0
 20
0
  3
*D10
  1

  0
LINE
  5
E1
100
AcDbEntity
  8
measure
  6
ByBlock
 62
    0
370
   -2
100
AcDbLine
 10
-2.999999999999998
 20
60
 11
-3
 21
30
  0
SOLID
  5
E2
100
AcDbEntity
  8
measure
  6
ByBlock
 62
    0
370
   -2
100
AcDbTrace
 10
-2.999999999999998
 20
60
 30
0
 11
-1.959288355567897
 21
53.75
 31
0
 12
-4.0407116444321
 22
53.75
 32
0
 13
-4.0407116444321
 23
53.75
 33
0
  0
SOLID
  5
E3
100
AcDbEntity
  8
measure
  6
ByBlock
 62
    0
370
   -2
100
AcDbTrace
 10
-3
 20
30
 30
0
 11
-4.040711644432101
 21
36.25
 31
0
 12
-1.959288355567898
 22
36.25
 32
0
 13
-1.959288355567898
 23
36.25
 33
0
  0
MTEXT
  5
E4
100
AcDbEntity
  8
measure
  6
CONTINUOUS
 62
    0
370
   -2
100
AcDbMText
 10
-7.687499999999999
 20
45
 30
0
 40
6.25
 41
7.638888888889277
 71
    5
 72
    1
  1
30
  7
standard
210
0
220
0
230
1
 50
90
 73
    2
 44
1
  0
LINE
  5
E5
100
AcDbEntity
  8
measure
  6
ByBlock
 62
    0
370
   -2
100
AcDbLine
 10
-1.562499999999996
 20
60
 11
-6.124999999999998
 21
60
  0
LINE
  5
E6
100
AcDbEntity
  8
measure
  6
ByBlock
 62
    0
370
   -2
100
AcDbLine
 10
-1.562499999999998
 20
30
 11
-6.125
 21
30
  0
ENDBLK
  5
79
330
77
100
AcDbEntity
  8
0
100
AcDbBlockEnd
  0
BLOCK
  5
7B
330
7A
100
AcDbEntity
  8
0
100
AcDbBlockBegin
  2
*D6
 70
    1
 10
0
 20
0
  3
*D6
  1

  0
LINE
  5
E7
100
AcDbEntity
  8
measure
  6
ByBlock
 62
    0
370
   -2
100
AcDbLine
 10
-112.5
 20
163
 11
-81.5
 21
163
  0
SOLID
  5
E8
100
AcDbEntity
  8
measure
  6
ByBlock
 62
    0
370
   -2
100
AcDbTrace
 10
-100
 20
163
 30
0
 11
-106.25
 21
161.9592883555679
 31
0
 12
-106.25
 22
164.0407116444321
 32
0
 13
-106.25
 23
164.0407116444321
 33
0
  0
SOLID
  5
E9
100
AcDbEntity
  8
measure
  6
ByBlock
 62
    0
370
   -2
100
AcDbTrace
 10
-94
 20
163
 30
0
 11
-87.75
 21
164.0407116444321
 31
0
 12
-87.75
 22
161.9592883555679
 32
0
 13
-87.75
 23
161.9592883555679
 33
0
  0
MTEXT
  5
EA
100
AcDbEntity
  8
measure
  6
CONTINUOUS
 62
    0
370
   -2
100
AcDbMText
 10
-97
 20
167.6875
 30
0
 40
6.25
 41
2.777777777778165
 71
    5
 72
    1
  1
6
  7
standard
210
0
220
0
230
1
 50
0
 73
    2
 44
1
  0
LINE
  5
EB
100
AcDbEntity
  8
measure
  6
ByBlock
 62
    0
370
   -2
100
AcDbLine
 10
-100
 20
161.5625
 11
-100
 21
166.125
  0
LINE
  5
EC
100
AcDbEntity
  8
measure
  6
ByBlock
 62
    0
370
   -2
100
AcDbLine
 10
-94
 20
161.5625
 11
-94
 21
166.125
  0
ENDBLK
  5
7C
330
7A
100
AcDbEntity
  8
0
100
AcDbBlockEnd
  0
BLOCK
  5
7E
330
7D
100
AcDbEntity
  8
0
100
AcDbBlockBegin
  2
*D13
 70
    1
 10
0
 20
0
  3
*D13
  1

  0
LINE
  5
ED
100
AcDbEntity
  8
measure
  6
ByBlock
 62
    0
370
   -2
100
AcDbLine
 10
156
 20
272.5
 11
156
 21
241.5
  0
SOLID
  5
EE
100
AcDbEntity
  8
measure
  6
ByBlock
 62
    0
370
   -2
100
AcDbTrace
 10
156
 20
260
 30
0
 11
154.9592883555679
 21
266.25
 31
0
 12
157.0407116444321
 22
266.25
 32
0
 13
157.0407116444321
 23
266.25
 33
0
  0
SOLID
  5
EF
100
AcDbEntity
  8
measure
  6
ByBlock
 62
    0
370
   -2
100
AcDbTrace
 10
156
 20
254
 30
0
 11
157.0407116444321
 21
247.75
 31
0
 12
154.9592883555679
 22
247.75
 32
0
 13
154.9592883555679
 23
247.75
 33
0
  0
MTEXT
  5
F0
100
AcDbEntity
  8
measure
  6
CONTINUOUS
 62
    0
370
   -2
100
AcDbMText
 10
151.3125
 20
257
 30
0
 40
6.25
 41
2.777777777778165
 71
    5
 72
    1
  1
6
  7
standard
210
0
220
0
230
1
 50
90
 73
    2
 44
1
  0
LINE
  5
F1
100
AcDbEntity
  8
measure
  6
ByBlock
 62
    0
370
   -2
100
AcDbLine
 10
131.5625
 20
260
 11
159.125
 21
260
  0
LINE
  5
F2
100
AcDbEntity
  8
measure
  6
ByBlock
 62
    0
370
   -2
100
AcDbLine
 10
131.5625
 20
254
 11
159.125
 21
254
  0
ENDBLK
  5
7F
330
7D
100
AcDbEntity
  8
0
100
AcDbBlockEnd
  0
BLOCK
  5
81
330
80
100
AcDbEntity
  8
0
100
AcDbBlockBegin
  2
*D2
 70
    1
 10
0
 20
0
  3
*D2
  1

  0
LINE
  5
F3
100
AcDbEntity
  8
measure
  6
ByBlock
 62
    0
370
   -2
100
AcDbLine
 10
5.999999999999998
 20
114
 11
6
 21
146
  0
SOLID
  5
F4
100
AcDbEntity
  8
measure
  6
ByBlock
 62
    0
370
   -2
100
AcDbTrace
 10
5.999999999999998
 20
114
 30
0
 11
4.959288355567898
 21
120.25
 31
0
 12
7.040711644432101
 22
120.25
 32
0
 13
7.040711644432101
 23
120.25
 33
0
  0
SOLID
  5
F5
100
AcDbEntity
  8
measure
  6
ByBlock
 62
    0
370
   -2
100
AcDbTrace
 10
6
 20
146
 30
0
 11
7.040711644432101
 21
139.75
 31
0
 12
4.959288355567899
 22
139.75
 32
0
 13
4.959288355567899
 23
139.75
 33
0
  0
MTEXT
  5
F6
100
AcDbEntity
  8
measure
  6
CONTINUOUS
 62
    0
370
   -2
100
AcDbMText
 10
1.312499999999999
 20
130
 30
0
 40
6.25
 41
7.638888888889277
 71
    5
 72
    1
  1
32
  7
standard
210
0
220
0
230
1
 50
90
 73
    2
 44
1
  0
LINE
  5
F7
100
AcDbEntity
  8
measure
  6
ByBlock
 62
    0
370
   -2
100
AcDbLine
 10
5.5625
 20
114
 11
9.124999999999998
 21
114
  0
LINE
  5
F8
100
AcDbEntity
  8
measure
  6
ByBlock
 62
    0
370
   -2
100
AcDbLine
 10
5.5625
 20
146
 11
9.125
 21
146
  0
ENDBLK
  5
82
330
80
100
AcDbEntity
  8
0
100
AcDbBlockEnd
  0
BLOCK
  5
84
330
83
100
AcDbEntity
  8
0
100
AcDbBlockBegin
  2
*D12
 70
    1
 10
0
 20
0
  3
*D12
  1

  0
LINE
  5
F9
100
AcDbEntity
  8
measure
  6
ByBlock
 62
    0
370
   -2
100
AcDbLine
 10
130
 20
263
 11
150
 21
263
  0
SOLID
  5
FA
100
AcDbEntity
  8
measure
  6
ByBlock
 62
    0
370
   -2
100
AcDbTrace
 10
130
 20
263
 30
0
 11
136.25
 21
264.0407116444321
 31
0
 12
136.25
 22
261.9592883555679
 32
0
 13
136.25
 23
261.9592883555679
 33
0
  0
SOLID
  5
FB
100
AcDbEntity
  8
measure
  6
ByBlock
 62
    0
370
   -2
100
AcDbTrace
 10
150
 20
263
 30
0
 11
143.75
 21
261.9592883555679
 31
0
 12
143.75
 22
264.0407116444321
 32
0
 13
143.75
 23
264.0407116444321
 33
0
  0
MTEXT
  5
FC
100
AcDbEntity
  8
measure
  6
CONTINUOUS
 62
    0
370
   -2
100
AcDbMText
 10
140
 20
267.6875
 30
0
 40
6.25
 41
7.638888888888888
 71
    5
 72
    1
  1
20
  7
standard
210
0
220
0
230
1
 50
0
 73
    2
 44
1
  0
LINE
  5
FD
100
AcDbEntity
  8
measure
  6
ByBlock
 62
    0
370
   -2
100
AcDbLine
 10
130
 20
255.5625
 11
130
 21
266.125
  0
LINE
  5
FE
100
AcDbEntity
  8
measure
  6
ByBlock
 62
    0
370
   -2
100
AcDbLine
 10
150
 20
255.5625
 11
150
 21
266.125
  0
ENDBLK
  5
85
330
83
100
AcDbEntity
  8
0
100
AcDbBlockEnd
  0
BLOCK
  5
87
330
86
100
AcDbEntity
  8
0
100
AcDbBlockBegin
  2
*D15
 70
    1
 10
0
 20
0
  3
*D15
  1

  0
LINE
  5
FF
100
AcDbEntity
  8
measure
  6
ByBlock
 62
    0
370
   -2
100
AcDbLine
 10
116.3137084989848
 20
223.6862915010152
 11
93.68629150101523
 21
246.3137084989848
  0
SOLID
  5
100
100
AcDbEntity
  8
measure
  6
ByBlock
 62
    0
370
   -2
100
AcDbTrace
 10
116.3137084989848
 20
223.6862915010152
 30
0
 11
111.1583968555311
 21
227.3698146223934
 31
0
 12
112.6301853776066
 22
228.8416031444689
 32
0
 13
112.6301853776066
 23
228.8416031444689
 33
0
  0
SOLID
  5
101
100
AcDbEntity
  8
measure
  6
ByBlock
 62
    0
370
   -2
100
AcDbTrace
 10
93.68629150101523
 20
246.3137084989848
 30
0
 11
98.84160314446889
 21
242.6301853776066
 31
0
 12
97.36981462239341
 22
241.1583968555311
 32
0
 13
97.36981462239341
 23
241.1583968555311
 33
0
  0
MTEXT
  5
102
100
AcDbEntity
  8
measure
  6
CONTINUOUS
 62
    0
370
   -2
100
AcDbMText
 10
108.314563036812
 20
238.3145630368119
 30
0
 40
6.25
 41
7.638888888889277
 71
    5
 72
    1
  1
32
  7
standard
210
0
220
0
230
1
 50
314.9999999999999
 73
    2
 44
1
  0
ENDBLK
  5
88
330
86
100
AcDbEntity
  8
0
100
AcDbBlockEnd
  0
BLOCK
  5
8A
330
89
100
AcDbEntity
  8
0
100
AcDbBlockBegin
  2
*D1
 70
    1
 10
0
 20
0
  3
*D1
  1

  0
LINE
  5
103
100
AcDbEntity
  8
measure
  6
ByBlock
 62
    0
370
   -2
100
AcDbLine
 10
0
 20
109
 11
65
 21
109
  0
SOLID
  5
104
100
AcDbEntity
  8
measure
  6
ByBlock
 62
    0
370
   -2
100
AcDbTrace
 10
0
 20
109
 30
0
 11
6.25
 21
110.0407116444321
 31
0
 12
6.25
 22
107.9592883555679
 32
0
 13
6.25
 23
107.9592883555679
 33
0
  0
SOLID
  5
105
100
AcDbEntity
  8
measure
  6
ByBlock
 62
    0
370
   -2
100
AcDbTrace
 10
65
 20
109
 30
0
 11
58.75
 21
107.9592883555679
 31
0
 12
58.75
 22
110.0407116444321
 32
0
 13
58.75
 23
110.0407116444321
 33
0
  0
MTEXT
  5
106
100
AcDbEntity
  8
measure
  6
CONTINUOUS
 62
    0
370
   -2
100
AcDbMText
 10
32.5
 20
113.6875
 30
0
 40
6.25
 41
7.638888888889664
 71
    5
 72
    1
  1
65
  7
standard
210
0
220
0
230
1
 50
0
 73
    2
 44
1
  0
LINE
  5
107
100
AcDbEntity
  8
measure
  6
ByBlock
 62
    0
370
   -2
100
AcDbLine
 10
5.702261658529844e-16
 20
112.4375
 11
-5.740531871003218e-16
 21
105.875
  0
LINE
  5
108
100
AcDbEntity
  8
measure
  6
ByBlock
 62
    0
370
   -2
100
AcDbLine
 10
65
 20
112.4375
 11
65
 21
105.875
  0
ENDBLK
  5
8B
330
89
100
AcDbEntity
  8
0
100
AcDbBlockEnd
  0
BLOCK
  5
8D
330
8C
100
AcDbEntity
  8
0
100
AcDbBlockBegin
  2
*D20
 70
    1
 10
0
 20
0
  3
*D20
  1

  0
LINE
  5
109
100
AcDbEntity
  8
measure
  6
ByBlock
 62
    0
370
   -2
100
AcDbLine
 10
260
 20
155
 11
260
 21
100
  0
SOLID
  5
10A
100
AcDbEntity
  8
measure
  6
ByBlock
 62
    0
370
   -2
100
AcDbTrace
 10
260
 20
155
 30
0
 11
261.0407116444321
 21
148.75
 31
0
 12
258.9592883555679
 22
148.75
 32
0
 13
258.9592883555679
 23
148.75
 33
0
  0
SOLID
  5
10B
100
AcDbEntity
  8
measure
  6
ByBlock
 62
    0
370
   -2
100
AcDbTrace
 10
260
 20
100
 30
0
 11
258.9592883555679
 21
106.25
 31
0
 12
261.0407116444321
 22
106.25
 32
0
 13
261.0407116444321
 23
106.25
 33
0
  0
MTEXT
  5
10C
100
AcDbEntity
  8
measure
  6
CONTINUOUS
 62
    0
370
   -2
100
AcDbMText
 10
255.3125
 20
127.5
 30
0
 40
6.25
 41
7.638888888889664
 71
    5
 72
    1
  1
55
  7
standard
210
0
220
0
230
1
 50
90
 73
    2
 44
1
  0
LINE
  5
10D
100
AcDbEntity
  8
measure
  6
ByBlock
 62
    0
370
   -2
100
AcDbLine
 10
249.5625
 20
155
 11
263.125
 21
155
  0
LINE
  5
10E
100
AcDbEntity
  8
measure
  6
ByBlock
 62
    0
370
   -2
100
AcDbLine
 10
249.5625
 20
100
 11
263.125
 21
100
  0
ENDBLK
  5
8E
330
8C
100
AcDbEntity
  8
0
100
AcDbBlockEnd
  0
BLOCK
  5
90
330
8F
100
AcDbEntity
  8
0
100
AcDbBlockBegin
  2
*D16
 70
    1
 10
0
 20
0
  3
*D16
  1

  0
LINE
  5
10F
100
AcDbEntity
  8
measure
  6
ByBlock
 62
    0
370
   -2
100
AcDbLine
 10
48.57770876399966
 20
22.84458247200067
 11
41.42229123600033
 21
37.15541752799933
  0
SOLID
  5
110
100
AcDbEntity
  8
measure
  6
ByBlock
 62
    0
370
   -2
100
AcDbTrace
 10
48.57770876399966
 20
22.84458247200067
 30
0
 11
44.85178299935462
 21
27.96933201936499
 31
0
 12
46.71346458489523
 22
28.9001728121353
 32
0
 13
46.71346458489523
 23
28.9001728121353
 33
0
  0
SOLID
  5
111
100
AcDbEntity
  8
measure
  6
ByBlock
 62
    0
370
   -2
100
AcDbTrace
 10
41.42229123600033
 20
37.15541752799933
 30
0
 11
45.14821700064537
 21
32.03066798063501
 31
0
 12
43.28653541510476
 22
31.0998271878647
 32
0
 13
43.28653541510476
 23
31.0998271878647
 33
0
  0
MTEXT
  5
112
100
AcDbEntity
  8
measure
  6
CONTINUOUS
 62
    0
370
   -2
100
AcDbMText
 10
49.19262745781211
 20
32.09631372890605
 30
0
 40
6.25
 41
6.250000000000387
 71
    5
 72
    1
  1
16
  7
standard
210
0
220
0
230
1
 50
296.5650511770779
 73
    2
 44
1
  0
ENDBLK
  5
91
330
8F
100
AcDbEntity
  8
0
100
AcDbBlockEnd
  0
BLOCK
  5
93
330
92
100
AcDbEntity
  8
0
100
AcDbBlockBegin
  2
*D22
 70
    1
 10
0
 20
0
  3
*D22
  1

  0
LINE
  5
113
100
AcDbEntity
  8
measure
  6
ByBlock
 62
    0
370
   -2
100
AcDbLine
 10
-103
 20
87.5
 11
-103
 21
122.5
  0
SOLID
  5
114
100
AcDbEntity
  8
measure
  6
ByBlock
 62
    0
370
   -2
100
AcDbTrace
 10
-103
 20
100
 30
0
 11
-101.9592883555679
 21
93.75
 31
0
 12
-104.0407116444321
 22
93.75
 32
0
 13
-104.0407116444321
 23
93.75
 33
0
  0
SOLID
  5
115
100
AcDbEntity
  8
measure
  6
ByBlock
 62
    0
370
   -2
100
AcDbTrace
 10
-103
 20
110
 30
0
 11
-104.0407116444321
 21
116.25
 31
0
 12
-101.9592883555679
 22
116.25
 32
0
 13
-101.9592883555679
 23
116.25
 33
0
  0
MTEXT
  5
116
100
AcDbEntity
  8
measure
  6
CONTINUOUS
 62
    0
370
   -2
100
AcDbMText
 10
-107.6875
 20
105
 30
0
 40
6.25
 41
6.25
 71
    5
 72
    1
  1
10
  7
standard
210
0
220
0
230
1
 50
90
 73
    2
 44
1
  0
LINE
  5
117
100
AcDbEntity
  8
measure
  6
ByBlock
 62
    0
370
   -2
100
AcDbLine
 10
-71.5625
 20
100
 11
-106.125
 21
100
  0
LINE
  5
118
100
AcDbEntity
  8
measure
  6
ByBlock
 62
    0
370
   -2
100
AcDbLine
 10
-71.5625
 20
110
 11
-106.125
 21
110
  0
ENDBLK
  5
94
330
92
100
AcDbEntity
  8
0
100
AcDbBlockEnd
  0
BLOCK
  5
96
330
95
100
AcDbEntity
  8
0
100
AcDbBlockBegin
  2
*D3
 70
    1
 10
0
 20
0
  3
*D3
  1

  0
LINE
  5
119
100
AcDbEntity
  8
measure
  6
ByBlock
 62
    0
370
   -2
100
AcDbLine
 10
91
 20
134
 11
119
 21
134
  0
SOLID
  5
11A
100
AcDbEntity
  8
measure
  6
ByBlock
 62
    0
370
   -2
100
AcDbTrace
 10
91
 20
134
 30
0
 11
97.25
 21
135.0407116444321
 31
0
 12
97.25
 22
132.9592883555679
 32
0
 13
97.25
 23
132.9592883555679
 33
0
  0
SOLID
  5
11B
100
AcDbEntity
  8
measure
  6
ByBlock
 62
    0
370
   -2
100
AcDbTrace
 10
119
 20
134
 30
0
 11
112.75
 21
132.9592883555679
 31
0
 12
112.75
 22
135.0407116444321
 32
0
 13
112.75
 23
135.0407116444321
 33
0
  0
MTEXT
  5
11C
100
AcDbEntity
  8
measure
  6
CONTINUOUS
 62
    0
370
   -2
100
AcDbMText
 10
105
 20
138.6875
 30
0
 40
6.25
 41
7.638888888888888
 71
    5
 72
    1
  1
28
  7
standard
210
0
220
0
230
1
 50
0
 73
    2
 44
1
  0
LINE
  5
11D
100
AcDbEntity
  8
measure
  6
ByBlock
 62
    0
370
   -2
100
AcDbLine
 10
91
 20
134.4375
 11
91
 21
130.875
  0
LINE
  5
11E
100
AcDbEntity
  8
measure
  6
ByBlock
 62
    0
370
   -2
100
AcDbLine
 10
119
 20
134.4375
 11
119
 21
130.875
  0
ENDBLK
  5
97
330
95
100
AcDbEntity
  8
0
100
AcDbBlockEnd
  0
BLOCK
  5
99
330
98
100
AcDbEntity
  8
0
100
AcDbBlockBegin
  2
*D11
 70
    1
 10
0
 20
0
  3
*D11
  1

  0
LINE
  5
11F
100
AcDbEntity
  8
measure
  6
ByBlock
 62
    0
370
   -2
100
AcDbLine
 10
-2.999999999999998
 20
30
 11
-3
 21
1.865174681370263e-16
  0
SOLID
  5
120
100
AcDbEntity
  8
measure
  6
ByBlock
 62
    0
370
   -2
100
AcDbTrace
 10
-2.999999999999998
 20
30
 30
0
 11
-1.959288355567897
 21
23.75
 31
0
 12
-4.0407116444321
 22
23.75
 32
0
 13
-4.0407116444321
 23
23.75
 33
0
  0
SOLID
  5
121
100
AcDbEntity
  8
measure
  6
ByBlock
 62
    0
370
   -2
100
AcDbTrace
 10
-3
 20
1.865174681370263e-16
 30
0
 11
-4.040711644432101
 21
6.25
 31
0
 12
-1.959288355567898
 22
6.25
 32
0
 13
-1.959288355567898
 23
6.25
 33
0
  0
MTEXT
  5
122
100
AcDbEntity
  8
measure
  6
CONTINUOUS
 62
    0
370
   -2
100
AcDbMText
 10
-7.687499999999999
 20
15
 30
0
 40
6.25
 41
7.638888888889277
 71
    5
 72
    1
  1
30
  7
standard
210
0
220
0
230
1
 50
90
 73
    2
 44
1
  0
LINE
  5
123
100
AcDbEntity
  8
measure
  6
ByBlock
 62
    0
370
   -2
100
AcDbLine
 10
-1.562499999999998
 20
30
 11
-6.124999999999998
 21
30
  0
LINE
  5
124
100
AcDbEntity
  8
measure
  6
ByBlock
 62
    0
370
   -2
100
AcDbLine
 10
-1.5625
 20
1.913510623667739e-16
 11
-6.125
 21
5.692195928705742e-16
  0
ENDBLK
  5
9A
330
98
100
AcDbEntity
  8
0
100
AcDbBlockEnd
  0
BLOCK
  5
9C
330
9B
100
AcDbEntity
  8
0
100
AcDbBlockBegin
  2
*D21
 70
    1
 10
0
 20
0
  3
*D21
  1

  0
LINE
  5
125
100
AcDbEntity
  8
measure
  6
ByBlock
 62
    0
370
   -2
100
AcDbLine
 10
208.6862915010152
 20
118.6862915010152
 11
231.3137084989848
 21
141.3137084989848
  0
SOLID
  5
126
100
AcDbEntity
  8
measure
  6
ByBlock
 62
    0
370
   -2
100
AcDbTrace
 10
208.6862915010152
 20
118.6862915010152
 30
0
 11
212.3698146223934
 21
123.8416031444689
 31
0
 12
213.8416031444689
 22
122.3698146223934
 32
0
 13
213.8416031444689
 23
122.3698146223934
 33
0
  0
SOLID
  5
127
100
AcDbEntity
  8
measure
  6
ByBlock
 62
    0
370
   -2
100
AcDbTrace
 10
231.3137084989848
 20
141.3137084989848
 30
0
 11
227.6301853776066
 21
136.1583968555311
 31
0
 12
226.1583968555311
 22
137.6301853776066
 32
0
 13
226.1583968555311
 23
137.6301853776066
 33
0
  0
MTEXT
  5
128
100
AcDbEntity
  8
measure
  6
CONTINUOUS
 62
    0
370
   -2
100
AcDbMText
 10
216.6854369631881
 20
133.3145630368119
 30
0
 40
6.25
 41
7.638888888889277
 71
    5
 72
    1
  1
32
  7
standard
210
0
220
0
230
1
 50
45
 73
    2
 44
1
  0
ENDBLK
  5
9D
330
9B
100
AcDbEntity
  8
0
100
AcDbBlockEnd
  0
BLOCK
  5
9F
330
9E
100
AcDbEntity
  8
0
100
AcDbBlockBegin
  2
*D8
 70
    1
 10
0
 20
0
  3
*D8
  1

  0
LINE
  5
129
100
AcDbEntity
  8
measure
  6
ByBlock
 62
    0
370
   -2
100
AcDbLine
 10
45
 20
63
 11
105
 21
63
  0
SOLID
  5
12A
100
AcDbEntity
  8
measure
  6
ByBlock
 62
    0
370
   -2
100
AcDbTrace
 10
45
 20
63
 30
0
 11
51.25
 21
64.04071164443209
 31
0
 12
51.25
 22
61.9592883555679
 32
0
 13
51.25
 23
61.9592883555679
 33
0
  0
SOLID
  5
12B
100
AcDbEntity
  8
measure
  6
ByBlock
 62
    0
370
   -2
100
AcDbTrace
 10
105
 20
63
 30
0
 11
98.75
 21
61.9592883555679
 31
0
 12
98.75
 22
64.04071164443211
 32
0
 13
98.75
 23
64.04071164443211
 33
0
  0
MTEXT
  5
12C
100
AcDbEntity
  8
measure
  6
CONTINUOUS
 62
    0
370
   -2
100
AcDbMText
 10
75
 20
67.6875
 30
0
 40
6.25
 41
7.638888888889277
 71
    5
 72
    1
  1
60
  7
standard
210
0
220
0
230
1
 50
0
 73
    2
 44
1
  0
LINE
  5
12D
100
AcDbEntity
  8
measure
  6
ByBlock
 62
    0
370
   -2
100
AcDbLine
 10
45
 20
31.5625
 11
45
 21
66.125
  0
LINE
  5
12E
100
AcDbEntity
  8
measure
  6
ByBlock
 62
    0
370
   -2
100
AcDbLine
 10
105
 20
31.5625
 11
105
 21
66.125
  0
ENDBLK
  5
A0
330
9E
100
AcDbEntity
  8
0
100
AcDbBlockEnd
  0
ENDSEC
  0
SECTION
  2
ENTITIES
  0
LINE
  5
12F
100
AcDbEntity
  8
visible
  6
ByLayer
 62
  256
370
   -1
100
AcDbLine
 10
0
 20
0
 11
150
 21
0
  0
LINE
  5
130
100
AcDbEntity
  8
visible
  6
ByLayer
 62
  256
370
   -1
100
AcDbLine
 10
0
 20
0
 11
3.67394039744206e-15
 21
60
  0
LINE
  5
131
100
AcDbEntity
  8
visible
  6
ByLayer
 62
  256
370
   -1
100
AcDbLine
 10
150
 20
0
 11
150
 21
60
  0
LINE
  5
132
100
AcDbEntity
  8
visible
  6
ByLayer
 62
  256
370
   -1
100
AcDbLine
 10
0
 20
60
 11
150
 21
60
  0
LINE
  5
133
100
AcDbEntity
  8
visible
  6
ByLayer
 62
  256
370
   -1
100
AcDbLine
 10
0
 20
100
 11
150
 21
100
  0
LINE
  5
134
100
AcDbEntity
  8
visible
  6
ByLayer
 62
  256
370
   -1
100
AcDbLine
 10
0
 20
100
 11
3.67394039744206e-15
 21
160
  0
LINE
  5
135
100
AcDbEntity
  8
visible
  6
ByLayer
 62
  256
370
   -1
100
AcDbLine
 10
150
 20
100
 11
150
 21
160
  0
LINE
  5
136
100
AcDbEntity
  8
aux
  6
ByLayer
 62
  256
370
   -1
100
AcDbLine
 10
0
 20
130
 11
45
 21
130
  0
LINE
  5
137
100
AcDbEntity
  8
aux
  6
ByLayer
 62
  256
370
   -1
100
AcDbLine
 10
0
 20
30
 11
45
 21
30
  0
LINE
  5
138
100
AcDbEntity
  8
aux
  6
ByLayer
 62
  256
370
   -1
100
AcDbLine
 10
150
 20
30
 11
105
 21
30
  0
LINE
  5
139
100
AcDbEntity
  8
aux
  6
ByLayer
 62
  256
370
   -1
100
AcDbLine
 10
150
 20
130
 11
105
 21
130
  0
CIRCLE
  5
13A
100
AcDbEntity
  8
visible
  6
ByLayer
 62
  256
370
   -1
100
AcDbCircle
 10
45
 20
30
 40
8
  0
CIRCLE
  5
13B
100
AcDbEntity
  8
visible
  6
ByLayer
 62
  256
370
   -1
100
AcDbCircle
 10
105
 20
30
 40
8
  0
LINE
  5
13C
100
AcDbEntity
  8
aux
  6
ByLayer
 62
  256
370
   -1
100
AcDbLine
 10
105
 20
130
 11
105
 21
138
  0
LINE
  5
13D
100
AcDbEntity
  8
aux
  6
ByLayer
 62
  256
370
   -1
100
AcDbLine
 10
105
 20
130
 11
105
 21
122
  0
LINE
  5
13E
100
AcDbEntity
  8
aux
  6
ByLayer
 62
  256
370
   -1
100
AcDbLine
 10
105
 20
122
 11
119
 21
122
  0
LINE
  5
13F
100
AcDbEntity
  8
aux
  6
ByLayer
 62
  256
370
   -1
100
AcDbLine
 10
105
 20
138
 11
119
 21
138
  0
LINE
  5
140
100
AcDbEntity
  8
aux
  6
ByLayer
 62
  256
370
   -1
100
AcDbLine
 10
105
 20
138
 11
91
 21
138
  0
LINE
  5
141
100
AcDbEntity
  8
aux
  6
ByLayer
 62
  256
370
   -1
100
AcDbLine
 10
105
 20
122
 11
91
 21
122
  0
LWPOLYLINE
  5
142
100
AcDbEntity
  8
visible
  6
ByLayer
 62
  256
370
   -1
100
AcDbPolyline
 90
    4
 70
    1
 43
0
 10
91
 20
122
 10
119
 20
122
 10
119
 20
138
 10
91
 20
138
  0
LINE
  5
143
100
AcDbEntity
  8
aux
  6
ByLayer
 62
  256
370
   -1
100
AcDbLine
 10
150
 20
100
 11
150
 21
146
  0
LINE
  5
144
100
AcDbEntity
  8
middle
  6
ByLayer
 62
  256
370
   -1
100
AcDbLine
 10
130
 20
100
 11
130
 21
155
  0
LINE
  5
145
100
AcDbEntity
  8
invisible
  6
ByLayer
 62
  256
370
   -1
100
AcDbLine
 10
126
 20
100
 11
126
 21
155
  0
LINE
  5
146
100
AcDbEntity
  8
invisible
  6
ByLayer
 62
  256
370
   -1
100
AcDbLine
 10
134
 20
100
 11
134
 21
155
  0
LINE
  5
147
100
AcDbEntity
  8
invisible
  6
ByLayer
 62
  256
370
   -1
100
AcDbLine
 10
126
 20
155
 11
134
 21
155
  0
CIRCLE
  5
148
100
AcDbEntity
  8
invisible
  6
ByLayer
 62
  256
370
   -1
100
AcDbCircle
 10
130
 20
6
 40
4
  0
LINE
  5
149
100
AcDbEntity
  8
invisible
  6
ByLayer
 62
  256
370
   -1
100
AcDbLine
 10
0
 20
146
 11
65
 21
146
  0
LINE
  5
14A
100
AcDbEntity
  8
invisible
  6
ByLayer
 62
  256
370
   -1
100
AcDbLine
 10
0
 20
114
 11
65
 21
114
  0
LINE
  5
14B
100
AcDbEntity
  8
middle
  6
ByLayer
 62
  256
370
   -1
100
AcDbLine
 10
0
 20
130
 11
82
 21
130
  0
LINE
  5
14C
100
AcDbEntity
  8
invisible
  6
ByLayer
 62
  256
370
   -1
100
AcDbLine
 10
65
 20
146
 11
82
 21
130
  0
LINE
  5
14D
100
AcDbEntity
  8
invisible
  6
ByLayer
 62
  256
370
   -1
100
AcDbLine
 10
82
 20
130
 11
65
 21
114
  0
LINE
  5
14E
100
AcDbEntity
  8
invisible
  6
ByLayer
 62
  256
370
   -1
100
AcDbLine
 10
0
 20
46
 11
65
 21
46
  0
LINE
  5
14F
100
AcDbEntity
  8
invisible
  6
ByLayer
 62
  256
370
   -1
100
AcDbLine
 10
0
 20
14
 11
65
 21
14
  0
LINE
  5
150
100
AcDbEntity
  8
middle
  6
ByLayer
 62
  256
370
   -1
100
AcDbLine
 10
0
 20
30
 11
82
 21
30
  0
LINE
  5
151
100
AcDbEntity
  8
invisible
  6
ByLayer
 62
  256
370
   -1
100
AcDbLine
 10
65
 20
46
 11
82
 21
30
  0
LINE
  5
152
100
AcDbEntity
  8
invisible
  6
ByLayer
 62
  256
370
   -1
100
AcDbLine
 10
82
 20
30
 11
65
 21
14
  0
LINE
  5
153
100
AcDbEntity
  8
aux
  6
ByLayer
 62
  256
370
   -1
100
AcDbLine
 10
37
 20
30
 11
37.00000000000001
 21
230
  0
LINE
  5
154
100
AcDbEntity
  8
aux
  6
ByLayer
 62
  256
370
   -1
100
AcDbLine
 10
53
 20
30
 11
53.00000000000001
 21
230
  0
LINE
  5
155
100
AcDbEntity
  8
invisible
  6
ByLayer
 62
  256
370
   -1
100
AcDbLine
 10
37.00000000000001
 20
160
 11
37
 21
146
  0
LINE
  5
156
100
AcDbEntity
  8
invisible
  6
ByLayer
 62
  256
370
   -1
100
AcDbLine
 10
53.00000000000001
 20
160
 11
53.00000000000001
 21
146
  0
LINE
  5
157
100
AcDbEntity
  8
middle
  6
ByLayer
 62
  256
370
   -1
100
AcDbLine
 10
45
 20
146
 11
45
 21
160
  0
LINE
  5
158
100
AcDbEntity
  8
aux
  6
ByLayer
 62
  256
370
   -1
100
AcDbLine
 10
97
 20
30
 11
97.00000000000001
 21
230
  0
LINE
  5
159
100
AcDbEntity
  8
aux
  6
ByLayer
 62
  256
370
   -1
100
AcDbLine
 10
113
 20
30
 11
113
 21
230
  0
DIMENSION
  5
15A
100
AcDbEntity
  8
measure
  6
ByLayer
 62
  256
370
   -1
100
AcDbDimension
  2
*D1
 10
65
 20
109
 30
0
 11
32.5
 21
113.6875
 31
0
 70
   32
 71
    5
  3
Standard
 53
0
210
0
220
0
230
1
100
AcDbAlignedDimension
 13
8.572527594031452e-16
 23
114
 33
0
 14
65
 24
114
 34
0
100
AcDbRotatedDimension
  0
LINE
  5
15B
100
AcDbEntity
  8
invisible
  6
ByLayer
 62
  256
370
   -1
100
AcDbLine
 10
121
 20
100
 11
121
 21
140
  0
LINE
  5
15C
100
AcDbEntity
  8
invisible
  6
ByLayer
 62
  256
370
   -1
100
AcDbLine
 10
89
 20
100
 11
89
 21
140
  0
LINE
  5
15D
100
AcDbEntity
  8
middle
  6
ByLayer
 62
  256
370
   -1
100
AcDbLine
 10
105
 20
100
 11
105
 21
157
  0
LINE
  5
15E
100
AcDbEntity
  8
invisible
  6
ByLayer
 62
  256
370
   -1
100
AcDbLine
 10
89
 20
140
 11
105
 21
157
  0
LINE
  5
15F
100
AcDbEntity
  8
invisible
  6
ByLayer
 62
  256
370
   -1
100
AcDbLine
 10
105
 20
157
 11
121
 21
140
  0
LINE
  5
160
100
AcDbEntity
  8
invisible
  6
ByLayer
 62
  256
370
   -1
100
AcDbLine
 10
97.00000000000001
 20
160
 11
97.00000000000001
 21
148.5
  0
LINE
  5
161
100
AcDbEntity
  8
invisible
  6
ByLayer
 62
  256
370
   -1
100
AcDbLine
 10
113
 20
160
 11
113
 21
148.5
  0
LINE
  5
162
100
AcDbEntity
  8
middle
  6
ByLayer
 62
  256
370
   -1
100
AcDbLine
 10
105
 20
157
 11
105
 21
160
  0
DIMENSION
  5
163
100
AcDbEntity
  8
measure
  6
ByLayer
 62
  256
370
   -1
100
AcDbDimension
  2
*D2
 10
6
 20
146
 30
0
 11
1.312499999999999
 21
130
 31
0
 70
   32
 71
    5
  3
Standard
 53
0
210
0
220
0
230
1
100
AcDbAlignedDimension
 13
4
 23
114
 33
0
 14
4
 24
146
 34
0
 50
90
100
AcDbRotatedDimension
  0
DIMENSION
  5
164
100
AcDbEntity
  8
measure
  6
ByLayer
 62
  256
370
   -1
100
AcDbDimension
  2
*D3
 10
119
 20
134
 30
0
 11
105
 21
138.6875
 31
0
 70
   32
 71
    5
  3
Standard
 53
0
210
0
220
0
230
1
100
AcDbAlignedDimension
 13
91
 23
136
 33
0
 14
119
 24
136
 34
0
100
AcDbRotatedDimension
  0
DIMENSION
  5
165
100
AcDbEntity
  8
measure
  6
ByLayer
 62
  256
370
   -1
100
AcDbDimension
  2
*D4
 10
97
 20
122
 30
0
 11
92.3125
 21
130
 31
0
 70
   32
 71
    5
  3
Standard
 53
0
210
0
220
0
230
1
100
AcDbAlignedDimension
 13
95
 23
138
 33
0
 14
95
 24
122
 34
0
 50
90
100
AcDbRotatedDimension
  0
CIRCLE
  5
166
100
AcDbEntity
  8
invisible
  6
ByLayer
 62
  256
370
   -1
100
AcDbCircle
 10
105
 20
25
 40
16
  0
LWPOLYLINE
  5
167
100
AcDbEntity
  8
visible
  6
ByLayer
 62
  256
370
   -1
100
AcDbPolyline
 90
    4
 70
    1
 43
0
 10
-40
 20
100
 10
-100
 20
100
 10
-100
 20
160
 10
-40
 20
160
  0
CIRCLE
  5
168
100
AcDbEntity
  8
visible
  6
ByLayer
 62
  256
370
   -1
100
AcDbCircle
 10
-94
 20
146
 40
4
  0
LINE
  5
169
100
AcDbEntity
  8
invisible
  6
ByLayer
 62
  256
370
   -1
100
AcDbLine
 10
-98
 20
100
 11
-98
 21
155
  0
LINE
  5
16A
100
AcDbEntity
  8
invisible
  6
ByLayer
 62
  256
370
   -1
100
AcDbLine
 10
-90
 20
100
 11
-90
 21
155
  0
LINE
  5
16B
100
AcDbEntity
  8
middle
  6
ByLayer
 62
  256
370
   -1
100
AcDbLine
 10
-94
 20
100
 11
-94
 21
155
  0
LINE
  5
16C
100
AcDbEntity
  8
invisible
  6
ByLayer
 62
  256
370
   -1
100
AcDbLine
 10
-98
 20
155
 11
-90
 21
155
  0
LWPOLYLINE
  5
16D
100
AcDbEntity
  8
visible
  6
ByLayer
 62
  256
370
   -1
100
AcDbPolyline
 90
    4
 70
    1
 43
0
 10
250
 20
160
 10
190
 20
160
 10
190
 20
100
 10
250
 20
100
  0
CIRCLE
  5
16E
100
AcDbEntity
  8
invisible
  6
ByLayer
 62
  256
370
   -1
100
AcDbCircle
 10
244
 20
146
 40
4
  0
LINE
  5
16F
100
AcDbEntity
  8
invisible
  6
ByLayer
 62
  256
370
   -1
100
AcDbLine
 10
240
 20
100
 11
240
 21
155
  0
LINE
  5
170
100
AcDbEntity
  8
invisible
  6
ByLayer
 62
  256
370
   -1
100
AcDbLine
 10
248
 20
100
 11
248
 21
155
  0
LINE
  5
171
100
AcDbEntity
  8
middle
  6
ByLayer
 62
  256
370
   -1
100
AcDbLine
 10
244
 20
100
 11
244
 21
155
  0
LINE
  5
172
100
AcDbEntity
  8
invisible
  6
ByLayer
 62
  256
370
   -1
100
AcDbLine
 10
240
 20
155
 11
248
 21
155
  0
CIRCLE
  5
173
100
AcDbEntity
  8
invisible
  6
ByLayer
 62
  256
370
   -1
100
AcDbCircle
 10
-70
 20
130
 40
16
  0
CIRCLE
  5
174
100
AcDbEntity
  8
visible
  6
ByLayer
 62
  256
370
   -1
100
AcDbCircle
 10
220
 20
130
 40
16
  0
LINE
  5
175
100
AcDbEntity
  8
invisible
  6
ByLayer
 62
  256
370
   -1
100
AcDbLine
 10
209
 20
100
 11
209
 21
140
  0
LINE
  5
176
100
AcDbEntity
  8
invisible
  6
ByLayer
 62
  256
370
   -1
100
AcDbLine
 10
241
 20
100
 11
241
 21
140
  0
LINE
  5
177
100
AcDbEntity
  8
middle
  6
ByLayer
 62
  256
370
   -1
100
AcDbLine
 10
225
 20
100
 11
225
 21
157
  0
LINE
  5
178
100
AcDbEntity
  8
invisible
  6
ByLayer
 62
  256
370
   -1
100
AcDbLine
 10
209
 20
140
 11
225
 21
157
  0
LINE
  5
179
100
AcDbEntity
  8
invisible
  6
ByLayer
 62
  256
370
   -1
100
AcDbLine
 10
225
 20
157
 11
241
 21
140
  0
LINE
  5
17A
100
AcDbEntity
  8
invisible
  6
ByLayer
 62
  256
370
   -1
100
AcDbLine
 10
-59
 20
100
 11
-59
 21
140
  0
LINE
  5
17B
100
AcDbEntity
  8
invisible
  6
ByLayer
 62
  256
370
   -1
100
AcDbLine
 10
-91
 20
100
 11
-91
 21
140
  0
LINE
  5
17C
100
AcDbEntity
  8
middle
  6
ByLayer
 62
  256
370
   -1
100
AcDbLine
 10
-75
 20
100
 11
-75
 21
157
  0
LINE
  5
17D
100
AcDbEntity
  8
invisible
  6
ByLayer
 62
  256
370
   -1
100
AcDbLine
 10
-91
 20
140
 11
-75
 21
157
  0
LINE
  5
17E
100
AcDbEntity
  8
invisible
  6
ByLayer
 62
  256
370
   -1
100
AcDbLine
 10
-75
 20
157
 11
-59
 21
140
  0
LWPOLYLINE
  5
17F
100
AcDbEntity
  8
visible
  6
ByLayer
 62
  256
370
   -1
100
AcDbPolyline
 90
    4
 70
    1
 43
0
 10
0
 20
200
 10
150
 20
200
 10
150
 20
260
 10
0
 20
260
  0
CIRCLE
  5
180
100
AcDbEntity
  8
visible
  6
ByLayer
 62
  256
370
   -1
100
AcDbCircle
 10
105
 20
235
 40
16
  0
LINE
  5
181
100
AcDbEntity
  8
saw
  6
ByLayer
 62
  256
370
   -1
100
AcDbLine
 10
90
 20
258
 11
120
 21
258
  0
CIRCLE
  5
182
100
AcDbEntity
  8
aux
  6
ByLayer
 62
  256
370
   -1
100
AcDbCircle
 10
105
 20
230
 40
8
  0
CIRCLE
  5
183
100
AcDbEntity
  8
visible
  6
ByLayer
 62
  256
370
   -1
100
AcDbCircle
 10
105
 20
230
 40
8.062257748298549
  0
LINE
  5
184
100
AcDbEntity
  8
invisible
  6
ByLayer
 62
  256
370
   -1
100
AcDbLine
 10
119
 20
260
 11
119
 21
258
  0
LINE
  5
185
100
AcDbEntity
  8
invisible
  6
ByLayer
 62
  256
370
   -1
100
AcDbLine
 10
91
 20
260
 11
91
 21
258
  0
LINE
  5
186
100
AcDbEntity
  8
saw
  6
ByLayer
 62
  256
370
   -1
100
AcDbLine
 10
92
 20
245
 11
87
 21
258
  0
LINE
  5
187
100
AcDbEntity
  8
saw
  6
ByLayer
 62
  256
370
   -1
100
AcDbLine
 10
87
 20
258
 11
123
 21
258
  0
LINE
  5
188
100
AcDbEntity
  8
saw
  6
ByLayer
 62
  256
370
   -1
100
AcDbLine
 10
123
 20
258
 11
118
 21
245
  0
LINE
  5
189
100
AcDbEntity
  8
aux
  6
ByLayer
 62
  256
370
   -1
100
AcDbLine
 10
130
 20
160
 11
130
 21
260
  0
CIRCLE
  5
18A
100
AcDbEntity
  8
visible
  6
ByLayer
 62
  256
370
   -1
100
AcDbCircle
 10
130
 20
254
 40
4
  0
LINE
  5
18B
100
AcDbEntity
  8
saw
  6
ByLayer
 62
  256
370
   -1
100
AcDbLine
 10
123
 20
258
 11
126
 21
256
  0
LINE
  5
18C
100
AcDbEntity
  8
invisible
  6
ByLayer
 62
  256
370
   -1
100
AcDbLine
 10
-78
 20
160
 11
-78
 21
144
  0
LINE
  5
18D
100
AcDbEntity
  8
invisible
  6
ByLayer
 62
  256
370
   -1
100
AcDbLine
 10
-62
 20
160
 11
-62
 21
144
  0
LINE
  5
18E
100
AcDbEntity
  8
invisible
  6
ByLayer
 62
  256
370
   -1
100
AcDbLine
 10
212
 20
160
 11
212
 21
144
  0
LINE
  5
18F
100
AcDbEntity
  8
invisible
  6
ByLayer
 62
  256
370
   -1
100
AcDbLine
 10
228
 20
160
 11
228
 21
144
  0
CIRCLE
  5
190
100
AcDbEntity
  8
invisible
  6
ByLayer
 62
  256
370
   -1
100
AcDbCircle
 10
45
 20
230
 40
8
  0
MTEXT
  5
191
100
AcDbEntity
  8
measure
  6
ByLayer
 62
  256
370
   -1
100
AcDbMText
 10
0
 20
-2
 30
0
 40
8
 41
53.33333744763215
 71
    1
 72
    1
  1
Draufsicht
  7
standard
210
0
220
0
230
1
 50
0
 73
    2
 44
1
  0
MTEXT
  5
192
100
AcDbEntity
  8
measure
  6
ByLayer
 62
  256
370
   -1
100
AcDbMText
 10
0
 20
98
 30
0
 40
8
 41
72.88889300318758
 71
    1
 72
    1
  1
Vorderansicht
  7
standard
210
0
220
0
230
1
 50
0
 73
    2
 44
1
  0
MTEXT
  5
193
100
AcDbEntity
  8
measure
  6
ByLayer
 62
  256
370
   -1
100
AcDbMText
 10
0
 20
198
 30
0
 40
8
 41
52.22222222222332
 71
    1
 72
    1
  1
von unten
  7
standard
210
0
220
0
230
1
 50
0
 73
    2
 44
1
  0
MTEXT
  5
194
100
AcDbEntity
  8
measure
  6
ByLayer
 62
  256
370
   -1
100
AcDbMText
 10
-100
 20
98
 30
0
 40
8
 41
56.66667078096499
 71
    1
 72
    1
  1
von rechts
  7
standard
210
0
220
0
230
1
 50
0
 73
    2
 44
1
  0
MTEXT
  5
195
100
AcDbEntity
  8
measure
  6
ByLayer
 62
  256
370
   -1
100
AcDbMText
 10
190
 20
98
 30
0
 40
8
 41
46.88889300318721
 71
    1
 72
    1
  1
von links
  7
standard
210
0
220
0
230
1
 50
0
 73
    2
 44
1
  0
LINE
  5
196
100
AcDbEntity
  8
invisible
  6
ByLayer
 62
  256
370
   -1
100
AcDbLine
 10
0
 20
214
 11
65
 21
214
  0
LINE
  5
197
100
AcDbEntity
  8
invisible
  6
ByLayer
 62
  256
370
   -1
100
AcDbLine
 10
0
 20
246
 11
65
 21
246
  0
LINE
  5
198
100
AcDbEntity
  8
middle
  6
ByLayer
 62
  256
370
   -1
100
AcDbLine
 10
0
 20
230
 11
82
 21
230
  0
LINE
  5
199
100
AcDbEntity
  8
invisible
  6
ByLayer
 62
  256
370
   -1
100
AcDbLine
 10
65
 20
246
 11
82
 21
230
  0
LINE
  5
19A
100
AcDbEntity
  8
invisible
  6
ByLayer
 62
  256
370
   -1
100
AcDbLine
 10
82
 20
230
 11
65
 21
214
  0
LINE
  5
19B
100
AcDbEntity
  8
aux
  6
ByLayer
 62
  256
370
   -1
100
AcDbLine
 10
70
 20
234
 11
100
 21
234
  0
LINE
  5
19C
100
AcDbEntity
  8
aux
  6
ByLayer
 62
  256
370
   -1
100
AcDbLine
 10
70
 20
226
 11
100
 21
226
  0
LINE
  5
19D
100
AcDbEntity
  8
aux
  6
ByLayer
 62
  256
370
   -1
100
AcDbLine
 10
70
 20
134
 11
100
 21
134
  0
LINE
  5
19E
100
AcDbEntity
  8
aux
  6
ByLayer
 62
  256
370
   -1
100
AcDbLine
 10
70
 20
126
 11
100
 21
126
  0
LINE
  5
19F
100
AcDbEntity
  8
aux
  6
ByLayer
 62
  256
370
   -1
100
AcDbLine
 10
70
 20
34
 11
100
 21
34
  0
LINE
  5
1A0
100
AcDbEntity
  8
aux
  6
ByLayer
 62
  256
370
   -1
100
AcDbLine
 10
70
 20
26
 11
100
 21
26
  0
LINE
  5
1A1
100
AcDbEntity
  8
invisible
  6
ByLayer
 62
  256
370
   -1
100
AcDbLine
 10
77.75
 20
34
 11
91.77124344467703
 21
34
  0
LINE
  5
1A2
100
AcDbEntity
  8
invisible
  6
ByLayer
 62
  256
370
   -1
100
AcDbLine
 10
77.75
 20
26
 11
89.03128057732876
 21
26
  0
LINE
  5
1A3
100
AcDbEntity
  8
invisible
  6
ByLayer
 62
  256
370
   -1
100
AcDbLine
 10
77.75
 20
134
 11
89
 21
134
  0
LINE
  5
1A4
100
AcDbEntity
  8
invisible
  6
ByLayer
 62
  256
370
   -1
100
AcDbLine
 10
77.75
 20
126
 11
89
 21
126
  0
LINE
  5
1A5
100
AcDbEntity
  8
invisible
  6
ByLayer
 62
  256
370
   -1
100
AcDbLine
 10
77.75
 20
234
 11
89.0312805773287
 21
234
  0
CIRCLE
  5
1A6
100
AcDbEntity
  8
visible
  6
ByLayer
 62
  256
370
   -1
100
AcDbCircle
 10
220
 20
130
 40
4
  0
CIRCLE
  5
1A7
100
AcDbEntity
  8
invisible
  6
ByLayer
 62
  256
370
   -1
100
AcDbCircle
 10
-70
 20
130
 40
4
  0
DIMENSION
  5
1A8
100
AcDbEntity
  8
measure
  6
ByLayer
 62
  256
370
   -1
100
AcDbDimension
  2
*D5
 10
-103
 20
160
 30
0
 11
-107.6875
 21
153
 31
0
 70
   32
 71
    5
  3
Standard
 53
0
210
0
220
0
230
1
100
AcDbAlignedDimension
 13
-94
 23
146
 33
0
 14
-94
 24
160
 34
0
 50
90
100
AcDbRotatedDimension
  0
DIMENSION
  5
1A9
100
AcDbEntity
  8
measure
  6
ByLayer
 62
  256
370
   -1
100
AcDbDimension
  2
*D6
 10
-94
 20
163
 30
0
 11
-97
 21
167.6875
 31
0
 70
   32
 71
    5
  3
Standard
 53
0
210
0
220
0
230
1
100
AcDbAlignedDimension
 13
-100
 23
160
 33
0
 14
-94
 24
160
 34
0
100
AcDbRotatedDimension
  0
DIMENSION
  5
1AA
100
AcDbEntity
  8
measure
  6
ByLayer
 62
  256
370
   -1
100
AcDbDimension
  2
*D7
 10
45
 20
63
 30
0
 11
22.5
 21
67.6875
 31
0
 70
   32
 71
    5
  3
Standard
 53
0
210
0
220
0
230
1
100
AcDbAlignedDimension
 13
0
 23
30
 33
0
 14
45
 24
30
 34
0
100
AcDbRotatedDimension
  0
DIMENSION
  5
1AB
100
AcDbEntity
  8
measure
  6
ByLayer
 62
  256
370
   -1
100
AcDbDimension
  2
*D8
 10
105
 20
63
 30
0
 11
75
 21
67.6875
 31
0
 70
   32
 71
    5
  3
Standard
 53
0
210
0
220
0
230
1
100
AcDbAlignedDimension
 13
45
 23
30
 33
0
 14
105
 24
30
 34
0
100
AcDbRotatedDimension
  0
DIMENSION
  5
1AC
100
AcDbEntity
  8
measure
  6
ByLayer
 62
  256
370
   -1
100
AcDbDimension
  2
*D9
 10
150
 20
63
 30
0
 11
127.5
 21
67.6875
 31
0
 70
   32
 71
    5
  3
Standard
 53
0
210
0
220
0
230
1
100
AcDbAlignedDimension
 13
105
 23
30
 33
0
 14
150
 24
30
 34
0
100
AcDbRotatedDimension
  0
DIMENSION
  5
1AD
100
AcDbEntity
  8
measure
  6
ByLayer
 62
  256
370
   -1
100
AcDbDimension
  2
*D10
 10
-3
 20
30
 30
0
 11
-7.687499999999999
 21
45
 31
0
 70
   32
 71
    5
  3
Standard
 53
0
210
0
220
0
230
1
100
AcDbAlignedDimension
 13
3.67394039744206e-15
 23
60
 33
0
 14
1.83697019872103e-15
 24
30
 34
0
 50
90
100
AcDbRotatedDimension
  0
DIMENSION
  5
1AE
100
AcDbEntity
  8
measure
  6
ByLayer
 62
  256
370
   -1
100
AcDbDimension
  2
*D11
 10
-3
 20
3.67394039744206e-16
 30
0
 11
-7.687499999999999
 21
15
 31
0
 70
   32
 71
    5
  3
Standard
 53
0
210
0
220
0
230
1
100
AcDbAlignedDimension
 13
1.83697019872103e-15
 23
30
 33
0
 14
0
 24
0
 34
0
 50
90
100
AcDbRotatedDimension
  0
DIMENSION
  5
1AF
100
AcDbEntity
  8
measure
  6
ByLayer
 62
  256
370
   -1
100
AcDbDimension
  2
*D12
 10
150
 20
263
 30
0
 11
140
 21
267.6875
 31
0
 70
   32
 71
    5
  3
Standard
 53
0
210
0
220
0
230
1
100
AcDbAlignedDimension
 13
130
 23
254
 33
0
 14
150
 24
254
 34
0
100
AcDbRotatedDimension
  0
DIMENSION
  5
1B0
100
AcDbEntity
  8
measure
  6
ByLayer
 62
  256
370
   -1
100
AcDbDimension
  2
*D13
 10
156
 20
254
 30
0
 11
151.3125
 21
257
 31
0
 70
   32
 71
    5
  3
Standard
 53
0
210
0
220
0
230
1
100
AcDbAlignedDimension
 13
130
 23
260
 33
0
 14
130
 24
254
 34
0
 50
90
100
AcDbRotatedDimension
  0
DIMENSION
  5
1B1
100
AcDbEntity
  8
measure
  6
ByLayer
 62
  256
370
   -1
100
AcDbDimension
  2
*D14
 10
133.4299717028502
 20
251.9420169782899
 30
0
 11
132.4116988535665
 21
258.0194980892776
 31
0
 70
   35
 71
    5
  3
Standard
 53
0
210
0
220
0
230
1
100
AcDbDiametricDimension
 15
126.5700282971498
 25
256.0579830217101
 35
0
 40
0
  0
DIMENSION
  5
1B2
100
AcDbEntity
  8
measure
  6
ByLayer
 62
  256
370
   -1
100
AcDbDimension
  2
*D15
 10
116.3137084989848
 20
223.6862915010152
 30
0
 11
108.314563036812
 21
238.3145630368119
 31
0
 70
   35
 71
    5
  3
Standard
 53
0
210
0
220
0
230
1
100
AcDbDiametricDimension
 15
93.68629150101523
 25
246.3137084989848
 35
0
 40
0
  0
DIMENSION
  5
1B3
100
AcDbEntity
  8
measure
  6
ByLayer
 62
  256
370
   -1
100
AcDbDimension
  2
*D16
 10
48.57770876399966
 20
22.84458247200067
 30
0
 11
49.19262745781211
 21
32.09631372890605
 31
0
 70
   35
 71
    5
  3
Standard
 53
0
210
0
220
0
230
1
100
AcDbDiametricDimension
 15
41.42229123600033
 25
37.15541752799933
 35
0
 40
0
  0
DIMENSION
  5
1B4
100
AcDbEntity
  8
measure
  6
ByLayer
 62
  256
370
   -1
100
AcDbDimension
  2
*D17
 10
108.5777087639997
 20
22.84458247200067
 30
0
 11
109.1926274578121
 21
32.09631372890607
 31
0
 70
   35
 71
    5
  3
Standard
 53
0
210
0
220
0
230
1
100
AcDbDiametricDimension
 15
101.4222912360003
 25
37.15541752799933
 35
0
 40
0
  0
LINE
  5
1B5
100
AcDbEntity
  8
invisible
  6
ByLayer
 62
  256
370
   -1
100
AcDbLine
 10
77.75
 20
226
 11
91.77124344467761
 21
226
  0
DIMENSION
  5
1B6
100
AcDbEntity
  8
measure
  6
ByLayer
 62
  256
370
   -1
100
AcDbDimension
  2
*D18
 10
103
 20
235
 30
0
 11
98.3125
 21
217.5
 31
0
 70
   32
 71
    5
  3
Standard
 53
0
210
0
220
0
230
1
100
AcDbAlignedDimension
 13
105
 23
200
 33
0
 14
105
 24
235
 34
0
 50
90
100
AcDbRotatedDimension
  0
LINE
  5
1B7
100
AcDbEntity
  8
invisible
  6
ByLayer
 62
  256
370
   -1
100
AcDbLine
 10
150
 20
258
 11
75
 21
258
  0
LINE
  5
1B8
100
AcDbEntity
  8
invisible
  6
ByLayer
 62
  256
370
   -1
100
AcDbLine
 10
150
 20
250
 11
75
 21
250
  0
LINE
  5
1B9
100
AcDbEntity
  8
invisible
  6
ByLayer
 62
  256
370
   -1
100
AcDbLine
 10
75
 20
258
 11
75
 21
250
  0
LINE
  5
1BA
100
AcDbEntity
  8
middle
  6
ByLayer
 62
  256
370
   -1
100
AcDbLine
 10
150
 20
254
 11
75
 21
254
  0
DIMENSION
  5
1BB
100
AcDbEntity
  8
measure
  6
ByLayer
 62
  256
370
   -1
100
AcDbDimension
  2
*D19
 10
75
 20
273
 30
0
 11
112.5
 21
277.6875
 31
0
 70
   32
 71
    5
  3
Standard
 53
0
210
0
220
0
230
1
100
AcDbAlignedDimension
 13
150
 23
258
 33
0
 14
75
 24
258
 34
0
100
AcDbRotatedDimension
  0
LINE
  5
1BC
100
AcDbEntity
  8
invisible
  6
ByLayer
 62
  256
370
   -1
100
AcDbLine
 10
150
 20
142
 11
75
 21
142
  0
LINE
  5
1BD
100
AcDbEntity
  8
invisible
  6
ByLayer
 62
  256
370
   -1
100
AcDbLine
 10
150
 20
150
 11
75
 21
150
  0
LINE
  5
1BE
100
AcDbEntity
  8
middle
  6
ByLayer
 62
  256
370
   -1
100
AcDbLine
 10
150
 20
146
 11
75
 21
146
  0
LINE
  5
1BF
100
AcDbEntity
  8
invisible
  6
ByLayer
 62
  256
370
   -1
100
AcDbLine
 10
75
 20
142
 11
75
 21
150
  0
LINE
  5
1C0
100
AcDbEntity
  8
invisible
  6
ByLayer
 62
  256
370
   -1
100
AcDbLine
 10
75
 20
10
 11
75
 21
2
  0
LINE
  5
1C1
100
AcDbEntity
  8
invisible
  6
ByLayer
 62
  256
370
   -1
100
AcDbLine
 10
150
 20
10
 11
75
 21
10
  0
LINE
  5
1C2
100
AcDbEntity
  8
middle
  6
ByLayer
 62
  256
370
   -1
100
AcDbLine
 10
150
 20
6
 11
75
 21
6
  0
LINE
  5
1C3
100
AcDbEntity
  8
invisible
  6
ByLayer
 62
  256
370
   -1
100
AcDbLine
 10
150
 20
2
 11
75
 21
2
  0
LINE
  5
1C4
100
AcDbEntity
  8
visible
  6
ByLayer
 62
  256
370
   -1
100
AcDbLine
 10
0
 20
160
 11
150
 21
160
  0
DIMENSION
  5
1C5
100
AcDbEntity
  8
measure
  6
ByLayer
 62
  256
370
   -1
100
AcDbDimension
  2
*D20
 10
260
 20
100
 30
0
 11
255.3125
 21
127.5
 31
0
 70
   32
 71
    5
  3
Standard
 53
0
210
0
220
0
230
1
100
AcDbAlignedDimension
 13
248
 23
155
 33
0
 14
248
 24
100
 34
0
 50
90
100
AcDbRotatedDimension
  0
DIMENSION
  5
1C6
100
AcDbEntity
  8
measure
  6
ByLayer
 62
  256
370
   -1
100
AcDbDimension
  2
*D21
 10
208.6862915010152
 20
118.6862915010152
 30
0
 11
216.6854369631881
 21
133.3145630368119
 31
0
 70
   35
 71
    5
  3
Standard
 53
0
210
0
220
0
230
1
100
AcDbDiametricDimension
 15
231.3137084989848
 25
141.3137084989848
 35
0
 40
0
  0
LINE
  5
1C7
100
AcDbEntity
  8
invisible
  6
ByLayer
 62
  256
370
   -1
100
AcDbLine
 10
150
 20
236
 11
120.9687194226708
 21
236
  0
LINE
  5
1C8
100
AcDbEntity
  8
middle
  6
ByLayer
 62
  256
370
   -1
100
AcDbLine
 10
150
 20
230
 11
120.1986841535702
 21
230
  0
LINE
  5
1C9
100
AcDbEntity
  8
invisible
  6
ByLayer
 62
  256
370
   -1
100
AcDbLine
 10
150
 20
224
 11
116.618950038621
 21
224
  0
LINE
  5
1CA
100
AcDbEntity
  8
invisible
  6
ByLayer
 62
  256
370
   -1
100
AcDbLine
 10
150
 20
116
 11
121
 21
116
  0
LINE
  5
1CB
100
AcDbEntity
  8
middle
  6
ByLayer
 62
  256
370
   -1
100
AcDbLine
 10
150
 20
110
 11
121
 21
110
  0
LINE
  5
1CC
100
AcDbEntity
  8
invisible
  6
ByLayer
 62
  256
370
   -1
100
AcDbLine
 10
150
 20
104
 11
121
 21
104
  0
LINE
  5
1CD
100
AcDbEntity
  8
aux
  6
ByLayer
 62
  256
370
   -1
100
AcDbLine
 10
150
 20
116
 11
50
 21
116
  0
CIRCLE
  5
1CE
100
AcDbEntity
  8
visible
  6
ByLayer
 62
  256
370
   -1
100
AcDbCircle
 10
-70
 20
110
 40
6
  0
DIMENSION
  5
1CF
100
AcDbEntity
  8
measure
  6
ByLayer
 62
  256
370
   -1
100
AcDbDimension
  2
*D22
 10
-103
 20
110
 30
0
 11
-107.6875
 21
105
 31
0
 70
   32
 71
    5
  3
Standard
 53
0
210
0
220
0
230
1
100
AcDbAlignedDimension
 13
-70
 23
100
 33
0
 14
-70
 24
110
 34
0
 50
90
100
AcDbRotatedDimension
  0
DIMENSION
  5
1D0
100
AcDbEntity
  8
measure
  6
ByLayer
 62
  256
370
   -1
100
AcDbDimension
  2
*D23
 10
-70
 20
173
 30
0
 11
-85
 21
177.6875
 31
0
 70
   32
 71
    5
  3
Standard
 53
0
210
0
220
0
230
1
100
AcDbAlignedDimension
 13
-100
 23
160
 33
0
 14
-70
 24
160
 34
0
100
AcDbRotatedDimension
  0
CIRCLE
  5
1D1
100
AcDbEntity
  8
invisible
  6
ByLayer
 62
  256
370
   -1
100
AcDbCircle
 10
220
 20
110
 40
6
  0
DIMENSION
  5
1D2
100
AcDbEntity
  8
measure
  6
ByLayer
 62
  256
370
   -1
100
AcDbDimension
  2
*D24
 10
-74.24264068711928
 20
114.2426406871193
 30
0
 11
-66.68543696318804
 21
113.3145630368119
 31
0
 70
   35
 71
    5
  3
Standard
 53
0
210
0
220
0
230
1
100
AcDbDiametricDimension
 15
-65.75735931288071
 25
105.7573593128807
 35
0
 40
0
  0
DIMENSION
  5
1D3
100
AcDbEntity
  8
measure
  6
ByLayer
 62
  256
370
   -1
100
AcDbDimension
  2
*D25
 10
-96.82842712474618
 20
148.8284271247462
 30
0
 11
-90.68543696318807
 21
149.3145630368119
 31
0
 70
   35
 71
    5
  3
Standard
 53
0
210
0
220
0
230
1
100
AcDbDiametricDimension
 15
-91.17157287525382
 25
143.1715728752538
 35
0
 40
0
  0
DIMENSION
  5
1D4
100
AcDbEntity
  8
measure
  6
ByLayer
 62
  256
370
   -1
100
AcDbDimension
  2
*D26
 10
150
 20
191
 30
0
 11
127.5
 21
195.6875
 31
0
 70
   32
 71
    5
  3
Standard
 53
0
210
0
220
0
230
1
100
AcDbAlignedDimension
 13
105
 23
200
 33
0
 14
150
 24
200
 34
0
100
AcDbRotatedDimension
  0
ENDSEC
  0
SECTION
  2
OBJECTS
  0
DICTIONARY
  5
C
330
0
100
AcDbDictionary
281
    1
  3
ACAD_GROUP
350
D
  0
DICTIONARY
  5
D
330
C
100
AcDbDictionary
281
    1
  0
ENDSEC
  0
EOF
