STARTFONT 2.1
FONT "streamline_interface_essential_cog"
SIZE 16 75 75
FONTBOUNDINGBOX 16 16 0 0
STARTPROPERTIES 3
COPYRIGHT "streamlinehq.com"
FONT_ASCENT 0
FONT_DESCENT 0
ENDPROPERTIES
STARTCHAR streamline-interface-essential-cog-browser--interface-essential.png
ENCODING 48
DWIDTH 21 0
BBX 21 21 0 0
BITMAP
7ffff0
800008
aa0008
800008
fffff8
800008
807008
815408
828a08
840108
827208
8c8988
888888
8c8988
827208
840108
828a08
815408
807008
800008
7ffff0
ENDCHAR
STARTCHAR streamline-interface-essential-cog-double--interface-essential.png
ENCODING 49
DWIDTH 21 0
BBX 21 21 0 0
BITMAP
000700
001540
0028a0
004010
000720
03ce98
124f88
2a5798
442320
200410
1188a0
e24740
842100
842100
e24700
118800
200400
442200
2a5400
124800
03c000
ENDCHAR
STARTCHAR streamline-interface-essential-cog-hand-give--interface-essential.png
ENCODING 50
DWIDTH 21 0
BBX 21 21 0 0
BITMAP
070000
14e000
291000
410800
250400
c88300
8840b8
c84078
272038
402038
289038
954038
870038
700038
200038
200028
1fc028
0800f8
080738
07f800
000000
ENDCHAR
STARTCHAR streamline-interface-essential-cog-search--interface-essential.png
ENCODING 51
DWIDTH 21 0
BBX 21 21 0 0
BITMAP
03e000
0c1800
11c400
255200
4a2900
500500
89c880
b22680
a22280
b22680
89c880
500500
4a2900
255380
11c7c0
0c1f60
03e7b0
0003d0
0001f0
0000e0
000000
ENDCHAR
