STARTFONT 2.1
FONT "streamline_interface_essential_login"
SIZE 16 75 75
FONTBOUNDINGBOX 16 16 0 0
STARTPROPERTIES 3
COPYRIGHT "streamlinehq.com"
FONT_ASCENT 0
FONT_DESCENT 0
ENDPROPERTIES
STARTCHAR streamline-interface-essential-signin-login--interface-essential.png
ENCODING 48
DWIDTH 21 0
BBX 21 21 0 0
BITMAP
3ffc00
600200
580200
460200
418000
404000
404100
404300
404700
404ff0
404ff0
414700
414300
404100
404000
404000
404200
404200
307c00
0c4000
038000
ENDCHAR
STARTCHAR streamline-interface-essential-signout-logout--interface-essential.png
ENCODING 49
DWIDTH 21 0
BBX 21 21 0 0
BITMAP
7ff800
c00400
b00400
8c0400
830400
808400
808080
8080c0
8080e0
808ff0
808ff0
8280e0
8280c0
808080
808400
808400
808400
808400
60f800
188000
070000
ENDCHAR
