STARTFONT 2.1
FONT "streamline_phone"
SIZE 16 75 75
FONTBOUNDINGBOX 16 16 0 0
STARTPROPERTIES 3
COPYRIGHT "streamlinehq.com"
FONT_ASCENT 0
FONT_DESCENT 0
ENDPROPERTIES
STARTCHAR streamline-mobile-phone--phone.png
ENCODING 48
DWIDTH 21 0
BBX 21 21 0 0
BITMAP
040000
0a0000
0a0000
0ffe00
080100
0bfd00
0a1d00
0a3d00
0a7d00
0afd00
0bfd00
080100
0a6500
08f100
0a6500
080100
0b6d00
080100
0b6d00
080100
07fe00
ENDCHAR
STARTCHAR streamline-phone-actions-remove-1--phone.png
ENCODING 49
DWIDTH 21 0
BBX 21 21 0 0
BITMAP
3fffe0
400030
83fc68
874cc8
85f988
840308
840608
840c08
841808
843208
846208
84c208
818208
830208
860208
8c0208
99fe08
b3fc08
e00008
400010
3fffe0
ENDCHAR
STARTCHAR streamline-phone-actions-remove-2--phone.png
ENCODING 50
DWIDTH 21 0
BBX 21 21 0 0
BITMAP
7ff800
fa7c00
8fc400
800400
800400
800400
800400
986400
800400
800000
8007c0
8fcfe0
801390
803118
803838
803c78
803838
803118
801390
ffcfe0
7fe7c0
ENDCHAR
STARTCHAR streamline-phone-incoming-call--phone.png
ENCODING 51
DWIDTH 21 0
BBX 21 21 0 0
BITMAP
000000
082080
042100
022200
000000
000000
000000
1fffc0
200020
400010
800008
81fc08
fe03f8
fe03f8
7c01f8
000008
000088
000150
0000e0
000700
000000
ENDCHAR
STARTCHAR streamline-phone-off-1--phone.png
ENCODING 52
DWIDTH 21 0
BBX 21 21 0 0
BITMAP
3fffe0
400030
83c068
8420c8
889188
88d308
90d608
900c08
90d808
913008
916308
90c088
91a648
931128
96d4a8
8cd2a8
989008
b42008
e3c008
400010
3fffe0
ENDCHAR
STARTCHAR streamline-phone-off-2--phone.png
ENCODING 53
DWIDTH 21 0
BBX 21 21 0 0
BITMAP
0f0000
108000
224000
234000
434000
404000
418000
420000
420000
420000
420f80
421fc0
422720
416230
407070
4378f0
237070
226230
102720
0f1fc0
000f80
ENDCHAR
STARTCHAR streamline-phone-scan-qr-code-1--phone.png
ENCODING 54
DWIDTH 21 0
BBX 21 21 0 0
BITMAP
000000
3800e0
400010
400010
4fff90
088880
0bfa80
0a8880
0eef80
0baa80
08ba80
0ba280
0fff80
088880
0aba80
08a880
4fff90
400010
400010
3800e0
000000
ENDCHAR
STARTCHAR streamline-phone-scan-qr-code-2--phone.png
ENCODING 55
DWIDTH 21 0
BBX 21 21 0 0
BITMAP
002000
002000
1c21c0
200020
200020
277720
040500
057700
011000
045500
e74538
045d00
000000
077700
054500
275720
200020
200020
1c21c0
002000
002000
ENDCHAR
STARTCHAR streamline-phone-signal-full--phone.png
ENCODING 56
DWIDTH 21 0
BBX 21 21 0 0
BITMAP
000000
000000
000060
0000b0
0000b0
000cb0
0016b0
0016b0
0196b0
02d6b0
02d6b0
32d6b0
5ad6b0
5ad6b0
5ad6b0
5ad6b0
5ad6b0
318c60
000000
000000
000000
ENDCHAR
STARTCHAR streamline-phone-vibrate--phone.png
ENCODING 57
DWIDTH 21 0
BBX 21 21 0 0
BITMAP
07fe00
0f4f00
09f900
080100
880110
480120
280140
480120
890910
489120
290940
480120
880110
4a6520
299940
480120
880110
080100
080100
0fff00
07fe00
ENDCHAR
STARTCHAR streamline-vintage-phone--phone.png
ENCODING 58
DWIDTH 21 0
BBX 21 21 0 0
BITMAP
1fff80
200040
400020
87fe10
880110
880110
7000e0
079e00
049200
0cf300
100080
20f040
210840
426420
42f420
42f420
426420
410820
40f020
200040
1fff80
ENDCHAR
