999
dxfrw 0.6.3
  0
SECTION
  2
HEADER
  9
$ACADVER
  1
AC1021
  9
$DWGCODEPAGE
  3
ANSI_1252
  9
$INSBASE
 10
0
 20
0
 30
0
  9
$EXTMIN
 10
-24.375
 20
-21.25
 30
0
  9
$EXTMAX
 10
261.25
 20
174.375
 30
0
  9
$LIMMIN
 10
0
 20
0
  9
$LIMMAX
 10
420
 20
297
  9
$ORTHOMODE
 70
    0
  9
$REGENMODE
 70
    1
  9
$FILLMODE
 70
    1
  9
$QTEXTMODE
 70
    0
  9
$MIRRTEXT
 70
    0
  9
$LTSCALE
 40
1
  9
$ATTMODE
 70
    0
  9
$TEXTSIZE
 40
2.5
  9
$TRACEWID
 40
15.68
  9
$TEXTSTYLE
  7
STANDARD
  9
$CLAYER
  8
Maß
  9
$CELTYPE
  6
BYLAYER
  9
$CECOLOR
 62
  256
  9
$CELTSCALE
 40
1
  9
$DISPSILH
 70
    0
  9
$DIMSCALE
 40
1
  9
$DIMASZ
 40
2.5
  9
$DIMEXO
 40
0.625
  9
$DIMDLI
 40
3.75
  9
$DIMRND
 40
0
  9
$DIMDLE
 40
0
  9
$DIMEXE
 40
1.25
  9
$DIMTP
 40
0
  9
$DIMTM
 40
0
  9
$DIMTXT
 40
2.5
  9
$DIMCEN
 40
2.5
  9
$DIMTSZ
 40
0
  9
$DIMTOL
 70
    0
  9
$DIMLIM
 70
    0
  9
$DIMTIH
 70
    0
  9
$DIMTOH
 70
    0
  9
$DIMSE1
 70
    0
  9
$DIMSE2
 70
    0
  9
$DIMTAD
 70
    1
  9
$DIMZIN
 70
    1
  9
$DIMBLK
  1

  9
$DIMASO
 70
    1
  9
$DIMSHO
 70
    1
  9
$DIMPOST
  1

  9
$DIMAPOST
  1

  9
$DIMALT
 70
    0
  9
$DIMALTD
 70
    3
  9
$DIMALTF
 40
0.03937
  9
$DIMLFAC
 40
1
  9
$DIMTOFL
 70
    1
  9
$DIMTVP
 40
0
  9
$DIMTIX
 70
    0
  9
$DIMSOXD
 70
    0
  9
$DIMSAH
 70
    0
  9
$DIMBLK1
  1

  9
$DIMBLK2
  1

  9
$DIMSTYLE
  2
STANDARD
  9
$DIMCLRD
 70
    0
  9
$DIMCLRE
 70
    0
  9
$DIMCLRT
 70
    0
  9
$DIMTFAC
 40
1
  9
$DIMGAP
 40
0.625
  9
$DIMJUST
 70
    0
  9
$DIMSD1
 70
    0
  9
$DIMSD2
 70
    0
  9
$DIMTOLJ
 70
    0
  9
$DIMTZIN
 70
    8
  9
$DIMALTZ
 70
    0
  9
$DIMALTTZ
 70
    0
  9
$DIMUPT
 70
    0
  9
$DIMDEC
 70
    0
  9
$DIMTDEC
 70
    2
  9
$DIMALTU
 70
    2
  9
$DIMALTTD
 70
    3
  9
$DIMTXSTY
  7
STANDARD
  9
$DIMAUNIT
 70
    0
  9
$DIMADEC
 70
    2
  9
$DIMALTRND
 40
0
  9
$DIMAZIN
 70
    0
  9
$DIMDSEP
 70
    0
  9
$DIMATFIT
 70
    3
  9
$DIMFRAC
 70
    0
  9
$DIMLDRBLK
  1
STANDARD
  9
$DIMLUNIT
 70
    2
  9
$DIMLWD
 70
   -2
  9
$DIMLWE
 70
   -2
  9
$DIMTMOVE
 70
    0
  9
$DIMFXL
 40
1
  9
$DIMFXLON
 70
    0
  9
$DIMJOGANG
 40
0.7854
  9
$DIMTFILL
 70
    0
  9
$DIMTFILLCLR
 70
    0
  9
$DIMARCSYM
 70
    0
  9
$DIMLTYPE
  6

  9
$DIMLTEX1
  6

  9
$DIMLTEX2
  6

  9
$LUNITS
 70
    2
  9
$LUPREC
 70
    0
  9
$SKETCHINC
 40
1
  9
$FILLETRAD
 40
0
  9
$AUNITS
 70
    0
  9
$AUPREC
 70
    1
  9
$MENU
  1
.
  9
$ELEVATION
 40
0
  9
$PELEVATION
 40
0
  9
$THICKNESS
 40
0
  9
$LIMCHECK
 70
    0
  9
$CHAMFERA
 40
0
  9
$CHAMFERB
 40
0
  9
$CHAMFERC
 40
0
  9
$CHAMFERD
 40
0
  9
$SKPOLY
 70
    0
  9
$USRTIMER
 70
    1
  9
$ANGBASE
 50
0
  9
$ANGDIR
 70
    0
  9
$PDMODE
 70
   34
  9
$PDSIZE
 40
0
  9
$PLINEWID
 40
0
  9
$SPLFRAME
 70
    0
  9
$SPLINETYPE
 70
    2
  9
$SPLINESEGS
 70
    8
  9
$HANDSEED
  5
20000
  9
$SURFTAB1
 70
    6
  9
$SURFTAB2
 70
    6
  9
$SURFTYPE
 70
    6
  9
$SURFU
 70
    6
  9
$SURFV
 70
    6
  9
$UCSBASE
  2

  9
$UCSNAME
  2

  9
$UCSORG
 10
0
 20
0
 30
0
  9
$UCSXDIR
 10
1
 20
0
 30
0
  9
$UCSYDIR
 10
0
 20
1
 30
0
  9
$UCSORTHOREF
  2

  9
$UCSORTHOVIEW
 70
    0
  9
$UCSORGTOP
 10
0
 20
0
 30
0
  9
$UCSORGBOTTOM
 10
0
 20
0
 30
0
  9
$UCSORGLEFT
 10
0
 20
0
 30
0
  9
$UCSORGRIGHT
 10
0
 20
0
 30
0
  9
$UCSORGFRONT
 10
0
 20
0
 30
0
  9
$UCSORGBACK
 10
0
 20
0
 30
0
  9
$PUCSBASE
  2

  9
$PUCSNAME
  2

  9
$PUCSORG
 10
0
 20
0
 30
0
  9
$PUCSXDIR
 10
1
 20
0
 30
0
  9
$PUCSYDIR
 10
0
 20
1
 30
0
  9
$PUCSORTHOREF
  2

  9
$PUCSORTHOVIEW
 70
    0
  9
$PUCSORGTOP
 10
0
 20
0
 30
0
  9
$PUCSORGBOTTOM
 10
0
 20
0
 30
0
  9
$PUCSORGLEFT
 10
0
 20
0
 30
0
  9
$PUCSORGRIGHT
 10
0
 20
0
 30
0
  9
$PUCSORGFRONT
 10
0
 20
0
 30
0
  9
$PUCSORGBACK
 10
0
 20
0
 30
0
  9
$USERI1
 70
    0
  9
$USERI2
 70
    0
  9
$USERI3
 70
    0
  9
$USERI4
 70
    0
  9
$USERI5
 70
    0
  9
$USERR1
 40
0
  9
$USERR2
 40
0
  9
$USERR3
 40
0
  9
$USERR4
 40
0
  9
$USERR5
 40
0
  9
$WORLDVIEW
 70
    1
  9
$SHADEDGE
 70
    3
  9
$SHADEDIF
 70
   70
  9
$TILEMODE
 70
    1
  9
$MAXACTVP
 70
   64
  9
$PINSBASE
 10
0
 20
0
 30
0
  9
$PLIMCHECK
 70
    0
  9
$PEXTMIN
 10
0
 20
0
 30
0
  9
$PEXTMAX
 10
0
 20
0
 30
0
  9
$GRIDMODE
 70
    1
  9
$SNAPSTYLE
 70
    0
  9
$GRIDUNIT
 10
0
 20
0
  9
$PLIMMIN
 10
0
 20
0
  9
$PLIMMAX
 10
297
 20
210
  9
$UNITMODE
 70
    0
  9
$VISRETAIN
 70
    1
  9
$PLINEGEN
 70
    0
  9
$PSLTSCALE
 70
    1
  9
$TREEDEPTH
 70
 3020
  9
$CMLSTYLE
  2
Standard
  9
$CMLJUST
 70
    0
  9
$CMLSCALE
 40
20
  9
$PROXYGRAPHICS
 70
    1
  9
$MEASUREMENT
 70
    1
  9
$CELWEIGHT
370
   -1
  9
$ENDCAPS
280
    0
  9
$JOINSTYLE
280
    0
  9
$LWDISPLAY
290
    0
  9
$INSUNITS
 70
    4
  9
$HYPERLINKBASE
  1

  9
$STYLESHEET
  1

  9
$XEDIT
290
    1
  9
$CEPSNTYPE
380
    0
  9
$PSTYLEMODE
290
    1
  9
$EXTNAMES
290
    1
  9
$PSVPSCALE
 40
1
  9
$OLESTARTUP
290
    0
  9
$SORTENTS
280
  127
  9
$INDEXCTL
280
    0
  9
$HIDETEXT
280
    1
  9
$XCLIPFRAME
290
    0
  9
$HALOGAP
280
    0
  9
$OBSCOLOR
 70
  257
  9
$OBSLTYPE
280
    0
  9
$INTERSECTIONDISPLAY
280
    0
  9
$INTERSECTIONCOLOR
 70
  257
  9
$DIMASSOC
280
    1
  9
$PROJECTNAME
  1

  9
$CAMERADISPLAY
290
    0
  9
$LENSLENGTH
 40
50
  9
$CAMERAHEIGHT
 40
0
  9
$STEPSPERSEC
 40
2
  9
$STEPSIZE
 40
50
  9
$3DDWFPREC
 40
2
  9
$PSOLWIDTH
 40
5
  9
$PSOLHEIGHT
 40
80
  9
$LOFTANG1
 40
1.570796326794897
  9
$LOFTANG2
 40
1.570796326794897
  9
$LOFTMAG1
 40
0
  9
$LOFTMAG2
 40
0
  9
$LOFTPARAM
 70
    7
  9
$LOFTNORMALS
280
    1
  9
$LATITUDE
 40
1
  9
$LONGITUDE
 40
1
  9
$NORTHDIRECTION
 40
0
  9
$TIMEZONE
 70
-8000
  9
$LIGHTGLYPHDISPLAY
280
    1
  9
$TILEMODELIGHTSYNCH
280
    1
  9
$SOLIDHIST
280
    1
  9
$SHOWHIST
280
    1
  9
$DWFFRAME
280
    2
  9
$DGNFRAME
280
    0
  9
$REALWORLDSCALE
290
    1
  9
$INTERFERECOLOR
 62
    1
  9
$CSHADOW
280
    0
  9
$SHADOWPLANELOCATION
 40
0
  0
ENDSEC
  0
SECTION
  2
CLASSES
  0
ENDSEC
  0
SECTION
  2
TABLES
  0
TABLE
  2
VPORT
  5
8
330
0
100
AcDbSymbolTable
 70
    1
  0
VPORT
  5
31
330
2
100
AcDbSymbolTableRecord
100
AcDbViewportTableRecord
  2
*ACTIVE
 70
    0
 10
0
 20
0
 11
1
 21
1
 12
157.0724871683806
 22
82.84353299465776
 13
0
 23
0
 14
10
 24
10
 15
10
 25
10
 16
0
 26
0
 36
1
 17
0
 27
0
 37
0
 40
245.8026490240105
 41
1.72196261682243
 42
50
 43
0
 44
0
 50
0
 51
0
 71
    0
 72
  100
 73
    1
 74
    3
 75
    0
 76
    1
 77
    0
 78
    0
281
    0
 65
    1
110
0
120
0
130
0
111
1
121
0
131
0
112
0
122
1
132
0
 79
    0
146
0
348
10020
 60
    7
 61
    5
292
1
282
    1
141
0
142
0
 63
  250
421
3358443
  0
ENDTAB
  0
TABLE
  2
LTYPE
  5
5
330
0
100
AcDbSymbolTable
 70
    4
  0
LTYPE
  5
14
330
5
100
AcDbSymbolTableRecord
100
AcDbLinetypeTableRecord
  2
ByBlock
 70
    0
  3

 72
   65
 73
    0
 40
0
  0
LTYPE
  5
15
330
5
100
AcDbSymbolTableRecord
100
AcDbLinetypeTableRecord
  2
ByLayer
 70
    0
  3

 72
   65
 73
    0
 40
0
  0
LTYPE
  5
16
330
5
100
AcDbSymbolTableRecord
100
AcDbLinetypeTableRecord
  2
Continuous
 70
    0
  3
Solid line
 72
   65
 73
    0
 40
0
  0
LTYPE
  5
32
330
5
100
AcDbSymbolTableRecord
100
AcDbLinetypeTableRecord
  2
DOT
 70
    0
  3
Dot . . . . . . . . . . . . . . . . . . . . . .
 72
   65
 73
    2
 40
6.35
 49
0
 74
    0
 49
-6.35
 74
    0
  0
LTYPE
  5
33
330
5
100
AcDbSymbolTableRecord
100
AcDbLinetypeTableRecord
  2
DOTTINY
 70
    0
  3
Dot (.15x) .....................................
 72
   65
 73
    2
 40
0.9525
 49
0
 74
    0
 49
-0.9525
 74
    0
  0
LTYPE
  5
34
330
5
100
AcDbSymbolTableRecord
100
AcDbLinetypeTableRecord
  2
DOT2
 70
    0
  3
Dot (.5x) .....................................
 72
   65
 73
    2
 40
3.175
 49
0
 74
    0
 49
-3.175
 74
    0
  0
LTYPE
  5
35
330
5
100
AcDbSymbolTableRecord
100
AcDbLinetypeTableRecord
  2
DOTX2
 70
    0
  3
Dot (2x) .  .  .  .  .  .  .  .  .  .  .  .  .
 72
   65
 73
    2
 40
12.7
 49
0
 74
    0
 49
-12.7
 74
    0
  0
LTYPE
  5
36
330
5
100
AcDbSymbolTableRecord
100
AcDbLinetypeTableRecord
  2
DASHED
 70
    0
  3
Dashed _ _ _ _ _ _ _ _ _ _ _ _ _ _ _ _ _
 72
   65
 73
    2
 40
19.05
 49
12.7
 74
    0
 49
-6.35
 74
    0
  0
LTYPE
  5
37
330
5
100
AcDbSymbolTableRecord
100
AcDbLinetypeTableRecord
  2
DASHEDTINY
 70
    0
  3
Dashed (.15x) _ _ _ _ _ _ _ _ _ _ _ _ _ _ _ _ _
 72
   65
 73
    2
 40
2.8575
 49
1.905
 74
    0
 49
-0.9525
 74
    0
  0
LTYPE
  5
38
330
5
100
AcDbSymbolTableRecord
100
AcDbLinetypeTableRecord
  2
DASHED2
 70
    0
  3
Dashed (.5x) _ _ _ _ _ _ _ _ _ _ _ _ _ _ _ _ _
 72
   65
 73
    2
 40
9.524999999999999
 49
6.35
 74
    0
 49
-3.175
 74
    0
  0
LTYPE
  5
39
330
5
100
AcDbSymbolTableRecord
100
AcDbLinetypeTableRecord
  2
DASHEDX2
 70
    0
  3
Dashed (2x) ____  ____  ____  ____  ____  ___
 72
   65
 73
    2
 40
38.09999999999999
 49
25.4
 74
    0
 49
-12.7
 74
    0
  0
LTYPE
  5
3A
330
5
100
AcDbSymbolTableRecord
100
AcDbLinetypeTableRecord
  2
DASHDOT
 70
    0
  3
Dash dot __ . __ . __ . __ . __ . __ . __ . __
 72
   65
 73
    4
 40
25.4
 49
12.7
 74
    0
 49
-6.35
 74
    0
 49
0
 74
    0
 49
-6.35
 74
    0
  0
LTYPE
  5
3B
330
5
100
AcDbSymbolTableRecord
100
AcDbLinetypeTableRecord
  2
DASHDOTTINY
 70
    0
  3
Dash dot (.15x) _._._._._._._._._._._._._._._.
 72
   65
 73
    4
 40
3.81
 49
1.905
 74
    0
 49
-0.9525
 74
    0
 49
0
 74
    0
 49
-0.9525
 74
    0
  0
LTYPE
  5
3C
330
5
100
AcDbSymbolTableRecord
100
AcDbLinetypeTableRecord
  2
DASHDOT2
 70
    0
  3
Dash dot (.5x) _._._._._._._._._._._._._._._.
 72
   65
 73
    4
 40
12.7
 49
6.35
 74
    0
 49
-3.175
 74
    0
 49
0
 74
    0
 49
-3.175
 74
    0
  0
LTYPE
  5
3D
330
5
100
AcDbSymbolTableRecord
100
AcDbLinetypeTableRecord
  2
DASHDOTX2
 70
    0
  3
Dash dot (2x) ____  .  ____  .  ____  .  ___
 72
   65
 73
    4
 40
50.8
 49
25.4
 74
    0
 49
-12.7
 74
    0
 49
0
 74
    0
 49
-12.7
 74
    0
  0
LTYPE
  5
3E
330
5
100
AcDbSymbolTableRecord
100
AcDbLinetypeTableRecord
  2
DIVIDE
 70
    0
  3
Divide ____ . . ____ . . ____ . . ____ . . ____
 72
   65
 73
    6
 40
31.75
 49
12.7
 74
    0
 49
-6.35
 74
    0
 49
0
 74
    0
 49
-6.35
 74
    0
 49
0
 74
    0
 49
-6.35
 74
    0
  0
LTYPE
  5
3F
330
5
100
AcDbSymbolTableRecord
100
AcDbLinetypeTableRecord
  2
DIVIDETINY
 70
    0
  3
Divide (.15x) __..__..__..__..__..__..__..__.._
 72
   65
 73
    6
 40
4.7625
 49
1.905
 74
    0
 49
-0.9525
 74
    0
 49
0
 74
    0
 49
-0.9525
 74
    0
 49
0
 74
    0
 49
-0.9525
 74
    0
  0
LTYPE
  5
40
330
5
100
AcDbSymbolTableRecord
100
AcDbLinetypeTableRecord
  2
DIVIDE2
 70
    0
  3
Divide (.5x) __..__..__..__..__..__..__..__.._
 72
   65
 73
    6
 40
15.875
 49
6.35
 74
    0
 49
-3.175
 74
    0
 49
0
 74
    0
 49
-3.175
 74
    0
 49
0
 74
    0
 49
-3.175
 74
    0
  0
LTYPE
  5
41
330
5
100
AcDbSymbolTableRecord
100
AcDbLinetypeTableRecord
  2
DIVIDEX2
 70
    0
  3
Divide (2x) ________  .  .  ________  .  .  _
 72
   65
 73
    6
 40
63.5
 49
25.4
 74
    0
 49
-12.7
 74
    0
 49
0
 74
    0
 49
-12.7
 74
    0
 49
0
 74
    0
 49
-12.7
 74
    0
  0
LTYPE
  5
42
330
5
100
AcDbSymbolTableRecord
100
AcDbLinetypeTableRecord
  2
BORDER
 70
    0
  3
Border __ __ . __ __ . __ __ . __ __ . __ __ .
 72
   65
 73
    6
 40
44.45
 49
12.7
 74
    0
 49
-6.35
 74
    0
 49
12.7
 74
    0
 49
-6.35
 74
    0
 49
0
 74
    0
 49
-6.35
 74
    0
  0
LTYPE
  5
43
330
5
100
AcDbSymbolTableRecord
100
AcDbLinetypeTableRecord
  2
BORDERTINY
 70
    0
  3
Border (.15x) __.__.__.__.__.__.__.__.__.__.__.
 72
   65
 73
    6
 40
6.6675
 49
1.905
 74
    0
 49
-0.9525
 74
    0
 49
1.905
 74
    0
 49
-0.9525
 74
    0
 49
0
 74
    0
 49
-0.9525
 74
    0
  0
LTYPE
  5
44
330
5
100
AcDbSymbolTableRecord
100
AcDbLinetypeTableRecord
  2
BORDER2
 70
    0
  3
Border (.5x) __.__.__.__.__.__.__.__.__.__.__.
 72
   65
 73
    6
 40
22.225
 49
6.35
 74
    0
 49
-3.175
 74
    0
 49
6.35
 74
    0
 49
-3.175
 74
    0
 49
0
 74
    0
 49
-3.175
 74
    0
  0
LTYPE
  5
45
330
5
100
AcDbSymbolTableRecord
100
AcDbLinetypeTableRecord
  2
BORDERX2
 70
    0
  3
Border (2x) ____  ____  .  ____  ____  .  ___
 72
   65
 73
    6
 40
88.89999999999999
 49
25.4
 74
    0
 49
-12.7
 74
    0
 49
25.4
 74
    0
 49
-12.7
 74
    0
 49
0
 74
    0
 49
-12.7
 74
    0
  0
LTYPE
  5
46
330
5
100
AcDbSymbolTableRecord
100
AcDbLinetypeTableRecord
  2
CENTER
 70
    0
  3
Center ____ _ ____ _ ____ _ ____ _ ____ _ ____
 72
   65
 73
    4
 40
50.8
 49
31.75
 74
    0
 49
-6.35
 74
    0
 49
6.35
 74
    0
 49
-6.35
 74
    0
  0
LTYPE
  5
47
330
5
100
AcDbSymbolTableRecord
100
AcDbLinetypeTableRecord
  2
CENTERTINY
 70
    0
  3
Center (.15x) ___ _ ___ _ ___ _ ___ _ ___ _ ___
 72
   65
 73
    4
 40
7.619999999999999
 49
4.7625
 74
    0
 49
-0.9525
 74
    0
 49
0.9525
 74
    0
 49
-0.9525
 74
    0
  0
LTYPE
  5
48
330
5
100
AcDbSymbolTableRecord
100
AcDbLinetypeTableRecord
  2
CENTER2
 70
    0
  3
Center (.5x) ___ _ ___ _ ___ _ ___ _ ___ _ ___
 72
   65
 73
    4
 40
28.575
 49
19.05
 74
    0
 49
-3.175
 74
    0
 49
3.175
 74
    0
 49
-3.175
 74
    0
  0
LTYPE
  5
49
330
5
100
AcDbSymbolTableRecord
100
AcDbLinetypeTableRecord
  2
CENTERX2
 70
    0
  3
Center (2x) ________  __  ________  __  _____
 72
   65
 73
    4
 40
101.6
 49
63.5
 74
    0
 49
-12.7
 74
    0
 49
12.7
 74
    0
 49
-12.7
 74
    0
  0
ENDTAB
  0
TABLE
  2
LAYER
  5
2
330
0
100
AcDbSymbolTable
 70
    1
  0
LAYER
  5
10
330
2
100
AcDbSymbolTableRecord
100
AcDbLayerTableRecord
  2
0
 70
    1
 62
    7
  6
CONTINUOUS
290
0
370
    0
390
F
  0
LAYER
  5
4A
330
2
100
AcDbSymbolTableRecord
100
AcDbLayerTableRecord
  2
Kanten
 70
    0
 62
    7
  6
CONTINUOUS
370
  100
390
F
  0
LAYER
  5
4B
330
2
100
AcDbSymbolTableRecord
100
AcDbLayerTableRecord
  2
Kupferrohr
 70
    1
 62
    7
  6
CONTINUOUS
290
0
370
  140
390
F
  0
LAYER
  5
4C
330
2
100
AcDbSymbolTableRecord
100
AcDbLayerTableRecord
  2
Maß
 70
    0
 62
    7
  6
CONTINUOUS
370
   35
390
F
  0
LAYER
  5
4D
330
2
100
AcDbSymbolTableRecord
100
AcDbLayerTableRecord
  2
Versteckt
 70
    0
 62
    7
  6
DASHED2
370
   50
390
F
  0
ENDTAB
  0
TABLE
  2
STYLE
  5
3
330
0
100
AcDbSymbolTable
 70
    3
  0
STYLE
  5
4E
330
2
100
AcDbSymbolTableRecord
100
AcDbTextStyleTableRecord
  2
Standard
 70
    0
 40
0
 41
1
 50
0
 71
    0
 42
1
  3
txt
  4

  0
ENDTAB
  0
TABLE
  2
VIEW
  5
6
330
0
100
AcDbSymbolTable
 70
    0
  0
ENDTAB
  0
TABLE
  2
UCS
  5
7
330
0
100
AcDbSymbolTable
 70
    0
  0
ENDTAB
  0
TABLE
  2
APPID
  5
9
330
0
100
AcDbSymbolTable
 70
    1
  0
APPID
  5
12
330
9
100
AcDbSymbolTableRecord
100
AcDbRegAppTableRecord
  2
ACAD
 70
    0
  0
APPID
  5
4F
330
9
100
AcDbSymbolTableRecord
100
AcDbRegAppTableRecord
  2
LibreCad
 70
    0
  0
ENDTAB
  0
TABLE
  2
DIMSTYLE
  5
A
330
0
100
AcDbSymbolTable
 70
    1
100
AcDbDimStyleTable
 71
    1
  0
DIMSTYLE
105
50
330
A
100
AcDbSymbolTableRecord
100
AcDbDimStyleTableRecord
  2
Standard
 70
    0
 40
1
 41
2.5
 42
0.625
 43
0.38
 44
1.25
 45
0
 46
0
 47
0
 48
0
 49
1
140
2.5
141
0.09
142
0
143
25.4
144
1
145
0
146
1
147
0.625
148
0
 71
    0
 72
    0
 73
    0
 74
    1
 75
    0
 76
    0
 77
    0
 78
    1
 79
    0
170
    0
171
    2
172
    0
173
    0
174
    0
175
    0
176
    0
177
    0
178
    0
179
    2
271
    0
272
    4
273
    2
274
    2
275
    0
276
    0
277
    2
278
    0
279
    0
280
    0
281
    0
282
    0
283
    1
284
    0
285
    0
286
    0
288
    0
289
    3
340
STANDARD
341

371
   -2
372
   -2
  0
ENDTAB
  0
TABLE
  2
BLOCK_RECORD
  5
1
330
0
100
AcDbSymbolTable
 70
    2
  0
BLOCK_RECORD
  5
1F
330
1
100
AcDbSymbolTableRecord
100
AcDbBlockTableRecord
  2
*Model_Space
 70
    0
280
    1
281
    0
  0
BLOCK_RECORD
  5
1E
330
1
100
AcDbSymbolTableRecord
100
AcDbBlockTableRecord
  2
*Paper_Space
 70
    0
280
    1
281
    0
  0
BLOCK_RECORD
  5
51
330
1
100
AcDbSymbolTableRecord
100
AcDbBlockTableRecord
  2
*D21
 70
    0
280
    1
281
    0
  0
BLOCK_RECORD
  5
54
330
1
100
AcDbSymbolTableRecord
100
AcDbBlockTableRecord
  2
*D15
 70
    0
280
    1
281
    0
  0
BLOCK_RECORD
  5
57
330
1
100
AcDbSymbolTableRecord
100
AcDbBlockTableRecord
  2
*D2
 70
    0
280
    1
281
    0
  0
BLOCK_RECORD
  5
5A
330
1
100
AcDbSymbolTableRecord
100
AcDbBlockTableRecord
  2
*D25
 70
    0
280
    1
281
    0
  0
BLOCK_RECORD
  5
5D
330
1
100
AcDbSymbolTableRecord
100
AcDbBlockTableRecord
  2
*D32
 70
    0
280
    1
281
    0
  0
BLOCK_RECORD
  5
60
330
1
100
AcDbSymbolTableRecord
100
AcDbBlockTableRecord
  2
*D10
 70
    0
280
    1
281
    0
  0
BLOCK_RECORD
  5
63
330
1
100
AcDbSymbolTableRecord
100
AcDbBlockTableRecord
  2
*D24
 70
    0
280
    1
281
    0
  0
BLOCK_RECORD
  5
66
330
1
100
AcDbSymbolTableRecord
100
AcDbBlockTableRecord
  2
*D11
 70
    0
280
    1
281
    0
  0
BLOCK_RECORD
  5
69
330
1
100
AcDbSymbolTableRecord
100
AcDbBlockTableRecord
  2
*D26
 70
    0
280
    1
281
    0
  0
BLOCK_RECORD
  5
6C
330
1
100
AcDbSymbolTableRecord
100
AcDbBlockTableRecord
  2
*D1
 70
    0
280
    1
281
    0
  0
BLOCK_RECORD
  5
6F
330
1
100
AcDbSymbolTableRecord
100
AcDbBlockTableRecord
  2
*D9
 70
    0
280
    1
281
    0
  0
BLOCK_RECORD
  5
72
330
1
100
AcDbSymbolTableRecord
100
AcDbBlockTableRecord
  2
*D31
 70
    0
280
    1
281
    0
  0
BLOCK_RECORD
  5
75
330
1
100
AcDbSymbolTableRecord
100
AcDbBlockTableRecord
  2
*D4
 70
    0
280
    1
281
    0
  0
BLOCK_RECORD
  5
78
330
1
100
AcDbSymbolTableRecord
100
AcDbBlockTableRecord
  2
*D12
 70
    0
280
    1
281
    0
  0
BLOCK_RECORD
  5
7B
330
1
100
AcDbSymbolTableRecord
100
AcDbBlockTableRecord
  2
*D28
 70
    0
280
    1
281
    0
  0
BLOCK_RECORD
  5
7E
330
1
100
AcDbSymbolTableRecord
100
AcDbBlockTableRecord
  2
*D33
 70
    0
280
    1
281
    0
  0
BLOCK_RECORD
  5
81
330
1
100
AcDbSymbolTableRecord
100
AcDbBlockTableRecord
  2
*D3
 70
    0
280
    1
281
    0
  0
BLOCK_RECORD
  5
84
330
1
100
AcDbSymbolTableRecord
100
AcDbBlockTableRecord
  2
*D27
 70
    0
280
    1
281
    0
  0
BLOCK_RECORD
  5
87
330
1
100
AcDbSymbolTableRecord
100
AcDbBlockTableRecord
  2
*D13
 70
    0
280
    1
281
    0
  0
BLOCK_RECORD
  5
8A
330
1
100
AcDbSymbolTableRecord
100
AcDbBlockTableRecord
  2
*D6
 70
    0
280
    1
281
    0
  0
BLOCK_RECORD
  5
8D
330
1
100
AcDbSymbolTableRecord
100
AcDbBlockTableRecord
  2
*D17
 70
    0
280
    1
281
    0
  0
BLOCK_RECORD
  5
90
330
1
100
AcDbSymbolTableRecord
100
AcDbBlockTableRecord
  2
*D8
 70
    0
280
    1
281
    0
  0
BLOCK_RECORD
  5
93
330
1
100
AcDbSymbolTableRecord
100
AcDbBlockTableRecord
  2
*D34
 70
    0
280
    1
281
    0
  0
BLOCK_RECORD
  5
96
330
1
100
AcDbSymbolTableRecord
100
AcDbBlockTableRecord
  2
*D23
 70
    0
280
    1
281
    0
  0
BLOCK_RECORD
  5
99
330
1
100
AcDbSymbolTableRecord
100
AcDbBlockTableRecord
  2
*D29
 70
    0
280
    1
281
    0
  0
BLOCK_RECORD
  5
9C
330
1
100
AcDbSymbolTableRecord
100
AcDbBlockTableRecord
  2
*D16
 70
    0
280
    1
281
    0
  0
BLOCK_RECORD
  5
9F
330
1
100
AcDbSymbolTableRecord
100
AcDbBlockTableRecord
  2
*D30
 70
    0
280
    1
281
    0
  0
BLOCK_RECORD
  5
A2
330
1
100
AcDbSymbolTableRecord
100
AcDbBlockTableRecord
  2
*D5
 70
    0
280
    1
281
    0
  0
BLOCK_RECORD
  5
A5
330
1
100
AcDbSymbolTableRecord
100
AcDbBlockTableRecord
  2
*D7
 70
    0
280
    1
281
    0
  0
BLOCK_RECORD
  5
A8
330
1
100
AcDbSymbolTableRecord
100
AcDbBlockTableRecord
  2
*D14
 70
    0
280
    1
281
    0
  0
BLOCK_RECORD
  5
AB
330
1
100
AcDbSymbolTableRecord
100
AcDbBlockTableRecord
  2
*D22
 70
    0
280
    1
281
    0
  0
BLOCK_RECORD
  5
AE
330
1
100
AcDbSymbolTableRecord
100
AcDbBlockTableRecord
  2
*D19
 70
    0
280
    1
281
    0
  0
BLOCK_RECORD
  5
B1
330
1
100
AcDbSymbolTableRecord
100
AcDbBlockTableRecord
  2
*D20
 70
    0
280
    1
281
    0
  0
BLOCK_RECORD
  5
B4
330
1
100
AcDbSymbolTableRecord
100
AcDbBlockTableRecord
  2
*D18
 70
    0
280
    1
281
    0
  0
ENDTAB
  0
ENDSEC
  0
SECTION
  2
BLOCKS
  0
BLOCK
  5
20
330
1F
100
AcDbEntity
  8
0
100
AcDbBlockBegin
  2
*Model_Space
 70
    0
 10
0
 20
0
 30
0
  3
*Model_Space
  1

  0
ENDBLK
  5
21
330
1F
100
AcDbEntity
  8
0
100
AcDbBlockEnd
  0
BLOCK
  5
1C
330
1B
100
AcDbEntity
  8
0
100
AcDbBlockBegin
  2
*Paper_Space
 70
    0
 10
0
 20
0
 30
0
  3
*Paper_Space
  1

  0
ENDBLK
  5
1D
330
1F
100
AcDbEntity
  8
0
100
AcDbBlockEnd
  0
BLOCK
  5
52
330
51
100
AcDbEntity
  8
0
100
AcDbBlockBegin
  2
*D21
 70
    1
 10
0
 20
0
  3
*D21
  1

  0
LINE
  5
B7
100
AcDbEntity
  8
Maß
  6
ByBlock
 62
    0
370
   -2
100
AcDbLine
 10
-9.999999999999998
 20
150
 11
-10
 21
118
  0
SOLID
  5
B8
100
AcDbEntity
  8
Maß
  6
ByBlock
 62
    0
370
   -2
100
AcDbTrace
 10
-9.999999999999998
 20
150
 30
0
 11
-9.583715342227158
 21
147.5
 31
0
 12
-10.41628465777284
 22
147.5
 32
0
 13
-10.41628465777284
 23
147.5
 33
0
  0
SOLID
  5
B9
100
AcDbEntity
  8
Maß
  6
ByBlock
 62
    0
370
   -2
100
AcDbTrace
 10
-10
 20
118
 30
0
 11
-10.41628465777284
 21
120.5
 31
0
 12
-9.583715342227158
 22
120.5
 32
0
 13
-9.583715342227158
 23
120.5
 33
0
  0
MTEXT
  5
BA
100
AcDbEntity
  8
Maß
  6
CONTINUOUS
 62
    0
370
   -2
100
AcDbMText
 10
-13.125
 20
134
 30
0
 40
2.5
 41
3.055555555555711
 71
    5
 72
    1
  1
32
  7
STANDARD
210
0
220
0
230
1
 50
90
 73
    2
 44
1
  0
LINE
  5
BB
100
AcDbEntity
  8
Maß
  6
ByBlock
 62
    0
370
   -2
100
AcDbLine
 10
-0.625
 20
150
 11
-11.25
 21
150
  0
LINE
  5
BC
100
AcDbEntity
  8
Maß
  6
ByBlock
 62
    0
370
   -2
100
AcDbLine
 10
67.375
 20
118
 11
-11.25
 21
118
  0
ENDBLK
  5
53
330
51
100
AcDbEntity
  8
0
100
AcDbBlockEnd
  0
BLOCK
  5
55
330
54
100
AcDbEntity
  8
0
100
AcDbBlockBegin
  2
*D15
 70
    1
 10
0
 20
0
  3
*D15
  1

  0
LINE
  5
BD
100
AcDbEntity
  8
Maß
  6
ByBlock
 62
    0
370
   -2
100
AcDbLine
 10
172
 20
160
 11
180
 21
160
  0
SOLID
  5
BE
100
AcDbEntity
  8
Maß
  6
ByBlock
 62
    0
370
   -2
100
AcDbTrace
 10
172
 20
160
 30
0
 11
174.5
 21
160.4162846577728
 31
0
 12
174.5
 22
159.5837153422272
 32
0
 13
174.5
 23
159.5837153422272
 33
0
  0
SOLID
  5
BF
100
AcDbEntity
  8
Maß
  6
ByBlock
 62
    0
370
   -2
100
AcDbTrace
 10
180
 20
160
 30
0
 11
177.5
 21
159.5837153422272
 31
0
 12
177.5
 22
160.4162846577728
 32
0
 13
177.5
 23
160.4162846577728
 33
0
  0
MTEXT
  5
C0
100
AcDbEntity
  8
Maß
  6
CONTINUOUS
 62
    0
370
   -2
100
AcDbMText
 10
176
 20
163.125
 30
0
 40
2.5
 41
1.111111111111111
 71
    5
 72
    1
  1
8
  7
STANDARD
210
0
220
0
230
1
 50
0
 73
    2
 44
1
  0
LINE
  5
C1
100
AcDbEntity
  8
Maß
  6
ByBlock
 62
    0
370
   -2
100
AcDbLine
 10
172
 20
102.625
 11
172
 21
161.25
  0
LINE
  5
C2
100
AcDbEntity
  8
Maß
  6
ByBlock
 62
    0
370
   -2
100
AcDbLine
 10
180
 20
150.625
 11
180
 21
161.25
  0
ENDBLK
  5
56
330
54
100
AcDbEntity
  8
0
100
AcDbBlockEnd
  0
BLOCK
  5
58
330
57
100
AcDbEntity
  8
0
100
AcDbBlockBegin
  2
*D2
 70
    1
 10
0
 20
0
  3
*D2
  1

  0
LINE
  5
C3
100
AcDbEntity
  8
Maß
  6
ByBlock
 62
    0
370
   -2
100
AcDbLine
 10
60
 20
170
 11
100
 21
170
  0
SOLID
  5
C4
100
AcDbEntity
  8
Maß
  6
ByBlock
 62
    0
370
   -2
100
AcDbTrace
 10
60
 20
170
 30
0
 11
62.5
 21
170.4162846577728
 31
0
 12
62.5
 22
169.5837153422272
 32
0
 13
62.5
 23
169.5837153422272
 33
0
  0
SOLID
  5
C5
100
AcDbEntity
  8
Maß
  6
ByBlock
 62
    0
370
   -2
100
AcDbTrace
 10
100
 20
170
 30
0
 11
97.5
 21
169.5837153422272
 31
0
 12
97.5
 22
170.4162846577728
 32
0
 13
97.5
 23
170.4162846577728
 33
0
  0
MTEXT
  5
C6
100
AcDbEntity
  8
Maß
  6
CONTINUOUS
 62
    0
370
   -2
100
AcDbMText
 10
80
 20
173.125
 30
0
 40
2.5
 41
3.333333333333333
 71
    5
 72
    1
  1
40
  7
STANDARD
210
0
220
0
230
1
 50
0
 73
    2
 44
1
  0
LINE
  5
C7
100
AcDbEntity
  8
Maß
  6
ByBlock
 62
    0
370
   -2
100
AcDbLine
 10
60
 20
150.625
 11
60
 21
171.25
  0
LINE
  5
C8
100
AcDbEntity
  8
Maß
  6
ByBlock
 62
    0
370
   -2
100
AcDbLine
 10
100
 20
150.625
 11
100
 21
171.25
  0
ENDBLK
  5
59
330
57
100
AcDbEntity
  8
0
100
AcDbBlockEnd
  0
BLOCK
  5
5B
330
5A
100
AcDbEntity
  8
0
100
AcDbBlockBegin
  2
*D25
 70
    1
 10
0
 20
0
  3
*D25
  1

  0
LINE
  5
C9
100
AcDbEntity
  8
Maß
  6
ByBlock
 62
    0
370
   -2
100
AcDbLine
 10
260
 20
150
 11
260
 21
125
  0
SOLID
  5
CA
100
AcDbEntity
  8
Maß
  6
ByBlock
 62
    0
370
   -2
100
AcDbTrace
 10
260
 20
150
 30
0
 11
260.4162846577728
 21
147.5
 31
0
 12
259.5837153422272
 22
147.5
 32
0
 13
259.5837153422272
 23
147.5
 33
0
  0
SOLID
  5
CB
100
AcDbEntity
  8
Maß
  6
ByBlock
 62
    0
370
   -2
100
AcDbTrace
 10
260
 20
125
 30
0
 11
259.5837153422272
 21
127.5
 31
0
 12
260.4162846577728
 22
127.5
 32
0
 13
260.4162846577728
 23
127.5
 33
0
  0
MTEXT
  5
CC
100
AcDbEntity
  8
Maß
  6
CONTINUOUS
 62
    0
370
   -2
100
AcDbMText
 10
256.875
 20
137.5
 30
0
 40
2.5
 41
3.055555555555711
 71
    5
 72
    1
  1
25
  7
STANDARD
210
0
220
0
230
1
 50
90
 73
    2
 44
1
  0
LINE
  5
CD
100
AcDbEntity
  8
Maß
  6
ByBlock
 62
    0
370
   -2
100
AcDbLine
 10
240.625
 20
150
 11
261.25
 21
150
  0
LINE
  5
CE
100
AcDbEntity
  8
Maß
  6
ByBlock
 62
    0
370
   -2
100
AcDbLine
 10
215.625
 20
125
 11
261.25
 21
125
  0
ENDBLK
  5
5C
330
5A
100
AcDbEntity
  8
0
100
AcDbBlockEnd
  0
BLOCK
  5
5E
330
5D
100
AcDbEntity
  8
0
100
AcDbBlockBegin
  2
*D32
 70
    1
 10
0
 20
0
  3
*D32
  1

  0
LINE
  5
CF
100
AcDbEntity
  8
Maß
  6
ByBlock
 62
    0
370
   -2
100
AcDbLine
 10
20.75735931288072
 20
29.24264068711929
 11
29.24264068711928
 21
20.75735931288072
  0
SOLID
  5
D0
100
AcDbEntity
  8
Maß
  6
ByBlock
 62
    0
370
   -2
100
AcDbTrace
 10
20.75735931288072
 20
29.24264068711929
 30
0
 11
22.81948397026218
 21
27.76923143856802
 31
0
 12
22.23076856143199
 22
27.18051602973782
 32
0
 13
22.23076856143199
 23
27.18051602973782
 33
0
  0
SOLID
  5
D1
100
AcDbEntity
  8
Maß
  6
ByBlock
 62
    0
370
   -2
100
AcDbTrace
 10
29.24264068711928
 20
20.75735931288072
 30
0
 11
27.18051602973782
 21
22.23076856143199
 31
0
 12
27.76923143856801
 22
22.81948397026219
 32
0
 13
27.76923143856801
 23
22.81948397026219
 33
0
  0
MTEXT
  5
D2
100
AcDbEntity
  8
Maß
  6
CONTINUOUS
 62
    0
370
   -2
100
AcDbMText
 10
34
 20
22
 30
0
 40
2.5
 41
2.5
 71
    5
 72
    1
  1
12
  7
STANDARD
210
0
220
0
230
1
 50
314.9999999999999
 73
    2
 44
1
  0
ENDBLK
  5
5F
330
5D
100
AcDbEntity
  8
0
100
AcDbBlockEnd
  0
BLOCK
  5
61
330
60
100
AcDbEntity
  8
0
100
AcDbBlockBegin
  2
*D10
 70
    1
 10
0
 20
0
  3
*D10
  1

  0
LINE
  5
D3
100
AcDbEntity
  8
Maß
  6
ByBlock
 62
    0
370
   -2
100
AcDbLine
 10
92
 20
160
 11
100
 21
160
  0
SOLID
  5
D4
100
AcDbEntity
  8
Maß
  6
ByBlock
 62
    0
370
   -2
100
AcDbTrace
 10
92
 20
160
 30
0
 11
94.5
 21
160.4162846577728
 31
0
 12
94.5
 22
159.5837153422272
 32
0
 13
94.5
 23
159.5837153422272
 33
0
  0
SOLID
  5
D5
100
AcDbEntity
  8
Maß
  6
ByBlock
 62
    0
370
   -2
100
AcDbTrace
 10
100
 20
160
 30
0
 11
97.5
 21
159.5837153422272
 31
0
 12
97.5
 22
160.4162846577728
 32
0
 13
97.5
 23
160.4162846577728
 33
0
  0
MTEXT
  5
D6
100
AcDbEntity
  8
Maß
  6
CONTINUOUS
 62
    0
370
   -2
100
AcDbMText
 10
96
 20
163.125
 30
0
 40
2.5
 41
1.111111111111111
 71
    5
 72
    1
  1
8
  7
STANDARD
210
0
220
0
230
1
 50
0
 73
    2
 44
1
  0
LINE
  5
D7
100
AcDbEntity
  8
Maß
  6
ByBlock
 62
    0
370
   -2
100
AcDbLine
 10
92
 20
102.625
 11
92
 21
161.25
  0
LINE
  5
D8
100
AcDbEntity
  8
Maß
  6
ByBlock
 62
    0
370
   -2
100
AcDbLine
 10
100
 20
150.625
 11
100
 21
161.25
  0
ENDBLK
  5
62
330
60
100
AcDbEntity
  8
0
100
AcDbBlockEnd
  0
BLOCK
  5
64
330
63
100
AcDbEntity
  8
0
100
AcDbBlockBegin
  2
*D24
 70
    1
 10
0
 20
0
  3
*D24
  1

  0
LINE
  5
D9
100
AcDbEntity
  8
Maß
  6
ByBlock
 62
    0
370
   -2
100
AcDbLine
 10
100
 20
160
 11
108
 21
160
  0
SOLID
  5
DA
100
AcDbEntity
  8
Maß
  6
ByBlock
 62
    0
370
   -2
100
AcDbTrace
 10
100
 20
160
 30
0
 11
102.5
 21
160.4162846577728
 31
0
 12
102.5
 22
159.5837153422272
 32
0
 13
102.5
 23
159.5837153422272
 33
0
  0
SOLID
  5
DB
100
AcDbEntity
  8
Maß
  6
ByBlock
 62
    0
370
   -2
100
AcDbTrace
 10
108
 20
160
 30
0
 11
105.5
 21
159.5837153422272
 31
0
 12
105.5
 22
160.4162846577728
 32
0
 13
105.5
 23
160.4162846577728
 33
0
  0
MTEXT
  5
DC
100
AcDbEntity
  8
Maß
  6
CONTINUOUS
 62
    0
370
   -2
100
AcDbMText
 10
104
 20
163.125
 30
0
 40
2.5
 41
1.111111111111111
 71
    5
 72
    1
  1
8
  7
STANDARD
210
0
220
0
230
1
 50
0
 73
    2
 44
1
  0
LINE
  5
DD
100
AcDbEntity
  8
Maß
  6
ByBlock
 62
    0
370
   -2
100
AcDbLine
 10
100
 20
150.625
 11
100
 21
161.25
  0
LINE
  5
DE
100
AcDbEntity
  8
Maß
  6
ByBlock
 62
    0
370
   -2
100
AcDbLine
 10
108
 20
120.625
 11
108
 21
161.25
  0
ENDBLK
  5
65
330
63
100
AcDbEntity
  8
0
100
AcDbBlockEnd
  0
BLOCK
  5
67
330
66
100
AcDbEntity
  8
0
100
AcDbBlockBegin
  2
*D11
 70
    1
 10
0
 20
0
  3
*D11
  1

  0
LINE
  5
DF
100
AcDbEntity
  8
Maß
  6
ByBlock
 62
    0
370
   -2
100
AcDbLine
 10
108
 20
160
 11
132
 21
160
  0
SOLID
  5
E0
100
AcDbEntity
  8
Maß
  6
ByBlock
 62
    0
370
   -2
100
AcDbTrace
 10
108
 20
160
 30
0
 11
110.5
 21
160.4162846577728
 31
0
 12
110.5
 22
159.5837153422272
 32
0
 13
110.5
 23
159.5837153422272
 33
0
  0
SOLID
  5
E1
100
AcDbEntity
  8
Maß
  6
ByBlock
 62
    0
370
   -2
100
AcDbTrace
 10
132
 20
160
 30
0
 11
129.5
 21
159.5837153422272
 31
0
 12
129.5
 22
160.4162846577728
 32
0
 13
129.5
 23
160.4162846577728
 33
0
  0
MTEXT
  5
E2
100
AcDbEntity
  8
Maß
  6
CONTINUOUS
 62
    0
370
   -2
100
AcDbMText
 10
120
 20
163.125
 30
0
 40
2.5
 41
3.333333333333333
 71
    5
 72
    1
  1
24
  7
STANDARD
210
0
220
0
230
1
 50
0
 73
    2
 44
1
  0
LINE
  5
E3
100
AcDbEntity
  8
Maß
  6
ByBlock
 62
    0
370
   -2
100
AcDbLine
 10
108
 20
118.625
 11
108
 21
161.25
  0
LINE
  5
E4
100
AcDbEntity
  8
Maß
  6
ByBlock
 62
    0
370
   -2
100
AcDbLine
 10
132
 20
102.625
 11
132
 21
161.25
  0
ENDBLK
  5
68
330
66
100
AcDbEntity
  8
0
100
AcDbBlockEnd
  0
BLOCK
  5
6A
330
69
100
AcDbEntity
  8
0
100
AcDbBlockBegin
  2
*D26
 70
    1
 10
0
 20
0
  3
*D26
  1

  0
LINE
  5
E5
100
AcDbEntity
  8
Maß
  6
ByBlock
 62
    0
370
   -2
100
AcDbLine
 10
260
 20
125
 11
260
 21
25
  0
SOLID
  5
E6
100
AcDbEntity
  8
Maß
  6
ByBlock
 62
    0
370
   -2
100
AcDbTrace
 10
260
 20
125
 30
0
 11
260.4162846577728
 21
122.5
 31
0
 12
259.5837153422272
 22
122.5
 32
0
 13
259.5837153422272
 23
122.5
 33
0
  0
SOLID
  5
E7
100
AcDbEntity
  8
Maß
  6
ByBlock
 62
    0
370
   -2
100
AcDbTrace
 10
260
 20
25
 30
0
 11
259.5837153422272
 21
27.5
 31
0
 12
260.4162846577728
 22
27.5
 32
0
 13
260.4162846577728
 23
27.5
 33
0
  0
MTEXT
  5
E8
100
AcDbEntity
  8
Maß
  6
CONTINUOUS
 62
    0
370
   -2
100
AcDbMText
 10
256.875
 20
75
 30
0
 40
2.5
 41
4.444444444444445
 71
    5
 72
    1
  1
100
  7
STANDARD
210
0
220
0
230
1
 50
90
 73
    2
 44
1
  0
LINE
  5
E9
100
AcDbEntity
  8
Maß
  6
ByBlock
 62
    0
370
   -2
100
AcDbLine
 10
215.625
 20
125
 11
261.25
 21
125
  0
LINE
  5
EA
100
AcDbEntity
  8
Maß
  6
ByBlock
 62
    0
370
   -2
100
AcDbLine
 10
215.625
 20
25
 11
261.25
 21
25
  0
ENDBLK
  5
6B
330
69
100
AcDbEntity
  8
0
100
AcDbBlockEnd
  0
BLOCK
  5
6D
330
6C
100
AcDbEntity
  8
0
100
AcDbBlockBegin
  2
*D1
 70
    1
 10
0
 20
0
  3
*D1
  1

  0
LINE
  5
EB
100
AcDbEntity
  8
Maß
  6
ByBlock
 62
    0
370
   -2
100
AcDbLine
 10
1.4210854715202e-14
 20
170
 11
60
 21
170
  0
SOLID
  5
EC
100
AcDbEntity
  8
Maß
  6
ByBlock
 62
    0
370
   -2
100
AcDbTrace
 10
1.4210854715202e-14
 20
170
 30
0
 11
2.500000000000014
 21
170.4162846577728
 31
0
 12
2.500000000000014
 22
169.5837153422272
 32
0
 13
2.500000000000014
 23
169.5837153422272
 33
0
  0
SOLID
  5
ED
100
AcDbEntity
  8
Maß
  6
ByBlock
 62
    0
370
   -2
100
AcDbTrace
 10
60
 20
170
 30
0
 11
57.5
 21
169.5837153422272
 31
0
 12
57.5
 22
170.4162846577728
 32
0
 13
57.5
 23
170.4162846577728
 33
0
  0
MTEXT
  5
EE
100
AcDbEntity
  8
Maß
  6
CONTINUOUS
 62
    0
370
   -2
100
AcDbMText
 10
30.00000000000001
 20
173.125
 30
0
 40
2.5
 41
3.055555555555711
 71
    5
 72
    1
  1
60
  7
STANDARD
210
0
220
0
230
1
 50
0
 73
    2
 44
1
  0
LINE
  5
EF
100
AcDbEntity
  8
Maß
  6
ByBlock
 62
    0
370
   -2
100
AcDbLine
 10
9.361899084156648e-15
 20
150.625
 11
1.4564950896305e-14
 21
171.25
  0
LINE
  5
F0
100
AcDbEntity
  8
Maß
  6
ByBlock
 62
    0
370
   -2
100
AcDbLine
 10
60
 20
150.625
 11
60
 21
171.25
  0
ENDBLK
  5
6E
330
6C
100
AcDbEntity
  8
0
100
AcDbBlockEnd
  0
BLOCK
  5
70
330
6F
100
AcDbEntity
  8
0
100
AcDbBlockBegin
  2
*D9
 70
    1
 10
0
 20
0
  3
*D9
  1

  0
LINE
  5
F1
100
AcDbEntity
  8
Maß
  6
ByBlock
 62
    0
370
   -2
100
AcDbLine
 10
68
 20
160
 11
92
 21
160
  0
SOLID
  5
F2
100
AcDbEntity
  8
Maß
  6
ByBlock
 62
    0
370
   -2
100
AcDbTrace
 10
68
 20
160
 30
0
 11
70.5
 21
160.4162846577728
 31
0
 12
70.5
 22
159.5837153422272
 32
0
 13
70.5
 23
159.5837153422272
 33
0
  0
SOLID
  5
F3
100
AcDbEntity
  8
Maß
  6
ByBlock
 62
    0
370
   -2
100
AcDbTrace
 10
92
 20
160
 30
0
 11
89.5
 21
159.5837153422272
 31
0
 12
89.5
 22
160.4162846577728
 32
0
 13
89.5
 23
160.4162846577728
 33
0
  0
MTEXT
  5
F4
100
AcDbEntity
  8
Maß
  6
CONTINUOUS
 62
    0
370
   -2
100
AcDbMText
 10
80
 20
163.125
 30
0
 40
2.5
 41
3.333333333333333
 71
    5
 72
    1
  1
24
  7
STANDARD
210
0
220
0
230
1
 50
0
 73
    2
 44
1
  0
LINE
  5
F5
100
AcDbEntity
  8
Maß
  6
ByBlock
 62
    0
370
   -2
100
AcDbLine
 10
68
 20
118.625
 11
68
 21
161.25
  0
LINE
  5
F6
100
AcDbEntity
  8
Maß
  6
ByBlock
 62
    0
370
   -2
100
AcDbLine
 10
92
 20
102.625
 11
92
 21
161.25
  0
ENDBLK
  5
71
330
6F
100
AcDbEntity
  8
0
100
AcDbBlockEnd
  0
BLOCK
  5
73
330
72
100
AcDbEntity
  8
0
100
AcDbBlockBegin
  2
*D31
 70
    1
 10
0
 20
0
  3
*D31
  1

  0
LINE
  5
F7
100
AcDbEntity
  8
Maß
  6
ByBlock
 62
    0
370
   -2
100
AcDbLine
 10
85.73900966300059
 20
105.1304951684997
 11
98.26099033699941
 21
98.86950483150032
  0
SOLID
  5
F8
100
AcDbEntity
  8
Maß
  6
ByBlock
 62
    0
370
   -2
100
AcDbTrace
 10
90.21114561800017
 20
102.8944271909999
 30
0
 11
87.78890948194632
 21
103.6401248626417
 31
0
 12
88.16124579905444
 22
104.3847974968579
 32
0
 13
88.16124579905444
 23
104.3847974968579
 33
0
  0
SOLID
  5
F9
100
AcDbEntity
  8
Maß
  6
ByBlock
 62
    0
370
   -2
100
AcDbTrace
 10
93.78885438199983
 20
101.1055728090001
 30
0
 11
96.21109051805368
 21
100.3598751373583
 31
0
 12
95.83875420094556
 22
99.61520250314209
 32
0
 13
95.83875420094556
 23
99.61520250314209
 33
0
  0
MTEXT
  5
FA
100
AcDbEntity
  8
Maß
  6
CONTINUOUS
 62
    0
370
   -2
100
AcDbMText
 10
98
 20
103
 30
0
 40
2.5
 41
1.388888888888889
 71
    5
 72
    1
  1
4
  7
STANDARD
210
0
220
0
230
1
 50
333.4349488229222
 73
    2
 44
1
  0
ENDBLK
  5
74
330
72
100
AcDbEntity
  8
0
100
AcDbBlockEnd
  0
BLOCK
  5
76
330
75
100
AcDbEntity
  8
0
100
AcDbBlockBegin
  2
*D4
 70
    1
 10
0
 20
0
  3
*D4
  1

  0
LINE
  5
FB
100
AcDbEntity
  8
Maß
  6
ByBlock
 62
    0
370
   -2
100
AcDbLine
 10
140
 20
170
 11
180
 21
170
  0
SOLID
  5
FC
100
AcDbEntity
  8
Maß
  6
ByBlock
 62
    0
370
   -2
100
AcDbTrace
 10
140
 20
170
 30
0
 11
142.5
 21
170.4162846577728
 31
0
 12
142.5
 22
169.5837153422272
 32
0
 13
142.5
 23
169.5837153422272
 33
0
  0
SOLID
  5
FD
100
AcDbEntity
  8
Maß
  6
ByBlock
 62
    0
370
   -2
100
AcDbTrace
 10
180
 20
170
 30
0
 11
177.5
 21
169.5837153422272
 31
0
 12
177.5
 22
170.4162846577728
 32
0
 13
177.5
 23
170.4162846577728
 33
0
  0
MTEXT
  5
FE
100
AcDbEntity
  8
Maß
  6
CONTINUOUS
 62
    0
370
   -2
100
AcDbMText
 10
160
 20
173.125
 30
0
 40
2.5
 41
3.333333333333333
 71
    5
 72
    1
  1
40
  7
STANDARD
210
0
220
0
230
1
 50
0
 73
    2
 44
1
  0
LINE
  5
FF
100
AcDbEntity
  8
Maß
  6
ByBlock
 62
    0
370
   -2
100
AcDbLine
 10
140
 20
150.625
 11
140
 21
171.25
  0
LINE
  5
100
100
AcDbEntity
  8
Maß
  6
ByBlock
 62
    0
370
   -2
100
AcDbLine
 10
180
 20
150.625
 11
180
 21
171.25
  0
ENDBLK
  5
77
330
75
100
AcDbEntity
  8
0
100
AcDbBlockEnd
  0
BLOCK
  5
79
330
78
100
AcDbEntity
  8
0
100
AcDbBlockBegin
  2
*D12
 70
    1
 10
0
 20
0
  3
*D12
  1

  0
LINE
  5
101
100
AcDbEntity
  8
Maß
  6
ByBlock
 62
    0
370
   -2
100
AcDbLine
 10
132
 20
160
 11
140
 21
160
  0
SOLID
  5
102
100
AcDbEntity
  8
Maß
  6
ByBlock
 62
    0
370
   -2
100
AcDbTrace
 10
132
 20
160
 30
0
 11
134.5
 21
160.4162846577728
 31
0
 12
134.5
 22
159.5837153422272
 32
0
 13
134.5
 23
159.5837153422272
 33
0
  0
SOLID
  5
103
100
AcDbEntity
  8
Maß
  6
ByBlock
 62
    0
370
   -2
100
AcDbTrace
 10
140
 20
160
 30
0
 11
137.5
 21
159.5837153422272
 31
0
 12
137.5
 22
160.4162846577728
 32
0
 13
137.5
 23
160.4162846577728
 33
0
  0
MTEXT
  5
104
100
AcDbEntity
  8
Maß
  6
CONTINUOUS
 62
    0
370
   -2
100
AcDbMText
 10
136
 20
163.125
 30
0
 40
2.5
 41
1.111111111111111
 71
    5
 72
    1
  1
8
  7
STANDARD
210
0
220
0
230
1
 50
0
 73
    2
 44
1
  0
LINE
  5
105
100
AcDbEntity
  8
Maß
  6
ByBlock
 62
    0
370
   -2
100
AcDbLine
 10
132
 20
102.625
 11
132
 21
161.25
  0
LINE
  5
106
100
AcDbEntity
  8
Maß
  6
ByBlock
 62
    0
370
   -2
100
AcDbLine
 10
140
 20
150.625
 11
140
 21
161.25
  0
ENDBLK
  5
7A
330
78
100
AcDbEntity
  8
0
100
AcDbBlockEnd
  0
BLOCK
  5
7C
330
7B
100
AcDbEntity
  8
0
100
AcDbBlockBegin
  2
*D28
 70
    1
 10
0
 20
0
  3
*D28
  1

  0
LINE
  5
107
100
AcDbEntity
  8
Maß
  6
ByBlock
 62
    0
370
   -2
100
AcDbLine
 10
240
 20
-20
 11
215
 21
-20
  0
SOLID
  5
108
100
AcDbEntity
  8
Maß
  6
ByBlock
 62
    0
370
   -2
100
AcDbTrace
 10
240
 20
-20
 30
0
 11
237.5
 21
-20.41628465777284
 31
0
 12
237.5
 22
-19.58371534222716
 32
0
 13
237.5
 23
-19.58371534222716
 33
0
  0
SOLID
  5
109
100
AcDbEntity
  8
Maß
  6
ByBlock
 62
    0
370
   -2
100
AcDbTrace
 10
215
 20
-20
 30
0
 11
217.5
 21
-19.58371534222716
 31
0
 12
217.5
 22
-20.41628465777284
 32
0
 13
217.5
 23
-20.41628465777284
 33
0
  0
MTEXT
  5
10A
100
AcDbEntity
  8
Maß
  6
CONTINUOUS
 62
    0
370
   -2
100
AcDbMText
 10
227.5
 20
-16.875
 30
0
 40
2.5
 41
3.055555555555711
 71
    5
 72
    1
  1
25
  7
STANDARD
210
0
220
0
230
1
 50
360
 73
    2
 44
1
  0
LINE
  5
10B
100
AcDbEntity
  8
Maß
  6
ByBlock
 62
    0
370
   -2
100
AcDbLine
 10
240
 20
-0.625
 11
240
 21
-21.25
  0
LINE
  5
10C
100
AcDbEntity
  8
Maß
  6
ByBlock
 62
    0
370
   -2
100
AcDbLine
 10
215
 20
24.375
 11
215
 21
-21.25
  0
ENDBLK
  5
7D
330
7B
100
AcDbEntity
  8
0
100
AcDbBlockEnd
  0
BLOCK
  5
7F
330
7E
100
AcDbEntity
  8
0
100
AcDbBlockBegin
  2
*D33
 70
    1
 10
0
 20
0
  3
*D33
  1

  0
LINE
  5
10D
100
AcDbEntity
  8
Maß
  6
ByBlock
 62
    0
370
   -2
100
AcDbLine
 10
54.34314575050762
 20
35.65685424949239
 11
65.65685424949238
 21
24.34314575050762
  0
SOLID
  5
10E
100
AcDbEntity
  8
Maß
  6
ByBlock
 62
    0
370
   -2
100
AcDbTrace
 10
57.87867965644036
 20
32.12132034355965
 30
0
 11
55.81655499905889
 21
33.59472959211092
 31
0
 12
56.40527040788909
 22
34.18344500094112
 32
0
 13
56.40527040788909
 23
34.18344500094112
 33
0
  0
SOLID
  5
10F
100
AcDbEntity
  8
Maß
  6
ByBlock
 62
    0
370
   -2
100
AcDbTrace
 10
62.12132034355965
 20
27.87867965644036
 30
0
 11
64.18344500094112
 21
26.40527040788909
 31
0
 12
63.59472959211092
 22
25.81655499905889
 32
0
 13
63.59472959211092
 23
25.81655499905889
 33
0
  0
MTEXT
  5
110
100
AcDbEntity
  8
Maß
  6
CONTINUOUS
 62
    0
370
   -2
100
AcDbMText
 10
70
 20
26
 30
0
 40
2.5
 41
1.111111111111266
 71
    5
 72
    1
  1
6
  7
STANDARD
210
0
220
0
230
1
 50
314.9999999999999
 73
    2
 44
1
  0
ENDBLK
  5
80
330
7E
100
AcDbEntity
  8
0
100
AcDbBlockEnd
  0
BLOCK
  5
82
330
81
100
AcDbEntity
  8
0
100
AcDbBlockBegin
  2
*D3
 70
    1
 10
0
 20
0
  3
*D3
  1

  0
LINE
  5
111
100
AcDbEntity
  8
Maß
  6
ByBlock
 62
    0
370
   -2
100
AcDbLine
 10
100
 20
170
 11
140
 21
170
  0
SOLID
  5
112
100
AcDbEntity
  8
Maß
  6
ByBlock
 62
    0
370
   -2
100
AcDbTrace
 10
100
 20
170
 30
0
 11
102.5
 21
170.4162846577728
 31
0
 12
102.5
 22
169.5837153422272
 32
0
 13
102.5
 23
169.5837153422272
 33
0
  0
SOLID
  5
113
100
AcDbEntity
  8
Maß
  6
ByBlock
 62
    0
370
   -2
100
AcDbTrace
 10
140
 20
170
 30
0
 11
137.5
 21
169.5837153422272
 31
0
 12
137.5
 22
170.4162846577728
 32
0
 13
137.5
 23
170.4162846577728
 33
0
  0
MTEXT
  5
114
100
AcDbEntity
  8
Maß
  6
CONTINUOUS
 62
    0
370
   -2
100
AcDbMText
 10
120
 20
173.125
 30
0
 40
2.5
 41
3.333333333333333
 71
    5
 72
    1
  1
40
  7
STANDARD
210
0
220
0
230
1
 50
0
 73
    2
 44
1
  0
LINE
  5
115
100
AcDbEntity
  8
Maß
  6
ByBlock
 62
    0
370
   -2
100
AcDbLine
 10
100
 20
150.625
 11
100
 21
171.25
  0
LINE
  5
116
100
AcDbEntity
  8
Maß
  6
ByBlock
 62
    0
370
   -2
100
AcDbLine
 10
140
 20
150.625
 11
140
 21
171.25
  0
ENDBLK
  5
83
330
81
100
AcDbEntity
  8
0
100
AcDbBlockEnd
  0
BLOCK
  5
85
330
84
100
AcDbEntity
  8
0
100
AcDbBlockBegin
  2
*D27
 70
    1
 10
0
 20
0
  3
*D27
  1

  0
LINE
  5
117
100
AcDbEntity
  8
Maß
  6
ByBlock
 62
    0
370
   -2
100
AcDbLine
 10
260
 20
25
 11
260
 21
0
  0
SOLID
  5
118
100
AcDbEntity
  8
Maß
  6
ByBlock
 62
    0
370
   -2
100
AcDbTrace
 10
260
 20
25
 30
0
 11
260.4162846577728
 21
22.5
 31
0
 12
259.5837153422272
 22
22.5
 32
0
 13
259.5837153422272
 23
22.5
 33
0
  0
SOLID
  5
119
100
AcDbEntity
  8
Maß
  6
ByBlock
 62
    0
370
   -2
100
AcDbTrace
 10
260
 20
0
 30
0
 11
259.5837153422272
 21
2.5
 31
0
 12
260.4162846577728
 22
2.5
 32
0
 13
260.4162846577728
 23
2.5
 33
0
  0
MTEXT
  5
11A
100
AcDbEntity
  8
Maß
  6
CONTINUOUS
 62
    0
370
   -2
100
AcDbMText
 10
256.875
 20
12.5
 30
0
 40
2.5
 41
3.055555555555711
 71
    5
 72
    1
  1
25
  7
STANDARD
210
0
220
0
230
1
 50
90
 73
    2
 44
1
  0
LINE
  5
11B
100
AcDbEntity
  8
Maß
  6
ByBlock
 62
    0
370
   -2
100
AcDbLine
 10
215.625
 20
25
 11
261.25
 21
25
  0
LINE
  5
11C
100
AcDbEntity
  8
Maß
  6
ByBlock
 62
    0
370
   -2
100
AcDbLine
 10
240.625
 20
0
 11
261.25
 21
0
  0
ENDBLK
  5
86
330
84
100
AcDbEntity
  8
0
100
AcDbBlockEnd
  0
BLOCK
  5
88
330
87
100
AcDbEntity
  8
0
100
AcDbBlockBegin
  2
*D13
 70
    1
 10
0
 20
0
  3
*D13
  1

  0
LINE
  5
11D
100
AcDbEntity
  8
Maß
  6
ByBlock
 62
    0
370
   -2
100
AcDbLine
 10
140
 20
160
 11
148
 21
160
  0
SOLID
  5
11E
100
AcDbEntity
  8
Maß
  6
ByBlock
 62
    0
370
   -2
100
AcDbTrace
 10
140
 20
160
 30
0
 11
142.5
 21
160.4162846577728
 31
0
 12
142.5
 22
159.5837153422272
 32
0
 13
142.5
 23
159.5837153422272
 33
0
  0
SOLID
  5
11F
100
AcDbEntity
  8
Maß
  6
ByBlock
 62
    0
370
   -2
100
AcDbTrace
 10
148
 20
160
 30
0
 11
145.5
 21
159.5837153422272
 31
0
 12
145.5
 22
160.4162846577728
 32
0
 13
145.5
 23
160.4162846577728
 33
0
  0
MTEXT
  5
120
100
AcDbEntity
  8
Maß
  6
CONTINUOUS
 62
    0
370
   -2
100
AcDbMText
 10
144
 20
163.125
 30
0
 40
2.5
 41
1.111111111111111
 71
    5
 72
    1
  1
8
  7
STANDARD
210
0
220
0
230
1
 50
0
 73
    2
 44
1
  0
LINE
  5
121
100
AcDbEntity
  8
Maß
  6
ByBlock
 62
    0
370
   -2
100
AcDbLine
 10
140
 20
150.625
 11
140
 21
161.25
  0
LINE
  5
122
100
AcDbEntity
  8
Maß
  6
ByBlock
 62
    0
370
   -2
100
AcDbLine
 10
148
 20
118.625
 11
148
 21
161.25
  0
ENDBLK
  5
89
330
87
100
AcDbEntity
  8
0
100
AcDbBlockEnd
  0
BLOCK
  5
8B
330
8A
100
AcDbEntity
  8
0
100
AcDbBlockBegin
  2
*D6
 70
    1
 10
0
 20
0
  3
*D6
  1

  0
LINE
  5
123
100
AcDbEntity
  8
Maß
  6
ByBlock
 62
    0
370
   -2
100
AcDbLine
 10
7.105427357601002e-15
 20
160
 11
52
 21
160
  0
SOLID
  5
124
100
AcDbEntity
  8
Maß
  6
ByBlock
 62
    0
370
   -2
100
AcDbTrace
 10
7.105427357601002e-15
 20
160
 30
0
 11
2.500000000000007
 21
160.4162846577728
 31
0
 12
2.500000000000007
 22
159.5837153422272
 32
0
 13
2.500000000000007
 23
159.5837153422272
 33
0
  0
SOLID
  5
125
100
AcDbEntity
  8
Maß
  6
ByBlock
 62
    0
370
   -2
100
AcDbTrace
 10
52
 20
160
 30
0
 11
49.5
 21
159.5837153422272
 31
0
 12
49.5
 22
160.4162846577728
 32
0
 13
49.5
 23
160.4162846577728
 33
0
  0
MTEXT
  5
126
100
AcDbEntity
  8
Maß
  6
CONTINUOUS
 62
    0
370
   -2
100
AcDbMText
 10
26
 20
163.125
 30
0
 40
2.5
 41
3.055555555555711
 71
    5
 72
    1
  1
52
  7
STANDARD
210
0
220
0
230
1
 50
0
 73
    2
 44
1
  0
LINE
  5
127
100
AcDbEntity
  8
Maß
  6
ByBlock
 62
    0
370
   -2
100
AcDbLine
 10
9.084343328000359e-15
 20
150.625
 11
6.904412026391422e-15
 21
161.25
  0
LINE
  5
128
100
AcDbEntity
  8
Maß
  6
ByBlock
 62
    0
370
   -2
100
AcDbLine
 10
52
 20
102.625
 11
52
 21
161.25
  0
ENDBLK
  5
8C
330
8A
100
AcDbEntity
  8
0
100
AcDbBlockEnd
  0
BLOCK
  5
8E
330
8D
100
AcDbEntity
  8
0
100
AcDbBlockBegin
  2
*D17
 70
    1
 10
0
 20
0
  3
*D17
  1

  0
LINE
  5
129
100
AcDbEntity
  8
Maß
  6
ByBlock
 62
    0
370
   -2
100
AcDbLine
 10
188
 20
160
 11
240
 21
160
  0
SOLID
  5
12A
100
AcDbEntity
  8
Maß
  6
ByBlock
 62
    0
370
   -2
100
AcDbTrace
 10
188
 20
160
 30
0
 11
190.5
 21
160.4162846577728
 31
0
 12
190.5
 22
159.5837153422272
 32
0
 13
190.5
 23
159.5837153422272
 33
0
  0
SOLID
  5
12B
100
AcDbEntity
  8
Maß
  6
ByBlock
 62
    0
370
   -2
100
AcDbTrace
 10
240
 20
160
 30
0
 11
237.5
 21
159.5837153422272
 31
0
 12
237.5
 22
160.4162846577728
 32
0
 13
237.5
 23
160.4162846577728
 33
0
  0
MTEXT
  5
12C
100
AcDbEntity
  8
Maß
  6
CONTINUOUS
 62
    0
370
   -2
100
AcDbMText
 10
214
 20
163.125
 30
0
 40
2.5
 41
3.055555555555711
 71
    5
 72
    1
  1
52
  7
STANDARD
210
0
220
0
230
1
 50
0
 73
    2
 44
1
  0
LINE
  5
12D
100
AcDbEntity
  8
Maß
  6
ByBlock
 62
    0
370
   -2
100
AcDbLine
 10
188
 20
118.625
 11
188
 21
161.25
  0
LINE
  5
12E
100
AcDbEntity
  8
Maß
  6
ByBlock
 62
    0
370
   -2
100
AcDbLine
 10
240
 20
150.625
 11
240
 21
161.25
  0
ENDBLK
  5
8F
330
8D
100
AcDbEntity
  8
0
100
AcDbBlockEnd
  0
BLOCK
  5
91
330
90
100
AcDbEntity
  8
0
100
AcDbBlockBegin
  2
*D8
 70
    1
 10
0
 20
0
  3
*D8
  1

  0
LINE
  5
12F
100
AcDbEntity
  8
Maß
  6
ByBlock
 62
    0
370
   -2
100
AcDbLine
 10
60
 20
160
 11
68
 21
160
  0
SOLID
  5
130
100
AcDbEntity
  8
Maß
  6
ByBlock
 62
    0
370
   -2
100
AcDbTrace
 10
60
 20
160
 30
0
 11
62.5
 21
160.4162846577728
 31
0
 12
62.5
 22
159.5837153422272
 32
0
 13
62.5
 23
159.5837153422272
 33
0
  0
SOLID
  5
131
100
AcDbEntity
  8
Maß
  6
ByBlock
 62
    0
370
   -2
100
AcDbTrace
 10
68
 20
160
 30
0
 11
65.5
 21
159.5837153422272
 31
0
 12
65.5
 22
160.4162846577728
 32
0
 13
65.5
 23
160.4162846577728
 33
0
  0
MTEXT
  5
132
100
AcDbEntity
  8
Maß
  6
CONTINUOUS
 62
    0
370
   -2
100
AcDbMText
 10
64
 20
163.125
 30
0
 40
2.5
 41
1.111111111111111
 71
    5
 72
    1
  1
8
  7
STANDARD
210
0
220
0
230
1
 50
0
 73
    2
 44
1
  0
LINE
  5
133
100
AcDbEntity
  8
Maß
  6
ByBlock
 62
    0
370
   -2
100
AcDbLine
 10
60
 20
160.625
 11
60
 21
161.25
  0
LINE
  5
134
100
AcDbEntity
  8
Maß
  6
ByBlock
 62
    0
370
   -2
100
AcDbLine
 10
68
 20
118.625
 11
68
 21
161.25
  0
ENDBLK
  5
92
330
90
100
AcDbEntity
  8
0
100
AcDbBlockEnd
  0
BLOCK
  5
94
330
93
100
AcDbEntity
  8
0
100
AcDbBlockBegin
  2
*D34
 70
    1
 10
0
 20
0
  3
*D34
  1

  0
LINE
  5
135
100
AcDbEntity
  8
Maß
  6
ByBlock
 62
    0
370
   -2
100
AcDbLine
 10
64.94974746830583
 20
34.94974746830583
 11
55.05025253169417
 21
25.05025253169417
  0
SOLID
  5
136
100
AcDbEntity
  8
Maß
  6
ByBlock
 62
    0
370
   -2
100
AcDbTrace
 10
64.94974746830583
 20
34.94974746830583
 30
0
 11
63.47633821975456
 21
32.88762281092436
 31
0
 12
62.88762281092436
 22
33.47633821975456
 32
0
 13
62.88762281092436
 23
33.47633821975456
 33
0
  0
SOLID
  5
137
100
AcDbEntity
  8
Maß
  6
ByBlock
 62
    0
370
   -2
100
AcDbTrace
 10
55.05025253169417
 20
25.05025253169417
 30
0
 11
56.52366178024544
 21
27.11237718907564
 31
0
 12
57.11237718907564
 22
26.52366178024544
 32
0
 13
57.11237718907564
 23
26.52366178024544
 33
0
  0
MTEXT
  5
138
100
AcDbEntity
  8
Maß
  6
CONTINUOUS
 62
    0
370
   -2
100
AcDbMText
 10
52
 20
25
 30
0
 40
2.5
 41
2.777777777777778
 71
    5
 72
    1
  1
14
  7
STANDARD
210
0
220
0
230
1
 50
45
 73
    2
 44
1
  0
ENDBLK
  5
95
330
93
100
AcDbEntity
  8
0
100
AcDbBlockEnd
  0
BLOCK
  5
97
330
96
100
AcDbEntity
  8
0
100
AcDbBlockBegin
  2
*D23
 70
    1
 10
0
 20
0
  3
*D23
  1

  0
LINE
  5
139
100
AcDbEntity
  8
Maß
  6
ByBlock
 62
    0
370
   -2
100
AcDbLine
 10
-10
 20
110
 11
-10
 21
102
  0
SOLID
  5
13A
100
AcDbEntity
  8
Maß
  6
ByBlock
 62
    0
370
   -2
100
AcDbTrace
 10
-10
 20
110
 30
0
 11
-9.58371534222716
 21
107.5
 31
0
 12
-10.41628465777284
 22
107.5
 32
0
 13
-10.41628465777284
 23
107.5
 33
0
  0
SOLID
  5
13B
100
AcDbEntity
  8
Maß
  6
ByBlock
 62
    0
370
   -2
100
AcDbTrace
 10
-10
 20
102
 30
0
 11
-10.41628465777284
 21
104.5
 31
0
 12
-9.583715342227158
 22
104.5
 32
0
 13
-9.583715342227158
 23
104.5
 33
0
  0
MTEXT
  5
13C
100
AcDbEntity
  8
Maß
  6
CONTINUOUS
 62
    0
370
   -2
100
AcDbMText
 10
-13.125
 20
106
 30
0
 40
2.5
 41
1.111111111111111
 71
    5
 72
    1
  1
8
  7
STANDARD
210
0
220
0
230
1
 50
90
 73
    2
 44
1
  0
LINE
  5
13D
100
AcDbEntity
  8
Maß
  6
ByBlock
 62
    0
370
   -2
100
AcDbLine
 10
-0.625
 20
110
 11
-11.25
 21
110
  0
LINE
  5
13E
100
AcDbEntity
  8
Maß
  6
ByBlock
 62
    0
370
   -2
100
AcDbLine
 10
51.375
 20
102
 11
-11.25
 21
102
  0
ENDBLK
  5
98
330
96
100
AcDbEntity
  8
0
100
AcDbBlockEnd
  0
BLOCK
  5
9A
330
99
100
AcDbEntity
  8
0
100
AcDbBlockBegin
  2
*D29
 70
    1
 10
0
 20
0
  3
*D29
  1

  0
LINE
  5
13F
100
AcDbEntity
  8
Maß
  6
ByBlock
 62
    0
370
   -2
100
AcDbLine
 10
215
 20
-20
 11
25
 21
-20
  0
SOLID
  5
140
100
AcDbEntity
  8
Maß
  6
ByBlock
 62
    0
370
   -2
100
AcDbTrace
 10
215
 20
-20
 30
0
 11
212.5
 21
-20.41628465777284
 31
0
 12
212.5
 22
-19.58371534222716
 32
0
 13
212.5
 23
-19.58371534222716
 33
0
  0
SOLID
  5
141
100
AcDbEntity
  8
Maß
  6
ByBlock
 62
    0
370
   -2
100
AcDbTrace
 10
25
 20
-20
 30
0
 11
27.5
 21
-19.58371534222716
 31
0
 12
27.5
 22
-20.41628465777284
 32
0
 13
27.5
 23
-20.41628465777284
 33
0
  0
MTEXT
  5
142
100
AcDbEntity
  8
Maß
  6
CONTINUOUS
 62
    0
370
   -2
100
AcDbMText
 10
120
 20
-16.875
 30
0
 40
2.5
 41
4.444444444444445
 71
    5
 72
    1
  1
190
  7
STANDARD
210
0
220
0
230
1
 50
360
 73
    2
 44
1
  0
LINE
  5
143
100
AcDbEntity
  8
Maß
  6
ByBlock
 62
    0
370
   -2
100
AcDbLine
 10
215
 20
24.375
 11
215
 21
-21.25
  0
LINE
  5
144
100
AcDbEntity
  8
Maß
  6
ByBlock
 62
    0
370
   -2
100
AcDbLine
 10
25
 20
24.375
 11
25
 21
-21.25
  0
ENDBLK
  5
9B
330
99
100
AcDbEntity
  8
0
100
AcDbBlockEnd
  0
BLOCK
  5
9D
330
9C
100
AcDbEntity
  8
0
100
AcDbBlockBegin
  2
*D16
 70
    1
 10
0
 20
0
  3
*D16
  1

  0
LINE
  5
145
100
AcDbEntity
  8
Maß
  6
ByBlock
 62
    0
370
   -2
100
AcDbLine
 10
180
 20
160
 11
188
 21
160
  0
SOLID
  5
146
100
AcDbEntity
  8
Maß
  6
ByBlock
 62
    0
370
   -2
100
AcDbTrace
 10
180
 20
160
 30
0
 11
182.5
 21
160.4162846577728
 31
0
 12
182.5
 22
159.5837153422272
 32
0
 13
182.5
 23
159.5837153422272
 33
0
  0
SOLID
  5
147
100
AcDbEntity
  8
Maß
  6
ByBlock
 62
    0
370
   -2
100
AcDbTrace
 10
188
 20
160
 30
0
 11
185.5
 21
159.5837153422272
 31
0
 12
185.5
 22
160.4162846577728
 32
0
 13
185.5
 23
160.4162846577728
 33
0
  0
MTEXT
  5
148
100
AcDbEntity
  8
Maß
  6
CONTINUOUS
 62
    0
370
   -2
100
AcDbMText
 10
184
 20
163.125
 30
0
 40
2.5
 41
1.111111111111111
 71
    5
 72
    1
  1
8
  7
STANDARD
210
0
220
0
230
1
 50
0
 73
    2
 44
1
  0
LINE
  5
149
100
AcDbEntity
  8
Maß
  6
ByBlock
 62
    0
370
   -2
100
AcDbLine
 10
180
 20
150.625
 11
180
 21
161.25
  0
LINE
  5
14A
100
AcDbEntity
  8
Maß
  6
ByBlock
 62
    0
370
   -2
100
AcDbLine
 10
188
 20
118.625
 11
188
 21
161.25
  0
ENDBLK
  5
9E
330
9C
100
AcDbEntity
  8
0
100
AcDbBlockEnd
  0
BLOCK
  5
A0
330
9F
100
AcDbEntity
  8
0
100
AcDbBlockBegin
  2
*D30
 70
    1
 10
0
 20
0
  3
*D30
  1

  0
LINE
  5
14B
100
AcDbEntity
  8
Maß
  6
ByBlock
 62
    0
370
   -2
100
AcDbLine
 10
25
 20
-20
 11
0
 21
-20
  0
SOLID
  5
14C
100
AcDbEntity
  8
Maß
  6
ByBlock
 62
    0
370
   -2
100
AcDbTrace
 10
25
 20
-20
 30
0
 11
22.5
 21
-20.41628465777284
 31
0
 12
22.5
 22
-19.58371534222716
 32
0
 13
22.5
 23
-19.58371534222716
 33
0
  0
SOLID
  5
14D
100
AcDbEntity
  8
Maß
  6
ByBlock
 62
    0
370
   -2
100
AcDbTrace
 10
0
 20
-20
 30
0
 11
2.5
 21
-19.58371534222716
 31
0
 12
2.5
 22
-20.41628465777284
 32
0
 13
2.5
 23
-20.41628465777284
 33
0
  0
MTEXT
  5
14E
100
AcDbEntity
  8
Maß
  6
CONTINUOUS
 62
    0
370
   -2
100
AcDbMText
 10
12.5
 20
-16.875
 30
0
 40
2.5
 41
3.055555555555711
 71
    5
 72
    1
  1
25
  7
STANDARD
210
0
220
0
230
1
 50
360
 73
    2
 44
1
  0
LINE
  5
14F
100
AcDbEntity
  8
Maß
  6
ByBlock
 62
    0
370
   -2
100
AcDbLine
 10
25
 20
24.375
 11
25
 21
-21.25
  0
LINE
  5
150
100
AcDbEntity
  8
Maß
  6
ByBlock
 62
    0
370
   -2
100
AcDbLine
 10
-1.148106374200643e-16
 20
-0.625
 11
-2.296212748401287e-16
 21
-21.25
  0
ENDBLK
  5
A1
330
9F
100
AcDbEntity
  8
0
100
AcDbBlockEnd
  0
BLOCK
  5
A3
330
A2
100
AcDbEntity
  8
0
100
AcDbBlockBegin
  2
*D5
 70
    1
 10
0
 20
0
  3
*D5
  1

  0
LINE
  5
151
100
AcDbEntity
  8
Maß
  6
ByBlock
 62
    0
370
   -2
100
AcDbLine
 10
180
 20
170
 11
240
 21
170
  0
SOLID
  5
152
100
AcDbEntity
  8
Maß
  6
ByBlock
 62
    0
370
   -2
100
AcDbTrace
 10
180
 20
170
 30
0
 11
182.5
 21
170.4162846577728
 31
0
 12
182.5
 22
169.5837153422272
 32
0
 13
182.5
 23
169.5837153422272
 33
0
  0
SOLID
  5
153
100
AcDbEntity
  8
Maß
  6
ByBlock
 62
    0
370
   -2
100
AcDbTrace
 10
240
 20
170
 30
0
 11
237.5
 21
169.5837153422272
 31
0
 12
237.5
 22
170.4162846577728
 32
0
 13
237.5
 23
170.4162846577728
 33
0
  0
MTEXT
  5
154
100
AcDbEntity
  8
Maß
  6
CONTINUOUS
 62
    0
370
   -2
100
AcDbMText
 10
210
 20
173.125
 30
0
 40
2.5
 41
3.055555555555711
 71
    5
 72
    1
  1
60
  7
STANDARD
210
0
220
0
230
1
 50
0
 73
    2
 44
1
  0
LINE
  5
155
100
AcDbEntity
  8
Maß
  6
ByBlock
 62
    0
370
   -2
100
AcDbLine
 10
180
 20
150.625
 11
180
 21
171.25
  0
LINE
  5
156
100
AcDbEntity
  8
Maß
  6
ByBlock
 62
    0
370
   -2
100
AcDbLine
 10
240
 20
150.625
 11
240
 21
171.25
  0
ENDBLK
  5
A4
330
A2
100
AcDbEntity
  8
0
100
AcDbBlockEnd
  0
BLOCK
  5
A6
330
A5
100
AcDbEntity
  8
0
100
AcDbBlockBegin
  2
*D7
 70
    1
 10
0
 20
0
  3
*D7
  1

  0
LINE
  5
157
100
AcDbEntity
  8
Maß
  6
ByBlock
 62
    0
370
   -2
100
AcDbLine
 10
52
 20
160
 11
60
 21
160
  0
SOLID
  5
158
100
AcDbEntity
  8
Maß
  6
ByBlock
 62
    0
370
   -2
100
AcDbTrace
 10
52
 20
160
 30
0
 11
54.5
 21
160.4162846577728
 31
0
 12
54.5
 22
159.5837153422272
 32
0
 13
54.5
 23
159.5837153422272
 33
0
  0
SOLID
  5
159
100
AcDbEntity
  8
Maß
  6
ByBlock
 62
    0
370
   -2
100
AcDbTrace
 10
60
 20
160
 30
0
 11
57.5
 21
159.5837153422272
 31
0
 12
57.5
 22
160.4162846577728
 32
0
 13
57.5
 23
160.4162846577728
 33
0
  0
MTEXT
  5
15A
100
AcDbEntity
  8
Maß
  6
CONTINUOUS
 62
    0
370
   -2
100
AcDbMText
 10
56
 20
163.125
 30
0
 40
2.5
 41
1.111111111111111
 71
    5
 72
    1
  1
8
  7
STANDARD
210
0
220
0
230
1
 50
0
 73
    2
 44
1
  0
LINE
  5
15B
100
AcDbEntity
  8
Maß
  6
ByBlock
 62
    0
370
   -2
100
AcDbLine
 10
52
 20
102.625
 11
52
 21
161.25
  0
LINE
  5
15C
100
AcDbEntity
  8
Maß
  6
ByBlock
 62
    0
370
   -2
100
AcDbLine
 10
60
 20
150.625
 11
60
 21
161.25
  0
ENDBLK
  5
A7
330
A5
100
AcDbEntity
  8
0
100
AcDbBlockEnd
  0
BLOCK
  5
A9
330
A8
100
AcDbEntity
  8
0
100
AcDbBlockBegin
  2
*D14
 70
    1
 10
0
 20
0
  3
*D14
  1

  0
LINE
  5
15D
100
AcDbEntity
  8
Maß
  6
ByBlock
 62
    0
370
   -2
100
AcDbLine
 10
148
 20
160
 11
172
 21
160
  0
SOLID
  5
15E
100
AcDbEntity
  8
Maß
  6
ByBlock
 62
    0
370
   -2
100
AcDbTrace
 10
148
 20
160
 30
0
 11
150.5
 21
160.4162846577728
 31
0
 12
150.5
 22
159.5837153422272
 32
0
 13
150.5
 23
159.5837153422272
 33
0
  0
SOLID
  5
15F
100
AcDbEntity
  8
Maß
  6
ByBlock
 62
    0
370
   -2
100
AcDbTrace
 10
172
 20
160
 30
0
 11
169.5
 21
159.5837153422272
 31
0
 12
169.5
 22
160.4162846577728
 32
0
 13
169.5
 23
160.4162846577728
 33
0
  0
MTEXT
  5
160
100
AcDbEntity
  8
Maß
  6
CONTINUOUS
 62
    0
370
   -2
100
AcDbMText
 10
160
 20
163.125
 30
0
 40
2.5
 41
3.333333333333333
 71
    5
 72
    1
  1
24
  7
STANDARD
210
0
220
0
230
1
 50
0
 73
    2
 44
1
  0
LINE
  5
161
100
AcDbEntity
  8
Maß
  6
ByBlock
 62
    0
370
   -2
100
AcDbLine
 10
148
 20
118.625
 11
148
 21
161.25
  0
LINE
  5
162
100
AcDbEntity
  8
Maß
  6
ByBlock
 62
    0
370
   -2
100
AcDbLine
 10
172
 20
102.625
 11
172
 21
161.25
  0
ENDBLK
  5
AA
330
A8
100
AcDbEntity
  8
0
100
AcDbBlockEnd
  0
BLOCK
  5
AC
330
AB
100
AcDbEntity
  8
0
100
AcDbBlockBegin
  2
*D22
 70
    1
 10
0
 20
0
  3
*D22
  1

  0
LINE
  5
163
100
AcDbEntity
  8
Maß
  6
ByBlock
 62
    0
370
   -2
100
AcDbLine
 10
-10
 20
118
 11
-10
 21
110
  0
SOLID
  5
164
100
AcDbEntity
  8
Maß
  6
ByBlock
 62
    0
370
   -2
100
AcDbTrace
 10
-10
 20
118
 30
0
 11
-9.58371534222716
 21
115.5
 31
0
 12
-10.41628465777284
 22
115.5
 32
0
 13
-10.41628465777284
 23
115.5
 33
0
  0
SOLID
  5
165
100
AcDbEntity
  8
Maß
  6
ByBlock
 62
    0
370
   -2
100
AcDbTrace
 10
-10
 20
110
 30
0
 11
-10.41628465777284
 21
112.5
 31
0
 12
-9.583715342227158
 22
112.5
 32
0
 13
-9.583715342227158
 23
112.5
 33
0
  0
MTEXT
  5
166
100
AcDbEntity
  8
Maß
  6
CONTINUOUS
 62
    0
370
   -2
100
AcDbMText
 10
-13.125
 20
114
 30
0
 40
2.5
 41
1.111111111111111
 71
    5
 72
    1
  1
8
  7
STANDARD
210
0
220
0
230
1
 50
90
 73
    2
 44
1
  0
LINE
  5
167
100
AcDbEntity
  8
Maß
  6
ByBlock
 62
    0
370
   -2
100
AcDbLine
 10
67.375
 20
118
 11
-11.25
 21
118
  0
LINE
  5
168
100
AcDbEntity
  8
Maß
  6
ByBlock
 62
    0
370
   -2
100
AcDbLine
 10
-0.625
 20
110
 11
-11.25
 21
110
  0
ENDBLK
  5
AD
330
AB
100
AcDbEntity
  8
0
100
AcDbBlockEnd
  0
BLOCK
  5
AF
330
AE
100
AcDbEntity
  8
0
100
AcDbBlockBegin
  2
*D19
 70
    1
 10
0
 20
0
  3
*D19
  1

  0
LINE
  5
169
100
AcDbEntity
  8
Maß
  6
ByBlock
 62
    0
370
   -2
100
AcDbLine
 10
-19.99999999999999
 20
110
 11
-20
 21
30
  0
SOLID
  5
16A
100
AcDbEntity
  8
Maß
  6
ByBlock
 62
    0
370
   -2
100
AcDbTrace
 10
-19.99999999999999
 20
110
 30
0
 11
-19.58371534222715
 21
107.5
 31
0
 12
-20.41628465777283
 22
107.5
 32
0
 13
-20.41628465777283
 23
107.5
 33
0
  0
SOLID
  5
16B
100
AcDbEntity
  8
Maß
  6
ByBlock
 62
    0
370
   -2
100
AcDbTrace
 10
-20
 20
30
 30
0
 11
-20.41628465777284
 21
32.5
 31
0
 12
-19.58371534222716
 22
32.5
 32
0
 13
-19.58371534222716
 23
32.5
 33
0
  0
MTEXT
  5
16C
100
AcDbEntity
  8
Maß
  6
CONTINUOUS
 62
    0
370
   -2
100
AcDbMText
 10
-23.125
 20
70
 30
0
 40
2.5
 41
3.055555555555556
 71
    5
 72
    1
  1
80
  7
STANDARD
210
0
220
0
230
1
 50
90
 73
    2
 44
1
  0
LINE
  5
16D
100
AcDbEntity
  8
Maß
  6
ByBlock
 62
    0
370
   -2
100
AcDbLine
 10
-0.625
 20
110
 11
-21.24999999999999
 21
110
  0
LINE
  5
16E
100
AcDbEntity
  8
Maß
  6
ByBlock
 62
    0
370
   -2
100
AcDbLine
 10
-0.625
 20
30
 11
-21.25
 21
30
  0
ENDBLK
  5
B0
330
AE
100
AcDbEntity
  8
0
100
AcDbBlockEnd
  0
BLOCK
  5
B2
330
B1
100
AcDbEntity
  8
0
100
AcDbBlockBegin
  2
*D20
 70
    1
 10
0
 20
0
  3
*D20
  1

  0
LINE
  5
16F
100
AcDbEntity
  8
Maß
  6
ByBlock
 62
    0
370
   -2
100
AcDbLine
 10
-20
 20
30
 11
-20
 21
1.4210854715202e-15
  0
SOLID
  5
170
100
AcDbEntity
  8
Maß
  6
ByBlock
 62
    0
370
   -2
100
AcDbTrace
 10
-20
 20
30
 30
0
 11
-19.58371534222715
 21
27.5
 31
0
 12
-20.41628465777284
 22
27.5
 32
0
 13
-20.41628465777284
 23
27.5
 33
0
  0
SOLID
  5
171
100
AcDbEntity
  8
Maß
  6
ByBlock
 62
    0
370
   -2
100
AcDbTrace
 10
-20
 20
1.4210854715202e-15
 30
0
 11
-20.41628465777284
 21
2.500000000000001
 31
0
 12
-19.58371534222716
 22
2.500000000000001
 32
0
 13
-19.58371534222716
 23
2.500000000000001
 33
0
  0
MTEXT
  5
172
100
AcDbEntity
  8
Maß
  6
CONTINUOUS
 62
    0
370
   -2
100
AcDbMText
 10
-23.125
 20
15
 30
0
 40
2.5
 41
3.055555555555711
 71
    5
 72
    1
  1
30
  7
STANDARD
210
0
220
0
230
1
 50
90
 73
    2
 44
1
  0
LINE
  5
173
100
AcDbEntity
  8
Maß
  6
ByBlock
 62
    0
370
   -2
100
AcDbLine
 10
-0.625
 20
30
 11
-21.25
 21
30
  0
LINE
  5
174
100
AcDbEntity
  8
Maß
  6
ByBlock
 62
    0
370
   -2
100
AcDbLine
 10
-0.625
 20
7.654042494670958e-17
 11
-21.25
 21
1.574166321413619e-15
  0
ENDBLK
  5
B3
330
B1
100
AcDbEntity
  8
0
100
AcDbBlockEnd
  0
BLOCK
  5
B5
330
B4
100
AcDbEntity
  8
0
100
AcDbBlockBegin
  2
*D18
 70
    1
 10
0
 20
0
  3
*D18
  1

  0
LINE
  5
175
100
AcDbEntity
  8
Maß
  6
ByBlock
 62
    0
370
   -2
100
AcDbLine
 10
-20
 20
150
 11
-20
 21
110
  0
SOLID
  5
176
100
AcDbEntity
  8
Maß
  6
ByBlock
 62
    0
370
   -2
100
AcDbTrace
 10
-20
 20
150
 30
0
 11
-19.58371534222715
 21
147.5
 31
0
 12
-20.41628465777284
 22
147.5
 32
0
 13
-20.41628465777284
 23
147.5
 33
0
  0
SOLID
  5
177
100
AcDbEntity
  8
Maß
  6
ByBlock
 62
    0
370
   -2
100
AcDbTrace
 10
-20
 20
110
 30
0
 11
-20.41628465777284
 21
112.5
 31
0
 12
-19.58371534222716
 22
112.5
 32
0
 13
-19.58371534222716
 23
112.5
 33
0
  0
MTEXT
  5
178
100
AcDbEntity
  8
Maß
  6
CONTINUOUS
 62
    0
370
   -2
100
AcDbMText
 10
-23.125
 20
130
 30
0
 40
2.5
 41
3.333333333333333
 71
    5
 72
    1
  1
40
  7
STANDARD
210
0
220
0
230
1
 50
90
 73
    2
 44
1
  0
LINE
  5
179
100
AcDbEntity
  8
Maß
  6
ByBlock
 62
    0
370
   -2
100
AcDbLine
 10
-0.625
 20
150
 11
-21.25
 21
150
  0
LINE
  5
17A
100
AcDbEntity
  8
Maß
  6
ByBlock
 62
    0
370
   -2
100
AcDbLine
 10
-0.625
 20
110
 11
-21.25
 21
110
  0
ENDBLK
  5
B6
330
B4
100
AcDbEntity
  8
0
100
AcDbBlockEnd
  0
ENDSEC
  0
SECTION
  2
ENTITIES
  0
LINE
  5
17B
100
AcDbEntity
  8
0
  6
ByLayer
 62
  256
370
   -1
100
AcDbLine
 10
0
 20
0
 11
240
 21
0
  0
LINE
  5
17C
100
AcDbEntity
  8
0
  6
ByLayer
 62
  256
370
   -1
100
AcDbLine
 10
0
 20
0
 11
9.184850993605149e-15
 21
150
  0
LINE
  5
17D
100
AcDbEntity
  8
0
  6
ByLayer
 62
  256
370
   -1
100
AcDbLine
 10
240
 20
0
 11
240
 21
150
  0
LINE
  5
17E
100
AcDbEntity
  8
0
  6
ByLayer
 62
  256
370
   -1
100
AcDbLine
 10
0
 20
150
 11
240
 21
150
  0
LWPOLYLINE
  5
17F
100
AcDbEntity
  8
Kanten
  6
ByLayer
 62
  256
370
   -1
100
AcDbPolyline
 90
    4
 70
    1
 43
0
 10
0
 20
0
 10
240
 20
0
 10
240
 20
150
 10
0
 20
150
  0
LINE
  5
180
100
AcDbEntity
  8
0
  6
ByLayer
 62
  256
370
   -1
100
AcDbLine
 10
60
 20
150
 11
60
 21
0
  0
LINE
  5
181
100
AcDbEntity
  8
0
  6
ByLayer
 62
  256
370
   -1
100
AcDbLine
 10
100
 20
150
 11
100
 21
0
  0
LINE
  5
182
100
AcDbEntity
  8
0
  6
ByLayer
 62
  256
370
   -1
100
AcDbLine
 10
140
 20
150
 11
140
 21
0
  0
LINE
  5
183
100
AcDbEntity
  8
0
  6
ByLayer
 62
  256
370
   -1
100
AcDbLine
 10
180
 20
150
 11
180
 21
0
  0
LINE
  5
184
100
AcDbEntity
  8
0
  6
ByLayer
 62
  256
370
   -1
100
AcDbLine
 10
0
 20
110
 11
240
 21
110
  0
LINE
  5
185
100
AcDbEntity
  8
0
  6
ByLayer
 62
  256
370
   -1
100
AcDbLine
 10
0
 20
30
 11
240
 21
30
  0
LINE
  5
186
100
AcDbEntity
  8
0
  6
ByLayer
 62
  256
370
   -1
100
AcDbLine
 10
60
 20
110
 11
68
 21
110
  0
LINE
  5
187
100
AcDbEntity
  8
0
  6
ByLayer
 62
  256
370
   -1
100
AcDbLine
 10
100
 20
110
 11
108
 21
110
  0
LINE
  5
188
100
AcDbEntity
  8
0
  6
ByLayer
 62
  256
370
   -1
100
AcDbLine
 10
140
 20
110
 11
148
 21
110
  0
LINE
  5
189
100
AcDbEntity
  8
0
  6
ByLayer
 62
  256
370
   -1
100
AcDbLine
 10
180
 20
110
 11
188
 21
110
  0
LINE
  5
18A
100
AcDbEntity
  8
0
  6
ByLayer
 62
  256
370
   -1
100
AcDbLine
 10
68
 20
110
 11
68
 21
118
  0
LINE
  5
18B
100
AcDbEntity
  8
0
  6
ByLayer
 62
  256
370
   -1
100
AcDbLine
 10
60
 20
110
 11
52
 21
110
  0
LINE
  5
18C
100
AcDbEntity
  8
0
  6
ByLayer
 62
  256
370
   -1
100
AcDbLine
 10
100
 20
110
 11
92
 21
110
  0
LINE
  5
18D
100
AcDbEntity
  8
0
  6
ByLayer
 62
  256
370
   -1
100
AcDbLine
 10
140
 20
110
 11
132
 21
110
  0
LINE
  5
18E
100
AcDbEntity
  8
0
  6
ByLayer
 62
  256
370
   -1
100
AcDbLine
 10
180
 20
110
 11
172
 21
110
  0
LINE
  5
18F
100
AcDbEntity
  8
0
  6
ByLayer
 62
  256
370
   -1
100
AcDbLine
 10
52
 20
110
 11
52
 21
102
  0
LINE
  5
190
100
AcDbEntity
  8
0
  6
ByLayer
 62
  256
370
   -1
100
AcDbLine
 10
92
 20
110
 11
92
 21
102
  0
LINE
  5
191
100
AcDbEntity
  8
0
  6
ByLayer
 62
  256
370
   -1
100
AcDbLine
 10
132
 20
110
 11
132
 21
102
  0
LINE
  5
192
100
AcDbEntity
  8
0
  6
ByLayer
 62
  256
370
   -1
100
AcDbLine
 10
172
 20
110
 11
172
 21
102
  0
LINE
  5
193
100
AcDbEntity
  8
0
  6
ByLayer
 62
  256
370
   -1
100
AcDbLine
 10
108
 20
110
 11
108
 21
118
  0
LINE
  5
194
100
AcDbEntity
  8
0
  6
ByLayer
 62
  256
370
   -1
100
AcDbLine
 10
148
 20
110
 11
148
 21
118
  0
LINE
  5
195
100
AcDbEntity
  8
0
  6
ByLayer
 62
  256
370
   -1
100
AcDbLine
 10
188
 20
110
 11
188
 21
118
  0
CIRCLE
  5
196
100
AcDbEntity
  8
Kanten
  6
ByLayer
 62
  256
370
   -1
100
AcDbCircle
 10
52
 20
102
 40
2
  0
CIRCLE
  5
197
100
AcDbEntity
  8
Kanten
  6
ByLayer
 62
  256
370
   -1
100
AcDbCircle
 10
68
 20
118
 40
2
  0
CIRCLE
  5
198
100
AcDbEntity
  8
Kanten
  6
ByLayer
 62
  256
370
   -1
100
AcDbCircle
 10
92
 20
102
 40
2
  0
CIRCLE
  5
199
100
AcDbEntity
  8
Kanten
  6
ByLayer
 62
  256
370
   -1
100
AcDbCircle
 10
108
 20
118
 40
2
  0
CIRCLE
  5
19A
100
AcDbEntity
  8
Kanten
  6
ByLayer
 62
  256
370
   -1
100
AcDbCircle
 10
132
 20
102
 40
2
  0
CIRCLE
  5
19B
100
AcDbEntity
  8
Kanten
  6
ByLayer
 62
  256
370
   -1
100
AcDbCircle
 10
148
 20
118
 40
2
  0
CIRCLE
  5
19C
100
AcDbEntity
  8
Kanten
  6
ByLayer
 62
  256
370
   -1
100
AcDbCircle
 10
172
 20
102
 40
2
  0
CIRCLE
  5
19D
100
AcDbEntity
  8
Kanten
  6
ByLayer
 62
  256
370
   -1
100
AcDbCircle
 10
188
 20
118
 40
2
  0
CIRCLE
  5
19E
100
AcDbEntity
  8
Kanten
  6
ByLayer
 62
  256
370
   -1
100
AcDbCircle
 10
60
 20
30
 40
3
  0
CIRCLE
  5
19F
100
AcDbEntity
  8
Kanten
  6
ByLayer
 62
  256
370
   -1
100
AcDbCircle
 10
100
 20
30
 40
3
  0
CIRCLE
  5
1A0
100
AcDbEntity
  8
Kanten
  6
ByLayer
 62
  256
370
   -1
100
AcDbCircle
 10
140
 20
30
 40
3
  0
CIRCLE
  5
1A1
100
AcDbEntity
  8
Kanten
  6
ByLayer
 62
  256
370
   -1
100
AcDbCircle
 10
180
 20
30
 40
3
  0
CIRCLE
  5
1A2
100
AcDbEntity
  8
Versteckt
  6
ByLayer
 62
  256
370
   -1
100
AcDbCircle
 10
60
 20
30
 40
7
  0
CIRCLE
  5
1A3
100
AcDbEntity
  8
Versteckt
  6
ByLayer
 62
  256
370
   -1
100
AcDbCircle
 10
100
 20
30
 40
7
  0
CIRCLE
  5
1A4
100
AcDbEntity
  8
Versteckt
  6
ByLayer
 62
  256
370
   -1
100
AcDbCircle
 10
140
 20
30
 40
7
  0
CIRCLE
  5
1A5
100
AcDbEntity
  8
Versteckt
  6
ByLayer
 62
  256
370
   -1
100
AcDbCircle
 10
180
 20
30
 40
7
  0
DIMENSION
  5
1A6
100
AcDbEntity
  8
Maß
  6
ByLayer
 62
  256
370
   -1
100
AcDbDimension
  2
*D1
 10
60
 20
170
 30
0
 11
30.00000000000001
 21
173.125
 31
0
 70
   32
 71
    5
 72
    0
  3
Standard
 53
0
210
0
220
0
230
1
100
AcDbAlignedDimension
 13
9.184850993605149e-15
 23
150
 33
0
 14
60
 24
150
 34
0
100
AcDbRotatedDimension
  0
DIMENSION
  5
1A7
100
AcDbEntity
  8
Maß
  6
ByLayer
 62
  256
370
   -1
100
AcDbDimension
  2
*D2
 10
100
 20
170
 30
0
 11
80
 21
173.125
 31
0
 70
   32
 71
    5
 72
    0
  3
Standard
 53
0
210
0
220
0
230
1
100
AcDbAlignedDimension
 13
60
 23
150
 33
0
 14
100
 24
150
 34
0
100
AcDbRotatedDimension
  0
DIMENSION
  5
1A8
100
AcDbEntity
  8
Maß
  6
ByLayer
 62
  256
370
   -1
100
AcDbDimension
  2
*D3
 10
140
 20
170
 30
0
 11
120
 21
173.125
 31
0
 70
   32
 71
    5
 72
    0
  3
Standard
 53
0
210
0
220
0
230
1
100
AcDbAlignedDimension
 13
100
 23
150
 33
0
 14
140
 24
150
 34
0
100
AcDbRotatedDimension
  0
DIMENSION
  5
1A9
100
AcDbEntity
  8
Maß
  6
ByLayer
 62
  256
370
   -1
100
AcDbDimension
  2
*D4
 10
180
 20
170
 30
0
 11
160
 21
173.125
 31
0
 70
   32
 71
    5
 72
    0
  3
Standard
 53
0
210
0
220
0
230
1
100
AcDbAlignedDimension
 13
140
 23
150
 33
0
 14
180
 24
150
 34
0
100
AcDbRotatedDimension
  0
DIMENSION
  5
1AA
100
AcDbEntity
  8
Maß
  6
ByLayer
 62
  256
370
   -1
100
AcDbDimension
  2
*D5
 10
240
 20
170
 30
0
 11
210
 21
173.125
 31
0
 70
   32
 71
    5
 72
    0
  3
Standard
 53
0
210
0
220
0
230
1
100
AcDbAlignedDimension
 13
180
 23
150
 33
0
 14
240
 24
150
 34
0
100
AcDbRotatedDimension
  0
DIMENSION
  5
1AB
100
AcDbEntity
  8
Maß
  6
ByLayer
 62
  256
370
   -1
100
AcDbDimension
  2
*D6
 10
52.00000000000001
 20
160
 30
0
 11
26
 21
163.125
 31
0
 70
   32
 71
    5
 72
    0
  3
Standard
 53
0
210
0
220
0
230
1
100
AcDbAlignedDimension
 13
9.184850993605149e-15
 23
150
 33
0
 14
52
 24
102
 34
0
100
AcDbRotatedDimension
  0
DIMENSION
  5
1AC
100
AcDbEntity
  8
Maß
  6
ByLayer
 62
  256
370
   -1
100
AcDbDimension
  2
*D7
 10
60
 20
160
 30
0
 11
56
 21
163.125
 31
0
 70
   32
 71
    5
 72
    0
  3
Standard
 53
0
210
0
220
0
230
1
100
AcDbAlignedDimension
 13
52
 23
102
 33
0
 14
60
 24
150
 34
0
100
AcDbRotatedDimension
  0
DIMENSION
  5
1AD
100
AcDbEntity
  8
Maß
  6
ByLayer
 62
  256
370
   -1
100
AcDbDimension
  2
*D8
 10
68
 20
160
 30
0
 11
64
 21
163.125
 31
0
 70
   32
 71
    5
 72
    0
  3
Standard
 53
0
210
0
220
0
230
1
100
AcDbAlignedDimension
 13
60
 23
160
 33
0
 14
68
 24
118
 34
0
100
AcDbRotatedDimension
  0
DIMENSION
  5
1AE
100
AcDbEntity
  8
Maß
  6
ByLayer
 62
  256
370
   -1
100
AcDbDimension
  2
*D9
 10
92
 20
160
 30
0
 11
80
 21
163.125
 31
0
 70
   32
 71
    5
 72
    0
  3
Standard
 53
0
210
0
220
0
230
1
100
AcDbAlignedDimension
 13
68
 23
118
 33
0
 14
92
 24
102
 34
0
100
AcDbRotatedDimension
  0
DIMENSION
  5
1AF
100
AcDbEntity
  8
Maß
  6
ByLayer
 62
  256
370
   -1
100
AcDbDimension
  2
*D10
 10
100
 20
160
 30
0
 11
96
 21
163.125
 31
0
 70
   32
 71
    5
 72
    0
  3
Standard
 53
0
210
0
220
0
230
1
100
AcDbAlignedDimension
 13
92
 23
102
 33
0
 14
100
 24
150
 34
0
100
AcDbRotatedDimension
  0
DIMENSION
  5
1B0
100
AcDbEntity
  8
Maß
  6
ByLayer
 62
  256
370
   -1
100
AcDbDimension
  2
*D11
 10
132
 20
160
 30
0
 11
120
 21
163.125
 31
0
 70
   32
 71
    5
 72
    0
  3
Standard
 53
0
210
0
220
0
230
1
100
AcDbAlignedDimension
 13
108
 23
118
 33
0
 14
132
 24
102
 34
0
100
AcDbRotatedDimension
  0
DIMENSION
  5
1B1
100
AcDbEntity
  8
Maß
  6
ByLayer
 62
  256
370
   -1
100
AcDbDimension
  2
*D12
 10
140
 20
160
 30
0
 11
136
 21
163.125
 31
0
 70
   32
 71
    5
 72
    0
  3
Standard
 53
0
210
0
220
0
230
1
100
AcDbAlignedDimension
 13
132
 23
102
 33
0
 14
140
 24
150
 34
0
100
AcDbRotatedDimension
  0
DIMENSION
  5
1B2
100
AcDbEntity
  8
Maß
  6
ByLayer
 62
  256
370
   -1
100
AcDbDimension
  2
*D13
 10
148
 20
160
 30
0
 11
144
 21
163.125
 31
0
 70
   32
 71
    5
 72
    0
  3
Standard
 53
0
210
0
220
0
230
1
100
AcDbAlignedDimension
 13
140
 23
150
 33
0
 14
148
 24
118
 34
0
100
AcDbRotatedDimension
  0
DIMENSION
  5
1B3
100
AcDbEntity
  8
Maß
  6
ByLayer
 62
  256
370
   -1
100
AcDbDimension
  2
*D14
 10
172
 20
160
 30
0
 11
160
 21
163.125
 31
0
 70
   32
 71
    5
 72
    0
  3
Standard
 53
0
210
0
220
0
230
1
100
AcDbAlignedDimension
 13
148
 23
118
 33
0
 14
172
 24
102
 34
0
100
AcDbRotatedDimension
  0
DIMENSION
  5
1B4
100
AcDbEntity
  8
Maß
  6
ByLayer
 62
  256
370
   -1
100
AcDbDimension
  2
*D15
 10
180
 20
160
 30
0
 11
176
 21
163.125
 31
0
 70
   32
 71
    5
 72
    0
  3
Standard
 53
0
210
0
220
0
230
1
100
AcDbAlignedDimension
 13
172
 23
102
 33
0
 14
180
 24
150
 34
0
100
AcDbRotatedDimension
  0
DIMENSION
  5
1B5
100
AcDbEntity
  8
Maß
  6
ByLayer
 62
  256
370
   -1
100
AcDbDimension
  2
*D16
 10
188
 20
160
 30
0
 11
184
 21
163.125
 31
0
 70
   32
 71
    5
 72
    0
  3
Standard
 53
0
210
0
220
0
230
1
100
AcDbAlignedDimension
 13
180
 23
150
 33
0
 14
188
 24
118
 34
0
100
AcDbRotatedDimension
  0
DIMENSION
  5
1B6
100
AcDbEntity
  8
Maß
  6
ByLayer
 62
  256
370
   -1
100
AcDbDimension
  2
*D17
 10
240
 20
160
 30
0
 11
214
 21
163.125
 31
0
 70
   32
 71
    5
 72
    0
  3
Standard
 53
0
210
0
220
0
230
1
100
AcDbAlignedDimension
 13
188
 23
118
 33
0
 14
240
 24
150
 34
0
100
AcDbRotatedDimension
  0
DIMENSION
  5
1B7
100
AcDbEntity
  8
Maß
  6
ByLayer
 62
  256
370
   -1
100
AcDbDimension
  2
*D18
 10
-20
 20
110
 30
0
 11
-23.125
 21
130
 31
0
 70
   32
 71
    5
 72
    0
  3
Standard
 53
0
210
0
220
0
230
1
100
AcDbAlignedDimension
 13
0
 23
150
 33
0
 14
0
 24
110
 34
0
 50
90
100
AcDbRotatedDimension
  0
DIMENSION
  5
1B8
100
AcDbEntity
  8
Maß
  6
ByLayer
 62
  256
370
   -1
100
AcDbDimension
  2
*D19
 10
-20
 20
30
 30
0
 11
-23.125
 21
70
 31
0
 70
   32
 71
    5
 72
    0
  3
Standard
 53
0
210
0
220
0
230
1
100
AcDbAlignedDimension
 13
0
 23
110
 33
0
 14
0
 24
30
 34
0
 50
90
100
AcDbRotatedDimension
  0
DIMENSION
  5
1B9
100
AcDbEntity
  8
Maß
  6
ByLayer
 62
  256
370
   -1
100
AcDbDimension
  2
*D20
 10
-20
 20
2.449293598294707e-15
 30
0
 11
-23.125
 21
15
 31
0
 70
   32
 71
    5
 72
    0
  3
Standard
 53
0
210
0
220
0
230
1
100
AcDbAlignedDimension
 13
0
 23
30
 33
0
 14
0
 24
0
 34
0
 50
90
100
AcDbRotatedDimension
  0
DIMENSION
  5
1BA
100
AcDbEntity
  8
Maß
  6
ByLayer
 62
  256
370
   -1
100
AcDbDimension
  2
*D21
 10
-10
 20
118
 30
0
 11
-13.125
 21
134
 31
0
 70
   32
 71
    5
 72
    0
  3
Standard
 53
0
210
0
220
0
230
1
100
AcDbAlignedDimension
 13
0
 23
150
 33
0
 14
68
 24
118
 34
0
 50
90
100
AcDbRotatedDimension
  0
DIMENSION
  5
1BB
100
AcDbEntity
  8
Maß
  6
ByLayer
 62
  256
370
   -1
100
AcDbDimension
  2
*D22
 10
-10
 20
110
 30
0
 11
-13.125
 21
114
 31
0
 70
   32
 71
    5
 72
    0
  3
Standard
 53
0
210
0
220
0
230
1
100
AcDbAlignedDimension
 13
68
 23
118
 33
0
 14
0
 24
110
 34
0
 50
90
100
AcDbRotatedDimension
  0
DIMENSION
  5
1BC
100
AcDbEntity
  8
Maß
  6
ByLayer
 62
  256
370
   -1
100
AcDbDimension
  2
*D23
 10
-10
 20
102
 30
0
 11
-13.125
 21
106
 31
0
 70
   32
 71
    5
 72
    0
  3
Standard
 53
0
210
0
220
0
230
1
100
AcDbAlignedDimension
 13
0
 23
110
 33
0
 14
52
 24
102
 34
0
 50
90
100
AcDbRotatedDimension
  0
DIMENSION
  5
1BD
100
AcDbEntity
  8
Maß
  6
ByLayer
 62
  256
370
   -1
100
AcDbDimension
  2
*D24
 10
108
 20
160
 30
0
 11
104
 21
163.125
 31
0
 70
   32
 71
    5
 72
    0
  3
Standard
 53
0
210
0
220
0
230
1
100
AcDbAlignedDimension
 13
100
 23
150
 33
0
 14
108
 24
120
 34
0
100
AcDbRotatedDimension
  0
LINE
  5
1BE
100
AcDbEntity
  8
0
  6
ByLayer
 62
  256
370
   -1
100
AcDbLine
 10
240
 20
0
 11
240
 21
25
  0
LINE
  5
1BF
100
AcDbEntity
  8
0
  6
ByLayer
 62
  256
370
   -1
100
AcDbLine
 10
0
 20
0
 11
1.530808498934192e-15
 21
25
  0
LINE
  5
1C0
100
AcDbEntity
  8
0
  6
ByLayer
 62
  256
370
   -1
100
AcDbLine
 10
9.184850993605149e-15
 20
150
 11
7.654042494670958e-15
 21
125
  0
LINE
  5
1C1
100
AcDbEntity
  8
0
  6
ByLayer
 62
  256
370
   -1
100
AcDbLine
 10
240
 20
150
 11
240
 21
125
  0
LINE
  5
1C2
100
AcDbEntity
  8
0
  6
ByLayer
 62
  256
370
   -1
100
AcDbLine
 10
7.654042494670958e-15
 20
125
 11
25.00000000000001
 21
125
  0
LINE
  5
1C3
100
AcDbEntity
  8
0
  6
ByLayer
 62
  256
370
   -1
100
AcDbLine
 10
1.530808498934192e-15
 20
25
 11
25
 21
25
  0
LINE
  5
1C4
100
AcDbEntity
  8
0
  6
ByLayer
 62
  256
370
   -1
100
AcDbLine
 10
240
 20
125
 11
215
 21
125
  0
LINE
  5
1C5
100
AcDbEntity
  8
0
  6
ByLayer
 62
  256
370
   -1
100
AcDbLine
 10
240
 20
25
 11
215
 21
25
  0
CIRCLE
  5
1C6
100
AcDbEntity
  8
Kanten
  6
ByLayer
 62
  256
370
   -1
100
AcDbCircle
 10
25.00000000000001
 20
125
 40
6
  0
CIRCLE
  5
1C7
100
AcDbEntity
  8
Kanten
  6
ByLayer
 62
  256
370
   -1
100
AcDbCircle
 10
25
 20
25
 40
6
  0
CIRCLE
  5
1C8
100
AcDbEntity
  8
Kanten
  6
ByLayer
 62
  256
370
   -1
100
AcDbCircle
 10
215
 20
125
 40
6
  0
CIRCLE
  5
1C9
100
AcDbEntity
  8
Kanten
  6
ByLayer
 62
  256
370
   -1
100
AcDbCircle
 10
215
 20
25
 40
6
  0
LWPOLYLINE
  5
1CA
100
AcDbEntity
  8
Kupferrohr
  6
ByLayer
 62
  256
370
   -1
100
AcDbPolyline
 90
    4
 70
    1
 43
0
 10
209
 20
110
 10
220
 20
110
 10
220
 20
40
 10
209
 20
40
  0
LWPOLYLINE
  5
1CB
100
AcDbEntity
  8
Kupferrohr
  6
ByLayer
 62
  256
370
   -1
100
AcDbPolyline
 90
    4
 70
    1
 43
0
 10
19
 20
110
 10
31
 20
110
 10
31
 20
40
 10
19
 20
40
  0
DIMENSION
  5
1CC
100
AcDbEntity
  8
Maß
  6
ByLayer
 62
  256
370
   -1
100
AcDbDimension
  2
*D25
 10
260
 20
125
 30
0
 11
256.875
 21
137.5
 31
0
 70
   32
 71
    5
 72
    0
  3
Standard
 53
0
210
0
220
0
230
1
100
AcDbAlignedDimension
 13
240
 23
150
 33
0
 14
215
 24
125
 34
0
 50
90
100
AcDbRotatedDimension
  0
DIMENSION
  5
1CD
100
AcDbEntity
  8
Maß
  6
ByLayer
 62
  256
370
   -1
100
AcDbDimension
  2
*D26
 10
260
 20
25
 30
0
 11
256.875
 21
75
 31
0
 70
   32
 71
    5
 72
    0
  3
Standard
 53
0
210
0
220
0
230
1
100
AcDbAlignedDimension
 13
215
 23
125
 33
0
 14
215
 24
25
 34
0
 50
90
100
AcDbRotatedDimension
  0
DIMENSION
  5
1CE
100
AcDbEntity
  8
Maß
  6
ByLayer
 62
  256
370
   -1
100
AcDbDimension
  2
*D27
 10
260
 20
-2.449293598294707e-15
 30
0
 11
256.875
 21
12.5
 31
0
 70
   32
 71
    5
 72
    0
  3
Standard
 53
0
210
0
220
0
230
1
100
AcDbAlignedDimension
 13
215
 23
25
 33
0
 14
240
 24
0
 34
0
 50
90
100
AcDbRotatedDimension
  0
DIMENSION
  5
1CF
100
AcDbEntity
  8
Maß
  6
ByLayer
 62
  256
370
   -1
100
AcDbDimension
  2
*D28
 10
215
 20
-20
 30
0
 11
227.5
 21
-16.875
 31
0
 70
   32
 71
    5
 72
    0
  3
Standard
 53
0
210
0
220
0
230
1
100
AcDbAlignedDimension
 13
240
 23
0
 33
0
 14
215
 24
25
 34
0
100
AcDbRotatedDimension
  0
DIMENSION
  5
1D0
100
AcDbEntity
  8
Maß
  6
ByLayer
 62
  256
370
   -1
100
AcDbDimension
  2
*D29
 10
25
 20
-20
 30
0
 11
120
 21
-16.875
 31
0
 70
   32
 71
    5
 72
    0
  3
Standard
 53
0
210
0
220
0
230
1
100
AcDbAlignedDimension
 13
215
 23
25
 33
0
 14
25
 24
25
 34
0
100
AcDbRotatedDimension
  0
DIMENSION
  5
1D1
100
AcDbEntity
  8
Maß
  6
ByLayer
 62
  256
370
   -1
100
AcDbDimension
  2
*D30
 10
-1.224646799147353e-15
 20
-20
 30
0
 11
12.5
 21
-16.875
 31
0
 70
   32
 71
    5
 72
    0
  3
Standard
 53
0
210
0
220
0
230
1
100
AcDbAlignedDimension
 13
25
 23
25
 33
0
 14
0
 24
0
 34
0
100
AcDbRotatedDimension
  0
DIMENSION
  5
1D2
100
AcDbEntity
  8
Maß
  6
ByLayer
 62
  256
370
   -1
100
AcDbDimension
  2
*D31
 10
90.21114561800017
 20
102.8944271909999
 30
0
 11
98
 21
103
 31
0
 70
   35
 71
    5
 72
    0
  3
Standard
 53
0
210
0
220
0
230
1
100
AcDbDiametricDimension
 15
93.78885438199983
 25
101.1055728090001
 35
0
 40
0
  0
DIMENSION
  5
1D3
100
AcDbEntity
  8
Maß
  6
ByLayer
 62
  256
370
   -1
100
AcDbDimension
  2
*D32
 10
20.75735931288072
 20
29.24264068711929
 30
0
 11
34
 21
22
 31
0
 70
   35
 71
    5
 72
    0
  3
Standard
 53
0
210
0
220
0
230
1
100
AcDbDiametricDimension
 15
29.24264068711928
 25
20.75735931288072
 35
0
 40
0
  0
DIMENSION
  5
1D4
100
AcDbEntity
  8
Maß
  6
ByLayer
 62
  256
370
   -1
100
AcDbDimension
  2
*D33
 10
57.87867965644036
 20
32.12132034355965
 30
0
 11
70
 21
26
 31
0
 70
   35
 71
    5
 72
    0
  3
Standard
 53
0
210
0
220
0
230
1
100
AcDbDiametricDimension
 15
62.12132034355965
 25
27.87867965644036
 35
0
 40
0
  0
DIMENSION
  5
1D5
100
AcDbEntity
  8
Maß
  6
ByLayer
 62
  256
370
   -1
100
AcDbDimension
  2
*D34
 10
64.94974746830583
 20
34.94974746830583
 30
0
 11
52
 21
25
 31
0
 70
   35
 71
    5
 72
    0
  3
Standard
 53
0
210
0
220
0
230
1
100
AcDbDiametricDimension
 15
55.05025253169417
 25
25.05025253169417
 35
0
 40
0
  0
ENDSEC
  0
SECTION
  2
OBJECTS
  0
DICTIONARY
  5
C
330
0
100
AcDbDictionary
281
    1
  3
ACAD_GROUP
350
D
  0
DICTIONARY
  5
D
330
C
100
AcDbDictionary
281
    1
  0
ENDSEC
  0
EOF
